<?xml version="1.0" encoding="UTF-8"?>
<!-- Creator: CorelDRAW X8 -->
<svg xmlns="http://www.w3.org/2000/svg" xmlns:xlink="http://www.w3.org/1999/xlink" xml:space="preserve" width="75.1446mm" height="52.7786mm" version="1.1" style="shape-rendering:geometricPrecision; text-rendering:geometricPrecision; image-rendering:optimizeQuality; fill-rule:evenodd; clip-rule:evenodd" viewBox="0 0 963 676">
 <defs>
  <style type="text/css">
   <![CDATA[
    .fil0 {fill:#ED2124}
   ]]>
  </style>
 </defs>
 <g id="Layer_x0020_1">
  <metadata id="CorelCorpID_0Corel-Layer"></metadata>
  <g id="_2169255005728">
   <g id="_2169254973440">
    <path class="fil0" d="M575 586l0 0c0,0 0,0 0,0zm24 -63l0 0zm-262 -135l0 0zm315 -12l0 0zm-153 -7l0 0c0,0 0,0 0,0zm-39 -28l0 0zm12 -6l0 0zm234 -110l0 0zm-102 -124l0 0zm354 -28l0 0zm-153 -65l0 0zm0 0c-4,0 -20,7 -22,8l-10 5c-4,2 -3,0 -9,3l-33 16c0,0 0,0 0,0l-3 2c0,0 0,0 0,0 -4,3 -1,0 -4,2l-5 2c-1,1 -1,1 -2,2l-16 7c0,0 0,0 0,0l-10 4c0,1 -2,1 -3,2l-22 11c0,0 -1,0 -1,0 -3,2 -7,3 -11,5 0,0 0,1 0,1l-21 10c-1,0 -3,1 -3,1l-3 1c0,0 0,0 0,0 0,0 0,1 0,1l-11 5c0,0 -1,0 -1,0l-6 3c0,0 0,0 0,0l-5 2c-1,1 -2,1 -2,1l-3 2c-1,0 -1,0 -1,0l-57 27c-4,2 -4,3 -12,6l-7 3c-4,2 -7,4 -10,5l-22 10c0,1 0,1 0,1l-9 4c-2,1 0,0 -2,1l-20 9c0,1 0,1 0,1 -5,3 -1,0 -5,1l-2 2c-1,1 0,0 -1,1l-9 4c0,0 0,0 0,0 0,0 0,0 0,0 0,0 -1,0 -1,0l-8 5c0,0 0,0 0,0l-13 5c-2,1 -4,2 -5,2 -2,2 -3,2 -5,3l-34 17c-1,0 -2,0 -2,0 0,1 0,0 -1,1l-1 1c0,0 0,0 0,0l-20 9c0,0 0,0 -1,0l-53 26c-1,0 -1,0 -1,0l-69 33c-4,3 -7,3 -11,2l-1 0c0,0 0,-1 0,-1l-5 -1c0,0 0,0 0,0l-23 -7c-6,-2 -16,-5 -21,-8l-29 -9c0,0 0,0 0,0l-10 -3c-2,0 -1,0 -2,0l-1 -1c0,0 0,0 -1,0l-16 -6c-2,0 -2,0 -4,-1l-54 -18c-2,0 -3,0 -5,-1 0,0 0,-1 -2,0 -1,0 -1,0 -1,1 0,0 -1,0 -1,0 0,0 0,0 -1,0l-5 2c0,0 -1,0 -2,1l-1 1c-3,2 -6,3 -11,5l-11 5c-2,1 -8,3 -10,3 1,2 1,2 3,5 1,0 1,1 2,1 0,1 1,1 1,2 1,1 1,2 2,2l14 16c0,0 0,0 0,0 0,1 0,1 1,1 0,0 0,1 0,1 0,0 0,0 1,0l2 1c0,1 0,2 0,2 1,1 1,0 1,1l11 12c1,1 0,0 2,2 3,2 6,7 10,12l12 11c1,1 2,2 3,3l1 2c4,6 18,19 24,24 2,3 6,7 7,9 2,0 1,0 2,1l5 4c2,2 16,17 19,19l2 3c1,0 1,0 1,0 0,0 0,0 0,0l26 24c1,0 0,0 1,1l6 4c0,0 2,1 2,1l6 2c1,0 0,0 2,0 2,1 0,0 2,1l7 1c2,0 0,0 2,0l29 0c1,0 1,0 2,0l17 -2c5,-1 5,1 12,-1 3,-2 2,0 10,-2l1 0c4,0 18,-3 23,-5 1,0 0,0 2,0l8 -2c2,0 2,0 5,0l4 -2c2,-1 1,0 6,-1l1 0c1,0 1,0 1,0 0,0 0,0 0,0l2 -1c0,0 0,-1 0,-1 4,-1 3,0 5,0 1,0 3,-1 3,-1l5 -1c2,-1 2,0 4,-1l13 -4c3,0 2,0 5,-1 3,0 4,-2 7,-2 2,-1 3,-2 4,-2 1,0 2,0 3,0l9 -3c0,0 0,0 0,0l34 -12c1,0 0,0 2,-1 3,-1 6,-1 9,-3 2,-1 0,-1 2,-1l3 0c0,0 0,0 0,-1 0,0 0,0 0,0l49 -22c0,0 0,0 0,0 2,-1 2,-1 3,-1l6 -2c0,0 0,0 0,0l1 -2c0,0 1,-1 1,-1 1,0 1,0 1,0 0,0 0,0 0,0 2,0 2,-1 4,-2l27 -13 -2 22c0,3 0,4 0,6 0,4 -1,6 -1,8l-3 24c0,1 -1,6 -1,7 0,3 0,4 0,7 0,2 -1,4 -1,7l-2 19c0,4 0,1 0,4 -1,3 -1,5 -1,6 0,3 0,3 -1,6 -1,8 -1,21 -2,30 -2,6 0,6 -2,11l-1 16c0,0 0,0 0,1l-1 9c0,0 0,1 0,1l-1 9c-1,3 0,5 -1,7l-1 3c0,1 0,1 0,2 0,2 0,4 0,5 -1,2 -1,0 -1,2 0,0 0,0 0,1l-2 24c0,4 -2,6 -2,12l0 4c0,4 -1,7 -1,12l-1 6c0,1 0,1 0,1 0,0 0,1 0,1 0,0 0,0 -1,0 0,3 1,6 0,10 -1,5 0,7 -1,12 -1,2 -1,3 -1,3l-2 25c0,1 0,2 -1,2l0 3c0,0 0,1 0,1 -1,3 0,5 -1,9 0,3 -1,6 -1,9 0,3 2,12 8,9l30 -14c1,0 -1,0 1,-1l31 -14c3,-1 1,-1 5,-2l7 -4c1,-1 1,0 2,-1 0,0 1,0 1,0 0,-1 0,-1 0,-1 0,0 0,0 0,-1 2,-1 1,-1 2,-3 1,-1 3,-1 3,-3l2 -2c0,0 0,0 0,0 3,-4 4,-6 5,-11l8 -21c2,-3 2,-5 3,-7 2,-8 6,-15 6,-19l15 -37c1,-5 -1,-1 1,-6 1,-1 0,1 1,-1l0 -1c0,0 0,-1 0,-1 1,-2 1,1 1,-3 1,-2 1,0 2,-3l5 -15c0,0 0,-1 0,-1l17 -45c0,-4 0,-2 2,-7 0,0 0,0 0,0l4 -11c1,-6 1,-6 4,-11l1 -1c1,-4 9,-29 13,-37 1,-4 1,-4 2,-8l3 -6c0,0 0,-1 0,-2 3,-1 0,0 2,-4l5 -14c0,-1 0,0 0,-1 1,-2 0,-1 1,-3l6 -16c0,0 0,0 0,0 0,0 1,0 1,-1l4 -12c0,0 0,-2 0,-2l5 -12c0,-6 3,-10 5,-15l2 -4c1,-5 1,-7 3,-11l5 -13c0,-1 1,-3 2,-5l4 -11c0,-1 0,-2 1,-3l3 -7c2,-7 1,-7 3,-11 1,-2 2,-3 2,-6 2,-2 1,-2 2,-2 2,-2 2,0 5,-3 3,-2 2,0 4,-2l4 -2c2,0 3,-1 4,-2 0,0 2,-1 2,-1l12 -5c0,0 0,0 1,0 0,0 0,0 0,0l47 -24c1,0 1,0 1,0l15 -7c0,0 0,0 0,0 0,0 1,0 1,0 1,0 0,0 1,-1l41 -19c1,0 3,-2 3,-2l37 -17c7,-4 14,-7 21,-11l3 -1c3,-2 -2,0 0,-1 3,-1 2,-2 3,-2l17 -12c0,0 0,0 0,0 0,-1 0,-1 0,-1 1,-1 1,0 2,-1l8 -9c0,0 1,0 1,0 0,-1 0,-1 0,-1 1,-1 2,-2 3,-3l14 -23c3,-4 3,-13 5,-17 0,-2 -2,-12 -2,-13l-3 -7c-1,-2 -1,-2 -1,-4 -4,-6 -5,-6 -12,-11 -3,-3 -9,-8 -15,-10 -3,0 -2,0 -4,-1l-23 -6c-7,-2 0,-1 -9,-2 -2,0 -4,-1 -9,-1 -4,0 -6,0 -9,0 -4,-1 -3,-1 -6,-1 -9,0 -24,0 -33,1l-2 1c0,0 0,0 0,0l-15 2c0,0 0,0 0,0 0,0 0,0 0,0l-6 1c-1,1 -8,2 -9,3l0 0z"></path>
    <path class="fil0" d="M390 155l0 0zm-77 -17l0 0zm-11 -8c3,1 1,1 3,3 1,0 1,0 3,1 2,1 3,3 5,4l7 4c0,1 0,0 1,1l4 2c0,0 0,0 0,0 1,1 1,1 2,2 6,3 7,4 10,6l22 14c3,2 6,0 12,-3 0,0 0,0 1,0l18 -9 38 -17c0,0 1,-1 2,-1 0,0 0,-1 0,-1l34 -15c0,0 0,0 0,0l40 -19c0,0 1,0 1,0 0,0 0,-1 0,-1l1 0c0,0 0,0 0,0 0,0 1,0 1,0 3,-2 6,-2 7,-5 -1,0 -5,-2 -7,-2 -2,-1 -6,-2 -8,-3 -3,-2 -1,0 -3,-1l-13 -5c0,0 -1,0 -1,0l-64 -22c0,0 0,0 0,0 -2,-1 -3,-1 -4,-1 -1,-1 0,-1 -1,-1 0,0 -1,0 -2,0 -3,0 -5,-3 -8,-3l-2 -1c0,0 0,0 0,0l-1 0c-2,0 -2,-1 -4,-2 -2,0 0,1 -5,-1l-13 -5c-1,0 -1,0 -1,0l-73 -25c-1,0 -23,-1 -27,2 0,0 0,0 -1,0l-34 17c0,0 0,0 0,0l-5 2c0,0 0,0 0,0 -1,0 -1,1 -2,1l-2 2c0,0 0,0 0,0 0,0 -1,0 -1,0 -2,0 -1,0 -2,0l-7 4c0,0 0,0 -1,1l-3 1c0,0 -1,1 -1,1 -4,1 -6,2 -8,6 -2,2 -2,5 -2,6 1,2 3,5 5,5l8 6c1,1 2,1 3,2 2,2 4,3 6,4l12 8c1,1 1,0 2,1 1,0 1,1 1,1l2 1c0,0 0,0 0,0l9 6c1,0 1,0 2,1l14 9c2,2 5,2 7,5l23 14c0,0 0,0 0,0l0 0z"></path>
   </g>
  </g>
 </g>
</svg>
