<?xml version="1.0" encoding="UTF-8"?>
<svg xmlns="http://www.w3.org/2000/svg" width="39" height="35.2659" viewBox="0 0 39 35.2659">
  <g>
    <path d="M13.8834,15.4858a.6222.6222,0,0,0-.8529-.2163h0L5.78,19.5877a.6222.6222,0,0,0,0,1.0693l7.25,4.3181a.6223.6223,0,1,0,.6369-1.0693h0L7.3151,20.1224l6.3521-3.7835a.6222.6222,0,0,0,.2163-.8529Z"></path>
    <path d="M25.1167,24.759a.622.622,0,0,0,.8526.2165h0l7.25-4.3181a.6223.6223,0,0,0,0-1.0693L25.97,15.27a.6223.6223,0,1,0-.6369,1.0693h0L31.685,20.123l-6.3521,3.783a.6221.6221,0,0,0-.2163.8528h0Z"></path>
    <path d="M21.8831,15.4573l-5.8,8.6363a.6223.6223,0,0,0,1.0333.6939l5.8-8.6363a.6223.6223,0,0,0-1.0333-.6939Z"></path>
    <path d="M38.3777,0H.6223A.6223.6223,0,0,0,0,.6223H0V34.6436a.6223.6223,0,0,0,.6223.6223H38.3777A.6223.6223,0,0,0,39,34.6436V28.0053a.6224.6224,0,0,0-1.2447,0v6.016H1.2447V6.223H37.7553V28.516a.6224.6224,0,0,0,1.2447,0V.6224A.6223.6223,0,0,0,38.3778,0ZM1.2447,1.2447H24.2713v3.734H1.2447ZM25.516,4.9787V1.2447H37.7553v3.734Z"></path>
    <path d="M31.6564,2.4479a.6638.6638,0,1,0,.6638.6638h0A.6646.6646,0,0,0,31.6564,2.4479Z"></path>
    <path d="M28.2543,2.4479a.6638.6638,0,1,0,.6638.6638h0A.6646.6646,0,0,0,28.2543,2.4479Z"></path>
    <path d="M35.0585,2.4479a.6638.6638,0,1,0,.6638.6638h0A.6646.6646,0,0,0,35.0585,2.4479Z"></path>
  </g>
</svg>
