<?xml version="1.0" encoding="UTF-8"?>
<!-- Creator: CorelDRAW X8 -->
<svg xmlns="http://www.w3.org/2000/svg" xmlns:xlink="http://www.w3.org/1999/xlink" xml:space="preserve" width="55.032mm" height="31.8662mm" version="1.1" style="shape-rendering:geometricPrecision; text-rendering:geometricPrecision; image-rendering:optimizeQuality; fill-rule:evenodd; clip-rule:evenodd" viewBox="0 0 452 262">
 <defs>
  <style type="text/css">
   <![CDATA[
    .fil0 {fill:#ED2124}
   ]]>
  </style>
 </defs>
 <g id="Layer_x0020_1">
  <metadata id="CorelCorpID_0Corel-Layer"></metadata>
  <g id="_2169328214816">
   <path class="fil0" d="M226 176l-134 -41 0 40 0 29c0,32 60,58 134,58 75,0 135,-26 135,-58 0,0 0,0 0,-1l0 -68 -135 41 0 0z"></path>
   <path class="fil0" d="M0 87l48 17 5 -8 18 -2 2 2 -15 4 -3 6c0,0 -34,72 -29,108 0,0 21,12 43,0l6 -97 0 -8 31 -7 -1 6 -25 7 12 5 134 41 135 -41 91 -33 -226 -87 -226 87 0 0z"></path>
  </g>
 </g>
</svg>
