<?xml version="1.0" encoding="UTF-8"?>
<svg xmlns="http://www.w3.org/2000/svg" width="34" height="37.2886" viewBox="0 0 34 37.2886">
  <g>
    <path d="M33.2715,15.3316a.7284.7284,0,0,0-.7285.7283h0V20.821H1.4569V16.06A.7285.7285,0,0,0,0,16.06V21.55a.7284.7284,0,0,0,.7283.7285H16.2715v7.129l-6.647,6.647a.7285.7285,0,0,0,1.03,1.03l5.6166-5.6166v5.1013a.7285.7285,0,0,0,1.4569,0v-5.101l5.6163,5.6163a.7285.7285,0,0,0,1.03-1.03l-6.6467-6.6467V22.2779H33.2712A.7284.7284,0,0,0,34,21.55h0V16.06a.7282.7282,0,0,0-.7279-.7285h0Z"></path>
    <path d="M33.2715,0H.7285A.7284.7284,0,0,0,0,.7283V20.2326a.7285.7285,0,0,0,1.4569,0V5.4712H32.5428V16.2324a.7285.7285,0,0,0,1.4569,0V.7287A.7282.7282,0,0,0,33.272,0ZM1.4569,4.0142V1.4569H32.5428V4.0142Z"></path>
    <path d="M13.0393,18.4481a.7275.7275,0,0,0,.3642-.0976l7.9215-4.5737a.7282.7282,0,0,0,0-1.2614L13.4035,7.9417a.7285.7285,0,0,0-1.0927.6309V17.72a.7286.7286,0,0,0,.7285.7285Zm.7285-8.6138,5.7361,3.312L13.7678,16.458Z"></path>
    <path d="M.7285,13.8747A.7285.7285,0,1,0,0,13.1462H0A.73.73,0,0,0,.7285,13.8747Z"></path>
    <path d="M33.2715,12.4178A.7285.7285,0,1,0,34,13.1463h0A.73.73,0,0,0,33.2715,12.4178Z"></path>
  </g>
</svg>
