<?xml version="1.0" encoding="UTF-8"?>
<!-- Creator: CorelDRAW X8 -->
<svg xmlns="http://www.w3.org/2000/svg" xmlns:xlink="http://www.w3.org/1999/xlink" xml:space="preserve" width="39.8582mm" height="39.8155mm" version="1.1" style="shape-rendering:geometricPrecision; text-rendering:geometricPrecision; image-rendering:optimizeQuality; fill-rule:evenodd; clip-rule:evenodd" viewBox="0 0 183 183">
 <defs>
  <style type="text/css">
   <![CDATA[
    .fil0 {fill:#ED2124}
   ]]>
  </style>
 </defs>
 <g id="Layer_x0020_1">
  <metadata id="CorelCorpID_0Corel-Layer"></metadata>
  <path class="fil0" d="M175 166l-166 0c-5,0 -9,4 -9,8 0,5 4,9 9,9l166 0c4,0 8,-4 8,-9 0,-4 -4,-8 -8,-8z"></path>
  <path class="fil0" d="M19 144c-5,0 -8,4 -8,9 0,4 3,8 8,8l145 0c5,0 8,-4 8,-8 0,-5 -3,-9 -8,-9l-2 0 0 -74 2 0c2,0 4,-2 4,-4 0,-3 -2,-5 -4,-5l-145 0c-3,0 -4,2 -4,5 0,2 1,4 4,4l2 0 0 74 -2 0 0 0zm127 -74l0 74 -26 0 0 -74 26 0zm-42 0l0 74 -25 0 0 -74 25 0zm-66 0l24 0 0 74 -24 0 0 -74z"></path>
  <path class="fil0" d="M9 54l166 0c0,0 0,0 0,0 4,0 8,-4 8,-8 0,-4 -3,-7 -6,-8l-82 -37c-2,-1 -5,-1 -7,0l-83 37c-3,2 -5,6 -5,9 1,4 5,7 9,7l0 0z"></path>
 </g>
</svg>
