<?xml version="1.0" encoding="UTF-8"?>
<!-- Creator: CorelDRAW X8 -->
<svg xmlns="http://www.w3.org/2000/svg" xmlns:xlink="http://www.w3.org/1999/xlink" xml:space="preserve" width="51.6851mm" height="36.3048mm" version="1.1" style="shape-rendering:geometricPrecision; text-rendering:geometricPrecision; image-rendering:optimizeQuality; fill-rule:evenodd; clip-rule:evenodd" viewBox="0 0 315 221">
 <defs>
  <style type="text/css">
   <![CDATA[
    .fil0 {fill:#ED2124}
   ]]>
  </style>
 </defs>
 <g id="Layer_x0020_1">
  <metadata id="CorelCorpID_0Corel-Layer"></metadata>
  <path class="fil0" d="M11 147l0 -134c0,-8 5,-13 13,-13l134 0c8,0 13,5 13,13l0 134c0,2 -1,5 -4,5l-152 0c-2,0 -4,-3 -4,-5l0 0zm108 46c0,15 -12,28 -28,28 -16,0 -28,-13 -28,-28 0,-15 12,-28 28,-28 16,0 28,13 28,28zm-14 0c0,-8 -7,-14 -14,-14 -8,0 -14,6 -14,14 0,8 6,14 14,14 7,0 14,-6 14,-14zm-38 -28l-63 0c-3,0 -4,2 -4,5l0 13c0,2 1,5 4,5l51 0c1,-9 5,-17 12,-23zm198 28c0,15 -12,28 -27,28 -15,0 -29,-13 -29,-28 0,-15 14,-28 29,-28 15,0 27,13 27,28zm-13 0c0,-8 -7,-14 -14,-14 -8,0 -14,6 -14,14 0,8 6,14 14,14 7,0 14,-6 14,-14zm63 -23l0 13c0,2 -2,5 -4,5l-37 0c-2,-18 -18,-32 -36,-32 -19,0 -34,14 -37,32l-73 0c-1,-9 -6,-17 -12,-23l68 0 0 -129c0,-4 5,-9 10,-9l42 0c12,0 24,7 30,17l27 40c5,5 7,13 7,20l0 61 11 0c2,0 4,2 4,5l0 0zm-46 -85l-21 -32c-1,-1 -3,-1 -5,-1l-34 0c-2,0 -4,1 -4,5l0 30c0,4 2,5 4,5l57 0c3,0 6,-4 3,-7l0 0z"></path>
 </g>
</svg>
