<?xml version="1.0" encoding="UTF-8"?>
<!-- Creator: CorelDRAW X8 -->
<svg xmlns="http://www.w3.org/2000/svg" xmlns:xlink="http://www.w3.org/1999/xlink" xml:space="preserve" width="53.2947mm" height="30.0451mm" version="1.1" style="shape-rendering:geometricPrecision; text-rendering:geometricPrecision; image-rendering:optimizeQuality; fill-rule:evenodd; clip-rule:evenodd" viewBox="0 0 441 249">
 <defs>
  <style type="text/css">
   <![CDATA[
    .fil0 {fill:#ED2124}
   ]]>
  </style>
 </defs>
 <g id="Layer_x0020_1">
  <metadata id="CorelCorpID_0Corel-Layer"></metadata>
  <path class="fil0" d="M164 175c-20,0 -37,16 -37,37 0,20 17,37 37,37 20,0 36,-17 36,-37 0,-21 -16,-37 -36,-37zm0 54c-10,0 -19,-7 -19,-17 0,-11 9,-18 19,-18 9,0 18,7 18,18 0,10 -9,17 -18,17zm277 -81l0 38c0,11 -7,18 -18,18l-17 0c-5,-23 -24,-41 -49,-41 -25,0 -45,18 -49,41l-96 0c-3,-23 -24,-41 -48,-41 -25,0 -46,18 -49,41l-23 0c-11,0 -18,-7 -18,-18l0 -38 367 0 0 0 0 0zm-84 27c-21,0 -37,16 -37,37 0,20 16,37 37,37 20,0 37,-17 37,-37 0,-21 -17,-37 -37,-37zm0 54c-11,0 -18,-7 -18,-17 0,-11 7,-18 18,-18 10,0 17,7 17,18 0,10 -7,17 -17,17zm78 -121l-69 -70c-6,-4 -12,-7 -18,-7l-36 0 0 -12c0,-10 -7,-19 -17,-19l-203 0c-11,0 -18,9 -18,19l0 2 -73 9 128 16 -129 13 129 18 -129 12 74 13 0 36 367 0 0 -14c0,-6 -1,-12 -6,-16l0 0zm-31 2l-68 0c-2,0 -2,0 -2,-3l0 -52c0,-2 0,-3 2,-3l13 0c2,0 2,0 2,1l55 52c2,2 1,5 -2,5l0 0z"></path>
 </g>
</svg>
