<?xml version="1.0" encoding="UTF-8"?>
<svg xmlns="http://www.w3.org/2000/svg" width="39.0004" height="36.0412" viewBox="0 0 39.0004 36.0412">
  <g>
    <path d="M31.7181,9.4184A11.297,11.297,0,0,0,10.7866,5.6652,6.4806,6.4806,0,0,0,9.6,5.5529a6.1916,6.1916,0,0,0-6.1832,6.1832,6.7578,6.7578,0,0,0,.1283,1.2832A8.6043,8.6043,0,0,0,0,19.9563a9.1989,9.1989,0,0,0,2.3337,6.087A8.3293,8.3293,0,0,0,8.108,28.9465h6.9611a1.0827,1.0827,0,0,0,0-2.1653H8.2042a6.8287,6.8287,0,0,1-6.0389-6.8328,6.4278,6.4278,0,0,1,3.1838-5.5336A1.0914,1.0914,0,0,0,5.8223,13.1,3.9287,3.9287,0,0,1,5.5817,11.72,4.025,4.025,0,0,1,9.6,7.7022a3.95,3.95,0,0,1,1.3714.2406,1.0876,1.0876,0,0,0,1.3553-.5534A9.1309,9.1309,0,0,1,29.673,10.3968a1.0814,1.0814,0,0,0,.8982.9624,7.8045,7.8045,0,0,1-.7378,15.4139h-5.91a1.0827,1.0827,0,1,0-.0208,2.1653h6.0516a9.5943,9.5943,0,0,0,6.4318-3.1758A9.9815,9.9815,0,0,0,31.718,9.4184Z"></path>
    <path d="M26,20.9829a1.0794,1.0794,0,0,0,.0053-1.5265h0L26,19.4511,20.2659,13.717a1.0955,1.0955,0,0,0-.7619-.3208,1.062,1.062,0,0,0-.7619.3208L13.008,19.4511a1.0867,1.0867,0,0,0,.7619,1.8526,1.0563,1.0563,0,0,0,.7619-.3208l3.89-3.89v17.876a1.0827,1.0827,0,0,0,2.1653,0V17.0933l3.89,3.89a1.07,1.07,0,0,0,1.5132.0093h0Z"></path>
  </g>
</svg>
