<svg width="1920" height="640" viewBox="0 0 1920 640" fill="none" xmlns="http://www.w3.org/2000/svg">
<g clip-path="url(#clip0_118_38)">
<g clip-path="url(#clip1_118_38)">
<path d="M2128.21 636.193L769.473 635.841C769.473 635.841 768.635 635.078 767.112 633.598C766.509 633.009 765.794 632.309 764.98 631.495C762.836 629.337 760.008 626.415 756.69 622.764C755.397 621.352 754.03 619.817 752.607 618.189C746.23 610.912 738.598 601.537 730.698 590.367C728.735 587.594 726.759 584.706 724.776 581.713C724.695 581.586 724.608 581.463 724.527 581.335C723.875 580.352 723.229 579.355 722.569 578.346V578.342C721.606 576.849 720.643 575.335 719.686 573.787C716.167 568.135 712.682 562.148 709.326 555.863C709.114 555.465 708.903 555.07 708.697 554.676C706.361 550.27 704.087 545.708 701.911 541.013C701.725 540.623 701.544 540.22 701.358 539.826C701.104 539.275 700.854 538.711 700.6 538.155C700.383 537.676 700.171 537.197 699.959 536.718C699.425 535.526 698.903 534.326 698.387 533.118C698.338 532.995 698.288 532.88 698.238 532.762C698.089 532.427 697.946 532.083 697.803 531.748C696.199 527.936 694.664 524.048 693.216 520.083C692.515 518.183 691.837 516.271 691.184 514.341C688.331 505.988 685.864 497.312 683.894 488.352C682.484 481.936 681.328 475.372 680.476 468.672C680.463 468.566 680.451 468.452 680.439 468.35C679.202 458.551 678.605 448.48 678.803 438.159C679.668 392.931 695.677 343.072 738.741 292.108C760.649 266.184 783.153 244.787 805.968 227.415C815.62 220.069 825.321 213.438 835.066 207.49C883.648 177.832 933.1 165.11 980.818 164.581C982.745 164.564 984.672 164.558 986.591 164.57C1042.94 165.105 1096.7 182.456 1143.51 208.739C1173.49 225.569 1238.15 223.002 1311.33 181.126C1320.9 175.65 1330.61 169.504 1340.42 162.631C1364.71 145.621 1389.54 124.217 1414.01 97.7222C1415.52 96.0871 1417.02 94.4347 1418.52 92.7623C1430.08 79.9402 1441.54 65.9761 1452.81 50.793C1453.03 50.4949 1453.24 50.2027 1453.47 49.9161C1457.01 45.1931 1460.74 40.6377 1464.65 36.2438C1553.13 -63.3193 1731.8 -79.4228 1875.84 -29.3549C1885.71 -25.9241 1895.43 -22.1818 1904.94 -18.1308C1938.67 -3.77403 1969.85 14.4355 1996.68 36.2438C2002.12 40.65 2007.37 45.2118 2012.43 49.9161C2026.58 63.0736 2039.21 77.3743 2050.02 92.7623C2051.17 94.4024 2052.3 96.0562 2053.42 97.7222C2090.3 153.078 2103.69 222.07 2079.1 302.704C2029.15 466.501 2231.14 472.455 2128.21 636.193Z" fill="#F0F0F8"/>
<path d="M1832.74 334.261V299.829H1822.64V240.623H1768.54V299.829H1717.96V203.356H1662.15V265.98H1649.42V191.215H1593.6V331.394H1523.02V413.137H1496.64V376.75H1436.05V398.274H1401.27V301.915H1358.3V373.239H1315.34V634.57H1358.3H1395.13H1401.27H1436.05H1455.71H1487.21H1496.64H1523.02H1547.79H1593.6H1607.64H1635.55H1649.42H1662.15H1691.36H1711.26H1717.96H1768.54H1821.74H1822.64H1832.74H1875.84V334.261H1832.74Z" fill="#C9C3D9"/>
<path d="M1321.04 381.816V634.191H827.234V414.577H865.087V354.642H902.94V435.618H933.584V417.524H986.966V448.11H1010.2V379.416H1072.39V261.613H1121.56V324.444H1132.77V271.813H1181.95V352.883H1226.51V303.13H1274.18V352.883H1283.07V381.816H1321.04Z" fill="#C9C3D9"/>
<path d="M1904.93 -18.1243V632.708H1875.84V-29.3438C1885.71 -25.9186 1895.42 -22.176 1904.93 -18.1243Z" fill="#DEEDFF"/>
<path d="M835.065 207.496V632.711H805.966V227.426C815.618 220.076 825.32 213.45 835.065 207.496Z" fill="#C9C3D9"/>
<path d="M1340.42 162.637V632.709H1311.33V181.136C1320.9 175.658 1330.61 169.512 1340.42 162.637Z" fill="#C9C3D9"/>
<path d="M1448.57 627.015C1449.12 625.272 1449.62 623.551 1450.09 621.863C1450.17 623.084 1450.22 623.792 1450.22 623.792C1450.22 623.792 1450.8 623.902 1451.7 624.047C1450.85 625.204 1449.76 626.188 1448.57 627.015ZM1429.88 550.472C1430.02 550.472 1430.16 550.472 1430.3 550.472H1429.88ZM1467.67 537.636C1469.4 543.725 1469.46 547.711 1469.15 550.472H1459.87C1459.87 550.472 1464.13 544.306 1467.67 537.636ZM1292.45 559.279C1293.06 559.296 1294.88 559.347 1295.39 559.44H1295.4C1292.59 559.249 1289.51 559.16 1286.38 559.139H1291.69C1291.99 559.224 1292.25 559.275 1292.45 559.279ZM1298.07 559.656L1298.11 559.665L1298.22 559.673C1298.17 559.669 1298.11 559.665 1298.07 559.656ZM1282.66 559.139H1283.4C1283.16 559.143 1282.93 559.143 1282.7 559.143L1282.66 559.139ZM1270.63 545.197C1270.84 545.625 1271.1 546.07 1271.4 546.511C1272.15 547.631 1273.13 548.763 1274.11 549.696C1274.41 549.971 1274.7 550.234 1274.98 550.472H1271.12H1271.12L1274.39 550.463C1275.19 550.459 1271.9 547.707 1270.42 547.253C1270.45 546.914 1270.48 546.558 1270.51 546.18V546.172C1270.56 545.862 1270.59 545.536 1270.63 545.197ZM1319.03 619.772C1319.36 620.922 1319.67 622.049 1319.87 622.821C1320.19 624.174 1319.71 625.696 1319.27 626.85C1319.03 627.477 1318.79 628.117 1318.74 628.8C1318.72 629.016 1318.74 629.207 1318.79 629.381C1316.67 628.279 1315.38 626.298 1313.63 624.445C1313.1 623.877 1312.58 622.923 1312.1 621.871C1312.61 621.706 1312.86 621.528 1312.86 621.528C1312.86 621.528 1311.75 615.295 1310.01 606.886C1314.35 613.637 1318.57 619.649 1318.57 619.649C1318.57 619.649 1318.75 619.7 1319.03 619.772ZM1300.45 548.572C1300.01 548.572 1299.61 548.848 1299.5 549.267C1299.33 549.895 1299.81 550.472 1300.42 550.472H1284.97C1284.14 549.611 1283.36 548.763 1282.65 548.004C1282.81 547.783 1282.96 547.571 1283.09 547.355C1283.79 546.303 1284.28 545.421 1284.46 545.218C1285.03 544.59 1282.18 543.348 1281.01 542.406C1280.64 542.11 1279.91 540.045 1279.1 537.377H1310.17L1309.87 546.291C1309.83 547.563 1308.79 548.572 1307.52 548.572H1302.02H1300.45ZM1533.46 550.472H1511.42C1513.48 533.68 1516.82 522.578 1516.87 522.421C1516.9 522.315 1516.93 522.167 1516.93 522.014C1516.93 522.014 1517.67 517.414 1509.79 517.303C1502.43 517.202 1498.85 520.246 1498.2 521.357C1496.14 511.926 1493.24 504.107 1489.68 503.005C1488.15 502.53 1486.37 502.339 1484.51 502.322C1484.33 501.745 1483.87 500.558 1483.12 500.27C1483.05 500.248 1482.97 500.232 1482.84 500.223C1482.26 498.9 1481.69 497.251 1481.3 495.313C1481.34 495.232 1481.35 495.152 1481.38 495.067C1484.28 491.195 1485.97 483.151 1484.61 481.748C1479.59 476.553 1461.73 479.92 1468.63 486.052C1468.55 486.276 1468.48 486.497 1468.41 486.717C1467.84 488.799 1468.66 499.4 1471.28 499.68C1471.28 499.68 1472.12 499.723 1473.32 499.625C1473.37 500.155 1473.43 500.995 1473.51 501.962C1472.92 502.097 1472.54 502.191 1472.5 502.203C1471.13 502.699 1470.07 503.989 1469.55 504.735C1469.55 504.735 1460.64 509.382 1459.47 513.758C1458.32 518.134 1454.03 539.349 1452.39 540.838C1450.74 542.322 1431.82 545.773 1431.82 545.773C1431.82 545.773 1431.59 546.045 1431.28 546.486C1429.98 545.778 1427.89 544.696 1427.03 544.569C1425.84 544.391 1420.64 548.699 1420.33 549.827C1419.77 550.2 1419.42 550.472 1419.42 550.472H1416.5V549.658H1410.86L1410.85 549.649C1412.46 549.645 1413.6 549.641 1413.78 549.641C1413.53 549.641 1411.63 549.594 1411.36 548.165C1411.34 548.05 1411.32 547.932 1411.32 547.8C1411.33 547.576 1411.43 546.405 1411.6 544.569C1411.64 544.098 1411.69 543.59 1411.74 543.034C1411.83 541.991 1411.94 540.808 1412.06 539.519L1412.16 538.895H1450.69L1452.88 537.615L1449.94 526.598H1449.96L1449.8 525.988H1449.83L1437.11 478.444L1437.09 478.406H1358.56H1358.44V478.453L1357.29 478.83L1371.61 538.895H1395.25L1394.51 547.728C1394.51 547.728 1394.11 550.446 1396.14 550.455C1396.84 550.455 1398 550.459 1399.38 550.459V550.472H1324.13L1324.26 550.459H1324.52C1325.19 550.463 1325.73 549.887 1325.66 549.217L1324.48 537.377H1344.23H1345.65L1351.96 485.924H1350.55H1282.47L1277.04 530.139C1276.03 526.429 1275.25 523.32 1275.25 523.32C1274.67 521.896 1272.42 513.826 1271.29 512.618C1270.86 512.147 1269.88 511.782 1268.86 511.498C1269.13 511.04 1269.28 510.527 1269.23 509.955C1268.97 506.834 1272.61 507.092 1274.85 503.509C1276.8 500.371 1273.31 499.579 1275.18 494.507C1276.55 490.792 1272.98 489.889 1273.09 486.785C1273.09 486.785 1272.64 481.014 1264.33 482.511C1262.14 482.914 1260.63 478.996 1257.03 480.391C1249.3 483.393 1248.84 479.428 1246.61 484.992C1245.67 487.324 1239.72 490.038 1241.54 494.062C1243.35 498.086 1240.31 500.796 1242.45 503.95C1243.55 505.583 1243.11 508.5 1248.32 508.602C1249.15 508.619 1250.11 509.111 1251.14 509.806C1249.46 510.137 1247.25 510.748 1245.7 511.825L1245.7 511.833H1245.69L1245.69 511.837C1245.33 512.088 1245.01 512.363 1244.74 512.669L1244.69 512.724C1244.29 513.207 1243.98 513.86 1243.74 514.606C1243.74 514.606 1242.62 517.583 1241.41 521.4C1240.2 521.132 1238.81 520.967 1237.21 520.992C1237 520.997 1236.82 521.001 1236.64 521.014C1236.23 520.997 1235.81 520.984 1235.37 520.992C1228.3 521.098 1228.97 525.547 1228.97 525.547C1228.97 525.695 1228.99 525.835 1229.03 525.945C1229.06 526.089 1231.75 535.69 1233.6 550.472H1207.55C1205.17 550.472 1203.22 552.422 1203.22 554.805C1203.22 557.188 1205.17 559.139 1207.55 559.139H1225.43L1225.27 560.314L1220.25 597.777L1215.55 632.79C1215.49 633.21 1215.82 633.575 1216.25 633.575C1216.75 633.575 1217.16 633.231 1217.25 632.761L1222.7 601.874L1228.8 567.319V567.314L1230.23 559.139H1234.51C1235.04 565.334 1235.37 572.149 1235.3 579.349L1235.29 579.442C1235.27 579.544 1235.25 579.646 1235.25 579.752V580.464C1235.25 580.532 1235.26 580.595 1235.27 580.663C1235.28 580.774 1235.28 580.884 1235.28 580.981C1235.28 580.981 1235.32 580.981 1235.38 580.986C1235.57 581.342 1235.94 581.583 1236.37 581.583H1236.62L1236.6 581.728C1236.6 581.974 1238.25 601.526 1231.86 633.397H1233.05C1241.84 607.823 1241.42 585.332 1241.04 581.583H1246.88L1246.85 581.728C1246.86 581.974 1248.5 601.526 1242.12 633.397H1243.3C1252.09 607.823 1251.67 585.332 1251.29 581.583H1274.09C1273.71 585.332 1273.29 607.823 1282.07 633.397H1283.26C1276.88 601.526 1278.52 581.974 1278.52 581.728L1278.5 581.583H1284.28C1283.89 585.332 1283.47 607.823 1292.25 633.397H1293.45C1288.87 610.55 1288.42 594.033 1288.53 586.417C1288.66 587.77 1288.81 589.233 1289.04 590.738C1289.98 596.794 1305.76 621.286 1305.76 621.286C1305.76 621.286 1305.92 621.329 1306.18 621.405C1306.35 622.028 1306.49 622.592 1306.61 623.037C1306.94 624.394 1306.45 625.912 1306.01 627.062C1305.77 627.693 1305.54 628.338 1305.48 629.016C1305.3 630.95 1307.99 631.416 1311.1 631.569C1314.22 631.726 1313.27 632.362 1317.54 633.138C1321.81 633.91 1323.52 632.739 1323.83 632.163C1323.96 631.921 1323.57 631.603 1322.89 631.247C1323.37 631.293 1323.86 631.327 1324.36 631.353C1327.48 631.506 1326.53 632.146 1330.8 632.922C1335.07 633.689 1336.77 632.523 1337.09 631.951C1337.36 631.433 1335.37 630.636 1333.26 629.733C1332.99 629.619 1332.73 629.5 1332.46 629.385C1330.08 628.342 1328.75 626.205 1326.89 624.225C1326.1 623.377 1325.33 621.681 1324.71 620.082C1325.36 619.861 1325.66 619.615 1325.66 619.615C1325.66 619.615 1314.04 566.297 1306.78 561.717C1305.74 561.06 1304.06 560.564 1301.94 560.182C1302.05 560.08 1301.68 559.665 1301.09 559.139H1454.4C1442.58 561.721 1430.25 565.046 1428.15 568.018C1423.96 573.98 1417.43 624.734 1417.43 624.734C1417.43 624.734 1417.49 624.751 1417.61 624.78C1414.92 627.85 1410.57 629.551 1407.75 630.043C1404.26 630.649 1404.18 633.524 1404.18 633.524L1416.12 633.592C1416.12 633.592 1425.47 633.592 1425.72 633.575C1427.04 633.482 1427.74 628.631 1428.04 625.747C1428.25 625.696 1428.43 625.641 1428.61 625.577C1428.61 625.577 1444.21 585.362 1445.48 581.007C1445.61 580.549 1446.05 580.188 1446.74 579.9C1446.88 579.959 1447.03 579.989 1447.19 579.989H1450.3L1450.27 580.137C1450.27 580.18 1450.33 580.943 1450.39 582.376C1449.46 583.534 1448.8 584.772 1448.67 586.04C1448.37 588.792 1448.78 598.676 1449.26 607.636C1448.59 613.717 1447.56 620.697 1446.04 628.465C1444.32 629.288 1442.61 629.805 1441.25 630.043C1437.76 630.649 1437.68 633.524 1437.68 633.524L1444.99 633.571L1444.99 633.592H1446.31L1446.32 633.575L1449.62 633.592C1449.62 633.592 1453.52 633.592 1456.35 633.592H1457.68L1457.68 633.588C1458.55 633.588 1459.16 633.583 1459.22 633.575C1460.82 633.46 1461.49 626.515 1461.67 624.318C1462.02 624.191 1462.3 624.038 1462.48 623.847C1462.48 623.847 1462.76 620.239 1463.1 615.299C1465.89 603.044 1466.65 592.642 1466.75 586.244C1470.6 584.569 1478.93 581.927 1485.73 579.989H1492.02C1491.6 583.86 1491.13 607.14 1500.93 633.592H1502.25C1495.14 600.627 1496.97 580.392 1496.98 580.137L1496.94 579.989H1503.47C1503.04 583.86 1502.57 607.14 1512.37 633.592H1513.7C1506.58 600.627 1508.4 580.392 1508.42 580.137L1508.39 579.989H1508.71C1509.17 579.989 1509.56 579.735 1509.77 579.37C1509.84 579.37 1509.88 579.361 1509.88 579.361C1509.9 579.255 1509.9 579.128 1509.9 579.001C1509.91 578.933 1509.92 578.857 1509.92 578.789V578.136C1509.92 578.021 1509.9 577.907 1509.86 577.801V577.678C1509.79 571.131 1510.07 564.906 1510.54 559.139H1514.8L1515.98 565.843L1522.95 605.317L1527.79 632.761C1527.87 633.231 1528.29 633.575 1528.77 633.575C1529.2 633.575 1529.53 633.21 1529.48 632.79L1525.9 606.097L1519.86 561.073L1519.59 559.139H1533.46C1535.84 559.139 1537.79 557.188 1537.79 554.805C1537.79 552.422 1535.84 550.472 1533.46 550.472Z" fill="#C7DDEA"/>
<path d="M2109.6 626.952C2110.16 625.201 2110.67 623.462 2111.15 621.753C2111.21 622.987 2111.26 623.708 2111.26 623.708C2111.26 623.708 2111.85 623.814 2112.76 623.958C2111.9 625.133 2110.81 626.121 2109.6 626.952ZM2090.74 549.726V549.722C2090.88 549.722 2091.03 549.722 2091.18 549.722L2090.74 549.726ZM2128.88 536.772C2130.61 542.92 2130.68 546.936 2130.37 549.726H2121.01C2121.01 549.726 2125.31 543.501 2128.88 536.772ZM1978.9 619.646C1979.23 620.808 1979.55 621.944 1979.74 622.724C1980.08 624.09 1979.57 625.625 1979.14 626.787C1978.9 627.423 1978.66 628.071 1978.6 628.754C1978.58 628.97 1978.6 629.165 1978.65 629.348C1976.52 628.233 1975.21 626.235 1973.45 624.361C1972.91 623.789 1972.38 622.83 1971.9 621.774C1972.41 621.596 1972.67 621.418 1972.67 621.418C1972.67 621.418 1971.55 615.13 1969.79 606.64C1974.18 613.455 1978.43 619.527 1978.43 619.527C1978.43 619.527 1978.61 619.578 1978.9 619.646ZM1960.15 547.809C1959.71 547.809 1959.31 548.085 1959.19 548.505C1959.02 549.141 1959.51 549.726 1960.12 549.726H1944.53C1943.69 548.857 1942.89 548 1942.19 547.233C1942.34 547.012 1942.5 546.792 1942.64 546.584C1943.34 545.511 1943.83 544.629 1944.02 544.421C1944.6 543.789 1941.71 542.534 1940.53 541.584C1940.16 541.283 1939.43 539.197 1938.6 536.513H1969.95L1969.66 545.507C1969.62 546.792 1968.56 547.809 1967.28 547.809H1961.73H1960.15ZM2195.25 549.726H2173.02C2175.1 532.781 2178.47 521.578 2178.52 521.417C2178.55 521.307 2178.58 521.163 2178.58 521.01C2178.58 521.01 2179.33 516.363 2171.38 516.252C2163.95 516.151 2160.34 519.221 2159.69 520.349C2157.59 510.825 2154.68 502.946 2151.08 501.826C2149.55 501.352 2147.75 501.157 2145.88 501.14C2145.68 500.559 2145.22 499.363 2144.47 499.066C2144.4 499.045 2144.3 499.028 2144.19 499.028C2143.59 497.688 2143.01 496.017 2142.63 494.062C2142.66 493.986 2142.69 493.905 2142.71 493.821C2145.63 489.915 2147.34 481.791 2145.97 480.374C2140.9 475.133 2122.89 478.53 2129.84 484.721C2129.76 484.95 2129.69 485.17 2129.63 485.395C2129.05 487.494 2129.87 498.188 2132.51 498.481C2132.51 498.481 2133.37 498.51 2134.58 498.417C2134.63 498.951 2134.7 499.804 2134.77 500.775C2134.17 500.915 2133.79 501.008 2133.76 501.017C2132.36 501.521 2131.3 502.823 2130.77 503.574C2130.77 503.574 2121.78 508.268 2120.61 512.682C2119.43 517.096 2115.12 538.502 2113.46 540.003C2111.79 541.5 2092.71 544.981 2092.71 544.981C2092.71 544.981 2092.46 545.257 2092.16 545.698C2090.84 544.981 2088.75 543.895 2087.86 543.764C2086.67 543.59 2081.42 547.932 2081.11 549.069C2080.55 549.45 2080.19 549.726 2080.19 549.726H2077.25V548.899H2071.55L2071.54 548.895C2073.17 548.891 2074.31 548.882 2074.5 548.882C2074.25 548.882 2072.34 548.84 2072.06 547.389C2072.04 547.275 2072.03 547.156 2072.03 547.029C2072.03 546.804 2072.13 545.621 2072.3 543.764C2072.34 543.293 2072.39 542.776 2072.44 542.22C2072.54 541.165 2072.64 539.973 2072.77 538.671L2072.86 538.044H2111.75L2113.95 536.75L2110.99 525.632H2111L2110.84 525.021H2110.88L2098.03 477.05L2098.03 477.012H2018.78H2018.66V477.05L2017.5 477.436L2031.95 538.044H2055.8L2055.06 546.953C2055.06 546.953 2054.66 549.701 2056.69 549.709C2057.41 549.709 2058.59 549.709 2059.97 549.709V549.726H1984.04L1984.17 549.709L1984.43 549.713C1985.12 549.722 1985.66 549.132 1985.58 548.454L1984.38 536.513H2004.33V536.504H2005.76L2012.12 484.598H2010.7V484.594H1942.01L1936.53 529.207C1935.5 525.462 1934.71 522.329 1934.71 522.329C1934.14 520.887 1931.87 512.75 1930.73 511.529V511.52C1930.29 511.054 1929.31 510.68 1928.27 510.405C1928.55 509.934 1928.69 509.421 1928.64 508.84C1928.38 505.694 1932.06 505.961 1934.32 502.335C1936.28 499.168 1932.77 498.371 1934.65 493.252C1936.03 489.504 1932.43 488.596 1932.55 485.463C1932.55 485.463 1932.08 479.641 1923.71 481.15C1922.71 481.328 1921.85 480.637 1920.89 479.938C1919.7 479.085 1918.34 478.233 1916.34 479.005C1908.54 482.041 1908.08 478.038 1905.82 483.656C1904.88 486.006 1898.87 488.741 1900.7 492.803C1902.54 496.865 1899.47 499.596 1901.62 502.781C1902.74 504.426 1902.29 507.373 1907.55 507.479C1908.38 507.496 1909.36 507.992 1910.39 508.692C1908.71 509.022 1906.47 509.642 1904.91 510.731H1904.9V510.736V510.744C1904.53 510.99 1904.21 511.274 1903.93 511.579L1903.89 511.635C1903.47 512.122 1903.16 512.784 1902.93 513.534H1902.93C1902.93 513.534 1901.8 516.536 1900.58 520.387C1899.35 520.124 1897.95 519.958 1896.33 519.98C1896.13 519.98 1895.94 519.992 1895.76 519.997C1895.35 519.98 1894.93 519.975 1894.48 519.98C1887.35 520.081 1888.03 524.572 1888.03 524.572C1888.03 524.725 1888.05 524.865 1888.08 524.971C1888.12 525.119 1890.83 534.808 1892.69 549.726H1866.41C1864.02 549.726 1862.04 551.693 1862.04 554.094C1862.04 556.498 1864.02 558.465 1866.41 558.465H1884.46L1884.3 559.653L1879.23 597.452L1874.48 632.787C1874.42 633.206 1874.76 633.58 1875.19 633.58C1875.69 633.58 1876.11 633.228 1876.19 632.757L1881.69 601.586L1887.84 566.721L1889.3 558.465H1893.62C1894.16 564.72 1894.48 571.594 1894.41 578.857V578.955C1894.38 579.052 1894.36 579.158 1894.36 579.269V579.99C1894.36 580.053 1894.37 580.121 1894.38 580.18C1894.38 580.295 1894.38 580.409 1894.39 580.503C1894.39 580.503 1894.43 580.503 1894.5 580.511C1894.68 580.867 1895.06 581.113 1895.49 581.113H1895.75L1895.72 581.257C1895.73 581.503 1897.39 601.238 1890.94 633.397H1892.14C1901 607.59 1900.58 584.896 1900.2 581.113H1906.1L1906.06 581.257C1906.08 581.503 1907.73 601.238 1901.29 633.397H1902.49C1911.35 607.59 1910.92 584.896 1910.55 581.113H1933.54C1933.17 584.896 1932.74 607.59 1941.6 633.397H1942.8C1936.37 601.238 1938.02 581.503 1938.02 581.257L1938 581.113H1943.83C1943.44 584.896 1943.01 607.59 1951.88 633.397H1953.09C1948.46 610.347 1948.01 593.678 1948.12 585.994C1948.26 587.359 1948.4 588.835 1948.63 590.353C1949.59 596.459 1965.51 621.172 1965.51 621.172C1965.51 621.172 1965.67 621.223 1965.93 621.299C1966.09 621.919 1966.24 622.491 1966.37 622.945C1966.69 624.31 1966.19 625.845 1965.77 627.007C1965.52 627.643 1965.29 628.283 1965.23 628.975C1965.05 630.921 1967.76 631.396 1970.9 631.553C1974.04 631.714 1973.1 632.35 1977.39 633.13C1981.7 633.91 1983.43 632.736 1983.73 632.155C1983.87 631.905 1983.48 631.587 1982.79 631.226C1983.26 631.273 1983.76 631.311 1984.27 631.332C1987.42 631.493 1986.47 632.134 1990.77 632.918C1995.07 633.69 1996.8 632.515 1997.12 631.934C1997.39 631.417 1995.39 630.611 1993.25 629.7C1992.99 629.585 1992.72 629.466 1992.45 629.348C1990.05 628.292 1988.7 626.142 1986.83 624.141C1986.03 623.288 1985.24 621.575 1984.63 619.96C1985.28 619.739 1985.59 619.493 1985.59 619.493C1985.59 619.493 1973.85 565.691 1966.54 561.073C1965.48 560.412 1963.78 559.903 1961.65 559.517C1961.76 559.419 1961.39 559.004 1960.8 558.465H2115.49C2103.56 561.073 2091.11 564.423 2089 567.425C2084.77 573.442 2078.18 624.658 2078.18 624.658C2078.18 624.658 2078.25 624.671 2078.36 624.7C2075.66 627.8 2071.26 629.513 2068.42 630.009C2064.9 630.628 2064.82 633.529 2064.82 633.529L2076.86 633.597C2076.86 633.597 2086.29 633.597 2086.54 633.58C2087.88 633.482 2088.59 628.584 2088.89 625.676C2089.09 625.629 2089.29 625.574 2089.47 625.506C2089.47 625.506 2105.21 584.925 2106.48 580.532C2106.62 580.07 2107.06 579.71 2107.75 579.417C2107.89 579.477 2108.05 579.51 2108.21 579.51H2111.35L2111.32 579.659C2111.32 579.701 2111.39 580.473 2111.45 581.915C2110.51 583.081 2109.84 584.332 2109.7 585.608C2109.4 588.394 2109.81 598.359 2110.3 607.408C2109.62 613.535 2108.59 620.579 2107.05 628.423C2105.32 629.246 2103.59 629.772 2102.22 630.009C2098.7 630.628 2098.62 633.529 2098.62 633.529L2105.99 633.571L2105.98 633.597H2107.33V633.58L2110.66 633.597C2110.66 633.597 2114.6 633.597 2117.46 633.588V633.597H2118.8L2118.81 633.588C2119.68 633.584 2120.29 633.584 2120.35 633.58C2121.97 633.457 2122.65 626.456 2122.83 624.23C2123.18 624.107 2123.45 623.954 2123.64 623.759C2123.64 623.759 2123.92 620.116 2124.27 615.134C2127.09 602.769 2127.85 592.278 2127.95 585.82C2131.83 584.128 2140.24 581.461 2147.1 579.51H2153.45C2153.02 583.416 2152.55 606.903 2162.43 633.597H2163.77C2156.59 600.327 2158.44 579.909 2158.45 579.659L2158.42 579.51H2164.99C2164.57 583.416 2164.1 606.903 2173.98 633.597H2175.32C2168.13 600.327 2169.98 579.909 2169.99 579.659L2169.96 579.51H2170.29C2170.74 579.51 2171.14 579.248 2171.34 578.883C2171.43 578.879 2171.48 578.879 2171.48 578.879C2171.49 578.764 2171.49 578.637 2171.49 578.51C2171.49 578.442 2171.51 578.366 2171.51 578.293V577.64C2171.51 577.522 2171.49 577.407 2171.46 577.301L2171.44 577.174C2171.38 570.572 2171.66 564.283 2172.13 558.465H2176.43L2177.62 565.233L2184.66 605.063L2189.53 632.757C2189.63 633.228 2190.04 633.58 2190.53 633.58C2190.97 633.58 2191.3 633.206 2191.24 632.787L2187.63 605.856L2181.53 560.416L2181.27 558.465H2195.25C2197.66 558.465 2199.63 556.498 2199.63 554.094C2199.63 551.693 2197.66 549.726 2195.25 549.726Z" fill="#D7E9F2"/>
<path d="M723.563 545.082H713.681C713.681 545.082 718.225 538.518 721.985 531.419C723.818 537.899 723.886 542.143 723.563 545.082ZM795.302 546.439C794.463 545.603 793.313 545.082 792.039 545.082H768.572C770.753 527.2 774.32 515.382 774.376 515.212C774.413 515.094 774.432 514.941 774.432 514.78C774.432 514.78 775.234 509.882 766.831 509.764C759.001 509.649 755.191 512.889 754.495 514.076C752.295 504.043 749.212 495.715 745.414 494.536C743.793 494.04 741.897 493.837 739.927 493.815C739.722 493.192 739.231 491.933 738.436 491.627C738.373 491.598 738.268 491.585 738.143 491.581C737.515 490.169 736.907 488.409 736.509 486.344C736.533 486.259 736.558 486.174 736.589 486.085C739.673 481.964 741.468 473.394 740.027 471.901C734.669 466.372 715.67 469.955 723.004 476.489C722.917 476.722 722.848 476.96 722.78 477.197C722.171 479.415 723.041 490.703 725.832 491C725.832 491 726.726 491.042 728.007 490.936C728.057 491.513 728.125 492.399 728.205 493.425C727.572 493.578 727.168 493.671 727.137 493.684C725.67 494.214 724.545 495.588 723.985 496.381C723.985 496.381 721.618 497.615 719.089 499.438C716.565 501.253 713.88 503.662 713.259 505.994C712.016 510.65 707.466 533.243 705.708 534.82C705.167 535.308 702.874 535.999 699.959 536.715C700.17 537.195 700.382 537.678 700.599 538.153C700.854 538.713 701.103 539.272 701.357 539.824C701.544 540.222 701.724 540.621 701.91 541.011C704.085 545.705 706.36 550.268 708.697 554.673C708.902 555.068 709.113 555.462 709.325 555.861C712.68 562.145 716.167 568.132 719.685 573.789C720.642 575.333 721.606 576.846 722.568 578.339V578.343C723.228 579.353 723.874 580.353 724.526 581.337C724.607 581.46 724.694 581.583 724.775 581.71C729.343 580.056 735.751 578.072 741.213 576.52H747.919C747.553 579.861 747.155 596.84 752.606 618.186C754.029 619.814 755.396 621.349 756.688 622.761C751.63 594.109 753.184 576.91 753.196 576.664L753.159 576.52H760.101C759.647 580.646 759.149 605.422 769.584 633.596H770.995C763.413 598.489 765.365 576.944 765.371 576.664L765.34 576.52H765.695C766.173 576.52 766.589 576.249 766.806 575.85C766.887 575.85 766.937 575.85 766.937 575.85C766.95 575.727 766.95 575.596 766.95 575.46C766.968 575.388 766.974 575.316 766.974 575.235V574.54C766.974 574.417 766.95 574.298 766.918 574.188L766.912 574.052C766.844 567.081 767.135 560.445 767.633 554.309H772.17L773.432 561.45L780.846 603.48L785.998 632.714C786.085 633.206 786.533 633.579 787.055 633.579C787.514 633.579 787.862 633.18 787.801 632.739L783.985 604.324L777.552 556.37L777.278 554.309H792.039C794.581 554.309 796.657 552.235 796.657 549.695C796.657 548.432 796.135 547.278 795.302 546.439ZM703.11 519.665L703.128 519.656L702.955 519.012H702.992L689.437 468.39L689.424 468.348H680.438C680.451 468.449 680.463 468.564 680.475 468.67C681.326 475.37 682.483 481.934 683.893 488.354C685.864 497.309 688.331 505.985 691.183 514.339C691.836 516.273 692.513 518.181 693.216 520.08C694.664 524.045 696.199 527.934 697.802 531.746C697.945 532.081 698.088 532.424 698.237 532.759H703.912L706.236 531.389L703.11 519.665Z" fill="#C9C3D9"/>
<path d="M1815.99 53.5624V162.922C1815.99 163.879 1815.98 164.819 1815.96 165.732C1815.76 174.261 1814.63 180.817 1813.3 180.817H1812.91C1811.66 180.817 1810.62 175.174 1810.31 167.553C1810.28 166.926 1810.27 166.284 1810.24 165.63V165.491C1810.22 164.653 1810.22 163.795 1810.22 162.922V53.0625C1812.16 53.1876 1814.08 53.3513 1815.99 53.5624Z" fill="#C9C3D9"/>
<path d="M1811.6 165.449C1790.57 165.449 1773.52 183.48 1773.52 205.721H1849.69C1849.69 183.48 1832.65 165.449 1811.6 165.449Z" fill="#C9C3D9"/>
<path d="M1814.64 165.949C1813.55 165.711 1812.43 165.586 1811.3 165.586C1797.59 165.586 1786.48 183.559 1786.48 205.731H1793.17C1793.17 185.395 1802.52 168.593 1814.64 165.949Z" fill="#EFCAC4"/>
<path d="M1535.2 53.5601V162.921C1535.2 163.876 1535.19 164.819 1535.17 165.732C1534.96 174.259 1533.85 180.819 1532.5 180.819H1532.12C1530.88 180.819 1529.83 175.172 1529.52 167.552C1529.5 166.925 1529.47 166.28 1529.46 165.629L1529.45 165.489C1529.44 164.655 1529.43 163.791 1529.43 162.921V53.0547C1531.37 53.1827 1533.3 53.3532 1535.2 53.5601Z" fill="#C9C3D9"/>
<path d="M1530.81 165.465C1509.77 165.465 1492.72 183.493 1492.72 205.736H1568.89C1568.89 183.493 1551.84 165.465 1530.81 165.465Z" fill="#C9C3D9"/>
<path d="M1533.84 165.951C1532.75 165.714 1531.63 165.586 1530.49 165.586C1516.79 165.586 1505.68 183.563 1505.68 205.733H1512.37C1512.37 185.398 1521.72 168.595 1533.84 165.951Z" fill="#EFCAC4"/>
<path d="M986.591 164.576V186.485C986.591 187.435 986.578 188.379 986.553 189.289V189.3C986.348 197.827 985.236 204.385 983.894 204.385H983.508C982.265 204.385 981.215 198.743 980.91 191.121V191.11C980.879 190.488 980.861 189.843 980.848 189.193L980.842 189.058V189.052C980.824 188.215 980.817 187.361 980.817 186.485V164.587C982.744 164.571 984.671 164.565 986.591 164.576Z" fill="#C9C3D9"/>
<path d="M982.2 189.027C961.165 189.027 944.114 207.057 944.114 229.3H1020.29C1020.29 207.057 1003.23 189.027 982.2 189.027Z" fill="#C9C3D9"/>
<path d="M985.234 189.516C984.14 189.278 983.024 189.148 981.89 189.148C968.186 189.148 957.076 207.127 957.076 229.296H963.765C963.765 208.959 973.112 192.156 985.234 189.516Z" fill="#EFCAC4"/>
<path d="M1882.1 618.289H2204.61C2192.32 627.872 2176.89 633.596 2160.19 633.596H1701.79C1661.88 633.596 1629.24 600.954 1629.24 561.056V325.285C1629.24 285.388 1661.88 252.746 1701.79 252.746H2160.19C2178.81 252.746 2195.85 259.857 2208.72 271.497H1882.1C1848.02 271.497 1820.13 299.379 1820.13 333.46V556.324C1820.13 590.412 1848.02 618.289 1882.1 618.289Z" fill="#C2D9EF"/>
<path d="M1890.23 618.288H2209.27C2197.11 627.871 2181.85 633.596 2165.33 633.596H1711.86C1672.4 633.596 1640.11 600.953 1640.11 561.056V325.285C1640.11 285.387 1672.4 252.746 1711.86 252.746H2165.33C2183.74 252.746 2200.59 259.856 2213.33 271.497H1890.23C1856.51 271.497 1828.94 299.378 1828.94 333.46V556.323C1828.94 590.412 1856.51 618.288 1890.23 618.288Z" fill="#9ABEDB"/>
<path d="M2050.02 92.7685H1418.52C1430.08 79.9468 1441.54 65.9815 1452.81 50.7984C1453.03 50.5007 1453.24 50.2085 1453.47 49.9219C1457.01 45.1993 1460.74 40.6435 1464.65 36.25H1996.67C2002.1 40.6566 2007.35 45.2176 2012.42 49.9219C2026.56 63.0789 2039.21 77.3805 2050.02 92.7685Z" fill="#C9C3D9"/>
<path d="M1539.65 503.55C1540.41 484.922 1542.04 468.715 1544 457.415C1547.12 439.401 1549.92 429.038 1549.96 428.923C1550.37 427.342 1556.29 420.93 1569.47 421.13C1582.66 421.325 1581.4 429.733 1581.4 429.733C1581.41 430.017 1581.37 430.28 1581.31 430.48C1581.19 430.916 1569.08 474.787 1569.61 531.435C1569.62 532.228 1569.71 533.606 1569.65 534.518C1569.65 534.522 1539.1 535.306 1539.1 534.518C1538.03 529.569 1538.55 515.851 1539.65 503.55Z" fill="#D1A586"/>
<path d="M1535.82 531.155C1535.82 531.944 1536.24 532.58 1536.75 532.58H1536.76C1537.27 532.567 1537.67 531.935 1537.68 531.155H1563.86C1563.86 531.944 1564.28 532.58 1564.79 532.58H1564.8C1565.32 532.567 1565.73 531.91 1565.72 531.113C1565.57 514.897 1566.5 499.759 1567.9 486.389C1571.38 453.068 1577.81 430.789 1577.9 430.48C1577.96 430.28 1578 430.017 1578 429.733C1578 429.733 1579.25 421.325 1566.07 421.13C1552.88 420.93 1546.95 427.342 1546.54 428.923C1546.51 429.008 1544.93 434.877 1542.82 445.427C1542.12 448.925 1541.36 452.937 1540.59 457.415C1538.63 468.715 1537 484.922 1536.24 503.55C1535.14 515.856 1534.75 526.206 1535.82 531.155Z" fill="#E5BD9E"/>
<path d="M1535.81 531.15C1535.82 531.938 1536.23 532.574 1536.75 532.574H1536.76C1537.27 532.562 1537.67 531.93 1537.68 531.15H1563.86C1563.87 531.938 1564.28 532.574 1564.79 532.574H1564.8C1565.32 532.562 1565.73 531.904 1565.72 531.107C1565.57 514.892 1566.5 499.754 1567.89 486.388C1563.57 465.237 1546.84 449.06 1542.82 445.426C1542.12 448.92 1541.36 452.931 1540.59 457.409C1538.64 468.714 1537 484.917 1536.24 503.545C1535.13 515.85 1534.75 526.201 1535.81 531.15Z" fill="#DFB697"/>
<path d="M1556.35 529.046C1559.42 529.046 1561.38 529.203 1562.07 529.929C1562.18 525.061 1562.91 495.67 1564.65 480.761C1565.78 471.034 1572.54 431.64 1572.58 431.518C1572.62 431.378 1572.64 431.191 1572.64 431.004C1572.65 430.962 1572.91 429.041 1571.48 427.358C1570.05 425.687 1567.51 424.813 1563.91 424.754C1563.77 424.754 1563.63 424.754 1563.48 424.754C1554.14 424.754 1549.87 429.24 1549.56 430.445C1549.48 430.725 1541.98 461.247 1540.68 478.416C1540.55 480.023 1540.29 482.737 1539.95 486.18C1538.61 499.669 1535.85 527.745 1538.62 528.232C1542.97 528.996 1547.34 529.093 1550.65 529.093C1551.77 529.093 1552.84 529.08 1553.84 529.068C1554.73 529.059 1555.57 529.046 1556.35 529.046ZM1562.21 530.849H1562.15L1562.1 530.806C1562.07 530.772 1562.06 530.747 1562.06 530.692V530.687V530.62C1562.02 529.56 1559.84 529.352 1556.35 529.352C1555.57 529.352 1554.73 529.356 1553.84 529.369C1552.84 529.381 1551.77 529.39 1550.65 529.39C1547.32 529.39 1542.94 529.297 1538.56 528.525C1535.76 528.033 1537.65 506.39 1539.65 486.151C1539.99 482.708 1540.26 479.994 1540.39 478.395C1541.67 461.408 1549.2 430.606 1549.27 430.364C1549.6 429.092 1554.12 424.292 1563.92 424.457C1567.61 424.512 1570.23 425.424 1571.7 427.163C1573.23 428.956 1572.95 430.941 1572.94 431.026C1572.94 431.216 1572.92 431.433 1572.87 431.602C1572.82 431.768 1566.06 471.28 1564.95 480.795C1563.05 496.951 1562.37 530.119 1562.35 530.62V530.687V530.832L1562.21 530.849Z" fill="#D1A586"/>
<path d="M1567.66 532.577H1465.02C1465.02 532.577 1467.41 522.9 1526.85 524.342C1568.91 525.359 1567.66 532.577 1567.66 532.577Z" fill="#E5BD9E"/>
<path d="M1576.01 633.598C1564.11 573.354 1567.17 536.391 1567.18 535.925C1567.22 535 1565.51 534.156 1564.59 534.122C1563.66 534.105 1559.55 533.851 1559.08 534.644C1558.45 535.683 1556.05 581.229 1573.79 633.598H1576.01Z" fill="#D1A586"/>
<path d="M1480.18 633.598C1492.08 573.354 1489.02 536.391 1489.01 535.929C1488.97 535 1490.69 534.156 1491.6 534.122C1492.54 534.105 1496.65 533.851 1497.12 534.644C1497.74 535.683 1500.14 581.233 1482.4 633.598H1480.18Z" fill="#D1A586"/>
<path d="M1461.2 633.594C1473.1 573.355 1470.03 536.387 1470.02 535.925C1469.99 534.996 1471.7 534.157 1472.61 534.123C1473.55 534.106 1477.66 533.851 1478.13 534.64C1478.75 535.683 1481.15 581.229 1463.42 633.594H1461.2Z" fill="#A0795F"/>
<path d="M1556.89 633.598C1544.99 573.354 1548.05 536.391 1548.06 535.925C1548.1 535 1546.38 534.156 1545.47 534.122C1544.53 534.105 1540.43 533.851 1539.96 534.644C1539.33 535.683 1536.94 581.229 1554.67 633.598H1556.89Z" fill="#A0795F"/>
<path d="M1464.97 535.659H1567.6C1568.75 535.659 1569.7 534.717 1569.7 533.556V532.177C1569.7 531.02 1568.75 530.074 1567.6 530.074H1464.97C1463.81 530.074 1462.87 531.02 1462.87 532.177V533.556C1462.87 534.717 1463.81 535.659 1464.97 535.659Z" fill="#D1A586"/>
<path d="M1445.36 443.1C1441 440.564 1438.83 438.529 1435.66 438.071C1432.48 437.613 1426.74 437.257 1425.94 436.044C1423.98 433.084 1421.92 427.3 1423.37 427.678C1424.82 428.055 1430.25 431.799 1431.96 431.21C1433.66 430.629 1429.35 429.242 1430.39 428.386C1431.47 427.491 1436.18 429.658 1437.27 432.084C1437.65 432.932 1451.16 437.13 1451.16 437.13L1445.36 443.1Z" fill="#FFB27D"/>
<path d="M1507.04 597.061C1507.89 598.037 1508 599.135 1507.57 600.301L1507.57 600.318C1506.79 602.476 1504.21 604.889 1501.2 607.298C1500.82 607.612 1500.48 607.891 1500.18 608.154C1500.11 608.222 1500.03 608.29 1499.96 608.358C1499.89 608.413 1499.84 608.468 1499.77 608.519C1496.97 611.097 1498.03 611.687 1493 616.923C1487.27 622.885 1483.32 622.996 1482.2 622.453C1481.25 621.986 1483.18 618.827 1485.32 615.27C1485.43 615.1 1485.53 614.926 1485.62 614.752C1485.92 614.282 1486.2 613.803 1486.48 613.328C1488.99 609.045 1488.34 607.039 1487.74 600.666C1487.27 595.493 1479.7 571.755 1479.7 571.755L1490.68 569.859C1490.68 569.859 1493.99 588.767 1497.64 591.676C1499.59 593.228 1501.77 593.249 1503.64 594.399C1503.77 594.475 1503.9 594.56 1504.03 594.64C1505.09 595.348 1506.18 596.078 1507.04 597.061Z" fill="#FFB27D"/>
<path d="M1507.04 597.061C1507.89 598.037 1508 599.135 1507.57 600.301L1507.57 600.318C1506.61 602.476 1504.1 604.881 1501.2 607.281C1500.81 607.595 1500.48 607.883 1500.18 608.154C1500.11 608.222 1500.03 608.29 1499.96 608.358C1499.89 608.413 1499.84 608.468 1499.77 608.519C1496.97 611.097 1498.03 611.687 1493 616.923C1487.27 622.885 1483.32 622.996 1482.2 622.453C1481.25 621.986 1483.18 618.827 1485.32 615.27C1486.44 614.863 1491.62 612.755 1495.54 607.739C1498.99 603.337 1501.29 597.676 1503.64 594.398C1503.77 594.475 1503.9 594.56 1504.03 594.64C1505.09 595.348 1506.18 596.078 1507.04 597.061Z" fill="#C65447"/>
<path d="M1418.44 590.206C1417.77 593.598 1412.93 593.034 1407.53 591.711C1402.13 590.392 1403.42 591.965 1395.73 591.113C1388.04 590.265 1385.71 587.399 1385.48 586.254C1385.27 585.236 1389.07 584.88 1393.14 584.413C1393.65 584.354 1394.17 584.295 1394.68 584.227C1399.28 583.65 1402.65 580.682 1406.83 578.244C1410.79 575.937 1416.69 566.527 1416.69 566.527L1427.23 567.367C1427.23 567.367 1421.7 575.767 1419.56 579.418C1418.3 581.568 1418.37 584.405 1418.53 586.601C1418.61 587.793 1418.69 589.014 1418.44 590.206Z" fill="#FFB27D"/>
<path d="M1407.53 591.712C1402.13 590.393 1403.42 591.966 1395.73 591.114C1388.04 590.266 1385.71 587.399 1385.48 586.254C1385.27 585.237 1389.07 584.881 1393.14 584.414L1393.18 584.49C1393.18 584.49 1397.79 587.76 1404.19 587.912C1409.4 588.035 1414.93 586.543 1418.53 586.602C1418.61 587.794 1418.69 589.015 1418.44 590.206C1417.77 593.599 1412.93 593.035 1407.53 591.712Z" fill="#C65447"/>
<path d="M1458.84 522.805L1481.56 583.943C1481.56 583.943 1485.06 584.283 1488.4 583.32C1491.48 582.434 1495 580.097 1495 580.097C1495 580.097 1489.37 521.393 1479.04 509.185C1468.71 496.973 1458.84 522.805 1458.84 522.805Z" fill="#AA413E"/>
<path d="M1548.7 498.064C1548.7 498.064 1483.42 475.993 1468.86 480.691C1454.3 485.381 1410.6 572.352 1410.6 572.352C1410.6 572.352 1411.58 573.662 1414.27 574.675C1416.78 575.613 1422.84 575.553 1422.84 575.553C1422.84 575.553 1462.29 541.74 1466.99 531.881C1471.68 522.014 1473.57 512.622 1478.26 513.563C1482.95 514.5 1538.84 536.575 1551.52 523.422C1564.2 510.277 1560.88 493.192 1560.88 493.192L1548.7 498.064Z" fill="#C65447"/>
<path d="M1508.81 395.387C1507.77 393.233 1506.6 389.413 1506.03 382.598C1506.12 383.277 1507.29 391.872 1510.6 396.732C1524.17 405.649 1550.19 435.413 1549.68 441.048C1549.68 441.048 1558.84 425.507 1559 425.409C1559 425.409 1575.91 403.915 1555.87 391.592C1545.69 385.334 1545.74 377.306 1546.16 370.327C1546.6 363.348 1543.38 333.309 1522.98 341.168C1522.98 341.168 1519.71 339.715 1518.25 339.935C1518.25 339.935 1519.44 340.161 1520.05 340.789C1517.69 340.653 1514.31 340.823 1511.49 342.428C1504 346.68 1497.31 384.808 1508.81 395.387Z" fill="#B5453C"/>
<path d="M1511.4 397.174C1511.33 397.203 1517.94 400.647 1522.93 399.285C1527.61 398.005 1530.68 391.928 1530.62 391.911C1528.63 391.521 1528.06 388.79 1528.1 377.074L1527.2 377.252L1512.12 380.238C1512.12 380.238 1512.46 384.987 1512.47 389.46C1512.48 393.213 1512.25 396.775 1511.4 397.174Z" fill="#FFB27D"/>
<path d="M1512.12 380.239C1512.12 380.239 1512.47 384.989 1512.47 389.458C1520.92 389.221 1525.38 381.52 1527.21 377.25L1512.12 380.239Z" fill="#ED975D"/>
<path d="M1528.76 375.609C1528.76 375.609 1533.19 368.616 1534.25 362.641C1535.01 358.378 1532.83 342.558 1516.94 344.837C1516.94 344.837 1512.33 345.294 1507.98 348.223C1504.54 350.553 1499.56 355.585 1505.13 369.384L1506.57 374.048L1528.76 375.609Z" fill="#B5453C"/>
<path d="M1509.3 384.472C1509.3 384.472 1529.27 384.807 1529.28 372.361C1529.3 359.923 1531.89 351.59 1519.14 350.854C1506.39 350.114 1503.91 354.858 1502.89 359.013C1501.87 363.163 1504.11 384.069 1509.3 384.472Z" fill="#FFB27D"/>
<path d="M1510.05 350.55C1510.05 350.55 1515.51 365.143 1523.9 367.301C1532.3 369.455 1535.93 367.211 1535.93 367.211C1535.93 367.211 1529.5 362.095 1528.16 353.167C1528.16 353.167 1514.17 343.601 1510.05 350.55Z" fill="#B5453C"/>
<path d="M1511.4 351.731C1511.4 351.731 1507.32 354.987 1506.32 358.159C1505.33 361.325 1504.88 367.842 1502.98 367.621C1502.98 367.621 1498.85 357.707 1503.48 352.092C1508.4 346.144 1511.4 351.731 1511.4 351.731Z" fill="#B5453C"/>
<path d="M1555.87 450.908C1557.83 442.647 1551.14 426.619 1544.14 413.351C1537.79 401.325 1531.2 391.564 1530.62 391.915C1513.87 401.855 1512.36 393.595 1512.36 393.595C1512.36 393.595 1497.16 395.613 1492.86 403.025C1486.9 413.27 1480.41 444.026 1474.05 443.568C1471.12 443.36 1441.69 432.301 1441.69 432.301C1441.69 432.301 1436.78 436.893 1437.73 442.529C1437.73 442.529 1452.26 452.26 1464.55 458.468C1471.05 461.75 1476.92 464.053 1479.68 463.396C1485.28 462.081 1494.02 449.106 1498.75 441.464L1498.77 441.409C1504.81 475.549 1496.61 483.321 1500.76 486.921C1505.14 490.721 1511.41 485.115 1525.18 491.085C1534.22 495.004 1546.76 500.673 1555.2 501.657C1559.63 502.174 1562.93 501.407 1564 498.417C1567.14 489.729 1552.11 466.652 1555.87 450.908Z" fill="#699DEE"/>
<path d="M1513.74 376.937C1513.74 376.937 1513.37 378.515 1509.43 378.273C1509.43 378.273 1506.14 378.069 1506.23 376.335C1506.23 376.335 1509.44 375.093 1513.74 376.937Z" fill="white"/>
<path d="M1564 498.408C1562.93 501.397 1559.63 502.165 1555.2 501.647C1549.35 499.103 1524.11 489.32 1524.4 482.701C1524.82 472.889 1529.25 472.575 1526.12 460.469C1523.61 450.746 1546.93 432.669 1550.65 428.742C1557.65 442.01 1557.83 442.638 1555.87 450.898C1552.11 466.643 1567.14 489.719 1564 498.408Z" fill="#4A75CB"/>
<path d="M1498.75 441.46C1494.02 449.102 1485.28 462.077 1479.68 463.392C1476.92 464.049 1471.04 461.746 1464.54 458.464C1469.29 459.69 1473.89 459.656 1478.37 459.219C1483.23 458.753 1484.64 452.803 1492.3 443.882C1497.28 438.094 1498.51 439.552 1498.75 441.46Z" fill="#4A75CB"/>
<path d="M1522.14 460.239C1522.14 460.239 1517.91 456.953 1513.92 457.733C1509.93 458.518 1507.97 461.257 1508.13 462.512C1508.29 463.759 1510.4 467.282 1513.45 467.6C1516.5 467.91 1525.19 465.718 1525.19 465.718L1522.14 460.239Z" fill="#FFB27D"/>
<path d="M1530.62 391.914C1530.62 391.914 1546.89 392.919 1552.53 400.781C1560.46 411.844 1574.23 457.004 1570.47 467.334L1520.96 467.13C1520.96 467.13 1519.76 461.516 1521.43 458.806C1523.09 456.088 1550.24 451.708 1551.48 450.457C1552.74 449.206 1535.83 426.036 1535.83 422.279C1535.83 418.523 1530.62 391.914 1530.62 391.914Z" fill="#699DEE"/>
<path d="M1515.09 479.075H1455.14L1444.33 441.387H1504.19L1515.09 479.075Z" fill="#1C468A"/>
<path d="M1455.34 477.609H1533.72V479.081H1455.34V477.609Z" fill="#163560"/>
<path d="M1474.18 459.623C1473.79 458.292 1474.56 457.219 1475.88 457.219C1477.21 457.219 1478.59 458.292 1478.97 459.623C1479.35 460.946 1478.59 462.019 1477.26 462.019C1475.93 462.019 1474.55 460.946 1474.18 459.623Z" fill="#163560"/>
<path d="M1340.11 479.075H1400.06L1410.87 441.387H1351.01L1340.11 479.075Z" fill="#C65447"/>
<path d="M1399.86 477.609H1321.48V479.081H1399.86V477.609Z" fill="#C65447"/>
<path d="M1381.03 459.623C1381.4 458.292 1380.64 457.219 1379.31 457.219C1377.99 457.219 1376.61 458.292 1376.23 459.623C1375.85 460.946 1376.62 462.019 1377.94 462.019C1379.26 462.019 1380.65 460.946 1381.03 459.623Z" fill="#AA413E"/>
<path d="M1356.49 411.575C1356.49 411.575 1362.57 406.601 1364.76 406.575C1366.95 406.55 1371.1 405.456 1370.94 406.164C1370.78 406.876 1367.28 407.805 1367.88 408.132C1368.48 408.458 1373.56 407.097 1374.98 407.915C1376.41 408.738 1379.74 412.122 1377.06 413.597C1374.38 415.073 1366.35 417.426 1364.27 417.155C1362.2 416.879 1357.49 416.549 1357.49 416.549L1356.49 411.575Z" fill="#FFB27D"/>
<path d="M1278.76 596.539L1283.87 618.038L1291.51 617.995L1291.79 596.539H1278.76Z" fill="#FFB27D"/>
<path d="M1343.07 597.453L1357.81 617.761L1363.25 610.768L1354.52 594.625L1343.07 597.453Z" fill="#FFB27D"/>
<path d="M1313.31 337.509V337.504C1313.31 337.453 1313.3 337.396 1313.3 337.346C1313.2 336.277 1313.08 335.214 1312.93 334.162V334.157C1312.5 330.934 1311.86 327.836 1311.1 325.065C1310.66 323.477 1310.18 321.995 1309.66 320.661C1309.58 320.457 1309.5 320.265 1309.43 320.067L1309.42 320.062C1308.18 317.031 1306.77 314.855 1305.32 314.034C1302.68 312.531 1299.51 312.372 1297.3 312.497C1297.87 311.909 1298.99 311.7 1298.99 311.7C1297.61 311.49 1294.56 312.853 1294.56 312.853C1275.48 305.503 1272.47 333.597 1272.88 340.127C1273.27 346.657 1266.46 348.789 1256.53 353.928C1237.59 363.743 1235.93 376.884 1235.93 376.884C1236.07 376.973 1236.23 377.071 1236.39 377.19C1237.33 375.595 1239.27 372.601 1240.9 372.152C1240.84 372.296 1238.97 376.265 1238.27 378.538C1240.66 380.366 1243.94 383.126 1247.48 386.217L1247.48 386.222C1252.23 390.356 1257.43 395.071 1261.6 398.892C1261.57 397.586 1261.62 395.737 1262.1 394.762L1262.89 399.549L1263 400.177C1265.66 402.619 1267.75 404.57 1268.81 405.57C1268.93 405.668 1269.03 405.761 1269.11 405.838C1269.42 406.13 1269.59 406.283 1269.59 406.283C1269.43 404.608 1271.78 400.652 1275.48 395.771C1275.73 395.432 1276 395.088 1276.26 394.736C1277.45 393.193 1278.75 391.581 1280.15 389.928C1280.65 389.326 1281.16 388.728 1281.69 388.117C1282.11 387.625 1282.54 387.137 1282.97 386.646L1282.98 386.641C1284.01 385.471 1285.07 384.296 1286.15 383.113C1288.95 380.065 1291.88 377.062 1294.74 374.332C1298.9 370.358 1302.9 366.96 1306.14 364.829C1306.26 364.654 1306.38 364.467 1306.49 364.281C1307.1 363.308 1307.61 362.2 1308.05 361.063C1308.19 360.719 1308.31 360.373 1308.43 360.029C1309.7 356.376 1310.28 352.65 1310.4 351.763C1310.09 355.427 1309.59 358.151 1309.04 360.187C1308.91 360.634 1308.79 361.046 1308.66 361.425V361.431C1308.38 362.29 1308.1 362.997 1307.82 363.574C1308.37 363.059 1308.88 362.483 1309.35 361.838C1309.65 361.42 1309.94 360.973 1310.21 360.504C1313.4 354.946 1314.08 346.058 1313.31 337.509Z" fill="#163560"/>
<path d="M1305.39 365.25C1305.46 365.278 1299.26 368.495 1294.6 367.219C1290.21 366.024 1287.35 360.342 1287.42 360.331C1289.27 359.958 1289.81 357.408 1289.77 346.445L1290.6 346.615L1304.72 349.408C1304.72 349.408 1304.39 353.846 1304.38 358.03C1304.38 361.541 1304.59 364.877 1305.39 365.25Z" fill="#FFB27D"/>
<path d="M1289.43 318.629C1289.43 318.629 1296.39 311.223 1305.14 318.251C1305.14 318.251 1300.05 317.374 1289.43 318.629Z" fill="#E37970"/>
<path d="M1304.72 349.403C1304.72 349.403 1304.39 353.841 1304.38 358.024C1296.49 357.804 1292.32 350.601 1290.6 346.609L1304.72 349.403Z" fill="#ED975D"/>
<path d="M1289.15 345.071C1289.15 345.071 1285.01 338.535 1284.02 332.943C1283.31 328.952 1285.34 314.156 1300.21 316.287C1300.21 316.287 1304.53 316.711 1308.58 319.453C1311.81 321.636 1316.47 326.34 1311.26 339.253L1309.91 343.612L1289.15 345.071Z" fill="#163560"/>
<path d="M1360.96 605.127L1353.48 605.36L1345.38 605.606C1345.38 605.606 1326.68 584.786 1316.19 551.41C1315.94 550.634 1315.69 549.849 1315.41 549.056C1309.67 532.315 1297.77 511.309 1291.5 492.286C1290.5 489.258 1289.6 486.409 1288.8 483.712C1288.55 482.847 1288.29 481.999 1288.06 481.159C1283.43 465.105 1282.09 454.559 1280.86 443.297L1326.14 443.657C1326.14 443.657 1333.45 520.578 1360.96 605.127Z" fill="#2B478B"/>
<path d="M1319.81 417.632C1319.69 439.186 1322.97 448.43 1322.97 448.43C1322.97 448.43 1303.58 458.276 1280.53 451.03C1280.26 450.945 1261.45 446.649 1261.45 446.649C1261.84 445.776 1265.27 431.252 1265.64 430.455C1270.51 420.007 1274.2 415.423 1274.78 412.209C1275.85 406.217 1275.88 400.009 1275.34 394.158C1273.94 378.667 1269.75 365.803 1269.75 365.803C1276.03 364.379 1282.07 361.942 1288.61 359.488C1290.11 361.359 1294.54 363.248 1298.53 363.157C1303.12 363.056 1304.61 361.088 1304.37 358.945C1309.27 361.665 1313.17 364.237 1313.17 364.237C1317.32 371.459 1325.76 378.472 1326.37 389.548C1326.52 392.275 1319.81 417.026 1319.81 417.632Z" fill="#E7F1FD"/>
<path d="M1307.35 353.366C1307.35 353.366 1288.67 353.677 1288.66 342.041C1288.64 330.406 1286.22 322.609 1298.15 321.919C1310.08 321.23 1312.4 325.668 1313.35 329.552C1314.3 333.43 1312.21 352.987 1307.35 353.366Z" fill="#FFB27D"/>
<path d="M1306.66 321.622C1306.66 321.622 1301.55 335.276 1293.7 337.295C1285.84 339.313 1282.44 337.21 1282.44 337.21C1282.44 337.21 1288.46 332.427 1289.71 324.076C1289.71 324.076 1302.8 315.126 1306.66 321.622Z" fill="#163560"/>
<path d="M1305.4 322.736C1305.4 322.736 1309.21 325.784 1310.14 328.752C1311.08 331.715 1311.5 337.815 1313.27 337.606C1313.27 337.606 1317.13 328.328 1312.79 323.075C1308.21 317.512 1305.4 322.736 1305.4 322.736Z" fill="#163560"/>
<path d="M1283.6 616.832C1283.6 616.832 1284.22 621.089 1282.63 625.648C1282.63 625.648 1281.38 631.351 1287 631.453C1292.61 631.563 1293.99 631.029 1293.36 627.535C1292.72 624.041 1291.51 617.994 1291.51 617.994L1283.6 616.832Z" fill="#FFB27D"/>
<path d="M1294.1 634.845H1281.8C1281.29 632.318 1282.41 626.924 1282.59 625.89C1282.6 625.809 1282.62 625.754 1282.63 625.716L1282.63 625.657C1288.99 631.483 1292.97 625.504 1292.97 625.504L1292.98 625.538C1293.91 627.819 1294.11 633.959 1294.1 634.845Z" fill="#C45446"/>
<path d="M1376.79 628.108C1376.79 628.108 1366.44 616.621 1363.26 610.77L1355.55 614.713L1372.77 630.873L1376.79 630.347L1376.79 628.108Z" fill="#FFB27D"/>
<path d="M1383.37 634.844C1383.37 634.844 1370.54 634.844 1370.34 634.844C1368.42 634.844 1366.89 631.668 1364.82 627.534C1363.98 625.842 1362.08 624.909 1360.13 624.4L1360.19 634.844H1357.18L1354.41 623.802C1352.58 620.431 1354.27 617.374 1355.55 614.715C1357.06 614.711 1361.1 615.741 1368.75 624.358C1371.26 627.182 1374.03 628.195 1376.79 628.11L1376.91 628.174C1383.26 631.032 1383.37 634.844 1383.37 634.844Z" fill="#C45446"/>
<path d="M1353.48 605.361L1345.38 605.607C1345.38 605.607 1326.68 584.787 1316.19 551.411C1315.95 550.635 1315.69 549.85 1315.42 549.057C1309.67 532.316 1297.78 511.31 1291.5 492.287C1290.5 489.26 1289.6 486.41 1288.8 483.713C1288.55 482.848 1288.29 482 1288.06 481.16L1294.72 476.102C1294.72 476.102 1314.75 508.519 1320.94 539.033C1326.33 565.54 1347.89 597.428 1353.48 605.361Z" fill="#233862"/>
<path d="M1295.42 541.869C1295.54 556.706 1294.78 590.82 1292.85 604.936H1285.68C1281.72 604.936 1279.74 604.881 1279.74 604.881C1274.89 580.325 1271.44 560.014 1268.93 542.501C1266.88 528.134 1265.04 515.816 1263.64 505.215C1262.22 494.546 1261.23 485.607 1260.88 478.06C1260.82 476.872 1260.78 475.715 1260.76 474.595C1260.74 473.463 1260.73 472.365 1260.74 471.305L1299.87 467.488C1299.38 493.482 1295.35 533.24 1295.42 541.869Z" fill="#2B478B"/>
<path d="M1285.68 604.943C1281.72 604.943 1279.74 604.888 1279.74 604.888C1274.89 580.332 1271.44 560.02 1268.93 542.508C1266.88 528.141 1265.04 515.823 1263.64 505.222C1262.22 494.553 1261.23 485.614 1260.88 478.066L1275.24 486.513C1275.24 486.513 1266.07 489.749 1269.57 514.216C1273.07 538.691 1280.81 601.483 1285.68 604.943Z" fill="#233862"/>
<path d="M1287.53 477.829C1287.53 477.829 1284.77 487.789 1275.24 486.517C1265.7 485.245 1252.14 479.525 1252.14 479.525C1252.14 479.525 1256.22 466.651 1261.28 449.728C1267.42 429.251 1268.94 400.467 1272.52 383.815C1273.53 379.151 1280.28 377.637 1280.53 374.842L1288.61 359.492C1288.61 359.492 1300.24 385.969 1300.88 392.639C1301.51 399.318 1287.53 477.829 1287.53 477.829Z" fill="#A8DADC"/>
<path d="M1280.86 412.294C1280.43 423.107 1276.66 441.536 1261.47 449.639C1261.4 449.673 1261.34 449.703 1261.28 449.724C1267.42 429.247 1267.34 409.597 1270.92 392.95C1279.08 391.245 1281.09 406.349 1280.86 412.294Z" fill="#77ABBD"/>
<path d="M1379.52 405.832H1364.88C1364.87 405.9 1364.86 406.184 1364.83 406.574C1364.78 407.901 1364.69 410.505 1364.71 410.747C1364.91 413.851 1367.07 415.564 1369.16 416.382H1369.17L1369.19 416.399C1369.69 416.594 1370.18 416.734 1370.64 416.832C1370.99 416.908 1371.33 416.959 1371.63 416.984C1371.83 417.005 1372.02 417.018 1372.2 417.018C1373.27 417.018 1374.29 416.785 1375.2 416.374C1377.78 415.22 1379.58 412.625 1379.58 409.631V406.756C1379.58 406.443 1379.56 406.137 1379.52 405.832Z" fill="#C45446"/>
<path d="M1378.33 405.832H1376.34C1376.38 406.133 1376.4 406.443 1376.4 406.756V409.631C1376.4 411.633 1375.59 413.461 1374.29 414.8C1373.64 415.458 1372.87 415.992 1372.02 416.374C1371.58 416.569 1371.12 416.721 1370.64 416.832C1370.44 416.883 1370.23 416.916 1370.01 416.942C1370.34 416.993 1370.67 417.018 1371 417.018C1371.22 417.018 1371.43 417.005 1371.63 416.984C1372.47 416.921 1373.27 416.704 1374 416.374C1375.38 415.755 1376.53 414.728 1377.31 413.448H1377.32C1377.62 412.939 1377.88 412.388 1378.05 411.811C1378.27 411.12 1378.38 410.39 1378.38 409.631V406.756C1378.38 406.443 1378.36 406.133 1378.33 405.832Z" fill="#E37970"/>
<path d="M1369.19 417.274H1375.22V416.375H1369.19V417.274Z" fill="#C45446"/>
<path d="M1358.38 408.884C1358.38 408.884 1337.39 415.881 1334.77 415.296C1332.14 414.715 1328.4 386.27 1326.37 376.522C1323.76 363.966 1313.81 361.473 1313.81 361.473L1304.37 358.945C1304.37 358.945 1315.18 385.647 1315.5 391.049C1315.81 396.452 1316.77 479.411 1316.77 479.411C1316.77 479.411 1316.14 483.227 1323.45 481.641C1330.76 480.051 1332.67 478.461 1332.67 478.461C1332.67 478.461 1329.5 455.27 1328 434.679C1335.46 433.407 1359.41 421.266 1359.41 421.266C1363.12 415.432 1358.38 408.884 1358.38 408.884Z" fill="#A8DADC"/>
<path d="M1263.94 437.019C1263.94 437.019 1272.2 435.565 1274.24 437.6C1276.29 439.64 1279.1 448.29 1276.77 448.778C1274.44 449.265 1269 443.337 1267.64 443.821C1266.28 444.304 1263.81 445.05 1263.23 443.757C1262.65 442.464 1258.56 438.639 1258.56 438.639L1263.94 437.019Z" fill="#FFB27D"/>
<path d="M1269.97 434.875C1269.97 434.875 1264.91 437.08 1263.94 437.012C1262.97 436.949 1266.08 438.954 1266.08 438.954L1267.64 437.47C1267.64 437.47 1270.42 436.626 1269.97 434.875Z" fill="#FFB27D"/>
<path d="M1288.61 359.492C1288.61 359.492 1270.24 360.301 1265.82 364.406C1261.4 368.511 1234.95 400.213 1234.51 408.524C1234.07 416.835 1257.69 440.45 1257.69 440.45C1257.69 440.45 1264.25 438.868 1267.09 434.738C1267.09 434.738 1252.44 408.617 1253.31 407.476C1254.19 406.336 1279.01 386.003 1281.04 390.511C1282.79 394.399 1288.61 359.492 1288.61 359.492Z" fill="#A8DADC"/>
<path d="M1281.34 487.275L1277.17 510.924V510.928L1265.64 576.26L1255.33 634.662C1255.18 635.544 1254.39 636.197 1253.46 636.197C1252.66 636.197 1252.03 635.502 1252.14 634.713L1261.02 568.508L1270.53 497.689L1271.96 487.008L1281.34 487.275Z" fill="#C69D7F"/>
<path d="M1277.17 510.924C1277.71 500.764 1270.53 497.689 1270.53 497.689L1271.96 487.008L1281.34 487.275L1277.17 510.924Z" fill="#A0795F"/>
<path d="M1603.2 636.197C1602.27 636.197 1601.48 635.544 1601.33 634.662L1592.17 582.773L1579.01 508.142L1575.33 487.275L1584.7 487.008L1586.33 499.123L1597.75 584.253L1604.53 634.713C1604.63 635.502 1604.01 636.197 1603.2 636.197Z" fill="#C69D7F"/>
<path d="M1586.32 499.127C1580.25 501.807 1579 508.142 1579 508.142L1575.33 487.275L1584.7 487.008L1586.32 499.127Z" fill="#A0795F"/>
<path d="M1602.97 495.459H1233.66C1229.78 495.459 1226.6 492.279 1226.6 488.395V486.134C1226.6 482.25 1229.78 479.074 1233.66 479.074H1602.97C1606.86 479.074 1610.04 482.25 1610.04 486.134V488.395C1610.04 492.279 1606.86 495.459 1602.97 495.459Z" fill="#E0B594"/>
<path d="M1865.13 593.039C1861.51 606.091 1834.84 613.774 1805.65 618.282H1696.74C1670.49 605.849 1670.53 591.025 1668.41 550.096C1664.07 465.556 1710.06 424.738 1730.57 431.48C1731.42 431.756 1732.29 432.061 1733.17 432.413C1739.13 434.728 1745.81 438.824 1752.3 448.569C1752.3 448.569 1772.69 481.419 1789.46 501.014C1794.86 507.324 1799.89 512.268 1803.74 514.286L1803.87 514.354C1804.08 514.46 1804.27 514.549 1804.48 514.638C1813.36 518.569 1825.89 526.817 1837.33 537.223H1837.34C1855.08 553.353 1870.21 574.644 1865.13 593.039Z" fill="#457B9D"/>
<path d="M1837.34 537.223C1822.07 541.764 1743.47 563.7 1724.98 540.441C1711.59 523.59 1719.92 480.431 1727.32 452.504C1730.35 441.064 1745.48 438.46 1752.11 448.276C1752.17 448.374 1752.24 448.467 1752.31 448.569C1752.31 448.569 1772.69 481.419 1789.46 501.014C1794.31 507.205 1799.1 511.98 1803.73 514.282L1803.88 514.354C1804.08 514.46 1804.28 514.549 1804.48 514.643C1813.37 518.569 1825.89 526.817 1837.34 537.223Z" fill="#31587A"/>
<path d="M1794.6 459.148C1794.6 459.148 1799.07 465.751 1801.62 479.647C1803.84 491.804 1805.8 496.303 1809.02 498.796C1812.24 501.289 1830.18 508.655 1830.18 508.655L1828.84 511.797C1828.84 511.797 1802.54 508.214 1799.59 503.821C1796.64 499.419 1785.37 473.451 1786.25 467.472C1787.12 461.485 1794.6 459.148 1794.6 459.148Z" fill="#F4A269"/>
<path d="M1859.01 604.237C1858.78 606.806 1862.35 607.43 1866.48 607.638C1870.61 607.841 1869.36 608.689 1875.04 609.715C1880.7 610.742 1882.97 609.194 1883.39 608.422C1883.75 607.744 1881.11 606.679 1878.31 605.483C1877.96 605.331 1877.6 605.178 1877.25 605.026C1874.08 603.635 1872.31 600.798 1869.85 598.165C1867.51 595.68 1865.29 587.708 1865.29 587.708L1857.6 586.062C1857.6 586.062 1859.76 593.237 1860.5 596.299C1860.95 598.105 1860.3 600.119 1859.72 601.65C1859.41 602.481 1859.09 603.334 1859.01 604.237Z" fill="#FFB27D"/>
<path d="M1866.48 607.636C1870.61 607.839 1869.36 608.687 1875.04 609.714C1880.71 610.74 1882.97 609.192 1883.39 608.42C1883.75 607.742 1881.12 606.678 1878.31 605.482L1878.26 605.524C1878.26 605.524 1874.28 606.885 1869.68 605.63C1865.92 604.608 1862.31 602.374 1859.72 601.648C1859.41 602.48 1859.09 603.332 1859.01 604.235C1858.78 606.805 1862.35 607.428 1866.48 607.636Z" fill="#C65447"/>
<path d="M1782.3 512.9C1782.3 512.9 1833.49 509.049 1843.12 515.134C1852.77 521.211 1868.22 592.055 1868.22 592.055C1868.22 592.055 1867.26 592.818 1865.13 593.052C1863.15 593.264 1858.79 592.097 1858.79 592.097C1858.79 592.097 1836.58 560.405 1835.01 552.416C1833.44 544.431 1833.83 537.307 1830.27 537.117C1826.7 536.926 1782.29 542.515 1775.58 530.68C1768.86 518.849 1774.41 507.133 1774.41 507.133L1782.3 512.9Z" fill="#163560"/>
<path d="M1839.42 612.463C1839.18 615.033 1842.76 615.652 1846.89 615.864C1851.03 616.067 1849.78 616.915 1855.45 617.942C1861.12 618.968 1863.38 617.416 1863.8 616.653C1864.16 615.97 1861.53 614.905 1858.72 613.71C1858.37 613.553 1858.01 613.404 1857.66 613.252C1854.5 611.861 1852.73 609.028 1850.26 606.399C1847.92 603.906 1845.71 595.934 1845.71 595.934L1838.01 594.293C1838.01 594.293 1840.17 601.463 1840.92 604.525C1841.36 606.331 1840.71 608.341 1840.13 609.876C1839.82 610.712 1839.5 611.564 1839.42 612.463Z" fill="#FFB27D"/>
<path d="M1846.89 615.859C1851.03 616.062 1849.78 616.91 1855.45 617.936C1861.11 618.962 1863.38 617.411 1863.8 616.647C1864.16 615.965 1861.53 614.9 1858.71 613.704L1858.68 613.747C1858.68 613.747 1854.69 615.104 1850.09 613.857C1846.34 612.839 1842.72 610.592 1840.13 609.871C1839.82 610.706 1839.5 611.559 1839.42 612.458C1839.18 615.027 1842.76 615.647 1846.89 615.859Z" fill="#C65447"/>
<path d="M1772.27 516.074C1772.27 516.074 1817.74 518.224 1827.13 524.678C1836.52 531.128 1849.21 602.519 1849.21 602.519C1849.21 602.519 1848.23 603.244 1846.09 603.388C1844.1 603.532 1839.79 602.197 1839.79 602.197C1839.79 602.197 1818.83 569.66 1817.58 561.62C1816.32 553.58 1816.98 546.474 1813.43 546.147C1809.88 545.816 1765.29 549.675 1759.04 537.586C1752.78 525.496 1772.27 516.074 1772.27 516.074Z" fill="#1C468A"/>
<path d="M1788.48 416.003C1786.46 414.671 1783.95 414.375 1782.19 414.362C1782.67 413.929 1783.58 413.815 1783.58 413.815C1782.5 413.577 1779.99 414.498 1779.99 414.498C1765.22 407.645 1761.35 429.814 1761.32 435.021C1761.29 440.228 1760.93 446.199 1753.05 450.35C1737.55 458.509 1749.05 475.326 1749.05 475.326C1749.16 475.402 1755.2 487.415 1755.2 487.415C1755.1 483.2 1775.92 462.363 1786.45 456.41C1789.15 452.962 1790.44 446.631 1790.55 446.131C1789.78 451.169 1788.72 453.95 1787.84 455.502C1796.92 448.209 1793.83 419.535 1788.48 416.003Z" fill="#B5453C"/>
<path d="M1786.18 453.387C1785.92 453.272 1785.62 453.158 1785.3 453.047C1785.32 452.373 1785.35 451.657 1785.41 450.927C1785.64 447.603 1786.12 444.092 1786.12 444.092L1775.06 441.123L1774.4 440.945C1774.1 445.822 1773.11 449.163 1772.23 451.419C1771.09 451.47 1770.36 451.542 1770.36 451.542C1770.17 452.204 1775.06 462.313 1781.51 462.571C1783.63 462.656 1789.41 454.735 1786.18 453.387Z" fill="#FFB27D"/>
<path d="M1786.12 444.081C1786.12 444.081 1785.64 447.597 1785.41 450.921C1779.14 450.319 1776.21 444.378 1775.07 441.117L1786.12 444.081Z" fill="#F4A269"/>
<path d="M1773.98 439.811C1773.98 439.811 1771.04 434.4 1770.55 429.905C1770.19 426.695 1772.6 415.047 1784.3 417.527C1784.3 417.527 1787.7 418.096 1790.78 420.491C1793.24 422.391 1796.68 426.377 1791.86 436.363L1790.56 439.756L1773.98 439.811Z" fill="#B5453C"/>
<path d="M1788.01 447.368C1788.01 447.368 1773.16 446.626 1773.76 437.377C1774.37 428.133 1772.86 421.807 1782.38 421.891C1791.88 421.976 1793.49 425.623 1794.05 428.761C1794.59 431.899 1791.9 447.321 1788.01 447.368Z" fill="#FFB27D"/>
<path d="M1789.15 422.108C1789.15 422.108 1784.35 432.683 1778.02 433.87C1771.67 435.062 1769.07 433.209 1769.07 433.209C1769.07 433.209 1774.11 429.723 1775.55 423.159C1775.55 423.159 1786.43 416.735 1789.15 422.108Z" fill="#B5453C"/>
<path d="M1788.08 422.924C1788.08 422.924 1790.95 425.549 1791.54 427.949C1792.12 430.353 1792.13 435.221 1793.55 435.154C1793.55 435.154 1797.11 427.983 1793.95 423.586C1790.59 418.917 1788.08 422.924 1788.08 422.924Z" fill="#B5453C"/>
<path d="M1802.88 513.67C1801.67 515.107 1797.92 515.548 1793.91 516.21C1790.75 516.727 1787.43 517.384 1785.08 518.771C1779.72 521.913 1762.22 532.544 1757.08 532.06C1755.1 531.874 1755.47 528.074 1756.67 523.041C1758.57 515.086 1762.54 504.035 1762.54 499.235C1762.54 496.615 1763.41 490.411 1764.58 483.317C1764.67 482.744 1764.77 482.168 1764.86 481.587C1767.17 467.797 1770.36 451.535 1770.36 451.535C1770.36 451.535 1773.92 459.295 1780.86 459.295C1787.79 459.295 1786.18 453.38 1786.18 453.38C1786.18 453.38 1792.51 454.118 1794 455.729C1795.5 457.34 1799.29 464.303 1800.04 466.198C1800.04 466.198 1800.2 468.615 1794.22 469.769C1794.22 469.769 1795.67 476.32 1795.84 480.692C1795.97 483.919 1793.64 494.028 1792.97 500.317C1792.73 502.539 1792.7 504.286 1793.06 505.083C1793.52 506.092 1795.02 507.105 1796.73 508.102C1800.1 510.07 1804.31 511.965 1802.88 513.67Z" fill="#1C468A"/>
<path d="M1796.72 508.108C1800.56 514.647 1786.32 516.614 1783.96 518.001C1778.6 521.143 1762.22 532.55 1757.09 532.07C1755.1 531.88 1755.47 528.08 1756.67 523.043C1758.57 515.088 1762.54 504.041 1762.54 499.241C1762.54 496.617 1763.42 490.417 1764.58 483.319L1770.75 477.391C1770.75 477.391 1777.37 494.492 1783.68 497.299C1786.98 498.762 1790.44 499.733 1792.97 500.323C1792.74 502.545 1792.7 504.292 1793.06 505.089C1793.52 506.098 1795.03 507.112 1796.72 508.108Z" fill="#163560"/>
<path d="M1768.46 456.641C1768.46 456.641 1763.19 453.435 1758.08 459.52C1752.98 465.596 1761.71 509.077 1769.27 511.308C1777.68 513.784 1801.94 510.909 1801.94 510.909L1801.47 507.118C1801.47 507.118 1775.64 502.161 1774.57 500.783C1773.5 499.401 1771.15 457.34 1768.46 456.641Z" fill="#FFB27D"/>
<path d="M1770.36 451.535C1770.36 451.535 1759.52 452.506 1756.37 456.077C1753.22 459.643 1752.3 469.307 1752.3 469.307C1752.3 469.307 1761.85 477.011 1773.35 474.022L1770.36 451.535Z" fill="#1C468A"/>
<path d="M1818.8 514.645H1804.48V512.953H1818.8V514.645Z" fill="#9E332E"/>
<path d="M1815.76 514.405C1815.9 513.846 1828.93 493.398 1828.93 493.398H1857.91L1843.37 513.858L1815.76 514.405Z" fill="#9E332E"/>
<path d="M1816.98 514.639C1817.12 514.079 1830.18 493.398 1830.18 493.398H1857.91L1844.07 514.639H1816.98Z" fill="#B5453C"/>
<path d="M1841.41 504.095C1841.12 504.918 1840.22 505.592 1839.38 505.592C1838.56 505.592 1838.12 504.918 1838.4 504.095C1838.69 503.26 1839.6 502.59 1840.42 502.59C1841.26 502.59 1841.69 503.26 1841.41 504.095Z" fill="#9E332E"/>
<path d="M1799.36 506.896C1799.36 506.896 1807.78 505.268 1808.73 505.675C1809.68 506.082 1814.97 510.831 1814.42 511.781C1813.89 512.731 1811.71 513.409 1809.27 512.595C1806.82 511.781 1801.53 511.374 1800.58 510.153C1799.64 508.931 1799.36 506.896 1799.36 506.896Z" fill="#FFB27D"/>
<path d="M857.288 547.111C856.776 534.704 855.673 523.904 854.353 516.377C852.248 504.377 850.354 497.465 850.332 497.393C850.055 496.341 846.05 492.067 837.147 492.202C828.243 492.334 829.088 497.931 829.088 497.931C829.087 498.122 829.113 498.296 829.152 498.427C829.237 498.72 837.41 527.945 837.056 565.693C837.052 566.218 836.991 567.134 837.029 567.745C837.029 567.749 857.662 568.271 857.667 567.745C858.387 564.446 858.036 555.304 857.288 547.111Z" fill="#D1A586"/>
<path d="M859.882 565.506C859.876 566.032 859.594 566.447 859.251 566.447H859.243C858.9 566.443 858.626 566.019 858.622 565.506H840.94C840.934 566.032 840.652 566.447 840.309 566.447H840.301C839.951 566.443 839.674 566.006 839.678 565.476C839.781 554.672 839.156 544.584 838.211 535.679C835.861 513.476 831.515 498.635 831.454 498.431C831.415 498.296 831.39 498.122 831.39 497.931C831.39 497.931 830.546 492.334 839.448 492.202C848.353 492.067 852.357 496.341 852.635 497.393C852.651 497.448 853.724 501.362 855.149 508.388C855.622 510.72 856.132 513.387 856.656 516.373C857.975 523.904 859.078 534.704 859.59 547.111C860.338 555.304 860.601 562.207 859.882 565.506Z" fill="#E5BD9E"/>
<path d="M859.881 565.497C859.876 566.023 859.594 566.438 859.25 566.438H859.242C858.899 566.434 858.626 566.01 858.622 565.497H840.939C840.934 566.023 840.652 566.438 840.309 566.438H840.301C839.951 566.434 839.674 565.997 839.678 565.467C839.781 554.663 839.156 544.575 838.211 535.67C841.135 521.583 852.434 510.8 855.149 508.379C855.622 510.711 856.132 513.378 856.655 516.364C857.975 523.895 859.078 534.695 859.59 547.102C860.338 555.295 860.601 562.198 859.881 565.497Z" fill="#DFB697"/>
<path d="M841.193 494.621C841.094 494.621 840.996 494.621 840.895 494.621C838.452 494.66 836.728 495.249 835.771 496.373C834.823 497.492 835 498.752 835.002 498.769C835.003 498.904 835.019 499.032 835.047 499.125C835.071 499.205 839.639 525.466 840.405 531.937C841.564 541.732 842.066 561.442 842.141 564.694C842.611 564.206 843.934 564.105 846.008 564.105C846.535 564.105 847.104 564.113 847.706 564.117C848.383 564.122 849.102 564.134 849.854 564.134H849.854C852.095 564.134 855.045 564.066 857.985 563.558C859.856 563.235 857.986 544.531 857.087 535.55C856.858 533.251 856.676 531.437 856.595 530.368C855.713 518.868 850.648 498.595 850.598 498.408C850.387 497.607 847.501 494.621 841.193 494.621ZM842.014 565.309L841.952 565.249L841.95 565.199V565.152C841.944 564.817 841.46 542.572 840.205 531.958C839.457 525.644 834.881 499.29 834.853 499.176C834.82 499.07 834.801 498.921 834.801 498.781C834.795 498.743 834.611 497.437 835.617 496.241C836.613 495.071 838.388 494.456 840.892 494.422C840.994 494.418 841.093 494.418 841.193 494.418C847.617 494.418 850.574 497.522 850.793 498.357C850.84 498.514 855.916 518.864 856.796 530.36C856.877 531.42 857.058 533.234 857.288 535.524C858.636 549.017 859.916 563.426 858.019 563.757C855.064 564.27 852.104 564.334 849.854 564.334C849.101 564.334 848.381 564.325 847.704 564.317C847.102 564.308 846.535 564.304 846.008 564.304C843.646 564.304 842.176 564.444 842.151 565.152V565.186V565.19C842.149 565.241 842.134 565.305 842.056 565.305L842.014 565.309Z" fill="#D1A586"/>
<path d="M838.371 566.439H907.695C907.695 566.439 906.081 560.002 865.933 560.956C837.521 561.634 838.371 566.439 838.371 566.439Z" fill="#E5BD9E"/>
<path d="M832.729 633.748C840.767 593.608 838.7 568.98 838.69 568.67C838.669 568.055 839.824 567.496 840.445 567.47C841.074 567.462 843.849 567.292 844.17 567.818C844.59 568.513 846.208 598.858 834.229 633.748H832.729Z" fill="#D1A586"/>
<path d="M897.456 633.748C889.418 593.608 891.485 568.98 891.495 568.67C891.516 568.055 890.361 567.496 889.739 567.47C889.111 567.462 886.336 567.292 886.016 567.818C885.595 568.513 883.977 598.858 895.956 633.748H897.456Z" fill="#D1A586"/>
<path d="M910.283 633.748C902.246 593.608 904.313 568.98 904.323 568.67C904.343 568.055 903.188 567.496 902.567 567.47C901.938 567.462 899.164 567.292 898.844 567.818C898.422 568.513 896.804 598.858 908.784 633.748H910.283Z" fill="#A0795F"/>
<path d="M845.642 633.748C853.68 593.608 851.614 568.98 851.603 568.67C851.584 568.055 852.738 567.496 853.359 567.47C853.988 567.462 856.762 567.292 857.083 567.818C857.504 568.513 859.123 598.858 847.143 633.748H845.642Z" fill="#A0795F"/>
<path d="M907.746 568.504H838.403C837.627 568.504 836.992 567.868 836.992 567.097V566.189C836.992 565.417 837.627 564.781 838.403 564.781H907.746C908.522 564.781 909.157 565.417 909.157 566.189V567.097C909.157 567.868 908.522 568.504 907.746 568.504Z" fill="#D1A586"/>
<path d="M893.444 522.613C893.444 522.613 906.117 537.09 908.71 536.857C911.361 536.615 912.977 535.775 915.284 536.857C916.94 537.624 922.179 541.843 920.773 541.559C919.366 541.284 916.821 540.957 916.15 540.894C915.225 540.805 913.739 540.788 912.732 540.609C912.094 540.499 909.793 540.436 909.025 540.406C905.689 540.3 889.914 531.086 889.914 531.086L893.444 522.613Z" fill="#FFB27D"/>
<path d="M884.65 449.11C884.65 449.11 884.078 441.838 873.621 443.729C870.856 444.225 868.955 439.293 864.43 441.053C854.685 444.836 854.112 439.845 851.296 446.85C850.117 449.784 842.621 453.202 844.91 458.269C847.2 463.341 843.369 466.75 846.06 470.723C847.452 472.784 846.886 476.456 853.457 476.588C856.73 476.651 861.827 482.715 865.5 483.813C869.172 484.916 880.199 483.326 879.784 478.288C879.46 474.361 884.044 474.688 886.861 470.163C889.322 466.22 884.93 465.223 887.279 458.833C889 454.152 884.516 453.015 884.65 449.11Z" fill="#1C468A"/>
<path d="M942.134 627.951C941.91 630.381 945.295 630.975 949.217 631.174C953.138 631.365 951.953 632.171 957.326 633.142C962.7 634.121 964.853 632.646 965.242 631.92C965.589 631.276 963.09 630.271 960.428 629.134C960.093 628.986 959.757 628.838 959.421 628.693C956.425 627.375 954.744 624.691 952.408 622.197C950.195 619.84 948.093 612.283 948.093 612.283L940.791 610.723C940.791 610.723 942.841 617.524 943.553 620.425C943.972 622.134 943.354 624.046 942.806 625.496C942.511 626.289 942.212 627.099 942.134 627.951Z" fill="#FFB27D"/>
<path d="M949.217 631.182C953.138 631.373 951.953 632.178 957.327 633.149C962.7 634.129 964.853 632.653 965.243 631.928C965.589 631.284 963.091 630.279 960.428 629.142L960.387 629.185C960.387 629.185 956.608 630.465 952.247 629.282C948.692 628.315 945.255 626.191 942.806 625.504C942.511 626.297 942.213 627.107 942.135 627.959C941.91 630.389 945.296 630.982 949.217 631.182Z" fill="#C65447"/>
<path d="M869.418 541.373C869.418 541.373 917.942 537.722 927.077 543.489C936.212 549.247 950.863 616.406 950.863 616.406C950.863 616.406 949.959 617.127 947.939 617.348C946.061 617.551 941.924 616.449 941.924 616.449C941.924 616.449 920.869 586.401 919.385 578.828C917.903 571.259 918.265 564.508 914.887 564.326C911.51 564.148 869.412 569.444 863.044 558.228C856.676 547.004 861.94 535.898 861.94 535.898L869.418 541.373Z" fill="#163560"/>
<path d="M925.439 628.229C925.215 630.663 928.6 631.248 932.521 631.448C936.442 631.647 935.257 632.448 940.63 633.419C946.005 634.395 948.158 632.923 948.546 632.194C948.893 631.549 946.395 630.544 943.732 629.408C943.397 629.264 943.062 629.12 942.727 628.971C939.729 627.652 938.049 624.968 935.712 622.475C933.499 620.113 931.398 612.557 931.398 612.557L924.096 610.996C924.096 610.996 926.147 617.798 926.858 620.707C927.277 622.411 926.659 624.319 926.111 625.77C925.815 626.563 925.517 627.372 925.439 628.229Z" fill="#FFB27D"/>
<path d="M932.522 631.451C936.443 631.651 935.257 632.452 940.631 633.423C946.005 634.398 948.158 632.927 948.547 632.198C948.894 631.553 946.395 630.548 943.733 629.412L943.692 629.454C943.692 629.454 939.913 630.739 935.552 629.552C931.997 628.585 928.56 626.465 926.111 625.773C925.816 626.566 925.517 627.376 925.439 628.233C925.215 630.667 928.6 631.252 932.522 631.451Z" fill="#C65447"/>
<path d="M861.787 536.859C861.787 536.859 904.892 538.895 913.796 545.014C922.7 551.128 934.725 618.805 934.725 618.805C934.725 618.805 933.793 619.492 931.767 619.632C929.882 619.763 925.792 618.495 925.792 618.495C925.792 618.495 905.922 587.655 904.734 580.031C903.547 572.411 904.172 565.677 900.804 565.368C897.437 565.049 855.164 568.709 849.238 557.247C843.311 545.794 861.787 536.859 861.787 536.859Z" fill="#1C468A"/>
<path d="M848.884 481.78L848.939 481.716C849.281 481.326 849.689 480.974 850.141 480.66L850.157 480.648H850.161C853.682 478.188 859.973 477.662 859.973 477.662V477.667H859.974L859.974 477.662C859.974 477.662 860.663 477.599 861.752 477.548C862.576 475.411 863.516 472.239 863.806 467.621L864.431 467.791L874.919 470.602C874.919 470.602 874.454 473.931 874.236 477.081C874.189 477.768 874.153 478.455 874.137 479.087C874.441 479.202 874.721 479.308 874.97 479.409C874.97 479.409 880.966 480.118 882.385 481.644C883.804 483.171 886.641 493.331 887.357 495.129L846.978 495.79C846.978 495.79 845.964 485.231 848.884 481.78Z" fill="#FFB27D"/>
<path d="M898.976 522.692C898.74 522.955 898.118 524.062 897.242 525.389C896.981 525.788 896.695 526.203 896.391 526.627C895.11 528.404 893.488 530.253 891.81 530.902C891.182 531.152 890.549 531.224 889.915 531.08C888.97 530.846 887.459 529.778 885.937 528.336C884.701 527.162 883.457 525.741 882.513 524.329C882.14 523.769 881.816 523.21 881.556 522.671C881.5 523.095 881.45 523.506 881.407 523.897V523.905C881.183 526.017 881.151 527.662 881.494 528.421C881.935 529.384 883.358 530.338 884.968 531.283C888.168 533.149 892.159 534.938 890.803 536.563C889.66 537.924 886.105 538.343 882.295 538.971C879.306 539.463 876.161 540.086 873.924 541.401C873.837 541.447 873.749 541.498 873.657 541.553C868.287 544.721 852.172 554.453 847.392 553.999C845.509 553.817 845.857 550.217 847.001 545.438C848.797 537.902 852.564 527.433 852.564 522.879C852.564 520.394 846.982 495.774 846.982 495.774C846.982 495.774 845.963 485.233 848.884 481.777L850.145 480.653L850.158 480.645H850.164C850.35 480.746 862.556 487.624 869.679 488.006C876.857 488.392 882.388 481.637 882.388 481.637C883.805 483.168 886.645 493.323 887.36 495.121C887.36 495.121 893.153 517.977 894.626 519.156C896.099 520.335 899.691 521.903 898.976 522.692Z" fill="#6BB7BF"/>
<path d="M874.919 470.6C874.919 470.6 874.453 473.929 874.236 477.08C868.3 476.512 865.518 470.88 864.431 467.789L874.919 470.6Z" fill="#F4A269"/>
<path d="M876.705 473.716C876.705 473.716 862.618 473.013 863.193 464.248C863.768 455.479 862.337 449.487 871.355 449.563C880.374 449.648 881.9 453.104 882.42 456.076C882.94 459.053 880.384 473.678 876.705 473.716Z" fill="#FFB27D"/>
<path d="M877.299 452.678C877.299 452.678 873.932 451.893 872.832 453.534C871.732 455.171 872.517 456.087 870.061 456.774C867.605 457.461 866.77 457.41 867.016 459.131C867.262 460.853 864.547 462.125 864.431 463.507C864.314 464.881 863.184 465.568 862.104 465.666C861.023 465.763 861.514 447.928 865.689 447.144C869.865 446.359 873.893 447.296 875.121 448.276C876.349 449.26 877.299 452.678 877.299 452.678Z" fill="#1C468A"/>
<path d="M877.299 452.678C877.299 452.678 880.574 452.453 881.163 454.319C881.753 456.185 880.966 456.626 881.802 457.758C882.637 458.886 882.154 460.887 882.154 460.887C882.154 460.887 888.63 448.964 881.802 448.179C874.973 447.395 875.154 448.785 877.299 452.678Z" fill="#1C468A"/>
<path d="M897.242 525.394C896.981 525.792 896.695 526.208 896.391 526.632C895.11 528.409 893.488 530.258 891.81 530.906C891.182 531.156 890.549 531.229 889.915 531.084C888.97 530.851 887.459 529.783 885.937 528.341C884.7 527.166 883.457 525.746 882.513 524.334C882.14 523.774 881.816 523.214 881.556 522.676C881.5 523.1 881.45 523.511 881.406 523.901V521.908C881.406 521.908 882.196 486.989 883.401 502.343C884.284 513.584 892.767 521.806 897.242 525.394Z" fill="#599DAD"/>
<path d="M854.572 501.359C854.572 501.359 837.266 531.157 873.654 541.558C873.75 541.507 873.839 541.452 873.925 541.401C876.161 540.091 879.307 539.468 882.296 538.972C886.107 538.348 889.662 537.929 890.801 536.567C892.156 534.943 888.171 533.145 884.968 531.288C883.356 530.342 879.97 529.431 879.527 528.472C879.187 527.718 854.572 501.359 854.572 501.359Z" fill="#599DAD"/>
<path d="M831.638 534.506L828.858 550.263L821.179 593.782L814.314 632.684C814.211 633.273 813.686 633.71 813.072 633.71C812.531 633.71 812.112 633.243 812.183 632.726L818.103 588.617L824.435 541.443L825.391 534.332L831.638 534.506Z" fill="#C69D7F"/>
<path d="M828.859 550.263C829.223 543.491 824.435 541.443 824.435 541.443L825.391 534.332L831.639 534.506L828.859 550.263Z" fill="#A0795F"/>
<path d="M1206.65 633.71C1206.04 633.71 1205.51 633.273 1205.41 632.684L1199.31 598.124L1190.54 548.41L1188.08 534.506L1194.33 534.332L1195.42 542.397L1203.03 599.108L1207.54 632.726C1207.61 633.243 1207.19 633.71 1206.65 633.71Z" fill="#C69D7F"/>
<path d="M1195.42 542.397C1191.37 544.187 1190.54 548.41 1190.54 548.41L1188.08 534.506L1194.33 534.332L1195.42 542.397Z" fill="#A0795F"/>
<path d="M1212.55 539.969H802.113C799.111 539.969 796.655 537.514 796.655 534.512C796.655 531.51 799.111 529.055 802.113 529.055H1212.55C1215.55 529.055 1218.01 531.51 1218.01 534.512C1218.01 537.514 1215.55 539.969 1212.55 539.969Z" fill="#E0B594"/>
<path d="M974.244 512.571H888.502L896.458 447.773H982.201L974.244 512.571Z" fill="#D86713"/>
<path d="M983.978 447.773L976.024 512.567H890.279L892.093 497.797L898.233 447.773H983.978Z" fill="#F1A34F"/>
<path d="M983.978 447.773L976.024 512.567H890.279L892.093 497.797C962.872 502.067 965.178 457.382 964.858 447.773H983.978Z" fill="#E78B37"/>
<path d="M943.679 475.711C943.472 473.654 942.394 471.602 940.34 471.348L936.73 471.377C934.557 471.11 932.623 472.76 932.552 474.956L930.972 523.789C930.921 525.391 929.607 526.664 928.003 526.664H919.104C918.559 526.664 918.051 527.011 917.91 527.537C917.697 528.334 918.299 529.055 919.062 529.055H946.954C947.008 529.055 947.06 529.047 947.113 529.038H947.445C948.296 529.051 948.964 528.317 948.88 527.469L943.679 475.711Z" fill="#D86713"/>
<path d="M945.653 475.711C945.447 473.654 944.368 471.602 942.314 471.348L938.704 471.377C936.532 471.11 934.598 472.76 934.527 474.956L932.947 523.789C932.895 525.391 931.581 526.664 929.978 526.664H921.079C920.534 526.664 920.025 527.011 919.885 527.537C919.672 528.334 920.274 529.055 921.036 529.055H948.929C948.983 529.055 949.034 529.047 949.087 529.038H949.421C950.27 529.051 950.939 528.317 950.854 527.469L945.653 475.711Z" fill="#F1A34F"/>
<path d="M1042.32 469.058L1037.56 525.599C1037.56 525.599 1037.06 529.025 1039.61 529.03C1043.81 529.042 1060.48 529.03 1060.48 529.03C1060.48 529.03 1057.32 528.317 1057.36 526.71C1057.4 524.819 1062.92 468.523 1062.92 468.523L1042.32 469.058Z" fill="#D86713"/>
<path d="M1061.83 528.006C1061 528.014 1045.08 528.065 1041 528.006C1039.22 527.989 1038.91 526.428 1038.89 525.419C1038.89 524.936 1038.95 524.575 1038.95 524.575L1039.07 523.104L1039.39 519.364L1039.66 516.056L1040.02 511.803L1040.32 508.212L1043.7 468.042L1064.3 467.504C1064.3 467.504 1061.98 491.064 1060.34 508.212C1060.15 510.124 1059.98 511.956 1059.82 513.665C1059.77 514.212 1059.72 514.742 1059.67 515.263C1059.51 516.887 1059.38 518.38 1059.25 519.695C1059.19 520.386 1059.13 521.03 1059.08 521.624C1058.87 523.935 1058.75 525.411 1058.74 525.695C1058.74 525.852 1058.76 526.004 1058.78 526.148C1059.12 527.951 1061.52 528.006 1061.83 528.006Z" fill="#EE9849"/>
<path d="M992.291 438.305L1003.87 484.822L1005.46 491.195L1010.85 512.868H1111.07L1091.19 438.305H992.291Z" fill="#F1A34F"/>
<path d="M992.291 438.305L990.685 438.835L1008.72 514.483L1010.85 512.868L992.291 438.305Z" fill="#EE9849"/>
<path d="M1008.72 514.483H1108.32L1111.07 512.867H1010.85L1008.72 514.483Z" fill="#D86713"/>
<path d="M1043.7 529.061H1065.26V528.035H1043.7V529.061Z" fill="#F1A34F"/>
<path d="M1106.22 499.129L1089.95 439.288H992.131V438.305H1091.19L1107.39 498.993L1106.22 499.129Z" fill="#F1A34F"/>
<path d="M1059.78 514.484L1059.67 515.265L1039.39 519.365L1039.67 516.058L1039.8 514.484H1059.78Z" fill="#D86713"/>
<path d="M1061.83 528.007C1061 528.015 1045.08 528.066 1041 528.007C1039.22 527.99 1038.91 526.429 1038.89 525.42L1059.08 521.625C1058.87 523.936 1058.75 525.412 1058.75 525.696C1058.74 525.853 1058.76 526.005 1058.79 526.149C1059.12 527.952 1061.52 528.007 1061.83 528.007Z" fill="#E78B37"/>
<path d="M1054.88 497.764L1010.85 512.86L1005.46 491.188L1054.88 497.764Z" fill="#E78B37"/>
<path d="M992.291 438.305H1091.19L1107.23 498.23H1006.7L992.291 438.305Z" fill="#699DEE"/>
<path d="M1063.62 505.803C1063.33 504.34 1061.91 503.145 1060.44 503.145C1058.97 503.145 1058.01 504.34 1058.3 505.803C1058.58 507.275 1060.01 508.466 1061.47 508.466C1062.94 508.466 1063.9 507.275 1063.62 505.803Z" fill="#D86713"/>
<path d="M1102.57 495.624H1009.97L999.486 453.856L998.682 450.65L997.996 447.919L996.388 441.508H1087.65L1089.42 447.919L1090.17 450.65L1091.05 453.856L1102.57 495.624Z" fill="#E9F3FE"/>
<path d="M1089.42 447.919H997.996L996.388 441.508H1087.65L1089.42 447.919Z" fill="#AFCDFB"/>
<path d="M1000.16 444.415C1000.05 443.966 1000.32 443.609 1000.76 443.609C1001.21 443.609 1001.65 443.966 1001.76 444.415C1001.87 444.856 1001.61 445.212 1001.16 445.212C1000.72 445.212 1000.27 444.856 1000.16 444.415Z" fill="#E9F3FE"/>
<path d="M1002.82 444.415C1002.71 443.966 1002.98 443.609 1003.43 443.609C1003.87 443.609 1004.32 443.966 1004.43 444.415C1004.54 444.856 1004.27 445.212 1003.83 445.212C1003.38 445.212 1002.93 444.856 1002.82 444.415Z" fill="#E9F3FE"/>
<path d="M1005.69 444.415C1005.58 443.966 1005.85 443.609 1006.29 443.609C1006.73 443.609 1007.18 443.966 1007.29 444.415C1007.4 444.856 1007.13 445.212 1006.69 445.212C1006.25 445.212 1005.8 444.856 1005.69 444.415Z" fill="#E9F3FE"/>
<path d="M1022.58 462.311H1008.61C1008.18 462.311 1007.74 461.963 1007.63 461.531C1007.53 461.098 1007.79 460.746 1008.22 460.746H1022.19C1022.62 460.746 1023.06 461.098 1023.17 461.531C1023.27 461.963 1023.01 462.311 1022.58 462.311Z" fill="#AFCDFB"/>
<path d="M1023.32 465.299H1009.36C1008.93 465.299 1008.49 464.951 1008.38 464.519C1008.27 464.091 1008.54 463.734 1008.97 463.734H1022.93C1023.36 463.734 1023.8 464.091 1023.91 464.519C1024.02 464.951 1023.75 465.299 1023.32 465.299Z" fill="#AFCDFB"/>
<path d="M1024.07 468.292H1010.1C1009.67 468.292 1009.23 467.936 1009.12 467.503C1009.02 467.075 1009.28 466.719 1009.71 466.719H1023.68C1024.11 466.719 1024.55 467.075 1024.65 467.503C1024.76 467.936 1024.5 468.292 1024.07 468.292Z" fill="#AFCDFB"/>
<path d="M1047.54 462.311H1033.58C1033.15 462.311 1032.71 461.963 1032.6 461.531C1032.49 461.098 1032.76 460.746 1033.19 460.746H1047.15C1047.58 460.746 1048.02 461.098 1048.13 461.531C1048.24 461.963 1047.97 462.311 1047.54 462.311Z" fill="#AFCDFB"/>
<path d="M1048.29 465.299H1034.32C1033.89 465.299 1033.45 464.951 1033.34 464.519C1033.24 464.091 1033.5 463.734 1033.93 463.734H1047.89C1048.33 463.734 1048.77 464.091 1048.87 464.519C1048.98 464.951 1048.72 465.299 1048.29 465.299Z" fill="#AFCDFB"/>
<path d="M1049.03 468.292H1035.07C1034.64 468.292 1034.2 467.936 1034.09 467.503C1033.98 467.075 1034.25 466.719 1034.68 466.719H1048.64C1049.07 466.719 1049.51 467.075 1049.62 467.503C1049.73 467.936 1049.46 468.292 1049.03 468.292Z" fill="#AFCDFB"/>
<path d="M1071.55 462.311H1057.59C1057.16 462.311 1056.72 461.963 1056.61 461.531C1056.5 461.098 1056.77 460.746 1057.2 460.746H1071.16C1071.59 460.746 1072.03 461.098 1072.14 461.531C1072.25 461.963 1071.98 462.311 1071.55 462.311Z" fill="#AFCDFB"/>
<path d="M1072.3 465.299H1058.33C1057.9 465.299 1057.46 464.951 1057.35 464.519C1057.25 464.091 1057.51 463.734 1057.94 463.734H1071.91C1072.34 463.734 1072.78 464.091 1072.88 464.519C1072.99 464.951 1072.73 465.299 1072.3 465.299Z" fill="#AFCDFB"/>
<path d="M1073.04 468.292H1059.08C1058.65 468.292 1058.21 467.936 1058.1 467.503C1057.99 467.075 1058.26 466.719 1058.69 466.719H1072.65C1073.08 466.719 1073.52 467.075 1073.63 467.503C1073.74 467.936 1073.47 468.292 1073.04 468.292Z" fill="#AFCDFB"/>
<path d="M1084.47 452.197L1085.16 454.953C1085.28 455.462 1084.97 455.878 1084.47 455.878H1005.48C1004.98 455.878 1004.46 455.462 1004.33 454.953L1003.65 452.197C1003.52 451.693 1003.83 451.281 1004.34 451.281H1083.32C1083.83 451.281 1084.34 451.693 1084.47 452.197Z" fill="#AFCDFB"/>
<path d="M1060.33 451.281L1061.47 455.878H1005.48C1004.98 455.878 1004.46 455.462 1004.33 454.953L1003.65 452.197C1003.52 451.693 1003.83 451.281 1004.34 451.281H1060.33Z" fill="#F1A34F"/>
<path d="M1071.35 453.082H1070.47L1070.38 452.73H1071.72L1071.8 453.036L1071.35 454.588H1070.89L1071.35 453.082Z" fill="#699DEE"/>
<path d="M1073.41 453.654C1073.33 453.315 1073.1 453.06 1072.86 453.06C1072.61 453.06 1072.51 453.311 1072.6 453.654C1072.69 453.993 1072.91 454.248 1073.16 454.248C1073.41 454.248 1073.5 453.997 1073.41 453.654ZM1072.18 453.654C1072.05 453.115 1072.28 452.691 1072.77 452.691C1073.26 452.691 1073.7 453.111 1073.83 453.654C1073.97 454.193 1073.74 454.617 1073.24 454.617C1072.75 454.617 1072.32 454.197 1072.18 453.654Z" fill="#699DEE"/>
<path d="M1075.99 454.14C1075.96 454.017 1075.86 453.906 1075.76 453.906C1075.65 453.906 1075.61 454.017 1075.65 454.14C1075.68 454.263 1075.77 454.373 1075.88 454.373C1075.99 454.373 1076.02 454.263 1075.99 454.14ZM1075.37 454.14C1075.3 453.881 1075.43 453.665 1075.7 453.665C1075.97 453.665 1076.2 453.872 1076.27 454.14C1076.33 454.398 1076.21 454.615 1075.93 454.615C1075.67 454.615 1075.43 454.407 1075.37 454.14ZM1074.61 453.19C1074.58 453.067 1074.48 452.957 1074.38 452.957C1074.27 452.957 1074.23 453.058 1074.27 453.19C1074.3 453.313 1074.39 453.423 1074.5 453.423C1074.61 453.423 1074.64 453.313 1074.61 453.19ZM1075.42 452.736H1075.73L1074.84 454.593H1074.52L1075.42 452.736ZM1073.99 453.19C1073.92 452.923 1074.05 452.715 1074.32 452.715C1074.59 452.715 1074.82 452.923 1074.89 453.19C1074.96 453.448 1074.83 453.665 1074.56 453.665C1074.29 453.665 1074.05 453.457 1073.99 453.19Z" fill="#699DEE"/>
<path d="M1053.77 490.061H1046.77C1045.79 490.061 1044.79 489.268 1044.55 488.284L1041.16 474.711C1040.92 473.727 1041.52 472.93 1042.5 472.93H1049.5C1050.48 472.93 1051.48 473.727 1051.73 474.711L1055.11 488.284C1055.36 489.268 1054.76 490.061 1053.77 490.061Z" fill="#AFCDFB"/>
<path d="M1065.89 490.061H1058.89C1057.91 490.061 1056.91 489.268 1056.67 488.284L1053.28 474.711C1053.04 473.727 1053.64 472.93 1054.62 472.93H1061.62C1062.6 472.93 1063.6 473.727 1063.84 474.711L1067.23 488.284C1067.47 489.268 1066.88 490.061 1065.89 490.061Z" fill="#AFCDFB"/>
<path d="M1077.78 490.061H1070.78C1069.8 490.061 1068.8 489.268 1068.56 488.284L1065.17 474.711C1064.93 473.727 1065.53 472.93 1066.51 472.93H1073.51C1074.5 472.93 1075.49 473.727 1075.74 474.711L1079.12 488.284C1079.37 489.268 1078.77 490.061 1077.78 490.061Z" fill="#AFCDFB"/>
<path d="M1039.94 490.061H1016.23C1014.58 490.061 1012.92 488.725 1012.5 487.08L1009.72 475.915C1009.31 474.265 1010.31 472.93 1011.96 472.93H1035.66C1037.31 472.93 1038.98 474.265 1039.39 475.915L1042.18 487.08C1042.59 488.725 1041.58 490.061 1039.94 490.061Z" fill="#AFCDFB"/>
<path d="M1035.37 477.213H1013.22C1012.84 477.213 1012.46 476.908 1012.37 476.535C1012.27 476.153 1012.5 475.848 1012.88 475.848H1035.03C1035.4 475.848 1035.78 476.153 1035.87 476.535C1035.97 476.908 1035.74 477.213 1035.37 477.213Z" fill="#699DEE"/>
<path d="M1036.02 479.826H1013.87C1013.49 479.826 1013.11 479.521 1013.02 479.148C1012.93 478.766 1013.16 478.461 1013.53 478.461H1035.68C1036.05 478.461 1036.43 478.766 1036.53 479.148C1036.62 479.521 1036.39 479.826 1036.02 479.826Z" fill="#699DEE"/>
<path d="M1036.67 482.44H1014.52C1014.14 482.44 1013.76 482.126 1013.67 481.753C1013.58 481.38 1013.81 481.074 1014.18 481.074H1036.33C1036.7 481.074 1037.08 481.38 1037.18 481.753C1037.27 482.126 1037.04 482.44 1036.67 482.44Z" fill="#699DEE"/>
<path d="M1020.47 485.357H1015.25C1014.87 485.357 1014.49 485.052 1014.4 484.678C1014.31 484.305 1014.54 484 1014.91 484H1020.13C1020.51 484 1020.89 484.305 1020.98 484.678C1021.08 485.052 1020.85 485.357 1020.47 485.357Z" fill="#699DEE"/>
<path d="M1119.02 560.898C1119.02 560.898 1106.5 567.106 1105.76 573.857C1105.02 580.608 1107.72 621.4 1107.72 621.4C1107.72 621.4 1120.85 623.885 1123.17 621.468C1123.17 621.468 1126.44 577.792 1125.86 575.825C1125.28 573.857 1161.9 563.082 1165.14 563.15C1168.4 563.218 1119.02 560.898 1119.02 560.898Z" fill="#163560"/>
<path d="M1122.21 621.212C1122.21 621.212 1121.44 633.535 1119.06 633.713C1118.75 633.734 1106.97 633.734 1106.97 633.734L1091.93 633.649C1091.93 633.649 1092.03 630.024 1096.42 629.26C1100.82 628.493 1108.17 625.406 1110.83 619.601C1113.64 613.486 1122.21 621.212 1122.21 621.212Z" fill="#163560"/>
<path d="M1080.01 621.212C1080.01 621.212 1079.25 633.535 1076.87 633.713C1076.55 633.734 1064.77 633.734 1064.77 633.734L1049.74 633.649C1049.74 633.649 1049.84 630.024 1054.23 629.26C1058.63 628.493 1065.98 625.406 1068.64 619.601C1071.44 613.486 1080.01 621.212 1080.01 621.212Z" fill="#163560"/>
<path d="M1171.72 538.945L1171.46 539.013C1171.18 537.804 1170.45 536.791 1169.16 536.07C1159.88 530.816 1142.21 534.391 1142.21 534.391C1142.21 534.391 1085.21 543.652 1079.93 551.157C1074.65 558.663 1066.42 622.582 1066.42 622.582C1066.42 622.582 1076.39 625.186 1080.51 623.643C1080.51 623.643 1100.16 572.995 1101.75 567.517C1103.13 562.767 1130.23 566.232 1143.89 565.269C1152.09 565.015 1164.92 564.43 1168.4 563.213C1173.64 561.385 1171.72 538.945 1171.72 538.945Z" fill="#1C468A"/>
<path d="M1151.52 470.464L1146.78 476.358L1137.81 476.799C1137.72 475.947 1137.41 472.228 1137.15 469.06C1136.93 466.469 1136.75 464.243 1136.75 464.243L1146.22 455.953C1146.23 456.012 1146.72 458.76 1146.79 459.159C1148.06 466.291 1151.52 470.464 1151.52 470.464Z" fill="#E49963"/>
<path d="M1135.78 468.267C1135.98 468.2 1147.9 465.346 1149.16 465.833C1150.41 466.317 1151.03 468.827 1151.03 468.827L1131.61 472.169C1131.61 472.169 1133.28 469.175 1135.78 468.267Z" fill="#31587A"/>
<path d="M1134.25 465.093C1134.25 465.093 1146.95 465.669 1147.19 457.757C1147.43 449.836 1149.23 444.578 1141.13 443.869C1133.03 443.17 1131.36 446.142 1130.64 448.767C1129.91 451.388 1130.95 464.736 1134.25 465.093Z" fill="#E49963"/>
<path d="M1130.91 447.934C1130.91 447.934 1133.91 456.288 1135.58 455.453C1137.25 454.617 1138.78 453.922 1139.2 456.568C1139.62 459.214 1137.95 462.835 1143.51 461.86C1149.08 460.884 1153.23 444.771 1151.03 442.498C1144.7 435.959 1122.21 440.204 1130.91 447.934Z" fill="#163560"/>
<path d="M1171.72 538.948C1168.51 542.739 1141.23 541.747 1133.24 538.55C1132.63 538.312 1132.15 538.058 1131.83 537.795C1127.13 534.038 1137.73 530.73 1125.87 502.074L1125.86 502.031C1117.36 481.44 1126.37 474.762 1132.06 471.458C1132.06 471.458 1148.32 466.467 1157.41 469.283C1169.21 472.934 1175.16 534.873 1171.72 538.948Z" fill="#457B9D"/>
<path d="M1143.03 524.88C1142.49 528.781 1139.35 538.411 1133.24 538.547C1132.63 538.309 1132.15 538.055 1131.83 537.792C1127.13 534.035 1137.73 530.728 1125.87 502.071L1125.86 502.029C1127.84 500.663 1131.05 499.12 1133.14 501.486C1136.34 505.103 1143.58 520.839 1143.03 524.88Z" fill="#31587A"/>
<path d="M1085.28 524.826C1085.28 524.826 1080.16 521.862 1078.51 521.62C1076.86 521.37 1069.02 528.027 1070.17 528.54C1071.32 529.054 1077.25 526.552 1078.11 527.069C1078.97 527.591 1079.63 529.02 1080.56 529.037C1081.5 529.054 1084.66 529.054 1084.66 529.054L1085.28 524.826Z" fill="#E49963"/>
<path d="M1132.06 471.457C1132.06 471.457 1120.85 477.309 1119.38 482.821C1117.91 488.334 1112.52 515.057 1110.45 516.922C1108.38 518.792 1084.55 523.139 1084.55 523.139C1084.55 523.139 1081.76 526.239 1082.64 529.058H1119.87C1119.87 529.058 1136.66 504.787 1135.47 495.627C1134.27 486.468 1132.06 471.457 1132.06 471.457Z" fill="#457B9D"/>
<path d="M1181.37 564.114H1104.01C1104.01 564.114 1105.82 557.448 1150.62 558.436C1182.32 559.136 1181.37 564.114 1181.37 564.114Z" fill="#E5BD9E"/>
<path d="M1187.67 633.738C1178.7 592.217 1181 566.736 1181.01 566.414C1181.03 565.774 1179.75 565.193 1179.05 565.176C1178.35 565.163 1175.25 564.981 1174.9 565.532C1174.43 566.248 1172.62 597.644 1185.99 633.738H1187.67Z" fill="#D1A586"/>
<path d="M1115.44 633.738C1124.41 592.217 1122.1 566.736 1122.09 566.414C1122.07 565.774 1123.36 565.193 1124.06 565.176C1124.75 565.163 1127.85 564.981 1128.21 565.532C1128.68 566.248 1130.48 597.644 1117.12 633.738H1115.44Z" fill="#D1A586"/>
<path d="M1101.13 633.738C1110.1 592.217 1107.79 566.736 1107.78 566.414C1107.75 565.774 1109.04 565.193 1109.74 565.176C1110.44 565.163 1113.54 564.981 1113.89 565.532C1114.36 566.248 1116.17 597.644 1102.8 633.738H1101.13Z" fill="#A0795F"/>
<path d="M1173.25 633.738C1164.29 592.217 1166.59 566.736 1166.6 566.414C1166.63 565.774 1165.34 565.193 1164.64 565.176C1163.94 565.163 1160.85 564.981 1160.49 565.532C1160.02 566.248 1158.22 597.644 1171.58 633.738H1173.25Z" fill="#A0795F"/>
<path d="M1103.9 566.237H1181.39C1182.22 566.237 1182.9 565.558 1182.9 564.723V563.901C1182.9 563.069 1182.22 562.387 1181.39 562.387H1103.9C1103.06 562.387 1102.39 563.069 1102.39 563.901V564.723C1102.39 565.558 1103.06 566.237 1103.9 566.237Z" fill="#D1A586"/>
<path d="M1160.26 544.094C1160.83 531.254 1162.07 520.08 1163.53 512.291C1165.89 499.875 1168 492.73 1168.02 492.653C1168.33 491.564 1172.8 487.141 1182.73 487.276C1192.67 487.412 1191.72 493.209 1191.72 493.209C1191.73 493.408 1191.7 493.586 1191.66 493.722C1191.56 494.023 1182.44 524.265 1182.84 563.311C1182.84 563.858 1182.91 564.808 1182.86 565.444C1182.86 565.444 1159.84 565.987 1159.84 565.444C1159.03 562.026 1159.43 552.574 1160.26 544.094Z" fill="#D1A586"/>
<path d="M1068.93 529.057C1068.93 529.057 1075.14 524.24 1078.25 525.75C1081.36 527.268 1082.1 529.057 1082.1 529.057H1068.93Z" fill="#1C468A"/>
<path d="M873.52 525.775C873.52 525.775 879.422 524.431 881.287 524.999C883.153 525.568 887.283 529.036 886.279 529.045C885.276 529.053 881.289 527.171 880.667 527.539C880.045 527.9 877.249 529.35 875.436 528.625C873.624 527.9 873.52 525.775 873.52 525.775Z" fill="#FFB27D"/>
<path d="M847.686 483.891C847.686 483.891 841.899 499.19 841.202 507.603C840.112 520.761 840.168 528.983 840.168 528.983C840.168 528.983 843.901 529.14 853.424 528.983C862.948 528.822 874.115 528.983 874.115 528.983C874.115 528.983 876.979 526.205 873.074 524.081C869.169 521.948 852.739 518.06 853.149 516.419C853.559 514.773 859.225 491.93 859.225 491.93L847.686 483.891Z" fill="#6BB7BF"/>
<path d="M876.317 529.054C876.317 529.054 879.812 526.607 882.259 527.231C884.707 527.85 886.279 529.045 886.279 529.045L876.317 529.054Z" fill="#1C468A"/>
<path d="M1978.41 543.244H1881.29C1878.21 543.244 1875.7 540.73 1875.7 537.655C1875.7 534.581 1878.21 532.066 1881.29 532.066H1978.41C1981.48 532.066 1983.99 534.581 1983.99 537.655C1983.99 540.73 1981.48 543.244 1978.41 543.244Z" fill="#E0B594"/>
<path d="M1913.86 543.21L1910.79 555.223L1902.29 588.404L1894.69 618.07C1894.58 618.523 1893.99 618.85 1893.32 618.85C1892.71 618.85 1892.25 618.502 1892.34 618.099L1898.89 584.469L1905.89 548.502L1906.95 543.074L1913.86 543.21Z" fill="#C69D7F"/>
<path d="M1910.79 555.223C1911.19 550.062 1905.89 548.502 1905.89 548.502L1906.95 543.074L1913.86 543.21L1910.79 555.223Z" fill="#A0795F"/>
<path d="M2242.28 325.285V561.056C2242.28 600.954 2209.65 633.597 2169.75 633.597H1711.34C1694.62 633.597 1679.2 627.872 1666.91 618.289H1989.43C2023.51 618.289 2051.4 590.413 2051.4 556.324V333.46C2051.4 299.379 2023.51 271.496 1989.43 271.496C1989.43 271.496 1725.69 270.484 1675.95 271.496C1655.65 271.914 1646.14 296.427 1646.14 296.427C1649.85 265.487 1692.72 252.746 1711.34 252.746H2169.75C2209.65 252.746 2242.28 285.387 2242.28 325.285Z" fill="#C2D9EF"/>
<path d="M1909.64 516.285L1909.57 518.011L1909.51 519.275L1909.16 527.349L1909.13 528.04L1908.96 532.077H1897.83L1897.58 528.04L1897.53 527.349L1897.03 519.275L1896.95 518.011L1896.81 515.721L1896.84 515.645C1896.84 515.645 1899.44 515.179 1900.99 516.167C1901.83 516.705 1902.71 516.387 1903.57 516.069C1904.3 515.798 1905.02 515.531 1905.66 515.789C1907.08 516.353 1907.17 517.066 1908.31 516.595C1908.65 516.451 1909.13 516.353 1909.64 516.285Z" fill="#E37970"/>
<path d="M1897.03 519.268L1896.95 518.004L1896.81 515.714L1896.77 515.078H1902.36C1902.22 515.468 1902.05 515.935 1901.88 516.448C1901.58 516.431 1901.28 516.346 1901 516.159C1900.19 515.651 1899.12 515.528 1898.27 515.528C1897.45 515.528 1896.84 515.638 1896.84 515.638L1896.81 515.714L1896.95 518.004L1897.03 519.268Z" fill="#DFD6E2"/>
<path d="M1909.14 528.033L1909.17 527.341L1909.51 519.268L1909.57 518.004L1909.65 516.278C1909.14 516.346 1908.65 516.444 1908.31 516.588C1908.05 516.698 1907.84 516.74 1907.67 516.74C1907.06 516.74 1906.75 516.215 1905.66 515.782C1905.48 515.706 1905.29 515.68 1905.09 515.68C1904.6 515.68 1904.09 515.871 1903.57 516.062C1903.05 516.257 1902.51 516.448 1901.99 516.448C1901.96 516.448 1901.92 516.448 1901.88 516.448C1902.06 515.935 1902.22 515.468 1902.36 515.078H1909.7L1909.65 516.278L1909.57 518.004L1909.51 519.268L1909.17 527.341L1909.14 528.033Z" fill="#D9D3D8"/>
<path d="M1908.96 532.077H1897.83L1897.58 528.04L1897.53 527.349L1897.08 519.988L1897.03 519.275L1896.95 518.012L1896.81 515.722L1896.84 515.645C1896.84 515.645 1897.45 515.535 1898.27 515.535C1899.12 515.535 1900.19 515.658 1900.99 516.167C1901.28 516.354 1901.58 516.438 1901.88 516.455C1901.91 516.455 1901.95 516.455 1901.99 516.455C1902.52 516.455 1903.04 516.265 1903.57 516.069C1904.08 515.879 1904.6 515.688 1905.08 515.688C1905.28 515.688 1905.47 515.713 1905.66 515.79C1906.75 516.222 1907.06 516.752 1907.66 516.752C1907.85 516.752 1908.05 516.706 1908.31 516.595C1908.65 516.451 1909.13 516.354 1909.64 516.286L1909.57 518.012L1909.51 519.275L1909.16 527.349L1909.13 528.04L1908.96 532.077Z" fill="#E37970"/>
<path d="M1904.94 510.712V508.613C1905.72 508.817 1906.44 509.16 1907.07 509.622C1906.3 509.915 1905.56 510.275 1904.94 510.712Z" fill="#E9DBDE"/>
<path d="M1902.36 515.08H1896.83C1896.82 515.021 1896.82 514.949 1896.82 514.881C1896.82 511.311 1899.72 508.41 1903.29 508.41C1903.85 508.41 1904.41 508.482 1904.93 508.618V510.717C1904.92 510.721 1904.91 510.73 1904.91 510.738H1904.9H1904.89V510.742V510.751C1904.52 511.001 1904.2 511.281 1903.93 511.586L1903.88 511.641C1903.47 512.129 1903.15 512.79 1902.93 513.541H1902.92C1902.92 513.541 1902.7 514.113 1902.36 515.08Z" fill="#DFD6E2"/>
<path d="M1909.76 515.078H1902.37C1902.71 514.112 1902.92 513.539 1902.92 513.539H1902.93C1903.16 512.789 1903.48 512.127 1903.88 511.64L1903.93 511.584C1904.21 511.279 1904.53 510.995 1904.89 510.749L1904.9 510.741V510.736H1904.91C1904.92 510.724 1904.94 510.719 1904.94 510.715C1905.57 510.278 1906.31 509.918 1907.07 509.621C1908.71 510.8 1909.77 512.717 1909.77 514.879C1909.77 514.947 1909.77 515.015 1909.76 515.078Z" fill="#D9D3D8"/>
<path d="M1902.18 531.05L1901.62 530.978C1901.65 530.626 1903.46 506.672 1903.74 505.078C1904.05 503.318 1905.76 502.8 1905.83 502.775L1905.86 502.771L1914.91 501.168L1915.01 501.723L1905.97 503.326C1905.83 503.377 1904.54 503.822 1904.29 505.175C1904.02 506.753 1902.19 530.969 1902.18 531.05Z" fill="#C45446"/>
<path d="M1909.57 518.008L1909.51 519.276L1909.16 527.345H1897.54L1897.03 519.276L1896.95 518.008H1909.57Z" fill="#C45446"/>
<path d="M2242.28 541.98V561.058C2242.28 600.956 2209.65 633.598 2169.75 633.598H1711.34C1694.62 633.598 1680.18 627.857 1667.89 618.282L1989.43 618.291C2011.08 618.291 2030.24 607.041 2041.32 590.096C2118.79 594.46 2204.32 559.671 2242.28 541.98Z" fill="#B2CEE7"/>
</g>
</g>
<defs>
<clipPath id="clip0_118_38">
<rect width="1920" height="640" fill="white"/>
</clipPath>
<clipPath id="clip1_118_38">
<rect width="1564.7" height="695" fill="white" transform="translate(677.648 -57)"/>
</clipPath>
</defs>
</svg>
