<?xml version="1.0" encoding="UTF-8"?>
<!-- Creator: CorelDRAW X8 -->
<svg xmlns="http://www.w3.org/2000/svg" xmlns:xlink="http://www.w3.org/1999/xlink" xml:space="preserve" width="44.9046mm" height="44.9046mm" version="1.1" style="shape-rendering:geometricPrecision; text-rendering:geometricPrecision; image-rendering:optimizeQuality; fill-rule:evenodd; clip-rule:evenodd" viewBox="0 0 449 449">
 <defs>
  <style type="text/css">
   <![CDATA[
    .fil0 {fill:#1B92F3}
   ]]>
  </style>
 </defs>
 <g id="Layer_x0020_1">
  <metadata id="CorelCorpID_0Corel-Layer"></metadata>
  <path class="fil0" d="M224 0c-123,0 -224,101 -224,224 0,124 101,225 224,225 124,0 225,-101 225,-225 0,-123 -101,-224 -225,-224zm79 134c18,0 33,17 33,35 0,17 -15,33 -33,33 -18,0 -34,-16 -34,-33 0,-18 16,-35 34,-35zm-158 0c18,0 35,17 35,35 0,17 -17,33 -35,33 -18,0 -33,-16 -33,-33 0,-18 15,-35 33,-35zm79 225c-58,0 -108,-38 -126,-90l252 0c-18,52 -68,90 -126,90l0 0z"></path>
 </g>
</svg>
