<?xml version="1.0" encoding="UTF-8"?>
<!-- Creator: CorelDRAW X8 -->
<svg xmlns="http://www.w3.org/2000/svg" xmlns:xlink="http://www.w3.org/1999/xlink" xml:space="preserve" width="51.9788mm" height="59.1541mm" version="1.1" style="shape-rendering:geometricPrecision; text-rendering:geometricPrecision; image-rendering:optimizeQuality; fill-rule:evenodd; clip-rule:evenodd" viewBox="0 0 1295 1474">
 <defs>
  <style type="text/css">
   <![CDATA[
    .fil0 {fill:#1B92F3}
   ]]>
  </style>
 </defs>
 <g id="Layer_x0020_1">
  <metadata id="CorelCorpID_0Corel-Layer"></metadata>
  <g id="_2169321843040">
   <g>
    <g>
     <polygon class="fil0" points="220,632 401,568 401,159 220,159 "></polygon>
     <polygon class="fil0" points="715,632 896,568 896,159 715,159 "></polygon>
     <path class="fil0" d="M0 1474l1295 0 0 -440 -1295 0 0 440zm620 -373l139 0 0 223 -139 0 0 -223zm-245 0l139 0 0 223 -139 0 0 -223zm-255 0l139 0 0 223 -139 0 0 -223z"></path>
     <polygon class="fil0" points="990,773 954,593 504,773 450,593 0,773 0,965 1295,965 1295,773 "></polygon>
     <path class="fil0" d="M139 129c23,-4 40,-17 54,-31 14,-14 25,-28 42,-36 15,-9 35,-11 48,-9 12,2 20,8 29,22 9,13 15,30 22,48l4 0c7,-19 7,-40 0,-60 -3,-11 -9,-21 -19,-30 -10,-8 -24,-12 -36,-11 -25,3 -39,19 -55,30 -15,11 -31,23 -47,30 -16,7 -33,12 -47,13 -14,0 -26,-5 -37,-13 -23,-18 -42,-50 -62,-82l-3 1c-3,39 7,80 40,111 17,16 44,23 67,17z"></path>
     <path class="fil0" d="M698 133c17,-4 29,-14 39,-25 9,-10 17,-21 28,-26 11,-6 25,-6 32,-3 7,2 10,3 17,12 6,8 11,19 19,32l3 0c7,-14 8,-29 4,-44 -2,-8 -7,-16 -14,-22 -8,-7 -19,-10 -28,-9 -19,3 -29,16 -39,24 -11,8 -22,15 -34,20 -12,3 -23,6 -32,6 -9,-1 -14,-4 -21,-8 -15,-10 -29,-31 -46,-53l-4 1c-5,28 0,58 25,82 13,12 34,17 51,13z"></path>
    </g>
   </g>
   <g>
   </g>
   <g>
   </g>
   <g>
   </g>
   <g>
   </g>
   <g>
   </g>
   <g>
   </g>
   <g>
   </g>
   <g>
   </g>
   <g>
   </g>
   <g>
   </g>
   <g>
   </g>
   <g>
   </g>
   <g>
   </g>
   <g>
   </g>
   <g>
   </g>
  </g>
 </g>
</svg>
