<?xml version="1.0" encoding="UTF-8"?>
<!-- Creator: CorelDRAW X8 -->
<svg xmlns="http://www.w3.org/2000/svg" xmlns:xlink="http://www.w3.org/1999/xlink" xml:space="preserve" width="39.651mm" height="44.8886mm" version="1.1" style="shape-rendering:geometricPrecision; text-rendering:geometricPrecision; image-rendering:optimizeQuality; fill-rule:evenodd; clip-rule:evenodd" viewBox="0 0 282 320">
 <defs>
  <style type="text/css">
   <![CDATA[
    .fil0 {fill:#ED2124}
   ]]>
  </style>
 </defs>
 <g id="Layer_x0020_1">
  <metadata id="CorelCorpID_0Corel-Layer"></metadata>
  <path class="fil0" d="M274 133l-125 -125c-8,-8 -20,-8 -27,0 -8,6 -8,19 0,26l125 125c7,7 19,7 27,0 6,-8 6,-20 0,-26z"></path>
  <path class="fil0" d="M112 51l-1 5c-7,34 -22,64 -44,90l68 67c26,-21 57,-37 90,-44l4 -1 -117 -117 0 0z"></path>
  <path class="fil0" d="M55 160l-47 47c-11,11 -11,28 0,39l27 27c11,11 29,11 40,0l46 -46 -66 -67 0 0zm6 73c-3,4 -10,4 -13,0 -3,-4 -3,-10 0,-13l13 -13c4,-5 10,-5 14,0 3,3 3,9 0,13l-14 13z"></path>
  <path class="fil0" d="M160 277l13 -12c11,-11 11,-28 0,-40l-10 -9c-4,3 -10,7 -14,11l11 12c3,3 3,9 0,13l-14 12 -18 -18 -27 27 42 41c8,8 20,8 27,0 7,-8 7,-19 0,-27l-10 -10 0 0z"></path>
  <path class="fil0" d="M198 0c-5,0 -10,3 -10,9l0 19c0,5 5,8 10,8 5,0 9,-3 9,-8l0 -19c0,-6 -4,-9 -9,-9z"></path>
  <path class="fil0" d="M272 74l-18 0c-5,0 -9,4 -9,10 0,6 4,9 9,9l18 0c6,0 10,-3 10,-9 0,-6 -4,-10 -10,-10z"></path>
  <path class="fil0" d="M260 21c-3,-3 -9,-3 -13,0l-18 19c-4,3 -4,10 0,13 4,3 9,3 14,0l17 -19c5,-3 5,-10 0,-13z"></path>
 </g>
</svg>
