<?xml version="1.0" encoding="UTF-8"?>
<!-- Creator: CorelDRAW X8 -->
<svg xmlns="http://www.w3.org/2000/svg" xmlns:xlink="http://www.w3.org/1999/xlink" xml:space="preserve" width="51.8102mm" height="54.3603mm" version="1.1" style="shape-rendering:geometricPrecision; text-rendering:geometricPrecision; image-rendering:optimizeQuality; fill-rule:evenodd; clip-rule:evenodd" viewBox="0 0 655 687">
 <defs>
  <style type="text/css">
   <![CDATA[
    .fil0 {fill:#ED2124}
   ]]>
  </style>
 </defs>
 <g id="Layer_x0020_1">
  <metadata id="CorelCorpID_0Corel-Layer"></metadata>
  <g id="_2169087491120">
   <g>
    <polygon class="fil0" points="122,137 295,190 303,161 118,105 36,153 50,178 "></polygon>
    <polygon class="fil0" points="122,190 295,242 303,214 118,158 36,205 50,231 "></polygon>
    <polygon class="fil0" points="122,242 295,295 303,266 118,210 36,258 50,283 "></polygon>
    <polygon class="fil0" points="122,295 295,347 303,319 118,263 36,310 50,336 "></polygon>
    <polygon class="fil0" points="122,347 295,400 303,371 118,315 36,363 50,388 "></polygon>
    <polygon class="fil0" points="122,400 295,452 303,424 118,368 36,415 50,441 "></polygon>
    <polygon class="fil0" points="122,452 295,505 303,476 118,420 36,468 50,493 "></polygon>
    <polygon class="fil0" points="122,505 295,557 303,529 118,473 36,520 50,546 "></polygon>
    <polygon class="fil0" points="404,137 578,190 586,161 401,105 318,153 333,178 "></polygon>
    <polygon class="fil0" points="404,85 578,137 586,109 401,53 318,100 333,126 "></polygon>
    <polygon class="fil0" points="404,32 578,85 586,56 401,0 318,48 333,73 "></polygon>
    <polygon class="fil0" points="404,190 578,242 586,214 401,158 318,205 333,231 "></polygon>
    <polygon class="fil0" points="404,242 578,295 586,266 401,210 318,258 333,283 "></polygon>
    <polygon class="fil0" points="404,295 578,347 586,319 401,263 318,310 333,336 "></polygon>
    <polygon class="fil0" points="404,347 578,400 586,371 401,315 318,363 333,388 "></polygon>
    <polygon class="fil0" points="404,400 578,452 586,424 401,368 318,415 333,441 "></polygon>
    <polygon class="fil0" points="404,452 578,505 586,476 401,420 318,468 333,493 "></polygon>
    <polygon class="fil0" points="404,505 578,557 586,529 401,473 318,520 333,546 "></polygon>
    <path class="fil0" d="M578 658l0 -49 8 -28 -185 -56 -83 48 9 14 0 71 -32 0 0 -49 8 -28 -185 -56 -82 48 8 14 0 71 -44 0 0 29 655 0 0 -29 -77 0zm-417 0l0 -60 91 22 0 38 -91 0zm283 0l0 -60 90 22 0 38 -90 0z"></path>
   </g>
   <g>
   </g>
   <g>
   </g>
   <g>
   </g>
   <g>
   </g>
   <g>
   </g>
   <g>
   </g>
   <g>
   </g>
   <g>
   </g>
   <g>
   </g>
   <g>
   </g>
   <g>
   </g>
   <g>
   </g>
   <g>
   </g>
   <g>
   </g>
   <g>
   </g>
  </g>
 </g>
</svg>
