<?xml version="1.0" encoding="UTF-8"?>
<svg xmlns="http://www.w3.org/2000/svg" width="29" height="38.6748" viewBox="0 0 29 38.6748">
  <g>
    <path d="M28.9981,7.8274a.9043.9043,0,0,0-.2632-.6309L21.8032.2652,21.8024.2646A.9022.9022,0,0,0,21.1629,0H1.9064A1.9084,1.9084,0,0,0,0,1.9063V36.7685a1.9085,1.9085,0,0,0,1.9063,1.9063H27.0937A1.9085,1.9085,0,0,0,29,36.7685V7.8374Zm-6.93-4.736,3.84,3.84H22.1637a.0955.0955,0,0,1-.0953-.0953V3.0918ZM27.189,36.7686a.0955.0955,0,0,1-.0953.0953H1.9064a.0955.0955,0,0,1-.0953-.0953V1.9063a.0955.0955,0,0,1,.0953-.0953H20.2573V6.8363a1.9087,1.9087,0,0,0,1.9065,1.9065H27.189Z"></path>
    <path d="M22.5136,12.3891H6.4865A.9056.9056,0,1,0,6.4675,14.2H22.5136a.9056.9056,0,0,0,0-1.8111Z"></path>
    <path d="M22.5136,17.8534H6.4865a.9056.9056,0,1,0-.019,1.8111H22.5136a.9056.9056,0,0,0,0-1.8111Z"></path>
    <path d="M22.5136,23.3174H6.4865a.9056.9056,0,1,0-.019,1.8111H22.5136a.9056.9056,0,0,0,0-1.8111Z"></path>
    <path d="M14.5,28.7819H6.4865a.9056.9056,0,1,0-.019,1.8111H14.5a.9056.9056,0,0,0,0-1.8111Z"></path>
  </g>
</svg>
