<?xml version="1.0" encoding="UTF-8"?>
<svg xmlns="http://www.w3.org/2000/svg" width="32.7463" height="37.8091" viewBox="0 0 32.7463 37.8091">
  <g>
    <path d="M31.6337,31.3206l-3.7491-3.75V.6336A.6336.6336,0,0,0,27.251,0H8.2428c-.0121,0-.0235.0062-.0356.0071a.5951.5951,0,0,0-.17.034.518.518,0,0,0-.0551.02.6339.6339,0,0,0-.19.1265L.1884,7.7908a.6259.6259,0,0,0-.1268.1856c-.009.02-.0139.0393-.021.06a.5985.5985,0,0,0-.0322.1627c0,.0139-.0084.026-.0084.04V32.314a.6336.6336,0,0,0,.6336.6336H22.507l3.75,3.7478a3.8011,3.8011,0,0,0,5.3764-5.3748Zm-5.3711,3.5913-9.8621-9.859,3.5894-3.59,9.859,9.8627ZM15.8643,23.7969l-.8593-3.7281,3.7283.8585ZM7.6092,2.1632v5.44h-5.44ZM1.2731,31.68V8.8705h6.97a.6336.6336,0,0,0,.6336-.6336h0v-6.97h17.741V26.3024l-6.1792-6.1835-.0071-.0043a.6321.6321,0,0,0-.1785-.12c-.0179-.0077-.035-.0133-.0526-.02a.6584.6584,0,0,0-.0681-.026l-5.829-1.343a.6334.6334,0,0,0-.76.76l1.3433,5.8293a.6635.6635,0,0,0,.026.0684c.0065.017.0114.034.02.0514a.6076.6076,0,0,0,.121.18l.0031.0053L21.24,31.68Zm29.4628,4.1215a2.5257,2.5257,0,0,1-3.5719.0061h0l-.0061-.0061.2982-.2989,3.2853-3.2847a2.5257,2.5257,0,0,1,.0025,3.5719h0l-.0081.0081Z"></path>
    <path d="M5.7083,12.6721H22.1822a.6336.6336,0,1,0,0-1.2672H5.7083a.6336.6336,0,0,0,0,1.2672Z"></path>
    <path d="M5.7083,16.4738H22.1822a.6336.6336,0,0,0,0-1.2672H5.7083a.6336.6336,0,1,0,0,1.2672Z"></path>
    <path d="M10.1436,19.0082H5.7083a.6336.6336,0,1,0,0,1.2672h4.4353a.6336.6336,0,0,0,0-1.2672Z"></path>
  </g>
</svg>
