<?xml version="1.0" encoding="UTF-8"?>
<svg xmlns="http://www.w3.org/2000/svg" width="22.3333" height="39.161" viewBox="0 0 22.3333 39.161">
  <g>
    <path d="M11.1666,0H.7648A.7646.7646,0,0,0,0,.7644H0v37.63a.7646.7646,0,0,0,.7644.7648H11.1666a.7648.7648,0,0,0,.7648-.7648h0v-4.742a.765.765,0,1,0-1.53,0V37.63H1.53v-2.6H4.1554a.765.765,0,1,0,.0019-1.53H1.53V31.3585h.8227a.765.765,0,0,0,0-1.53H1.53V27.6873H4.1554a.765.765,0,0,0,0-1.53H1.53V24.0161h.8227a.765.765,0,0,0,0-1.53H1.53V20.3448H4.1554a.765.765,0,1,0,0-1.53H1.53V16.6736h.8227a.765.765,0,0,0,0-1.53H1.53V13.0024H4.1554a.765.765,0,0,0,0-1.53H1.53V9.3311h.8227a.765.765,0,0,0,0-1.53H1.53V5.66H4.1544a.765.765,0,0,0,.0009-1.53H1.53V1.53h8.8721V34.5343a.765.765,0,0,0,1.53,0h0V.7649A.7648.7648,0,0,0,11.167,0Z"></path>
    <path d="M11.1666,29.8289a.7655.7655,0,1,0,.5406.2242A.7653.7653,0,0,0,11.1666,29.8289Z"></path>
    <path d="M21.5684,15.1439a.7655.7655,0,1,0,.5406.2242A.7653.7653,0,0,0,21.5684,15.1439Z"></path>
    <path d="M22.2728,7.6566l-3.04-7.19A.7646.7646,0,0,0,18.53,0h-.0017a.7655.7655,0,0,0-.7032.4637l-3.0784,7.19a.7664.7664,0,0,0-.0617.3012V35.3357a3.8242,3.8242,0,0,0,7.6484.0027v-23.37a.765.765,0,0,0-1.53,0h0v20.5h-1.53V8.7193h1.53v4.13a.765.765,0,0,0,1.53,0V7.9544A.7673.7673,0,0,0,22.2728,7.6566ZM16.6092,7.19l.6549-1.53h2.5037l.6468,1.53Zm1.9144-4.4719L19.1209,4.13H17.9192Zm2.28,32.6176a2.2945,2.2945,0,0,1-4.589,0V33.9972h4.589Zm-3.0594-2.8682h-1.53V8.7193h1.53Z"></path>
  </g>
</svg>
