<svg width="29" height="36" viewBox="0 0 29 36" version="1.1" xmlns="http://www.w3.org/2000/svg" xmlns:xlink="http://www.w3.org/1999/xlink">
<title>planning</title>
<g id="Page-1" stroke="none" stroke-width="1" fill="none" fill-rule="evenodd" stroke-linecap="round">
<g id="MKTG-2887-Service-page" transform="translate(-240.000000, -1748.000000)" stroke="#323232" stroke-width="1.5px" fill="none">
<g id="planning" transform="translate(241.000000, 1749.000000)" stroke="#323232" fill="none" stroke-width="1.5px">
<path d="M8.58948252,11.3473614 C8.58948252,9.26410688 10.2788729,7.57471649 12.3621274,7.57471649 C14.445382,7.57471649 16.1347724,9.26410688 16.1347724,11.3473614" id="Stroke-1" stroke="#323232" fill="none" stroke-width="1.5px"></path>
<polygon id="Stroke-3" points="24.8788579 5.96983333 20.0030916 9.52819203 16.4447329 4.65242572 21.3204992 1.09406703" stroke="#323232" fill="none" stroke-width="1.5px"></polygon>
<polygon id="Stroke-5" points="7.69385661 0.400805797 0.732572192 2.93526866 6.4179481 7.69861014" stroke="#323232" fill="none" stroke-width="1.5px"></polygon>
<path d="M25.1887429,15.8745353 L25.1887429,16.6290643 C25.1887429,19.458548 19.1525111,23.9857219 15.3798661,26.4379411 L15.3798661,31.719644 L12.3617502,33.983231 L11.6072212,33.983231 L11.6072212,26.4379411 C7.83457627,23.9857219 1.79834438,19.458548 1.79834438,16.6290643 L1.79834438,15.8745353" id="Stroke-7" stroke="#323232" fill="none" stroke-width="1.5px"></path>
<path d="M7.08042455,15.8745353 L1.04419266,15.8745353 C0.627692663,15.8745353 0.289663678,15.5365063 0.289663678,15.1200063 L0.289663678,13.6109484 C0.289663678,13.1944484 0.627692663,12.8564194 1.04419266,12.8564194 L25.9436492,12.8564194 C26.3601492,12.8564194 26.6981782,13.1944484 26.6981782,13.6109484 L26.6981782,15.1200063 C26.6981782,15.5365063 26.3601492,15.8745353 25.9436492,15.8745353 L13.8711854,15.8745353" id="Stroke-9" stroke="#323232" fill="none" stroke-width="1.5px"></path>
</g>
</g>
</g>
</svg>