<svg xmlns:xlink="http://www.w3.org/1999/xlink" class="mx-auto" xmlns="http://www.w3.org/2000/svg" width="60" height="60" viewBox="0 0 57.933 56.691"><path d="M17.571,29.9h0l3.863-8.818h0Zm-3.207.8Zm7.069-9.693ZM17.571,29.9l6.559-1.6-6.559,1.6Zm3.863-8.891h0l-3.863,8.818Zm0,0ZM65.817,42.58Zm0-.073Zm2.624-6.413V57.374A9.346,9.346,0,0,1,59.112,66.7H20.924A9.394,9.394,0,0,1,11.6,57.374v-8.6a1.324,1.324,0,0,1,1.385-1.312,1.311,1.311,0,0,1,1.239,1.385V57.52a6.532,6.532,0,0,0,6.559,6.559H59.112a6.687,6.687,0,0,0,6.7-6.7V45.2h-51.6A2.613,2.613,0,0,1,11.6,42.58V33.543l-.8-3.061a8.875,8.875,0,0,1,1.02-6.923,9.454,9.454,0,0,1,5.83-4.3l36.877-8.964a8.306,8.306,0,0,1,4.008-.073,8.984,8.984,0,0,1,2.478.8A9.183,9.183,0,0,1,65.89,17l.146.51a3.114,3.114,0,0,1-.364,2.405,3.257,3.257,0,0,1-2.041,1.458L16.77,32.814v.219L25,32.96h40.3A3.111,3.111,0,0,1,68.441,36.094ZM56.926,20.352l6.122-1.458c.219-.073.364-.219.364-.292.073-.073.073-.219.073-.437l-.146-.51a6.487,6.487,0,0,0-3.425-4.227Zm-5.9-6.486L47.16,22.757l6.632-1.6L57.509,12.7h-.656a7.064,7.064,0,0,0-1.676.219Zm-9.912,2.4-3.863,8.891,6.7-1.6,3.863-8.891Zm-9.839,2.4-3.935,8.818,6.7-1.6L37.9,17Zm-9.839,2.332-3.863,8.818h0l6.559-1.6,3.863-8.891-6.559,1.676h0l-3.863,8.818,3.863-8.818Zm-1.895-2.041ZM18.3,21.809ZM14.365,30.7h0l3.863-8.891A6.951,6.951,0,0,0,14,24.87a6.156,6.156,0,0,0-.947,3.352,6.07,6.07,0,0,0,.219,1.6l.292,1.02Zm7,11.879-5.757-7H14.219v6.268a.73.73,0,0,0,.729.729h6.413Zm3.425,0h6.851l-5.757-7H19.029l5.757,7Zm10.2,0H41.84l-5.757-7H29.232l5.757,7Zm10.276,0h6.851l-5.757-7H39.508l5.757,7Zm10.276,0h6.851l-5.757-7H49.784l5.757,7Zm10.276-.146h0V36.239a.653.653,0,0,0-.656-.656h-5.1Zm.073.146ZM31.783,52.346h15.45a1.345,1.345,0,0,0,.875-.364,1.207,1.207,0,0,0,.364-.875,1.345,1.345,0,0,0-.364-.875,1.207,1.207,0,0,0-.875-.364H31.783a1.345,1.345,0,0,0-.875.364,1.262,1.262,0,0,0-.292,1.239,1.175,1.175,0,0,0,.292.51A1.207,1.207,0,0,0,31.783,52.346Zm-7-9.766Zm10.276,0Zm20.552,0Zm-10.276,0Z" transform="translate(-10.507 -10.011)" fill="#F6921E"></path></svg>