<svg xmlns:xlink="http://www.w3.org/1999/xlink" class="mx-auto" xmlns="http://www.w3.org/2000/svg" width="60" height="60" viewBox="0 0 54.747 52.673"><path d="M4,24.526a9.763,9.763,0,0,1,9.607-9.762,9.762,9.762,0,0,1,8.941-5.857,6.943,6.943,0,0,1,.976.049,9.762,9.762,0,0,1,15.62,0c.332,0,.644-.049.976-.049a9.762,9.762,0,0,1,8.942,5.857,9.763,9.763,0,0,1-.156,19.525H41.1V32.336h7.81a7.81,7.81,0,0,0,0-15.62h-.449a.976.976,0,0,1-.976-.644,7.81,7.81,0,0,0-7.361-5.213,8.532,8.532,0,0,0-1.25.107.976.976,0,0,1-.976-.43,7.81,7.81,0,0,0-13.12,0,.976.976,0,0,1-.976.43,8.532,8.532,0,0,0-1.25-.107,7.81,7.81,0,0,0-7.361,5.233.976.976,0,0,1-.976.644h-.449a7.81,7.81,0,0,0,0,15.62h7.81v1.952h-7.81A9.762,9.762,0,0,1,4,24.526Zm26.358.976H27.429v1.952h2.929Zm4.881,0H32.311v1.952h2.929Zm-7.81,15.62h2.929V39.169H27.429Zm4.881,0h2.929V39.169H32.311ZM56.716,52.836a4.881,4.881,0,0,1-9.665.976H36.118a4.881,4.881,0,0,1-9.567,0H14.641a4.881,4.881,0,1,1,0-1.952h11.91a4.881,4.881,0,0,1,3.807-3.807V45.027H24.5A2.929,2.929,0,0,1,21.572,42.1v-3.9A2.929,2.929,0,0,1,24.5,35.264h2.929v-3.9H24.5a2.929,2.929,0,0,1-2.929-2.929v-3.9A2.929,2.929,0,0,1,24.5,21.6H38.168A2.929,2.929,0,0,1,41.1,24.526v3.9a2.929,2.929,0,0,1-2.929,2.929H35.239v3.9h2.929A2.929,2.929,0,0,1,41.1,38.193v3.9a2.929,2.929,0,0,1-2.929,2.929H32.311v3.026a4.881,4.881,0,0,1,3.807,3.807H47.052a4.881,4.881,0,0,1,9.665.976ZM24.5,29.407H38.168a.976.976,0,0,0,.976-.976v-3.9a.976.976,0,0,0-.976-.976H24.5a.976.976,0,0,0-.976.976v3.9A.976.976,0,0,0,24.5,29.407Zm4.881,5.857h3.9v-3.9h-3.9ZM24.5,43.074H38.168a.976.976,0,0,0,.976-.976v-3.9a.976.976,0,0,0-.976-.976H24.5a.976.976,0,0,0-.976.976v3.9A.976.976,0,0,0,24.5,43.074ZM12.786,52.836a2.929,2.929,0,1,0-2.929,2.929A2.929,2.929,0,0,0,12.786,52.836Zm21.477,0a2.929,2.929,0,1,0-2.929,2.929A2.929,2.929,0,0,0,34.263,52.836Zm20.5,0a2.929,2.929,0,1,0-2.929,2.929,2.929,2.929,0,0,0,2.929-2.929Z" transform="translate(-4 -5.05)" fill="#F6921E"></path></svg>