<svg xmlns:xlink="http://www.w3.org/1999/xlink" class="mx-auto" xmlns="http://www.w3.org/2000/svg" width="60" height="60" viewBox="0 0 50 50"><path d="M12.511,50a1.668,1.668,0,0,1-1.668-1.669V46.787a.826.826,0,0,0-.292-.632c-1.569-1.332-3.823-3.263-6.123-5.238l-.558-.472A10.243,10.243,0,0,1,1.176,37.49,8.192,8.192,0,0,1,.118,33.414L.085,30.271C.056,28.322.055,28.238,0,21.776A2.586,2.586,0,0,1,1.982,19.2a2.468,2.468,0,0,1,1.976.409A2.537,2.537,0,0,1,5,21.37l.264,2.413c.391,3.592.482,4.431.656,6.084a2.8,2.8,0,0,1,2.336.337l4.519,3c4.548,3.018,5.625,3.737,5.745,3.82a8.184,8.184,0,0,1,2.929,4.809,43,43,0,0,1,.235,6.277v.232A1.669,1.669,0,0,1,20.017,50ZM2.326,20.829a.926.926,0,0,0-.658.934c.058,6.456.059,6.54.084,8.488l.033,3.143a6.589,6.589,0,0,0,.843,3.278,8.73,8.73,0,0,0,2.316,2.5l.569.482c2.3,1.974,4.55,3.9,6.118,5.232a2.5,2.5,0,0,1,.879,1.9v1.545h7.506V48.1a45.026,45.026,0,0,0-.2-5.943,6.582,6.582,0,0,0-2.3-3.809c-.1-.071-1.844-1.226-5.654-3.753l-4.519-3a1.142,1.142,0,0,0-1.4.125.759.759,0,0,1-.108.138A1.124,1.124,0,0,0,6.054,33.4l8.734,6.62a.834.834,0,1,1-1.007,1.33L5.045,34.737a2.79,2.79,0,0,1-.679-3.685c-.256-2.448-.3-2.845-.762-7.089l-.262-2.4a.869.869,0,0,0-.356-.6.812.812,0,0,0-.473-.153A.919.919,0,0,0,2.326,20.829ZM29.973,50a1.668,1.668,0,0,1-1.668-1.658V48.11a42.463,42.463,0,0,1,.239-6.283,8.135,8.135,0,0,1,2.9-4.78c.146-.108,1.2-.8,5.616-3.738l4.676-3.1a2.778,2.778,0,0,1,2.336-.334c.187-1.771.278-2.606.744-6.877L45,21.379a2.545,2.545,0,0,1,1.043-1.772,2.469,2.469,0,0,1,1.976-.41A2.586,2.586,0,0,1,50,21.776c-.058,6.466-.059,6.546-.084,8.5l-.037,3.138a8.191,8.191,0,0,1-1.058,4.077,10.243,10.243,0,0,1-2.7,2.952l-.562.475c-2.3,1.975-4.555,3.9-6.125,5.237a.827.827,0,0,0-.29.633v1.545A1.668,1.668,0,0,1,37.48,50ZM42.656,31.6l-4.67,3.1c-3.7,2.457-5.395,3.578-5.53,3.675a6.544,6.544,0,0,0-2.272,3.78,44.523,44.523,0,0,0-.2,5.95v.232l7.506,0V46.787a2.5,2.5,0,0,1,.878-1.9c1.568-1.331,3.821-3.259,6.118-5.233l.573-.485a8.728,8.728,0,0,0,2.311-2.494,6.576,6.576,0,0,0,.843-3.279l.038-3.139c.023-1.95.024-2.03.079-8.491a.926.926,0,0,0-.659-.934.8.8,0,0,0-.657.135.863.863,0,0,0-.357.6l-.175,1.609c-.544,4.99-.576,5.288-.85,7.873a2.781,2.781,0,0,1-.673,3.685l-8.742,6.618a.834.834,0,0,1-1.007-1.33l8.741-6.611a1.117,1.117,0,0,0,.222-1.54.845.845,0,0,1-.1-.121,1.149,1.149,0,0,0-.807-.334A1.1,1.1,0,0,0,42.656,31.6ZM7.507,17.514A17.488,17.488,0,1,1,24.995,35.029,17.5,17.5,0,0,1,7.507,17.514Zm1.666,0A15.822,15.822,0,1,0,24.995,1.668,15.85,15.85,0,0,0,9.173,17.514Zm14.99,12.511a2.5,2.5,0,0,1-2.5-2.5V21.685a.833.833,0,0,0-.833-.834H15.008a2.5,2.5,0,0,1-2.5-2.5V16.681a2.5,2.5,0,0,1,2.5-2.5h5.826a.833.833,0,0,0,.833-.834V7.506a2.5,2.5,0,0,1,2.5-2.5h1.665a2.5,2.5,0,0,1,2.5,2.5v5.838a.833.833,0,0,0,.833.834h5.826a2.5,2.5,0,0,1,2.5,2.5v1.668a2.5,2.5,0,0,1-2.5,2.5H29.156a.833.833,0,0,0-.833.834v5.838a2.5,2.5,0,0,1-2.5,2.5ZM14.175,16.681v1.668a.833.833,0,0,0,.833.834h5.826a2.5,2.5,0,0,1,2.5,2.5v5.838a.833.833,0,0,0,.833.833h1.665a.833.833,0,0,0,.832-.833V21.685a2.5,2.5,0,0,1,2.5-2.5h5.826a.833.833,0,0,0,.833-.834V16.681a.833.833,0,0,0-.833-.834H29.156a2.5,2.5,0,0,1-2.5-2.5V7.506a.832.832,0,0,0-.832-.833H24.162a.833.833,0,0,0-.833.833v5.838a2.5,2.5,0,0,1-2.5,2.5H15.008A.833.833,0,0,0,14.175,16.681Z" fill="#444"></path></svg>