<svg xmlns="http://www.w3.org/2000/svg" width="79.854" height="86.5" viewBox="0 0 79.854 86.5">
  <path id="ic_agriculture" d="M-761.876,492.007a4.133,4.133,0,0,0-2.845-3.528,3.984,3.984,0,0,0-3.755.53,1.2,1.2,0,0,1-1.731-.114c-1.177-1.032-2.448-1.956-3.656-2.952a31.364,31.364,0,0,0-18.327-7.4c-.558-.036-.663-.22-.529-.713a11.875,11.875,0,0,1,2.883-5.132.692.692,0,0,1,.635-.287c1,.1,2.009.163,3.015.176a25.208,25.208,0,0,0,11.4-2.308c.951-.456,1.281-1.1.939-1.841s-1.067-.9-2.008-.447a19.342,19.342,0,0,1-4.015,1.423,25.359,25.359,0,0,1-7,.618,142.382,142.382,0,0,1,20.423-13.88c.044.157.08.213.069.259a3.856,3.856,0,0,1-.119.4,20.265,20.265,0,0,1-4.4,7.537c-.714.767-.773,1.506-.174,2.049s1.273.444,1.972-.3a23.171,23.171,0,0,0,5.733-11.192,2.137,2.137,0,0,0-2.236-2.721,34.46,34.46,0,0,0-14.017,2.892c-6,2.746-10.143,7.111-11.277,13.792-.27,1.589-1.212,2.5-2.183,3.76,0-3.511,0-6.832-.006-10.152,0-.34.231-.49.424-.676,5.019-4.855,6.538-10.817,5.538-17.563a38.16,38.16,0,0,0-5.134-13.623A4.152,4.152,0,0,0-793.749,429h-1.176a3.923,3.923,0,0,0-1.414,1.47,37.8,37.8,0,0,0-5.232,13.767c-1,6.737.5,12.719,5.555,17.556a1.272,1.272,0,0,1,.423,1.021c-.019,2.744-.009,5.488-.009,8.231v1.349c-.547-.609-.972-1.114-1.433-1.586a1.419,1.419,0,0,1-.4-.881,17.018,17.018,0,0,0-5.1-10.5c-5.808-5.558-13.064-7.092-20.767-7.216a2.025,2.025,0,0,0-1.909,2.459c1.251,6.27,4.331,11.341,9.879,14.712,4.867,2.957,10.232,3.526,15.775,3.062a.97.97,0,0,1,.935.33,12.337,12.337,0,0,1,2.76,4.926c.186.654.028.8-.62.834a30.368,30.368,0,0,0-12.932,3.722,1.674,1.674,0,0,1-1.484.15,14.263,14.263,0,0,0-11.755.987c-2.979,1.59-5.91,3.273-8.85,4.936a.722.722,0,0,1-.941-.047,3.49,3.49,0,0,0-4.013-.225c-.833.456-1.648.944-2.471,1.42-2.294,1.329-2.82,3.289-1.493,5.589,3.339,5.78,6.7,11.545,10,17.345a5,5,0,0,0,2.9,2.587h1.343a23.791,23.791,0,0,0,4.236-2.291,2.993,2.993,0,0,0,1.563-3.423c-.434-1.374.26-1.906,1.068-2.569a6.479,6.479,0,0,0,.5-.445,2.753,2.753,0,0,1,3.082-.636c3.389,1.123,6.789,2.209,10.187,3.306a8.1,8.1,0,0,0,3.306.41c6.485-.644,12.967-1.312,19.453-1.95a11,11,0,0,0,5.372-1.678c4.6-3.175,9.214-6.329,13.8-9.518A4.12,4.12,0,0,0-761.876,492.007ZM-787.8,466.774a15.518,15.518,0,0,1,7.091-8.3,27.689,27.689,0,0,1,10.89-3.389,157.482,157.482,0,0,0-18.143,12.57A1.258,1.258,0,0,1-787.8,466.774Zm-5.233-32.117c.259.034.257.3.339.47,2.1,4.378,3.538,8.918,3.319,13.85a15.734,15.734,0,0,1-3.169,8.928c-.1.134-.21.26-.32.385a.735.735,0,0,1-.169.093Zm-21,32.574c-4.222-2.553-6.755-6.383-8.271-11.212a144.2,144.2,0,0,1,20.651,14.019C-806.179,470.174-810.295,469.5-814.038,467.231ZM-819,455.018a28.037,28.037,0,0,1,4.612.846,21.515,21.515,0,0,1,10.276,5.5,14.784,14.784,0,0,1,3.7,6.421A146.428,146.428,0,0,0-819,455.018Zm23.35,3.5a16.082,16.082,0,0,1-3.678-10.747,30.867,30.867,0,0,1,3.577-13.171C-795.551,435.258-795.466,455.922-795.655,458.518Zm23.764,32.3c-3.5,1.629-6.637,4-10.572,4.564-.479.069-.643.08-.674-.515a6.081,6.081,0,0,0-5.443-5.76c-3.22-.395-6.442-.779-9.661-1.178a8.661,8.661,0,0,1-3.455-1.2,42.679,42.679,0,0,0-5.265-2.834C-797.266,479.219-784.283,479.079-771.891,490.819Zm6.7,3.435c-2.41,1.674-4.835,3.328-7.252,4.992-1.888,1.3-3.808,2.555-5.654,3.912a9.354,9.354,0,0,1-4.812,1.728c-6.459.624-12.914,1.292-19.37,1.945a6.2,6.2,0,0,1-2.555-.336c-3.345-1.083-6.7-2.141-10.033-3.244a5.337,5.337,0,0,0-5.728,1.235c-1.378,1.286-1.4,1.262-2.336-.362-.988-1.719-1.972-3.44-2.969-5.154-.507-.872-1.167-1.136-1.846-.765-.72.392-.846,1.126-.327,2.029q2.444,4.246,4.9,8.488c.628,1.091.509,1.529-.583,2.164q-1.085.633-2.178,1.252c-.982.556-1.441.447-1.99-.5q-5.2-8.993-10.386-17.991c-.505-.879-.378-1.367.472-1.872s1.683-.993,2.539-1.465a1.108,1.108,0,0,1,1.755.472c.741,1.249,1.45,2.516,2.183,3.77.495.848,1.183,1.116,1.86.748.7-.382.819-1.13.3-2.037-.384-.68-.761-1.367-1.177-2.027-.226-.358-.219-.543.187-.768,3.006-1.659,5.982-3.374,9-5.007a12.5,12.5,0,0,1,5.959-1.361,22.4,22.4,0,0,1,8.738,2.8c1.195.6,2.343,1.3,3.492,1.99a14.652,14.652,0,0,0,6.15,1.751c2.724.3,5.443.641,8.161,1a3.62,3.62,0,0,1,3.042,3.229c.041.55-.048.819-.73.858-3.967.221-7.93.505-11.894.774-.975.066-1.47.573-1.391,1.395.073.762.667,1.2,1.581,1.107,4.706-.483,9.439-.591,14.155-.944a19.9,19.9,0,0,0,7.992-2.275c2.953-1.579,5.922-3.129,8.882-4.7a1.659,1.659,0,0,1,2.406.51A1.9,1.9,0,0,1-765.192,494.254Z" transform="translate(841.423 -428.748)" fill="#666" stroke="#666" stroke-width="0.5"/>
</svg>
