<svg xmlns="http://www.w3.org/2000/svg" width="86.898" height="86.899" viewBox="0 0 86.898 86.899">
  <g id="Group_173868" data-name="Group 173868" transform="translate(-347.551 -682.551)">
    <g id="ic_mining" transform="translate(348 683.001)">
      <path id="Path_91566" data-name="Path 91566" d="M-625.4,662.139a2.694,2.694,0,0,0,.84-.84Q-624.329,662.365-625.4,662.139Z" transform="translate(710.515 -576.179)" fill="#666" stroke="#666" stroke-width="0.9"/>
      <path id="Path_91567" data-name="Path 91567" d="M-669.607,622.631c-2.122,0-4.244.015-6.366-.007-1.049-.011-1.655-.8-1.294-1.623a1.152,1.152,0,0,1,1.2-.727c4.327.174,8.654.339,12.98.521a1.107,1.107,0,0,1,1.168,1.163,1.125,1.125,0,0,1-1.241,1.17c-2.15-.059-4.3-.16-6.449-.243Z" transform="translate(713.128 -574.116)" fill="#666" stroke="#666" stroke-width="0.9"/>
      <path id="Path_91568" data-name="Path 91568" d="M-649.217,612.459a1.1,1.1,0,0,1-1.056-.639,1.222,1.222,0,0,1,.247-1.391c1.289-1.506,2.561-3.025,3.843-4.537q2.11-2.492,4.225-4.98c.652-.763,1.286-.9,1.866-.431.6.486.578,1.176-.095,1.972q-3.949,4.667-7.906,9.325C-648.407,612.148-648.727,612.491-649.217,612.459Z" transform="translate(711.772 -573.108)" fill="#666" stroke="#666" stroke-width="0.9"/>
      <path id="Path_91569" data-name="Path 91569" d="M-648.145,596.1c-.376,2.077-.763,4.217-1.149,6.356-.049.274-.086.551-.143.823-.188.882-.706,1.3-1.432,1.161-.688-.13-1.026-.663-.88-1.535.292-1.759.623-3.512.942-5.267.12-.657.227-1.318.381-1.969a1.064,1.064,0,0,1,1.3-.88C-648.428,594.89-648.148,595.365-648.145,596.1Z" transform="translate(711.842 -572.834)" fill="#666" stroke="#666" stroke-width="0.9"/>
      <path id="Path_91570" data-name="Path 91570" d="M-671.788,611.244c.206.076.447.144.671.251q2.933,1.4,5.859,2.818c.85.412,1.135,1.068.786,1.739-.33.637-.976.784-1.814.384-1.981-.946-3.957-1.9-5.935-2.853a1.174,1.174,0,0,1-.758-1.409C-672.848,611.563-672.4,611.333-671.788,611.244Z" transform="translate(712.909 -573.662)" fill="#666" stroke="#666" stroke-width="0.9"/>
      <path id="Path_91571" data-name="Path 91571" d="M-665.075,591.332c-.333-.384-.3-.556.011-.926a3.087,3.087,0,0,0-.109-4.325q-3.483-3.574-7.061-7.057a3.047,3.047,0,0,0-4.191-.108c-.489.431-.7.326-1.124-.042a28.95,28.95,0,0,0-13.922-6.725,10.644,10.644,0,0,1-2.563-.476h-.5a.382.382,0,0,1-.5,0h-1.344a2.873,2.873,0,0,1-1.511,0h-.84c-.161.15-.361.063-.542.086h-1.269c-.18-.024-.379.064-.539-.086h-1.176c-.088.277-.324.156-.494.164-.782.037-1.565.039-2.346.085a1.119,1.119,0,0,0-1.148,1.02,1.112,1.112,0,0,0,.847,1.273c.476.161.954.313,1.429.473,3.143,1.054,6.365,1.87,9.414,3.2,4.166,1.817,7.405,4.835,10.5,8.056.316.329.073.464-.072.673a2.938,2.938,0,0,0-.2,3.451c.373.591.233.844-.215,1.262q-13.3,12.418-26.587,24.859c-1.612,1.5-3.284,2.932-3.883,5.181v2.351c.05.061.129.115.145.183a6.12,6.12,0,0,0,4.626,4.807,6.257,6.257,0,0,0,6.5-2.1q5.282-5.684,10.6-11.337,7.912-8.452,15.816-16.913c.4-.43.64-.484,1.139-.138a2.265,2.265,0,0,0,2.615.226c1.362-1.073,1.945-.086,2.7.688.41.421.83.832,1.245,1.247a26.867,26.867,0,0,1,6.7,10.783q1.242,3.817,2.466,7.639c.017.053.024.11.039.163.195.7.552,1.284,1.377,1.181.87-.109,1.055-.784,1.074-1.549.063-2.572.192-5.144.2-7.716A28.822,28.822,0,0,0-665.075,591.332Zm-22.677-12.064a29.917,29.917,0,0,0-9.381-4.879c-.186-.058-.37-.122-.552-.193-.035-.013-.05-.075-.1-.161a26.873,26.873,0,0,1,16.694,5.01c.706.5,1.343,1.1,2.042,1.606.419.306.348.505.013.824-.89.85-1.77,1.713-2.607,2.615-.378.407-.586.4-.975,0A53.362,53.362,0,0,0-687.752,579.268Zm8.806,17.419q-7.134,7.575-14.231,15.185-6.194,6.616-12.387,13.234a4.114,4.114,0,0,1-2.8,1.464,4.11,4.11,0,0,1-3.977-2.43,3.869,3.869,0,0,1,.94-4.459c3.021-2.872,6.074-5.71,9.117-8.558q9.71-9.089,19.411-18.189c.514-.485.774-.477,1.235.03.845.932,1.745,1.817,2.668,2.672C-678.545,596.032-678.544,596.26-678.946,596.687Zm5.11-.79a.962.962,0,0,1-1.578,0q-3.284-3.3-6.592-6.584a.953.953,0,0,1,.015-1.573q3.429-3.4,6.829-6.822a.93.93,0,0,1,1.513-.008q3.316,3.331,6.646,6.647a.981.981,0,0,1,.375.718.989.989,0,0,1-.386.8Q-670.429,592.478-673.835,595.9Zm13.684,16.021c-.526-1.413-.927-2.595-1.4-3.746a31.291,31.291,0,0,0-7.708-10.75c-.458-.435-1.261-.858-1.213-1.383.046-.5.782-.948,1.228-1.4.547-.561,1.133-1.086,1.653-1.669.349-.392.537-.382.886.026a26.837,26.837,0,0,1,6.086,12.505A26.776,26.776,0,0,1-660.152,611.918Z" transform="translate(715.021 -571.673)" fill="#666" stroke="#666" stroke-width="0.9"/>
      <path id="Path_91572" data-name="Path 91572" d="M-630.562,604.819c-4.678,2.029-9.351,4.071-14.038,6.079a3.493,3.493,0,0,0-1.589,1.276c-3,4.341-6.037,8.66-9.039,13a1.221,1.221,0,0,1-1.156.6c-4.139-.024-8.278,0-12.417-.023a1.908,1.908,0,0,0-1.792.967c-2.364,3.657-4.778,7.283-7.152,10.933a1.243,1.243,0,0,1-1.2.661c-4.726-.027-9.453,0-14.178-.027a1.591,1.591,0,0,0-1.595.956q-4.665,8.981-9.364,17.945c-.548,1.049-.449,1.424.505,2.1h74.207a1.041,1.041,0,0,0,.839-.84V605.393C-629.195,604.458-629.508,604.362-630.562,604.819Zm-1.217,52.138q-34.287-.04-68.574-.022h-.821c-.043-.326.153-.513.263-.726,2.589-4.973,5.19-9.94,7.765-14.92a1.032,1.032,0,0,1,1.082-.654c4.644.027,9.288,0,13.932.032a2.028,2.028,0,0,0,1.915-1.051c2.35-3.637,4.751-7.239,7.106-10.872a1.251,1.251,0,0,1,1.215-.643c4.113.024,8.226,0,12.338.028a1.95,1.95,0,0,0,1.8-.95c3.078-4.461,6.194-8.9,9.282-13.351a2.508,2.508,0,0,1,1.139-.917c4.12-1.766,8.229-3.557,12.459-5.391v.961q0,23.754.015,47.506C-630.862,656.7-630.969,656.958-631.779,656.957Z" transform="translate(714.488 -573.326)" fill="#666" stroke="#666" stroke-width="0.9"/>
      <path id="Path_91573" data-name="Path 91573" d="M-657.417,638.474c-.8-.815-1.6-1.642-2.433-2.426a2.465,2.465,0,0,0-3.536.016c-.81.769-1.6,1.563-2.37,2.371a2.483,2.483,0,0,0-.013,3.6q1.156,1.215,2.371,2.37a2.487,2.487,0,0,0,3.6-.024c.808-.771,1.59-1.57,2.373-2.368a2.589,2.589,0,0,0,.741-1.811A2.584,2.584,0,0,0-657.417,638.474Zm-1.838,2.056c-.689.69-1.386,1.373-2.066,2.072-.239.246-.4.179-.611-.036-.661-.678-1.324-1.355-2.012-2.007-.291-.276-.185-.447.043-.67.657-.643,1.306-1.295,1.954-1.949.186-.188.336-.366.607-.086.7.721,1.416,1.422,2.123,2.134a2.08,2.08,0,0,1,.191.271C-659.111,640.362-659.176,640.453-659.254,640.531Z" transform="translate(712.583 -574.872)" fill="#666" stroke="#666" stroke-width="0.9"/>
      <path id="Path_91574" data-name="Path 91574" d="M-638.15,644.882c-.77-.811-1.56-1.606-2.376-2.37a2.527,2.527,0,0,0-3.56.008c-.813.767-1.6,1.563-2.376,2.371a2.5,2.5,0,0,0,.013,3.608c.776.806,1.574,1.592,2.373,2.375a2.469,2.469,0,0,0,1.733.724,2.383,2.383,0,0,0,1.753-.676c.845-.816,1.694-1.631,2.491-2.494A2.475,2.475,0,0,0-638.15,644.882Zm-1.862,2.158c-.65.653-1.312,1.3-1.95,1.961-.251.262-.421.267-.675,0q-.953-1-1.956-1.955c-.3-.283-.264-.481.018-.749.648-.616,1.275-1.254,1.9-1.895.229-.234.409-.338.687-.049.658.684,1.341,1.345,2.011,2.018a4.147,4.147,0,0,1,.265.331C-639.831,646.836-639.916,646.944-640.012,647.04Z" transform="translate(711.613 -575.198)" fill="#666" stroke="#666" stroke-width="0.9"/>
      <path id="Path_91575" data-name="Path 91575" d="M-638.48,624.422c-1.532.027-4.076,2.6-4.079,4.124,0,1.57,2.6,4.169,4.147,4.142,1.478-.027,4.036-2.556,4.09-4.043C-634.263,627.056-636.884,624.394-638.48,624.422Zm.775,5.271c-.523.657-.888.658-1.469.014-1.078-1.193-1.084-1.119-.006-2.3.563-.616.95-.709,1.46,0a8.238,8.238,0,0,0,.821.839c.092.095.167.206.343.426A8.775,8.775,0,0,0-637.705,629.693Z" transform="translate(711.378 -574.325)" fill="#666" stroke="#666" stroke-width="0.9"/>
      <path id="Path_91576" data-name="Path 91576" d="M-681.144,646.968c-1.55-.013-4.134,2.495-4.165,4.044s2.576,4.188,4.14,4.184,4.134-2.622,4.1-4.2C-677.1,649.455-679.6,646.982-681.144,646.968Zm.227,5.692-.368.276c-.257-.3-.492-.618-.766-.9-.972-.986-.977-.981.011-1.971a4.271,4.271,0,0,0,.412-.417c.322-.426.565-.351.927.007C-679.195,651.145-679.2,651.36-680.918,652.66Z" transform="translate(713.527 -575.458)" fill="#666" stroke="#666" stroke-width="0.9"/>
    </g>
  </g>
</svg>
