<svg xmlns="http://www.w3.org/2000/svg" width="86.262" height="86.263" viewBox="0 0 86.262 86.263">
  <g id="ic_manufacturing" transform="translate(0.1 0.1)">
    <path id="Path_28296" data-name="Path 28296" d="M121.681,14.329a1.681,1.681,0,0,0,1.681-1.681V11.263a3.77,3.77,0,0,1,3.749-3.783,3.893,3.893,0,0,1,.39.021,1.681,1.681,0,0,0,1.74-1.075,4.736,4.736,0,0,1,8.862,0A1.682,1.682,0,0,0,139.843,7.5a3.906,3.906,0,0,1,.391-.021,3.77,3.77,0,0,1,3.749,3.783,1.681,1.681,0,0,0,1.681,1.681h12.475a1.681,1.681,0,1,0,0-3.362H147.145a7.135,7.135,0,0,0-6.414-5.446,8.092,8.092,0,0,0-14.118,0A7.139,7.139,0,0,0,120,11.263v1.385a1.681,1.681,0,0,0,1.681,1.681Zm0,0" transform="translate(-99.829 0)" fill="#666" stroke="#666" stroke-width="0.2"/>
    <path id="Path_28297" data-name="Path 28297" d="M383.638,60.366h4.9a1.681,1.681,0,1,0,0-3.362h-4.9a1.681,1.681,0,1,0,0,3.362Zm0,0" transform="translate(-317.753 -47.422)" fill="#666" stroke="#666" stroke-width="0.2"/>
    <path id="Path_28298" data-name="Path 28298" d="M121.681,239.362a1.681,1.681,0,1,0-1.188-.492A1.694,1.694,0,0,0,121.681,239.362Zm0,0" transform="translate(-99.829 -196.331)" fill="#666" stroke="#666" stroke-width="0.2"/>
    <path id="Path_28299" data-name="Path 28299" d="M57.749,392H49.681A1.681,1.681,0,0,0,48,393.681v9.413a1.681,1.681,0,0,0,1.681,1.681h8.068a1.681,1.681,0,0,0,1.681-1.681v-9.413A1.681,1.681,0,0,0,57.749,392Zm-1.681,9.413H51.362v-6.051h4.707Zm0,0" transform="translate(-39.932 -326.108)" fill="#666" stroke="#666" stroke-width="0.2"/>
    <path id="Path_28300" data-name="Path 28300" d="M153.749,392h-8.068A1.681,1.681,0,0,0,144,393.681v9.413a1.681,1.681,0,0,0,1.681,1.681h8.068a1.681,1.681,0,0,0,1.681-1.681v-9.413A1.681,1.681,0,0,0,153.749,392Zm-1.681,9.413h-4.707v-6.051h4.707Zm0,0" transform="translate(-119.795 -326.108)" fill="#666" stroke="#666" stroke-width="0.2"/>
    <path id="Path_28301" data-name="Path 28301" d="M85.025,118.081a1.68,1.68,0,0,0-1.832.364l-9.569,9.569v-8.381a1.681,1.681,0,0,0-2.869-1.189l-9.569,9.57v-8.381a1.681,1.681,0,0,0-2.869-1.188L46.354,130.408H37.988a1.683,1.683,0,0,0-1.68,1.684v15.831H32.946V112.71a1.681,1.681,0,0,0-1.091-1.574l-9.413-3.53a1.681,1.681,0,0,0-2.271,1.574v14.036a1.681,1.681,0,0,0,3.362,0v-11.61l6.051,2.269v34.05H23.533v-9.581a1.681,1.681,0,0,0-3.362,0v9.581H16.809V112.71a1.681,1.681,0,0,0-1.091-1.574l-9.413-3.53a1.681,1.681,0,0,0-2.271,1.574v38.745H1.681A1.681,1.681,0,0,0,0,149.606v24.205a1.681,1.681,0,0,0,1.681,1.681h82.7a1.681,1.681,0,0,0,1.681-1.681V119.634a1.681,1.681,0,0,0-1.037-1.553ZM7.4,111.605l6.051,2.269v34.05H7.4ZM3.362,172.13V151.286H37.989a1.681,1.681,0,0,0,1.681-1.681V133.771H47.05a1.681,1.681,0,0,0,1.188-.492l9.584-9.585v8.381a1.681,1.681,0,0,0,2.869,1.188l9.569-9.569v8.381a1.681,1.681,0,0,0,2.869,1.188l9.569-9.569v16.08H55.134a1.681,1.681,0,0,0,0,3.362H82.7v4.707H55.134a1.681,1.681,0,0,0,0,3.362H82.7v4.707H55.134a1.681,1.681,0,0,0,0,3.362H82.7v4.707H55.134a1.681,1.681,0,0,0,0,3.362H82.7v4.791Zm0,0" transform="translate(0 -89.429)" fill="#666" stroke="#666" stroke-width="0.2"/>
  </g>
</svg>
