<svg id="ic_oil_gas" xmlns="http://www.w3.org/2000/svg" width="86.112" height="82.955" viewBox="0 0 86.112 82.955">
  <g id="Group_162592" data-name="Group 162592" transform="translate(0 0)">
    <g id="Group_162591" data-name="Group 162591" transform="translate(0 0)">
      <path id="Path_28302" data-name="Path 28302" d="M301.582,191.288a1.913,1.913,0,1,0,2.706-.005A1.913,1.913,0,0,0,301.582,191.288Z" transform="translate(-250.395 -160.227)" fill="#666"/>
      <path id="Path_28303" data-name="Path 28303" d="M188.905,191.408a1.913,1.913,0,1,0,2.706,0A1.911,1.911,0,0,0,188.905,191.408Z" transform="translate(-156.667 -160.328)" fill="#666"/>
      <path id="Path_28304" data-name="Path 28304" d="M246.447,58.725a1.914,1.914,0,1,0-1.916-1.912A1.913,1.913,0,0,0,246.447,58.725Z" transform="translate(-203.404 -47.244)" fill="#666"/>
      <path id="Path_28305" data-name="Path 28305" d="M246.551,218.013h.019a1.914,1.914,0,1,0-.01-3.827h-.04a1.914,1.914,0,0,0,.015,3.827Z" transform="translate(-203.48 -179.741)" fill="#666"/>
      <path id="Path_28306" data-name="Path 28306" d="M190.2,82.124a1.913,1.913,0,1,0-1.351-.559A1.9,1.9,0,0,0,190.2,82.124Z" transform="translate(-156.619 -66.708)" fill="#666"/>
      <path id="Path_28307" data-name="Path 28307" d="M326.184,138.232a1.914,1.914,0,1,0-1.918-1.91A1.913,1.913,0,0,0,326.184,138.232Z" transform="translate(-269.728 -113.378)" fill="#666"/>
      <path id="Path_28308" data-name="Path 28308" d="M166.89,134.588a1.914,1.914,0,1,0,1.915,1.912A1.912,1.912,0,0,0,166.89,134.588Z" transform="translate(-137.231 -113.531)" fill="#666"/>
      <path id="Path_28309" data-name="Path 28309" d="M84.2,64.595H60.08a6.374,6.374,0,0,0-6.164-4.784h-.335V52.756a22.963,22.963,0,1,0-21.05,0v7.055H32.2a6.374,6.374,0,0,0-6.164,4.784H1.914A1.914,1.914,0,0,0,0,66.508V85.644a1.914,1.914,0,0,0,1.914,1.914H26.032A6.374,6.374,0,0,0,32.2,92.342h21.72a6.374,6.374,0,0,0,6.164-4.784H84.2a1.914,1.914,0,0,0,1.914-1.914V66.508A1.914,1.914,0,0,0,84.2,64.595ZM25.834,83.731H3.827V68.422H25.834ZM23.92,32.35A19.136,19.136,0,1,1,43.056,51.486,19.158,19.158,0,0,1,23.92,32.35ZM49.754,54.316v5.494h-13.4V54.316a22.987,22.987,0,0,0,13.4,0Zm6.7,12.192V81.53h-6.7a1.914,1.914,0,0,0,0,3.827h6.7v.622a2.538,2.538,0,0,1-2.536,2.536H32.2a2.538,2.538,0,0,1-2.536-2.536V72.919h4.784a1.914,1.914,0,0,0,0-3.827H29.661V66.173A2.538,2.538,0,0,1,32.2,63.638H53.916a2.538,2.538,0,0,1,2.536,2.536v.335ZM82.285,83.731H60.279V68.422H82.285Z" transform="translate(0 -9.387)" fill="#666"/>
      <path id="Path_28310" data-name="Path 28310" d="M245.183,90.918a1.913,1.913,0,0,0,2.706,0l9.43-9.43a1.983,1.983,0,0,0,.023-2.76h0a1.9,1.9,0,0,0-2.871.2l-9.286,9.286A1.914,1.914,0,0,0,245.183,90.918Z" transform="translate(-203.48 -66.602)" fill="#666"/>
      <path id="Path_28311" data-name="Path 28311" d="M246.218,364.373h-3.189a1.914,1.914,0,1,0,0,3.827h3.189a1.914,1.914,0,0,0,0-3.827Z" transform="translate(-200.562 -304.669)" fill="#666"/>
    </g>
  </g>
</svg>
