<svg xmlns="http://www.w3.org/2000/svg" width="86.255" height="58.796" viewBox="0 0 86.255 58.796">
  <g id="ic_transport" transform="translate(687.232 -583.909)">
    <path id="Path_91705" data-name="Path 91705" d="M-687.233,739.253a2.263,2.263,0,0,1,2.288-1.323c6.76.015,13.52.005,20.28.015a2.949,2.949,0,0,1,1.153.17,1.633,1.633,0,0,1,1.052,1.741,1.636,1.636,0,0,1-1.329,1.533,3.272,3.272,0,0,1-.835.064c-6.788,0-13.577-.011-20.365.016a2.157,2.157,0,0,1-2.246-1.374Z" transform="translate(0 -120.208)" fill="#666"/>
    <path id="Path_91706" data-name="Path 91706" d="M-622.677,583.91h21.56c2.055,0,2.568.52,2.568,2.6,0,1.6.024,3.2-.013,4.8-.013.552.142.7.692.692,4.464-.023,8.927,0,13.391-.023a3.457,3.457,0,0,1,2.376.842q5.842,4.891,11.735,9.719a2.443,2.443,0,0,1,.962,2.034q-.082,12.969-.157,25.939a1.783,1.783,0,0,1-2.017,2.024c-1.039.014-2.078.018-3.116,0a1.8,1.8,0,0,1-1.924-1.7,1.837,1.837,0,0,1,1.759-1.792c.055-.007.112,0,.168-.012.538-.078,1.262.27,1.573-.182.252-.366.074-1.032.077-1.566q.057-10.78.121-21.56a1.36,1.36,0,0,0-.554-1.2q-5.209-4.268-10.373-8.591a1.746,1.746,0,0,0-1.212-.441c-4.239.016-8.478.025-12.717-.007-.657-.005-.773.2-.772.8q.028,16,0,32c0,.709.236.839.857.806.84-.046,1.685-.037,2.526,0a1.743,1.743,0,0,1,1.9,1.793,1.719,1.719,0,0,1-1.918,1.686q-10.528.022-21.055,0a1.755,1.755,0,0,1-1.937-1.763c.018-1.038.8-1.714,2.072-1.718,4.379-.014,8.759-.022,13.138.011.71.005.937-.125.935-.9q-.043-19.96,0-39.92c0-.69-.161-.879-.869-.878q-19.749.035-39.5,0c-.692,0-.892.175-.885.875.037,3.256.021,6.513.014,9.769,0,1.219-.41,1.9-1.245,2.137a1.684,1.684,0,0,1-2.2-1.439c-.073-.723-.044-1.457-.045-2.187q-.005-5.18,0-10.359c0-1.662.615-2.28,2.284-2.281Q-633.584,583.9-622.677,583.91Z" transform="translate(-31.573 0)" fill="#666"/>
    <path id="Path_91707" data-name="Path 91707" d="M-642.181,664.848c3.451,0,6.9-.009,10.352,0,1.474.006,2.344,1.1,1.9,2.343a1.926,1.926,0,0,1-2.032,1.167c-1.768.011-3.535,0-5.3,0q-7.533,0-15.066,0c-1.192,0-1.926-.415-2.178-1.207a1.763,1.763,0,0,1,1.884-2.3c2.665-.017,5.33-.005,8-.005Z" transform="translate(-25.472 -63.167)" fill="#666"/>
    <path id="Path_91708" data-name="Path 91708" d="M-658.379,701.232q5.009,0,10.019,0a4.2,4.2,0,0,1,1.081.106,1.644,1.644,0,0,1,1.221,1.7,1.625,1.625,0,0,1-1.267,1.584,4.406,4.406,0,0,1-1.079.118q-10.145-.057-20.289-.131c-1.57-.011-2.447-1.012-2.037-2.309.25-.79.952-1.206,2.08-1.208q5.135-.006,10.271,0Z" transform="translate(-12.802 -91.46)" fill="#666"/>
    <path id="Path_91709" data-name="Path 91709" d="M-646.784,765.422c0-1.038-.022-2.077.007-3.114a1.747,1.747,0,0,1,1.74-1.87,1.734,1.734,0,0,1,1.728,1.8c.054,1.317.04,2.637.012,3.955-.011.507.123.7.657.674.868-.042,1.74-.029,2.609-.006,1.237.032,2.046.755,2.023,1.773a1.8,1.8,0,0,1-2,1.711c-1.6.021-3.2.024-4.8,0a1.766,1.766,0,0,1-1.977-1.973C-646.8,767.387-646.786,766.4-646.784,765.422Z" transform="translate(-31.563 -137.775)" fill="#666"/>
    <path id="Path_91710" data-name="Path 91710" d="M-393.292,664.8a2.639,2.639,0,0,0-.962-2.128q-2.308-2.024-4.565-4.107a2.613,2.613,0,0,0-1.887-.748c-2.748.023-5.5,0-8.245.011-1.515,0-2.137.631-2.142,2.145-.008,2.244,0,4.487,0,6.731,0,2.271,0,4.543,0,6.815,0,1.575.621,2.2,2.189,2.2q6.689.007,13.377,0c1.6,0,2.222-.629,2.227-2.252C-393.292,670.581-393.309,667.692-393.292,664.8Zm-3.5,6.789c.006.47-.121.622-.607.619q-4.8-.03-9.6,0c-.478,0-.612-.132-.6-.607.029-1.627.011-3.255.011-4.882,0-1.571.019-3.143-.011-4.714-.01-.526.1-.738.686-.725,1.767.041,3.536.023,5.3.008a1.313,1.313,0,0,1,.981.362q1.638,1.514,3.315,2.984a1.358,1.358,0,0,1,.525,1.148C-396.816,667.72-396.811,669.656-396.788,671.592Z" transform="translate(-215.514 -57.685)" fill="#666"/>
    <path id="Path_91711" data-name="Path 91711" d="M-589.483,779.908a7.947,7.947,0,0,0-8.106,7.728,7.951,7.951,0,0,0,7.81,8.029,7.867,7.867,0,0,0,7.946-7.776A7.865,7.865,0,0,0-589.483,779.908Zm-.166,12.27a4.5,4.5,0,0,1-4.441-4.373,4.449,4.449,0,0,1,4.4-4.394,4.38,4.38,0,0,1,4.372,4.393A4.431,4.431,0,0,1-589.649,792.177Z" transform="translate(-69.961 -152.967)" fill="#666"/>
    <path id="Path_91712" data-name="Path 91712" d="M-394.19,779.9a7.919,7.919,0,0,0-8.062,7.78,7.917,7.917,0,0,0,7.862,7.985,7.9,7.9,0,0,0,7.909-7.743A7.882,7.882,0,0,0-394.19,779.9Zm-.09,12.275a4.548,4.548,0,0,1-4.484-4.435,4.5,4.5,0,0,1,4.476-4.338A4.329,4.329,0,0,1-390,787.775,4.374,4.374,0,0,1-394.281,792.176Z" transform="translate(-222.417 -152.964)" fill="#666"/>
  </g>
</svg>
