<?xml version="1.0" encoding="UTF-8"?>
<!-- Creator: CorelDRAW X8 -->
<svg xmlns="http://www.w3.org/2000/svg" xmlns:xlink="http://www.w3.org/1999/xlink" xml:space="preserve" width="43.7539mm" height="37.1446mm" version="1.1" style="shape-rendering:geometricPrecision; text-rendering:geometricPrecision; image-rendering:optimizeQuality; fill-rule:evenodd; clip-rule:evenodd" viewBox="0 0 226 192">
 <defs>
  <style type="text/css">
   <![CDATA[
    .fil0 {fill:#1B92F3}
   ]]>
  </style>
 </defs>
 <g id="Layer_x0020_1">
  <metadata id="CorelCorpID_0Corel-Layer"></metadata>
  <path class="fil0" d="M26 101l22 0 0 8 -18 0 0 64c0,2 1,4 3,4l8 0 0 -30c0,-2 2,-4 4,-4l23 0c2,0 4,2 4,4l0 30 7 0 0 -49c0,-2 2,-4 4,-4l22 0c2,0 4,2 4,4l0 49 8 0 0 -68c0,-3 1,-4 3,-4l23 0c2,0 4,1 4,4l0 68 7 0 0 -91c0,-2 2,-3 4,-3l23 0c2,0 3,1 3,3l0 15c19,-2 34,-18 34,-38 0,-20 -17,-37 -37,-37l-3 0c-1,0 -3,-1 -3,-3 -5,-13 -19,-23 -34,-23 -14,0 -26,8 -33,20 0,2 -1,3 -2,3 -2,0 -3,0 -4,-1 -6,-7 -15,-11 -25,-11 -20,0 -36,16 -36,35l0 14c0,2 -1,3 -3,3l-12 0c-10,0 -18,9 -18,20 0,10 8,18 18,18l0 0 0 0zm177 -26l-7 0 0 -7 7 0 0 7zm-22 -37c12,0 22,10 22,22l-7 0c0,-8 -7,-15 -15,-15l0 -7zm-125 37c0,-1 1,-2 1,-3 1,0 2,-1 3,-1l22 1c20,2 39,-7 50,-24l-4 0c-2,0 -3,0 -4,-2 0,-2 0,-3 2,-4l26 -19c1,0 2,-1 4,0 1,0 2,1 2,2l7 30c1,2 0,3 -1,4 -2,1 -3,1 -4,0l-7 -4 0 1c-6,29 -32,50 -61,51l-32 2c0,0 0,0 0,0 -1,0 -2,-1 -3,-1 0,-1 -1,-2 -1,-3l0 -30z"></path>
  <polygon class="fil0" points="124,113 139,113 139,177 124,177 "></polygon>
  <path class="fil0" d="M145 55l2 -7c0,-2 1,-2 2,-3 1,-1 2,0 3,1l4 2 -4 -16 -13 9c2,0 3,1 4,2 0,1 0,3 0,3 -13,22 -37,36 -62,34l-18 -1 0 22 28 -1c27,-2 49,-20 54,-45z"></path>
  <polygon class="fil0" points="162,90 177,90 177,177 162,177 "></polygon>
  <polygon class="fil0" points="87,132 102,132 102,177 87,177 "></polygon>
  <polygon class="fil0" points="48,150 63,150 63,177 48,177 "></polygon>
  <polygon class="fil0" points="0,184 226,184 226,192 0,192 "></polygon>
 </g>
</svg>
