<?xml version="1.0" encoding="UTF-8"?>
<svg xmlns="http://www.w3.org/2000/svg" xmlns:xlink="http://www.w3.org/1999/xlink" id="svg" version="1.1" width="400" height="393.84615384615387" viewBox="0, 0, 400,393.84615384615387">
  <g id="svgg">
    <path id="path0" d="M0.000 197.044 L 0.000 394.089 200.000 394.089 L 400.000 394.089 400.000 197.044 L 400.000 0.000 200.000 0.000 L 0.000 0.000 0.000 197.044 M206.502 94.987 C 207.478 95.191,210.344 95.613,212.873 95.924 C 215.473 96.244,217.878 96.757,218.410 97.105 C 218.927 97.444,220.913 98.025,222.825 98.397 C 226.680 99.147,226.384 99.253,227.852 96.600 C 228.905 94.699,232.074 95.956,232.142 98.302 C 232.154 98.748,232.868 100.355,233.726 101.872 C 238.208 109.790,237.936 110.484,229.951 111.496 C 228.217 111.716,226.179 112.079,225.421 112.303 C 221.786 113.376,220.106 112.720,220.886 110.529 C 222.538 105.891,221.946 105.602,206.700 103.604 C 203.156 103.139,196.731 103.431,192.771 104.236 C 191.328 104.530,188.906 104.888,187.389 105.032 C 185.872 105.177,184.010 105.606,183.251 105.985 C 182.493 106.365,180.897 106.801,179.704 106.953 C 178.512 107.106,176.739 107.640,175.764 108.141 C 174.788 108.641,173.343 109.169,172.552 109.314 C 171.761 109.459,170.904 109.830,170.648 110.138 C 170.393 110.446,169.548 110.908,168.771 111.165 C 166.040 112.066,159.173 115.575,157.457 116.946 C 156.846 117.433,156.016 117.833,155.612 117.833 C 155.208 117.833,154.877 118.005,154.877 118.216 C 154.877 118.428,154.352 118.872,153.711 119.203 C 153.069 119.535,152.117 120.205,151.593 120.691 C 151.070 121.178,149.992 122.020,149.197 122.562 C 146.499 124.400,144.833 125.686,142.703 127.574 C 138.467 131.329,129.655 140.364,129.655 140.951 C 129.655 141.075,129.167 141.761,128.571 142.475 C 127.975 143.188,127.044 144.416,126.502 145.203 C 125.961 145.990,125.030 147.271,124.433 148.051 C 123.837 148.830,123.350 149.710,123.350 150.005 C 123.350 150.300,123.201 150.542,123.018 150.542 C 122.836 150.542,122.210 151.384,121.627 152.414 C 121.045 153.443,120.414 154.552,120.226 154.877 C 119.914 155.418,118.856 157.665,116.688 162.389 C 116.235 163.377,115.579 165.151,115.232 166.330 C 114.884 167.508,114.435 168.674,114.235 168.920 C 114.035 169.166,113.613 170.831,113.299 172.621 C 112.984 174.411,112.456 176.289,112.125 176.794 C 110.540 179.212,110.554 204.367,112.141 206.790 C 112.479 207.306,113.009 209.050,113.318 210.667 C 113.627 212.284,114.137 214.003,114.451 214.488 C 114.766 214.973,115.231 216.206,115.486 217.229 C 115.741 218.252,116.196 219.294,116.497 219.544 C 118.183 220.943,117.352 222.269,110.373 229.319 C 103.786 235.975,103.136 236.447,101.660 235.657 C 100.926 235.264,98.128 229.968,98.128 228.971 C 98.128 228.694,97.771 227.890,97.335 227.183 C 96.898 226.477,96.356 224.897,96.129 223.672 C 95.903 222.447,95.383 220.876,94.975 220.181 C 94.509 219.386,94.138 217.744,93.977 215.764 C 93.837 214.030,93.428 211.458,93.068 210.049 C 92.246 206.831,92.122 192.518,92.897 190.411 C 93.163 189.688,93.579 187.117,93.821 184.696 C 94.096 181.951,94.555 179.671,95.040 178.636 C 95.469 177.723,95.972 175.892,96.160 174.567 C 96.347 173.241,96.779 171.732,97.119 171.213 C 97.459 170.693,97.929 169.374,98.164 168.281 C 98.398 167.188,98.828 166.056,99.119 165.765 C 99.410 165.474,99.770 164.584,99.919 163.787 C 100.069 162.990,100.614 161.715,101.130 160.954 C 101.646 160.193,102.069 159.396,102.069 159.182 C 102.069 158.648,103.029 156.646,104.416 154.286 C 105.052 153.202,105.861 151.715,106.213 150.981 C 106.565 150.248,107.170 149.184,107.557 148.617 C 107.945 148.050,108.597 147.072,109.008 146.444 C 109.418 145.815,110.020 144.922,110.345 144.459 C 110.670 143.996,111.291 143.009,111.724 142.265 C 112.158 141.521,113.000 140.437,113.596 139.855 C 114.192 139.273,114.680 138.644,114.680 138.456 C 114.680 138.269,115.567 137.146,116.650 135.961 C 117.734 134.776,118.621 133.686,118.621 133.540 C 118.621 133.144,127.165 124.609,129.610 122.562 C 130.775 121.586,132.193 120.391,132.761 119.907 C 136.118 117.040,139.749 114.286,140.172 114.286 C 140.442 114.286,140.851 113.933,141.081 113.502 C 141.312 113.071,141.939 112.609,142.474 112.474 C 143.010 112.340,143.448 112.062,143.448 111.856 C 143.448 111.651,144.223 111.140,145.170 110.721 C 146.116 110.303,147.113 109.693,147.384 109.366 C 147.655 109.039,148.565 108.566,149.406 108.314 C 150.248 108.062,150.936 107.715,150.936 107.543 C 150.936 107.371,152.488 106.489,154.384 105.583 C 156.281 104.677,158.710 103.516,159.782 103.002 C 160.854 102.489,161.986 102.069,162.297 102.069 C 162.608 102.069,163.416 101.736,164.091 101.329 C 164.767 100.922,166.030 100.463,166.897 100.310 C 167.764 100.157,169.005 99.710,169.655 99.316 C 170.305 98.922,172.047 98.415,173.525 98.189 C 175.003 97.963,176.954 97.428,177.860 97.000 C 178.895 96.512,181.118 96.067,183.842 95.802 C 186.227 95.571,188.975 95.224,189.951 95.031 C 192.348 94.556,204.295 94.525,206.502 94.987 M268.268 102.976 C 268.724 103.432,268.984 104.616,269.139 106.952 C 269.260 108.782,269.448 110.338,269.557 110.411 C 272.340 112.266,275.284 112.816,276.552 111.717 C 281.356 107.552,281.946 107.500,285.320 110.945 C 286.729 112.383,288.281 113.932,288.768 114.388 C 289.970 115.510,289.897 117.123,288.571 118.705 C 285.246 122.678,284.985 123.846,286.771 126.757 L 287.946 128.670 291.229 128.945 C 295.694 129.318,295.738 129.376,295.873 135.087 C 296.030 141.663,296.039 141.651,290.025 142.448 C 286.947 142.856,284.068 148.295,286.220 149.636 C 288.911 151.311,290.177 155.245,288.571 156.941 C 281.791 164.100,282.246 163.998,276.588 159.627 C 275.113 158.488,273.252 158.616,271.034 160.008 L 269.163 161.184 269.163 164.260 C 269.163 168.836,269.157 168.840,262.780 168.994 C 256.447 169.148,256.377 169.105,255.776 164.709 C 255.005 159.065,251.405 157.344,247.146 160.582 C 242.924 163.794,241.910 163.517,237.084 157.827 C 234.454 154.727,234.563 154.030,238.325 149.902 C 239.535 148.575,239.495 146.525,238.227 144.863 C 237.685 144.152,237.241 143.383,237.241 143.152 C 237.241 142.922,236.310 142.621,235.172 142.484 C 228.842 141.717,228.966 141.856,228.966 135.522 C 228.966 129.491,229.132 129.258,233.692 128.917 L 236.992 128.670 238.273 126.502 C 239.966 123.641,239.893 123.327,236.563 119.063 C 234.368 116.253,234.648 115.496,239.623 110.800 C 242.200 108.368,243.137 108.037,244.656 109.023 C 245.275 109.425,246.431 110.170,247.225 110.679 C 248.020 111.188,248.670 111.765,248.670 111.960 C 248.670 112.833,251.914 112.290,253.592 111.136 C 255.395 109.896,255.526 109.588,255.989 105.529 C 256.364 102.236,256.724 102.074,263.366 102.228 C 266.697 102.305,267.759 102.467,268.268 102.976 M259.147 122.508 C 259.031 122.695,258.125 123.075,257.133 123.353 C 255.335 123.856,250.640 127.968,250.640 129.039 C 250.640 129.286,250.255 130.191,249.783 131.050 C 248.643 133.126,248.489 138.595,249.542 139.647 C 249.913 140.018,250.395 140.970,250.614 141.761 C 251.012 143.202,254.937 147.385,255.898 147.393 C 256.149 147.395,257.241 147.833,258.325 148.366 C 265.568 151.929,275.862 144.550,275.862 135.796 C 275.862 133.862,274.509 129.114,273.685 128.158 C 270.927 124.959,269.841 124.147,266.879 123.070 C 264.365 122.155,259.579 121.808,259.147 122.508 M301.084 159.212 C 301.517 159.645,301.872 160.189,301.872 160.419 C 301.872 160.839,303.688 164.907,305.027 167.488 C 305.421 168.246,305.930 169.883,306.157 171.124 C 306.385 172.365,306.833 173.784,307.153 174.277 C 307.475 174.772,307.941 177.111,308.196 179.507 C 308.449 181.892,308.824 184.158,309.028 184.543 C 310.200 186.754,310.202 202.184,309.031 204.427 C 308.831 204.810,308.455 207.251,308.195 209.852 C 307.935 212.453,307.488 214.947,307.201 215.395 C 306.914 215.842,306.405 217.660,306.070 219.435 C 305.735 221.210,305.186 223.056,304.849 223.537 C 304.512 224.018,304.236 224.778,304.236 225.226 C 304.236 225.674,303.868 226.743,303.418 227.601 C 302.967 228.460,302.328 230.045,301.996 231.124 C 301.665 232.203,301.058 233.513,300.648 234.034 C 300.237 234.556,299.901 235.403,299.901 235.915 C 299.901 236.428,299.562 237.187,299.146 237.602 C 298.731 238.018,298.026 239.126,297.580 240.065 C 297.134 241.005,296.587 242.039,296.364 242.365 C 296.142 242.690,295.779 243.399,295.558 243.941 C 295.159 244.920,294.084 246.625,291.823 249.864 C 291.172 250.796,290.286 252.118,289.852 252.804 C 289.419 253.489,288.753 254.391,288.372 254.808 C 287.992 255.225,286.238 257.340,284.476 259.507 C 281.347 263.355,271.720 273.103,271.049 273.103 C 270.864 273.103,270.113 273.680,269.379 274.384 C 267.549 276.143,265.956 277.456,264.239 278.621 C 263.440 279.163,262.203 280.094,261.489 280.690 C 260.776 281.286,260.015 281.773,259.799 281.773 C 259.583 281.773,259.166 282.064,258.872 282.418 C 258.577 282.773,257.622 283.370,256.749 283.744 C 255.876 284.118,254.920 284.715,254.626 285.069 C 254.332 285.424,253.871 285.714,253.603 285.714 C 253.334 285.714,252.488 286.140,251.721 286.660 C 250.955 287.180,249.936 287.730,249.458 287.882 C 248.980 288.034,247.962 288.583,247.195 289.103 C 246.428 289.624,245.495 290.049,245.121 290.049 C 244.747 290.049,244.012 290.387,243.488 290.799 C 242.963 291.212,241.784 291.752,240.867 291.999 C 239.950 292.245,238.626 292.774,237.925 293.173 C 237.224 293.572,235.884 294.012,234.947 294.151 C 234.010 294.289,232.769 294.736,232.188 295.144 C 231.608 295.551,230.214 295.995,229.092 296.130 C 227.969 296.264,226.242 296.732,225.255 297.169 C 224.188 297.641,221.896 298.108,219.611 298.321 C 217.495 298.518,215.054 298.909,214.187 299.191 C 211.958 299.917,195.032 299.911,193.103 299.185 C 192.345 298.899,190.085 298.504,188.081 298.308 C 185.898 298.095,184.038 297.690,183.442 297.300 C 182.406 296.621,178.300 295.604,176.496 295.580 C 175.643 295.569,175.340 295.853,174.819 297.156 C 173.681 300.000,170.965 299.302,169.852 295.879 C 169.527 294.879,168.951 293.720,168.571 293.305 C 168.192 292.889,167.882 292.276,167.882 291.943 C 167.882 291.610,167.523 290.882,167.085 290.325 C 163.695 286.016,165.015 283.351,170.837 282.749 C 172.355 282.592,174.909 282.131,176.513 281.725 C 180.745 280.654,183.209 281.321,181.904 283.184 C 179.668 286.377,181.324 288.599,186.278 289.049 C 187.973 289.204,190.657 289.574,192.242 289.872 C 197.010 290.770,200.593 290.947,203.941 290.449 C 205.675 290.191,209.588 289.666,212.637 289.283 C 215.837 288.880,218.587 288.327,219.140 287.975 C 219.667 287.640,221.205 287.243,222.557 287.093 C 224.019 286.931,225.399 286.518,225.962 286.075 C 226.483 285.665,227.860 285.131,229.021 284.888 C 230.183 284.645,231.488 284.131,231.921 283.746 C 232.355 283.361,233.153 282.926,233.695 282.780 C 234.733 282.499,238.601 280.780,239.606 280.152 C 239.931 279.949,240.943 279.428,241.856 278.994 C 242.768 278.559,243.633 278.012,243.778 277.777 C 243.924 277.541,244.794 277.017,245.713 276.610 C 246.632 276.204,247.606 275.603,247.878 275.276 C 248.150 274.948,248.549 274.680,248.765 274.680 C 248.980 274.680,249.741 274.192,250.455 273.596 C 251.169 273.000,252.400 272.069,253.191 271.527 C 255.361 270.041,256.516 269.111,258.167 267.522 C 258.992 266.728,260.274 265.615,261.017 265.049 C 263.277 263.325,270.739 255.546,270.739 254.914 C 270.739 254.760,271.067 254.530,271.467 254.403 C 271.868 254.276,272.400 253.776,272.649 253.293 C 272.899 252.809,273.720 251.616,274.475 250.640 C 275.229 249.665,276.140 248.335,276.499 247.685 C 276.858 247.034,277.395 246.360,277.693 246.185 C 277.990 246.011,278.506 245.301,278.839 244.609 C 279.172 243.916,279.961 242.463,280.592 241.379 C 281.224 240.296,282.191 238.522,282.742 237.438 C 283.292 236.355,283.916 235.202,284.127 234.877 C 284.339 234.552,285.061 232.778,285.732 230.936 C 286.404 229.094,287.301 226.867,287.727 225.988 C 288.153 225.109,288.692 223.158,288.926 221.653 C 289.159 220.148,289.721 218.207,290.174 217.340 C 291.483 214.835,291.465 190.364,290.152 187.389 C 289.673 186.305,289.106 184.287,288.891 182.903 C 288.676 181.519,288.245 180.101,287.934 179.750 C 287.623 179.400,287.143 178.315,286.867 177.340 C 286.592 176.365,286.131 175.287,285.843 174.944 C 284.285 173.091,284.934 172.033,291.921 165.035 C 298.854 158.093,299.533 157.661,301.084 159.212 M234.218 179.679 C 236.231 180.147,236.227 180.139,236.453 183.381 L 236.650 186.207 239.009 186.328 C 242.345 186.499,242.759 186.983,242.759 190.725 C 242.759 194.473,242.440 194.907,239.454 195.234 C 236.373 195.571,236.453 195.472,236.458 198.940 C 236.466 204.722,237.448 206.504,240.105 205.553 C 242.735 204.613,245.889 212.368,243.347 213.526 C 239.378 215.334,232.194 214.679,229.215 212.238 C 226.470 209.989,225.724 207.807,225.506 201.379 C 225.319 195.874,225.093 195.074,223.727 195.074 C 222.030 195.074,221.478 194.000,221.478 190.701 C 221.478 187.390,221.551 187.263,223.842 186.590 C 225.191 186.194,225.226 186.132,225.419 183.774 C 225.629 181.195,226.417 179.878,227.923 179.583 C 229.487 179.277,232.697 179.326,234.218 179.679 M149.116 185.425 C 149.741 185.751,150.973 186.132,151.853 186.273 C 152.773 186.420,153.818 186.922,154.309 187.452 C 154.780 187.959,155.333 188.374,155.539 188.374 C 156.435 188.374,158.424 191.234,158.424 192.522 C 158.424 193.925,156.983 195.468,155.672 195.468 C 155.301 195.468,154.601 195.812,154.117 196.232 C 152.581 197.564,150.914 197.690,149.932 196.548 C 149.168 195.659,147.591 194.759,145.731 194.149 C 144.963 193.898,141.478 195.708,141.478 196.357 C 141.478 196.593,141.197 197.095,140.854 197.475 C 139.085 199.429,141.050 204.662,143.742 205.167 C 146.189 205.626,148.658 205.041,149.657 203.765 C 150.670 202.470,152.551 202.440,154.483 203.686 C 155.025 204.036,156.133 204.626,156.946 204.999 C 159.831 206.321,158.756 209.293,154.151 212.726 C 150.521 215.431,140.178 215.063,135.707 212.070 C 133.447 210.557,130.837 207.647,130.837 206.640 C 130.837 206.361,130.459 205.407,129.997 204.521 C 128.813 202.248,128.813 197.498,129.997 195.176 C 130.459 194.270,130.837 193.268,130.837 192.950 C 130.837 192.632,131.458 191.713,132.217 190.909 C 132.975 190.105,133.596 189.294,133.596 189.107 C 133.596 188.921,133.829 188.768,134.113 188.768 C 134.397 188.768,134.985 188.438,135.418 188.034 C 136.568 186.962,137.522 186.531,139.441 186.213 C 140.380 186.057,141.621 185.683,142.200 185.381 C 143.597 184.652,147.684 184.678,149.116 185.425 M180.154 185.607 C 181.099 186.036,182.331 186.391,182.892 186.395 C 185.319 186.416,190.731 191.754,191.293 194.680 C 191.438 195.438,191.747 196.799,191.979 197.703 C 192.571 200.011,191.385 206.190,190.080 207.598 C 189.575 208.143,189.163 208.798,189.163 209.056 C 189.163 209.559,186.288 212.020,185.700 212.020 C 185.504 212.020,185.026 212.371,184.638 212.800 C 184.249 213.229,183.291 213.681,182.507 213.804 C 181.724 213.926,180.020 214.205,178.719 214.423 C 171.833 215.578,161.576 210.912,161.576 206.624 C 161.576 206.323,161.177 205.537,160.690 204.877 C 159.542 203.324,159.373 196.436,160.453 195.204 C 160.801 194.807,161.450 193.685,161.897 192.709 C 162.671 191.019,164.409 188.768,164.941 188.768 C 165.079 188.768,165.930 188.251,166.832 187.618 C 167.735 186.986,169.182 186.354,170.049 186.215 C 170.916 186.076,172.069 185.713,172.611 185.408 C 174.094 184.576,178.115 184.682,180.154 185.607 M212.499 185.382 C 213.427 185.687,215.150 186.136,216.328 186.379 C 219.379 187.008,220.657 189.037,219.028 190.666 C 218.765 190.930,218.188 191.897,217.747 192.814 C 216.825 194.735,215.597 195.123,213.642 194.112 C 212.301 193.419,205.923 193.234,205.526 193.878 C 205.004 194.723,208.258 196.147,211.633 196.549 C 218.549 197.375,221.601 201.199,220.309 207.422 C 219.935 209.226,219.569 209.852,218.204 211.029 C 215.178 213.637,215.395 213.542,210.944 214.211 C 206.190 214.925,197.603 214.161,195.862 212.869 C 193.835 211.364,194.754 206.131,197.244 204.997 C 198.187 204.567,201.112 205.072,202.085 205.833 C 202.836 206.421,206.468 206.911,208.118 206.648 C 209.506 206.426,209.541 206.380,209.138 205.312 C 208.679 204.098,207.676 203.750,204.581 203.734 C 202.147 203.722,199.979 203.188,199.201 202.410 C 198.851 202.060,198.340 201.773,198.066 201.773 C 194.904 201.773,193.369 193.464,195.896 190.028 C 196.565 189.119,197.249 188.374,197.415 188.374 C 197.581 188.374,198.176 187.949,198.737 187.429 C 199.371 186.842,200.475 186.384,201.652 186.220 C 202.694 186.074,203.990 185.708,204.532 185.405 C 205.821 184.686,210.339 184.673,212.499 185.382 M264.628 185.392 C 265.371 185.703,266.829 186.080,267.867 186.231 C 271.646 186.779,272.333 188.974,269.899 192.731 C 268.374 195.084,267.935 195.262,266.100 194.279 C 264.970 193.673,263.888 193.499,261.287 193.504 C 257.784 193.510,256.070 193.982,257.548 194.533 C 257.975 194.693,258.768 195.131,259.310 195.507 C 259.915 195.926,261.706 196.348,263.942 196.598 C 270.990 197.388,274.947 202.922,272.281 208.260 C 269.660 213.508,263.843 215.398,254.045 214.185 C 251.427 213.861,249.241 213.596,249.188 213.596 C 248.771 213.596,246.305 211.031,246.305 210.598 C 246.305 210.295,246.660 209.385,247.094 208.576 C 247.527 207.767,247.882 206.814,247.882 206.458 C 247.882 204.813,252.113 204.397,254.316 205.824 C 256.425 207.191,262.148 207.088,261.783 205.689 C 261.441 204.382,260.537 204.025,256.769 203.707 C 248.607 203.018,244.553 197.805,247.389 191.645 C 248.779 188.625,250.693 186.948,253.410 186.365 C 254.560 186.118,256.048 185.678,256.716 185.387 C 258.332 184.684,262.939 184.687,264.628 185.392 M174.105 194.815 C 168.212 198.439,170.658 206.109,177.419 205.202 C 179.516 204.921,179.945 204.418,180.526 201.563 C 181.619 196.186,178.023 192.406,174.105 194.815 M145.384 225.778 C 145.906 226.300,146.216 227.355,146.397 229.226 C 146.740 232.782,146.664 232.627,148.757 234.040 C 151.441 235.851,152.594 235.631,155.687 232.719 C 158.232 230.323,159.803 230.763,163.934 235.029 C 166.947 238.141,167.235 238.593,166.945 239.750 C 166.711 240.683,164.075 244.320,163.251 244.847 C 160.363 246.695,165.312 251.823,169.983 251.823 C 172.452 251.823,173.067 252.749,173.299 256.820 C 173.678 263.470,173.006 265.222,170.076 265.222 C 165.832 265.222,165.000 265.542,163.836 267.627 C 162.554 269.923,162.484 271.072,163.548 272.351 C 168.445 278.241,168.624 277.380,160.914 284.988 C 159.534 286.350,158.024 286.034,155.109 283.771 C 152.101 281.437,151.457 281.357,148.898 282.999 C 146.890 284.287,146.795 284.486,146.389 288.276 C 145.995 291.937,145.844 292.020,139.495 292.020 C 132.998 292.020,133.127 292.110,132.882 287.430 C 132.727 284.474,132.608 284.039,131.870 283.738 C 131.411 283.550,130.502 283.033,129.852 282.588 C 128.355 281.563,126.891 281.554,125.678 282.563 C 120.240 287.084,120.265 287.085,115.326 282.052 C 111.814 278.475,111.381 276.623,113.668 274.957 C 114.225 274.552,114.680 273.919,114.680 273.552 C 114.680 273.185,115.034 272.581,115.468 272.210 C 116.471 271.351,116.471 269.929,115.469 268.285 C 115.037 267.576,114.682 266.709,114.681 266.359 C 114.680 265.679,112.548 265.222,109.380 265.222 C 106.381 265.222,106.207 264.864,106.207 258.717 C 106.207 252.586,106.571 251.825,109.502 251.820 C 114.487 251.813,117.843 247.507,115.369 244.292 C 114.882 243.658,114.083 242.628,113.594 242.003 C 111.938 239.885,112.029 238.847,114.095 236.311 C 117.922 231.613,120.179 230.427,122.365 231.966 C 122.798 232.271,123.818 232.964,124.631 233.507 C 125.443 234.049,126.108 234.668,126.108 234.882 C 126.108 235.096,126.818 235.271,127.685 235.271 C 128.552 235.271,129.261 235.129,129.261 234.955 C 129.261 234.782,130.059 234.252,131.034 233.778 L 132.808 232.917 132.808 230.643 C 132.808 228.057,133.346 225.821,134.081 225.354 C 135.230 224.625,144.581 224.975,145.384 225.778 M137.340 244.989 C 136.906 245.108,136.286 245.435,135.961 245.716 C 135.635 245.997,134.605 246.454,133.671 246.730 C 132.737 247.006,131.807 247.544,131.603 247.924 C 131.399 248.305,130.877 248.729,130.444 248.867 C 130.010 249.005,129.655 249.315,129.655 249.558 C 129.655 249.800,129.302 250.375,128.869 250.835 C 126.873 252.960,125.713 258.366,126.672 261.071 C 126.982 261.945,127.338 263.140,127.464 263.727 C 127.589 264.314,128.128 265.265,128.661 265.840 C 129.194 266.415,129.736 267.221,129.866 267.630 C 129.996 268.039,130.280 268.374,130.496 268.374 C 130.713 268.374,131.502 268.841,132.249 269.411 C 135.826 272.139,143.467 272.184,147.011 269.498 C 149.263 267.792,151.305 265.430,151.560 264.236 C 151.700 263.586,152.169 262.265,152.603 261.301 C 153.487 259.337,153.385 256.489,152.375 254.895 C 152.059 254.397,151.683 253.420,151.538 252.724 C 151.186 251.036,147.384 247.238,145.536 246.728 C 144.770 246.516,143.823 246.053,143.431 245.698 C 142.696 245.034,138.828 244.583,137.340 244.989 " stroke="none" fill="#fbfbfb" fill-rule="evenodd"></path>
    <path id="path1" d="M99.310 171.009 C 99.310 172.781,98.739 174.518,97.952 175.140 C 97.649 175.380,97.224 177.022,96.981 178.889 C 96.744 180.716,96.273 182.632,95.936 183.147 C 94.228 185.753,94.220 213.838,95.926 216.444 C 96.248 216.937,96.731 218.670,96.999 220.296 C 97.267 221.921,97.706 223.473,97.976 223.744 C 98.246 224.015,98.671 225.257,98.922 226.503 C 99.172 227.749,99.643 228.976,99.967 229.230 C 100.292 229.483,100.783 230.455,101.059 231.389 C 102.013 234.621,102.685 234.329,109.115 227.887 L 114.782 222.210 114.519 219.972 C 114.355 218.576,113.891 217.207,113.286 216.333 C 112.712 215.506,112.315 214.376,112.315 213.572 C 112.315 212.823,111.884 211.401,111.358 210.412 C 110.707 209.190,110.277 207.486,110.015 205.095 C 109.803 203.160,109.411 200.778,109.143 199.803 C 108.473 197.368,108.494 185.971,109.172 183.645 C 109.961 180.938,110.156 172.611,109.431 172.611 C 109.120 172.611,108.648 172.350,108.383 172.030 C 108.118 171.711,107.254 171.339,106.463 171.205 C 105.672 171.071,104.037 170.623,102.831 170.209 C 99.609 169.106,99.310 169.174,99.310 171.009 M139.212 187.843 C 138.724 187.949,138.325 188.198,138.325 188.397 C 138.325 188.595,137.738 189.003,137.020 189.303 C 129.223 192.561,129.821 209.253,137.797 211.005 C 138.476 211.154,139.343 211.621,139.725 212.042 C 140.949 213.395,149.644 213.171,152.030 211.724 C 156.822 208.819,157.338 206.771,153.621 205.419 L 151.184 204.532 150.345 205.320 C 149.883 205.754,149.384 206.108,149.236 206.108 C 149.087 206.108,148.611 206.463,148.177 206.897 C 146.197 208.877,140.350 206.542,139.234 203.327 C 138.296 200.621,138.837 195.720,140.175 194.807 C 140.567 194.540,141.275 193.930,141.749 193.451 C 143.432 191.752,148.205 191.923,149.892 193.743 C 150.757 194.675,151.019 194.742,152.825 194.494 C 156.327 194.012,156.547 191.218,153.202 189.709 C 152.369 189.334,151.533 188.751,151.344 188.414 C 151.000 187.798,141.487 187.351,139.212 187.843 M164.263 193.777 C 163.438 193.903,163.151 194.216,162.961 195.196 C 162.826 195.887,162.517 197.289,162.272 198.311 C 161.939 199.707,161.944 200.670,162.294 202.184 C 162.549 203.292,162.759 204.577,162.759 205.041 C 162.759 205.504,163.101 206.245,163.520 206.686 C 166.724 210.062,167.586 210.797,168.608 211.021 C 169.248 211.161,170.082 211.621,170.464 212.042 C 171.480 213.165,180.286 213.192,181.720 212.077 C 182.237 211.675,183.309 211.134,184.103 210.876 C 184.897 210.617,185.645 210.146,185.767 209.830 C 185.888 209.513,186.436 209.050,186.984 208.800 C 187.532 208.551,187.980 208.045,187.980 207.676 C 187.980 207.308,188.424 206.353,188.966 205.555 C 190.602 203.143,190.357 202.530,187.094 200.859 C 183.580 199.061,183.803 199.038,183.503 201.227 C 183.262 202.985,180.900 206.108,179.812 206.108 C 179.603 206.108,179.112 206.463,178.719 206.897 C 178.193 207.479,177.505 207.685,176.093 207.685 C 174.667 207.685,174.007 207.484,173.505 206.897 C 173.133 206.463,172.622 206.108,172.368 206.108 C 172.114 206.108,171.355 205.594,170.682 204.965 L 169.458 203.822 169.458 199.044 C 169.458 193.306,169.182 193.025,164.263 193.777 M197.839 207.604 C 197.835 208.102,197.389 208.952,196.847 209.494 C 195.599 210.743,195.579 210.691,197.410 210.984 C 198.262 211.120,199.269 211.542,199.647 211.921 C 200.961 213.237,212.414 213.090,212.414 211.757 C 212.414 211.428,212.768 211.065,213.202 210.952 C 214.332 210.656,214.174 210.184,212.855 209.921 C 212.231 209.796,211.446 209.419,211.110 209.083 C 210.653 208.626,209.629 208.471,207.023 208.465 C 202.645 208.455,198.595 207.882,198.170 207.213 C 197.944 206.856,197.843 206.975,197.839 207.604 M135.062 227.294 C 134.671 227.725,134.331 229.129,134.160 231.014 C 133.895 233.935,133.832 234.084,132.335 235.287 C 129.870 237.268,124.532 237.383,124.532 235.454 C 124.532 235.137,124.293 234.877,124.000 234.877 C 123.708 234.877,122.710 234.367,121.783 233.745 L 120.097 232.613 117.881 234.861 C 116.662 236.097,115.249 237.567,114.741 238.126 L 113.818 239.144 114.741 240.459 C 115.249 241.182,116.153 242.356,116.749 243.068 C 120.052 247.013,117.253 252.663,111.749 253.162 C 107.307 253.564,107.585 253.222,107.596 258.269 L 107.607 262.660 109.074 263.307 C 109.881 263.663,111.583 264.052,112.856 264.171 C 117.383 264.593,119.554 270.041,116.650 273.695 C 116.000 274.513,115.468 275.291,115.467 275.424 C 115.467 275.556,115.032 276.171,114.500 276.790 L 113.532 277.915 116.940 281.262 C 119.712 283.985,120.426 284.503,120.765 284.040 C 120.995 283.727,121.714 283.176,122.365 282.817 C 123.015 282.457,124.004 281.797,124.563 281.351 C 125.672 280.464,128.364 279.702,128.665 280.190 C 128.769 280.357,129.610 280.691,130.535 280.932 C 133.166 281.617,133.986 282.582,133.994 284.999 C 134.011 289.995,134.836 290.837,139.711 290.837 C 144.172 290.837,144.460 290.581,145.084 286.035 C 145.876 280.266,150.719 278.554,156.017 282.171 C 157.311 283.053,158.445 283.990,158.538 284.252 C 158.648 284.562,159.059 284.383,159.709 283.744 C 161.219 282.260,163.776 279.718,164.768 278.716 L 165.649 277.826 164.841 276.943 C 164.397 276.457,163.742 275.483,163.386 274.778 C 163.030 274.074,162.572 273.498,162.370 273.498 C 161.633 273.498,161.148 270.485,161.576 268.574 C 162.321 265.251,163.851 264.048,167.341 264.042 C 171.105 264.035,171.980 262.746,171.765 257.530 C 171.600 253.533,171.604 253.537,167.367 253.168 C 163.995 252.873,162.226 251.696,161.806 249.464 C 161.244 246.489,161.211 245.261,161.671 244.513 C 161.944 244.069,162.522 243.105,162.956 242.370 C 163.389 241.636,164.131 240.629,164.604 240.132 L 165.464 239.230 162.222 235.929 L 158.980 232.628 157.633 233.752 C 156.892 234.371,156.090 234.877,155.850 234.877 C 155.609 234.877,155.028 235.320,154.556 235.862 C 152.111 238.675,145.599 236.038,145.170 232.062 C 144.581 226.608,144.573 226.601,139.540 226.601 C 136.365 226.601,135.578 226.723,135.062 227.294 M286.108 237.457 C 286.108 237.781,285.661 238.250,285.114 238.500 C 284.567 238.749,284.008 239.410,283.872 239.969 C 283.634 240.945,282.576 242.475,280.690 244.569 C 280.202 245.110,279.803 245.805,279.803 246.113 C 279.803 246.420,279.271 247.278,278.621 248.019 C 277.970 248.759,277.438 249.535,277.438 249.743 C 277.438 249.951,277.039 250.601,276.552 251.186 C 274.857 253.221,271.438 257.150,270.304 258.367 C 269.676 259.040,269.154 259.750,269.145 259.943 C 269.116 260.498,264.491 264.678,257.326 270.627 C 257.008 270.890,256.105 271.644,255.317 272.302 C 254.530 272.959,253.756 273.498,253.596 273.498 C 253.437 273.498,252.700 274.030,251.959 274.680 C 251.219 275.330,250.283 275.862,249.881 275.862 C 249.478 275.862,249.046 276.128,248.921 276.454 C 248.796 276.779,248.068 277.344,247.303 277.709 C 246.537 278.074,245.911 278.496,245.911 278.646 C 245.911 278.796,245.335 279.150,244.631 279.433 C 243.926 279.716,242.848 280.358,242.236 280.860 C 241.623 281.362,240.815 281.773,240.440 281.773 C 240.066 281.773,239.175 282.204,238.462 282.730 C 237.748 283.257,236.472 283.804,235.627 283.947 C 234.781 284.090,234.089 284.378,234.089 284.587 C 234.089 285.084,231.616 286.108,230.418 286.108 C 229.902 286.108,229.081 286.455,228.592 286.878 C 228.104 287.302,226.880 287.768,225.872 287.915 C 224.864 288.062,223.372 288.518,222.557 288.929 C 221.742 289.340,219.791 289.839,218.222 290.039 C 216.653 290.238,214.749 290.722,213.990 291.112 C 211.922 292.177,188.896 292.192,186.830 291.130 C 186.089 290.749,184.316 290.251,182.890 290.023 C 179.300 289.450,176.750 286.370,179.113 285.463 C 180.138 285.069,179.870 283.301,178.818 283.515 C 178.330 283.614,176.303 283.801,174.314 283.929 C 171.455 284.113,170.319 284.373,168.895 285.169 C 167.300 286.060,166.465 287.291,167.455 287.291 C 167.654 287.291,168.136 288.128,168.527 289.151 C 168.918 290.174,169.535 291.308,169.899 291.672 C 170.262 292.036,170.686 292.928,170.840 293.654 C 170.994 294.381,171.589 295.358,172.161 295.825 L 173.202 296.675 173.990 295.037 C 174.950 293.042,177.416 292.490,178.871 293.945 C 179.401 294.475,180.571 294.857,182.464 295.120 C 184.009 295.334,185.723 295.804,186.274 296.166 C 189.305 298.152,218.467 298.050,222.335 296.040 C 223.132 295.626,224.990 295.164,226.464 295.013 C 227.939 294.862,229.415 294.506,229.745 294.223 C 230.551 293.531,232.776 292.808,234.099 292.808 C 234.691 292.808,235.377 292.564,235.623 292.267 C 235.870 291.969,237.115 291.433,238.390 291.076 C 239.664 290.718,240.911 290.179,241.161 289.878 C 241.411 289.577,242.480 289.123,243.536 288.869 C 244.593 288.616,245.544 288.185,245.649 287.911 C 245.754 287.637,246.654 287.185,247.649 286.907 C 248.644 286.628,249.458 286.237,249.458 286.037 C 249.458 285.837,250.122 285.397,250.933 285.058 C 251.744 284.719,252.910 284.019,253.524 283.502 C 254.139 282.985,254.800 282.562,254.994 282.562 C 255.188 282.562,256.653 281.675,258.250 280.591 C 259.847 279.507,261.289 278.621,261.454 278.621 C 261.618 278.621,262.242 278.133,262.841 277.537 C 264.320 276.065,266.818 274.286,267.407 274.286 C 267.672 274.286,267.981 273.932,268.094 273.500 C 268.207 273.067,268.600 272.598,268.967 272.457 C 269.335 272.316,270.053 271.783,270.563 271.273 C 271.074 270.762,271.677 270.345,271.903 270.345 C 272.130 270.345,272.315 270.083,272.315 269.764 C 272.315 269.444,272.847 268.908,273.498 268.571 C 274.148 268.235,274.684 267.743,274.688 267.478 C 274.693 267.212,275.338 266.463,276.122 265.813 C 276.907 265.163,277.796 264.365,278.099 264.039 C 278.402 263.714,279.530 262.521,280.606 261.388 C 281.681 260.254,282.562 259.150,282.562 258.934 C 282.562 258.717,283.005 258.250,283.547 257.895 C 284.089 257.540,284.532 257.042,284.532 256.788 C 284.532 256.331,285.698 254.794,287.783 252.503 C 288.379 251.848,288.867 251.104,288.867 250.850 C 288.867 250.596,289.310 250.003,289.852 249.532 C 290.394 249.061,290.837 248.422,290.837 248.112 C 290.837 247.802,291.281 247.021,291.823 246.377 C 292.365 245.733,292.808 244.927,292.808 244.586 C 292.808 244.244,293.148 243.359,293.563 242.620 C 294.824 240.376,294.779 239.445,293.399 239.194 C 292.749 239.076,291.419 238.610,290.443 238.159 C 287.935 236.999,286.108 236.703,286.108 237.457 M145.696 244.581 C 146.311 245.035,147.203 245.530,147.679 245.681 C 149.000 246.101,152.055 249.259,152.352 250.513 C 152.497 251.125,152.991 252.039,153.451 252.544 C 154.722 253.942,154.717 263.111,153.444 264.500 C 152.982 265.005,152.474 265.842,152.317 266.360 C 150.705 271.662,138.108 275.780,133.820 272.407 C 133.205 271.923,132.497 271.527,132.246 271.527 C 131.618 271.527,128.473 268.633,128.473 268.055 C 128.473 267.797,128.308 267.586,128.107 267.586 C 125.313 267.586,123.432 255.405,125.767 252.437 C 126.171 251.922,126.502 251.247,126.502 250.936 C 126.502 250.214,131.373 245.517,132.122 245.517 C 132.432 245.517,132.998 245.173,133.379 244.751 C 134.725 243.264,143.747 243.139,145.696 244.581 " stroke="none" fill="#7844fb" fill-rule="evenodd"></path>
    <path id="path2" d="M190.345 96.209 C 181.823 97.075,180.064 97.338,178.961 97.908 C 178.312 98.244,176.543 98.694,175.031 98.908 C 173.519 99.123,171.691 99.643,170.969 100.064 C 170.246 100.484,168.953 100.957,168.096 101.114 C 166.565 101.394,164.117 102.370,160.191 104.267 C 159.105 104.792,157.929 105.222,157.580 105.222 C 157.230 105.222,156.731 105.478,156.471 105.791 C 156.211 106.104,155.141 106.646,154.093 106.994 C 153.045 107.342,152.092 107.874,151.976 108.176 C 151.861 108.477,151.047 108.940,150.169 109.203 C 149.290 109.466,148.571 109.805,148.571 109.957 C 148.571 110.108,147.197 111.064,145.517 112.079 C 143.837 113.095,141.665 114.537,140.690 115.285 C 139.714 116.032,138.473 116.947,137.931 117.319 C 129.883 122.844,115.142 138.553,111.169 145.839 C 110.747 146.612,110.123 147.476,109.782 147.759 C 109.442 148.042,109.163 148.597,109.163 148.991 C 109.163 149.386,108.835 149.941,108.435 150.224 C 108.034 150.507,107.479 151.448,107.200 152.315 C 106.921 153.182,106.362 154.209,105.958 154.597 C 105.553 154.984,105.222 155.536,105.222 155.822 C 105.222 156.109,104.778 156.997,104.236 157.795 C 103.695 158.594,103.251 159.605,103.251 160.043 C 103.251 160.911,102.618 162.266,101.857 163.027 C 101.593 163.291,101.259 164.289,101.116 165.243 C 100.973 166.197,100.508 167.351,100.083 167.808 C 99.135 168.825,99.093 169.458,99.974 169.458 C 100.339 169.458,101.624 169.796,102.831 170.209 C 104.037 170.623,105.672 171.071,106.463 171.205 C 107.254 171.339,108.118 171.711,108.383 172.030 C 108.648 172.350,109.109 172.611,109.408 172.611 C 109.811 172.611,109.963 173.297,109.997 175.271 L 110.043 177.931 110.362 176.034 C 110.537 174.991,110.972 173.694,111.327 173.151 C 111.682 172.609,112.150 171.068,112.366 169.728 C 112.584 168.371,113.082 166.941,113.488 166.502 C 113.890 166.069,114.347 164.828,114.505 163.744 C 114.662 162.660,115.108 161.366,115.496 160.868 C 115.884 160.370,116.322 159.395,116.469 158.701 C 116.615 158.006,117.054 157.084,117.443 156.650 C 117.833 156.217,118.441 155.241,118.795 154.483 C 120.238 151.395,121.015 150.159,121.769 149.756 C 122.205 149.523,122.562 149.113,122.562 148.845 C 122.562 148.178,126.311 142.774,128.548 140.219 C 129.554 139.069,131.129 137.241,132.047 136.158 C 134.960 132.720,137.280 130.400,139.342 128.860 C 140.443 128.037,141.945 126.727,142.680 125.948 C 143.415 125.169,144.154 124.532,144.323 124.532 C 144.492 124.532,144.957 124.222,145.356 123.842 C 146.874 122.398,150.164 119.994,152.238 118.814 C 152.845 118.468,153.688 117.839,154.110 117.417 C 154.532 116.995,155.119 116.650,155.415 116.650 C 155.711 116.650,156.453 116.257,157.063 115.777 C 157.674 115.296,158.662 114.631,159.259 114.299 C 162.797 112.328,165.863 110.830,166.873 110.580 C 167.510 110.422,168.514 109.948,169.105 109.527 C 169.696 109.106,170.771 108.652,171.494 108.517 C 172.217 108.381,173.340 107.958,173.990 107.574 C 174.640 107.191,176.236 106.662,177.537 106.399 C 178.837 106.135,180.372 105.678,180.947 105.383 C 181.523 105.088,183.296 104.650,184.888 104.411 C 186.481 104.171,188.759 103.679,189.951 103.318 C 193.181 102.338,210.931 102.353,213.793 103.339 C 214.877 103.712,216.562 104.127,217.537 104.261 C 221.970 104.869,223.837 106.531,222.455 108.639 C 221.519 110.068,221.976 111.685,223.227 111.371 C 223.737 111.243,225.991 110.943,228.235 110.703 C 234.422 110.043,236.405 108.874,235.099 106.659 C 233.694 104.276,231.777 100.286,231.503 99.174 C 231.344 98.531,230.702 97.732,229.997 97.299 L 228.768 96.545 228.165 97.882 C 226.954 100.565,225.628 101.165,223.699 99.901 C 223.202 99.575,221.746 99.118,220.462 98.885 C 219.178 98.652,217.771 98.233,217.334 97.952 C 214.839 96.352,199.005 95.329,190.345 96.209 M258.325 103.145 C 257.196 103.428,257.030 103.848,256.730 107.173 C 256.100 114.181,250.255 115.410,244.055 109.837 L 243.184 109.055 240.902 111.133 C 237.021 114.668,236.038 115.985,236.580 116.924 C 237.300 118.171,238.494 119.886,239.533 121.164 C 240.824 122.753,240.586 125.487,238.954 127.811 L 237.798 129.458 234.465 129.774 C 230.097 130.189,230.063 130.238,230.221 135.830 C 230.368 141.057,230.044 140.621,234.248 141.243 C 236.113 141.519,237.690 141.817,237.752 141.907 C 237.814 141.996,238.377 142.764,239.004 143.615 C 240.615 145.799,240.871 148.883,239.552 150.199 C 238.666 151.083,237.802 152.391,236.769 154.412 C 236.298 155.333,241.714 161.538,243.015 161.566 C 243.516 161.577,247.146 159.216,248.112 158.250 C 249.348 157.014,253.017 157.667,255.343 159.538 C 256.130 160.171,256.391 160.924,256.806 163.767 C 257.415 167.938,257.320 167.868,262.390 167.876 C 267.808 167.884,267.861 167.847,268.206 163.843 C 268.680 158.355,273.510 155.626,277.273 158.719 C 281.955 162.568,281.759 162.606,287.177 156.792 L 288.837 155.010 286.868 152.283 C 282.671 146.470,284.336 141.984,290.954 141.275 C 294.926 140.850,294.975 140.778,294.975 135.420 C 294.975 130.031,295.067 130.157,290.912 129.811 C 285.342 129.346,282.686 124.611,285.759 120.625 C 289.566 115.687,289.594 116.652,285.524 112.508 C 281.928 108.847,281.649 108.749,279.660 110.456 C 276.058 113.547,274.876 113.924,272.048 112.888 C 268.840 111.712,268.300 110.549,268.002 104.176 C 267.952 103.109,261.305 102.401,258.325 103.145 M268.374 122.343 C 270.581 123.466,271.042 123.800,272.611 125.400 C 275.695 128.548,277.044 131.658,277.044 135.621 C 277.045 140.510,273.791 146.141,269.750 148.244 C 269.102 148.582,268.039 149.147,267.389 149.500 C 265.375 150.595,259.351 150.398,257.029 149.163 C 256.012 148.621,254.994 148.177,254.768 148.177 C 253.942 148.177,250.358 143.972,249.137 141.571 C 243.276 130.041,256.848 116.475,268.374 122.343 M292.919 165.766 C 289.857 168.865,287.242 171.750,287.106 172.177 C 286.814 173.098,287.937 177.270,288.717 178.160 C 289.018 178.503,289.450 179.833,289.678 181.116 C 289.906 182.399,290.378 184.069,290.727 184.828 C 291.077 185.586,291.591 188.158,291.871 190.542 C 292.151 192.926,292.565 195.832,292.791 197.000 C 293.302 199.637,293.310 205.775,292.806 207.882 C 292.599 208.749,292.235 211.485,291.999 213.963 C 291.762 216.441,291.237 219.339,290.832 220.404 C 290.428 221.469,289.977 223.302,289.830 224.476 C 289.683 225.651,289.251 227.009,288.869 227.494 C 288.487 227.979,287.966 229.385,287.710 230.617 C 287.454 231.850,286.923 233.268,286.531 233.769 C 286.138 234.270,285.694 235.242,285.544 235.928 C 285.394 236.615,284.928 237.573,284.508 238.057 C 284.088 238.542,283.747 239.133,283.750 239.371 C 283.754 239.683,283.836 239.683,284.045 239.369 C 284.205 239.131,284.734 238.726,285.222 238.469 C 285.709 238.212,286.108 237.746,286.108 237.434 C 286.108 236.704,287.972 237.016,290.443 238.159 C 291.419 238.610,292.749 239.076,293.399 239.194 C 294.779 239.445,294.824 240.376,293.563 242.620 C 292.565 244.398,292.610 244.658,293.735 243.601 C 294.245 243.122,294.866 242.049,295.116 241.215 C 295.366 240.381,295.835 239.479,296.159 239.210 C 296.484 238.941,296.749 238.491,296.749 238.209 C 296.749 237.927,297.181 237.183,297.708 236.555 C 298.236 235.928,298.789 234.895,298.936 234.259 C 299.083 233.624,299.608 232.483,300.101 231.724 C 300.595 230.966,301.121 229.645,301.270 228.789 C 301.420 227.934,301.862 226.828,302.253 226.331 C 302.644 225.834,303.086 224.584,303.236 223.551 C 303.386 222.519,303.825 221.131,304.211 220.466 C 304.598 219.800,305.041 218.406,305.197 217.366 C 305.353 216.326,305.803 214.466,306.197 213.233 C 306.591 211.999,307.030 209.581,307.171 207.860 C 307.313 206.138,307.706 202.398,308.045 199.549 C 308.603 194.849,308.602 193.844,308.041 188.711 C 307.701 185.600,307.304 181.813,307.158 180.296 C 307.012 178.778,306.587 176.739,306.212 175.764 C 305.837 174.788,305.413 173.224,305.269 172.288 C 305.124 171.351,304.760 170.198,304.458 169.726 C 304.157 169.254,303.687 168.069,303.414 167.094 C 303.141 166.118,302.679 165.036,302.387 164.689 C 302.095 164.342,301.632 163.284,301.358 162.338 C 300.347 158.847,299.356 159.250,292.919 165.766 M98.846 171.626 C 98.699 172.709,98.474 173.951,98.347 174.384 C 98.220 174.818,98.395 174.574,98.734 173.843 C 99.074 173.112,99.298 171.871,99.233 171.085 C 99.121 169.743,99.097 169.776,98.846 171.626 M228.079 181.312 C 227.560 181.615,227.389 182.229,227.389 183.793 C 227.389 186.007,226.502 187.346,224.837 187.649 C 222.826 188.014,222.436 191.788,224.267 193.172 C 227.392 195.534,227.252 195.187,227.501 201.205 C 227.760 207.476,228.192 209.354,229.598 210.339 C 230.144 210.722,231.094 211.434,231.709 211.923 C 233.016 212.961,237.474 213.467,240.394 212.909 L 242.167 212.571 242.068 210.683 C 241.925 207.948,241.560 207.490,239.632 207.629 C 238.231 207.730,237.827 207.561,236.642 206.376 L 235.271 205.005 235.271 200.236 C 235.271 194.407,235.574 193.892,239.007 193.892 C 241.513 193.892,241.708 193.581,241.501 189.930 L 241.379 187.783 239.021 187.662 C 235.812 187.498,235.271 186.945,235.271 183.831 C 235.271 181.400,235.260 181.377,234.039 181.133 C 232.175 180.760,228.855 180.860,228.079 181.312 M205.123 187.032 C 204.473 187.124,203.204 187.294,202.304 187.411 C 201.340 187.536,200.237 188.021,199.623 188.590 C 199.049 189.122,198.437 189.557,198.262 189.557 C 198.087 189.557,197.476 190.460,196.903 191.563 C 193.856 197.437,198.051 201.788,207.655 202.714 C 211.553 203.090,213.272 206.099,210.443 207.597 C 208.762 208.488,201.268 208.042,199.812 206.965 C 198.349 205.884,197.438 205.865,197.438 206.916 C 197.438 207.360,197.164 208.291,196.828 208.985 L 196.217 210.246 197.025 209.316 C 197.469 208.804,197.835 208.006,197.839 207.543 C 197.843 206.946,197.940 206.849,198.170 207.213 C 198.595 207.882,202.645 208.455,207.023 208.465 C 209.629 208.471,210.653 208.626,211.110 209.083 C 211.446 209.419,212.231 209.796,212.855 209.921 C 214.174 210.184,214.332 210.656,213.202 210.952 C 212.768 211.065,212.414 211.440,212.414 211.786 C 212.414 212.195,212.036 212.432,211.330 212.467 C 210.424 212.512,210.389 212.549,211.118 212.690 C 211.608 212.785,212.744 212.417,213.714 211.848 C 214.663 211.292,215.733 210.837,216.094 210.837 C 216.454 210.837,216.749 210.586,216.749 210.279 C 216.749 209.972,217.236 209.366,217.833 208.932 C 219.443 207.759,219.478 202.508,217.886 200.985 C 215.823 199.013,212.860 197.855,209.187 197.586 C 205.808 197.337,205.746 197.314,204.556 195.833 C 202.404 193.156,203.867 192.040,209.261 192.246 C 217.344 192.554,216.396 192.715,217.017 190.936 C 217.818 188.646,217.466 187.737,215.670 187.458 C 213.506 187.123,206.499 186.840,205.123 187.032 M255.305 187.160 C 249.928 187.918,247.140 192.402,248.669 197.833 C 249.033 199.128,251.050 200.985,252.093 200.985 C 252.322 200.985,253.287 201.324,254.236 201.739 C 255.184 202.153,257.326 202.616,258.994 202.768 C 262.258 203.065,263.002 203.518,263.340 205.409 C 263.793 207.939,255.515 209.106,252.568 206.928 C 250.480 205.384,249.289 205.910,248.675 208.647 C 248.198 210.777,248.111 210.637,250.837 212.118 C 253.273 213.441,264.171 213.441,265.961 212.118 C 266.620 211.631,267.351 211.232,267.584 211.232 C 270.941 211.232,272.411 201.076,269.223 199.903 C 268.864 199.771,267.914 199.254,267.111 198.754 C 266.009 198.068,264.706 197.758,261.811 197.491 C 257.033 197.052,254.800 195.360,256.297 193.313 C 257.241 192.021,262.603 191.839,267.022 192.948 C 269.319 193.525,270.857 188.134,268.571 187.516 C 266.809 187.039,257.864 186.800,255.305 187.160 M146.354 187.586 C 149.871 187.789,151.113 188.001,151.360 188.441 C 151.540 188.763,152.384 189.340,153.236 189.725 C 155.175 190.599,155.939 191.856,155.279 193.088 C 154.578 194.397,155.015 194.431,155.969 193.142 C 156.799 192.018,156.800 192.000,156.039 191.312 C 155.617 190.930,155.271 190.378,155.271 190.087 C 155.271 189.795,155.005 189.557,154.680 189.557 C 154.355 189.557,153.701 189.169,153.227 188.695 C 152.166 187.634,149.868 187.227,145.222 187.277 L 141.675 187.315 146.354 187.586 M170.443 187.473 C 169.793 187.562,169.084 187.863,168.867 188.141 C 168.650 188.420,167.919 188.934,167.242 189.283 C 165.566 190.149,162.649 193.687,162.880 194.574 C 163.039 195.186,163.067 195.190,163.107 194.610 C 163.165 193.764,166.785 193.243,168.374 193.851 C 169.338 194.220,169.463 194.475,169.498 196.148 C 169.538 197.993,169.545 198.003,169.859 196.669 C 170.035 195.921,170.505 195.087,170.902 194.816 C 171.300 194.544,171.921 194.032,172.283 193.678 C 174.541 191.465,181.281 192.692,181.281 195.317 C 181.281 195.586,181.567 196.092,181.918 196.443 C 183.406 197.931,183.345 202.067,181.808 203.858 L 181.084 204.702 182.069 204.082 C 182.780 203.634,183.155 202.925,183.417 201.533 C 183.616 200.473,183.837 199.532,183.908 199.443 C 184.258 199.000,189.929 202.371,190.098 203.122 C 190.199 203.572,190.252 201.772,190.215 199.121 C 190.152 194.608,190.091 194.261,189.261 193.680 C 188.773 193.338,188.374 192.857,188.374 192.611 C 188.374 191.999,185.284 189.163,184.617 189.163 C 184.321 189.163,183.919 188.878,183.724 188.529 C 183.103 187.419,175.331 186.801,170.443 187.473 M162.413 196.059 C 162.380 196.493,162.263 197.291,162.151 197.833 L 161.948 198.818 162.370 197.851 C 162.603 197.319,162.720 196.521,162.632 196.078 C 162.476 195.292,162.470 195.291,162.413 196.059 M189.280 205.015 C 188.386 206.169,188.331 206.637,189.185 205.824 C 189.690 205.342,190.006 204.850,189.886 204.730 C 189.767 204.611,189.494 204.739,189.280 205.015 M199.162 212.051 C 199.736 212.502,200.425 212.782,200.693 212.674 C 201.062 212.525,201.054 212.468,200.662 212.445 C 200.375 212.428,199.875 212.148,199.550 211.823 C 199.224 211.498,198.770 211.232,198.539 211.232 C 198.309 211.232,198.589 211.600,199.162 212.051 M282.617 241.494 L 281.686 242.956 282.762 241.914 C 283.354 241.342,283.772 240.684,283.692 240.452 C 283.612 240.221,283.128 240.690,282.617 241.494 " stroke="none" fill="#39c1fb" fill-rule="evenodd"></path>
    <path id="path3" d="M189.951 95.031 C 188.975 95.224,186.227 95.571,183.842 95.802 C 181.118 96.067,178.895 96.512,177.860 97.000 C 176.954 97.428,175.003 97.963,173.525 98.189 C 172.047 98.415,170.305 98.922,169.655 99.316 C 169.005 99.710,167.764 100.157,166.897 100.310 C 166.030 100.463,164.767 100.922,164.091 101.329 C 163.416 101.736,162.608 102.069,162.297 102.069 C 161.986 102.069,160.854 102.489,159.782 103.002 C 158.710 103.516,156.281 104.677,154.384 105.583 C 152.488 106.489,150.936 107.371,150.936 107.543 C 150.936 107.715,150.248 108.062,149.406 108.314 C 148.565 108.566,147.655 109.039,147.384 109.366 C 147.113 109.693,146.116 110.303,145.170 110.721 C 144.223 111.140,143.448 111.651,143.448 111.856 C 143.448 112.062,143.010 112.340,142.474 112.474 C 141.939 112.609,141.312 113.071,141.081 113.502 C 140.851 113.933,140.442 114.286,140.172 114.286 C 139.749 114.286,136.118 117.040,132.761 119.907 C 132.193 120.391,130.775 121.586,129.610 122.562 C 127.165 124.609,118.621 133.144,118.621 133.540 C 118.621 133.686,117.734 134.776,116.650 135.961 C 115.567 137.146,114.680 138.269,114.680 138.456 C 114.680 138.644,114.192 139.273,113.596 139.855 C 113.000 140.437,112.158 141.521,111.724 142.265 C 111.291 143.009,110.670 143.996,110.345 144.459 C 110.020 144.922,109.418 145.815,109.008 146.444 C 108.597 147.072,107.945 148.050,107.557 148.617 C 107.170 149.184,106.565 150.248,106.213 150.981 C 105.861 151.715,105.052 153.202,104.416 154.286 C 103.029 156.646,102.069 158.648,102.069 159.182 C 102.069 159.396,101.646 160.193,101.130 160.954 C 100.614 161.715,100.069 162.990,99.919 163.787 C 99.770 164.584,99.410 165.474,99.119 165.765 C 98.828 166.056,98.398 167.188,98.164 168.281 C 97.929 169.374,97.459 170.693,97.119 171.213 C 96.779 171.732,96.347 173.241,96.160 174.567 C 95.972 175.892,95.469 177.723,95.040 178.636 C 94.555 179.671,94.096 181.951,93.821 184.696 C 93.579 187.117,93.163 189.688,92.897 190.411 C 92.122 192.518,92.246 206.831,93.068 210.049 C 93.428 211.458,93.837 214.030,93.977 215.764 C 94.138 217.744,94.509 219.386,94.975 220.181 C 95.383 220.876,95.903 222.447,96.129 223.672 C 96.356 224.897,96.898 226.477,97.335 227.183 C 97.771 227.890,98.128 228.694,98.128 228.971 C 98.128 229.968,100.926 235.264,101.660 235.657 C 103.136 236.447,103.786 235.975,110.373 229.319 C 117.352 222.269,118.183 220.943,116.497 219.544 C 116.196 219.294,115.741 218.252,115.486 217.229 C 115.231 216.206,114.766 214.973,114.451 214.488 C 114.137 214.003,113.627 212.284,113.318 210.667 C 113.009 209.050,112.479 207.306,112.141 206.790 C 110.554 204.367,110.540 179.212,112.125 176.794 C 112.456 176.289,112.984 174.411,113.299 172.621 C 113.613 170.831,114.035 169.166,114.235 168.920 C 114.435 168.674,114.884 167.508,115.232 166.330 C 115.579 165.151,116.235 163.377,116.688 162.389 C 118.856 157.665,119.914 155.418,120.226 154.877 C 120.414 154.552,121.045 153.443,121.627 152.414 C 122.210 151.384,122.836 150.542,123.018 150.542 C 123.201 150.542,123.350 150.300,123.350 150.005 C 123.350 149.710,123.837 148.830,124.433 148.051 C 125.030 147.271,125.961 145.990,126.502 145.203 C 127.044 144.416,127.975 143.188,128.571 142.475 C 129.167 141.761,129.655 141.075,129.655 140.951 C 129.655 140.364,138.467 131.329,142.703 127.574 C 144.833 125.686,146.499 124.400,149.197 122.562 C 149.992 122.020,151.070 121.178,151.593 120.691 C 152.117 120.205,153.069 119.535,153.711 119.203 C 154.352 118.872,154.877 118.428,154.877 118.216 C 154.877 118.005,155.208 117.833,155.612 117.833 C 156.016 117.833,156.846 117.433,157.457 116.946 C 159.173 115.575,166.040 112.066,168.771 111.165 C 169.548 110.908,170.393 110.446,170.648 110.138 C 170.904 109.830,171.761 109.459,172.552 109.314 C 173.343 109.169,174.788 108.641,175.764 108.141 C 176.739 107.640,178.512 107.106,179.704 106.953 C 180.897 106.801,182.493 106.365,183.251 105.985 C 184.010 105.606,185.872 105.177,187.389 105.032 C 188.906 104.888,191.328 104.530,192.771 104.236 C 196.731 103.431,203.156 103.139,206.700 103.604 C 221.946 105.602,222.538 105.891,220.886 110.529 C 220.106 112.720,221.786 113.376,225.421 112.303 C 226.179 112.079,228.217 111.716,229.951 111.496 C 237.936 110.484,238.208 109.790,233.726 101.872 C 232.868 100.355,232.154 98.748,232.142 98.302 C 232.074 95.956,228.905 94.699,227.852 96.600 C 226.384 99.253,226.680 99.147,222.825 98.397 C 220.913 98.025,218.927 97.444,218.410 97.105 C 217.878 96.757,215.473 96.244,212.873 95.924 C 210.344 95.613,207.478 95.191,206.502 94.987 C 204.295 94.525,192.348 94.556,189.951 95.031 M208.079 96.356 C 214.964 97.014,216.204 97.228,217.334 97.952 C 217.771 98.233,219.178 98.652,220.462 98.885 C 221.746 99.118,223.202 99.575,223.699 99.901 C 225.628 101.165,226.954 100.565,228.165 97.882 L 228.768 96.545 229.997 97.299 C 230.702 97.732,231.344 98.531,231.503 99.174 C 231.777 100.286,233.694 104.276,235.099 106.659 C 236.405 108.874,234.422 110.043,228.235 110.703 C 225.991 110.943,223.737 111.243,223.227 111.371 C 221.976 111.685,221.519 110.068,222.455 108.639 C 223.837 106.531,221.970 104.869,217.537 104.261 C 216.562 104.127,214.877 103.712,213.793 103.339 C 210.931 102.353,193.181 102.338,189.951 103.318 C 188.759 103.679,186.481 104.171,184.888 104.411 C 183.296 104.650,181.523 105.088,180.947 105.383 C 180.372 105.678,178.837 106.135,177.537 106.399 C 176.236 106.662,174.640 107.191,173.990 107.574 C 173.340 107.958,172.217 108.381,171.494 108.517 C 170.771 108.652,169.696 109.106,169.105 109.527 C 168.514 109.948,167.510 110.422,166.873 110.580 C 165.863 110.830,162.797 112.328,159.259 114.299 C 158.662 114.631,157.674 115.296,157.063 115.777 C 156.453 116.257,155.711 116.650,155.415 116.650 C 155.119 116.650,154.532 116.995,154.110 117.417 C 153.688 117.839,152.845 118.468,152.238 118.814 C 150.164 119.994,146.874 122.398,145.356 123.842 C 144.957 124.222,144.492 124.532,144.323 124.532 C 144.154 124.532,143.415 125.169,142.680 125.948 C 141.945 126.727,140.443 128.037,139.342 128.860 C 137.280 130.400,134.960 132.720,132.047 136.158 C 131.129 137.241,129.554 139.069,128.548 140.219 C 126.311 142.774,122.562 148.178,122.562 148.845 C 122.562 149.113,122.205 149.523,121.769 149.756 C 121.015 150.159,120.238 151.395,118.795 154.483 C 118.441 155.241,117.833 156.217,117.443 156.650 C 117.054 157.084,116.615 158.006,116.469 158.701 C 116.322 159.395,115.884 160.370,115.496 160.868 C 115.108 161.366,114.662 162.660,114.505 163.744 C 114.347 164.828,113.880 166.079,113.467 166.525 C 113.053 166.971,112.602 168.212,112.463 169.283 C 112.324 170.355,111.804 172.118,111.307 173.202 C 108.686 178.919,108.831 203.340,111.517 208.531 C 111.926 209.321,112.448 210.981,112.677 212.219 C 112.905 213.458,113.450 215.049,113.886 215.755 C 114.323 216.461,114.681 217.373,114.682 217.781 C 114.684 218.188,114.954 219.038,115.283 219.669 C 116.207 221.442,115.467 222.943,112.005 226.313 C 110.333 227.940,107.767 230.528,106.303 232.064 C 103.138 235.383,101.685 235.609,100.629 232.947 C 100.319 232.166,99.718 230.882,99.294 230.094 C 98.869 229.306,98.522 228.368,98.522 228.009 C 98.522 227.651,98.188 226.700,97.780 225.896 C 97.371 225.091,96.819 223.369,96.552 222.069 C 96.286 220.768,95.817 219.217,95.512 218.621 C 95.206 218.025,94.777 215.631,94.559 213.301 C 94.341 210.971,93.992 208.000,93.784 206.700 C 93.301 203.684,93.306 196.940,93.793 194.832 C 93.999 193.940,94.434 190.925,94.761 188.132 C 95.132 184.952,95.634 182.505,96.103 181.585 C 96.515 180.777,96.976 178.959,97.127 177.545 C 97.279 176.132,97.547 174.975,97.723 174.975 C 98.182 174.975,98.457 174.104,98.924 171.180 C 99.168 169.654,99.644 168.279,100.095 167.794 C 100.514 167.346,100.973 166.197,101.116 165.243 C 101.259 164.289,101.593 163.291,101.857 163.027 C 102.618 162.266,103.251 160.911,103.251 160.043 C 103.251 159.605,103.695 158.594,104.236 157.795 C 104.778 156.997,105.222 156.109,105.222 155.822 C 105.222 155.536,105.553 154.984,105.958 154.597 C 106.362 154.209,106.921 153.182,107.200 152.315 C 107.479 151.448,108.034 150.507,108.435 150.224 C 108.835 149.941,109.163 149.386,109.163 148.991 C 109.163 148.597,109.442 148.042,109.782 147.759 C 110.123 147.476,110.747 146.612,111.169 145.839 C 115.142 138.553,129.883 122.844,137.931 117.319 C 138.473 116.947,139.714 116.032,140.690 115.285 C 141.665 114.537,143.837 113.095,145.517 112.079 C 147.197 111.064,148.571 110.108,148.571 109.957 C 148.571 109.805,149.290 109.466,150.169 109.203 C 151.047 108.940,151.861 108.477,151.976 108.176 C 152.092 107.874,153.045 107.342,154.093 106.994 C 155.141 106.646,156.211 106.104,156.471 105.791 C 156.731 105.478,157.230 105.222,157.580 105.222 C 157.929 105.222,159.105 104.792,160.191 104.267 C 164.117 102.370,166.565 101.394,168.096 101.114 C 168.953 100.957,170.246 100.484,170.969 100.064 C 171.691 99.643,173.519 99.123,175.031 98.908 C 176.543 98.694,178.312 98.244,178.961 97.908 C 179.611 97.572,181.684 97.129,183.569 96.923 C 195.584 95.613,199.379 95.525,208.079 96.356 M258.128 102.334 C 256.575 102.656,256.263 103.122,255.989 105.529 C 255.526 109.588,255.395 109.896,253.592 111.136 C 251.914 112.290,248.670 112.833,248.670 111.960 C 248.670 111.765,248.020 111.188,247.225 110.679 C 246.431 110.170,245.275 109.425,244.656 109.023 C 243.137 108.037,242.200 108.368,239.623 110.800 C 234.648 115.496,234.368 116.253,236.563 119.063 C 239.893 123.327,239.966 123.641,238.273 126.502 L 236.992 128.670 233.692 128.917 C 229.132 129.258,228.966 129.491,228.966 135.522 C 228.966 141.856,228.842 141.717,235.172 142.484 C 236.310 142.621,237.241 142.922,237.241 143.152 C 237.241 143.383,237.685 144.152,238.227 144.863 C 239.495 146.525,239.535 148.575,238.325 149.902 C 234.563 154.030,234.454 154.727,237.084 157.827 C 241.910 163.517,242.924 163.794,247.146 160.582 C 251.405 157.344,255.005 159.065,255.776 164.709 C 256.377 169.105,256.447 169.148,262.780 168.994 C 269.157 168.840,269.163 168.836,269.163 164.260 L 269.163 161.184 271.034 160.008 C 273.252 158.616,275.113 158.488,276.588 159.627 C 282.246 163.998,281.791 164.100,288.571 156.941 C 290.177 155.245,288.911 151.311,286.220 149.636 C 284.068 148.295,286.947 142.856,290.025 142.448 C 296.039 141.651,296.030 141.663,295.873 135.087 C 295.738 129.376,295.694 129.318,291.229 128.945 L 287.946 128.670 286.771 126.757 C 284.985 123.846,285.246 122.678,288.571 118.705 C 289.897 117.123,289.970 115.510,288.768 114.388 C 288.281 113.932,286.729 112.383,285.320 110.945 C 281.946 107.500,281.356 107.552,276.552 111.717 C 275.284 112.816,272.340 112.266,269.557 110.411 C 269.448 110.338,269.260 108.782,269.139 106.952 C 268.840 102.447,268.723 102.352,263.366 102.228 C 261.027 102.174,258.670 102.222,258.128 102.334 M266.739 103.290 C 267.422 103.528,267.990 103.927,268.002 104.176 C 268.300 110.549,268.840 111.712,272.048 112.888 C 274.876 113.924,276.058 113.547,279.660 110.456 C 281.649 108.749,281.928 108.847,285.524 112.508 C 289.594 116.652,289.566 115.687,285.759 120.625 C 282.686 124.611,285.342 129.346,290.912 129.811 C 295.067 130.157,294.975 130.031,294.975 135.420 C 294.975 140.778,294.926 140.850,290.954 141.275 C 284.336 141.984,282.671 146.470,286.868 152.283 L 288.837 155.010 287.177 156.792 C 281.759 162.606,281.955 162.568,277.273 158.719 C 273.510 155.626,268.680 158.355,268.206 163.843 C 267.861 167.847,267.808 167.884,262.390 167.876 C 257.320 167.868,257.415 167.938,256.806 163.767 C 256.391 160.924,256.130 160.171,255.343 159.538 C 253.017 157.667,249.348 157.014,248.112 158.250 C 247.146 159.216,243.516 161.577,243.015 161.566 C 241.714 161.538,236.298 155.333,236.769 154.412 C 237.802 152.391,238.666 151.083,239.552 150.199 C 240.871 148.883,240.615 145.799,239.004 143.615 C 238.377 142.764,237.814 141.996,237.752 141.907 C 237.690 141.817,236.113 141.519,234.248 141.243 C 230.044 140.621,230.368 141.057,230.221 135.830 C 230.063 130.238,230.097 130.189,234.465 129.774 L 237.798 129.458 238.954 127.811 C 240.586 125.487,240.824 122.753,239.533 121.164 C 238.494 119.886,237.300 118.171,236.580 116.924 C 236.038 115.985,237.021 114.668,240.902 111.133 L 243.184 109.055 244.055 109.837 C 250.255 115.410,256.100 114.181,256.730 107.173 C 257.030 103.848,257.196 103.428,258.325 103.145 C 259.849 102.765,265.512 102.862,266.739 103.290 M256.749 122.196 C 249.204 125.572,245.629 134.671,249.137 141.571 C 250.358 143.972,253.942 148.177,254.768 148.177 C 254.994 148.177,256.012 148.621,257.029 149.163 C 259.351 150.398,265.375 150.595,267.389 149.500 C 268.039 149.147,269.102 148.582,269.750 148.244 C 276.994 144.473,279.342 133.074,274.120 127.027 C 270.443 122.768,267.653 121.300,262.857 121.101 C 259.794 120.974,259.271 121.067,256.749 122.196 M266.879 123.070 C 269.841 124.147,270.927 124.959,273.685 128.158 C 274.509 129.114,275.862 133.862,275.862 135.796 C 275.862 144.550,265.568 151.929,258.325 148.366 C 257.241 147.833,256.149 147.395,255.898 147.393 C 254.937 147.385,251.012 143.202,250.614 141.761 C 250.395 140.970,249.913 140.018,249.542 139.647 C 248.489 138.595,248.643 133.126,249.783 131.050 C 250.255 130.191,250.640 129.286,250.640 129.039 C 250.640 127.968,255.335 123.856,257.133 123.353 C 258.125 123.075,259.031 122.695,259.147 122.508 C 259.579 121.808,264.365 122.155,266.879 123.070 M291.921 165.035 C 284.934 172.033,284.285 173.091,285.843 174.944 C 286.131 175.287,286.592 176.365,286.867 177.340 C 287.143 178.315,287.623 179.400,287.934 179.750 C 288.245 180.101,288.676 181.519,288.891 182.903 C 289.106 184.287,289.673 186.305,290.152 187.389 C 291.465 190.364,291.483 214.835,290.174 217.340 C 289.721 218.207,289.159 220.148,288.926 221.653 C 288.692 223.158,288.153 225.109,287.727 225.988 C 287.301 226.867,286.404 229.094,285.732 230.936 C 285.061 232.778,284.339 234.552,284.127 234.877 C 283.916 235.202,283.292 236.355,282.742 237.438 C 282.191 238.522,281.224 240.296,280.592 241.379 C 279.961 242.463,279.172 243.916,278.839 244.609 C 278.506 245.301,277.990 246.011,277.693 246.185 C 277.395 246.360,276.858 247.034,276.499 247.685 C 276.140 248.335,275.229 249.665,274.475 250.640 C 273.720 251.616,272.899 252.809,272.649 253.293 C 272.400 253.776,271.868 254.276,271.467 254.403 C 271.067 254.530,270.739 254.760,270.739 254.914 C 270.739 255.546,263.277 263.325,261.017 265.049 C 260.274 265.615,258.992 266.728,258.167 267.522 C 256.516 269.111,255.361 270.041,253.191 271.527 C 252.400 272.069,251.169 273.000,250.455 273.596 C 249.741 274.192,248.980 274.680,248.765 274.680 C 248.549 274.680,248.150 274.948,247.878 275.276 C 247.606 275.603,246.632 276.204,245.713 276.610 C 244.794 277.017,243.924 277.541,243.778 277.777 C 243.633 278.012,242.768 278.559,241.856 278.994 C 240.943 279.428,239.931 279.949,239.606 280.152 C 238.601 280.780,234.733 282.499,233.695 282.780 C 233.153 282.926,232.355 283.361,231.921 283.746 C 231.488 284.131,230.183 284.645,229.021 284.888 C 227.860 285.131,226.483 285.665,225.962 286.075 C 225.399 286.518,224.019 286.931,222.557 287.093 C 221.205 287.243,219.667 287.640,219.140 287.975 C 218.587 288.327,215.837 288.880,212.637 289.283 C 209.588 289.666,205.675 290.191,203.941 290.449 C 200.593 290.947,197.010 290.770,192.242 289.872 C 190.657 289.574,187.973 289.204,186.278 289.049 C 181.324 288.599,179.668 286.377,181.904 283.184 C 183.209 281.321,180.745 280.654,176.513 281.725 C 174.909 282.131,172.355 282.592,170.837 282.749 C 165.015 283.351,163.695 286.016,167.085 290.325 C 167.523 290.882,167.882 291.610,167.882 291.943 C 167.882 292.276,168.192 292.889,168.571 293.305 C 168.951 293.720,169.527 294.879,169.852 295.879 C 170.965 299.302,173.681 300.000,174.819 297.156 C 175.340 295.853,175.643 295.569,176.496 295.580 C 178.324 295.605,182.412 296.625,183.477 297.323 C 184.151 297.764,185.551 298.049,187.524 298.145 L 190.542 298.293 188.177 297.919 C 186.877 297.713,185.015 297.204,184.039 296.788 C 183.064 296.372,181.421 295.906,180.389 295.754 C 179.357 295.601,178.416 295.319,178.297 295.127 C 177.606 294.009,175.376 294.796,174.541 296.453 C 173.454 298.609,173.609 298.508,172.246 297.943 C 171.382 297.585,170.889 296.968,170.394 295.624 C 170.022 294.617,169.509 293.527,169.254 293.202 C 168.998 292.877,168.115 291.247,167.292 289.581 C 164.939 284.816,165.730 283.780,172.217 283.139 C 173.626 283.000,175.893 282.619,177.256 282.293 C 180.955 281.408,181.468 281.910,180.424 285.394 C 179.714 287.762,180.895 288.737,185.343 289.457 C 187.223 289.761,189.427 290.201,190.242 290.435 C 192.474 291.076,203.481 291.378,206.897 290.891 C 215.141 289.717,219.474 288.905,220.606 288.319 C 221.295 287.963,222.704 287.565,223.737 287.435 C 224.770 287.304,226.148 286.896,226.798 286.528 C 227.448 286.159,228.852 285.638,229.916 285.370 C 230.981 285.102,232.291 284.538,232.827 284.116 C 233.362 283.695,234.098 283.350,234.461 283.350 C 235.189 283.350,241.673 280.152,244.385 278.456 C 249.307 275.377,256.031 270.843,256.986 269.959 C 259.275 267.840,261.268 266.169,262.463 265.365 C 264.524 263.979,273.426 254.571,276.133 250.919 C 276.743 250.097,277.818 248.706,278.522 247.828 C 279.227 246.949,279.803 245.976,279.803 245.665 C 279.803 245.353,280.075 244.994,280.408 244.866 C 280.740 244.739,281.342 243.991,281.746 243.204 C 282.149 242.417,282.889 240.975,283.391 240.000 C 283.892 239.025,284.517 238.007,284.779 237.738 C 285.041 237.469,285.382 236.671,285.536 235.965 C 285.691 235.258,286.138 234.270,286.531 233.769 C 286.923 233.268,287.454 231.850,287.710 230.617 C 287.966 229.385,288.487 227.979,288.869 227.494 C 289.251 227.009,289.683 225.651,289.830 224.476 C 289.977 223.302,290.428 221.469,290.832 220.404 C 291.237 219.339,291.762 216.441,291.999 213.963 C 292.235 211.485,292.599 208.749,292.806 207.882 C 293.310 205.775,293.302 199.637,292.791 197.000 C 292.565 195.832,292.151 192.926,291.871 190.542 C 291.591 188.158,291.077 185.586,290.727 184.828 C 290.378 184.069,289.906 182.399,289.678 181.116 C 289.450 179.833,289.018 178.503,288.717 178.160 C 287.936 177.269,286.814 173.098,287.107 172.174 C 287.243 171.746,289.867 168.867,292.938 165.777 C 299.401 159.275,300.357 158.883,301.354 162.326 C 301.630 163.278,302.095 164.342,302.387 164.689 C 302.679 165.036,303.141 166.118,303.414 167.094 C 303.687 168.069,304.157 169.254,304.458 169.726 C 304.760 170.198,305.124 171.351,305.269 172.288 C 305.413 173.224,305.837 174.788,306.212 175.764 C 306.587 176.739,307.012 178.778,307.158 180.296 C 307.304 181.813,307.701 185.600,308.041 188.711 C 308.602 193.844,308.603 194.849,308.045 199.549 C 307.706 202.398,307.313 206.138,307.171 207.860 C 307.030 209.581,306.591 211.999,306.197 213.233 C 305.803 214.466,305.353 216.326,305.197 217.366 C 305.041 218.406,304.598 219.800,304.211 220.466 C 303.825 221.131,303.386 222.519,303.236 223.551 C 303.086 224.584,302.644 225.834,302.253 226.331 C 301.862 226.828,301.420 227.934,301.270 228.789 C 301.121 229.645,300.595 230.966,300.101 231.724 C 299.608 232.483,299.083 233.624,298.936 234.259 C 298.789 234.895,298.236 235.928,297.708 236.555 C 297.181 237.183,296.749 237.927,296.749 238.209 C 296.749 238.491,296.484 238.941,296.159 239.210 C 295.835 239.479,295.366 240.381,295.116 241.215 C 294.866 242.049,294.245 243.122,293.735 243.601 C 293.225 244.080,292.808 244.682,292.808 244.937 C 292.808 245.193,292.365 245.881,291.823 246.465 C 291.281 247.050,290.837 247.843,290.837 248.227 C 290.837 248.612,290.394 249.343,289.852 249.852 C 289.310 250.361,288.867 250.989,288.867 251.247 C 288.867 251.505,288.337 252.316,287.689 253.050 C 287.040 253.784,286.408 254.695,286.283 255.074 C 286.158 255.453,285.911 255.764,285.736 255.764 C 285.560 255.764,285.195 256.296,284.926 256.946 C 284.657 257.596,284.312 258.128,284.160 258.128 C 284.008 258.128,283.126 259.059,282.201 260.197 C 275.966 267.864,260.764 281.158,255.889 283.205 C 255.199 283.495,254.515 283.927,254.368 284.165 C 254.221 284.403,253.364 284.913,252.463 285.299 C 251.563 285.685,250.585 286.291,250.291 286.646 C 249.997 287.000,249.464 287.291,249.107 287.291 C 248.751 287.291,247.841 287.709,247.087 288.220 C 246.332 288.731,245.283 289.286,244.755 289.452 C 244.228 289.618,243.005 290.175,242.037 290.690 C 241.069 291.205,240.014 291.626,239.692 291.626 C 239.371 291.626,238.555 291.961,237.879 292.371 C 237.203 292.781,235.682 293.319,234.499 293.567 C 233.316 293.814,232.056 294.281,231.700 294.603 C 231.344 294.925,229.652 295.438,227.940 295.744 C 226.228 296.049,224.277 296.577,223.605 296.918 C 222.495 297.480,219.152 297.934,207.140 299.158 C 204.386 299.438,202.079 299.423,199.259 299.105 C 197.065 298.859,194.207 298.581,192.906 298.489 L 190.542 298.321 192.315 298.975 C 194.655 299.837,211.686 300.005,214.187 299.191 C 215.054 298.909,217.495 298.518,219.611 298.321 C 221.896 298.108,224.188 297.641,225.255 297.169 C 226.242 296.732,227.969 296.264,229.092 296.130 C 230.214 295.995,231.608 295.551,232.188 295.144 C 232.769 294.736,234.010 294.289,234.947 294.151 C 235.884 294.012,237.224 293.572,237.925 293.173 C 238.626 292.774,239.950 292.245,240.867 291.999 C 241.784 291.752,242.963 291.212,243.488 290.799 C 244.012 290.387,244.747 290.049,245.121 290.049 C 245.495 290.049,246.428 289.624,247.195 289.103 C 247.962 288.583,248.980 288.034,249.458 287.882 C 249.936 287.730,250.955 287.180,251.721 286.660 C 252.488 286.140,253.334 285.714,253.603 285.714 C 253.871 285.714,254.332 285.424,254.626 285.069 C 254.920 284.715,255.876 284.118,256.749 283.744 C 257.622 283.370,258.577 282.773,258.872 282.418 C 259.166 282.064,259.583 281.773,259.799 281.773 C 260.015 281.773,260.776 281.286,261.489 280.690 C 262.203 280.094,263.440 279.163,264.239 278.621 C 265.956 277.456,267.549 276.143,269.379 274.384 C 270.113 273.680,270.864 273.103,271.049 273.103 C 271.720 273.103,281.347 263.355,284.476 259.507 C 286.238 257.340,287.992 255.225,288.372 254.808 C 288.753 254.391,289.419 253.489,289.852 252.804 C 290.286 252.118,291.172 250.796,291.823 249.864 C 294.084 246.625,295.159 244.920,295.558 243.941 C 295.779 243.399,296.142 242.690,296.364 242.365 C 296.587 242.039,297.134 241.005,297.580 240.065 C 298.026 239.126,298.731 238.018,299.146 237.602 C 299.562 237.187,299.901 236.428,299.901 235.915 C 299.901 235.403,300.237 234.556,300.648 234.034 C 301.058 233.513,301.665 232.203,301.996 231.124 C 302.328 230.045,302.967 228.460,303.418 227.601 C 303.868 226.743,304.236 225.674,304.236 225.226 C 304.236 224.778,304.512 224.018,304.849 223.537 C 305.186 223.056,305.735 221.210,306.070 219.435 C 306.405 217.660,306.914 215.842,307.201 215.395 C 307.488 214.947,307.935 212.453,308.195 209.852 C 308.455 207.251,308.831 204.810,309.031 204.427 C 310.202 202.184,310.200 186.754,309.028 184.543 C 308.824 184.158,308.449 181.892,308.196 179.507 C 307.941 177.111,307.475 174.772,307.153 174.277 C 306.833 173.784,306.385 172.365,306.157 171.124 C 305.930 169.883,305.421 168.246,305.027 167.488 C 303.688 164.907,301.872 160.839,301.872 160.419 C 301.872 159.678,300.323 158.424,299.409 158.424 C 298.787 158.424,296.549 160.400,291.921 165.035 M227.923 179.583 C 226.417 179.878,225.629 181.195,225.419 183.774 C 225.226 186.132,225.191 186.194,223.842 186.590 C 221.551 187.263,221.478 187.390,221.478 190.701 C 221.478 194.000,222.030 195.074,223.727 195.074 C 225.093 195.074,225.319 195.874,225.506 201.379 C 225.858 211.748,230.421 215.883,239.849 214.377 C 244.716 213.599,245.431 212.337,243.306 208.273 C 241.821 205.431,241.414 205.085,240.105 205.553 C 237.448 206.504,236.466 204.722,236.458 198.940 C 236.453 195.472,236.373 195.571,239.454 195.234 C 242.440 194.907,242.759 194.473,242.759 190.725 C 242.759 186.983,242.345 186.499,239.009 186.328 L 236.650 186.207 236.453 183.381 C 236.345 181.827,236.137 180.437,235.992 180.293 C 235.227 179.532,230.370 179.104,227.923 179.583 M234.039 181.133 C 235.260 181.377,235.271 181.400,235.271 183.831 C 235.271 186.945,235.812 187.498,239.021 187.662 L 241.379 187.783 241.501 189.930 C 241.708 193.581,241.513 193.892,239.007 193.892 C 235.574 193.892,235.271 194.407,235.271 200.236 L 235.271 205.005 236.642 206.376 C 237.827 207.561,238.231 207.730,239.632 207.629 C 241.560 207.490,241.925 207.948,242.068 210.683 L 242.167 212.571 240.394 212.909 C 237.474 213.467,233.016 212.961,231.709 211.923 C 231.094 211.434,230.144 210.722,229.598 210.339 C 228.192 209.354,227.760 207.476,227.501 201.205 C 227.252 195.187,227.392 195.534,224.267 193.172 C 222.436 191.788,222.826 188.014,224.837 187.649 C 226.502 187.346,227.389 186.007,227.389 183.793 C 227.389 180.990,229.367 180.199,234.039 181.133 M142.200 185.381 C 141.621 185.683,140.380 186.057,139.441 186.213 C 137.522 186.531,136.568 186.962,135.418 188.034 C 134.985 188.438,134.397 188.768,134.113 188.768 C 133.829 188.768,133.596 188.921,133.596 189.107 C 133.596 189.294,132.975 190.105,132.217 190.909 C 131.458 191.713,130.837 192.632,130.837 192.950 C 130.837 193.268,130.459 194.270,129.997 195.176 C 128.813 197.498,128.813 202.248,129.997 204.521 C 130.459 205.407,130.837 206.361,130.837 206.640 C 130.837 207.647,133.447 210.557,135.707 212.070 C 140.178 215.063,150.521 215.431,154.151 212.726 C 158.756 209.293,159.831 206.321,156.946 204.999 C 156.133 204.626,155.025 204.036,154.483 203.686 C 152.551 202.440,150.670 202.470,149.657 203.765 C 148.658 205.041,146.189 205.626,143.742 205.167 C 141.050 204.662,139.085 199.429,140.854 197.475 C 141.197 197.095,141.478 196.593,141.478 196.357 C 141.478 195.708,144.963 193.898,145.731 194.149 C 147.591 194.759,149.168 195.659,149.932 196.548 C 150.914 197.690,152.581 197.564,154.117 196.232 C 154.601 195.812,155.301 195.468,155.672 195.468 C 156.983 195.468,158.424 193.925,158.424 192.522 C 158.424 191.234,156.435 188.374,155.539 188.374 C 155.333 188.374,154.780 187.959,154.309 187.452 C 153.818 186.922,152.773 186.420,151.853 186.273 C 150.973 186.132,149.741 185.751,149.116 185.425 C 147.684 184.678,143.597 184.652,142.200 185.381 M172.611 185.408 C 172.069 185.713,170.916 186.076,170.049 186.215 C 169.182 186.354,167.735 186.986,166.832 187.618 C 165.930 188.251,165.079 188.768,164.941 188.768 C 164.409 188.768,162.671 191.019,161.897 192.709 C 161.450 193.685,160.801 194.807,160.453 195.204 C 159.373 196.436,159.542 203.324,160.690 204.877 C 161.177 205.537,161.576 206.323,161.576 206.624 C 161.576 210.912,171.833 215.578,178.719 214.423 C 180.020 214.205,181.724 213.926,182.507 213.804 C 183.291 213.681,184.249 213.229,184.638 212.800 C 185.026 212.371,185.504 212.020,185.700 212.020 C 186.288 212.020,189.163 209.559,189.163 209.056 C 189.163 208.798,189.575 208.143,190.080 207.598 C 191.385 206.190,192.571 200.011,191.979 197.703 C 191.747 196.799,191.438 195.438,191.293 194.680 C 190.731 191.754,185.319 186.416,182.892 186.395 C 182.331 186.391,181.099 186.036,180.154 185.607 C 178.115 184.682,174.094 184.576,172.611 185.408 M204.532 185.405 C 203.990 185.708,202.694 186.074,201.652 186.220 C 200.475 186.384,199.371 186.842,198.737 187.429 C 198.176 187.949,197.581 188.374,197.415 188.374 C 197.249 188.374,196.565 189.119,195.896 190.028 C 193.369 193.464,194.904 201.773,198.066 201.773 C 198.340 201.773,198.851 202.060,199.201 202.410 C 199.979 203.188,202.147 203.722,204.581 203.734 C 207.676 203.750,208.679 204.098,209.138 205.312 C 209.541 206.380,209.506 206.426,208.118 206.648 C 206.468 206.911,202.836 206.421,202.085 205.833 C 201.112 205.072,198.187 204.567,197.244 204.997 C 194.754 206.131,193.835 211.364,195.862 212.869 C 198.286 214.668,212.540 215.011,215.279 213.336 C 219.387 210.825,221.172 207.570,220.509 203.802 C 219.705 199.233,217.239 197.219,211.633 196.549 C 208.258 196.147,205.004 194.723,205.526 193.878 C 205.923 193.234,212.301 193.419,213.642 194.112 C 215.597 195.123,216.825 194.735,217.747 192.814 C 218.188 191.897,218.765 190.930,219.028 190.666 C 220.657 189.037,219.379 187.008,216.328 186.379 C 215.150 186.136,213.427 185.687,212.499 185.382 C 210.339 184.673,205.821 184.686,204.532 185.405 M256.716 185.387 C 256.048 185.678,254.560 186.118,253.410 186.365 C 250.693 186.948,248.779 188.625,247.389 191.645 C 244.553 197.805,248.607 203.018,256.769 203.707 C 260.537 204.025,261.441 204.382,261.783 205.689 C 262.148 207.088,256.425 207.191,254.316 205.824 C 252.113 204.397,247.882 204.813,247.882 206.458 C 247.882 206.814,247.527 207.767,247.094 208.576 C 246.660 209.385,246.305 210.295,246.305 210.598 C 246.305 211.031,248.771 213.596,249.188 213.596 C 249.241 213.596,251.427 213.861,254.045 214.185 C 263.843 215.398,269.660 213.508,272.281 208.260 C 274.947 202.922,270.990 197.388,263.942 196.598 C 261.706 196.348,259.915 195.926,259.310 195.507 C 258.768 195.131,257.975 194.693,257.548 194.533 C 256.070 193.982,257.784 193.510,261.287 193.504 C 263.888 193.499,264.970 193.673,266.100 194.279 C 267.935 195.262,268.374 195.084,269.899 192.731 C 272.333 188.974,271.646 186.779,267.867 186.231 C 266.829 186.080,265.371 185.703,264.628 185.392 C 262.939 184.687,258.332 184.684,256.716 185.387 M215.670 187.458 C 217.466 187.737,217.818 188.646,217.017 190.936 C 216.396 192.715,217.344 192.554,209.261 192.246 C 203.867 192.040,202.404 193.156,204.556 195.833 C 205.746 197.314,205.808 197.337,209.187 197.586 C 212.860 197.855,215.823 199.013,217.886 200.985 C 219.478 202.508,219.443 207.759,217.833 208.932 C 217.236 209.366,216.749 209.972,216.749 210.279 C 216.749 210.586,216.438 210.838,216.059 210.839 C 215.680 210.841,214.660 211.278,213.793 211.812 C 211.359 213.311,200.985 213.319,198.780 211.823 C 197.982 211.281,196.999 210.837,196.595 210.837 C 195.681 210.837,195.683 210.756,196.649 209.172 C 197.081 208.462,197.436 207.483,197.437 206.995 C 197.439 205.863,198.305 205.852,199.812 206.965 C 201.268 208.042,208.762 208.488,210.443 207.597 C 213.272 206.099,211.553 203.090,207.655 202.714 C 198.051 201.788,193.856 197.437,196.903 191.563 C 197.476 190.460,198.087 189.557,198.262 189.557 C 198.437 189.557,199.049 189.122,199.623 188.590 C 200.237 188.021,201.340 187.536,202.304 187.411 C 203.204 187.294,204.473 187.124,205.123 187.032 C 206.499 186.840,213.506 187.123,215.670 187.458 M268.571 187.516 C 270.857 188.134,269.319 193.525,267.022 192.948 C 262.603 191.839,257.241 192.021,256.297 193.313 C 254.800 195.360,257.033 197.052,261.811 197.491 C 264.706 197.758,266.009 198.068,267.111 198.754 C 267.914 199.254,268.864 199.771,269.223 199.903 C 272.411 201.076,270.941 211.232,267.584 211.232 C 267.351 211.232,266.620 211.631,265.961 212.118 C 264.171 213.441,253.273 213.441,250.837 212.118 C 248.111 210.637,248.198 210.777,248.675 208.647 C 249.289 205.910,250.480 205.384,252.568 206.928 C 255.515 209.106,263.793 207.939,263.340 205.409 C 263.002 203.518,262.258 203.065,258.994 202.768 C 257.326 202.616,255.184 202.153,254.236 201.739 C 253.287 201.324,252.322 200.985,252.093 200.985 C 247.590 200.985,246.860 192.278,251.090 189.008 C 253.774 186.933,263.382 186.113,268.571 187.516 M150.567 187.536 C 151.570 187.702,152.746 188.214,153.227 188.695 C 153.701 189.169,154.355 189.557,154.680 189.557 C 155.005 189.557,155.271 189.795,155.271 190.087 C 155.271 190.378,155.621 190.933,156.048 191.320 C 158.364 193.416,152.118 195.900,149.648 193.865 C 147.090 191.756,143.537 191.858,141.290 194.106 C 135.399 199.997,141.807 210.410,148.670 206.100 C 149.700 205.454,150.542 204.748,150.542 204.531 C 150.542 203.914,152.755 204.071,153.299 204.727 C 153.568 205.051,154.476 205.523,155.318 205.775 C 157.395 206.397,156.522 210.837,154.323 210.837 C 154.127 210.837,153.417 211.253,152.747 211.760 C 150.553 213.420,142.262 213.956,139.453 212.619 C 134.030 210.039,132.000 207.719,131.160 203.143 C 130.499 199.542,131.318 194.533,132.831 192.922 C 135.001 190.612,136.598 189.166,136.983 189.164 C 137.221 189.163,137.727 188.817,138.109 188.395 C 138.521 187.940,139.470 187.567,140.437 187.479 C 143.433 187.206,148.748 187.236,150.567 187.536 M181.636 187.561 C 182.589 187.745,183.529 188.181,183.724 188.529 C 183.919 188.878,184.321 189.163,184.617 189.163 C 185.284 189.163,188.374 191.999,188.374 192.611 C 188.374 192.857,188.773 193.338,189.261 193.680 C 190.605 194.621,190.626 204.352,189.287 205.781 C 188.814 206.286,188.242 207.187,188.016 207.783 C 187.790 208.379,187.356 208.867,187.050 208.867 C 186.745 208.867,186.204 209.310,185.849 209.852 C 185.494 210.394,184.966 210.837,184.676 210.837 C 184.387 210.837,183.460 211.318,182.617 211.905 C 178.460 214.802,169.252 213.089,164.953 208.620 C 159.989 203.459,161.304 192.352,167.242 189.283 C 167.919 188.934,168.650 188.420,168.867 188.141 C 169.549 187.266,178.095 186.878,181.636 187.561 M174.263 192.685 C 173.546 192.865,172.660 193.308,172.293 193.668 C 171.926 194.027,171.306 194.540,170.914 194.807 C 170.034 195.407,169.467 197.735,169.507 200.591 C 169.552 203.833,169.888 204.608,171.641 205.506 C 172.499 205.946,173.390 206.545,173.620 206.838 C 174.344 207.760,177.522 207.896,178.383 207.041 C 178.791 206.636,179.609 206.088,180.202 205.821 C 180.796 205.555,181.281 205.126,181.281 204.867 C 181.281 204.609,181.563 204.085,181.907 203.705 C 183.352 202.109,183.357 197.882,181.917 196.442 C 181.567 196.092,181.281 195.586,181.281 195.317 C 181.281 193.452,177.237 191.935,174.263 192.685 M178.294 194.785 C 182.178 196.997,181.535 204.650,177.419 205.202 C 170.658 206.109,168.212 198.439,174.105 194.815 C 175.929 193.693,176.372 193.690,178.294 194.785 M134.081 225.354 C 133.346 225.821,132.808 228.057,132.808 230.643 L 132.808 232.917 131.034 233.778 C 130.059 234.252,129.261 234.782,129.261 234.955 C 129.261 235.129,128.552 235.271,127.685 235.271 C 126.818 235.271,126.108 235.096,126.108 234.882 C 126.108 234.668,125.443 234.049,124.631 233.507 C 123.818 232.964,122.798 232.271,122.365 231.966 C 120.179 230.427,117.922 231.613,114.095 236.311 C 112.029 238.847,111.938 239.885,113.594 242.003 C 114.083 242.628,114.882 243.658,115.369 244.292 C 117.843 247.507,114.487 251.813,109.502 251.820 C 106.571 251.825,106.207 252.586,106.207 258.717 C 106.207 264.864,106.381 265.222,109.380 265.222 C 112.548 265.222,114.680 265.679,114.681 266.359 C 114.682 266.709,115.037 267.576,115.469 268.285 C 116.471 269.929,116.471 271.351,115.468 272.210 C 115.034 272.581,114.680 273.185,114.680 273.552 C 114.680 273.919,114.225 274.552,113.668 274.957 C 111.381 276.623,111.814 278.475,115.326 282.052 C 120.265 287.085,120.240 287.084,125.678 282.563 C 126.891 281.554,128.355 281.563,129.852 282.588 C 130.502 283.033,131.411 283.550,131.870 283.738 C 132.608 284.039,132.727 284.474,132.882 287.430 C 133.127 292.110,132.998 292.020,139.495 292.020 C 145.844 292.020,145.995 291.937,146.389 288.276 C 146.795 284.486,146.890 284.287,148.898 282.999 C 151.457 281.357,152.101 281.437,155.109 283.771 C 158.024 286.034,159.534 286.350,160.914 284.988 C 168.064 277.932,168.099 277.855,165.539 274.756 C 164.878 273.955,163.982 272.873,163.548 272.351 C 162.484 271.072,162.554 269.923,163.836 267.627 C 165.000 265.542,165.832 265.222,170.076 265.222 C 173.006 265.222,173.678 263.470,173.299 256.820 C 173.067 252.749,172.452 251.823,169.983 251.823 C 165.312 251.823,160.363 246.695,163.251 244.847 C 164.075 244.320,166.711 240.683,166.945 239.750 C 167.235 238.593,166.947 238.141,163.934 235.029 C 159.803 230.763,158.232 230.323,155.687 232.719 C 152.594 235.631,151.441 235.851,148.757 234.040 C 146.664 232.627,146.740 232.782,146.397 229.226 C 146.006 225.178,145.756 225.023,139.606 225.031 C 136.842 225.034,134.356 225.179,134.081 225.354 M144.694 226.506 C 144.967 226.779,145.377 228.464,145.605 230.250 L 146.020 233.498 147.931 234.778 C 150.290 236.359,152.432 236.495,154.124 235.172 C 159.170 231.228,159.028 231.206,164.028 236.654 L 166.283 239.111 165.034 241.033 C 164.348 242.091,163.377 243.457,162.878 244.070 C 160.277 247.262,163.182 251.968,168.036 252.422 C 172.436 252.835,172.414 252.803,172.414 258.668 C 172.414 264.524,172.484 264.418,168.427 264.710 C 162.386 265.145,160.406 269.445,164.137 274.025 C 167.265 277.865,167.272 277.809,163.219 281.835 C 159.720 285.310,158.649 285.874,157.565 284.809 C 152.183 279.523,146.641 280.715,146.026 287.291 C 145.625 291.577,145.552 291.626,139.495 291.626 C 133.585 291.626,133.583 291.624,133.331 287.787 C 133.072 283.839,132.947 283.511,131.333 282.537 C 129.512 281.439,126.029 281.240,125.239 282.190 C 124.480 283.103,121.971 284.871,120.803 285.315 C 119.852 285.676,119.524 285.451,116.244 282.176 C 111.801 277.742,111.823 278.095,115.679 273.231 C 116.965 271.610,117.015 269.782,115.839 267.428 C 114.682 265.111,115.016 265.285,110.922 264.870 C 106.694 264.441,106.812 264.623,106.804 258.472 C 106.797 252.610,106.674 252.795,110.947 252.265 C 115.871 251.653,118.685 247.219,116.147 244.070 C 112.350 239.358,112.356 239.179,116.437 235.079 C 120.341 231.158,120.856 231.166,125.398 235.218 C 128.092 237.622,133.577 234.722,133.590 230.887 C 133.599 228.025,134.014 226.571,134.933 226.181 C 136.192 225.647,144.099 225.910,144.694 226.506 M134.187 245.531 C 124.736 250.211,122.776 261.253,130.133 268.371 C 137.247 275.253,148.817 272.749,152.613 263.506 C 154.426 259.090,154.186 256.562,151.395 250.695 C 148.907 245.466,139.823 242.740,134.187 245.531 M143.431 245.698 C 143.823 246.053,144.770 246.516,145.536 246.728 C 147.384 247.238,151.186 251.036,151.538 252.724 C 151.683 253.420,152.059 254.397,152.375 254.895 C 153.385 256.489,153.487 259.337,152.603 261.301 C 152.169 262.265,151.700 263.586,151.560 264.236 C 151.305 265.430,149.263 267.792,147.011 269.498 C 143.467 272.184,135.826 272.139,132.249 269.411 C 131.502 268.841,130.713 268.374,130.496 268.374 C 130.280 268.374,129.996 268.039,129.866 267.630 C 129.736 267.221,129.194 266.415,128.661 265.840 C 128.128 265.265,127.589 264.314,127.464 263.727 C 127.338 263.140,126.982 261.945,126.672 261.071 C 125.713 258.366,126.873 252.960,128.869 250.835 C 129.302 250.375,129.655 249.800,129.655 249.558 C 129.655 249.315,130.010 249.005,130.444 248.867 C 130.877 248.729,131.399 248.305,131.603 247.924 C 131.807 247.544,132.737 247.006,133.671 246.730 C 134.605 246.454,135.635 245.997,135.961 245.716 C 137.292 244.563,142.164 244.552,143.431 245.698 " stroke="none" fill="#9cc7f5" fill-rule="evenodd"></path>
    <path id="path4" d="M95.784 182.229 C 95.483 182.790,95.341 183.354,95.468 183.481 C 95.770 183.783,96.644 182.149,96.467 181.616 C 96.392 181.391,96.084 181.667,95.784 182.229 M108.642 188.374 C 108.316 192.537,108.809 199.955,109.501 201.303 C 109.690 201.670,109.962 203.452,110.107 205.264 C 110.297 207.634,110.643 209.069,111.343 210.384 C 111.878 211.388,112.315 212.823,112.315 213.572 C 112.315 214.376,112.712 215.506,113.286 216.333 C 113.891 217.207,114.355 218.576,114.519 219.972 L 114.782 222.210 109.115 227.887 C 102.685 234.329,102.013 234.621,101.059 231.389 C 100.783 230.455,100.292 229.483,99.967 229.230 C 99.643 228.976,99.172 227.749,98.922 226.503 C 98.671 225.257,98.246 224.015,97.976 223.744 C 97.706 223.473,97.267 221.921,96.999 220.296 C 96.731 218.670,96.255 216.947,95.941 216.468 C 94.931 214.924,94.265 202.157,94.693 192.512 C 94.808 189.911,94.824 188.404,94.728 189.163 C 94.632 189.921,94.294 191.974,93.976 193.725 C 93.316 197.366,93.229 203.236,93.784 206.700 C 93.992 208.000,94.341 210.971,94.559 213.301 C 94.777 215.631,95.206 218.025,95.512 218.621 C 95.817 219.217,96.286 220.768,96.552 222.069 C 96.819 223.369,97.371 225.091,97.780 225.896 C 98.188 226.700,98.522 227.651,98.522 228.009 C 98.522 228.368,98.869 229.306,99.294 230.094 C 99.718 230.882,100.319 232.166,100.629 232.947 C 101.685 235.609,103.138 235.383,106.303 232.064 C 107.767 230.528,110.333 227.940,112.005 226.313 C 115.467 222.943,116.207 221.442,115.283 219.669 C 114.954 219.038,114.684 218.188,114.682 217.781 C 114.681 217.373,114.323 216.461,113.886 215.755 C 113.450 215.049,112.905 213.458,112.677 212.219 C 112.448 210.981,111.926 209.321,111.517 208.531 C 110.531 206.627,109.482 198.498,109.194 190.542 L 108.966 184.236 108.642 188.374 M139.901 195.074 C 139.468 195.507,139.119 196.084,139.125 196.355 C 139.132 196.626,139.341 196.493,139.589 196.059 C 139.838 195.626,140.320 195.055,140.661 194.791 C 141.002 194.527,141.148 194.305,140.985 194.298 C 140.823 194.291,140.335 194.640,139.901 195.074 M130.939 198.325 C 130.709 199.459,130.783 201.018,131.170 203.153 C 131.996 207.717,134.029 210.039,139.457 212.621 C 140.755 213.238,149.515 213.572,150.062 213.025 C 150.182 212.906,148.060 212.808,145.348 212.808 C 140.966 212.808,140.341 212.723,139.725 212.042 C 139.343 211.621,138.476 211.154,137.797 211.005 C 133.890 210.147,130.551 203.418,131.436 198.185 C 131.787 196.106,131.364 196.226,130.939 198.325 M138.841 200.000 C 138.844 201.300,138.917 201.785,139.005 201.077 C 139.093 200.368,139.091 199.304,139.001 198.712 C 138.911 198.120,138.839 198.700,138.841 200.000 M139.125 202.883 C 139.085 204.635,143.187 207.685,145.584 207.685 C 147.166 207.685,148.571 207.112,148.571 206.466 C 148.571 206.245,148.177 206.340,147.696 206.677 C 145.585 208.156,141.451 206.357,139.593 203.151 C 139.342 202.718,139.132 202.598,139.125 202.883 M149.866 205.165 C 148.798 206.320,149.176 206.418,150.371 205.295 C 151.192 204.524,151.313 204.514,152.711 205.098 C 154.642 205.905,154.794 205.876,153.587 204.926 C 152.285 203.902,150.955 203.988,149.866 205.165 M156.059 207.249 C 156.059 208.577,154.649 210.160,152.167 211.619 C 151.251 212.157,150.683 212.658,150.904 212.732 C 151.126 212.805,151.905 212.409,152.636 211.852 C 153.368 211.294,154.127 210.837,154.323 210.837 C 154.519 210.837,155.167 210.226,155.764 209.479 C 156.821 208.153,157.240 206.108,156.453 206.108 C 156.236 206.108,156.059 206.622,156.059 207.249 M163.536 207.140 C 165.128 208.994,167.094 210.823,167.094 210.450 C 167.094 210.259,166.572 209.732,165.935 209.278 C 165.297 208.824,164.679 208.146,164.560 207.772 C 164.441 207.398,163.943 206.847,163.453 206.548 C 162.593 206.024,162.596 206.045,163.536 207.140 M167.882 210.917 C 168.794 211.739,171.154 212.848,170.443 212.120 C 170.010 211.677,169.212 211.185,168.670 211.027 C 168.128 210.869,167.773 210.819,167.882 210.917 M181.730 212.033 C 180.508 213.051,181.060 213.039,182.356 212.020 C 182.907 211.586,183.201 211.237,183.009 211.245 C 182.817 211.252,182.241 211.607,181.730 212.033 M174.298 213.098 C 175.334 213.179,176.930 213.179,177.844 213.096 C 178.759 213.013,177.911 212.947,175.961 212.948 C 174.010 212.949,173.262 213.017,174.298 213.098 M134.933 226.181 C 134.014 226.571,133.599 228.025,133.590 230.887 C 133.577 234.722,128.092 237.622,125.398 235.218 C 120.856 231.166,120.341 231.158,116.437 235.079 C 112.356 239.179,112.350 239.358,116.147 244.070 C 118.685 247.219,115.871 251.653,110.947 252.265 C 106.674 252.795,106.797 252.610,106.804 258.472 C 106.812 264.623,106.694 264.441,110.922 264.870 C 115.016 265.285,114.682 265.111,115.839 267.428 C 117.015 269.782,116.965 271.610,115.679 273.231 C 111.823 278.095,111.801 277.742,116.244 282.176 C 119.524 285.451,119.852 285.676,120.803 285.315 C 121.971 284.871,124.480 283.103,125.239 282.190 C 126.029 281.240,129.512 281.439,131.333 282.537 C 132.947 283.511,133.072 283.839,133.331 287.787 C 133.583 291.624,133.585 291.626,139.495 291.626 C 145.552 291.626,145.625 291.577,146.026 287.291 C 146.641 280.715,152.183 279.523,157.565 284.809 C 158.649 285.874,159.720 285.310,163.219 281.835 C 167.272 277.809,167.265 277.865,164.137 274.025 C 160.406 269.445,162.386 265.145,168.427 264.710 C 172.484 264.418,172.414 264.524,172.414 258.668 C 172.414 252.803,172.436 252.835,168.036 252.422 C 163.182 251.968,160.277 247.262,162.878 244.070 C 163.377 243.457,164.348 242.091,165.034 241.033 L 166.283 239.111 164.028 236.654 C 159.028 231.206,159.170 231.228,154.124 235.172 C 152.432 236.495,150.290 236.359,147.931 234.778 L 146.020 233.498 145.605 230.250 C 145.377 228.464,144.967 226.779,144.694 226.506 C 144.099 225.910,136.192 225.647,134.933 226.181 M143.996 227.205 C 144.591 227.800,144.805 228.685,145.170 232.062 C 145.599 236.038,152.111 238.675,154.556 235.862 C 155.028 235.320,155.609 234.877,155.850 234.877 C 156.090 234.877,156.892 234.371,157.633 233.752 L 158.980 232.628 162.222 235.929 L 165.464 239.230 164.604 240.132 C 164.131 240.629,163.389 241.636,162.956 242.370 C 162.522 243.105,161.944 244.069,161.671 244.513 C 161.211 245.261,161.244 246.489,161.806 249.464 C 162.226 251.696,163.995 252.873,167.367 253.168 C 171.604 253.537,171.600 253.533,171.765 257.530 C 171.980 262.746,171.105 264.035,167.341 264.042 C 163.851 264.048,162.321 265.251,161.576 268.574 C 161.148 270.485,161.633 273.498,162.370 273.498 C 162.572 273.498,163.030 274.074,163.386 274.778 C 163.742 275.483,164.397 276.457,164.841 276.943 L 165.649 277.826 164.768 278.716 C 163.776 279.718,161.219 282.260,159.709 283.744 C 159.059 284.383,158.648 284.562,158.538 284.252 C 158.445 283.990,157.311 283.053,156.017 282.171 C 150.719 278.554,145.876 280.266,145.084 286.035 C 144.460 290.581,144.172 290.837,139.711 290.837 C 134.836 290.837,134.011 289.995,133.994 284.999 C 133.986 282.582,133.166 281.617,130.535 280.932 C 129.610 280.691,128.769 280.357,128.665 280.190 C 128.364 279.702,125.672 280.464,124.563 281.351 C 124.004 281.797,123.015 282.457,122.365 282.817 C 121.714 283.176,120.995 283.727,120.765 284.040 C 120.426 284.503,119.712 283.985,116.940 281.262 L 113.532 277.915 114.500 276.790 C 115.032 276.171,115.467 275.556,115.467 275.424 C 115.468 275.291,116.000 274.513,116.650 273.695 C 119.554 270.041,117.383 264.593,112.856 264.171 C 111.583 264.052,109.881 263.663,109.074 263.307 L 107.607 262.660 107.596 258.269 C 107.585 253.222,107.307 253.564,111.749 253.162 C 117.253 252.663,120.052 247.013,116.749 243.068 C 116.153 242.356,115.249 241.182,114.741 240.459 L 113.818 239.144 114.741 238.126 C 115.249 237.567,116.662 236.097,117.881 234.861 L 120.097 232.613 121.783 233.745 C 122.710 234.367,123.708 234.877,124.000 234.877 C 124.293 234.877,124.532 235.137,124.532 235.454 C 124.532 237.383,129.870 237.268,132.335 235.287 C 133.832 234.084,133.895 233.935,134.160 231.014 C 134.543 226.788,134.771 226.601,139.540 226.601 C 142.474 226.601,143.536 226.745,143.996 227.205 M135.115 243.805 C 134.541 243.904,133.760 244.330,133.379 244.751 C 132.998 245.173,132.432 245.517,132.122 245.517 C 131.373 245.517,126.502 250.214,126.502 250.936 C 126.502 251.247,126.171 251.922,125.767 252.437 C 123.432 255.405,125.313 267.586,128.107 267.586 C 128.308 267.586,128.473 267.797,128.473 268.055 C 128.473 268.633,131.618 271.527,132.246 271.527 C 132.497 271.527,133.205 271.923,133.820 272.407 C 138.108 275.780,150.705 271.662,152.317 266.360 C 152.474 265.842,152.982 265.005,153.444 264.500 C 154.717 263.111,154.722 253.942,153.451 252.544 C 152.991 252.039,152.497 251.125,152.352 250.513 C 152.055 249.259,149.000 246.101,147.679 245.681 C 147.203 245.530,146.311 245.035,145.696 244.581 C 144.581 243.756,138.130 243.283,135.115 243.805 M144.990 245.470 C 148.030 246.908,150.585 248.992,151.395 250.695 C 154.186 256.562,154.426 259.090,152.613 263.506 C 147.881 275.027,132.018 275.202,126.844 263.790 C 121.792 252.648,134.034 240.289,144.990 245.470 M276.133 250.950 C 273.243 254.767,264.479 264.008,262.463 265.365 C 261.268 266.169,259.275 267.840,256.986 269.959 C 256.031 270.843,249.307 275.377,244.385 278.456 C 241.673 280.152,235.189 283.350,234.461 283.350 C 234.098 283.350,233.362 283.695,232.827 284.116 C 232.291 284.538,230.981 285.102,229.916 285.370 C 228.852 285.638,227.448 286.159,226.798 286.528 C 226.148 286.896,224.770 287.304,223.737 287.435 C 222.704 287.565,221.295 287.963,220.606 288.319 C 219.474 288.905,215.141 289.717,206.897 290.891 C 203.481 291.378,192.474 291.076,190.242 290.435 C 189.427 290.201,187.223 289.761,185.343 289.457 C 180.895 288.737,179.714 287.762,180.424 285.394 C 181.468 281.910,180.955 281.408,177.256 282.293 C 175.893 282.619,173.626 283.000,172.217 283.139 C 165.730 283.780,164.939 284.816,167.292 289.581 C 168.115 291.247,168.998 292.877,169.254 293.202 C 169.509 293.527,170.022 294.617,170.394 295.624 C 170.889 296.968,171.382 297.585,172.246 297.943 C 173.609 298.508,173.454 298.609,174.541 296.453 C 175.376 294.796,177.606 294.009,178.297 295.127 C 178.416 295.319,179.357 295.599,180.389 295.751 C 181.421 295.902,183.038 296.364,183.982 296.777 C 184.926 297.191,187.320 297.713,189.302 297.937 C 191.285 298.161,194.059 298.512,195.468 298.716 C 200.242 299.409,203.929 299.542,207.488 299.150 C 209.438 298.935,213.588 298.484,216.708 298.148 C 219.894 297.805,222.918 297.265,223.605 296.918 C 224.277 296.577,226.228 296.049,227.940 295.744 C 229.652 295.438,231.344 294.925,231.700 294.603 C 232.056 294.281,233.316 293.814,234.499 293.567 C 235.682 293.319,237.203 292.781,237.879 292.371 C 238.555 291.961,239.371 291.626,239.692 291.626 C 240.014 291.626,241.069 291.205,242.037 290.690 C 243.005 290.175,244.228 289.618,244.755 289.452 C 245.283 289.286,246.332 288.731,247.087 288.220 C 247.841 287.709,248.751 287.291,249.107 287.291 C 249.464 287.291,249.997 287.000,250.291 286.646 C 250.585 286.291,251.563 285.685,252.463 285.299 C 253.364 284.913,254.221 284.403,254.368 284.165 C 254.515 283.927,255.199 283.495,255.889 283.205 C 257.259 282.630,266.627 275.726,269.708 273.020 C 274.460 268.849,283.932 258.791,285.026 256.757 C 285.256 256.328,285.691 255.730,285.992 255.429 C 286.294 255.128,286.431 254.772,286.297 254.639 C 286.012 254.353,284.554 256.149,284.541 256.802 C 284.536 257.048,284.089 257.540,283.547 257.895 C 283.005 258.250,282.562 258.717,282.562 258.934 C 282.562 259.150,281.681 260.254,280.606 261.388 C 279.530 262.521,278.402 263.714,278.099 264.039 C 277.796 264.365,276.907 265.163,276.122 265.813 C 275.338 266.463,274.693 267.212,274.688 267.478 C 274.684 267.743,274.148 268.235,273.498 268.571 C 272.847 268.908,272.315 269.444,272.315 269.764 C 272.315 270.083,272.130 270.345,271.903 270.345 C 271.677 270.345,271.074 270.762,270.563 271.273 C 270.053 271.783,269.335 272.316,268.967 272.457 C 268.600 272.598,268.207 273.067,268.094 273.500 C 267.981 273.932,267.672 274.286,267.407 274.286 C 266.818 274.286,264.320 276.065,262.841 277.537 C 262.242 278.133,261.618 278.621,261.454 278.621 C 261.289 278.621,259.847 279.507,258.250 280.591 C 256.653 281.675,255.188 282.562,254.994 282.562 C 254.800 282.562,254.139 282.985,253.524 283.502 C 252.910 284.019,251.744 284.719,250.933 285.058 C 250.122 285.397,249.458 285.837,249.458 286.037 C 249.458 286.237,248.644 286.628,247.649 286.907 C 246.654 287.185,245.754 287.637,245.649 287.911 C 245.544 288.185,244.593 288.616,243.536 288.869 C 242.480 289.123,241.411 289.577,241.161 289.878 C 240.911 290.179,239.664 290.718,238.390 291.076 C 237.115 291.433,235.870 291.969,235.623 292.267 C 235.377 292.564,234.691 292.808,234.099 292.808 C 232.776 292.808,230.551 293.531,229.745 294.223 C 229.415 294.506,227.939 294.862,226.464 295.013 C 224.990 295.164,223.132 295.626,222.335 296.040 C 218.467 298.050,189.305 298.152,186.274 296.166 C 185.723 295.804,184.009 295.334,182.464 295.120 C 180.571 294.857,179.401 294.475,178.871 293.945 C 177.416 292.490,174.950 293.042,173.990 295.037 L 173.202 296.675 172.161 295.825 C 171.589 295.358,170.994 294.381,170.840 293.654 C 170.686 292.928,170.262 292.036,169.899 291.672 C 169.535 291.308,168.918 290.174,168.527 289.151 C 168.136 288.128,167.654 287.291,167.455 287.291 C 166.465 287.291,167.300 286.060,168.895 285.169 C 170.319 284.373,171.455 284.113,174.314 283.929 C 176.303 283.801,178.330 283.614,178.818 283.515 C 179.870 283.301,180.138 285.069,179.113 285.463 C 176.750 286.370,179.300 289.450,182.890 290.023 C 184.316 290.251,186.089 290.749,186.830 291.130 C 188.896 292.192,211.922 292.177,213.990 291.112 C 214.749 290.722,216.653 290.238,218.222 290.039 C 219.791 289.839,221.742 289.340,222.557 288.929 C 223.372 288.518,224.864 288.062,225.872 287.915 C 226.880 287.768,228.104 287.302,228.592 286.878 C 229.081 286.455,229.902 286.108,230.418 286.108 C 231.616 286.108,234.089 285.084,234.089 284.587 C 234.089 284.378,234.781 284.090,235.627 283.947 C 236.472 283.804,237.748 283.257,238.462 282.730 C 239.175 282.204,240.066 281.773,240.440 281.773 C 240.815 281.773,241.623 281.362,242.236 280.860 C 242.848 280.358,243.926 279.716,244.631 279.433 C 245.335 279.150,245.911 278.796,245.911 278.646 C 245.911 278.496,246.537 278.074,247.303 277.709 C 248.068 277.344,248.796 276.779,248.921 276.454 C 249.046 276.128,249.478 275.862,249.881 275.862 C 250.283 275.862,251.219 275.330,251.959 274.680 C 252.700 274.030,253.437 273.498,253.596 273.498 C 253.756 273.498,254.530 272.959,255.317 272.302 C 256.105 271.644,257.008 270.890,257.326 270.627 C 264.491 264.678,269.116 260.498,269.145 259.943 C 269.154 259.750,269.676 259.040,270.304 258.367 C 271.438 257.150,274.857 253.221,276.552 251.186 C 277.301 250.286,277.700 249.420,277.340 249.472 C 277.286 249.480,276.743 250.145,276.133 250.950 M287.400 252.709 C 286.182 254.285,286.343 254.661,287.611 253.202 C 288.082 252.660,288.313 252.217,288.124 252.217 C 287.936 252.217,287.610 252.438,287.400 252.709 " stroke="none" fill="#b460f2" fill-rule="evenodd"></path>
  </g>
</svg>
