<?xml version="1.0" encoding="UTF-8"?>
<svg xmlns="http://www.w3.org/2000/svg" width="38.9999" height="35.75" viewBox="0 0 38.9999 35.75">
  <path d="M35.89,3.25c-.0471,0-.0927.0118-.14.014V3.25A3.2538,3.2538,0,0,0,32.5,0H3.25A3.2538,3.2538,0,0,0,0,3.25V34.9375a.8129.8129,0,0,0,.5014.7506.8036.8036,0,0,0,.311.0619.8124.8124,0,0,0,.5745-.238l7.887-7.887H32.5a3.2536,3.2536,0,0,0,3.25-3.25V10.8985L38.0891,8.56V8.559A3.11,3.11,0,0,0,35.89,3.25ZM34.125,24.375A1.6266,1.6266,0,0,1,32.5,26H8.9375a.8122.8122,0,0,0-.5745.238L1.625,32.9761V3.25A1.6266,1.6266,0,0,1,3.25,1.625H32.5A1.6266,1.6266,0,0,1,34.125,3.25v.555a3.054,3.054,0,0,0-.4348.3559L24.85,13H8.9375a.8125.8125,0,0,0,0,1.625H23.5461l-.78,3.903a.8126.8126,0,0,0,.7967.972.8373.8373,0,0,0,.1587-.0158l4.061-.8125a.8074.8074,0,0,0,.4157-.2222l5.9271-5.9262Zm-6.9015-7.2482-2.6247.5253.5253-2.6279L32.5,7.6485,34.6014,9.75ZM36.94,7.4109l-1.19,1.19L33.6485,6.5,34.839,5.309A1.486,1.486,0,0,1,36.94,7.4109Z"></path>
</svg>
