<?xml version="1.0" encoding="UTF-8"?>
<!-- Creator: CorelDRAW 2019 (64-Bit) -->
<svg xmlns="http://www.w3.org/2000/svg" xmlns:xlink="http://www.w3.org/1999/xlink" xml:space="preserve" width="44.8732mm" height="44.0312mm" version="1.1" style="shape-rendering:geometricPrecision; text-rendering:geometricPrecision; image-rendering:optimizeQuality; fill-rule:evenodd; clip-rule:evenodd" viewBox="0 0 216.39 212.33">
 <defs>
  <style type="text/css">
   <![CDATA[
    .fil0 {fill:#1B92F3}
   ]]>
  </style>
 </defs>
 <g id="Layer_x0020_1">
  <metadata id="CorelCorpID_0Corel-Layer"></metadata>
  <g id="_3040930349472">
   <path class="fil0" d="M115.5 126.66l0 -14.9 -14.9 0 0 14.9c0,2.06 -1.67,3.73 -3.73,3.73l-14.9 0 0 14.9 14.9 0c2.06,0 3.73,1.67 3.73,3.73l0 14.9 14.9 0 0 -14.9c0,-2.06 1.67,-3.73 3.73,-3.73l14.9 0 0 -14.9 -14.9 0c-2.06,0 -3.73,-1.67 -3.73,-3.73zm0 0z"></path>
   <path class="fil0" d="M64.09 22.35c-2.74,4.31 -7.49,6.92 -12.59,6.93 -1.03,-0 -2.05,-0.11 -3.06,-0.34l0 66.12 33.27 -52.75 -5.92 -2.68c-5.3,-2.43 -8.69,-7.73 -8.68,-13.56 -0,-1.26 0.16,-2.51 0.49,-3.72l-3.5 0zm0 0z"></path>
   <path class="fil0" d="M130.4 81.95l-38.63 0 -19.03 30.14c-0.45,0.67 -0.82,1.19 -1.19,1.71l-0.3 0.41c-0.86,1.13 -1.78,2.21 -2.76,3.24 -1.1,1.18 -2.28,2.27 -3.54,3.28 -1.78,1.53 -3.75,2.85 -5.85,3.91 -0.22,0.15 -0.78,0.41 -1.34,0.71 -0.04,0 -0.78,0.33 -1.3,0.59 -0.26,0.15 -0.52,0.3 -0.75,0.41l-0.86 0.3c-1.23,0.45 -2.61,0.86 -3.95,1.23 -0.82,0.22 -1.64,0.41 -2.46,0.56l0 50.36 100.76 0c0.08,-0.56 0.11,-1.12 0.22,-1.68 1.68,-11.25 8.38,-21.12 18.22,-26.82l0 -127.96 -60.35 0c0.18,0.15 0.34,0.3 0.52,0.45 1.13,1.08 2.15,2.27 3.05,3.54 4.73,6.96 5.19,15.99 1.19,23.39 -0.07,0.15 -0.15,0.34 -0.22,0.48l-0.59 0.93 -2.98 4.73 14.68 0c2.06,0 3.73,1.67 3.73,3.72 0,2.06 -1.67,3.73 -3.73,3.73l-19.41 0 -7.04 11.18 33.9 0c2.06,0 3.73,1.67 3.73,3.72 0,2.06 -1.67,3.73 -3.73,3.73zm7.45 -26.08l3.72 0c2.06,0 3.72,1.67 3.72,3.72 0,2.06 -1.67,3.73 -3.72,3.73l-3.72 0c-2.06,0 -3.73,-1.67 -3.73,-3.73 0,-2.06 1.67,-3.72 3.73,-3.72zm3.72 74.5l0 14.9c-0.01,4.11 -3.34,7.44 -7.45,7.45l-11.18 0 0 11.18c-0.01,4.11 -3.34,7.44 -7.45,7.45l-14.9 0c-4.11,-0.01 -7.44,-3.34 -7.45,-7.45l0 -11.18 -11.18 0c-4.11,-0.01 -7.44,-3.34 -7.45,-7.45l0 -14.9c0.01,-4.11 3.34,-7.44 7.45,-7.45l11.18 0 0 -11.18c0.01,-4.11 3.34,-7.44 7.45,-7.45l14.9 0c4.11,0.01 7.44,3.34 7.45,7.45l0 11.18 11.18 0c4.11,0.01 7.44,3.34 7.45,7.45l-0 0zm0 0z"></path>
   <path class="fil0" d="M3.74 100.99c0.45,0.78 0.93,1.6 1.45,2.35 0.52,0.75 1.08,1.49 1.68,2.2 0.04,0 0.04,0 0.04,0.04 0.41,0.45 0.82,0.93 1.27,1.38 1.76,1.83 3.75,3.41 5.92,4.73 0.97,0.59 1.98,1.13 3.02,1.6l10.47 4.81 1.9 0.86c2.53,1.17 5.21,1.96 7.97,2.35 0.85,0.16 1.71,0.25 2.57,0.3 2.83,0.16 5.67,-0.1 8.42,-0.8 0.18,-0.02 0.35,-0.06 0.52,-0.11 1.12,-0.29 2.23,-0.64 3.31,-1.04l0.41 -0.15c0.12,-0.08 0.24,-0.14 0.37,-0.18 0.34,-0.15 1.45,-0.67 1.45,-0.67 0.31,-0.17 0.68,-0.35 0.97,-0.52 0.07,-0.04 0.15,-0.07 0.22,-0.11 0.62,-0.32 1.22,-0.7 1.82,-1.08 0.15,-0.1 0.32,-0.18 0.48,-0.28 0.34,-0.23 0.66,-0.5 0.99,-0.75 0.41,-0.3 0.82,-0.59 1.22,-0.91 1,-0.82 1.95,-1.7 2.83,-2.64l0.03 -0.03 0.05 -0.05c0.05,-0.05 0.09,-0.11 0.14,-0.16 0.75,-0.81 1.42,-1.59 2.06,-2.41 0.37,-0.52 0.75,-1.04 1.12,-1.6l11.36 -17.96 27.12 -42.91 0 -0.03 0.33 -0.53c0.03,-0.1 0.08,-0.19 0.15,-0.26 0.23,-0.46 0.44,-0.93 0.62,-1.42 0.13,-0.31 0.29,-0.6 0.4,-0.92 0.25,-0.72 0.44,-1.45 0.57,-2.2 0.05,-0.26 0.13,-0.51 0.17,-0.77 0.11,-0.82 0.15,-1.66 0.11,-2.49 0,-0.2 0.03,-0.4 0,-0.6 -0.07,-1.05 -0.24,-2.1 -0.52,-3.11 -0.69,-2.56 -2.1,-4.87 -4.05,-6.66l-0.04 -0.03c-1.14,-1.08 -2.45,-1.96 -3.87,-2.61l-2.54 -1.15 -0.86 1.82 -5.51 12c0.36,0.4 0.63,0.87 0.78,1.38 0.32,1.04 0.17,2.17 -0.41,3.09l-36.1 57.18c-0.09,0.14 -0.19,0.26 -0.27,0.37 -0.2,0.29 -0.42,0.57 -0.64,0.84 -0.12,0.16 -0.24,0.31 -0.39,0.48l-0.03 0.03c-0.33,0.39 -0.68,0.75 -1.06,1.1 -0.1,0.1 -0.22,0.17 -0.32,0.27 -0.55,0.49 -1.14,0.93 -1.76,1.33 -0.28,0.18 -0.56,0.35 -0.84,0.52 -2.5,1.43 -5.37,2.07 -8.24,1.82 -0.16,0.01 -0.33,-0.01 -0.48,-0.04 -0.52,-0.03 -1.03,-0.12 -1.53,-0.26 -0.49,-0.1 -0.98,-0.24 -1.45,-0.41 -0.5,-0.15 -0.98,-0.34 -1.45,-0.56l-12.37 -5.65c-6.65,-3.05 -10.04,-10.54 -7.94,-17.55l18.14 -63.29 0.56 -1.97c0.15,-0.53 0.52,-0.96 1.01,-1.19 0.49,-0.23 1.06,-0.23 1.56,-0l0.41 0.19 6.22 -13.52 -2.38 -1.12 -0.04 -0.04c-2.4,-1.04 -5.03,-1.45 -7.64,-1.19 -1.07,0.11 -2.12,0.35 -3.13,0.71 -0.51,0.17 -1,0.37 -1.49,0.6 -3.92,1.84 -6.87,5.27 -8.08,9.43l-19.3 67.39c-0.22,0.86 -0.45,1.68 -0.6,2.53 -1.28,6.27 -0.51,12.79 2.2,18.59l0.89 1.68zm0 0z"></path>
   <path class="fil0" d="M65.47 9.2c0.68,1.82 0.99,3.76 0.89,5.7l5.81 0c2.72,-2.39 6.21,-3.72 9.83,-3.73 2.11,0.01 4.19,0.45 6.11,1.31l5.25 2.42 74.28 0 0 -3.73c-0.01,-2.79 -1.06,-5.47 -2.94,-7.52 -0.07,-0.08 -0.15,-0.19 -0.26,-0.3l-0.22 -0.22c-0.23,-0.24 -0.48,-0.46 -0.74,-0.67 -0.16,-0.15 -0.33,-0.27 -0.52,-0.37 -0.43,-0.31 -0.88,-0.58 -1.34,-0.82 -0.17,-0.11 -0.36,-0.2 -0.56,-0.26 -0.63,-0.26 -0.97,-0.41 -1.27,-0.52 -1.07,-0.34 -2.19,-0.5 -3.32,-0.48l-96.85 0c-0.97,-0.01 -1.94,0.11 -2.87,0.37l0.67 0.3c3.73,1.63 6.64,4.71 8.05,8.53zm0 0z"></path>
   <path class="fil0" d="M48.45 186.26l0 11.18c0.01,2.42 0.79,4.77 2.24,6.7 1.16,1.59 2.75,2.82 4.58,3.54 0.24,0.15 0.51,0.27 0.78,0.34 0.26,0.06 0.53,0.13 0.78,0.23 0.15,0.05 0.29,0.09 0.45,0.11 0.29,0.1 0.59,0.15 0.89,0.15 0.48,0.07 0.97,0.11 1.45,0.11l96.85 0c0.41,0 0.86,-0.04 1.23,-0.08 0.35,-0.01 0.7,-0.06 1.04,-0.15 0.18,-0.04 0.35,-0.09 0.52,-0.15l0.07 0c-5.74,-5.99 -9.3,-13.73 -10.13,-21.98l-100.76 -0zm67.05 14.9l-14.9 0c-2.06,0 -3.73,-1.67 -3.73,-3.73 0,-2.06 1.67,-3.73 3.73,-3.73l14.9 0c2.06,0 3.73,1.67 3.73,3.72 0,2.06 -1.67,3.73 -3.73,3.73l0 0zm0 0z"></path>
   <path class="fil0" d="M48.41 21.16c0.97,0.43 2.03,0.66 3.09,0.67 2.92,0 5.57,-1.7 6.78,-4.36 0.53,-1.18 0.75,-2.48 0.61,-3.77 0,-0.17 0,-0.32 -0.03,-0.48 -0.04,-0.23 -0.11,-0.45 -0.17,-0.68 -0.05,-0.26 -0.11,-0.51 -0.19,-0.77 -0.16,-0.4 -0.35,-0.79 -0.57,-1.16 -0.02,-0.04 -0.04,-0.09 -0.06,-0.13 -0.08,-0.13 -0.19,-0.25 -0.29,-0.37 -0.74,-1.08 -1.76,-1.95 -2.95,-2.51l-0.34 -0.16 -4.21 -1.94 -0.04 0 -1.08 2.35 0 0.03 -5.1 11.14 4.25 1.97 0.3 0.15zm0 0z"></path>
   <path class="fil0" d="M85.1 19.3c-0.97,-0.44 -2.03,-0.67 -3.09,-0.67 -2.63,0.02 -5.06,1.44 -6.37,3.73l-0.08 0c-0.11,0.18 -0.22,0.41 -0.34,0.63 -1.71,3.73 -0.08,8.15 3.65,9.87l4.4 2.01 5.77 -12.52 0.45 -1.01 -0.37 0.75 0.37 -0.79 -4.4 -2zm0 0z"></path>
   <path class="fil0" d="M37.27 152.73l-14.9 0c-2.33,0 -4.52,-1.08 -5.93,-2.93 -1.41,-1.85 -1.88,-4.25 -1.26,-6.49l7.45 -15.13c0.44,-0.9 0.51,-1.93 0.18,-2.88 -0.33,-0.94 -1.02,-1.71 -1.93,-2.14 -2.07,-0.96 -4.7,-2.19 -6.75,-3.16 -1.84,-0.87 -4.03,-0.1 -4.93,1.73l-7.65 15.55c-0.14,0.3 -0.26,0.61 -0.37,0.93 -2.43,7.15 -1.04,15.04 3.69,20.93 4.52,5.49 11.29,8.62 18.39,8.5l14.01 -0c2.06,0 3.73,-1.67 3.73,-3.72l0 -7.45c0,-2.06 -1.67,-3.73 -3.73,-3.73l0 0zm0 0z"></path>
   <path class="fil0" d="M199.83 84.71c1.37,1.64 1.95,3.81 1.56,5.92l-13.59 54.72c5.02,0.15 9.94,1.37 14.45,3.57l13.67 -54.98c1.37,-6.58 -0.3,-13.43 -4.54,-18.65 -4.24,-5.22 -10.6,-8.24 -17.32,-8.25l-18.96 0 0 14.9 18.96 0c2.24,-0 4.36,1.01 5.77,2.76l0 0zm0 0z"></path>
   <path class="fil0" d="M216 180.48c0,-0.12 -0.01,-0.25 -0.04,-0.37l0 -0.11c-0.04,-0.56 -0.11,-1.08 -0.19,-1.64 -0.07,-0.64 -0.19,-1.28 -0.34,-1.9 -0.01,-0.14 -0.03,-0.28 -0.07,-0.41 -0.11,-0.52 -0.22,-1.01 -0.37,-1.49 -0.03,-0.17 -0.08,-0.33 -0.15,-0.49 -0.15,-0.56 -0.34,-1.08 -0.52,-1.6 -0.03,-0.1 -0.07,-0.2 -0.11,-0.3 -0.19,-0.52 -0.41,-1.08 -0.63,-1.56 -0.11,-0.34 -0.26,-0.66 -0.45,-0.97 -0.11,-0.3 -0.25,-0.58 -0.41,-0.86l-0.56 -1.01c-0.59,-1.07 -1.26,-2.09 -2.01,-3.05l-0.67 -0.89c-0.07,-0.07 -0.14,-0.14 -0.19,-0.23 -0.37,-0.41 -0.74,-0.86 -1.12,-1.27 -0.45,-0.49 -0.9,-0.93 -1.38,-1.38 -0.16,-0.19 -0.33,-0.37 -0.52,-0.52 -0.27,-0.26 -0.55,-0.49 -0.86,-0.71 -0.11,-0.11 -0.22,-0.18 -0.3,-0.26 -0.45,-0.37 -0.89,-0.71 -1.34,-1.04 -0.45,-0.34 -1.01,-0.71 -1.56,-1.08l-0.07 0c-0.08,-0.07 -0.19,-0.11 -0.26,-0.19 -0.49,-0.3 -0.93,-0.52 -1.42,-0.82l-0.04 0c-0.6,-0.34 -1.19,-0.63 -1.83,-0.93 -0.34,-0.15 -0.67,-0.3 -1.04,-0.45 -0.15,-0.04 -0.3,-0.11 -0.41,-0.15 -0.31,-0.16 -0.63,-0.28 -0.97,-0.37 -0.07,-0.04 -0.15,-0.04 -0.22,-0.07 -0.03,-0.03 -0.07,-0.04 -0.11,-0.04 -0.12,-0.07 -0.24,-0.12 -0.37,-0.15l-0.04 0c-0.08,0 -0.11,-0.04 -0.19,-0.04 -0.61,-0.23 -1.23,-0.41 -1.86,-0.56 -0.56,-0.15 -1.16,-0.26 -1.75,-0.37 -0.6,-0.11 -1.12,-0.18 -1.68,-0.26l-0.15 0c-0.52,-0.08 -1.08,-0.11 -1.64,-0.15l-0.08 0c-0.04,0 -0.04,-0.04 -0.07,-0.04 -0.02,0.02 -0.05,0.03 -0.07,0.04l-0.04 0c-0.28,-0.05 -0.57,-0.06 -0.86,-0.04 -0.26,-0.03 -0.52,-0.04 -0.78,-0.04l-0.89 0c-0.41,0 -0.82,0.04 -1.23,0.08 -1.11,0.08 -2.22,0.22 -3.32,0.41 -0.26,0.04 -0.56,0.11 -0.82,0.15 -0.08,0.04 -0.17,0.07 -0.26,0.07 -0.07,0 -0.15,0.04 -0.22,0.04 -0.21,0.05 -0.42,0.11 -0.63,0.19 -0.1,0.01 -0.2,0.03 -0.3,0.07 -0.46,0.1 -0.9,0.24 -1.34,0.41 -0.25,0.05 -0.48,0.12 -0.71,0.22 -0.57,0.18 -1.13,0.39 -1.68,0.64 -0.15,0.04 -0.3,0.11 -0.41,0.15 -0.06,0.04 -0.12,0.06 -0.19,0.08 -0.22,0.11 -0.41,0.19 -0.6,0.3 -0.19,0.11 -0.34,0.15 -0.52,0.22 -0.06,0.05 -0.12,0.08 -0.18,0.11 -0.18,0.07 -0.36,0.16 -0.52,0.26 -0.19,0.11 -0.37,0.19 -0.56,0.3 -0.06,0.05 -0.12,0.08 -0.19,0.11 -0.34,0.19 -0.71,0.37 -1.04,0.6 -0.04,0.04 -0.11,0.07 -0.15,0.11 -0.34,0.23 -0.71,0.45 -1.04,0.67 -0.04,0.04 -0.11,0.08 -0.15,0.11 -0.34,0.22 -0.67,0.48 -1.01,0.71 -0.04,0.04 -0.04,0.04 -0.07,0.04 -0.22,0.19 -0.41,0.34 -0.6,0.48l0 0.04c-0.54,0.4 -1.04,0.84 -1.53,1.3l-1.01 1.01c-0.34,0.34 -0.63,0.67 -0.97,1.01l0 0.04c-0.08,0 -0.08,0.04 -0.11,0.07 -0.29,0.3 -0.57,0.63 -0.82,0.97l0 0.04c-0.07,0 -0.07,0.04 -0.11,0.07l-0.34 0.45 -0.45 0.56c-0.39,0.5 -0.75,1.02 -1.08,1.56 -0.19,0.26 -0.34,0.52 -0.52,0.82 -0.49,0.81 -0.94,1.64 -1.34,2.49 -0.44,0.9 -0.82,1.82 -1.15,2.76 -0.26,0.75 -0.49,1.45 -0.67,2.2 -0.33,1.14 -0.58,2.29 -0.75,3.47 -0.04,0.22 -0.07,0.45 -0.11,0.71 -0.04,0.26 -0.04,0.45 -0.07,0.71 -0.11,1 -0.16,2.01 -0.15,3.02 0,0.52 0,1.04 0.04,1.53 0.04,0.37 0.04,0.74 0.07,1.12 0.04,0.37 0.07,0.71 0.11,1.08 0.22,1.74 0.6,3.46 1.12,5.14 0.04,0.07 0.07,0.14 0.08,0.22 0.26,0.86 0.59,1.68 0.93,2.53 0.04,0.04 0.04,0.11 0.07,0.19 0.15,0.37 0.34,0.71 0.52,1.08l0 0.04c0.04,0.07 0.08,0.11 0.08,0.18 0.18,0.37 0.38,0.73 0.6,1.08 0.22,0.41 0.45,0.82 0.71,1.23l0 0.04c0.04,0.08 0.08,0.11 0.11,0.19 0.11,0.15 0.22,0.33 0.34,0.48 0.06,0.12 0.14,0.23 0.22,0.34 0.04,0.04 0.08,0.11 0.11,0.15 0.07,0.15 0.19,0.3 0.26,0.45 0.19,0.26 0.37,0.48 0.56,0.74l0 0.04c0.04,0.04 0.08,0.09 0.11,0.15 0.24,0.33 0.5,0.64 0.78,0.93l0 0.04c0.04,0.04 0.07,0.11 0.11,0.15 0.3,0.34 0.56,0.6 0.82,0.9l0 0.04c0.41,0.45 0.86,0.93 1.3,1.38 0.22,0.23 0.45,0.44 0.71,0.63 0,0.04 0,0.04 0.04,0.04l0.08 0.07c0.31,0.29 0.63,0.57 0.97,0.82l0.08 0.07 0.04 0.04 0.44 0.33 0.56 0.45c0.77,0.58 1.58,1.11 2.42,1.6 0.41,0.23 0.78,0.48 1.19,0.71 0.3,0.17 0.61,0.32 0.93,0.45 1.43,0.74 2.92,1.36 4.47,1.83 0.19,0.07 0.41,0.11 0.63,0.19 1.71,0.49 3.45,0.82 5.22,1l1.45 0.11c0.48,0.04 1,0.04 1.53,0.04 0.52,0 1.04,0 1.53,-0.04 0.37,-0.04 0.74,-0.04 1.12,-0.07 2.11,-0.18 4.2,-0.59 6.22,-1.23 0.07,-0.04 0.15,-0.07 0.22,-0.08 0.86,-0.26 1.68,-0.6 2.53,-0.93 0.04,-0.04 0.11,-0.04 0.19,-0.08 0.37,-0.15 0.71,-0.34 1.08,-0.52l0.04 0c0.07,-0.04 0.11,-0.07 0.19,-0.07 0.37,-0.18 0.73,-0.37 1.08,-0.6 0.41,-0.22 0.82,-0.45 1.23,-0.71l0.04 0c0.08,-0.04 0.11,-0.07 0.19,-0.11 0.15,-0.11 0.34,-0.23 0.48,-0.34 0.18,-0.09 0.34,-0.2 0.48,-0.34l0.04 0c0.13,-0.1 0.26,-0.19 0.41,-0.26 0.26,-0.19 0.48,-0.37 0.74,-0.56l0.04 0c0.04,-0.05 0.09,-0.08 0.15,-0.11 0.14,-0.1 0.28,-0.21 0.41,-0.34 0.04,0 0.04,-0.04 0.08,-0.04 0.15,-0.15 0.3,-0.26 0.45,-0.41l0.04 0c0.04,-0.04 0.11,-0.08 0.15,-0.11 0.3,-0.26 0.6,-0.52 0.89,-0.82l0.04 0c0.71,-0.67 1.34,-1.3 2.01,-2.01l0.04 0 0.04 -0.08 0.04 -0.04c0.29,-0.31 0.57,-0.63 0.82,-0.97l0.07 -0.08 0.04 -0.04 0.33 -0.45 0.45 -0.56c0.58,-0.77 1.12,-1.58 1.6,-2.42l0.07 -0.07c0.13,-0.2 0.24,-0.41 0.34,-0.63 0.12,-0.16 0.22,-0.34 0.3,-0.52 0.18,-0.28 0.33,-0.58 0.45,-0.89 0.75,-1.43 1.36,-2.93 1.83,-4.47 0.07,-0.18 0.11,-0.41 0.18,-0.63 0.76,-2.66 1.15,-5.42 1.15,-8.19l0 -0.3c0.01,-0.2 -0,-0.4 -0.04,-0.6 0,-0.37 0,-0.75 -0.04,-1.16l0 0zm-29.54 20.68c-8.94,0.08 -16.69,-6.2 -18.44,-14.98 -0.24,-1.14 -0.36,-2.3 -0.37,-3.46 -0.01,-1.32 0.12,-2.65 0.37,-3.95 1.97,-9.57 11.01,-15.99 20.69,-14.7 9.69,1.29 16.73,9.84 16.14,19.59 -0.59,9.75 -8.62,17.39 -18.39,17.5zm0 0z"></path>
   <path class="fil0" d="M186.16 171.36c-6.17,0.06 -11.12,5.12 -11.06,11.29 0.06,6.17 5.12,11.13 11.29,11.06 6.17,-0.06 11.12,-5.12 11.06,-11.29 -0.08,-6.16 -5.12,-11.11 -11.29,-11.06zm0 0z"></path>
  </g>
 </g>
</svg>
