<?xml version="1.0" encoding="UTF-8"?>
<svg xmlns="http://www.w3.org/2000/svg" xmlns:xlink="http://www.w3.org/1999/xlink" width="68px" height="68px" viewBox="0 0 68 68" version="1.1">
  <!-- Generator: Sketch 57.1 (83088) - https://sketch.com -->
  <title>Image / Tools we use / img-handbook-general</title>
  <desc>Created with Sketch.</desc>
  <g id="Image-/-Tools-we-use-/-img-handbook-general" stroke="none" stroke-width="1" fill="none" fill-rule="evenodd">
    <path d="M22.2535441,40.9994397 C25.8274278,40.9994397 28.6996499,37.5508787 30.999905,34.5795642 C28.3827,30.7237044 26.1487495,27.2780579 21.9351369,27.2780579 C18.4873046,27.2780579 15.9997941,30.1160348 15.9997941,34.3748218 C15.9997941,37.9567204 18.6177277,40.9994397 22.1267641,40.9994397 L22.2535441,40.9994397 Z M46.0211458,46.2775668 C42.422489,46.2775668 38.4493213,44.8137682 34.0309664,38.495171 C30.6246654,42.9521427 27.1535172,46.2775668 21.7886842,46.2775668 C16.1732058,46.2775668 11,41.4883441 11,34.2392984 C11,26.9887955 15.9852217,22.0006594 22.4203982,22.0006594 C27.4682812,22.0006594 30.6793119,24.9289853 34.0229515,29.5834132 C36.6729444,26.4583598 40.3400916,21.9372694 46.3985713,22.0006594 C52.2654238,22.0676925 57,26.6565446 57,33.8392858 C57,41.6879861 51.6337098,46.2775668 46.0211458,46.2775668 L46.0211458,46.2775668 Z M45.7457273,27.2780579 C42.1718436,27.2780579 39.3003501,30.7266188 36.9993664,33.6979334 C39.6165714,37.5530646 41.8505219,40.9994397 46.0648631,40.9994397 C49.5119668,40.9994397 51.9994773,38.1607341 51.9994773,33.9026757 C51.9994773,30.3207772 49.3815437,27.2780579 45.8732359,27.2780579 L45.7457273,27.2780579 Z" id="Fill-2" fill="#D8262C"></path>
    <ellipse id="Oval-24-Copy" stroke="#D8262C" stroke-width="2.112" opacity="0.3" cx="60.2567058" cy="61.5343558" rx="3.22500735" ry="3.2799372"></ellipse>
    <g id="Group" transform="translate(23.000000, 12.000000) scale(-1, -1) translate(-23.000000, -12.000000) translate(3.000000, 4.000000)" stroke="#D8262C" stroke-width="2.112">
      <ellipse id="Oval-24-Copy-Copy-2" opacity="0.3" cx="36.2567058" cy="12.545098" rx="3.22500735" ry="3.2799372"></ellipse>
      <ellipse id="Oval-24-Copy-Copy-3" opacity="0.3" cx="3.22500735" cy="12.2906794" rx="3.22500735" ry="3.2799372"></ellipse>
      <path d="M30.8242187,7.91210937 L24.112793,1.55322266" id="Path-588-Copy-2" opacity="0.119999997" stroke-dasharray="3.695999884605408"></path>
      <path d="M8.10058594,7.96582031 L17.7055664,0" id="Path-588-Copy-3" opacity="0.119999997" stroke-dasharray="3.695999884605408"></path>
    </g>
    <ellipse id="Oval-24-Copy-Copy" stroke="#D8262C" stroke-width="2.112" opacity="0.3" cx="22.2250073" cy="61.2799372" rx="3.22500735" ry="3.2799372"></ellipse>
    <path d="M55.8242188,56.9013672 L49.112793,49.5424805" id="Path-588" stroke="#D8262C" stroke-width="2.112" opacity="0.119999997" stroke-dasharray="3.695999884605408"></path>
    <path d="M27.1005859,55.9550781 L34.7055664,46.9892578" id="Path-588-Copy" stroke="#D8262C" stroke-width="2.112" opacity="0.119999997" stroke-dasharray="3.695999884605408"></path>
  </g>
</svg>
