<?xml version="1.0" encoding="UTF-8"?>
<svg xmlns="http://www.w3.org/2000/svg" xmlns:xlink="http://www.w3.org/1999/xlink" width="68px" height="68px" viewBox="0 0 68 68" version="1.1">
  <!-- Generator: Sketch 57.1 (83088) - https://sketch.com -->
  <title>Image / Tools we use / img-php-unit</title>
  <desc>Created with Sketch.</desc>
  <defs>
    <linearGradient x1="62.8523821%" y1="98.6331614%" x2="37.3014275%" y2="2.06312322%" id="linearGradient-1">
      <stop stop-color="#D1D8F4" offset="0%"></stop>
      <stop stop-color="#C5CDF6" offset="8%"></stop>
      <stop stop-color="#A7B1FA" offset="32%"></stop>
      <stop stop-color="#919DFD" offset="56%"></stop>
      <stop stop-color="#8491FE" offset="79%"></stop>
      <stop stop-color="#808DFF" offset="100%"></stop>
    </linearGradient>
  </defs>
  <g id="Image-/-Tools-we-use-/-img-php-unit" stroke="none" stroke-width="1" fill="none" fill-rule="evenodd">
    <g id="phpunit" transform="translate(5.000000, 12.000000)" fill-rule="nonzero">
      <path d="M25.8033924,17.9139241 C25.7696203,20.6333165 28.4464304,23.0296709 31.1746329,22.7125063 C32.8221266,22.5201519 33.5137215,23.3497722 32.9601519,24.8871392 C31.759038,28.2232405 30.5476456,31.5554262 29.3259747,34.8836962 C28.5051646,37.1097215 26.6902785,37.9452152 24.4451646,37.1288101 C17.2296709,34.5082869 10.016135,31.8789536 2.80455696,29.2408101 C0.427291139,28.3700759 -0.381772152,26.6242025 0.484556962,24.2351899 C3.10899578,16.991308 5.74077637,9.75183122 8.37989873,2.51675949 C9.15665823,0.386177215 11.0009114,-0.497772152 13.1403038,0.277518987 C20.4527089,2.92055696 27.75973,5.58121519 35.0613671,8.25949367 C37.2095696,9.04653165 38.0362532,10.8907848 37.2727089,13.037519 C37.0935696,13.5441013 36.9173671,14.0536203 36.7147342,14.5513924 C36.2008101,15.8112405 35.1127595,16.0549873 34.195038,15.0462278 C33.1363544,13.8818228 31.8016203,13.4721519 30.3171139,13.4692152 C29.1279167,13.4559036 27.9825727,13.9176913 27.1351774,14.7521303 C26.2877821,15.5865693 25.8084036,16.7246629 25.8033924,17.9139241 Z M24.6536709,17.9623797 C24.6682021,16.2084027 25.4890373,14.5586771 26.8793293,13.4892217 C28.2696213,12.4197664 30.0747004,12.0495579 31.7737215,12.4854177 C32.9733671,12.7878987 34.1142785,13.1902278 34.9424304,14.1916456 C35.2287595,14.5367089 35.5297722,14.5557975 35.6942278,14.0697722 C35.9490275,13.4099224 36.1700564,12.7375241 36.3564557,12.0551899 C36.5972658,11.0273418 36.100962,10.0347342 35.1612152,9.54136709 C34.8543115,9.38760267 34.5374103,9.25466111 34.2126582,9.14344304 C27.0970127,6.5454346 19.9794093,3.95134177 12.8598481,1.36116456 C11.2446582,0.773822785 10.0259241,1.34207595 9.42096203,2.97635443 C8.60308861,5.17888608 7.80577215,7.38141772 7.00992405,9.58394937 C5.19014346,14.5871224 3.37281013,19.5927426 1.55792405,24.6008101 C0.904506329,26.4127595 1.42870886,27.5272405 3.2156962,28.1835949 C7.02313924,29.5814684 10.8408608,30.9543797 14.6527089,32.343443 C18.050481,33.5812658 21.4658734,34.775038 24.8328101,36.0906835 C26.3422785,36.6780253 27.7621772,35.9820253 28.3069367,34.4211646 C29.4669367,31.0982785 30.7018228,27.8018228 31.9,24.4936203 C32.1217215,23.8813165 32.0204051,23.8372658 31.3464304,23.804962 C30.483038,23.7653165 29.5844051,23.7242025 28.7724051,23.4731139 C26.3716456,22.736 24.6228354,20.3278987 24.6536709,17.9653165 L24.6536709,17.9623797 Z" id="Shape" fill="#000000"></path>
      <path d="M27.8825823,18.0607595 C27.8904844,16.957806 28.5634753,15.968744 29.5865375,15.5565394 C30.6095997,15.1443348 31.7802995,15.3905507 32.550649,16.1799368 C33.3209985,16.969323 33.5385684,18.1456834 33.1015173,19.1583803 C32.6644662,20.1710773 31.6592735,20.8197283 30.5564557,20.8007089 C29.0615952,20.78217 27.8646314,19.5556272 27.8825823,18.0607595 L27.8825823,18.0607595 Z M31.9748861,18.0607595 C31.958213,17.31638 31.3524002,16.7203279 30.6078481,16.7157468 C30.1109873,16.708355 29.6494128,16.9717333 29.4029948,17.4032463 C29.1565768,17.8347593 29.1643027,18.3661344 29.423162,18.7903009 C29.6820212,19.2144674 30.1510578,19.464315 30.6474937,19.442481 C31.3954811,19.4193102 31.9864741,18.8002059 31.9748861,18.0519494 L31.9748861,18.0607595 Z M56.5742278,40.7101266 C57.3159171,40.7379822 57.9071401,41.3395098 57.9221772,42.0815696 C57.9209234,42.6366669 57.5844763,43.1360189 57.0704821,43.3456484 C56.5564879,43.5552779 55.9667791,43.4336531 55.5776706,43.0377628 C55.1885621,42.6418724 55.0771441,42.0501503 55.2956228,41.5398547 C55.5141014,41.029559 56.0191918,40.7017896 56.5742278,40.7101266 Z M45.7392405,26.2424304 L47.3250633,27.7107848 L46.2972152,28.8091139 L44.7627848,27.3818734 L45.7392405,26.2424304 Z M38.6940759,21.0855696 L40.5265823,22.2367595 L39.6984304,23.5010127 L37.9364051,22.3894684 L38.6940759,21.0855696 Z M47.7846582,30.3332658 L48.8785823,29.2863291 C49.3660759,29.8398987 49.8227342,30.3582278 50.3249114,30.9308861 L49.1678481,31.8882532 L47.7846582,30.3332658 Z M51.715443,32.6341772 L53.0075949,34.3727089 L51.7903291,35.2405063 C51.367443,34.6810633 50.9680506,34.1509873 50.5187342,33.5533671 L51.715443,32.6341772 Z M42.3297215,23.4936709 L44.0726582,24.8284051 L43.106481,26.0030886 L41.4663291,24.7447089 L42.3297215,23.4936709 Z M55.3452152,38.0626835 L54.0618734,38.8321013 L52.9591392,37.0392405 L54.2322025,36.2008101 L55.3452152,38.0626835 Z M36.051038,21.3278481 L34.1730127,20.3778228 C34.3947342,19.9299747 34.5944304,19.5291139 34.8396456,19.0357468 L36.7778734,19.9916456 L36.051038,21.3278481 Z" id="Shape" fill="#000000"></path>
      <path d="M24.6536709,17.9653165 C24.6228354,20.3278987 26.3716456,22.736 28.7650633,23.4731139 C29.5814684,23.7242025 30.4756962,23.7667848 31.3390886,23.804962 C32.0130633,23.8372658 32.1143797,23.8813165 31.8926582,24.4936203 C30.694481,27.8018228 29.4595949,31.1012152 28.2995949,34.4211646 C27.7548354,35.9820253 26.3349367,36.6794937 24.8254684,36.0906835 C21.4585316,34.7691646 18.0431392,33.5812658 14.6453671,32.343443 C10.8276456,30.9543797 7.00992405,29.5814684 3.20835443,28.1835949 C1.42136709,27.5272405 0.897164557,26.4127595 1.55058228,24.6008101 C3.35567932,19.5878481 5.17692827,14.5807595 7.01432911,9.5795443 C7.81605063,7.37701266 8.60749367,5.16420253 9.42536709,2.97194937 C10.0303291,1.33913924 11.2564051,0.77235443 12.8642532,1.35822785 C19.9838143,3.94840506 27.1014177,6.54249789 34.2170633,9.14050633 C34.540466,9.25381573 34.8558932,9.38871848 35.1612152,9.5443038 C36.100962,10.0376709 36.5972658,11.0273418 36.3564557,12.0581266 C36.1700564,12.7404608 35.9490275,13.4128591 35.6942278,14.0727089 C35.5253671,14.5587342 35.2287595,14.5396456 34.9424304,14.1945823 C34.1142785,13.1931646 32.9733671,12.7908354 31.7737215,12.4883544 C30.0747004,12.0524946 28.2696213,12.4227031 26.8793293,13.4921585 C25.4890373,14.5616138 24.6682021,16.2113394 24.6536709,17.9653165 L24.6536709,17.9653165 Z" id="Path" fill="url(#linearGradient-1)"></path>
    </g>
  </g>
</svg>
