<?xml version="1.0" encoding="UTF-8"?>
<svg xmlns="http://www.w3.org/2000/svg" xmlns:xlink="http://www.w3.org/1999/xlink" width="68px" height="68px" viewBox="0 0 68 68" version="1.1">
  <!-- Generator: Sketch 57.1 (83088) - https://sketch.com -->
  <title>Image / Tools we use / img-slack</title>
  <desc>Created with Sketch.</desc>
  <g id="Image-/-Tools-we-use-/-img-slack" stroke="none" stroke-width="1" fill="none" fill-rule="evenodd">
    <g id="slack-2" transform="translate(4.000000, 4.000000)" fill-rule="nonzero">
      <g id="Group">
        <path d="M12.6340694,37.8454259 C12.6340694,41.3280757 9.82334385,44.1388013 6.34069401,44.1388013 C2.85804416,44.1388013 0.047318612,41.318612 0.047318612,37.8454259 C0.047318612,34.3722397 2.85804416,31.5520505 6.34069401,31.5520505 L12.6340694,31.5520505 L12.6340694,37.8454259 Z M15.7760252,37.8454259 C15.7760252,34.362776 18.5867508,31.5520505 22.0694006,31.5520505 C25.5520505,31.5520505 28.362776,34.362776 28.362776,37.8454259 L28.362776,53.5741325 C28.362776,57.0567823 25.5520505,59.8675079 22.0694006,59.8675079 C18.5867508,59.8675079 15.7760252,57.0567823 15.7760252,53.5741325 L15.7760252,37.8454259 Z" id="Shape" fill="#E01E5A"></path>
        <path d="M22.0694006,12.5867508 C18.5867508,12.5867508 15.7760252,9.77602524 15.7760252,6.29337539 C15.7760252,2.81072555 18.5867508,0 22.0694006,0 C25.5520505,0 28.362776,2.81072555 28.362776,6.29337539 L28.362776,12.5867508 L22.0694006,12.5867508 Z M22.0694006,15.7760252 C25.5520505,15.7760252 28.362776,18.5867508 28.362776,22.0694006 C28.362776,25.5520505 25.5520505,28.362776 22.0694006,28.362776 L6.29337539,28.362776 C2.81072555,28.362776 0,25.5425868 0,22.0694006 C0,18.5962145 2.81072555,15.7760252 6.29337539,15.7760252 L22.0694006,15.7760252 Z" id="Shape" fill="#36C5F0"></path>
        <path d="M47.2807571,22.0694006 C47.2807571,18.5867508 50.0914826,15.7760252 53.5741325,15.7760252 C57.0567823,15.7760252 59.8675079,18.5867508 59.8675079,22.0694006 C59.8675079,25.5520505 57.0567823,28.362776 53.5741325,28.362776 L47.2807571,28.362776 L47.2807571,22.0694006 Z M44.1388013,22.0694006 C44.1388013,25.5520505 41.3280757,28.362776 37.8454259,28.362776 C34.362776,28.362776 31.5520505,25.5520505 31.5520505,22.0694006 L31.5520505,6.29337539 C31.5520505,2.81072555 34.362776,0 37.8454259,0 C41.3280757,0 44.1388013,2.81072555 44.1388013,6.29337539 L44.1388013,22.0694006 Z" id="Shape" fill="#2EB67D"></path>
        <path d="M37.8454259,47.2807571 C41.3280757,47.2807571 44.1388013,50.0914826 44.1388013,53.5741325 C44.1388013,57.0567823 41.3280757,59.8675079 37.8454259,59.8675079 C34.362776,59.8675079 31.5520505,57.0567823 31.5520505,53.5741325 L31.5520505,47.2807571 L37.8454259,47.2807571 Z M37.8454259,44.1388013 C34.362776,44.1388013 31.5520505,41.3280757 31.5520505,37.8454259 C31.5520505,34.362776 34.362776,31.5520505 37.8454259,31.5520505 L53.6214511,31.5520505 C57.1041009,31.5520505 59.9148265,34.362776 59.9148265,37.8454259 C59.9148265,41.3280757 57.1041009,44.1388013 53.6214511,44.1388013 L37.8454259,44.1388013 Z" id="Shape" fill="#ECB22E"></path>
      </g>
    </g>
  </g>
</svg>
