<?xml version="1.0" encoding="UTF-8"?>
<!-- Generator: Adobe Illustrator 19.1.0, SVG Export Plug-In . SVG Version: 6.00 Build 0)  -->
<svg xmlns="http://www.w3.org/2000/svg" xmlns:xlink="http://www.w3.org/1999/xlink" version="1.1" id="Layer_1" x="0px" y="0px" viewBox="0 0 66.4 60" style="enable-background:new 0 0 66.4 60;" xml:space="preserve">
<style type="text/css">
	.st0{clip-path:url(#SVGID_2_);fill:#505358;}
	.st1{clip-path:url(#SVGID_2_);fill:#61B63D;}
	.st2{clip-path:url(#SVGID_2_);fill:#4995EC;}
</style>
<g>
	<defs>
		<rect id="SVGID_1_" width="66.4" height="60"></rect>
	</defs>
	<clipPath id="SVGID_2_">
		<use xlink:href="#SVGID_1_" style="overflow:visible;"></use>
	</clipPath>
	<path class="st0" d="M65.3,0H1.1C0.5,0,0,0.5,0,1.1v57.9C0,59.5,0.5,60,1.1,60h64.2c0.6,0,1.1-0.5,1.1-1.1V47.6   c0-0.6-0.5-1.1-1.1-1.1s-1.1,0.5-1.1,1.1v10.2H2.1V10.6h62.1v32.8c0,0.6,0.5,1.1,1.1,1.1s1.1-0.5,1.1-1.1V1.1   C66.4,0.5,65.9,0,65.3,0 M2.1,2.1h39.2v6.4H2.1V2.1z M43.4,2.1h20.8v6.4H43.4V2.1z"></path>
	<path class="st1" d="M53.9,4.2c-0.6,0-1.1,0.5-1.1,1.1c0,0.6,0.5,1.1,1.1,1.1c0.6,0,1.1-0.5,1.1-1.1C55,4.7,54.5,4.2,53.9,4.2"></path>
	<path class="st1" d="M48.1,4.2c-0.6,0-1.1,0.5-1.1,1.1c0,0.6,0.5,1.1,1.1,1.1c0.6,0,1.1-0.5,1.1-1.1C49.2,4.7,48.7,4.2,48.1,4.2"></path>
	<path class="st1" d="M59.6,4.2c-0.6,0-1.1,0.5-1.1,1.1c0,0.6,0.5,1.1,1.1,1.1c0.6,0,1.1-0.5,1.1-1.1C60.8,4.7,60.3,4.2,59.6,4.2"></path>
	<path class="st0" d="M44.4,43.6c-0.6,0-1.1,0.5-1.1,1.1v7.7c0,0.6,0.5,1.1,1.1,1.1h14.3c0.6,0,1.1-0.5,1.1-1.1v-7.7   c0-0.6-0.5-1.1-1.1-1.1h-6.4v-6.3c0-0.6-0.5-1.1-1.1-1.1H37.4c-0.6,0-1.1,0.5-1.1,1.1s0.5,1.1,1.1,1.1h12.7v5.2H44.4z M57.6,51.2   H45.4v-5.6h12.2V51.2z"></path>
	<path class="st2" d="M43.5,20.9c0-0.6-0.5-1.1-1.1-1.1H23.9c-0.6,0-1.1,0.5-1.1,1.1c0,0.6,0.5,1.1,1.1,1.1h18.5   C43,22,43.5,21.5,43.5,20.9"></path>
	<path class="st2" d="M39.6,25.1c0-0.6-0.5-1.1-1.1-1.1H27.8c-0.6,0-1.1,0.5-1.1,1.1c0,0.6,0.5,1.1,1.1,1.1h10.7   C39.1,26.2,39.6,25.7,39.6,25.1"></path>
	<path class="st0" d="M26,43.6c-0.6,0-1.1,0.5-1.1,1.1v7.7c0,0.6,0.5,1.1,1.1,1.1h14.3c0.6,0,1.1-0.5,1.1-1.1v-7.7   c0-0.6-0.5-1.1-1.1-1.1h-6.1V30.9h12.9c0.6,0,1.1-0.5,1.1-1.1V16.2c0-0.6-0.5-1.1-1.1-1.1H19.2c-0.6,0-1.1,0.5-1.1,1.1v13.7   c0,0.6,0.5,1.1,1.1,1.1h12.9v5.2H15.2c-0.6,0-1.1,0.5-1.1,1.1v6.3H7.7c-0.6,0-1.1,0.5-1.1,1.1v7.7c0,0.6,0.5,1.1,1.1,1.1H22   c0.6,0,1.1-0.5,1.1-1.1v-7.7c0-0.6-0.5-1.1-1.1-1.1h-5.7v-5.2h15.9v5.2H26z M20.3,17.2H46v11.6H20.3V17.2z M20.9,51.2H8.8v-5.6   h12.2V51.2z M39.3,51.2H27.1v-5.6h12.2V51.2z"></path>
</g>
</svg>
