<?xml version="1.0" encoding="UTF-8"?>
<!-- Generator: Adobe Illustrator 19.1.0, SVG Export Plug-In . SVG Version: 6.00 Build 0)  -->
<svg xmlns="http://www.w3.org/2000/svg" xmlns:xlink="http://www.w3.org/1999/xlink" version="1.1" id="Layer_1" x="0px" y="0px" viewBox="0 0 68.4 53.4" style="enable-background:new 0 0 68.4 53.4;" xml:space="preserve">
<style type="text/css">
	.st0{clip-path:url(#SVGID_2_);fill:#505358;}
	.st1{clip-path:url(#SVGID_2_);fill:#4995EC;}
	.st2{clip-path:url(#SVGID_2_);fill:#61B63D;}
</style>
<g>
	<defs>
		<rect id="SVGID_1_" y="0" width="68.4" height="53.4"></rect>
	</defs>
	<clipPath id="SVGID_2_">
		<use xlink:href="#SVGID_1_" style="overflow:visible;"></use>
	</clipPath>
	<path class="st0" d="M5.3,6.3C5.6,6.3,5.8,6.2,6,6c0.2-0.2,0.3-0.4,0.3-0.7C6.3,5,6.2,4.8,6,4.6C5.8,4.4,5.6,4.3,5.3,4.3   C5,4.3,4.8,4.4,4.6,4.6C4.4,4.8,4.3,5,4.3,5.3c0,0.3,0.1,0.5,0.3,0.7C4.8,6.2,5,6.3,5.3,6.3"></path>
	<path class="st0" d="M8.5,6.3C8.8,6.3,9,6.2,9.2,6c0.2-0.2,0.3-0.4,0.3-0.7c0-0.3-0.1-0.5-0.3-0.7C9,4.4,8.8,4.3,8.5,4.3   C8.2,4.3,8,4.4,7.8,4.6C7.6,4.8,7.5,5,7.5,5.3c0,0.3,0.1,0.5,0.3,0.7C8,6.2,8.2,6.3,8.5,6.3"></path>
	<path class="st0" d="M11.7,6.3c0.3,0,0.5-0.1,0.7-0.3c0.2-0.2,0.3-0.4,0.3-0.7c0-0.3-0.1-0.5-0.3-0.7c-0.2-0.2-0.4-0.3-0.7-0.3   c-0.3,0-0.5,0.1-0.7,0.3c-0.2,0.2-0.3,0.4-0.3,0.7c0,0.3,0.1,0.5,0.3,0.7C11.2,6.2,11.5,6.3,11.7,6.3"></path>
	<path class="st0" d="M16,6.3h40.7c0.6,0,1-0.4,1-1c0-0.6-0.5-1-1-1H16c-0.6,0-1,0.5-1,1C15,5.8,15.4,6.3,16,6.3"></path>
	<path class="st0" d="M61,6.3h2.1c0.6,0,1-0.4,1-1c0-0.6-0.4-1-1-1H61c-0.6,0-1,0.5-1,1C60,5.8,60.4,6.3,61,6.3"></path>
	<path class="st0" d="M29.9,15H8.5c-1.1,0-2.1,0.9-2.1,2.1v4.3c0,1.1,0.9,2.1,2.1,2.1h21.4c1.1,0,2.1-0.9,2.1-2.1v-4.3   C32,15.9,31.1,15,29.9,15 M30,21.4C30,21.4,30,21.4,30,21.4L8.5,21.4c0,0-0.1,0-0.1-0.1v-4.3c0,0,0-0.1,0.1-0.1h21.4   c0,0,0.1,0,0.1,0.1V21.4z"></path>
	<path class="st1" d="M61,18.2h-6.7c-0.4-1.2-1.6-2.1-3-2.1c-1.4,0-2.6,0.9-3,2.1H46c-0.6,0-1,0.5-1,1c0,0.6,0.4,1,1,1h2.4   c0.4,1.2,1.6,2.1,3,2.1c1.4,0,2.6-0.9,3-2.1H61c0.6,0,1-0.5,1-1C62,18.7,61.6,18.2,61,18.2 M51.4,20.4c-0.6,0-1.1-0.5-1.1-1.1   c0-0.6,0.5-1.1,1.1-1.1c0.6,0,1.1,0.5,1.1,1.1C52.5,19.8,52,20.4,51.4,20.4"></path>
	<path class="st0" d="M38.5,15c-2.3,0-4.2,1.9-4.2,4.2s1.9,4.2,4.2,4.2c2.3,0,4.2-1.9,4.2-4.2S40.8,15,38.5,15 M38.5,21.4   c-1.2,0-2.2-1-2.2-2.2c0-1.2,1-2.2,2.2-2.2c1.2,0,2.2,1,2.2,2.2C40.7,20.4,39.7,21.4,38.5,21.4"></path>
	<path class="st0" d="M29.9,26.8H8.5c-1.1,0-2.1,0.9-2.1,2.1v4.3c0,1.1,0.9,2.1,2.1,2.1h21.4c1.1,0,2.1-0.9,2.1-2.1v-4.3   C32,27.7,31.1,26.8,29.9,26.8 M30,33.1C30,33.2,30,33.2,30,33.1L8.5,33.2c0,0-0.1,0-0.1-0.1v-4.3c0,0,0-0.1,0.1-0.1h21.4   c0,0,0.1,0,0.1,0.1V33.1z"></path>
	<path class="st2" d="M61,30h-1.3c-0.4-1.2-1.6-2.1-3-2.1c-1.4,0-2.6,0.9-3,2.1H46c-0.6,0-1,0.5-1,1c0,0.6,0.4,1,1,1h7.7   c0.4,1.2,1.6,2.1,3,2.1c1.4,0,2.6-0.9,3-2.1H61c0.6,0,1-0.5,1-1C62,30.4,61.6,30,61,30 M56.7,32.1c-0.6,0-1.1-0.5-1.1-1.1   c0-0.6,0.5-1.1,1.1-1.1c0.6,0,1.1,0.5,1.1,1.1C57.9,31.6,57.3,32.1,56.7,32.1"></path>
	<path class="st0" d="M38.5,26.8c-2.3,0-4.2,1.9-4.2,4.2s1.9,4.2,4.2,4.2c2.3,0,4.2-1.9,4.2-4.2S40.8,26.8,38.5,26.8 M38.5,33.2   c-1.2,0-2.2-1-2.2-2.2c0-1.2,1-2.2,2.2-2.2c1.2,0,2.2,1,2.2,2.2C40.7,32.2,39.7,33.2,38.5,33.2"></path>
	<path class="st0" d="M29.9,38.6H8.5c-1.1,0-2.1,0.9-2.1,2.1v4.3c0,1.1,0.9,2.1,2.1,2.1h21.4c1.1,0,2.1-0.9,2.1-2.1v-4.3   C32,39.5,31.1,38.6,29.9,38.6 M30,44.9C30,45,30,45,30,44.9L8.5,45c0,0-0.1,0-0.1-0.1v-4.3c0,0,0-0.1,0.1-0.1h21.4   c0,0,0.1,0,0.1,0.1V44.9z"></path>
	<path class="st1" d="M61,41.8h-5.6c-0.4-1.2-1.6-2.1-3-2.1c-1.4,0-2.6,0.9-3,2.1H46c-0.6,0-1,0.5-1,1c0,0.6,0.5,1,1,1h3.4   c0.4,1.2,1.6,2.1,3,2.1c1.4,0,2.6-0.9,3-2.1H61c0.6,0,1-0.5,1-1C62,42.2,61.6,41.8,61,41.8 M52.4,43.9c-0.6,0-1.1-0.5-1.1-1.1   c0-0.6,0.5-1.1,1.1-1.1c0.6,0,1.1,0.5,1.1,1.1C53.6,43.4,53.1,43.9,52.4,43.9"></path>
	<path class="st0" d="M38.5,38.6c-2.3,0-4.2,1.9-4.2,4.2c0,2.3,1.9,4.2,4.2,4.2c2.3,0,4.2-1.9,4.2-4.2   C42.7,40.5,40.8,38.6,38.5,38.6 M38.5,45c-1.2,0-2.2-1-2.2-2.2c0-1.2,1-2.2,2.2-2.2c1.2,0,2.2,1,2.2,2.2C40.7,44,39.7,45,38.5,45"></path>
	<path class="st0" d="M63.1,0H5.3C2.4,0,0,2.4,0,5.3v42.9c0,2.9,2.4,5.3,5.3,5.3h57.9c2.9,0,5.3-2.4,5.3-5.3V5.3   C68.4,2.4,66.1,0,63.1,0 M5.3,2h57.9c1.8,0,3.3,1.5,3.3,3.3v3.3H2V5.3C2,3.5,3.5,2,5.3,2 M63.1,51.4H5.3C3.5,51.4,2,50,2,48.1V10.6   h64.4v37.6C66.4,50,65,51.4,63.1,51.4"></path>
</g>
</svg>
