<svg width="49" height="49" viewBox="0 0 49 49" fill="none" xmlns="http://www.w3.org/2000/svg">
<g clip-path="url(#clip0_164_79)">
<path d="M30.6875 26.1719C29.3881 26.1719 29.1406 26.0636 29.1406 25.4861C29.1406 24.9086 29.847 24.3981 30.6875 24.3981C31.16 24.3848 31.619 24.557 31.9662 24.8777C32.0629 24.9737 32.1935 25.0276 32.3298 25.0276C32.466 25.0276 32.5967 24.9737 32.6933 24.8777C32.7416 24.8297 32.78 24.7727 32.8061 24.7099C32.8323 24.647 32.8458 24.5796 32.8458 24.5116C32.8458 24.4435 32.8323 24.3761 32.8061 24.3133C32.78 24.2504 32.7416 24.1934 32.6933 24.1455C32.2857 23.7511 31.7644 23.4949 31.2031 23.4133V23.0781C31.2031 22.9414 31.1488 22.8102 31.0521 22.7135C30.9554 22.6168 30.8243 22.5625 30.6875 22.5625C30.5507 22.5625 30.4196 22.6168 30.3229 22.7135C30.2262 22.8102 30.1719 22.9414 30.1719 23.0781V23.4081C28.9963 23.6041 28.1094 24.4394 28.1094 25.4706C28.1094 27.2031 29.7233 27.2031 30.6875 27.2031C31.9869 27.2031 32.2344 27.3114 32.2344 27.8889C32.2344 28.4664 31.528 28.9769 30.6875 28.9769C30.215 28.9902 29.756 28.818 29.4088 28.4973C29.3121 28.4013 29.1815 28.3474 29.0452 28.3474C28.909 28.3474 28.7783 28.4013 28.6817 28.4973C28.6334 28.5453 28.595 28.6023 28.5689 28.6651C28.5427 28.728 28.5292 28.7954 28.5292 28.8634C28.5292 28.9315 28.5427 28.9989 28.5689 29.0617C28.595 29.1246 28.6334 29.1816 28.6817 29.2295C29.0893 29.6239 29.6106 29.8801 30.1719 29.9617V30.2969C30.1719 30.4336 30.2262 30.5648 30.3229 30.6615C30.4196 30.7582 30.5507 30.8125 30.6875 30.8125C30.8243 30.8125 30.9554 30.7582 31.0521 30.6615C31.1488 30.5648 31.2031 30.4336 31.2031 30.2969V29.9669C32.3787 29.7709 33.2656 28.9356 33.2656 27.9044C33.2656 26.1719 31.6517 26.1719 30.6875 26.1719Z" fill="black"/>
<path d="M30.6875 19.9844C29.3617 19.9844 28.0658 20.3775 26.9634 21.1141C25.8611 21.8506 25.002 22.8975 24.4946 24.1223C23.9873 25.3472 23.8545 26.6949 24.1132 27.9952C24.3718 29.2955 25.0102 30.4899 25.9477 31.4273C26.8851 32.3648 28.0795 33.0032 29.3798 33.2618C30.6801 33.5205 32.0278 33.3877 33.2527 32.8804C34.4775 32.373 35.5244 31.5139 36.2609 30.4116C36.9975 29.3092 37.3906 28.0133 37.3906 26.6875C37.3906 24.9097 36.6844 23.2048 35.4273 21.9477C34.1702 20.6906 32.4653 19.9844 30.6875 19.9844ZM30.6875 32.3594C29.5657 32.3594 28.4691 32.0267 27.5364 31.4035C26.6036 30.7803 25.8767 29.8944 25.4474 28.858C25.0181 27.8216 24.9058 26.6812 25.1246 25.581C25.3435 24.4807 25.8837 23.4701 26.6769 22.6769C27.4701 21.8837 28.4807 21.3435 29.581 21.1246C30.6812 20.9058 31.8216 21.0181 32.858 21.4474C33.8944 21.8767 34.7803 22.6036 35.4035 23.5364C36.0267 24.4691 36.3594 25.5657 36.3594 26.6875C36.3594 28.1918 35.7618 29.6344 34.6981 30.6981C33.6344 31.7618 32.1918 32.3594 30.6875 32.3594Z" fill="black"/>
<path d="M40.5876 25.1407L39.2573 24.8726C39.0382 23.8103 38.6201 22.7991 38.0249 21.8923L38.7726 20.7631C38.8388 20.6643 38.8688 20.5456 38.8575 20.4272C38.8463 20.3088 38.7944 20.1979 38.7107 20.1134L37.2515 18.6542C37.167 18.5705 37.0561 18.5186 36.9377 18.5074C36.8193 18.4961 36.7006 18.5261 36.6018 18.5923L35.4726 19.3399C34.5658 18.7448 33.5546 18.3267 32.4923 18.1076L32.2345 16.7876C32.2104 16.6694 32.1456 16.5634 32.0514 16.488C31.9571 16.4126 31.8395 16.3727 31.7189 16.3751H29.6564C29.5357 16.3727 29.4181 16.4126 29.3239 16.488C29.2296 16.5634 29.1648 16.6694 29.1407 16.7876L28.8726 18.1179C27.8103 18.337 26.7991 18.7551 25.8923 19.3503L24.7631 18.6026C24.6643 18.5364 24.5456 18.5064 24.4272 18.5177C24.3088 18.529 24.1979 18.5808 24.1134 18.6645L22.6542 20.1237C22.5705 20.2082 22.5186 20.3191 22.5074 20.4375C22.4961 20.5559 22.5261 20.6746 22.5923 20.7734L23.3399 21.9026C22.7448 22.8094 22.3267 23.8206 22.1076 24.8829L20.7876 25.1407C20.6694 25.1648 20.5634 25.2296 20.488 25.3239C20.4126 25.4181 20.3727 25.5357 20.3751 25.6564V27.7189C20.3727 27.8395 20.4126 27.9571 20.488 28.0514C20.5634 28.1456 20.6694 28.2104 20.7876 28.2345L22.1179 28.5026C22.337 29.5649 22.7551 30.5761 23.3503 31.4829L22.6026 32.6121C22.5364 32.711 22.5064 32.8296 22.5177 32.948C22.529 33.0664 22.5808 33.1773 22.6645 33.2618L24.1237 34.721C24.2082 34.8047 24.3191 34.8566 24.4375 34.8678C24.5559 34.8791 24.6746 34.8491 24.7734 34.7829L25.9026 34.0353C26.8094 34.6304 27.8206 35.0485 28.8829 35.2676L29.1407 36.5876C29.1648 36.7058 29.2296 36.8118 29.3239 36.8872C29.4181 36.9626 29.5357 37.0025 29.6564 37.0001H31.7189C31.8395 37.0025 31.9571 36.9626 32.0514 36.8872C32.1456 36.8118 32.2104 36.7058 32.2345 36.5876L32.5026 35.2573C33.5649 35.0382 34.5761 34.6201 35.4829 34.0249L36.6121 34.7726C36.711 34.8388 36.8296 34.8688 36.948 34.8575C37.0664 34.8463 37.1773 34.7944 37.2618 34.7107L38.721 33.2515C38.8047 33.167 38.8566 33.0561 38.8678 32.9377C38.8791 32.8193 38.8491 32.7006 38.7829 32.6018L38.0353 31.4726C38.6304 30.5658 39.0485 29.5546 39.2676 28.4923L40.5876 28.2345C40.7058 28.2104 40.8118 28.1456 40.8872 28.0514C40.9626 27.9571 41.0025 27.8395 41.0001 27.7189V25.6564C41.0025 25.5357 40.9626 25.4181 40.8872 25.3239C40.8118 25.2296 40.7058 25.1648 40.5876 25.1407ZM39.9689 27.296L38.7159 27.5487C38.6138 27.569 38.5202 27.6198 38.4475 27.6944C38.3748 27.7689 38.3263 27.8637 38.3085 27.9664C38.1168 29.1224 37.6636 30.2194 36.9834 31.1735C36.9246 31.2593 36.8932 31.3609 36.8932 31.4649C36.8932 31.5689 36.9246 31.6704 36.9834 31.7562L37.6898 32.8184L36.8287 33.6795L35.7665 32.9731C35.6807 32.9143 35.5792 32.8829 35.4752 32.8829C35.3712 32.8829 35.2697 32.9143 35.1839 32.9731C34.229 33.652 33.1323 34.1051 31.9767 34.2982C31.8741 34.316 31.7792 34.3644 31.7047 34.4372C31.6301 34.5099 31.5794 34.6034 31.559 34.7056L31.296 35.9689H30.0792L29.8265 34.7159C29.8062 34.6138 29.7554 34.5202 29.6808 34.4475C29.6063 34.3748 29.5115 34.3263 29.4089 34.3085C28.2532 34.1154 27.1566 33.6623 26.2017 32.9834C26.1159 32.9246 26.0143 32.8932 25.9103 32.8932C25.8064 32.8932 25.7048 32.9246 25.619 32.9834L24.5568 33.6898L23.6957 32.8287L24.4021 31.7665C24.4609 31.6807 24.4923 31.5792 24.4923 31.4752C24.4923 31.3712 24.4609 31.2697 24.4021 31.1839C23.7219 30.2297 23.2687 29.1327 23.077 27.9767C23.0592 27.8741 23.0108 27.7792 22.9381 27.7047C22.8653 27.6301 22.7718 27.5794 22.6696 27.559L21.4064 27.296V26.0792L22.6593 25.8265C22.7615 25.8062 22.855 25.7554 22.9277 25.6808C23.0005 25.6063 23.0489 25.5115 23.0667 25.4089C23.2584 24.2528 23.7116 23.1559 24.3918 22.2017C24.4506 22.1159 24.482 22.0143 24.482 21.9103C24.482 21.8064 24.4506 21.7048 24.3918 21.619L23.6854 20.5568L24.5465 19.6957L25.6087 20.4021C25.6945 20.4609 25.796 20.4923 25.9 20.4923C26.004 20.4923 26.1056 20.4609 26.1914 20.4021C27.1462 19.7232 28.2429 19.2701 29.3985 19.077C29.5012 19.0592 29.596 19.0108 29.6705 18.9381C29.7451 18.8653 29.7959 18.7718 29.8162 18.6696L30.0792 17.4064H31.296L31.5487 18.6593C31.569 18.7615 31.6198 18.855 31.6944 18.9277C31.7689 19.0005 31.8637 19.0489 31.9664 19.0667C33.122 19.2598 34.2187 19.7129 35.1735 20.3918C35.2593 20.4506 35.3609 20.482 35.4649 20.482C35.5689 20.482 35.6704 20.4506 35.7562 20.3918L36.8184 19.6854L37.6795 20.5465L36.9731 21.6087C36.9143 21.6945 36.8829 21.796 36.8829 21.9C36.8829 22.004 36.9143 22.1056 36.9731 22.1914C37.6533 23.1455 38.1065 24.2425 38.2982 25.3985C38.316 25.5012 38.3644 25.596 38.4372 25.6705C38.5099 25.7451 38.6034 25.7959 38.7056 25.8162L39.9585 26.0689L39.9689 27.296Z" fill="black"/>
<path d="M8.43317 13.7969L9.78411 14.0186C9.93344 14.56 10.1518 15.0799 10.4338 15.5655L9.63457 16.6896C9.56296 16.7886 9.52884 16.9098 9.53828 17.0316C9.54773 17.1534 9.60012 17.2679 9.68614 17.3547L11.1454 18.8139C11.2321 18.9 11.3466 18.9524 11.4685 18.9618C11.5903 18.9712 11.7115 18.9371 11.8105 18.8655L12.9294 18.0663C13.4151 18.3483 13.9349 18.5666 14.4763 18.716L14.7032 20.0669C14.7229 20.1889 14.7859 20.2998 14.8805 20.3793C14.9752 20.4588 15.0952 20.5016 15.2188 20.5H17.2813C17.4049 20.5016 17.5249 20.4588 17.6196 20.3793C17.7142 20.2998 17.7772 20.1889 17.7969 20.0669L18.0186 18.716C18.56 18.5666 19.0799 18.3483 19.5655 18.0663L20.6844 18.8655C20.7834 18.9371 20.9046 18.9712 21.0265 18.9618C21.1483 18.9524 21.2628 18.9 21.3496 18.8139L22.8088 17.3547C22.8948 17.2679 22.9472 17.1534 22.9566 17.0316C22.9661 16.9098 22.932 16.7886 22.8604 16.6896L22.0611 15.5707C22.3431 15.085 22.5615 14.5651 22.7108 14.0238L24.0669 13.7969C24.1889 13.7772 24.2998 13.7142 24.3793 13.6196C24.4588 13.5249 24.5016 13.4049 24.5 13.2813V11.2188C24.5016 11.0952 24.4588 10.9752 24.3793 10.8805C24.2998 10.7859 24.1889 10.7229 24.0669 10.7032L22.716 10.4814C22.5666 9.9401 22.3483 9.42021 22.0663 8.93457L22.8655 7.81567C22.9371 7.71666 22.9712 7.59545 22.9618 7.47363C22.9524 7.35181 22.9 7.2373 22.8139 7.15051L21.3547 5.68614C21.2679 5.60012 21.1534 5.54773 21.0316 5.53828C20.9098 5.52884 20.7886 5.56296 20.6896 5.63457L19.5707 6.43379C19.085 6.1518 18.5651 5.93344 18.0238 5.78411L17.7969 4.43317C17.7772 4.31116 17.7142 4.20031 17.6196 4.12081C17.5249 4.04131 17.4049 3.99845 17.2813 4.00004H15.2188C15.0952 3.99845 14.9752 4.04131 14.8805 4.12081C14.7859 4.20031 14.7229 4.31116 14.7032 4.43317L14.4814 5.78411C13.9401 5.93344 13.4202 6.1518 12.9346 6.43379L11.8105 5.63457C11.7115 5.56296 11.5903 5.52884 11.4685 5.53828C11.3466 5.54773 11.2321 5.60012 11.1454 5.68614L9.68614 7.14536C9.60012 7.23214 9.54773 7.34665 9.53828 7.46847C9.52884 7.59029 9.56296 7.71151 9.63457 7.81051L10.4338 8.92942C10.1518 9.41505 9.93344 9.93494 9.78411 10.4763L8.43317 10.7032C8.31116 10.7229 8.20031 10.7859 8.12081 10.8805C8.04131 10.9752 7.99845 11.0952 8.00004 11.2188V13.2813C7.99845 13.4049 8.04131 13.5249 8.12081 13.6196C8.20031 13.7142 8.31116 13.7772 8.43317 13.7969ZM9.03129 11.6571L10.2894 11.4457C10.3906 11.4286 10.4845 11.3817 10.5589 11.3109C10.6333 11.2402 10.6849 11.1489 10.7071 11.0486C10.8528 10.3873 11.1147 9.75711 11.4805 9.18723C11.5393 9.10144 11.5707 8.99988 11.5707 8.8959C11.5707 8.79192 11.5393 8.69037 11.4805 8.60457L10.738 7.57332L11.5682 6.7277L12.5994 7.4702C12.6852 7.52895 12.7868 7.56039 12.8907 7.56039C12.9947 7.56039 13.0963 7.52895 13.1821 7.4702C13.752 7.10439 14.3822 6.84253 15.0435 6.69676C15.1437 6.67458 15.2351 6.62298 15.3058 6.54857C15.3765 6.47417 15.4234 6.38034 15.4405 6.27911L15.6571 5.03129H16.843L17.0544 6.28942C17.0715 6.39065 17.1184 6.48448 17.1891 6.55889C17.2599 6.63329 17.3512 6.68489 17.4514 6.70707C18.1128 6.85284 18.743 7.11471 19.3129 7.48051C19.3986 7.53926 19.5002 7.5707 19.6042 7.5707C19.7082 7.5707 19.8097 7.53926 19.8955 7.48051L20.9268 6.73801L21.7672 7.57848L21.0247 8.60973C20.966 8.69552 20.9345 8.79708 20.9345 8.90106C20.9345 9.00504 20.966 9.10659 21.0247 9.19239C21.3905 9.76226 21.6524 10.3925 21.7982 11.0538C21.8203 11.154 21.8719 11.2454 21.9464 11.3161C22.0208 11.3868 22.1146 11.4337 22.2158 11.4508L23.4739 11.6622V12.8482L22.2158 13.0596C22.1146 13.0767 22.0208 13.1236 21.9464 13.1943C21.8719 13.265 21.8203 13.3564 21.7982 13.4566C21.6524 14.1179 21.3905 14.7481 21.0247 15.318C20.966 15.4038 20.9345 15.5054 20.9345 15.6093C20.9345 15.7133 20.966 15.8149 21.0247 15.9007L21.7672 16.9319L20.9268 17.7724L19.8955 17.0299C19.8097 16.9711 19.7082 16.9397 19.6042 16.9397C19.5002 16.9397 19.3986 16.9711 19.3129 17.0299C18.743 17.3957 18.1128 17.6576 17.4514 17.8033C17.3512 17.8255 17.2599 17.8771 17.1891 17.9515C17.1184 18.0259 17.0715 18.1197 17.0544 18.221L16.843 19.4688H15.6571L15.4457 18.2107C15.4286 18.1094 15.3817 18.0156 15.3109 17.9412C15.2402 17.8668 15.1489 17.8152 15.0486 17.793C14.3873 17.6472 13.7571 17.3854 13.1872 17.0196C13.1014 16.9608 12.9999 16.9294 12.8959 16.9294C12.7919 16.9294 12.6904 16.9608 12.6046 17.0196L11.5733 17.7621L10.7277 16.9319L11.4702 15.9007C11.5289 15.8149 11.5604 15.7133 11.5604 15.6093C11.5604 15.5054 11.5289 15.4038 11.4702 15.318C11.1044 14.7481 10.8425 14.1179 10.6968 13.4566C10.6746 13.3564 10.623 13.265 10.5486 13.1943C10.4742 13.1236 10.3803 13.0767 10.2791 13.0596L9.03129 12.843V11.6571Z" fill="black"/>
<path d="M16.25 16.8906C17.1678 16.8906 18.065 16.6185 18.8282 16.1085C19.5913 15.5986 20.1861 14.8739 20.5374 14.0259C20.8886 13.1779 20.9805 12.2449 20.8015 11.3447C20.6224 10.4445 20.1804 9.61759 19.5314 8.96858C18.8824 8.31958 18.0555 7.8776 17.1553 7.69855C16.2551 7.51949 15.3221 7.61139 14.4741 7.96262C13.6261 8.31386 12.9014 8.90866 12.3915 9.67181C11.8815 10.435 11.6094 11.3322 11.6094 12.25C11.6094 13.4808 12.0983 14.6611 12.9686 15.5314C13.8389 16.4017 15.0192 16.8906 16.25 16.8906ZM16.25 8.64063C16.9639 8.64063 17.6617 8.85231 18.2553 9.24892C18.8488 9.64552 19.3114 10.2092 19.5846 10.8688C19.8578 11.5283 19.9293 12.254 19.79 12.9542C19.6508 13.6543 19.307 14.2974 18.8022 14.8022C18.2974 15.307 17.6543 15.6508 16.9542 15.79C16.254 15.9293 15.5283 15.8578 14.8688 15.5846C14.2092 15.3114 13.6455 14.8488 13.2489 14.2553C12.8523 13.6617 12.6406 12.9639 12.6406 12.25C12.6406 11.2927 13.0209 10.3747 13.6978 9.69779C14.3747 9.0209 15.2927 8.64063 16.25 8.64063Z" fill="black"/>
<path d="M16.25 14.3125C16.6579 14.3125 17.0567 14.1915 17.3959 13.9649C17.735 13.7383 17.9994 13.4162 18.1555 13.0393C18.3116 12.6624 18.3525 12.2477 18.2729 11.8476C18.1933 11.4475 17.9969 11.08 17.7084 10.7916C17.42 10.5031 17.0525 10.3067 16.6524 10.2271C16.2523 10.1475 15.8376 10.1884 15.4607 10.3445C15.0838 10.5006 14.7617 10.765 14.5351 11.1041C14.3085 11.4433 14.1875 11.8421 14.1875 12.25C14.1875 12.797 14.4048 13.3216 14.7916 13.7084C15.1784 14.0952 15.703 14.3125 16.25 14.3125ZM16.25 11.2188C16.454 11.2188 16.6533 11.2792 16.8229 11.3925C16.9925 11.5059 17.1247 11.6669 17.2028 11.8554C17.2808 12.0438 17.3012 12.2511 17.2614 12.4512C17.2216 12.6512 17.1234 12.835 16.9792 12.9792C16.835 13.1234 16.6512 13.2216 16.4512 13.2614C16.2511 13.3012 16.0438 13.2808 15.8554 13.2028C15.6669 13.1247 15.5059 12.9925 15.3925 12.8229C15.2792 12.6533 15.2188 12.454 15.2188 12.25C15.2188 11.9765 15.3274 11.7142 15.5208 11.5208C15.7142 11.3274 15.9765 11.2188 16.25 11.2188Z" fill="black"/>
<path d="M13.6719 37H14.7032C14.8268 37.0016 14.9468 36.9588 15.0414 36.8793C15.1361 36.7998 15.199 36.6889 15.2188 36.5669L15.3374 35.8347C15.9025 35.7079 16.4415 35.4847 16.9307 35.1747L17.5391 35.6079C17.6387 35.6788 17.7603 35.7121 17.8821 35.7017C18.0039 35.6913 18.1181 35.6379 18.2043 35.5511L18.9313 34.8241C19.0181 34.738 19.0714 34.6238 19.0818 34.5019C19.0922 34.3801 19.059 34.2585 18.988 34.1589L18.5549 33.5505C18.8648 33.0613 19.0881 32.5223 19.2149 31.9572L19.9419 31.8438C20.0639 31.824 20.1748 31.7611 20.2543 31.6665C20.3338 31.5718 20.3766 31.4518 20.375 31.3282V30.2969C20.3766 30.1733 20.3338 30.0533 20.2543 29.9586C20.1748 29.864 20.0639 29.8011 19.9419 29.7813L19.2097 29.6627C19.0829 29.0976 18.8597 28.5586 18.5497 28.0694L18.9829 27.461C19.0538 27.3614 19.0871 27.2398 19.0767 27.118C19.0663 26.9961 19.0129 26.882 18.9261 26.7958L18.1991 26.0688C18.113 25.982 17.9988 25.9287 17.8769 25.9183C17.7551 25.9079 17.6335 25.9411 17.5339 26.0121L16.9255 26.4452C16.4363 26.1353 15.8973 25.912 15.3322 25.7852L15.2188 25.0582C15.199 24.9362 15.1361 24.8253 15.0414 24.7458C14.9468 24.6663 14.8268 24.6235 14.7032 24.625H13.6719C13.5483 24.6235 13.4283 24.6663 13.3336 24.7458C13.239 24.8253 13.1761 24.9362 13.1563 25.0582L13.0377 25.7904C12.4726 25.9171 11.9336 26.1404 11.4444 26.4504L10.8411 26.0172C10.7415 25.9463 10.62 25.913 10.4981 25.9234C10.3763 25.9338 10.2621 25.9872 10.176 26.0739L9.44895 26.801C9.36216 26.8871 9.30881 27.0013 9.29842 27.1231C9.28803 27.245 9.32128 27.3665 9.39223 27.4661L9.82536 28.0746C9.51541 28.5638 9.29214 29.1028 9.16536 29.6679L8.43317 29.7813C8.31116 29.8011 8.20031 29.864 8.12081 29.9586C8.04131 30.0533 7.99845 30.1733 8.00004 30.2969V31.3282C7.99845 31.4518 8.04131 31.5718 8.12081 31.6665C8.20031 31.7611 8.31116 31.824 8.43317 31.8438L9.16536 31.9624C9.29214 32.5275 9.51541 33.0665 9.82536 33.5557L9.39223 34.1589C9.32128 34.2585 9.28803 34.3801 9.29842 34.5019C9.30881 34.6238 9.36216 34.738 9.44895 34.8241L10.176 35.5511C10.2621 35.6379 10.3763 35.6913 10.4981 35.7017C10.62 35.7121 10.7415 35.6788 10.8411 35.6079L11.4496 35.1747C11.9388 35.4847 12.4778 35.7079 13.0429 35.8347L13.1563 36.5669C13.1761 36.6889 13.239 36.7998 13.3336 36.8793C13.4283 36.9588 13.5483 37.0016 13.6719 37ZM11.7435 34.1332C11.6557 34.0698 11.5501 34.0357 11.4418 34.0357C11.3336 34.0357 11.228 34.0698 11.1402 34.1332L10.6246 34.5199L10.4854 34.4219L10.8721 33.8805C10.9354 33.7927 10.9695 33.6872 10.9695 33.5789C10.9695 33.4706 10.9354 33.3651 10.8721 33.2772C10.4722 32.7332 10.2119 32.0994 10.1141 31.4313C10.0973 31.3247 10.0474 31.226 9.97158 31.1493C9.89573 31.0725 9.79769 31.0214 9.69129 31.0033L9.03129 30.8899V30.7352L9.69129 30.6218C9.79769 30.6037 9.89573 30.5526 9.97158 30.4758C10.0474 30.3991 10.0973 30.3004 10.1141 30.1938C10.2136 29.5334 10.4719 28.907 10.8669 28.3685C10.9303 28.2807 10.9644 28.1751 10.9644 28.0668C10.9644 27.9586 10.9303 27.853 10.8669 27.7652L10.4854 27.2032L10.5782 27.1104L11.0938 27.4971C11.1816 27.5604 11.2871 27.5945 11.3954 27.5945C11.5037 27.5945 11.6093 27.5604 11.6971 27.4971C12.2485 27.0932 12.8917 26.8328 13.5688 26.7391C13.6754 26.7223 13.7741 26.6724 13.8508 26.5966C13.9276 26.5207 13.9787 26.4227 13.9968 26.3163L14.1102 25.6563H14.2649L14.3783 26.3163C14.3964 26.4227 14.4475 26.5207 14.5243 26.5966C14.601 26.6724 14.6997 26.7223 14.8063 26.7391C15.4667 26.8386 16.0931 27.0969 16.6316 27.4919C16.7194 27.5553 16.825 27.5894 16.9332 27.5894C17.0415 27.5894 17.1471 27.5553 17.2349 27.4919L17.7969 27.1104L17.9104 27.2238L17.5236 27.7652C17.4603 27.853 17.4262 27.9586 17.4262 28.0668C17.4262 28.1751 17.4603 28.2807 17.5236 28.3685C17.9131 28.9085 18.1661 29.5348 18.261 30.1938C18.2778 30.3004 18.3276 30.3991 18.4035 30.4758C18.4794 30.5526 18.5774 30.6037 18.6838 30.6218L19.3438 30.7352V30.8899L18.6838 31.0033C18.5774 31.0214 18.4794 31.0725 18.4035 31.1493C18.3276 31.226 18.2778 31.3247 18.261 31.4313C18.1615 32.0917 17.9032 32.7181 17.5082 33.2566C17.4448 33.3444 17.4107 33.45 17.4107 33.5582C17.4107 33.6665 17.4448 33.7721 17.5082 33.8599L17.8897 34.4219L17.7763 34.5354L17.2349 34.1486C17.1471 34.0853 17.0415 34.0512 16.9332 34.0512C16.825 34.0512 16.7194 34.0853 16.6316 34.1486C16.0916 34.5381 15.4653 34.7911 14.8063 34.886C14.6997 34.9028 14.601 34.9526 14.5243 35.0285C14.4475 35.1044 14.3964 35.2024 14.3783 35.3088L14.2649 35.9688H14.1102L13.9968 35.3088C13.9787 35.2024 13.9276 35.1044 13.8508 35.0285C13.7741 34.9526 13.6754 34.9028 13.5688 34.886C12.9084 34.7865 12.282 34.5282 11.7435 34.1332Z" fill="black"/>
<path d="M17.2813 30.8125C17.2813 30.2006 17.0998 29.6025 16.7599 29.0937C16.4199 28.5849 15.9367 28.1884 15.3714 27.9542C14.8061 27.7201 14.1841 27.6588 13.5839 27.7782C12.9838 27.8976 12.4326 28.1922 11.9999 28.6249C11.5672 29.0576 11.2726 29.6088 11.1532 30.2089C11.0338 30.8091 11.0951 31.4311 11.3292 31.9964C11.5634 32.5617 11.9599 33.0449 12.4687 33.3849C12.9775 33.7248 13.5756 33.9063 14.1875 33.9063C15.008 33.9063 15.7949 33.5803 16.3751 33.0001C16.9553 32.4199 17.2813 31.633 17.2813 30.8125ZM12.125 30.8125C12.125 30.4046 12.246 30.0058 12.4726 29.6666C12.6992 29.3275 13.0213 29.0631 13.3982 28.907C13.7751 28.7509 14.1898 28.71 14.5899 28.7896C14.99 28.8692 15.3575 29.0656 15.6459 29.3541C15.9344 29.6425 16.1308 30.01 16.2104 30.4101C16.29 30.8102 16.2491 31.2249 16.093 31.6018C15.9369 31.9787 15.6725 32.3008 15.3334 32.5274C14.9942 32.754 14.5954 32.875 14.1875 32.875C13.6405 32.875 13.1159 32.6577 12.7291 32.2709C12.3423 31.8841 12.125 31.3595 12.125 30.8125Z" fill="black"/>
<path d="M14.1875 31.3281C14.4723 31.3281 14.7031 31.0973 14.7031 30.8125C14.7031 30.5277 14.4723 30.2969 14.1875 30.2969C13.9027 30.2969 13.6719 30.5277 13.6719 30.8125C13.6719 31.0973 13.9027 31.3281 14.1875 31.3281Z" fill="black"/>
<path d="M40.4842 4H36.8748C36.773 4.00051 36.6736 4.03114 36.5892 4.08803C36.5048 4.14492 36.4391 4.22552 36.4004 4.31969C36.3609 4.41359 36.3501 4.51708 36.3694 4.61711C36.3887 4.71713 36.4372 4.80921 36.5087 4.88172L37.9679 6.34094C37.9165 6.43775 37.8973 6.54844 37.913 6.65692C37.9288 6.7654 37.9787 6.86604 38.0556 6.94422C38.1038 6.99201 38.1609 7.02982 38.2237 7.05548C38.2865 7.08114 38.3538 7.09414 38.4217 7.09375C38.505 7.09091 38.5864 7.06791 38.6589 7.02672L40.1181 8.49109C40.1663 8.53888 40.2234 8.57669 40.2862 8.60235C40.349 8.62801 40.4163 8.64102 40.4842 8.64062C40.5518 8.64237 40.6189 8.62824 40.6801 8.59938C40.7743 8.56069 40.8549 8.495 40.9118 8.41058C40.9687 8.32617 40.9993 8.2268 40.9998 8.125V4.51562C40.9998 4.37887 40.9455 4.24772 40.8488 4.15102C40.7521 4.05432 40.6209 4 40.4842 4ZM39.9685 6.88234L38.1175 5.03125H39.9685V6.88234Z" fill="black"/>
<path d="M35.1634 11.6702C35.1415 11.7345 35.1326 11.8025 35.1371 11.8703C35.1416 11.9381 35.1595 12.0043 35.1897 12.0651C35.2199 12.126 35.2618 12.1803 35.313 12.2249C35.3642 12.2695 35.4238 12.3035 35.4882 12.3251C35.5411 12.344 35.5971 12.3528 35.6532 12.3508C35.7467 12.3459 35.8371 12.3155 35.9147 12.2631C35.9923 12.2106 36.0541 12.138 36.0935 12.0531C36.133 11.9681 36.1485 11.8741 36.1385 11.781C36.1286 11.6879 36.0934 11.5992 36.0369 11.5246C35.9803 11.4499 35.9045 11.3921 35.8176 11.3573C35.7306 11.3225 35.6359 11.312 35.5434 11.3269C35.451 11.3419 35.3644 11.3818 35.2929 11.4423C35.2214 11.5027 35.1677 11.5815 35.1376 11.6702H35.1634Z" fill="black"/>
<path d="M25.4125 16.7104C25.497 16.6118 25.5411 16.4849 25.5361 16.3551C25.5311 16.2253 25.4773 16.1022 25.3855 16.0104C25.2936 15.9186 25.1705 15.8648 25.0408 15.8598C24.911 15.8547 24.7841 15.8989 24.6855 15.9834C24.6131 16.0552 24.5636 16.1468 24.5433 16.2468C24.523 16.3467 24.5328 16.4504 24.5714 16.5448C24.61 16.6392 24.6758 16.72 24.7603 16.777C24.8449 16.834 24.9444 16.8647 25.0464 16.8651C25.1146 16.8648 25.1821 16.851 25.245 16.8244C25.3078 16.7979 25.3648 16.7591 25.4125 16.7104Z" fill="black"/>
<path d="M26.5624 15.4538C26.6649 15.452 26.7649 15.4216 26.8512 15.3661C26.9074 15.3283 26.9557 15.2797 26.9931 15.2231C27.0306 15.1666 27.0565 15.1032 27.0695 15.0366C27.0824 14.9701 27.0821 14.9016 27.0685 14.8351C27.0549 14.7687 27.0284 14.7056 26.9904 14.6494C26.9138 14.5359 26.7953 14.4575 26.6609 14.4313C26.5264 14.4052 26.3872 14.4336 26.2737 14.5102C26.1602 14.5868 26.0817 14.7053 26.0556 14.8397C26.0295 14.9741 26.0579 15.1134 26.1344 15.2269C26.1817 15.2969 26.2455 15.3542 26.3201 15.3937C26.3948 15.4333 26.478 15.4539 26.5624 15.4538Z" fill="black"/>
<path d="M31.064 14.3125C31.064 14.1757 31.0096 14.0446 30.9129 13.9479C30.8162 13.8512 30.6851 13.7969 30.5483 13.7969C30.4116 13.7969 30.2804 13.8512 30.1837 13.9479C30.087 14.0446 30.0327 14.1757 30.0327 14.3125C30.0327 14.4493 30.087 14.5804 30.1837 14.6771C30.2804 14.7738 30.4116 14.8281 30.5483 14.8281C30.6851 14.8281 30.8162 14.7738 30.9129 14.6771C31.0096 14.5804 31.064 14.4493 31.064 14.3125Z" fill="black"/>
<path d="M36.9624 8.5517C37.0303 8.55209 37.0975 8.53908 37.1604 8.51342C37.2232 8.48776 37.2803 8.44996 37.3285 8.40217C37.4002 8.32989 37.4489 8.23801 37.4684 8.1381C37.488 8.0382 37.4775 7.93474 37.4384 7.84077C37.3992 7.74679 37.3331 7.66651 37.2484 7.61004C37.1637 7.55357 37.0642 7.52344 36.9624 7.52344C36.8606 7.52344 36.7611 7.55357 36.6764 7.61004C36.5917 7.66651 36.5256 7.74679 36.4864 7.84077C36.4473 7.93474 36.4368 8.0382 36.4564 8.1381C36.4759 8.23801 36.5246 8.32989 36.5963 8.40217C36.6445 8.44996 36.7016 8.48776 36.7645 8.51342C36.8273 8.53908 36.8945 8.55209 36.9624 8.5517Z" fill="black"/>
<path d="M32.6109 14.8272H32.6728C32.8066 14.8192 32.932 14.7593 33.0225 14.6603C33.1129 14.5613 33.1613 14.431 33.1572 14.297C33.1532 14.163 33.0972 14.0358 33.0009 13.9425C32.9047 13.8491 32.7759 13.7969 32.6418 13.7969C32.5078 13.7969 32.379 13.8491 32.2828 13.9425C32.1865 14.0358 32.1305 14.163 32.1265 14.297C32.1224 14.431 32.1708 14.5613 32.2612 14.6603C32.3516 14.7593 32.4771 14.8192 32.6109 14.8272Z" fill="black"/>
<path d="M34.8124 13.9003C34.8914 13.8361 34.9497 13.7499 34.9798 13.6525C35.01 13.5552 35.0106 13.4512 34.9817 13.3535C34.9528 13.2559 34.8955 13.1689 34.8173 13.1038C34.739 13.0386 34.6431 12.998 34.5419 12.9873C34.4406 12.9765 34.3383 12.996 34.2481 13.0432C34.1579 13.0905 34.0836 13.1634 34.0348 13.2528C33.986 13.3422 33.9647 13.444 33.9737 13.5455C33.9827 13.647 34.0215 13.7435 34.0853 13.8229C34.1339 13.8827 34.1952 13.9309 34.2648 13.9639C34.3344 13.997 34.4105 14.014 34.4875 14.0137C34.6056 14.0142 34.7203 13.9742 34.8124 13.9003Z" fill="black"/>
<path d="M28.5012 14.8281C28.638 14.8281 28.7691 14.7738 28.8658 14.6771C28.9625 14.5804 29.0168 14.4493 29.0168 14.3125C29.0168 14.1757 28.9625 14.0446 28.8658 13.9479C28.7691 13.8512 28.638 13.7969 28.5012 13.7969C28.3645 13.7969 28.2333 13.8512 28.1366 13.9479C28.0399 14.0446 27.9856 14.1757 27.9856 14.3125C27.9856 14.4493 28.0399 14.5804 28.1366 14.6771C28.2333 14.7738 28.3645 14.8281 28.5012 14.8281Z" fill="black"/>
<path d="M36.0707 9.29656C35.9441 9.28137 35.8163 9.31364 35.7121 9.38712C35.6079 9.46061 35.5346 9.57011 35.5064 9.69447C35.4782 9.81883 35.4971 9.94923 35.5594 10.0605C35.6217 10.1717 35.7231 10.256 35.8438 10.2969H35.9676C36.1043 10.3133 36.242 10.2747 36.3503 10.1896C36.4586 10.1045 36.5287 9.97988 36.5451 9.84312C36.5615 9.70637 36.5229 9.5687 36.4378 9.4604C36.3527 9.3521 36.2281 9.28204 36.0913 9.26562L36.0707 9.29656Z" fill="black"/>
<path d="M18.8747 21.6393C18.7568 21.7073 18.6705 21.8192 18.6348 21.9506C18.599 22.082 18.6167 22.2221 18.6839 22.3405C18.7344 22.4293 18.81 22.5012 18.9013 22.5469C18.9926 22.5927 19.0955 22.6103 19.1968 22.5975C19.2981 22.5847 19.3934 22.5422 19.4705 22.4752C19.5476 22.4082 19.6031 22.3198 19.6299 22.2213C19.6567 22.1227 19.6536 22.0185 19.6211 21.9217C19.5885 21.8248 19.528 21.7399 19.4471 21.6775C19.3662 21.6152 19.2686 21.5783 19.1667 21.5715C19.0648 21.5646 18.9632 21.5883 18.8747 21.6393Z" fill="black"/>
<path d="M20.3081 20.3531C20.2121 20.4497 20.1582 20.5804 20.1582 20.7166C20.1582 20.8528 20.2121 20.9835 20.3081 21.0801C20.4048 21.1761 20.5354 21.23 20.6717 21.23C20.8079 21.23 20.9386 21.1761 21.0352 21.0801C21.1312 20.9835 21.1851 20.8528 21.1851 20.7166C21.1851 20.5804 21.1312 20.4497 21.0352 20.3531C20.9386 20.257 20.8079 20.2031 20.6717 20.2031C20.5354 20.2031 20.4048 20.257 20.3081 20.3531Z" fill="black"/>
<path d="M21.7671 18.899C21.6711 18.9956 21.6172 19.1263 21.6172 19.2625C21.6172 19.3987 21.6711 19.5294 21.7671 19.626C21.8637 19.7221 21.9944 19.776 22.1306 19.776C22.2669 19.776 22.3976 19.7221 22.4942 19.626C22.5481 19.5798 22.592 19.5229 22.6229 19.4589C22.6539 19.395 22.6713 19.3253 22.674 19.2543C22.6768 19.1833 22.6648 19.1125 22.6389 19.0463C22.6129 18.9801 22.5736 18.92 22.5234 18.8698C22.4731 18.8195 22.413 18.7802 22.3469 18.7543C22.2807 18.7284 22.2099 18.7164 22.1389 18.7191C22.0679 18.7219 21.9982 18.7393 21.9342 18.7702C21.8702 18.8012 21.8134 18.845 21.7671 18.899Z" fill="black"/>
<path d="M23.2266 17.4386C23.1306 17.5352 23.0767 17.6659 23.0767 17.8021C23.0767 17.9383 23.1306 18.069 23.2266 18.1656C23.3218 18.2628 23.4515 18.3184 23.5875 18.3203C23.6723 18.3207 23.7559 18.3001 23.8309 18.2604C23.9058 18.2208 23.9698 18.1632 24.0172 18.0929C24.0646 18.0226 24.094 17.9417 24.1026 17.8574C24.1113 17.773 24.099 17.6878 24.0669 17.6093C24.0348 17.5309 23.9838 17.4615 23.9185 17.4075C23.8531 17.3534 23.7755 17.3163 23.6924 17.2994C23.6093 17.2825 23.5233 17.2864 23.4421 17.3107C23.3608 17.3349 23.2868 17.3789 23.2266 17.4386Z" fill="black"/>
<path d="M17.1575 22.0469C17.0555 22.0469 16.9558 22.0771 16.871 22.1338C16.7862 22.1904 16.7201 22.271 16.6811 22.3652C16.6421 22.4594 16.6319 22.5631 16.6518 22.6631C16.6716 22.7631 16.7208 22.855 16.7929 22.9271C16.865 22.9992 16.9569 23.0483 17.0569 23.0682C17.1569 23.0881 17.2606 23.0779 17.3548 23.0389C17.449 22.9998 17.5295 22.9338 17.5862 22.849C17.6429 22.7642 17.6731 22.6645 17.6731 22.5625C17.6731 22.4257 17.6188 22.2946 17.5221 22.1979C17.4254 22.1012 17.2942 22.0469 17.1575 22.0469Z" fill="black"/>
<path d="M9.06732 23.8556C8.99461 23.9278 8.94501 24.0199 8.92487 24.1203C8.90472 24.2207 8.91494 24.3249 8.95421 24.4195C8.99349 24.5141 9.06004 24.5948 9.14538 24.6514C9.23073 24.708 9.331 24.738 9.43342 24.7374C9.50164 24.7371 9.56913 24.7233 9.63197 24.6967C9.69481 24.6702 9.75176 24.6314 9.79951 24.5827C9.89555 24.4861 9.94945 24.3554 9.94945 24.2192C9.94945 24.0829 9.89555 23.9523 9.79951 23.8556C9.75158 23.8073 9.69455 23.769 9.63172 23.7428C9.56888 23.7166 9.50149 23.7031 9.43342 23.7031C9.36535 23.7031 9.29796 23.7166 9.23512 23.7428C9.17229 23.769 9.11526 23.8073 9.06732 23.8556Z" fill="black"/>
<path d="M10.7999 22.4594C10.6951 22.5101 10.6106 22.5949 10.5601 22.6998C10.5095 22.8047 10.496 22.9237 10.5218 23.0373C10.5475 23.1508 10.6109 23.2524 10.7016 23.3253C10.7924 23.3983 10.9052 23.4384 11.0216 23.4391C11.1002 23.4394 11.1778 23.4218 11.2485 23.3875C11.3677 23.3257 11.4581 23.2199 11.5005 23.0925C11.5429 22.9651 11.534 22.8262 11.4755 22.7053C11.4171 22.5844 11.3138 22.4911 11.1877 22.4452C11.0615 22.3992 10.9224 22.4043 10.7999 22.4594Z" fill="black"/>
<path d="M14.5793 22.5625C14.5793 22.6645 14.6096 22.7642 14.6662 22.849C14.7229 22.9338 14.8034 22.9998 14.8976 23.0389C14.9919 23.0779 15.0955 23.0881 15.1956 23.0682C15.2956 23.0483 15.3875 22.9992 15.4596 22.9271C15.5317 22.855 15.5808 22.7631 15.6007 22.6631C15.6206 22.5631 15.6104 22.4594 15.5713 22.3652C15.5323 22.271 15.4662 22.1904 15.3814 22.1338C15.2966 22.0771 15.197 22.0469 15.095 22.0469C14.9582 22.0469 14.8271 22.1012 14.7304 22.1979C14.6337 22.2946 14.5793 22.4257 14.5793 22.5625Z" fill="black"/>
<path d="M12.5168 22.5625C12.5168 22.6645 12.5471 22.7642 12.6037 22.849C12.6604 22.9338 12.7409 22.9998 12.8351 23.0389C12.9294 23.0779 13.033 23.0881 13.1331 23.0682C13.2331 23.0483 13.325 22.9992 13.3971 22.9271C13.4692 22.855 13.5183 22.7631 13.5382 22.6631C13.5581 22.5631 13.5479 22.4594 13.5088 22.3652C13.4698 22.271 13.4037 22.1904 13.3189 22.1338C13.2341 22.0771 13.1345 22.0469 13.0325 22.0469C12.8957 22.0469 12.7646 22.1012 12.6679 22.1979C12.5712 22.2946 12.5168 22.4257 12.5168 22.5625Z" fill="black"/>
</g>
<defs>
<clipPath id="clip0_164_79">
<rect width="33" height="41.25" fill="white" transform="translate(8 4)"/>
</clipPath>
</defs>
</svg>
