<svg width="49" height="49" viewBox="0 0 49 49" fill="none" xmlns="http://www.w3.org/2000/svg">
<g clip-path="url(#clip0_164_81)">
<path d="M27.1047 14.5075C26.15 13.5528 24.5931 13.5528 23.6384 14.5075C22.6838 15.4621 22.6838 17.019 23.6384 17.9737C24.5931 18.9284 26.15 18.9284 27.1047 17.9737C28.0594 17.0117 28.0594 15.4621 27.1047 14.5075ZM25.3716 13.0534C27.1341 13.0534 28.5588 14.4781 28.5588 16.2406C28.5588 18.0031 27.1341 19.4278 25.3716 19.4278C23.6091 19.4278 22.1844 18.0031 22.1844 16.2406C22.1844 14.4781 23.6091 13.0534 25.3716 13.0534ZM27.7142 10.5712C27.4498 10.4611 27.1781 10.3729 26.8844 10.2995C26.7522 10.2628 26.642 10.1526 26.6127 10.0057L26.3409 8.41215C25.6873 8.33137 25.0338 8.33137 24.3802 8.41215L24.1158 9.98371C24.1011 10.1306 23.9983 10.2628 23.8441 10.2995C23.2713 10.4464 22.7352 10.6667 22.2358 10.9678C22.1183 11.0412 21.9567 11.0412 21.8392 10.9531L20.5173 10.0131C20.0033 10.417 19.5333 10.887 19.1294 11.4011L20.0547 12.7009C20.1428 12.8184 20.1648 12.98 20.0841 13.1121C19.783 13.6189 19.5627 14.1476 19.4158 14.7204C19.3791 14.86 19.2689 14.9628 19.122 14.9921L17.5284 15.2639C17.4477 15.9175 17.4477 16.5711 17.5284 17.2246L19.1 17.489C19.2469 17.5037 19.3791 17.6065 19.4158 17.7607C19.5627 18.3262 19.783 18.8696 20.0841 19.369C20.1575 19.4865 20.1502 19.6481 20.0694 19.7656L19.1294 21.0801C19.5333 21.5942 20.0033 22.0642 20.5173 22.4681L21.8172 21.5428C21.9347 21.4546 22.0963 21.4326 22.2284 21.5134C22.7352 21.8145 23.2639 22.0348 23.8367 22.1817C23.9763 22.2184 24.0864 22.3286 24.1084 22.4754L24.3802 24.069C25.0338 24.1498 25.6873 24.1498 26.3409 24.069L26.6053 22.4975C26.62 22.3506 26.7302 22.2184 26.877 22.1817C27.4425 22.0348 27.9859 21.8145 28.4853 21.5134C28.6028 21.44 28.7644 21.44 28.8819 21.5281L30.1964 22.4681C30.7105 22.0642 31.1805 21.5942 31.5844 21.0801L30.6591 19.7803C30.5709 19.6628 30.5563 19.5012 30.6297 19.369C30.9308 18.8623 31.1511 18.3336 31.298 17.7607C31.3347 17.6212 31.4448 17.5111 31.5917 17.489L33.1853 17.2246C33.2661 16.5637 33.2661 15.9175 33.1853 15.2639L31.6064 14.9995C31.4595 14.9848 31.3273 14.882 31.2906 14.7278C31.1438 14.1623 30.9234 13.6189 30.6223 13.1195C30.5489 13.002 30.5563 12.8404 30.637 12.7229L31.577 11.4084C31.1731 10.8943 30.7031 10.4243 30.1891 10.0204L28.8892 10.9457C28.7717 11.0339 28.6102 11.0486 28.478 10.9751C28.2503 10.8136 27.9859 10.6814 27.7142 10.5712ZM32.6933 18.0471L31.9589 18.172C31.8194 18.642 31.6284 19.1046 31.3934 19.5306L32.3555 20.8745C32.4509 21.0067 32.4436 21.1756 32.3555 21.3004C31.8194 22.0348 31.1731 22.6811 30.4388 23.2171C30.2992 23.32 30.123 23.3053 29.9908 23.2098L28.6616 22.2625C28.2283 22.4975 27.773 22.6884 27.303 22.8279L27.0313 24.4582C27.0019 24.6271 26.8623 24.7447 26.7008 24.7667C26.1573 24.8328 25.937 24.8695 25.3716 24.8695C24.9089 24.8695 24.4756 24.8328 24.013 24.7593C23.8514 24.7373 23.7339 24.6125 23.7119 24.4582L23.4402 22.8279C22.9702 22.6884 22.5148 22.4975 22.0816 22.2625L20.7377 23.2171C20.6055 23.3126 20.4366 23.3053 20.3117 23.2171C19.5773 22.6811 18.9311 22.0348 18.395 21.3004C18.2922 21.1682 18.3069 20.9846 18.4023 20.8598L19.3497 19.5306C19.1147 19.1046 18.9238 18.642 18.7842 18.172L17.1539 17.9003C16.985 17.8709 16.8675 17.7314 16.8528 17.5698C16.7867 17.0264 16.75 16.8061 16.75 16.2406C16.75 15.7779 16.7867 15.3446 16.8528 14.8893C16.8748 14.7278 16.9997 14.6103 17.1539 14.5809L18.7842 14.3092C18.9238 13.8392 19.1147 13.3765 19.3497 12.9506L18.9238 12.3557C16.2873 13.1489 14.2605 15.6311 14.2605 18.4804C14.2605 19.2001 14.378 19.8757 14.6056 20.5514C14.6864 20.7937 14.5102 21.0361 14.2605 21.0361H13.012C10.8089 21.0361 9.00235 22.8426 9.00235 25.0457C9.00235 27.2489 10.8016 29.0481 13.0047 29.0481H33.5892C35.7923 29.0481 37.5989 27.2415 37.5989 25.0384C37.5989 22.8353 35.7923 21.0287 33.5892 21.0287C33.3322 21.0287 33.1559 21.1756 33.0605 20.7423C33.0091 20.5293 33.2808 19.4939 32.6933 18.0471ZM34.4705 34.6514L32.3188 34.6661C31.5697 34.6807 31.298 34.5339 31.063 34.3723C30.6223 34.0712 30.4755 33.6306 30.4755 33.1165V29.9661H31.2098V33.1165C31.2098 33.3589 31.2466 33.6306 31.4816 33.7701C31.6138 33.8509 31.7827 33.9537 32.2967 33.9317H32.3114L34.4778 33.917C34.7642 32.4336 36.6148 31.8534 37.6944 32.9329C38.8914 34.13 38.0395 36.1862 36.3505 36.1862C35.4178 36.1862 34.6394 35.5326 34.4705 34.6514ZM26.385 29.9661V36.9867C26.385 37.0821 26.3703 37.0895 26.4144 37.229C26.5245 37.5668 26.855 37.7945 27.2148 37.7798C27.2295 37.7798 27.2442 37.7798 27.2589 37.7798L29.5061 37.8165C29.7998 36.3331 31.6431 35.7603 32.7227 36.8398C33.9197 38.0368 33.0678 40.0931 31.3788 40.0931C30.4608 40.0931 29.675 39.4321 29.5061 38.5509L27.2516 38.5142C26.7889 38.5215 26.385 38.3747 26.0619 38.0295C25.9077 37.8679 25.7975 37.6696 25.7241 37.4567C25.658 37.2511 25.6359 37.0381 25.658 36.8251V29.9734H26.385V29.9661ZM21.8172 29.9661V37.8018C21.8172 38.0662 21.7144 38.4261 21.6263 38.6243C20.9873 40.0564 19.0853 39.8801 17.7414 39.8581C17.455 41.3415 15.6044 41.9217 14.5248 40.8421C13.3278 39.6451 14.1797 37.5889 15.8688 37.5889C16.7867 37.5889 17.5652 38.2425 17.7414 39.1237C18.8723 39.1384 20.5027 39.3147 20.958 38.3232C21.0167 38.1984 21.0755 37.9781 21.0755 37.7945V29.9661H21.8172ZM16.7867 29.9661V34.7836C16.8308 35.8704 16.2139 36.4286 15.1417 36.3625L12.7697 36.3111C12.4759 37.7871 10.6327 38.36 9.55313 37.2804C8.3561 36.0834 9.20797 34.0272 10.897 34.0272C11.8223 34.0272 12.6008 34.6881 12.7697 35.5767L15.1638 35.6281H15.1784C15.8834 35.6721 16.0597 35.4151 16.045 34.7836V29.9661H16.7867Z" fill="black"/>
</g>
<defs>
<clipPath id="clip0_164_81">
<rect width="49" height="49" fill="white"/>
</clipPath>
</defs>
</svg>
