<svg width="49" height="49" viewBox="0 0 49 49" fill="none" xmlns="http://www.w3.org/2000/svg">
<path fill-rule="evenodd" clip-rule="evenodd" d="M38.212 24.6877C37.9773 24.6877 37.7478 24.6181 37.5526 24.4876C37.3574 24.3572 37.2053 24.1718 37.1154 23.9549C37.0256 23.7381 37.0021 23.4994 37.0479 23.2691C37.0937 23.0389 37.2067 22.8274 37.3727 22.6614C37.5387 22.4954 37.7502 22.3824 37.9805 22.3366C38.2107 22.2908 38.4494 22.3143 38.6663 22.4041C38.8831 22.4939 39.0685 22.6461 39.1989 22.8413C39.3294 23.0365 39.399 23.266 39.399 23.5007C39.3988 23.8155 39.2737 24.1173 39.0511 24.3398C38.8286 24.5624 38.5268 24.6875 38.212 24.6877ZM29.1134 27.1946C28.4788 26.8869 27.8099 26.6553 27.1209 26.5048C27.3229 25.6396 27.4341 24.7558 27.4526 23.8675H30.3254C30.2553 25.0712 29.8339 26.2279 29.1134 27.1946ZM19.6452 27.7733C20.1911 27.5263 20.7617 27.3378 21.3473 27.211C21.5895 28.064 22.0218 28.8512 22.6117 29.5133C21.4788 29.2242 20.4505 28.621 19.6452 27.7733ZM22.6114 17.4912C22.0212 18.1526 21.5888 18.9394 21.3469 19.7922C20.7613 19.6653 20.1908 19.4768 19.6448 19.2298C20.45 18.3827 21.4783 17.7806 22.611 17.493L22.6114 17.4912ZM25.6595 17.4912C26.7924 17.7787 27.8209 18.3809 28.626 19.2281C28.0801 19.475 27.5095 19.6635 26.9239 19.7905C26.6818 18.9383 26.2495 18.1522 25.6595 17.4912ZM24.1356 17.4982C23.5083 17.4982 22.8684 18.1016 22.3797 19.1555C22.2632 19.4083 22.1615 19.6676 22.075 19.9322C22.7568 20.0377 23.4457 20.0901 24.1356 20.0892C24.8255 20.0901 25.5144 20.0376 26.1962 19.9322C26.1096 19.6676 26.0078 19.4083 25.8912 19.1555C25.4028 18.1016 24.7626 17.4982 24.1356 17.4982ZM21.5519 23.1339C21.5707 22.2935 21.678 21.4574 21.8718 20.6394C22.6202 20.7613 23.3773 20.8217 24.1356 20.8201C24.8939 20.8216 25.651 20.7612 26.3994 20.6394C26.5931 21.4574 26.7003 22.2935 26.7193 23.1339H21.5519ZM20.8179 23.8675C20.8364 24.7558 20.9477 25.6397 21.15 26.5048C20.4608 26.6554 19.7919 26.887 19.1571 27.1946C18.4368 26.2278 18.0154 25.0712 17.9452 23.8675H20.8179ZM17.9452 23.1339C18.0154 21.9303 18.4368 20.7736 19.1571 19.8068C19.7919 20.1149 20.4608 20.347 21.15 20.4981C20.9478 21.3627 20.8365 22.2461 20.8179 23.1339H17.9452ZM26.3991 26.3644C24.8996 26.1217 23.3709 26.1217 21.8715 26.3644C21.6775 25.546 21.5703 24.7094 21.5515 23.8686H26.7193C26.7004 24.7094 26.5929 25.546 26.3991 26.3644ZM26.9239 27.2113C27.5095 27.3383 28.0801 27.5268 28.626 27.7737C27.8208 28.6215 26.7925 29.2246 25.6595 29.5137C26.2495 28.8515 26.6816 28.0644 26.9239 27.2113ZM25.8909 27.8494C26.007 27.5964 26.1088 27.3371 26.1959 27.0727C24.8302 26.8615 23.4403 26.8615 22.0747 27.0727C22.1616 27.3371 22.2633 27.5964 22.3793 27.8494C22.8681 28.9019 23.5079 29.5067 24.1353 29.5067C24.7626 29.5067 25.4025 28.9019 25.8909 27.8494ZM27.4526 23.1339C27.4341 22.2461 27.3229 21.3627 27.1209 20.4981C27.81 20.347 28.4788 20.115 29.1134 19.8068C29.8339 20.7735 30.2553 21.9302 30.3254 23.1339H27.4526ZM37.1348 31.2863C37.1351 31.5211 37.0657 31.7507 36.9355 31.9461C36.8052 32.1415 36.6199 32.2938 36.4031 32.3839C36.1862 32.4739 35.9475 32.4976 35.7172 32.452C35.4868 32.4063 35.2752 32.2934 35.1091 32.1275C34.9429 31.9615 34.8297 31.75 34.7838 31.5197C34.7379 31.2895 34.7613 31.0507 34.8511 30.8338C34.9409 30.6168 35.0931 30.4313 35.2883 30.3008C35.4835 30.1704 35.7131 30.1007 35.9479 30.1007C36.2625 30.1012 36.5642 30.2264 36.7867 30.4489C37.0092 30.6714 37.1344 30.973 37.1348 31.2877V31.2863ZM32.3738 32.6733C32.3738 32.9081 32.3042 33.1376 32.1738 33.3328C32.0433 33.528 31.858 33.6801 31.6411 33.7699C31.4242 33.8598 31.1855 33.8833 30.9553 33.8375C30.725 33.7917 30.5135 33.6786 30.3475 33.5126C30.1815 33.3466 30.0685 33.1351 30.0227 32.9049C29.9769 32.6746 30.0004 32.436 30.0902 32.2191C30.1801 32.0022 30.3322 31.8168 30.5274 31.6864C30.7226 31.556 30.9521 31.4864 31.1868 31.4864C31.5016 31.4866 31.8033 31.6118 32.0258 31.8343C32.2484 32.0569 32.3735 32.3586 32.3738 32.6733ZM31.1868 13.1408C31.4217 13.1407 31.6513 13.2103 31.8466 13.3407C32.0419 13.4711 32.1941 13.6566 32.284 13.8735C32.3739 14.0904 32.3975 14.3292 32.3517 14.5595C32.306 14.7899 32.1929 15.0015 32.0269 15.1675C31.8608 15.3336 31.6493 15.4467 31.419 15.4926C31.1886 15.5384 30.9499 15.5149 30.7329 15.4251C30.5159 15.3352 30.3305 15.183 30.2 14.9878C30.0695 14.7925 29.9999 14.5629 29.9999 14.3281C30.0001 14.0133 30.1252 13.7115 30.3477 13.4889C30.5703 13.2663 30.8721 13.1411 31.1868 13.1408ZM35.9479 14.5303C36.1826 14.5303 36.4121 14.5999 36.6073 14.7303C36.8025 14.8607 36.9546 15.0461 37.0445 15.263C37.1343 15.4799 37.1578 15.7185 37.112 15.9488C37.0662 16.179 36.9532 16.3905 36.7872 16.5565C36.6212 16.7225 36.4097 16.8356 36.1794 16.8814C35.9492 16.9272 35.7105 16.9037 35.4936 16.8138C35.2768 16.724 35.0914 16.5719 34.961 16.3767C34.8305 16.1815 34.7609 15.952 34.7609 15.7172C34.7612 15.4025 34.8863 15.1008 35.1089 14.8782C35.3314 14.6557 35.6332 14.5305 35.9479 14.5303ZM38.212 21.5819C37.7667 21.5823 37.3354 21.7373 36.9917 22.0205C36.648 22.3036 36.4132 22.6973 36.3276 23.1342H31.0601C31.0242 22.4511 30.8871 21.777 30.6533 21.1341H33.031C33.0954 21.1341 33.1586 21.1171 33.2144 21.0849C33.2701 21.0528 33.3164 21.0064 33.3485 20.9507L35.3233 17.5312C35.7751 17.6871 36.2688 17.6691 36.7081 17.4807C37.1474 17.2923 37.5007 16.947 37.6991 16.5121C37.8976 16.0773 37.9269 15.5842 37.7814 15.1289C37.636 14.6736 37.3261 14.2888 36.9123 14.0497C36.4985 13.8105 36.0104 13.734 35.5433 13.8352C35.0762 13.9364 34.6635 14.208 34.3858 14.597C34.1081 14.986 33.9852 15.4645 34.0412 15.9392C34.0972 16.4139 34.328 16.8507 34.6887 17.1644L32.8198 20.4018H30.3358C29.9578 19.6489 29.4464 18.9708 28.8265 18.4003H29.0471C29.1113 18.4002 29.1744 18.3832 29.23 18.351C29.2856 18.3188 29.3318 18.2726 29.3639 18.2169L30.5619 16.1424C30.763 16.2121 30.9744 16.2473 31.1872 16.2466C31.6377 16.2472 32.0741 16.0895 32.4202 15.801C32.7662 15.5126 33 15.1118 33.0806 14.6685C33.1612 14.2253 33.0835 13.7678 32.8612 13.376C32.6388 12.9842 32.2859 12.6829 31.864 12.5249C31.4422 12.3668 30.9782 12.3619 30.5531 12.5111C30.128 12.6603 29.7688 12.9541 29.5383 13.3411C29.3078 13.7282 29.2205 14.1839 29.2918 14.6288C29.3631 15.0736 29.5884 15.4793 29.9283 15.7749L28.8359 17.6674H27.8799C26.8324 16.9944 25.623 16.6159 24.3788 16.5716C23.1345 16.5273 21.9013 16.8189 20.8086 17.4157C19.7159 18.0124 18.8041 18.8924 18.1688 19.9632C17.5335 21.034 17.1983 22.256 17.1983 23.5011C17.1983 24.7461 17.5335 25.9682 18.1688 27.0389C18.8041 28.1097 19.7159 28.9897 20.8086 29.5865C21.9013 30.1832 23.1345 30.4748 24.3788 30.4305C25.623 30.3862 26.8324 30.0077 27.8799 29.3348H28.8355L29.928 31.2258C29.5889 31.5211 29.3642 31.9262 29.2932 32.3702C29.2223 32.8142 29.3095 33.2691 29.5398 33.6554C29.77 34.0416 30.1285 34.3348 30.5529 34.4837C30.9772 34.6325 31.4403 34.6276 31.8614 34.4698C32.2825 34.312 32.6348 34.0114 32.8568 33.6203C33.0788 33.2293 33.1564 32.7727 33.0761 32.3302C32.9958 31.8878 32.7626 31.4876 32.4173 31.1995C32.072 30.9115 31.6365 30.7538 31.1868 30.7541C30.974 30.7534 30.7627 30.7887 30.5616 30.8583L29.3632 28.7849C29.3311 28.7292 29.2849 28.6829 29.2293 28.6507C29.1737 28.6185 29.1106 28.6016 29.0464 28.6015H28.8258C29.4462 28.0318 29.9579 27.3541 30.3358 26.6013H32.8195L34.6883 29.8388C34.3305 30.1518 34.1022 30.5868 34.0476 31.059C33.9931 31.5312 34.1164 32.0068 34.3935 32.3931C34.6705 32.7793 35.0815 33.0486 35.5463 33.1483C36.011 33.2481 36.4963 33.1712 36.9075 32.9326C37.3186 32.6941 37.6262 32.311 37.7703 31.858C37.9144 31.405 37.8846 30.9146 37.6868 30.4824C37.4889 30.0501 37.1372 29.707 36.7002 29.52C36.2632 29.3329 35.7722 29.3153 35.323 29.4706L33.3482 26.0511C33.316 25.9953 33.2697 25.949 33.214 25.9168C33.1583 25.8846 33.095 25.8677 33.0307 25.8677H30.6533C30.8871 25.2248 31.0242 24.5507 31.0601 23.8675H36.3276C36.397 24.2248 36.5667 24.5549 36.8166 24.8195C37.0666 25.084 37.3866 25.272 37.7394 25.3616C38.0922 25.4512 38.4631 25.4386 38.809 25.3254C39.1549 25.2121 39.4615 25.0029 39.693 24.7221C39.9245 24.4412 40.0714 24.1004 40.1165 23.7392C40.1617 23.3781 40.1032 23.0115 39.948 22.6823C39.7928 22.3532 39.5472 22.0749 39.2398 21.88C38.9324 21.6851 38.576 21.5815 38.212 21.5815V21.5819ZM9.60102 21.2512V25.7517C9.60012 25.8128 9.62163 25.8722 9.66149 25.9186C9.70136 25.965 9.75683 25.9952 9.81743 26.0035L13.2536 26.5312C13.3214 26.5417 13.385 26.571 13.437 26.6159C13.489 26.6607 13.5274 26.7192 13.5478 26.7847C13.7503 27.4395 14.0134 28.074 14.3336 28.68C14.3657 28.7407 14.3801 28.8093 14.3751 28.8779C14.37 28.9465 14.3458 29.0122 14.3051 29.0676L12.2483 31.8723C12.2113 31.9211 12.1934 31.9818 12.198 32.0429C12.2026 32.104 12.2294 32.1613 12.2733 32.204L15.4559 35.3859C15.4985 35.43 15.5558 35.4568 15.6169 35.4614C15.6779 35.466 15.7386 35.4481 15.7873 35.4109L18.5913 33.3549C18.6539 33.3083 18.73 33.2832 18.808 33.2833C18.8675 33.2834 18.9261 33.2979 18.9789 33.3253C19.5848 33.6454 20.2191 33.9088 20.8735 34.1121C20.9392 34.1322 20.9979 34.1704 21.0429 34.2224C21.0878 34.2744 21.1171 34.3381 21.1274 34.406L21.6551 37.8425C21.6635 37.9031 21.6937 37.9585 21.7402 37.9982C21.7867 38.038 21.8461 38.0593 21.9072 38.0582H23.7914V31.989C21.604 31.8941 19.5378 30.9584 18.0236 29.377C16.5094 27.7957 15.6641 25.6908 15.6641 23.5014C15.6641 21.312 16.5094 19.2071 18.0236 17.6258C19.5378 16.0445 21.604 15.1087 23.7914 15.0138V8.94598H21.9072C21.846 8.94516 21.7865 8.96678 21.74 9.00677C21.6936 9.04676 21.6634 9.10235 21.6551 9.16308L21.1274 12.5982C21.1169 12.6662 21.0876 12.73 21.0427 12.7822C20.9978 12.8343 20.9392 12.8729 20.8735 12.8935C20.219 13.0962 19.5848 13.3591 18.9789 13.6789C18.9181 13.711 18.8495 13.7254 18.7809 13.7204C18.7123 13.7154 18.6465 13.6913 18.5909 13.6507L15.7873 11.5933C15.7386 11.5561 15.678 11.538 15.6168 11.5427C15.5557 11.5473 15.4985 11.5742 15.4559 11.6183L12.2726 14.7998C12.2287 14.8423 12.202 14.8994 12.1974 14.9603C12.1927 15.0211 12.2106 15.0816 12.2476 15.1302L14.3047 17.9338C14.3454 17.9895 14.3697 18.0554 14.3747 18.1242C14.3798 18.193 14.3654 18.2618 14.3332 18.3228C14.0132 18.9284 13.7503 19.5624 13.5478 20.2167C13.5275 20.2824 13.4891 20.341 13.437 20.3858C13.3849 20.4307 13.3212 20.46 13.2533 20.4703L9.81743 20.9997C9.75665 21.0081 9.70107 21.0386 9.6612 21.0852C9.62133 21.1319 9.59992 21.1915 9.60102 21.2529V21.2512ZM9.70523 26.7271L12.917 27.2214C13.0983 27.7688 13.3196 28.3022 13.5791 28.8172L11.6564 31.4374C11.5152 31.6275 11.4473 31.8621 11.4653 32.0982C11.4832 32.3344 11.5857 32.5561 11.754 32.7226L14.9366 35.9045C15.1028 36.0728 15.3241 36.1753 15.5599 36.1933C15.7957 36.2113 16.03 36.1436 16.2198 36.0025L18.8407 34.0791C19.3556 34.3392 19.889 34.561 20.4365 34.7426L20.9297 37.9537C20.9645 38.1875 21.0823 38.401 21.2617 38.555C21.441 38.709 21.6698 38.7932 21.9062 38.7922H24.1568C24.2049 38.7922 24.2526 38.7827 24.2971 38.7643C24.3415 38.7458 24.3819 38.7188 24.4159 38.6847C24.4499 38.6507 24.4769 38.6102 24.4953 38.5657C24.5136 38.5212 24.523 38.4735 24.5229 38.4254V31.6291C24.523 31.5811 24.5135 31.5335 24.4951 31.4891C24.4767 31.4447 24.4498 31.4044 24.4157 31.3705C24.3817 31.3366 24.3413 31.3097 24.2969 31.2914C24.2525 31.2732 24.2048 31.2639 24.1568 31.264C23.1331 31.2709 22.1181 31.0752 21.1703 30.6881C20.2225 30.3011 19.3606 29.7304 18.6342 29.0089C17.9079 28.2874 17.3315 27.4294 16.9381 26.4842C16.5447 25.539 16.3422 24.5254 16.3422 23.5016C16.3422 22.4778 16.5447 21.4641 16.9381 20.519C17.3315 19.5738 17.9079 18.7157 18.6342 17.9942C19.3606 17.2727 20.2225 16.7021 21.1703 16.315C22.1181 15.928 23.1331 15.7323 24.1568 15.7391C24.2541 15.7391 24.3475 15.7005 24.4163 15.6317C24.4852 15.5629 24.5239 15.4696 24.524 15.3723V8.57777C24.5239 8.48063 24.4853 8.38748 24.4167 8.31873C24.3481 8.24998 24.255 8.21122 24.1578 8.21095H21.9072C21.6708 8.20999 21.4419 8.29432 21.2625 8.44846C21.0832 8.60261 20.9654 8.81624 20.9308 9.05019L20.4375 12.2627C19.8898 12.4435 19.3563 12.6648 18.8414 12.9247L16.2208 11.0014C16.0309 10.8606 15.7966 10.7931 15.561 10.8111C15.3253 10.8291 15.104 10.9314 14.9376 11.0993L11.7551 14.2812C11.5867 14.4478 11.4841 14.6695 11.4662 14.9056C11.4483 15.1417 11.5162 15.3764 11.6574 15.5665L13.5805 18.186C13.3209 18.7016 13.0998 19.2357 12.9187 19.7839L9.70627 20.2744C9.47246 20.3091 9.25903 20.427 9.10513 20.6065C8.95123 20.7859 8.86719 21.0148 8.86842 21.2512V25.7517C8.86723 25.9879 8.95132 26.2166 9.10524 26.3958C9.25917 26.575 9.47258 26.6926 9.70627 26.7271H9.70523Z" fill="black"/>
</svg>
