<svg width="49" height="49" viewBox="0 0 49 49" fill="none" xmlns="http://www.w3.org/2000/svg">
<g clip-path="url(#clip0_164_78)">
<path d="M32.062 42.1539H17.492C16.74 42.1539 16.082 41.5429 16.082 40.7439V6.24594C16.082 5.44694 16.74 4.83594 17.492 4.83594H32.109C32.908 4.83594 33.519 5.44694 33.519 6.24594V40.7909C33.472 41.5429 32.861 42.1539 32.062 42.1539ZM33.002 40.2739V6.71594C33.002 5.91694 32.391 5.30594 31.592 5.30594H17.962C17.21 5.30594 16.552 5.91694 16.552 6.71594V40.3209C16.552 41.1199 17.21 41.7309 17.962 41.7309H31.639C32.391 41.6839 33.002 41.0729 33.002 40.2739Z" fill="black"/>
<path d="M33.519 9.07031H16.082V9.54031H33.519V9.07031Z" fill="black"/>
<path d="M33.519 35.3906H16.082V35.8606H33.519V35.3906Z" fill="black"/>
<path d="M24.9649 7.80644H21.9569C21.7689 7.80644 21.6279 7.66544 21.6279 7.47744C21.6279 7.28944 21.7689 7.14844 21.9569 7.14844H24.9649C25.1529 7.14844 25.2939 7.28944 25.2939 7.47744C25.2939 7.66544 25.1529 7.80644 24.9649 7.80644Z" fill="black"/>
<path d="M26.6099 7.98687C26.8695 7.98687 27.0799 7.77645 27.0799 7.51687C27.0799 7.2573 26.8695 7.04688 26.6099 7.04688C26.3503 7.04688 26.1399 7.2573 26.1399 7.51687C26.1399 7.77645 26.3503 7.98687 26.6099 7.98687Z" fill="black"/>
<path d="M24.7771 39.9989C25.4779 39.9989 26.0461 39.4308 26.0461 38.7299C26.0461 38.0291 25.4779 37.4609 24.7771 37.4609C24.0762 37.4609 23.5081 38.0291 23.5081 38.7299C23.5081 39.4308 24.0762 39.9989 24.7771 39.9989Z" fill="black"/>
<path d="M21.4399 14.7124H18.7139C18.4789 14.7124 18.2439 14.4774 18.2439 14.2424V11.7044C18.2439 11.4694 18.4789 11.2344 18.7139 11.2344H21.4399C21.7219 11.2344 21.9099 11.4694 21.9099 11.7044V14.2424C21.9099 14.5244 21.6749 14.7124 21.4399 14.7124Z" fill="black"/>
<path d="M26.1401 14.7124H23.4141C23.1791 14.7124 22.9441 14.4774 22.9441 14.2424V11.7044C22.9441 11.4694 23.1791 11.2344 23.4141 11.2344H26.1401C26.4221 11.2344 26.6101 11.4694 26.6101 11.7044V14.2424C26.6101 14.5244 26.3751 14.7124 26.1401 14.7124Z" fill="black"/>
<path d="M30.84 14.7124H28.114C27.832 14.7124 27.644 14.4774 27.644 14.2424V11.7044C27.644 11.4694 27.832 11.2344 28.114 11.2344H30.84C31.075 11.2344 31.31 11.4694 31.31 11.7044V14.2424C31.31 14.5244 31.075 14.7124 30.84 14.7124Z" fill="black"/>
<path d="M21.4399 19.4077H18.7139C18.4789 19.4077 18.2439 19.2197 18.2439 18.9377V16.3997C18.2439 16.1647 18.4789 15.9297 18.7139 15.9297H21.4399C21.7219 15.9297 21.9099 16.1647 21.9099 16.3997V18.9377C21.9099 19.2197 21.6749 19.4077 21.4399 19.4077Z" fill="black"/>
<path d="M26.1401 19.4077H23.4141C23.1791 19.4077 22.9441 19.2197 22.9441 18.9377V16.3997C22.9441 16.1647 23.1791 15.9297 23.4141 15.9297H26.1401C26.4221 15.9297 26.6101 16.1647 26.6101 16.3997V18.9377C26.6101 19.2197 26.3751 19.4077 26.1401 19.4077Z" fill="black"/>
<path d="M30.84 19.4077H28.114C27.832 19.4077 27.644 19.2197 27.644 18.9377V16.3997C27.644 16.1647 27.832 15.9297 28.114 15.9297H30.84C31.075 15.9297 31.31 16.1647 31.31 16.3997V18.9377C31.31 19.2197 31.075 19.4077 30.84 19.4077Z" fill="black"/>
<path d="M21.4399 24.1108H18.7139C18.4789 24.1108 18.2439 23.9228 18.2439 23.6408V21.1028C18.2439 20.8678 18.4789 20.6328 18.7139 20.6328H21.4399C21.7219 20.6328 21.9099 20.8678 21.9099 21.1028V23.6408C21.9099 23.9228 21.6749 24.1108 21.4399 24.1108Z" fill="black"/>
<path d="M26.1401 24.1108H23.4141C23.1791 24.1108 22.9441 23.9228 22.9441 23.6408V21.1028C22.9441 20.8678 23.1791 20.6328 23.4141 20.6328H26.1401C26.4221 20.6328 26.6101 20.8678 26.6101 21.1028V23.6408C26.6101 23.9228 26.3751 24.1108 26.1401 24.1108Z" fill="black"/>
<path d="M30.84 24.1108H28.114C27.832 24.1108 27.644 23.9228 27.644 23.6408V21.1028C27.644 20.8678 27.832 20.6328 28.114 20.6328H30.84C31.075 20.6328 31.31 20.8678 31.31 21.1028V23.6408C31.31 23.9228 31.075 24.1108 30.84 24.1108Z" fill="black"/>
<path d="M21.4399 28.8139H18.7139C18.4789 28.8139 18.2439 28.6259 18.2439 28.3439V25.8059C18.2439 25.5709 18.4789 25.3359 18.7139 25.3359H21.4399C21.7219 25.3359 21.9099 25.5709 21.9099 25.8059V28.3439C21.9099 28.6259 21.6749 28.8139 21.4399 28.8139Z" fill="black"/>
<path d="M15.0478 9.54031H7.76283C7.62183 9.54031 7.52783 9.44631 7.52783 9.30531C7.52783 9.16431 7.62183 9.07031 7.76283 9.07031H15.0478C15.1888 9.07031 15.2828 9.16431 15.2828 9.30531C15.2828 9.44631 15.1418 9.54031 15.0478 9.54031Z" fill="black"/>
<path d="M15.048 10.4778H9.17299C9.03199 10.4778 8.93799 10.3838 8.93799 10.2428C8.93799 10.1018 9.03199 10.0078 9.17299 10.0078H15.048C15.189 10.0078 15.283 10.1018 15.283 10.2428C15.283 10.3838 15.142 10.4778 15.048 10.4778Z" fill="black"/>
<path d="M15.0479 11.4231H10.1129C9.97193 11.4231 9.87793 11.3291 9.87793 11.1881C9.87793 11.0471 9.97193 10.9531 10.1129 10.9531H15.0479C15.1889 10.9531 15.2829 11.0471 15.2829 11.1881C15.2829 11.3291 15.1419 11.4231 15.0479 11.4231Z" fill="black"/>
<path d="M23.7428 30.9664C23.8838 30.9664 24.0718 31.0134 24.2598 31.0134C24.3538 31.0134 24.4478 31.1074 24.4478 31.2014C24.4948 31.3894 24.5888 31.6244 24.6828 31.8124C24.7298 31.9064 24.7298 32.0004 24.6358 32.0944C24.4948 32.2354 24.4008 32.3764 24.3068 32.4704C24.1658 32.6114 24.1658 32.8464 24.3538 32.9874L24.9178 33.5514C25.0588 33.6924 25.2938 33.6924 25.4348 33.5984C25.5758 33.5044 25.6698 33.3634 25.8108 33.2694C25.9048 33.2224 25.9988 33.1754 26.0928 33.2224C26.2808 33.3164 26.4688 33.4104 26.7038 33.4574C26.7978 33.5044 26.8448 33.5514 26.8918 33.6454C26.8918 33.8334 26.9388 34.0214 26.9388 34.1624C26.9388 34.3504 27.1268 34.4914 27.3148 34.4914H28.0198C28.2078 34.4914 28.3958 34.3504 28.3958 34.1624C28.3958 34.0214 28.4428 33.8334 28.4428 33.6454C28.4428 33.5514 28.5368 33.4574 28.6308 33.4574C28.8188 33.4104 29.0538 33.3164 29.2418 33.2224C29.3358 33.1754 29.4298 33.1754 29.5238 33.2694C29.6648 33.4104 29.8058 33.5044 29.8998 33.5984C30.0408 33.7394 30.2758 33.7394 30.4168 33.5514L30.9808 32.9874C31.1218 32.8464 31.1218 32.6114 31.0278 32.4704C30.9338 32.3294 30.7928 32.2354 30.6988 32.0944C30.6518 32.0004 30.6048 31.9064 30.6518 31.8124C30.7458 31.6244 30.8398 31.4364 30.8868 31.2014C30.9338 31.1074 30.9808 31.0604 31.0748 31.0134C31.2628 31.0134 31.4508 30.9664 31.5918 30.9664C31.7798 30.9664 31.9208 30.7784 31.9208 30.5904V29.8384C31.9208 29.6504 31.7798 29.4624 31.5918 29.4624C31.4508 29.4624 31.2628 29.4154 31.0748 29.4154C30.9808 29.4154 30.8868 29.3214 30.8868 29.2274C30.8398 29.0394 30.7458 28.8044 30.6518 28.6164C30.6048 28.5224 30.6048 28.4284 30.6988 28.3344C30.8398 28.1934 30.9338 28.0524 31.0278 27.9584C31.1688 27.8174 31.1688 27.5824 30.9808 27.4414L30.3698 26.9244C30.2288 26.7834 29.9938 26.7834 29.8528 26.8774C29.7118 26.9714 29.6178 27.1124 29.4768 27.2064C29.3828 27.2534 29.2888 27.3004 29.1948 27.2534C29.0068 27.1594 28.8188 27.0654 28.5838 27.0184C28.4898 26.9714 28.4428 26.9244 28.3958 26.8304C28.3958 26.6424 28.3488 26.4544 28.3488 26.3134C28.3488 26.1254 28.1608 25.9844 27.9728 25.9844H27.2208C27.0328 25.9844 26.8448 26.1254 26.8448 26.3134C26.8448 26.4544 26.7978 26.6424 26.7978 26.8304C26.7978 26.9244 26.7038 27.0184 26.6098 27.0184C26.4218 27.0654 26.1868 27.1594 25.9988 27.2534C25.9048 27.3004 25.8108 27.3004 25.7168 27.2064C25.5758 27.0654 25.4348 26.9714 25.3408 26.8774C25.1998 26.7364 24.9648 26.7364 24.8238 26.9244L24.2598 27.4884C24.1188 27.6294 24.1188 27.8644 24.2128 28.0054C24.3068 28.1464 24.4478 28.2404 24.5418 28.3814C24.5888 28.4754 24.6358 28.5694 24.5888 28.6634C24.4948 28.8514 24.4008 29.0394 24.3538 29.2744C24.3068 29.3684 24.2598 29.4154 24.1658 29.4624C23.9778 29.4624 23.7898 29.5094 23.6488 29.5094C23.4608 29.5094 23.3198 29.6974 23.3198 29.8854V30.6374C23.3668 30.7784 23.5548 30.9664 23.7428 30.9664ZM23.5548 29.7914C23.5548 29.6504 23.6488 29.5564 23.7898 29.5564C23.9308 29.5564 24.1188 29.5094 24.3068 29.5094C24.4478 29.5094 24.5888 29.3684 24.6358 29.2274C24.6828 29.0394 24.7768 28.8514 24.8708 28.6634C24.9648 28.5224 24.9178 28.3344 24.8238 28.2404C24.6828 28.0994 24.5888 27.9584 24.4948 27.8644C24.4008 27.7704 24.4008 27.6294 24.4948 27.5354L25.0588 26.9714C25.1528 26.8774 25.2938 26.8774 25.3878 26.9714C25.5288 27.0654 25.6228 27.2064 25.7638 27.3004C25.9048 27.3944 26.0458 27.4414 26.1868 27.3474C26.3748 27.2534 26.5628 27.1594 26.7508 27.1124C26.8918 27.0654 27.0328 26.9244 27.0328 26.7834C27.0328 26.5954 27.0798 26.4074 27.0798 26.2664C27.0798 26.1254 27.1738 26.0314 27.3148 26.0314H28.0668C28.2078 26.0314 28.3018 26.1254 28.3018 26.2664C28.3018 26.4074 28.3488 26.5954 28.3488 26.7834C28.3488 26.9244 28.4898 27.0654 28.6308 27.1124C28.8188 27.1594 29.0068 27.2534 29.1948 27.3474C29.3358 27.4414 29.5238 27.3944 29.6178 27.3004C29.7588 27.1594 29.8998 27.0654 29.9938 26.9714C30.0878 26.8774 30.2288 26.8774 30.3228 26.9714L30.8868 27.5354C30.9808 27.6294 30.9808 27.7704 30.8868 27.8644C30.7928 28.0054 30.6518 28.0994 30.5578 28.2404C30.4638 28.3814 30.4168 28.5224 30.5108 28.6634C30.6048 28.8514 30.6988 29.0394 30.7458 29.2274C30.7928 29.3684 30.9338 29.5094 31.0748 29.5094C31.2628 29.5094 31.4508 29.5564 31.5918 29.5564C31.7328 29.5564 31.8268 29.6504 31.8268 29.7914V30.5434C31.8268 30.6844 31.7328 30.7784 31.5918 30.7784C31.4508 30.7784 31.2628 30.8254 31.0748 30.8254C30.9338 30.8254 30.7928 30.9664 30.7458 31.1074C30.6988 31.2954 30.6048 31.4834 30.5108 31.6714C30.4168 31.8124 30.4638 32.0004 30.5578 32.0944C30.6988 32.2354 30.7928 32.3764 30.8868 32.4704C30.9808 32.5644 30.9808 32.7054 30.8868 32.7994L30.2758 33.3634C30.1818 33.4574 30.0408 33.4574 29.9468 33.3634C29.8058 33.2694 29.7118 33.1284 29.5708 33.0344C29.4298 32.9404 29.2888 32.8934 29.1478 32.9874C28.9598 33.0814 28.7718 33.1754 28.5838 33.2224C28.4428 33.2694 28.3018 33.4104 28.3018 33.5514C28.3018 33.7394 28.2548 33.9274 28.2548 34.0684C28.2548 34.2094 28.1608 34.3034 28.0198 34.3034H27.2678C27.1268 34.3034 27.0328 34.2094 27.0328 34.0684C27.0328 33.9274 26.9858 33.7394 26.9858 33.5514C26.9858 33.4104 26.8448 33.2694 26.7038 33.2224C26.5158 33.1754 26.3278 33.0814 26.1398 32.9874C26.0928 32.9404 25.9988 32.9404 25.9518 32.9404C25.8578 32.9404 25.7638 32.9874 25.7168 33.0344C25.5758 33.1754 25.4348 33.2694 25.3408 33.3634C25.2468 33.4574 25.1058 33.4574 25.0118 33.3634L24.4478 32.7994C24.3538 32.7054 24.3538 32.5644 24.4478 32.4704C24.5418 32.3294 24.6828 32.2354 24.7768 32.0944C24.8708 31.9534 24.9178 31.8124 24.8238 31.6714C24.7298 31.4834 24.6358 31.2954 24.5888 31.1074C24.5418 30.9664 24.4008 30.8254 24.2598 30.8254C24.0718 30.8254 23.8838 30.7784 23.7428 30.7784C23.6018 30.7784 23.5078 30.6844 23.5078 30.5434L23.5548 29.7914Z" stroke="black" stroke-width="0.235" stroke-miterlimit="10"/>
<path d="M27.6439 32.3787C28.8189 32.3787 29.8059 31.3917 29.8059 30.2167C29.8059 29.0417 28.8189 28.0547 27.6439 28.0547C26.4689 28.0547 25.4819 29.0417 25.4819 30.2167C25.4819 31.3917 26.4689 32.3787 27.6439 32.3787ZM27.6439 28.1957C28.7719 28.1957 29.6649 29.0887 29.6649 30.2167C29.6649 31.3447 28.7719 32.2377 27.6439 32.2377C26.5159 32.2377 25.6229 31.3447 25.6229 30.2167C25.6229 29.0887 26.5159 28.1957 27.6439 28.1957Z" stroke="black" stroke-width="0.235" stroke-miterlimit="10"/>
</g>
<defs>
<clipPath id="clip0_164_78">
<rect width="49" height="49" fill="white"/>
</clipPath>
</defs>
</svg>
