<svg xmlns="http://www.w3.org/2000/svg" width="86.601" height="86.599" viewBox="0 0 86.601 86.599">
  <g id="ic_aerospace" transform="translate(891.55 -535.7)">
    <path id="Path_91688" data-name="Path 91688" d="M-891.25,590c.211-.123.141-.346.186-.528a8.54,8.54,0,0,1,6.24-6.5c.938-.277,1.883-.528,2.82-.807,1.071-.319,1.872-.013,2.142.839.263.83-.211,1.572-1.283,1.91-1.013.319-2.042.585-3.063.874a5.7,5.7,0,0,0-4.17,5.389c-.024,1.092.018,2.187-.018,3.278-.016.479.13.611.6.6,1.626-.028,3.251-.016,4.877-.009,1.041,0,1.72.579,1.719,1.433s-.677,1.424-1.72,1.428c-1.626.007-3.252.02-4.878-.009-.48-.009-.657.133-.6.608.031.248,0,.5.008.755a1.428,1.428,0,0,0,1.543,1.508c1.766.017,3.531,0,5.3.008,1.137,0,1.766.538,1.751,1.465-.012.9-.6,1.394-1.715,1.4q-2.564.01-5.129,0a4.258,4.258,0,0,1-4.467-3.2.751.751,0,0,0-.148-.185Z" transform="translate(0 5.448)" fill="#666" stroke="#666" stroke-width="0.6"/>
    <path id="Path_91689" data-name="Path 91689" d="M-813.154,600.261c-.251.15-.2.443-.3.663a4.141,4.141,0,0,1-3.894,2.706c-1.9.05-3.811.025-5.717.011a1.381,1.381,0,0,1-1.548-1.393,1.419,1.419,0,0,1,1.579-1.464c1.766-.018,3.532,0,5.3-.008a1.908,1.908,0,0,0,1.71-2.684c-.133-.295-.383-.171-.579-.174-1.626-.01-3.251,0-4.877-.008-1.049,0-1.719-.566-1.724-1.422s.672-1.434,1.71-1.44c1.626-.008,3.251-.018,4.877.008.46.008.64-.1.612-.593a30.428,30.428,0,0,0-.129-4.192,5.521,5.521,0,0,0-4.131-4.5c-1.071-.318-2.151-.608-3.212-.956a1.426,1.426,0,0,1-1.065-1.8,1.446,1.446,0,0,1,1.89-.919c1.185.324,2.384.617,3.542,1.026a8.289,8.289,0,0,1,5.821,6.84c.146.278-.058.611.14.88Z" transform="translate(7.904 5.423)" fill="#666" stroke="#666" stroke-width="0.6"/>
    <path id="Path_91690" data-name="Path 91690" d="M-814.365,589.992a.939.939,0,0,1-.14-.879.086.086,0,0,1,.14.039Z" transform="translate(9.115 6.309)" fill="#666" stroke="#666" stroke-width="0.6"/>
    <path id="Path_91691" data-name="Path 91691" d="M-818.808,560.823a.75.75,0,0,1-.471-.754c-.277-6.562-4.734-10.925-11.344-11.131a23.362,23.362,0,0,0-5.989.62c-.325.075-.656.243-.947-.2-2.389-3.616-5.084-7.015-7.557-10.571a6.413,6.413,0,0,0-3.375-2.79h-1.846a6.335,6.335,0,0,0-2.3,1.579c-2.767,3.828-5.555,7.641-8.291,11.492a.978.978,0,0,1-1.21.478,19.75,19.75,0,0,0-7.573-.445c-4.038.622-7.087,2.6-8.68,6.489a1.1,1.1,0,0,1-.83.681,4.179,4.179,0,0,0-3.04,3.709,4.179,4.179,0,0,0,2.579,4.291.994.994,0,0,1,.683.814,40.307,40.307,0,0,0,5.3,13.392.9.9,0,0,1,.017,1.063c-.791,1.411-1.6,2.815-2.287,4.28-2.062,4.415-3.56,8.98-3.409,13.943.156,5.1,2.809,8.943,7.33,10.594,3.035,1.108,6.124.83,9.192.261a40.212,40.212,0,0,0,12.823-5.16,1.076,1.076,0,0,1,1.35-.019,17.8,17.8,0,0,0,2.1,1.207c4.9,2.473,9.944,4.4,15.549,4.448s10.142-3.293,11.36-8.53a20.99,20.99,0,0,0-.7-10.678,44.454,44.454,0,0,0-4.57-10.3c-.174-.3-.409-.554-.149-.98a45.159,45.159,0,0,0,4.3-9.237.612.612,0,0,1,.581-.47,4.268,4.268,0,0,0,3.771-3.506A4.235,4.235,0,0,0-818.808,560.823Zm-31.495-21.5a1.29,1.29,0,0,1,2,.053c.888,1.11,1.691,2.286,2.534,3.432.216.292.123.378-.2.378-2.334,0-4.669,0-7.2,0C-852.154,541.793-851.276,540.517-850.3,539.319Zm-27.69,22.478a1.437,1.437,0,0,1-1.408-1.381,1.393,1.393,0,0,1,1.386-1.47,1.429,1.429,0,0,1,1.467,1.4A1.47,1.47,0,0,1-877.993,561.8Zm3.5,8.635a39.839,39.839,0,0,1-1.648-5.526.721.721,0,0,1,.41-.919,4.214,4.214,0,0,0,.452-6.912.672.672,0,0,1-.211-1.024,7.727,7.727,0,0,1,5.9-4.082,17.082,17.082,0,0,1,6.409.257c.442.089.6.166.425.663a16.881,16.881,0,0,0-.9,5.932c.025,2.348,0,4.7.011,7.047a1.25,1.25,0,0,1-.339.978,70.191,70.191,0,0,0-7.465,9.147c-.046.067-.081.14-.169.3A33.233,33.233,0,0,1-874.488,570.432Zm22.181,31.031a35.66,35.66,0,0,1-12.909,4.639,13.9,13.9,0,0,1-4.758-.146,8.065,8.065,0,0,1-6.563-7.76c-.289-4.134.875-7.955,2.458-11.688a38.757,38.757,0,0,1,2.422-4.783,75.746,75.746,0,0,0,19.492,19.529C-852.219,601.336-852.246,601.429-852.307,601.463Zm3.54-2.148a.872.872,0,0,1-1.164-.007,72.217,72.217,0,0,1-19.631-19.629,1.077,1.077,0,0,1,.028-1.444,71.886,71.886,0,0,1,5.373-6.969c.122-.139.2-.341.518-.374v2.565q0,4.408,0,8.814a1.415,1.415,0,0,0,.913,1.452,1.329,1.329,0,0,0,1.474-.286,1.651,1.651,0,0,0,.482-1.294c.043-1.716.047-1.716,1.739-1.716,1.763,0,3.525.006,5.287-.007a1.428,1.428,0,0,0,1.417-.855,1.355,1.355,0,0,0-.2-1.491,1.657,1.657,0,0,0-1.439-.525c-2.042,0-4.086-.02-6.127.015-.559.009-.693-.16-.687-.7.028-2.406.035-4.813,0-7.218-.01-.624.209-.725.766-.716,2.041.031,4.084.018,6.126.01,1.061,0,1.708-.556,1.7-1.422s-.669-1.433-1.711-1.437c-2.042-.01-4.086-.022-6.128.009-.549.009-.771-.076-.759-.7.041-2.35.022-4.7.017-7.051a14.224,14.224,0,0,1,2.739-8.463c.81-1.139,1.662-2.247,2.457-3.395a.945.945,0,0,1,.9-.44c3.581.012,7.162.006,10.742.01.238,0,.5-.076.681.195,1.52,2.233,3.378,4.245,4.377,6.817a14.9,14.9,0,0,1,1,5.572c-.017,2.21-.027,4.422.01,6.631.01.626-.112.853-.8.837-2.069-.052-4.14-.02-6.21-.017a1.472,1.472,0,0,0-1.435.833,1.329,1.329,0,0,0,.121,1.426,1.515,1.515,0,0,0,1.391.606c2.042-.01,4.084.017,6.126-.017.587-.01.826.083.812.757-.046,2.405-.032,4.812-.006,7.218.006.507-.113.666-.643.658-2.1-.031-4.2-.013-6.294-.011a1.5,1.5,0,0,0-1.514.839,1.346,1.346,0,0,0,.135,1.426,1.616,1.616,0,0,0,1.482.61c2.014,0,4.03.023,6.043-.015.6-.011.892.1.789.764a2.7,2.7,0,0,0,.019.837,1.426,1.426,0,0,0,1.519,1.264,1.384,1.384,0,0,0,1.3-1.386c.034-.978.014-1.958.014-2.937,0-2.678,0-5.356,0-8.276a70.195,70.195,0,0,1,6.182,8.006c.255.38-.01.565-.164.8a70.779,70.779,0,0,1-11.639,13.5A72,72,0,0,1-848.768,599.315Zm25.2-10.208a22.815,22.815,0,0,1,1.456,8.87,8.267,8.267,0,0,1-8.27,8.216,25.226,25.226,0,0,1-10.128-1.935,38.029,38.029,0,0,1-6.111-2.923,75.016,75.016,0,0,0,19.606-19.651A43.024,43.024,0,0,1-823.569,589.107Zm1.057-28.291a4.2,4.2,0,0,0-1.161,6.877c.17.186.318.3.242.629a39.507,39.507,0,0,1-3.627,7.884,71.305,71.305,0,0,0-7.655-9.395,1.243,1.243,0,0,1-.305-.991c0-2.152-.027-4.305.009-6.457a18.559,18.559,0,0,0-1.076-7.006c3.357-.708,6.664-1.1,9.8.567,2.863,1.523,3.985,4.148,4.167,7.266A.593.593,0,0,1-822.513,560.816Zm1.833,5.26a1.441,1.441,0,0,1-1.426-1.45,1.483,1.483,0,0,1,1.407-1.4,1.428,1.428,0,0,1,1.445,1.427A1.387,1.387,0,0,1-820.679,566.075Z" transform="translate(1.081 0)" fill="#666" stroke="#666" stroke-width="0.6"/>
    <path id="Path_91692" data-name="Path 91692" d="M-837.958,603.648a1.332,1.332,0,0,0-1.833.685,1.854,1.854,0,0,1-1.992,1.174c-6.246-.019-12.491-.01-18.737-.01-1.705,0-1.832-.1-2.284-1.751a1.4,1.4,0,0,0-1.557-1.1,1.359,1.359,0,0,0-1.246,1.43,3.452,3.452,0,0,0,1.6,3.24,2.394,2.394,0,0,1,1.265,2.78c-.013.138.01.28,0,.419a3.153,3.153,0,0,0,2.218,3.584h5.551c1.831-.439,2.417-1.192,2.424-3.119,0-.559-.011-1.118.008-1.676.009-.249,0-.562.313-.615a3.29,3.29,0,0,1,1.973.054c.484.235.206.863.251,1.316.03.3,0,.613.007.921.008,1.927.593,2.68,2.424,3.119h5.55a3.177,3.177,0,0,0,2.225-3.584c-.05-.584.019-1.177-.017-1.763a.787.787,0,0,1,.531-.891,3.966,3.966,0,0,0,2.105-2.391A1.406,1.406,0,0,0-837.958,603.648Zm-18.121,7.588c-.559-.022-1.118-.006-1.677-.006-.056,0-.112,0-.168,0-.632-.045-1.654.261-1.817-.121a7.049,7.049,0,0,1-.135-2.464c-.007-.3.2-.281.4-.281,1.146,0,2.292.015,3.438-.008.388-.008.464.151.453.493-.02.642-.025,1.286,0,1.928C-855.572,611.162-855.733,611.251-856.08,611.236Zm13.409-.537c.034.473-.17.56-.58.538-.529-.028-1.061-.007-1.719-.007-.563-.072-1.5.312-1.874-.145-.346-.428-.077-1.334-.127-2.027-.037-.518.081-.742.667-.71,1,.054,2.012.036,3.018.006.451-.013.654.084.616.586A11.975,11.975,0,0,0-842.67,610.7Z" transform="translate(3.028 7.904)" fill="#666" stroke="#666" stroke-width="0.6"/>
    <path id="Path_91693" data-name="Path 91693" d="M-851.871,551.365a11.841,11.841,0,0,1,7.937,3.1,1.462,1.462,0,0,1,.272,2.2,1.449,1.449,0,0,1-2.161-.045,8.923,8.923,0,0,0-12.079-.076,1.5,1.5,0,0,1-2.227.02,1.472,1.472,0,0,1,.359-2.2A11.747,11.747,0,0,1-851.871,551.365Z" transform="translate(3.645 1.824)" fill="#666" stroke="#666" stroke-width="0.6"/>
  </g>
</svg>
