<svg xmlns="http://www.w3.org/2000/svg" width="86.607" height="70.976" viewBox="0 0 86.607 70.976">
  <path id="ic_construction" d="M-920.887,497.192a1.076,1.076,0,0,0-1.237-.886,1.115,1.115,0,0,0-1.106,1.059,7.357,7.357,0,0,0,0,1.173c.022,1.018-.241,1.3-1.264,1.3-1.959.008-3.919-.032-5.877.021-.7.018-.877-.161-.875-.867.029-6.66.018-13.322.018-19.983,0-1.79,0-1.8,1.684-1.161a8.136,8.136,0,0,1,5.636,6.865c.217,1.631.208,3.291.3,4.939.052.919.561,1.49,1.29,1.447a1.285,1.285,0,0,0,1.159-1.48c-.042-1.37-.081-2.742-.183-4.109-.345-4.663-2.6-8.075-6.974-9.777-4.6-1.789-9.294-3.327-13.948-4.974a1.563,1.563,0,0,0-1.67.2c-.661.678-1.2.409-1.816.032a3.491,3.491,0,0,0-.752-.366,1.082,1.082,0,0,1-.839-1.381c.115-.616-.235-1.281.473-1.824a13.806,13.806,0,0,0,5.424-8.943c.048-.286.088-.408.428-.445,2.114-.233,2.949-1.217,2.976-3.366a25.372,25.372,0,0,1,.192-4.168c.2-1.108.311-2.423-.809-3.143a1.7,1.7,0,0,1-.811-1.626c-.009-.28-.057-.557-.089-.835a12.939,12.939,0,0,0-10.459-11.021,1.251,1.251,0,0,1-.947-.583c-1.2-1.848-5.531-1.837-6.7.045a1.065,1.065,0,0,1-.8.523,12.55,12.55,0,0,0-7.612,4.366,16.843,16.843,0,0,0-2.067,3.266c-2.264-2.118-4.465-4.189-6.676-6.247-2.015-1.875-3.957-1.864-5.981.034-2.225,2.086-4.439,4.186-6.665,6.272-.169.158-.283.433-.592.394-.1-1.968-.654-2.49-2.634-2.486-1.456,0-2.911,0-4.367.013-1.769.01-2.422.667-2.42,2.434,0,2.8,0,5.6.022,8.4a1.411,1.411,0,0,1-.5,1.158c-2.216,2.055-4.4,4.149-6.615,6.2a7.275,7.275,0,0,0-2.168,2.906v1.68c.043.027.111.045.128.085,1.372,3.163,4.151,3.735,6.677,1.372.725-.678,1.444-1.363,2.311-2.181,0,2.773,0,5.339,0,7.9a4.232,4.232,0,0,0,.1,1,1.1,1.1,0,0,0,1.169.88,1.108,1.108,0,0,0,1.108-.865,3.426,3.426,0,0,0,.081-.912q0-4.829,0-9.656a1.154,1.154,0,0,1,.325-.976q8.327-7.814,16.62-15.663c.336-.318.527-.336.872-.01,2.047,1.949,4.116,3.874,6.178,5.807a1.032,1.032,0,0,1,.388.693,43.387,43.387,0,0,1,.253,5.081c-.022,2.036.891,3.014,2.927,3.237.3.033.434.085.481.416a13.532,13.532,0,0,0,5.483,9.073,1.1,1.1,0,0,1,.424.83c.194,1.325-.165,2.26-1.565,2.617a2.7,2.7,0,0,0-.673.334.563.563,0,0,1-.8-.068,2.116,2.116,0,0,0-2.409-.38c-1.146.438-2.319.806-3.459,1.257-.619.244-.842.217-.829-.553.044-2.434.014-4.869.009-7.3,0-1.889-.749-2.632-2.642-2.631q-4.157,0-8.312.02c-1.962.007-2.677.726-2.676,2.68q0,6.844.013,13.686a1.428,1.428,0,0,1-.273,1.013,10.259,10.259,0,0,0-2.316,5.475c-.056.5-.24.627-.734.622-2.182-.028-4.366-.032-6.549.009-.6.011-.739-.16-.73-.741.034-2.183.01-4.367.011-6.55a1.24,1.24,0,0,0-.794-1.261,1.138,1.138,0,0,0-1.25.24,1.654,1.654,0,0,0-.41,1.318c0,2.211-.007,4.423.021,6.633a2.555,2.555,0,0,0,2.889,2.816c2.239,0,4.478.011,6.717-.016.5-.006.649.1.622.642-.171,3.382-.3,6.765-.431,10.149-.1,2.577,1.191,3.908,3.773,3.909q29.724.005,59.448.02C-921.648,502.292-920.233,500.168-920.887,497.192Zm-19.58-43.9c-.011.249,0,.5,0,.749h-.007c0,.332.007.665,0,1a.515.515,0,0,1-.569.561c-.469.013-.341-.334-.347-.582-.011-.582-.006-1.164,0-1.745,0-.294-.083-.6.424-.6S-940.451,452.926-940.467,453.288Zm-15.459-17.733a1.106,1.106,0,0,1,1.232-1.174c.251,0,.5-.007.752,0,.881.026,1.274.4,1.3,1.27.015.641,0,1.282,0,1.923s0,1.282,0,1.923a1.057,1.057,0,0,1-1.06,1.153,6.925,6.925,0,0,1-1.085.008,1.085,1.085,0,0,1-1.137-1.176C-955.949,438.175-955.961,436.864-955.926,435.555Zm-38.574,6.358c1.172.026,2.343,0,3.515.01.18,0,.381-.06.484.2a3.8,3.8,0,0,1-.647,2.919l-3.85,3.618c0-2.21.01-4.218-.008-6.225C-995.009,442.042-994.913,441.9-994.5,441.913Zm25.515,2.842a15.25,15.25,0,0,0-.146,1.583c-.019.241.054.506-.276.628-.311.115-.468-.09-.648-.258q-3-2.809-6-5.622c-1.645-1.544-1.785-1.548-3.4-.028q-11.088,10.442-22.173,20.885a2,2,0,0,1-1.4.717,1.24,1.24,0,0,1-1.052-.666,1.229,1.229,0,0,1,.033-1.34,4.747,4.747,0,0,1,.674-.739q12.121-11.426,24.246-22.846c1.075-1.014,1.616-1.015,2.7,0,2.348,2.2,4.687,4.407,7.049,6.59A1.054,1.054,0,0,1-968.985,444.755Zm1.483,10.827c-.359.006-.586-.161-.592-.539-.009-.666.006-1.332-.007-2-.006-.3.14-.375.408-.366s.515-.028.5.359,0,.776,0,1.165c0,.277.009.555,0,.832C-967.2,455.267-967.1,455.575-967.5,455.583Zm-.087-5.735c-.248,0-.676.233-.722-.284-.039-.455.37-.333.6-.386a1.24,1.24,0,0,0,.989-1.436,12.465,12.465,0,0,1,.613-4.542,10.379,10.379,0,0,1,7.141-6.732c.534-.159.613-.017.6.466-.025.923-.027,1.848,0,2.769a3.465,3.465,0,0,0,3.373,3.39,8.882,8.882,0,0,0,2.006-.072,3.518,3.518,0,0,0,2.809-3.588c.026-.839.018-1.68,0-2.518-.01-.416.026-.618.545-.458a10.4,10.4,0,0,1,7.558,8.163,14.816,14.816,0,0,1,.193,3.091c.011.776.283,1.366,1.151,1.489.235.033.535-.01.5.39-.042.43-.372.262-.578.262q-6.758.015-13.516.008C-958.747,449.859-963.168,449.863-967.59,449.847Zm2.846,7.3c0-1.231.035-2.464-.016-3.693-.025-.616.125-.8.771-.788,3.217.038,6.435.017,9.654.017,3.274,0,6.549.014,9.823-.014.554,0,.73.144.7.7-.1,1.977.258,3.989-.293,5.93-1.248,4.4-5.266,8.631-11.151,8.148A10.925,10.925,0,0,1-964.743,457.15Zm4.343,15.365a2.325,2.325,0,0,0,1.628-2.609c-.055-.586.064-.791.706-.574a12.272,12.272,0,0,0,8.217-.222c.114,3.219.35,2.627,3.115,4.131-3.378,3.258-10.863,3.719-15.146.03A15.683,15.683,0,0,1-960.4,472.514Zm-21.2-8.432q3.859.026,7.718-.006c.476,0,.541.184.539.591-.01,2.657-.015,5.314.022,7.969a.733.733,0,0,1-.608.822c-1.267.43-2.526.883-3.785,1.333a22.881,22.881,0,0,0-4.389,1.806c0-4.109,0-8.051-.009-11.993C-982.117,464.206-982.017,464.079-981.6,464.083Zm3.52,35.781c-1.985-.053-3.972-.016-5.958-.02-1.066,0-1.372-.308-1.326-1.342.193-4.331.359-8.663.6-12.99a8.657,8.657,0,0,1,7.393-8.157c.01.219.028.434.028.649,0,7.02-.006,14.041.015,21.061C-977.324,499.659-977.417,499.88-978.083,499.863Zm21.9-.006q-8.979-.032-17.959,0c-.69,0-.75-.25-.746-.819.023-3.664.011-7.328.011-10.993,0-3.637.013-7.274-.013-10.91a.867.867,0,0,1,.69-1.014c2.274-.759,4.532-1.567,6.78-2.4.542-.2.691-.049.783.458.209,1.153.485,2.3.689,3.449a6.971,6.971,0,0,0,3.407,4.93c2.188,1.346,4.343,2.742,6.528,4.093a.939.939,0,0,1,.518.925q-.032,5.792,0,11.582C-955.494,499.707-955.63,499.859-956.185,499.858Zm1.439-15.274q-3.36-2.134-6.736-4.24a4.463,4.463,0,0,1-2.07-3.109c-.14-.728-.293-1.455-.465-2.3,6.473,4.557,12.91,4.551,19.488-.026-.267,1.169-.462,2.269-.778,3.333a3.692,3.692,0,0,1-1.675,2.028c-2.291,1.445-4.59,2.877-6.869,4.341A.709.709,0,0,1-954.747,484.584Zm20.364,15.275q-8.976-.037-17.953,0c-.609,0-.727-.19-.724-.755q.036-5.746,0-11.493a1.022,1.022,0,0,1,.568-.994c2.184-1.35,4.342-2.742,6.529-4.088a7.071,7.071,0,0,0,3.375-4.959c.214-1.152.478-2.3.678-3.449.082-.472.234-.589.7-.42,2.332.845,4.666,1.683,7.015,2.477.5.168.522.451.522.867-.01,3.691-.006,7.383-.006,11.074,0,3.664-.013,7.327.013,10.991C-933.661,499.674-933.771,499.862-934.383,499.859Z" transform="translate(1007.029 -431.611)" fill="#666" stroke="#666" stroke-width="0.6"/>
</svg>
