<svg id="ic_education" xmlns="http://www.w3.org/2000/svg" width="86.373" height="80.562" viewBox="0 0 86.373 80.562">
  <path id="Path_28275" data-name="Path 28275" d="M5.11,61.74A5.169,5.169,0,0,0,6.854,51.728V37.9l14.358,4.6V57.766a1.729,1.729,0,0,0,.687,1.358c.314.231,7.848,5.664,21.257,5.664S64.1,59.356,64.411,59.125a1.713,1.713,0,0,0,.687-1.358V42.5l16.616-5.323a1.687,1.687,0,0,0,.162-3.152L43.831,17.37a1.686,1.686,0,0,0-1.353,0L4.434,34.029a1.687,1.687,0,0,0-1.008,1.632c.006.118.055,16.029.055,16.029A5.168,5.168,0,0,0,5.11,61.74ZM29.332,38.4c9.957-3.656,23.194-3.292,32.392,2.231V54.828A41.682,41.682,0,0,0,42.407,50.75a41.029,41.029,0,0,0-17.821,4.078v-14.2A27.582,27.582,0,0,1,29.332,38.4ZM43.156,61.414a38.308,38.308,0,0,1-16.883-3.653,39.719,39.719,0,0,1,33.754.005A38.309,38.309,0,0,1,43.156,61.414Zm0-40.658,33.28,14.572L64.943,39.01a1.805,1.805,0,0,0-.616-.713c-5.92-4.18-14.116-5.606-21.173-5.606-7.112,0-15.18,1.422-21.134,5.579a1.857,1.857,0,0,0-.654.74L9.875,35.329ZM5.11,54.792a1.788,1.788,0,0,1,0,3.574,1.788,1.788,0,0,1,0-3.574Z" transform="translate(-0.005 -17.228)" fill="#666"/>
  <path id="Path_28276" data-name="Path 28276" d="M83.034,343.2l-2.28-.614a9.118,9.118,0,0,1,1.685-4.642,6.087,6.087,0,0,1,1.747-1.632,1.661,1.661,0,0,0,.938-1.668,1.7,1.7,0,0,0-1.272-1.47l-8.687-2.273a1.687,1.687,0,0,0-.854,3.264l5.645,1.477a12.111,12.111,0,0,0-2.495,6.059L55.948,335.9a6.2,6.2,0,0,0-7.716,5.851,1.907,1.907,0,0,1-.6,1.373,2.115,2.115,0,0,1-1.455.6h-1.3v-7.075a7.86,7.86,0,0,1,9.861-7.6l5.206,1.362a1.687,1.687,0,1,0,.854-3.264l-5.2-1.361a11.232,11.232,0,0,0-12.4,4.944,11.23,11.23,0,0,0-12.4-4.945L2.495,333.193a1.7,1.7,0,0,0-1.271,1.471,1.66,1.66,0,0,0,.938,1.667,6.087,6.087,0,0,1,1.748,1.632A9.118,9.118,0,0,1,5.593,342.6l-2.252.606a4.444,4.444,0,0,0-3.2,5.4l.338,1.334a4.444,4.444,0,0,0,5.4,3.216l.026-.007,23.109-6.259a12.4,12.4,0,0,0,3.776,4.658,12.129,12.129,0,0,0,7.331,2.443h6.138a12.13,12.13,0,0,0,7.331-2.443,12.4,12.4,0,0,0,3.776-4.658l23.109,6.259.026.007a4.444,4.444,0,0,0,5.4-3.216l.338-1.334a4.444,4.444,0,0,0-3.2-5.4ZM6.391,335.66l25.252-6.613a7.858,7.858,0,0,1,9.856,7.6v7.075H40.2a2.073,2.073,0,0,1-2.062-1.975,6.221,6.221,0,0,0-7.713-5.849L8.885,341.712a12.112,12.112,0,0,0-2.494-6.052Zm76.575,12.112-.338,1.334a1.07,1.07,0,0,1-1.29.777l-24.556-6.651a1.687,1.687,0,0,0-2.053,1.13,8.941,8.941,0,0,1-8.473,6.251H40.119a8.941,8.941,0,0,1-8.473-6.251,1.685,1.685,0,0,0-2.053-1.13L5.037,349.882a1.07,1.07,0,0,1-1.29-.777l-.338-1.334a1.149,1.149,0,0,1,.8-1.307l27.225-7.328a2.741,2.741,0,0,1,3.336,2.66,5.487,5.487,0,0,0,5.434,5.3h5.97a5.445,5.445,0,0,0,3.8-1.55,5.253,5.253,0,0,0,1.631-3.8,2.737,2.737,0,0,1,3.336-2.608l6.472,1.742,20.753,5.586a1.148,1.148,0,0,1,.8,1.306Z" transform="translate(0 -273.424)" fill="#666"/>
  <path id="Path_28277" data-name="Path 28277" d="M394.8,347.614a1.686,1.686,0,1,0-.466,2.34A1.706,1.706,0,0,0,394.8,347.614Z" transform="translate(-325.64 -291.262)" fill="#666"/>
</svg>
