<svg xmlns="http://www.w3.org/2000/svg" width="86.774" height="86.702" viewBox="0 0 86.774 86.702">
  <g id="ic_ecommerce" transform="translate(687.66 -526.573)">
    <path id="Path_91676" data-name="Path 91676" d="M-601.4,604.5c-.42-.456-1.411-.127-2.149-.12-.47,0-.609-.128-.595-.6.034-1.135.011-2.271.011-3.407q0-20.8,0-41.6a4.322,4.322,0,0,0-3.587-4.558,7.45,7.45,0,0,0-1.609-.054c-.43.02-.56-.113-.551-.547q.041-2.061,0-4.124a1.077,1.077,0,0,1,.417-.834,8.344,8.344,0,0,0,2.2-3.931,4.892,4.892,0,0,0-.354-3.694c-2.306-4.411-4.5-8.883-6.7-13.349a1.2,1.2,0,0,0-1.26-.809q-28.737.032-57.474.005a1.14,1.14,0,0,0-1.22.73q-3.431,6.978-6.954,13.91a3.289,3.289,0,0,0-.355,1.976,6.421,6.421,0,0,0,1.5,3.95c1.391,1.338,1.422,2.882,1.341,4.554a7.533,7.533,0,0,0,.008,1.343c.09.677-.152.831-.82.826-3.3-.024-4.93,1.646-4.93,4.961q0,22.057,0,44.114a5.276,5.276,0,0,0,0,.627c.047.392-.1.524-.5.5-.626-.031-1.256.014-1.882-.016-.4-.02-.512.111-.5.5.025,1.045.008,2.092.009,3.138,0,3.3,1.658,4.975,4.935,4.975h76.3c3.16,0,4.845-1.7,4.847-4.884,0-.448.015-.9,0-1.345C-601.3,605.977-600.948,604.993-601.4,604.5ZM-616.98,529.75a.715.715,0,0,1,.73.5q3.083,6.2,6.194,12.382a1.5,1.5,0,0,1,.094,1.034,5.723,5.723,0,0,1-5.592,4.747,5.611,5.611,0,0,1-5.679-4.723,67.88,67.88,0,0,0-1.836-6.8c-.649-2.35-1.37-4.68-2.091-7.127C-622.353,529.76-619.667,529.769-616.98,529.75Zm-19-.013c1.126.1,2.267.022,3.4.022,1.284,0,2.568.022,3.851-.012a.634.634,0,0,1,.74.554q1.81,6.121,3.663,12.229a2.89,2.89,0,0,1-.086,1.58,5.737,5.737,0,0,1-6.2,4.293,5.856,5.856,0,0,1-5.1-5.289c-.355-4.1-.768-8.2-1.21-12.289C-637,530.008-636.925,529.656-635.976,529.737ZM-650,542.2c.382-3.922.805-7.84,1.171-11.763.05-.539.181-.7.727-.686,1.253.043,2.509.013,3.764.013,1.314,0,2.629.014,3.943-.008.412-.007.546.106.587.537.387,4.041.854,8.076,1.193,12.121a5.329,5.329,0,0,1-2.824,5.307,5.387,5.387,0,0,1-6.008-.159A5.418,5.418,0,0,1-650,542.2Zm3.214,8.716a8.526,8.526,0,0,0,9.173-2.862c.315-.385.436-.653.912-.065a8.551,8.551,0,0,0,13.518-.008c.153-.185.2-.707.672-.187,2.975,3.3,5.266,4.01,9.762,3.052v.951c0,15.3-.007,29.441.02,44.739,0,.79-.187.96-.965.959q-30.611-.037-61.223,0c-.742,0-.985-.113-.984-.941.031-15.328.023-29.5.023-44.829v-.9a9.9,9.9,0,0,0,3.889.405,8.632,8.632,0,0,0,5.764-3.274c.239-.3.329-.569.738-.082,3.9,4.632,10.011,4.564,13.8-.122.054-.066.117-.125.236-.249A8.793,8.793,0,0,0-646.781,550.912Zm-13.07-21.163c2.51.022,5.02.028,7.529,0,.549-.007.714.108.652.683-.408,3.8-.783,7.6-1.169,11.406a20.7,20.7,0,0,1-.233,2.132,5.683,5.683,0,0,1-5.57,4.543,5.775,5.775,0,0,1-5.719-5.038,2.26,2.26,0,0,1,.075-.969q1.84-6.071,3.639-12.155A.685.685,0,0,1-659.851,529.749ZM-678.494,542.5q3.043-6.072,6.082-12.146c.138-.275.205-.6.664-.6,2.737.02,5.475.01,8.292.01-1.138,3.795-2.248,7.5-3.359,11.2a12.661,12.661,0,0,0-.5,2.35,5.707,5.707,0,0,1-5.546,5.1,5.774,5.774,0,0,1-5.838-4.892A1.619,1.619,0,0,1-678.494,542.5Zm-3.118,16.61c0-1.737.889-2.45,2.571-2.094.228.048.3.126.3.338s0,.418,0,.627c0,14.194.008,27.233-.021,41.427,0,.795.193.958.967.957q33.483-.035,66.967,0c.757,0,.978-.135.977-.948-.031-14.1-.027-27.053,0-41.158,0-.39-.494-1.144.445-1.227,1.446-.128,2.194.253,2.368,1.179a4.375,4.375,0,0,1,.028.8q0,22.232.02,44.465c0,.755-.189.911-.923.91q-18.2-.039-36.4-.018-18.2,0-36.4.018c-.723,0-.931-.137-.929-.9Q-681.592,581.293-681.612,559.105Zm76.392,50.944a4.618,4.618,0,0,1-1.069.055q-20.211,0-40.422,0h-35.672c-1.755,0-2.444-.846-2.107-2.558.042-.215.1-.322.322-.313.209.009.418,0,.628,0h39.256q19.449,0,38.9.021c.4,0,1.084-.413,1.233.348C-603.9,608.908-604.326,609.833-605.22,610.049Z" transform="translate(0 0)" fill="#666" stroke="#666" stroke-width="0.6"/>
    <g id="Group_173867" data-name="Group 173867" transform="translate(-666.432 555.572)">
      <path id="Path_91677" data-name="Path 91677" d="M-566.008,653.363c-5.237.032-10.474.017-15.711.017q-9.759,0-19.518.011c-.516,0-.731-.1-.828-.666-.3-1.751-.716-3.483-1.032-5.232-.086-.474-.236-.618-.711-.6-1.214.034-2.429.011-3.644.011-2.128,0-2.114,0-2.028,2.117.016.4.139.491.511.482,1-.023,2,.021,3-.02.511-.021.66.146.759.649,1.605,8.14,3.244,16.274,4.86,24.412.115.577.214.938.979.9,1.533-.085,3.075-.019,4.614-.015a1.326,1.326,0,0,0,1.54,0l17.9,0a1.326,1.326,0,0,0,1.54,0c1.673-.005,3.346-.033,5.019,0,.486.009.651-.132.7-.6.1-1.019.258-2.033.393-3.049.781-5.853,1.549-11.709,2.36-17.558C-565.22,653.558-565.28,653.358-566.008,653.363Zm-2.27,3.441c-.72,5.072-1.376,10.153-2.022,15.235-.081.634-.3.8-.942.8q-13-.04-25.995,0c-.639,0-.846-.169-.969-.8-1.024-5.262-2.093-10.514-3.146-15.77a1.806,1.806,0,0,1,0-.295h.808q15.75,0,31.5-.013C-568.37,655.957-568.166,656.017-568.278,656.8Z" transform="translate(609.508 -646.888)" fill="#666" stroke="#666" stroke-width="0.6"/>
      <path id="Path_91678" data-name="Path 91678" d="M-547.539,782.678c-.08-1.738-1.156-2.979-3.183-3.676l-1.54,0c-.183.228-.478.2-.715.31a3.907,3.907,0,0,0-2.157,4.7,3.939,3.939,0,0,0,4.348,2.7A3.916,3.916,0,0,0-547.539,782.678Zm-3.862,1.489a1.3,1.3,0,0,1-1.31-1.255,1.3,1.3,0,0,1,1.316-1.331,1.3,1.3,0,0,1,1.269,1.3A1.3,1.3,0,0,1-551.4,784.167Z" transform="translate(567.009 -750.464)" fill="#666" stroke="#666" stroke-width="0.6"/>
      <path id="Path_91679" data-name="Path 91679" d="M-457.539,782.678c-.08-1.738-1.156-2.979-3.183-3.676l-1.54,0c-.183.228-.478.2-.715.31a3.907,3.907,0,0,0-2.157,4.7,3.939,3.939,0,0,0,4.348,2.7A3.916,3.916,0,0,0-457.539,782.678Zm-3.871,1.489a1.3,1.3,0,0,1-1.3-1.263,1.3,1.3,0,0,1,1.324-1.322,1.3,1.3,0,0,1,1.261,1.3A1.3,1.3,0,0,1-461.409,784.167Z" transform="translate(496.448 -750.464)" fill="#666" stroke="#666" stroke-width="0.6"/>
    </g>
  </g>
</svg>
