<svg xmlns="http://www.w3.org/2000/svg" width="77.086" height="87.433" viewBox="0 0 77.086 87.433">
  <path id="ic_engineering" d="M-571.481,454.185a4.5,4.5,0,0,0-4.547-4.739c-.654-.031-.777-.261-.805-.841a32.272,32.272,0,0,0-1.532-7.951,1.431,1.431,0,0,0-.834-1,1.266,1.266,0,0,0-1.716,1.464c.172.919.458,1.817.708,2.778-1.356,0-2.619-.017-3.881,0a2.877,2.877,0,0,0-3.022,3.033c-.011.621-.028,1.245.007,1.865.026.463-.094.634-.6.632q-7.247-.028-14.494,0c-.427,0-.607-.106-.584-.568.034-.676.021-1.357,0-2.034a2.8,2.8,0,0,0-2.859-2.914q-4.718-.059-9.437,0a2.835,2.835,0,0,0-2.87,2.925,14.977,14.977,0,0,0,.007,1.864c.055.623-.192.735-.758.732-3.764-.024-7.528,0-11.291-.021-.747,0-1.744.338-2.173-.162-.366-.427-.111-1.4-.117-2.133a2.9,2.9,0,0,0-3.169-3.218c-1.229-.009-2.457,0-3.713,0a28.525,28.525,0,0,1,5.335-11.083,29.22,29.22,0,0,1,8.708-7.5c.55-.312.773-.335.934.351a25.133,25.133,0,0,0,.814,2.664,1.275,1.275,0,0,0,2.015.729,1.393,1.393,0,0,0,.431-1.675c-.627-2.046-1.237-4.1-1.873-6.14-.142-.459-.155-.712.443-.784a18.492,18.492,0,0,0,2.474-.489c.642-.168.785.006.78.663-.032,3.956-.018,7.914-.012,11.87a5.1,5.1,0,0,0,.087,1.006,1.185,1.185,0,0,0,1.262,1.017,1.224,1.224,0,0,0,1.245-1.055,4.379,4.379,0,0,0,.056-.927q0-7.97,0-15.941c0-1.16.1-1.266,1.251-1.267q5.393,0,10.786,0c1.456,0,1.481.025,1.481,1.453q0,8.013,0,16.026c0,1.086.507,1.721,1.324,1.724s1.317-.619,1.329-1.714c.007-.65,0-1.3,0-1.95,0-3.448.014-6.9-.014-10.344,0-.59.157-.7.695-.569a18.346,18.346,0,0,0,2.474.485c.646.067.7.31.526.853-.594,1.879-1.165,3.766-1.73,5.654-.294.984,0,1.718.757,1.967s1.415-.184,1.73-1.156c.294-.909.57-1.823.86-2.758a2.417,2.417,0,0,1,.336.12,29.092,29.092,0,0,1,8.015,6.373,36.182,36.182,0,0,1,3.375,4.641,1.272,1.272,0,0,0,2.227.122,1.512,1.512,0,0,0-.147-1.736,31.62,31.62,0,0,0-12.294-11.753c-.5-.268-.733-.479-.53-1.134a2.732,2.732,0,0,0-2.318-3.719c-1.159-.207-2.309-.465-3.471-.657-.395-.066-.519-.224-.5-.605a3.659,3.659,0,0,0-2.681-3.983h-13.483a3.7,3.7,0,0,0-2.66,4c.023.4-.133.526-.515.589-1.106.184-2.2.43-3.3.634-2.123.394-3.034,1.779-2.436,3.842.155.536.012.726-.43.954a28.88,28.88,0,0,0-6.592,4.653,31.5,31.5,0,0,0-10.169,21.279c-.046.617-.187.784-.81.813a4.514,4.514,0,0,0-4.562,4.731c-.042,3.646-.026,7.292,0,10.938a2.8,2.8,0,0,0,2.572,3.02c1.817.346,3.632.71,5.453,1.04a1.043,1.043,0,0,1,.953.858,24.644,24.644,0,0,0,2.249,5.449,1.042,1.042,0,0,1-.094,1.286c-1.065,1.523-2.087,3.077-3.113,4.627a2.8,2.8,0,0,0,.375,4.016q2.789,2.83,5.6,5.636a2.775,2.775,0,0,0,4,.391c1.54-1.033,3.082-2.063,4.6-3.135a1.024,1.024,0,0,1,1.277-.1,25.367,25.367,0,0,0,5.5,2.29.937.937,0,0,1,.759.848c.332,1.86.689,3.715,1.042,5.572a2.813,2.813,0,0,0,3.087,2.589q4,.012,8.005,0a2.787,2.787,0,0,0,3.039-2.541c.143-.748.288-1.5.425-2.244a1.363,1.363,0,0,0-1.009-1.755,1.35,1.35,0,0,0-1.566,1.186c-.149.66-.277,1.326-.368,2-.067.492-.215.722-.787.714q-3.749-.056-7.5,0c-.566.009-.711-.227-.8-.7-.39-2.108-.824-4.207-1.188-6.319a1.791,1.791,0,0,0-1.459-1.618,25.887,25.887,0,0,1-6.881-2.871,1.736,1.736,0,0,0-2.1.108c-1.771,1.243-3.575,2.438-5.354,3.668-.36.249-.591.346-.968-.045q-2.639-2.739-5.359-5.4a.633.633,0,0,1-.087-.988c1.244-1.81,2.44-3.653,3.688-5.461a1.642,1.642,0,0,0,.126-1.956,27.565,27.565,0,0,1-2.954-7.156,1.653,1.653,0,0,0-1.457-1.312q-2.358-.433-4.709-.9c-.768-.152-1.821-.1-2.209-.581s-.081-1.513-.144-2.3c-.045-.57.158-.69.695-.687,3.96.023,7.921.034,11.881-.009.686-.008.852.254.886.835a19.051,19.051,0,0,0,1.239,5.6,22.165,22.165,0,0,0,23.793,14.447,21.517,21.517,0,0,0,14.331-8.035A21.928,21.928,0,0,0-587.516,463c.053-.577.27-.654.765-.651q5.982.027,11.965,0c.476,0,.725.053.672.625a11.133,11.133,0,0,0,0,1.863c.039.509-.159.672-.635.758-2.1.378-4.183.815-6.28,1.191a1.8,1.8,0,0,0-1.62,1.461,26.277,26.277,0,0,1-2.853,6.924,1.765,1.765,0,0,0,.095,2.112c1.25,1.805,2.446,3.65,3.691,5.459a.586.586,0,0,1-.084.912q-2.7,2.675-5.358,5.4a.615.615,0,0,1-.972.1c-1.771-1.242-3.582-2.427-5.353-3.67a1.781,1.781,0,0,0-2.171-.106,25.106,25.106,0,0,1-5.034,2.307c-.77.256-1.559.457-2.319.738a1.2,1.2,0,0,0-.78,1.572,1.187,1.187,0,0,0,1.415.911,4.553,4.553,0,0,0,.656-.143,28.085,28.085,0,0,0,6.459-2.588.921.921,0,0,1,1.135.071c1.514,1.07,3.059,2.1,4.6,3.136A2.822,2.822,0,0,0-585.4,491q2.751-2.748,5.485-5.513a2.865,2.865,0,0,0,.412-4.156c-1.03-1.548-2.048-3.1-3.116-4.624a.981.981,0,0,1-.064-1.212,25.953,25.953,0,0,0,2.255-5.448,1.041,1.041,0,0,1,.931-.875c1.822-.321,3.635-.692,5.453-1.038a2.759,2.759,0,0,0,2.565-3.014C-571.454,461.477-571.44,457.83-571.481,454.185Zm-12.992-7.23c.054-.357.225-.392.5-.391,1.288,0,2.576.016,3.863-.007.376-.007.5.165.522.487,0,.028.008.056.012.084.381,2.292.381,2.292-2.349,2.292h-.5C-584.608,449.419-584.809,449.165-584.473,446.955Zm-28.672-.389c2.354,0,4.709.018,7.064-.013.565-.007.71.18.717.722.03,2.144.047,2.144-2.046,2.144h-2.943c-1.43,0-2.86-.024-4.289.013-.526.013-.651-.15-.656-.665C-615.319,446.565-615.337,446.565-613.145,446.565Zm-26.55.165c.027-.226.26-.162.414-.163,1.287,0,2.574.01,3.86-.01.411-.006.559.162.526.547,0,.028,0,.056,0,.084-.056.721.323,1.788-.159,2.08-.592.358-1.561.085-2.367.085v.063a7.922,7.922,0,0,1-.922-.007c-.533-.062-1.424.266-1.529-.187A7.633,7.633,0,0,1-639.7,446.73Zm64.746,12.967q-21.272-.025-42.545-.012a3.607,3.607,0,0,0-1.085.091,1.215,1.215,0,0,0-.945,1.24,1.17,1.17,0,0,0,.93,1.245,4.358,4.358,0,0,0,1.083.091c8.846,0,17.692.017,26.538-.019.806,0,.887.241.809.937a19.873,19.873,0,0,1-15.9,17.192A19.731,19.731,0,0,1-629.051,464.4c-.375-2.041-.375-2.041,1.7-2.041.73,0,1.461.02,2.19-.007a1.349,1.349,0,0,0,1.461-1.317,1.36,1.36,0,0,0-1.446-1.336c-1.6-.036-3.2-.013-4.8-.013-4.858,0-9.717-.015-14.575.017-.646,0-.789-.173-.77-.793.047-1.5.011-2.995.017-4.492.007-1.631.733-2.357,2.373-2.371.9-.008,1.8,0,2.7,0h63.438c1.988,0,2.636.641,2.637,2.609,0,1.413-.044,2.828.019,4.238C-574.078,459.593-574.327,459.7-574.949,459.7Z" transform="translate(648.242 -412.376)" fill="#666" stroke="#666" stroke-width="0.6"/>
</svg>
