<svg xmlns="http://www.w3.org/2000/svg" width="77.117" height="87.734" viewBox="0 0 77.117 87.734">
  <g id="ic_fashion" transform="translate(1088.2 -385.018)">
    <path id="Path_91618" data-name="Path 91618" d="M-875.8,896.519a.765.765,0,0,1,1.018,0Z" transform="translate(-176.007 -424.218)" fill="#666" stroke="#666" stroke-width="0.9"/>
    <path id="Path_91619" data-name="Path 91619" d="M-860.8,896.562a1.266,1.266,0,0,1,1.045-.139.417.417,0,0,1-.027.139Z" transform="translate(-188.463 -424.261)" fill="#666" stroke="#666" stroke-width="0.9"/>
    <path id="Path_91620" data-name="Path 91620" d="M-1012.456,434.809a14.126,14.126,0,0,0-2.376-6.436,4.961,4.961,0,0,0-4.574-2.215,9.336,9.336,0,0,0-6.636,3.458,29.282,29.282,0,0,0-4.055,6.906,42.482,42.482,0,0,1-5.032,8.592,9.9,9.9,0,0,1-3.6,3.142,2.911,2.911,0,0,1-3.663-.8,9.661,9.661,0,0,1-1.249-2,2.239,2.239,0,0,0-2.686-1.234,22.323,22.323,0,0,0-3.239.962c-5.888,2.3-9.519,6.388-10.108,12.858a2.337,2.337,0,0,0,2.464,2.822c.226.01.452,0,.678,0,5.116,0,10.231.011,15.347-.014.6,0,.86.133.9.763a24.947,24.947,0,0,0,.385,3.534c.237,1.107-.247,1.591-1.117,2.1-4.657,2.711-9.613,3-14.75,1.927-4.545-.95-8.812-2.749-13.139-4.36-5.061-1.884-10.15-3.64-15.656-3.548-.477.008-.465-.2-.416-.564a181.327,181.327,0,0,1,5.547-26.733,72.867,72.867,0,0,1,4.079-11.271,1.012,1.012,0,0,1,1.1-.668c1.44.048,2.884.05,4.323,0,.65-.022.747.2.634.772-.578,2.938-.9,5.915-1.292,8.881-.134,1,.3,1.685,1.112,1.768.765.079,1.284-.46,1.413-1.445.4-3.079.782-6.16,1.317-9.22.108-.617.335-.767.926-.755,1.893.038,3.787.014,5.681.014,1.645,0,1.661,0,1.891,1.59.408,2.821.8,5.646,1.185,8.47.124.9.679,1.43,1.422,1.345a1.334,1.334,0,0,0,1.114-1.614c-.013-.169-.045-.336-.067-.5-.368-2.912-.716-5.828-1.263-8.714-.084-.44.031-.593.5-.584q2.2.041,4.408,0a.77.77,0,0,1,.833.529c.451,1.063.955,2.1,1.375,3.178a132.833,132.833,0,0,1,5.065,17c.22.9.827,1.362,1.54,1.2.786-.176,1.145-.86.918-1.789-.416-1.7-.811-3.4-1.272-5.086-1.508-5.519-3.062-11.024-5.643-16.167a1.268,1.268,0,0,1-.075-.9c.52-2.369,1.053-4.734,1.567-7.1.987-4.55,2.062-9.081,1.987-13.792-.058-3.645-.038-7.29-.138-10.936a2.68,2.68,0,0,0-1.584-2.7h-4.07a2.006,2.006,0,0,0-1.755,2.293c-.026,1.326.007,2.648-.14,3.976a10.389,10.389,0,0,1-4.6,7.764,9.833,9.833,0,0,1-10.682.657,10.043,10.043,0,0,1-5.655-9.188c-.024-1.045.022-2.092-.014-3.137a2.2,2.2,0,0,0-1.744-2.365h-4.24a2.455,2.455,0,0,0-1.5,2.144c-.061,3.108-.129,6.216-.171,9.324a1.262,1.262,0,0,0,1.284,1.457c.786-.005,1.234-.529,1.253-1.478q.075-3.73.144-7.459c.027-1.46.026-1.426,1.466-1.461.608-.015.744.169.738.754a21.219,21.219,0,0,0,.155,4.227c1.029,5.366,4.139,9.015,9.338,10.565,5.292,1.577,9.945.134,13.68-3.94a13.748,13.748,0,0,0,3.423-10.162c-.046-1.448-.007-1.412,1.453-1.446.6-.014.678.216.683.719.027,2.4.113,4.8.124,7.2a52.232,52.232,0,0,1-.284,8.124c-.755,4.967-2.013,9.833-3.031,14.747-.128.617-.39.724-.956.723q-11.319-.028-22.637,0c-.661,0-.838-.22-.96-.827-1.107-5.5-2.666-10.907-3.21-16.515a1.283,1.283,0,0,0-1.377-1.21,1.246,1.246,0,0,0-1.139,1.416,22.966,22.966,0,0,0,.261,2.525c.848,5.151,2.12,10.215,3.2,15.318a1.429,1.429,0,0,1-.108,1.047,41.58,41.58,0,0,0-2.618,6.316,175.383,175.383,0,0,0-7.661,34.63c-.14,1.131.406,1.685,1.571,1.633a28.566,28.566,0,0,1,4.4.074,50.66,50.66,0,0,1,12.2,3.357,101.729,101.729,0,0,0,12.726,4.274,28.487,28.487,0,0,1,3.674.748h1.357a1.3,1.3,0,0,1,1.018,0h1.526c.327-.208.71.012,1.045-.139a20.008,20.008,0,0,0,10.086-3.79,1.944,1.944,0,0,0,.89-2.022c-.2-1.568-.315-3.148-.513-4.716-.07-.551-.026-.8.634-.793a2.594,2.594,0,0,0,2.6-1.913,29.476,29.476,0,0,1,7.922-11.544,15.1,15.1,0,0,1,3.346-2.434c.441-.229.568-.136.629.347a39.831,39.831,0,0,1,.184,4.826c.012,2.685,0,5.37.006,8.055a2.381,2.381,0,0,0,2.65,2.685c.452.01.9.008,1.357,0,1.828-.03,2.694-.895,2.7-2.72.009-2.091.092-4.188-.021-6.273a13.078,13.078,0,0,1,1.636-7.24A14.8,14.8,0,0,0-1012.456,434.809Zm-3.859,8.551a15.6,15.6,0,0,0-1.969,8.791c.111,1.83-.015,3.674.037,5.51.021.724-.366.66-.839.668-.5.009-.841.015-.822-.684.052-1.864.018-3.73.018-6.014a42.928,42.928,0,0,0-.338-7.275c-.011-.055-.014-.112-.026-.168-.462-2.116-1.383-2.617-3.415-1.823a14.232,14.232,0,0,0-4.286,2.834,31.957,31.957,0,0,0-8.83,12.545.765.765,0,0,1-.856.588q-9.412-.026-18.824,0c-.622,0-.689-.216-.624-.743a11.4,11.4,0,0,1,5.02-8.272,17.858,17.858,0,0,1,5.622-2.467c.482-.131.681.007.9.428a6.608,6.608,0,0,0,3.681,3.551,5.716,5.716,0,0,0,5.091-.737,18.225,18.225,0,0,0,5.363-5.8,62.859,62.859,0,0,0,4.2-7.91,22.105,22.105,0,0,1,3.155-5.189,6.775,6.775,0,0,1,4.645-2.495,2.621,2.621,0,0,1,2.485,1.13,11.151,11.151,0,0,1,1.925,5.088A12.417,12.417,0,0,1-1016.315,443.359Z" transform="translate(0 0)" fill="#666" stroke="#666" stroke-width="0.9"/>
    <path id="Path_91621" data-name="Path 91621" d="M-795.264,455.042c-1.169-2.685-2.333-5.373-3.428-8.088a2.771,2.771,0,0,0-2.909-1.935c-6.414.04-12.83.053-19.243,0-2.2-.019-2.717,1.179-3.234,2.9a1.092,1.092,0,0,0,.714,1.3,1.167,1.167,0,0,0,1.511-.367,3.19,3.19,0,0,0,.411-.828.583.583,0,0,1,.617-.444c1.328.02,2.656.01,3.984.006.293,0,.467.032.406.423-.318,2.035-.622,4.073-.893,6.115-.055.412-.2.491-.581.488-2.062-.017-4.124-.008-6.3-.008.171-.423.3-.73.42-1.041a1.307,1.307,0,0,0-.574-1.8,1.312,1.312,0,0,0-1.772.836c-.388.875-.732,1.77-1.119,2.645a2.425,2.425,0,0,0,.493,2.808q6.8,7.622,13.591,15.249a2.378,2.378,0,0,0,3.923-.017q6.742-7.559,13.482-15.119A2.658,2.658,0,0,0-795.264,455.042Zm-19.515-.9q.461-2.926.847-5.864c.072-.545.265-.742.848-.717,1.3.054,2.6.021,3.9.014.338,0,.573.018.631.463.259,1.986.548,3.969.851,5.949.072.471-.022.639-.535.618-1.016-.041-2.034-.012-3.051-.012s-2.034-.007-3.051,0C-814.674,454.6-814.848,454.579-814.78,454.145Zm.436,14.01-9.819-11.016c2.2,0,4.219.006,6.24-.007a.476.476,0,0,1,.529.41q1.518,5.051,3.046,10.1A2.677,2.677,0,0,1-814.344,468.155Zm6.236.008-.117-.071c.413-1.4.844-2.789,1.232-4.192a1.226,1.226,0,0,0-.856-1.591,1.247,1.247,0,0,0-1.544.835c-.083.208-.13.431-.2.646l-1.638,5.378-3.633-11.99h7.165c.1.369-.151.679-.2,1.025a1.237,1.237,0,0,0,.89,1.509,1.239,1.239,0,0,0,1.543-.832c.243-.558.15-1.418.647-1.654a5.066,5.066,0,0,1,2-.085c1.439,0,2.878,0,4.523,0Zm3.454-13.561c-.338,0-.438-.153-.479-.443-.285-2.011-.566-4.022-.873-6.03-.074-.482.108-.567.539-.558,1.242.025,2.485.007,3.728.01.276,0,.528-.035.68.332.915,2.2,1.861,4.394,2.836,6.683C-800.435,454.6-802.545,454.589-804.654,454.6Z" transform="translate(-216.107 -49.449)" fill="#666"/>
  </g>
</svg>
