<svg xmlns="http://www.w3.org/2000/svg" width="68.098" height="86.834" viewBox="0 0 68.098 86.834">
  <g id="ic_finance" transform="translate(620.566 -443.051)">
    <path id="Path_91667" data-name="Path 91667" d="M-420.3,485.655c1.948,0,3.9-.008,5.844,0,1.189.007,1.927.649,1.944,1.653a1.753,1.753,0,0,1-1.971,1.733q-5.844.013-11.687,0a1.739,1.739,0,0,1-1.94-1.675c-.018-1.045.724-1.7,1.967-1.711C-424.2,485.648-422.252,485.655-420.3,485.655Z" transform="translate(-148.933 -32.968)" fill="#666"/>
    <path id="Path_91668" data-name="Path 91668" d="M-420.294,559.109c-1.948,0-3.9.006-5.843,0-1.253,0-1.991-.645-1.981-1.691a1.734,1.734,0,0,1,1.928-1.692q5.885-.026,11.771,0a1.731,1.731,0,0,1,1.9,1.722c-.009,1.006-.748,1.653-1.932,1.659C-416.4,559.116-418.346,559.109-420.294,559.109Z" transform="translate(-148.93 -87.184)" fill="#666"/>
    <path id="Path_91669" data-name="Path 91669" d="M-420.319,520.716c2,0,4.008-.005,6.012,0a1.655,1.655,0,0,1,1.629.995,1.6,1.6,0,0,1-.22,1.747,1.674,1.674,0,0,1-1.411.639c-4.008,0-8.016.015-12.024-.007a1.669,1.669,0,0,1-1.784-1.646,1.661,1.661,0,0,1,1.787-1.721C-424.327,520.693-422.323,520.716-420.319,520.716Z" transform="translate(-148.93 -60.096)" fill="#666"/>
    <path id="Path_91670" data-name="Path 91670" d="M-334.465,612.06a1.677,1.677,0,0,1,1.746-1.661,1.707,1.707,0,0,1,1.622,1.715,1.7,1.7,0,0,1-1.679,1.654A1.657,1.657,0,0,1-334.465,612.06Z" transform="translate(-221.405 -129.505)" fill="#666"/>
    <path id="Path_91671" data-name="Path 91671" d="M-555.86,475.31a1.627,1.627,0,0,0,1.712,1.516c1.06-.024,1.661-.78,1.662-2.118,0-9.779-.01-19.559.018-29.338a2.431,2.431,0,0,0-1.175-2.319h-58.341a1.9,1.9,0,0,0-1.435,1.954c-.024.4-.016.791-.016,1.186q0,16.32,0,32.639c0,1.325,0,1.325-1.283,1.522a6.479,6.479,0,0,0-5.832,6.691q-.031,18.184,0,36.369a6.212,6.212,0,0,0,5.341,6.472h26.118c.035-.04.064-.1.107-.115,3.208-.792,4.979-2.882,5.049-6.1.016-.746.2-.914.931-.912q14.2.042,28.405.017c1.506,0,2.111-.6,2.111-2.1q.005-15.093,0-30.186c0-1.3-.648-2.1-1.683-2.12s-1.7.782-1.707,2.072c0,.254,0,.509,0,.763q0,13.694,0,27.388c0,.4.144.813-.582.811q-13.439-.038-26.879,0c-.525,0-.585-.2-.576-.642.024-1.272.045-2.545-.007-3.815-.027-.655.15-.839.824-.836,6.868.027,13.736.018,20.6.015,1.442,0,2.049-.614,2.053-2.071q.009-3.477,0-6.953c0-1.684-.538-2.216-2.239-2.216-6.783,0-13.567-.011-20.35.015-.692,0-.9-.162-.9-.876.031-4.89.017-9.779.015-14.669a8.281,8.281,0,0,0-.194-2.1,6.157,6.157,0,0,0-6.265-4.679c-6.161-.012-12.323-.019-18.484.017-.766,0-.915-.2-.913-.933q.038-16.153,0-32.306c0-.742.165-.922.916-.921q26.031.037,52.062,0c.715,0,.936.126.934.9-.033,9.016-.021,18.032-.021,27.049C-555.877,474.688-555.888,475-555.86,475.31Zm-27.294,30.946c3.081.026,6.161.012,9.242.012,3.053,0,6.105.034,9.157-.022.814-.015.988.249.937.985a18.67,18.67,0,0,0,0,2.626c.049.686-.124.893-.855.888-5.228-.036-10.458-.019-15.686-.019-.961,0-1.924-.039-2.882.015-.585.032-.7-.184-.68-.712.039-1.016.053-2.037,0-3.051C-583.96,506.343-583.714,506.251-583.154,506.256Zm-7.4-22.3c2.167,0,3.246,1.06,3.247,3.207q.006,18.055,0,36.109c0,2.18-1.048,3.22-3.22,3.22q-11.57,0-23.14,0c-2.16,0-3.211-1.058-3.212-3.234q0-9.027,0-18.055,0-8.985,0-17.97c0-2.217,1.058-3.278,3.27-3.278Q-602.077,483.952-590.549,483.956Z" transform="translate(0 0)" fill="#666"/>
    <path id="Path_91672" data-name="Path 91672" d="M-528.2,491.443a12.529,12.529,0,0,0-12.553-12.007,12.385,12.385,0,0,0-8.643,3.5,1.65,1.65,0,0,0-.454,2.129c.2.367.05.569-.118.822a11.231,11.231,0,0,0-1.741,4.8,11.1,11.1,0,0,0,11.942,12.306,11.042,11.042,0,0,0,9.891-8.715c.057-.237-.025-.578.369-.682C-528.394,493.3-528.165,492.479-528.2,491.443Zm-5.18,2.884a7.8,7.8,0,0,1-7.625,5.324,7.744,7.744,0,0,1-7.25-6.23,7.055,7.055,0,0,1,1.109-5.5c1.616,1.617,3.249,3.21,4.831,4.853a2.732,2.732,0,0,0,2.174.892c2.087-.038,4.176.007,6.264-.025C-533.285,493.63-533.232,493.828-533.382,494.327Zm1.037-4.06c-1.213-.021-2.426-.007-3.639-.007v-.054c-1.352,0-2.851.364-4.015-.1-1.132-.456-1.922-1.764-2.86-2.7-.859-.856-1.707-1.725-2.579-2.567-.306-.3-.411-.463.045-.732a9.174,9.174,0,0,1,13.548,5.6C-531.714,490.2-531.917,490.275-532.346,490.267Z" transform="translate(-53.213 -28.158)" fill="#666"/>
    <path id="Path_91673" data-name="Path 91673" d="M-417.17,603.815a5.138,5.138,0,0,0-3.5-3.6c-.306-.112-.739-.1-.727-.652.03-1.376.01-2.754.01-4.249a13.058,13.058,0,0,0,1.191.587,1.447,1.447,0,0,0,1.871-.7,1.273,1.273,0,0,0-.524-1.752,4.037,4.037,0,0,0-1.561-.818c-.755-.153-1.127-.479-1-1.3a1.016,1.016,0,0,0-.447-.875,1.337,1.337,0,0,0-1.492-.261,1.479,1.479,0,0,0-.917,1.4c-.022.391.137.8-.455,1.013a4.712,4.712,0,0,0-3.239,4.515,4.206,4.206,0,0,0,2.753,4.261,1.48,1.48,0,0,1,.956,1.681c-.052,1.645-.015,3.293-.015,5.009a5.548,5.548,0,0,1-.766-.226c-.406-.193-.794-.424-1.193-.631a1.436,1.436,0,0,0-2,.476,1.46,1.46,0,0,0,.513,1.99,6.806,6.806,0,0,0,2.863,1.192c.455.062.592.2.593.665,0,1.147.575,1.787,1.479,1.761.884-.025,1.409-.643,1.372-1.76a.834.834,0,0,1,.665-.951A5.777,5.777,0,0,0-417.17,603.815Zm-7.128-5.323c-1.048-.573-1.076-1.716,0-2.877Zm2.944,9.2v-4.6a2.04,2.04,0,0,1,1.453,1.734A2.949,2.949,0,0,1-421.355,607.7Z" transform="translate(-148.688 -113.773)" fill="#666"/>
    <path id="Path_91674" data-name="Path 91674" d="M-565.646,704.987a2.459,2.459,0,0,0-2.685-2.7q-8.346-.023-16.693,0a2.5,2.5,0,0,0-2.716,2.763q-.013,7.8,0,15.591A2.517,2.517,0,0,0-585,723.382c2.768.006,5.536,0,8.3,0s5.536,0,8.3,0a2.482,2.482,0,0,0,2.747-2.719Q-565.622,712.825-565.646,704.987Zm-18.076.681c1.579.021,3.158.018,4.737,0,.4,0,.614.043.6.533-.031,1.466-.028,2.933,0,4.4.009.464-.161.569-.587.554-.817-.029-1.635-.008-2.453-.008-.789,0-1.58-.024-2.368.009-.45.019-.578-.134-.57-.576.025-1.438.031-2.877,0-4.314C-584.374,705.752-584.172,705.661-583.721,705.667Zm4.745,14.33c-.817-.02-1.636-.006-2.454-.006-.79,0-1.58-.025-2.368.01-.458.02-.568-.147-.561-.581q.037-2.157,0-4.315c-.008-.44.115-.583.565-.577q2.453.036,4.907,0c.436-.007.509.155.5.54-.019,1.467-.03,2.934,0,4.4C-578.367,719.963-578.584,720.007-578.977,720Zm4.56-14.329c.816.025,1.634.007,2.451.007.789,0,1.58.022,2.367-.009.448-.018.583.137.576.578-.023,1.437-.019,2.875,0,4.312,0,.4-.061.609-.545.6-1.634-.029-3.269-.022-4.9,0-.4,0-.54-.118-.534-.526.019-1.465.024-2.931,0-4.4C-575.017,705.77-574.843,705.655-574.417,705.668Zm5.394,13.8c.005.4-.113.536-.524.531-1.634-.021-3.269-.024-4.9,0-.462.007-.564-.16-.558-.587q.034-2.156,0-4.312c-.008-.443.125-.591.57-.574.816.031,1.635.009,2.452.009.789,0,1.579.017,2.367-.007.407-.012.612.05.6.542C-569.052,716.537-569.043,718-569.023,719.469Z" transform="translate(-25.399 -200.609)" fill="#666"/>
    <path id="Path_91675" data-name="Path 91675" d="M-565.641,641.486c-.006-1.57-.571-2.123-2.165-2.126q-4.409-.008-8.818,0c-3,0-5.992,0-8.988,0-1.563,0-2.127.583-2.13,2.168,0,2.2-.008,4.409,0,6.614.006,1.422.644,2.053,2.087,2.054q8.945.008,17.89,0c1.5,0,2.114-.6,2.121-2.1Q-565.626,644.793-565.641,641.486Zm-4.082,5.335c-2.342-.034-4.685-.014-7.027-.014-2.314,0-4.629-.014-6.943.011-.516.006-.692-.133-.669-.663.042-.958.029-1.919,0-2.878-.011-.408.123-.534.529-.533q7.154.017,14.308,0c.45,0,.5.2.5.567-.015.931-.034,1.864.006,2.794C-569,646.648-569.149,646.829-569.723,646.821Z" transform="translate(-25.399 -151.916)" fill="#666"/>
  </g>
</svg>
