<svg xmlns="http://www.w3.org/2000/svg" width="87.717" height="88.753" viewBox="0 0 87.717 88.753">
  <g id="ic_health_care" transform="translate(0.5 1.5)">
    <g id="Group_2791" data-name="Group 2791" transform="translate(5.566 0)">
      <path id="Path_18697" data-name="Path 18697" d="M153.765,733.685l7.511-1.251a2.785,2.785,0,0,0,2.325-2.746v-2.755h.025a9.733,9.733,0,0,1-5.591-8.8v-2.945a8.349,8.349,0,0,1,3.134-6.52l3.177-2.541-.028-.121a7.617,7.617,0,0,1-.717-3.181l.717,3.18a7.666,7.666,0,0,0,6.207,4.47l4.487.448a2.785,2.785,0,0,1,2.506,2.771v4.439a9.734,9.734,0,0,1-5.591,8.8h.025v2.755a2.784,2.784,0,0,0,2.325,2.746l7.511,1.251a8.161,8.161,0,0,1,2.689.955V711.171a16.7,16.7,0,1,0-33.4,0V734.64a8.161,8.161,0,0,1,2.689-.955Z" transform="translate(-151.076 -694.472)" fill="none" stroke="#666" stroke-width="3"/>
    </g>
    <g id="Group_2793" data-name="Group 2793" transform="translate(52.881 54.273)">
      <g id="Group_2792" data-name="Group 2792" transform="translate(0 0)">
        <path id="Path_18698" data-name="Path 18698" d="M434.209,1025.954h-2.783a2.786,2.786,0,0,1-2.783-2.783v-2.783h-2.783a2.786,2.786,0,0,1-2.783-2.783v-2.783a2.786,2.786,0,0,1,2.783-2.783h2.783v-2.783a2.786,2.786,0,0,1,2.783-2.783h2.783a2.786,2.786,0,0,1,2.783,2.783v2.783h2.783a2.786,2.786,0,0,1,2.783,2.783v2.783a2.786,2.786,0,0,1-2.783,2.783h-2.783v2.783A2.786,2.786,0,0,1,434.209,1025.954Z" transform="translate(-423.076 -1006.472)" fill="none" stroke="#666" stroke-width="3"/>
      </g>
    </g>
    <path id="Path_18699" data-name="Path 18699" d="M191.1,739a13.9,13.9,0,0,0-8.009,2.527V732.3a13.673,13.673,0,0,1,4.225-5.5l.848.565a11.334,11.334,0,0,0,16.811-5.22l.7-1.757-2.7-1.8a11,11,0,0,0-15.535,3.494l-1.225,2.042a19.376,19.376,0,0,0-3.133,2.9V712.815a13.91,13.91,0,0,1,4.421-5.661l2.115.705a10.309,10.309,0,0,0,12.481-5.171l.867-1.735-3.408-2.271a8.493,8.493,0,0,0-12.6,3.912l-.846,2.117a19.161,19.161,0,0,0-3.235,3.064,11.705,11.705,0,0,0-2.686-5.608c-.039-.045-.058-.064-.09-.1l-.9-2.256a8.493,8.493,0,0,0-12.6-3.913l-3.408,2.271.867,1.737a10.311,10.311,0,0,0,12.481,5.17l1.879-.626a9.08,9.08,0,0,1,1.874,5.535v9.006c-.113-.132-.207-.239-.274-.313l-1.3-2.167a11,11,0,0,0-15.535-3.492l-2.7,1.8.7,1.756a11.334,11.334,0,0,0,16.811,5.221l.63-.42a19.109,19.109,0,0,1,1.66,2.669v17.49a13.961,13.961,0,0,0-16.7.5v-.249a9.575,9.575,0,0,0-8.027-9.474l-7.511-1.253a1.389,1.389,0,0,1-1.162-1.372v-1.932a11.131,11.131,0,0,0,5.566-9.627V713.69a4.162,4.162,0,0,0-3.759-4.154l-4.487-.448a6.28,6.28,0,0,1-5.671-6.266h-2.783a9.142,9.142,0,0,0,.456,2.863l-2.367,1.894a9.7,9.7,0,0,0-3.656,7.607v2.945a11.132,11.132,0,0,0,5.566,9.627v1.932a1.387,1.387,0,0,1-1.162,1.372l-7.511,1.253a9.575,9.575,0,0,0-8.027,9.474v4.175h2.783v-4.175a6.8,6.8,0,0,1,5.7-6.728l7.511-1.252a4.163,4.163,0,0,0,3.489-4.118V728.9a10.767,10.767,0,0,0,5.566,0v.792a4.161,4.161,0,0,0,3.489,4.118l7.511,1.252a6.8,6.8,0,0,1,5.7,6.728v3.2a15.123,15.123,0,0,0-2.783,8.724v.884a17.26,17.26,0,0,0,.2,2.5h-3.518l-3.741-7.48-3.863,9.014L141.237,739.5l-6.958,26.441-4.435-14.413H119.076v2.783h8.714l6.7,21.77,6.958-26.441,5.248,17.054,4.487-10.469,1.826,3.652h5.888a17.58,17.58,0,0,0,6.162,8.739L181.7,781.1l16.644-12.483a17.616,17.616,0,0,0,7.014-14.027v-.884a15.125,15.125,0,0,0-3.5-9.663A13.968,13.968,0,0,0,191.1,739Zm-1.265-15.493a8.215,8.215,0,0,1,11.6-2.609l.809.539a8.55,8.55,0,0,1-12.538,3.6l-.566-.377Zm-.278-19.882A5.708,5.708,0,0,1,198.022,701l1.351.9a7.53,7.53,0,0,1-8.866,3.322l-1.4-.467Zm-56.564,14.5v-2.945a6.922,6.922,0,0,1,2.612-5.433l1.929-1.544a9.062,9.062,0,0,0,6.42,3.65l4.487.448a1.385,1.385,0,0,1,1.252,1.385v4.438a8.35,8.35,0,0,1-16.7,0Zm42.681-15.693a7.53,7.53,0,0,1-8.866-3.322l1.351-.9a5.709,5.709,0,0,1,8.468,2.632l.449,1.123Zm.8,17.04a8.551,8.551,0,0,1-12.54-3.6l.809-.538a8.218,8.218,0,0,1,11.6,2.608l.693,1.156Zm26.1,35.113a14.823,14.823,0,0,1-5.9,11.8L181.7,777.621l-14.975-11.23a14.823,14.823,0,0,1-5.9-11.8v-.884a12.341,12.341,0,0,1,2.854-7.882,11.222,11.222,0,0,1,16.555-.752l1.465,1.467,1.464-1.465a11.222,11.222,0,0,1,16.556.75,12.341,12.341,0,0,1,2.854,7.882Z" transform="translate(-119.076 -694.472)" fill="#666" stroke="#666" stroke-width="1"/>
  </g>
</svg>
