<svg xmlns="http://www.w3.org/2000/svg" width="86.278" height="86.209" viewBox="0 0 86.278 86.209">
  <g id="ic_insurance" transform="translate(1022.689 -483.256)">
    <path id="Path_91622" data-name="Path 91622" d="M-987.567,627.85a3.491,3.491,0,0,0-3.321-3.588c-.684-.047-.778-.346-.88-.873a29.72,29.72,0,0,1,.1-11.367,9.929,9.929,0,0,0-4.065-10.5,7.713,7.713,0,0,1-1.127-1.087,89.249,89.249,0,0,1-5.579-7.374,5.892,5.892,0,0,0-6.549-2.692,14.163,14.163,0,0,1,1.15-7.895,25.478,25.478,0,0,0,1.151-3.006,8.106,8.106,0,0,0,.51-4.536,4.691,4.691,0,0,0-4.036-3.506,4.54,4.54,0,0,0-5.073,2.253c-1.753,2.88-3.6,5.7-5.375,8.565a12.1,12.1,0,0,0-1.87,6.7q.092,7.6,0,15.2a7.681,7.681,0,0,0,2.048,5.393c1.347,1.535,2.883,2.88,4.3,4.34,2.662,2.738,4.61,5.823,4.927,9.752.041.5-.071.69-.531.872a3.449,3.449,0,0,0-2.315,3.368c-.035,1.746-.031,3.494,0,5.241a3.552,3.552,0,0,0,3.59,3.623q9.7.043,19.391,0a3.527,3.527,0,0,0,3.561-3.637Q-987.54,630.471-987.567,627.85Zm-24.876-15.2c-1.626-1.872-3.532-3.463-5.218-5.276a4.61,4.61,0,0,1-1.293-3.385c.052-5.036.043-10.073.008-15.11a8.339,8.339,0,0,1,1.222-4.563q2.682-4.336,5.4-8.652a1.37,1.37,0,0,1,1.875-.6,1.377,1.377,0,0,1,.757,1.882c-.719,2.115-1.437,4.231-2.209,6.327a13.24,13.24,0,0,0-.831,5.041c.035,1.135.025,2.271.039,3.406a10.177,10.177,0,0,1-.3,3.1,4.711,4.711,0,0,0,.58,3.53,21.061,21.061,0,0,0,2.189,3.25c1.714,2.2,3.434,4.4,4.953,6.751a1.8,1.8,0,0,0,2.067.926,1.775,1.775,0,0,0,.977-2.792,64.123,64.123,0,0,0-3.959-5.53c-.648-.823-1.3-1.639-1.933-2.477a12.07,12.07,0,0,1-.958-1.453,2.04,2.04,0,0,1,.521-2.925,2.047,2.047,0,0,1,2.9.665c1.49,1.972,2.923,3.987,4.411,5.961a19.882,19.882,0,0,0,4.033,4.2,5.273,5.273,0,0,1,2.024,4.689c-.035,1.6-.263,3.189-.421,4.781a33.134,33.134,0,0,0,.346,9.772c-.235.02-.433.051-.631.051-3.668,0-7.337,0-11.005.007-.44,0-.743.022-.777-.6A17.953,17.953,0,0,0-1012.443,612.646Zm21.341,16.007c-.069,1.218-.053,2.444,0,3.664.026.632-.12.838-.8.835q-8.944-.045-17.889-.006c-.547,0-.754-.109-.732-.7.048-1.307.05-2.619,0-3.926-.023-.607.2-.7.739-.7,3,.023,5.992.011,8.988.011,2.938,0,5.876.018,8.813-.013C-991.342,627.808-991.061,627.919-991.1,628.653Z" transform="translate(0 -67.426)" fill="#666" stroke="#656565" stroke-width="0.3"/>
    <path id="Path_91623" data-name="Path 91623" d="M-769.01,587.885a10.024,10.024,0,0,0-1.59-5.27c-1.841-2.893-3.7-5.775-5.437-8.732a4.95,4.95,0,0,0-6.5-2.053,4.935,4.935,0,0,0-2.623,6.206c.5,1.548,1,3.1,1.588,4.609a15.608,15.608,0,0,1,1.229,7.133c-.045.52-.16.647-.654.522a4.922,4.922,0,0,0-5.083,1.728,24.649,24.649,0,0,0-2.327,3.051,34.191,34.191,0,0,1-6.491,7.494,8.141,8.141,0,0,0-3.054,7.261c.111,1.392.276,2.78.435,4.167a30.7,30.7,0,0,1-.231,9.648c-.081.4-.166.569-.628.61a3.558,3.558,0,0,0-3.525,3.855c-.017,1.6-.02,3.2,0,4.805a3.608,3.608,0,0,0,3.906,3.838c3.116.006,6.232,0,9.348,0,3.174,0,6.348.011,9.523,0a3.558,3.558,0,0,0,3.755-3.711c.027-1.747.02-3.495,0-5.242a3.245,3.245,0,0,0-2.137-3.2c-.752-.29-.755-.688-.684-1.3a14.26,14.26,0,0,1,3.341-7.635A51.158,51.158,0,0,1-771.289,610a6.533,6.533,0,0,0,2.261-4.826C-768.725,599.412-768.881,593.648-769.01,587.885Zm-12.579,45.281c-3.029-.025-6.058-.012-9.086-.012-2.941,0-5.883-.027-8.824.02-.715.011-.859-.214-.833-.868.05-1.28.038-2.563,0-3.844-.013-.5.135-.626.628-.624q9.087.025,18.173,0c.512,0,.625.166.615.642-.029,1.339-.039,2.68,0,4.018C-780.891,633.047-781.061,633.169-781.589,633.165Zm9.083-28.88a4.735,4.735,0,0,1-1.653,3.515,56.111,56.111,0,0,0-4.456,4.431,18.058,18.058,0,0,0-5.177,11.249c-.039.557-.167.784-.794.778q-5.458-.05-10.916,0c-.557,0-.706-.13-.594-.68a32.4,32.4,0,0,0-.089-11.8,18.8,18.8,0,0,1-.232-2.081,5.079,5.079,0,0,1,1.805-4.354,45.23,45.23,0,0,0,8.084-9.567,7.44,7.44,0,0,1,1.206-1.487,1.963,1.963,0,0,1,2.347-.214,1.763,1.763,0,0,1,.838,2.167,9.414,9.414,0,0,1-1.826,3.144c-1.476,1.946-3.178,3.714-4.54,5.751a6.786,6.786,0,0,0-.935,1.861,1.723,1.723,0,0,0,.818,2.166,1.717,1.717,0,0,0,2.3-.62c1.924-2.953,4.189-5.653,6.252-8.5a10.73,10.73,0,0,0,1.325-2.346,4.137,4.137,0,0,0,.267-2.9,8.4,8.4,0,0,1-.308-3.529,23.077,23.077,0,0,0-2-11.543,27.909,27.909,0,0,1-.965-2.7,1.446,1.446,0,0,1,.786-1.961,1.4,1.4,0,0,1,1.905.721c1.618,2.826,3.4,5.549,5.185,8.269a8.006,8.006,0,0,1,1.358,4.518c-.006,2.562,0,5.123,0,7.685C-772.5,598.93-772.345,601.606-772.506,604.285Z" transform="translate(-167.688 -67.445)" fill="#666" stroke="#656565" stroke-width="0.3"/>
    <path id="Path_91624" data-name="Path 91624" d="M-899.209,485.209a1.851,1.851,0,0,0-2.037-1.8,2.688,2.688,0,0,0-1.984.924,15.353,15.353,0,0,1-20.66.146c-1.562-1.4-2.14-1.361-3.773.02-5.01,4.236-10.6,5.106-16.694,2.737a14.754,14.754,0,0,1-4.833-3.219,1.81,1.81,0,0,0-2-.475,1.766,1.766,0,0,0-1.187,1.666c-.039.551-.118,1.1-.165,1.65a53.317,53.317,0,0,0,.895,14.593,63.54,63.54,0,0,0,11.831,27.322,33.705,33.705,0,0,0,12.857,10.609,2.794,2.794,0,0,0,2.49.005,32,32,0,0,0,11.72-9.3c9.009-11.179,13.127-24.154,13.9-38.324A48.738,48.738,0,0,0-899.209,485.209Zm-4.229,15.5a62.759,62.759,0,0,1-9.106,23.106,35.6,35.6,0,0,1-11.27,11.253,3.2,3.2,0,0,1-3.771.032,35.221,35.221,0,0,1-11.229-11.049,62.872,62.872,0,0,1-9.725-25.882,50.577,50.577,0,0,1-.524-9.4,20.158,20.158,0,0,0,5.99,2.686,19.048,19.048,0,0,0,16.664-3.353.872.872,0,0,1,1.3-.013,18.913,18.913,0,0,0,21.887.787l.7-.457A51.672,51.672,0,0,1-903.438,500.7Z" transform="translate(-53.559 0)" fill="#666" stroke="#656565" stroke-width="0.3"/>
    <path id="Path_91625" data-name="Path 91625" d="M-855.4,575.381a2.1,2.1,0,0,1-.635,1.39c-2.721,2.708-5.428,5.43-8.157,8.129a1.771,1.771,0,0,1-2.7-.018q-1.938-1.886-3.83-3.819a1.78,1.78,0,0,1-.084-2.636,1.787,1.787,0,0,1,2.635.14c.713.685,1.427,1.371,2.09,2.1.4.439.64.463,1.076.018,2.116-2.16,4.273-4.281,6.409-6.421a1.822,1.822,0,0,1,1.981-.539,1.719,1.719,0,0,1,1.173,1.394C-855.418,575.208-855.409,575.294-855.4,575.381Z" transform="translate(-115.97 -69.2)" fill="#666" stroke="#656565" stroke-width="0.3"/>
  </g>
</svg>
