<svg xmlns="http://www.w3.org/2000/svg" width="86" height="86" viewBox="0 0 86 86">
  <g id="ic_logistic" transform="translate(409.388 -229.603)">
    <path id="Path_91733" data-name="Path 91733" d="M-154.13,229.6a.747.747,0,0,1-1.008,0Z" transform="translate(-197.309)" fill="#666"/>
    <path id="Path_91734" data-name="Path 91734" d="M-26.043,474.943h-.076l-.073.021a.927.927,0,0,1,.15-.86Z" transform="translate(-297.345 -189.742)" fill="#666"/>
    <path id="Path_91735" data-name="Path 91735" d="M-323.388,282.345a15.643,15.643,0,0,0-.431-2.2,9.991,9.991,0,0,0-6.926-6.078.963.963,0,0,1-.826-1.128,29.392,29.392,0,0,0-.023-3.357,34.9,34.9,0,0,0-4.365-14,1.6,1.6,0,0,1-.041-1.641,16.718,16.718,0,0,0,1.6-9.713c-1.026-6.837-4.8-11.46-11.26-13.927a15.407,15.407,0,0,0-3.758-.7h-2.016a1.285,1.285,0,0,1-1.008,0h-.336a17.961,17.961,0,0,0-3.692.621,17.15,17.15,0,0,0-8.632,6.636,1.838,1.838,0,0,1-1.722.92,32.812,32.812,0,0,0-12.522,2.428c-2.149.845-1.405.937-3.218-.472a10.023,10.023,0,0,0-12.872.7,9.849,9.849,0,0,0-1.355,12.729,1.791,1.791,0,0,1,.092,2.193,34.784,34.784,0,0,0-2.708,5.95,36.358,36.358,0,0,0-1.8,8.944c-.045.572-.251.807-.818.778-.446-.023-.9.035-1.342-.011A3.092,3.092,0,0,0-406.8,274.4c.1,5.427.032,10.856.032,16.284,0,3.274-.007,6.547.006,9.821,0,.593-.123,1-.767,1.2a2.494,2.494,0,0,0-1.859,2.141v4.031a2.673,2.673,0,0,0,2.575,2.388,7.715,7.715,0,0,0,.836.024c1.617,0,3.234.006,4.851,0a1.3,1.3,0,0,1,1.257.646,9.129,9.129,0,0,0,7.11,4.671h2.688a6.35,6.35,0,0,1,1.5-.4,9.64,9.64,0,0,0,5.616-4.5,1.064,1.064,0,0,1,1.079-.658q7.177.043,14.354,0a1,1,0,0,1,1.029.6,9.611,9.611,0,0,0,6.563,4.779c.155.034.346-.018.432.18h2.687c.333-.2.708-.052,1.063-.128a9.132,9.132,0,0,0,6.13-4.448,1.333,1.333,0,0,1,1.343-.763c.922.04,1.848.038,2.77,0a2.876,2.876,0,0,0,2.832-2.681c.029-2.539.253-5.1-.637-7.565a1.477,1.477,0,0,1,.482-1.72,38.014,38.014,0,0,0,3.991-4.306c.534-.7.559-.68,1.111.053,1.315,1.743,2.608,3.5,3.938,5.234.579.755.84.755,1.407,0,2.444-3.24,4.9-6.474,7.3-9.747a7,7,0,0,0,1.612-4.324c.04-.283-.089-.583.087-.852Zm-33.272-48.818A13.89,13.89,0,0,1-337.267,246.6a13.914,13.914,0,0,1-2.905,8.4c-3.518,4.528-7.076,9.023-10.618,13.531-.1.127-.216.243-.361.4-2.38-3.029-4.728-6.013-7.07-9-1.414-1.8-2.882-3.572-4.218-5.434A14.064,14.064,0,0,1-356.66,233.528Zm-37.764,10.382a6.94,6.94,0,0,1,7.265-3.057,6.92,6.92,0,0,1,5.4,5.635,6.058,6.058,0,0,1-.89,4.665c-1.892,2.7-3.9,5.315-5.923,8.06-1.911-2.549-3.759-4.973-5.56-7.432A6.892,6.892,0,0,1-394.424,243.91Zm-6.565,62.926c.027.412-.155.448-.482.446-1.534-.01-3.069-.013-4.6,0-.378,0-.522-.094-.548-.508-.142-2.266-.155-2.265,2.109-2.265h.837c.139,0,.279-.007.418,0,.743.047,1.761-.324,2.152.148C-400.736,305.109-401.037,306.092-400.989,306.836Zm16.573-.838a6.947,6.947,0,0,1-7.047,6.816,6.938,6.938,0,0,1-6.827-7.113,6.954,6.954,0,0,1,7.208-6.729A6.963,6.963,0,0,1-384.416,306Zm2.449-4.268a.97.97,0,0,1-.956-.594,9.348,9.348,0,0,0-8.409-4.932,9.327,9.327,0,0,0-8.467,4.966.942.942,0,0,1-.98.557c-.839-.032-1.68-.034-2.518,0-.453.019-.553-.139-.553-.568q.017-13.31,0-26.62c0-.43.106-.574.558-.572,3.331.018,6.662.027,9.993,0,.65-.006.55.363.55.745,0,3.243,0,6.486,0,9.856,2.2-1.1,4.271-2.128,6.328-3.184a1.208,1.208,0,0,1,1.242,0c2.053,1.06,4.128,2.08,6.321,3.178v-.8c0-2.995.015-5.99-.013-8.985-.005-.585.081-.823.758-.814,3.218.041,6.438.03,9.657.006.543,0,.709.133.707.694q-.027,13.184,0,26.368c0,.549-.141.706-.7.7Q-375.207,301.7-381.967,301.73Zm.31-21.673c-1.279-.637-2.431-1.189-3.56-1.785a1.069,1.069,0,0,0-1.142-.013c-1.147.614-2.328,1.165-3.6,1.791,0-1.971,0-3.835,0-5.7,0-.373.229-.375.5-.375,2.431,0,4.862.011,7.292-.007.412,0,.521.134.517.528C-381.667,276.31-381.657,278.123-381.657,280.057Zm13.822,27.1c-.359.379-1.156.118-1.763.119-3.8.01-7.6-.009-11.4.02-.6,0-.817-.157-.675-.741a.369.369,0,0,0,0-.084c.007-.632-.229-1.588.079-1.818.436-.327,1.273-.132,1.938-.136,1.649-.008,3.3,0,4.948,0,2.124,0,4.249.016,6.373-.012.507-.007.741.1.6.636a1.514,1.514,0,0,0-.015.334C-367.757,306.049-367.541,306.843-367.835,307.153Zm9.744,5.664a6.965,6.965,0,0,1-6.92-6.951,6.958,6.958,0,0,1,7.054-6.9,6.958,6.958,0,0,1,6.835,6.948A6.96,6.96,0,0,1-358.091,312.818Zm7.587-12.845a9.452,9.452,0,0,0-13.995-1.326c-.122.108-.249.21-.516.436V287.833c0-1.623.023-3.247-.013-4.869-.012-.526.146-.653.657-.651q6.129.03,12.258.006a1.434,1.434,0,0,1,1.58,1.188c.08.325.156.652.259.971.152.47.018.616-.49.608-1.847-.029-3.694-.016-5.541-.01a2.86,2.86,0,0,0-3.161,3.173c0,.728-.011,1.456,0,2.183a2.815,2.815,0,0,0,3.009,2.984c2.575.011,5.15.014,7.724-.007.491,0,.725.1.85.633.545,2.337,1.133,4.665,1.748,6.986.157.59,0,.666-.559.711A3.716,3.716,0,0,1-350.5,299.973Zm.526-12.109c.411-.007.6.12.683.513a12.821,12.821,0,0,0,.415,1.7c.182.516-.039.548-.449.543-1.144-.015-2.289-.005-3.434-.005-1.117,0-2.234-.02-3.35.01-.436.011-.555-.113-.566-.555-.059-2.2-.074-2.2,2.095-2.2C-353.049,287.875-351.513,287.892-349.978,287.864Zm2.9,19.414c-1.309,0-1.309,0-1.3-1.328.01-1.44.01-1.44,1.43-1.44,1.372,0,1.372,0,1.372,1.4C-345.572,307.278-345.572,307.278-347.074,307.278Zm6.292-15.654a40.115,40.115,0,0,1-3.784,4.215c-.336-1.306-.659-2.529-.965-3.755-.75-3.007-1.489-6.017-2.239-9.024a4.245,4.245,0,0,0-4.528-3.537c-3.919-.007-7.839-.031-11.757.021-.846.011-1.016-.241-.978-1.023.067-1.4.023-2.8.017-4.2a2.764,2.764,0,0,0-3.109-3.092q-14.571-.006-29.142.019c-.84,0-.987-.2-.924-1.014a32.011,32.011,0,0,1,4.136-13.511c.295.045.374.305.514.49,1.532,2.032,3.069,4.061,4.578,6.11.3.408.436.441.754.011,2.466-3.324,4.993-6.6,7.426-9.952a9.377,9.377,0,0,0,1.274-9.144c-.16-.444-.184-.65.322-.869a32.318,32.318,0,0,1,11.869-2.652c.134,0,.268.011.472.021a18.626,18.626,0,0,0-.924,5.632,16.424,16.424,0,0,0,3.51,10.359c4.334,5.56,8.7,11.092,13.127,16.727l12.708-16.166a28.926,28.926,0,0,1,2.313,5.279,32.247,32.247,0,0,1,1.627,10.81.769.769,0,0,1-.717.881,9.628,9.628,0,0,0-5.585,15.319A1.379,1.379,0,0,1-340.783,291.624Zm13.541-4.294c-1.742,2.6-3.71,5.041-5.567,7.561-.263.357-.4.233-.6-.039-1.817-2.446-3.715-4.836-5.442-7.344a6.445,6.445,0,0,1-.338-7.067,6.741,6.741,0,0,1,5.99-3.681,6.775,6.775,0,0,1,6.137,3.572A6.383,6.383,0,0,1-327.241,287.33Z" transform="translate(0)" fill="#666"/>
    <path id="Path_91736" data-name="Path 91736" d="M-259.385,393.444c-1.417,0-1.417,0-1.417-1.438,0-1.31,0-1.31,1.3-1.31,1.506,0,1.506,0,1.506,1.524a.939.939,0,0,0,0,.167c.158.861-.185,1.219-1.055,1.06A1.877,1.877,0,0,0-259.385,393.444Z" transform="translate(-115.309 -125.015)" fill="#666"/>
    <path id="Path_91737" data-name="Path 91737" d="M-209.891,393.444c-1.372,0-1.372,0-1.372-1.4,0-1.344,0-1.344,1.351-1.344,1.453,0,1.453,0,1.453,1.49C-208.459,393.444-208.459,393.444-209.891,393.444Z" transform="translate(-153.753 -125.015)" fill="#666"/>
    <path id="Path_91738" data-name="Path 91738" d="M-234.638,393.444c-1.4,0-1.4,0-1.4-1.379s0-1.37,1.407-1.37,1.4,0,1.4,1.381S-233.23,393.444-234.638,393.444Z" transform="translate(-134.53 -125.015)" fill="#666"/>
    <path id="Path_91739" data-name="Path 91739" d="M-187.624,254.378a11.082,11.082,0,0,0-11.117,11.061,11.064,11.064,0,0,0,11.05,11.118,11.1,11.1,0,0,0,11.134-11.051A11.125,11.125,0,0,0-187.624,254.378Zm-.058,19.426a8.386,8.386,0,0,1-8.309-8.349,8.341,8.341,0,0,1,8.35-8.288,8.283,8.283,0,0,1,8.286,8.327A8.335,8.335,0,0,1-187.681,273.8Z" transform="translate(-163.472 -19.226)" fill="#666"/>
    <path id="Path_91740" data-name="Path 91740" d="M-330.895,291.613a4.159,4.159,0,0,0-4.191,4.118,4.165,4.165,0,0,0,4.138,4.176,4.176,4.176,0,0,0,4.2-4.123A4.161,4.161,0,0,0-330.895,291.613Zm.009,5.529a1.374,1.374,0,0,1-1.4-1.353,1.374,1.374,0,0,1,1.333-1.421,1.389,1.389,0,0,1,1.407,1.352A1.39,1.39,0,0,1-330.886,297.142Z" transform="translate(-57.661 -48.122)" fill="#666"/>
    <path id="Path_91741" data-name="Path 91741" d="M-83.134,452.523a4.207,4.207,0,0,0-4.2,4.133,4.2,4.2,0,0,0,4.126,4.207,4.2,4.2,0,0,0,4.2-4.131A4.2,4.2,0,0,0-83.134,452.523Zm-.047,5.536a1.35,1.35,0,0,1-1.369-1.371,1.354,1.354,0,0,1,1.379-1.363,1.347,1.347,0,0,1,1.365,1.373A1.34,1.34,0,0,1-83.182,458.059Z" transform="translate(-249.925 -172.995)" fill="#666"/>
    <path id="Path_91742" data-name="Path 91742" d="M-194.549,551.648a4.15,4.15,0,0,0-4.183,4.126,4.15,4.15,0,0,0,4.1,4.2,4.148,4.148,0,0,0,4.183-4.122A4.145,4.145,0,0,0-194.549,551.648Zm-.049,5.536a1.394,1.394,0,0,1-1.382-1.383,1.412,1.412,0,0,1,1.4-1.367,1.415,1.415,0,0,1,1.382,1.388A1.393,1.393,0,0,1-194.6,557.185Z" transform="translate(-163.478 -249.92)" fill="#666"/>
    <path id="Path_91743" data-name="Path 91743" d="M-343.233,551.644a4.151,4.151,0,0,0-4.145,4.167,4.15,4.15,0,0,0,4.146,4.16,4.157,4.157,0,0,0,4.148-4.162A4.165,4.165,0,0,0-343.233,551.644Zm-.037,5.533a1.376,1.376,0,0,1-1.351-1.4,1.4,1.4,0,0,1,1.422-1.341,1.406,1.406,0,0,1,1.354,1.412A1.382,1.382,0,0,1-343.27,557.177Z" transform="translate(-48.122 -249.917)" fill="#666"/>
  </g>
</svg>
