<svg xmlns="http://www.w3.org/2000/svg" width="66.675" height="87.215" viewBox="0 0 66.675 87.215">
  <g id="ic_pharmaceuticals" transform="translate(852.74 -424.688)">
    <path id="Path_91626" data-name="Path 91626" d="M-783.257,722.41c-1.292,0-2.585.011-3.877,0-.917-.01-1.442-.5-1.421-1.294a1.246,1.246,0,0,1,1.41-1.229q3.877-.019,7.754,0a1.3,1.3,0,0,1,1.441,1.3,1.286,1.286,0,0,1-1.43,1.221C-780.672,722.421-781.964,722.41-783.257,722.41Z" transform="translate(-49.418 -228.448)" fill="#666" stroke="#666" stroke-width="0.8"/>
    <path id="Path_91627" data-name="Path 91627" d="M-773.229,691.507c-.844,0-1.687.015-2.53,0-.909-.02-1.455-.527-1.44-1.3a1.258,1.258,0,0,1,1.411-1.224q2.614-.02,5.229,0a1.271,1.271,0,0,1,1.412,1.235,1.3,1.3,0,0,1-1.383,1.285C-771.429,691.526-772.329,691.506-773.229,691.507Z" transform="translate(-58.218 -204.498)" fill="#666" stroke="#666" stroke-width="0.8"/>
    <path id="Path_91628" data-name="Path 91628" d="M-773.207,753.329c-.871,0-1.743.019-2.613,0a1.249,1.249,0,0,1-1.379-1.258,1.253,1.253,0,0,1,1.389-1.259q2.655-.036,5.311,0a1.281,1.281,0,0,1,1.349,1.309,1.269,1.269,0,0,1-1.36,1.2C-771.408,753.348-772.308,753.329-773.207,753.329Z" transform="translate(-58.218 -252.406)" fill="#666" stroke="#666" stroke-width="0.8"/>
    <path id="Path_91629" data-name="Path 91629" d="M-761.943,498.526a1.241,1.241,0,0,1-1.279,1.266,1.23,1.23,0,0,1-1.265-1.19,1.27,1.27,0,0,1,1.231-1.329A1.277,1.277,0,0,1-761.943,498.526Z" transform="translate(-68.069 -55.941)" fill="#666" stroke="#666" stroke-width="0.8"/>
    <path id="Path_91630" data-name="Path 91630" d="M-659.024,489.085a1.255,1.255,0,0,1-1.261,1.294,1.306,1.306,0,0,1-1.3-1.28,1.275,1.275,0,0,1,1.24-1.234A1.219,1.219,0,0,1-659.024,489.085Z" transform="translate(-147.818 -48.649)" fill="#666" stroke="#666" stroke-width="0.8"/>
    <path id="Path_91631" data-name="Path 91631" d="M-657.272,425.254c-.128-.031-.288.012-.344-.166h-2.025c-.218.262-.558.221-.838.322a5.705,5.705,0,0,0-3.688,6.45,5.694,5.694,0,0,0,5.954,4.539,5.693,5.693,0,0,0,5.287-5.209A5.69,5.69,0,0,0-657.272,425.254Zm-1.355,8.622a3.1,3.1,0,0,1-3.095-3.116,3.118,3.118,0,0,1,3.165-3.139,3.172,3.172,0,0,1,3.117,3.124A3.15,3.15,0,0,1-658.627,433.876Z" transform="translate(-145.732)" fill="#666" stroke="#666" stroke-width="0.8"/>
    <path id="Path_91632" data-name="Path 91632" d="M-731.011,451.21a5.808,5.808,0,0,0-6.038,5.7,5.866,5.866,0,0,0,5.643,5.955,5.889,5.889,0,0,0,6.054-5.728A5.846,5.846,0,0,0-731.011,451.21Zm-.167,9.132a3.335,3.335,0,0,1-3.344-3.305,3.276,3.276,0,0,1,3.325-3.3,3.309,3.309,0,0,1,3.315,3.323A3.363,3.363,0,0,1-731.178,460.341Z" transform="translate(-89.331 -20.242)" fill="#666" stroke="#666" stroke-width="0.8"/>
    <path id="Path_91633" data-name="Path 91633" d="M-608,499.96a5.788,5.788,0,0,0-5.92,5.728,5.849,5.849,0,0,0,5.741,5.933,5.882,5.882,0,0,0,5.942-5.753A5.837,5.837,0,0,0-608,499.96Zm-.056,9.13a3.31,3.31,0,0,1-3.335-3.3,3.257,3.257,0,0,1,3.311-3.3,3.306,3.306,0,0,1,3.312,3.319A3.351,3.351,0,0,1-608.052,509.089Z" transform="translate(-184.755 -58.022)" fill="#666" stroke="#666" stroke-width="0.8"/>
    <g id="Group_173855" data-name="Group 173855" transform="translate(-852.323 447.683)">
      <path id="Path_91634" data-name="Path 91634" d="M-655.184,740.78c-1.4-.028-2.81,0-4.215,0-1.377,0-2.754-.025-4.131.006a5.027,5.027,0,0,0-4.889,4.745,4.913,4.913,0,0,0,4.435,5.229,63.634,63.634,0,0,0,9.263.005,4.935,4.935,0,0,0,4.486-5.112A5.035,5.035,0,0,0-655.184,740.78Zm-5.806,7.477c-2.31.616-4.156-.121-4.723-1.538a2.486,2.486,0,0,1,2.174-3.4c.813-.046,1.632.014,2.446-.025.45-.022.5.179.492.547-.022.646-.006,1.294-.006,1.94a1.283,1.283,0,0,1,0,.336C-660.814,746.837-660.094,748.018-660.99,748.257Zm6.3-.045a16.181,16.181,0,0,1-3.015.107c-.375.014-.374-.245-.374-.51,0-.672,0-1.345,0-2.017s.016-1.345-.007-2.016c-.012-.366.119-.491.482-.481.84.022,1.682-.024,2.52.025a2.52,2.52,0,0,1,2.314,2.363A2.507,2.507,0,0,1-654.688,748.212Z" transform="translate(709.809 -692.321)" fill="#666" stroke="#666" stroke-width="0.8"/>
      <path id="Path_91635" data-name="Path 91635" d="M-786.466,564.292c0-2.245-1.11-3.345-3.372-3.345q-11.559,0-23.117.006c-.473,0-.809-.013-1.021-.575-1.467-3.879-2.975-7.743-4.479-11.608a2.877,2.877,0,0,1-.19-1.067c0-3.909.011-7.818-.008-11.727a.71.71,0,0,1,.573-.83,2.922,2.922,0,0,0,2.123-2.912c.027-1.209.03-2.419,0-3.628a3.008,3.008,0,0,0-3.168-3.1c-2.081-.013-4.162-.006-6.244,0-.992,0-1.574.458-1.591,1.227-.018.8.59,1.3,1.619,1.3,2,.006,3.994.016,5.99-.007.6-.007.888.19.875.819-.021,1.04-.016,2.081,0,3.121.007.547-.18.827-.781.826q-9.365-.016-18.731,0c-.569,0-.823-.217-.812-.8.019-1.012.034-2.026,0-3.037-.027-.7.243-.944.937-.933,2.052.03,4.106.024,6.159,0a1.247,1.247,0,0,0,1.378-1.268,1.232,1.232,0,0,0-1.378-1.252c-2.194-.012-4.388-.022-6.581,0a3.014,3.014,0,0,0-3.033,3.065c-.02,1.209-.015,2.419,0,3.628a2.938,2.938,0,0,0,2.1,2.928.755.755,0,0,1,.6.884q-.027,5.526,0,11.052a6.156,6.156,0,0,1-.448,2.364c-1.445,3.647-2.852,7.31-4.266,10.97-.381.987-.153,1.662.638,1.959.746.281,1.34-.064,1.714-1.025q2.336-5.992,4.664-11.987a3.231,3.231,0,0,0,.224-1.231c-.015-1.339-.005-2.678-.005-4.095a9.012,9.012,0,0,0,4,.411,32.051,32.051,0,0,0,5.574-1.575,8.529,8.529,0,0,1,4.646-.275c.5.123.744.327.721.908-.05,1.32.013,2.644-.026,3.964A6.282,6.282,0,0,0-820.71,550c1.427,3.624,2.817,7.263,4.243,10.888a.99.99,0,0,1-.171,1.249,2.265,2.265,0,0,0-.572,1.631c0,1.519,0,3.037,0,4.556a2.521,2.521,0,0,0,.952,2.071,1.26,1.26,0,0,1,.471,1.16q-.017,5.526-.005,11.053a9.332,9.332,0,0,0,.517,4.18h-.688q-15.651,0-31.3,0c-2.128,0-2.888-1-2.355-3.085a7.85,7.85,0,0,1,.3-.873q3.008-7.76,6.017-15.52a1.245,1.245,0,0,0-.656-1.812c-.728-.279-1.359.043-1.7.921-2.08,5.325-4.183,10.641-6.209,15.986-1.05,2.772-.392,6.08,3.237,6.852.021,0,.035.042.053.064h56.71c3.03-1.041,3.946-2.342,3.946-5.609q0-6.117,0-12.234a1.093,1.093,0,0,1,.422-1.008,2.742,2.742,0,0,0,1.043-2.291C-786.471,566.879-786.465,565.585-786.466,564.292Zm-34.706-24.724c0,.329.039.6-.475.486-2.55-.583-4.938.11-7.317.944a10.627,10.627,0,0,1-5.08.912c-.056-.008-.112-.009-.168-.017-1.708-.236-1.885-.435-1.885-2.118,0-1.236.044-2.474-.018-3.706-.034-.665.2-.773.8-.763,2.246.036,4.493.014,6.74.014s4.494.014,6.74-.011c.5-.006.693.093.674.638C-821.2,537.151-821.178,538.36-821.173,539.568Zm30.712,44.72c0,1.707-.826,2.494-2.561,2.495q-8.809,0-17.618,0c-1.805,0-2.615-.81-2.618-2.628-.006-4.046.012-8.093-.016-12.139,0-.646.141-.858.826-.85,3.568.036,7.137.017,10.705.017,3.513,0,7.025.012,10.537-.012.566,0,.767.112.763.727C-790.471,576.026-790.449,580.157-790.461,584.287Zm1.478-19.862c-.056,1.122-.053,2.25,0,3.372.032.689-.237.868-.879.863-3.12-.022-6.24-.01-9.36-.01-4.806,0-9.613-.016-14.419.015-.783.005-1.114-.172-1.059-1.022a32.862,32.862,0,0,0,.006-3.371c-.024-.641.212-.81.828-.806,4.019.023,8.039.012,12.058.012,3.963,0,7.926.02,11.889-.017C-789.158,563.454-788.947,563.7-788.983,564.425Z" transform="translate(852.323 -525.495)" fill="#666" stroke="#666" stroke-width="0.8"/>
    </g>
  </g>
</svg>
