<svg xmlns="http://www.w3.org/2000/svg" width="86" height="86" viewBox="0 0 86 86">
  <g id="ic_retail" transform="translate(575.256 -150.74)">
    <path id="Path_91744" data-name="Path 91744" d="M-489.739,208.286c-2.756-13.932-17.995-22.325-31.267-17.235a24.557,24.557,0,0,0-8.455,5.414v-1.147q0-18.639,0-37.278a6.935,6.935,0,0,0-7.287-7.3q-15.611-.008-31.222,0a6.935,6.935,0,0,0-7.281,7.3q-.006,29.476,0,58.952a6.932,6.932,0,0,0,7.234,7.261q15.655.011,31.309.006a5.368,5.368,0,0,0,2.05-.267c.663-.273.906-.064,1.224.516a23.552,23.552,0,0,0,25.907,11.6A23.515,23.515,0,0,0-489.739,208.286Zm-82.6-51.611a4.1,4.1,0,0,1,4.043-3.152q15.943-.016,31.886,0a4.132,4.132,0,0,1,4.069,3.239c.17.665.127.939-.7.934-6.47-.034-12.939-.019-19.409-.019H-571.6C-572.6,157.678-572.6,157.677-572.341,156.675Zm36.878,64.68c-.372.037-.742.125-1.113.126q-15.78.01-31.561,0a4.171,4.171,0,0,1-4.263-3.337c-.132-.579-.113-.846.648-.842,5.838.037,11.676.02,17.514.02,5.751,0,11.5.01,17.254-.013.7,0,1.082.083,1.176.913a12.077,12.077,0,0,0,.691,2.493C-534.975,221.125-535.024,221.311-535.463,221.355Zm-.9-7.53c.02.632-.149.74-.739.739q-17.3-.027-34.6,0c-.66,0-.793-.169-.791-.8q.034-13.131.015-26.262c0-8.725.01-17.451-.018-26.176,0-.712.153-.893.881-.891q19.25.039,38.5,0c.7,0,.9.131.9.872q-.041,18.9-.011,37.79a2.227,2.227,0,0,1-.372,1.285A22.9,22.9,0,0,0-536.367,213.824ZM-512.9,233.97a20.827,20.827,0,0,1-20.724-20.83,20.821,20.821,0,0,1,20.856-20.783,20.823,20.823,0,0,1,20.773,20.78A20.847,20.847,0,0,1-512.9,233.97Z" fill="#666"/>
    <path id="Path_91745" data-name="Path 91745" d="M-314.467,476.127a1.393,1.393,0,0,1-1.34,1.405,1.389,1.389,0,0,1-1.425-1.405,1.386,1.386,0,0,1,1.382-1.361A1.389,1.389,0,0,1-314.467,476.127Z" transform="translate(-198.346 -249.115)" fill="#666"/>
    <path id="Path_91746" data-name="Path 91746" d="M-272.467,476.123a1.394,1.394,0,0,1-1.336,1.41,1.39,1.39,0,0,1-1.43-1.4,1.386,1.386,0,0,1,1.378-1.366A1.389,1.389,0,0,1-272.467,476.123Z" transform="translate(-230.627 -249.115)" fill="#666"/>
    <path id="Path_91747" data-name="Path 91747" d="M-515.282,237.879c-.478-2.371-1.057-4.723-1.653-7.068a2.593,2.593,0,0,0-2.657-2.054q-12.781-.019-25.562,0a2.662,2.662,0,0,0-2.65,2.082c-.565,2.294-1.1,4.595-1.6,6.9a3.751,3.751,0,0,0,1.275,3.744,1.384,1.384,0,0,1,.511,1.174q-.02,9.445-.008,18.889c0,1.416.456,1.874,1.859,1.874q6.715,0,13.43,0,6.672,0,13.344,0c1.471,0,1.882-.418,1.882-1.914q0-9.315-.01-18.63a1.732,1.732,0,0,1,.615-1.484A3.584,3.584,0,0,0-515.282,237.879Zm-15.7-2.194c0-1.212.016-2.424-.009-3.635-.009-.416.119-.547.535-.537,1.067.025,2.137.054,3.2-.009.587-.035.657.262.709.693.247,2.06.513,4.118.748,6.18.167,1.466.149,1.468-1.366,1.468-1.067,0-2.136-.024-3.2.011-.487.016-.642-.127-.627-.622C-530.959,238.051-530.982,236.868-530.982,235.685Zm-8.059,3.628q.492-3.64.9-7.29c.048-.424.2-.515.584-.508,1.1.021,2.192.028,3.287,0,.436-.012.525.147.517.545-.023,1.211-.008,2.422-.008,3.633s-.017,2.423.009,3.633c.009.417-.116.537-.531.531q-2.162-.036-4.325,0C-539.053,239.862-539.1,239.733-539.041,239.313Zm-6.152.527a1.346,1.346,0,0,1-1.436-1.767c.439-2.057.946-4.1,1.4-6.154.075-.338.235-.408.533-.4.549.012,1.1,0,1.647,0,.52,0,1.042.027,1.559-.008.473-.032.653.067.58.6q-.478,3.474-.872,6.959c-.068.591-.247.843-.9.785C-543.513,239.789-544.357,239.861-545.194,239.84Zm17,20.261c.007.481-.166.562-.592.559-2.4-.017-4.791-.021-7.186,0-.476,0-.571-.158-.566-.6.022-1.9.034-3.81-.006-5.714-.012-.572.195-.661.693-.647,1.182.032,2.366.01,3.549.01,1.154,0,2.309.018,3.463-.009.454-.011.655.067.646.594C-528.228,256.234-528.225,258.168-528.2,260.1Zm7.521.566c-1.356-.052-2.716-.048-4.072,0-.593.021-.705-.187-.7-.73.028-2.426.017-4.852.01-7.278,0-1.249-.474-1.713-1.733-1.715q-5.2-.007-10.4,0c-1.235,0-1.732.5-1.736,1.734-.008,2.426-.021,4.853.011,7.279.008.566-.143.727-.71.71-1.414-.042-2.831-.036-4.245,0-.5.012-.619-.15-.618-.633q.025-8.4-.006-16.81c0-.629.29-.607.731-.606q5.892.014,11.784.005c3.9,0,7.8.02,11.7-.019.673-.007.789.188.786.812q-.038,8.232,0,16.464C-519.864,260.538-520.039,260.692-520.675,260.667Zm1.218-20.829c-.576.025-1.153.006-1.729.006-1.672,0-1.652,0-1.838-1.631-.252-2.2-.538-4.4-.82-6.692,1.325,0,2.562.015,3.8-.009.363-.007.491.127.567.457.469,2.046.973,4.085,1.429,6.134A1.372,1.372,0,0,1-519.457,239.838Z" transform="translate(-19.802 -59.973)" fill="#666"/>
    <path id="Path_91748" data-name="Path 91748" d="M-343.054,370.89q-10.488,0-20.975.012c-.538,0-.826-.116-1-.66-.276-.847-.648-1.662-.985-2.488a1.424,1.424,0,0,0-1.36-1.022c-1.242-.01-2.485.006-3.727-.011-.341,0-.416.113-.443.442-.189,2.339-.2,2.339,2.1,2.339a2.548,2.548,0,0,0,.433,0c.549-.1.782.149.987.661q3.418,8.539,6.892,17.056a4.264,4.264,0,0,0,4.563,3.093q3.987,0,7.974,0c2.049,0,2.021,0,2.051-2.042.009-.618-.161-.754-.761-.748-3.149.032-6.3,0-9.447.024a1.628,1.628,0,0,1-1.782-1.4c3.906,0,7.72,0,11.533,0,1.2,0,1.5-.217,1.884-1.359q1.918-5.733,3.826-11.47C-340.716,371.57-341.207,370.89-343.054,370.89Zm-2.486,6.405c-.6,1.8-1.218,3.6-1.792,5.412-.151.478-.333.687-.886.682-3.639-.03-7.279-.018-10.919-.012-.331,0-.588,0-.743-.391-1.222-3.071-2.464-6.134-3.743-9.306h19.272C-344.756,374.913-345.145,376.1-345.54,377.295Z" transform="translate(-156.52 -166.049)" fill="#666"/>
  </g>
</svg>
