<svg xmlns="http://www.w3.org/2000/svg" width="65.053" height="86.6" viewBox="0 0 65.053 86.6">
  <g id="ic_telecommunications" transform="translate(760.229 -429.7)">
    <path id="Path_91597" data-name="Path 91597" d="M-423.822,430a12.962,12.962,0,0,1,3.764,4.52,18.573,18.573,0,0,1-2.783,22.01,2.284,2.284,0,0,1-.936.682,1.681,1.681,0,0,1-1.916-.668,1.638,1.638,0,0,1,.291-2.2,14.665,14.665,0,0,0,3.662-6.12,15,15,0,0,0-3.272-14.832c-.037-.042-.076-.082-.114-.123-1.255-1.357-1.176-2.229.3-3.267Z" transform="translate(-277.834)" fill="#666" stroke="#666" stroke-width="0.6"/>
    <path id="Path_91598" data-name="Path 91598" d="M-752.718,430c1.414,1.113,1.47,1.924.224,3.282a15.175,15.175,0,0,0,.16,20.885,1.879,1.879,0,0,1,.6,2.038,1.562,1.562,0,0,1-1.3,1.056,1.649,1.649,0,0,1-1.521-.516,18.271,18.271,0,0,1-5.3-14.809A18.057,18.057,0,0,1-754.9,430.92a4.075,4.075,0,0,1,1.175-.92Z" transform="translate(0)" fill="#666" stroke="#666" stroke-width="0.6"/>
    <path id="Path_91599" data-name="Path 91599" d="M-463.011,459.708a13.973,13.973,0,0,1-3.976,9.86,1.686,1.686,0,0,1-2.939-.615,1.809,1.809,0,0,1,.594-1.814,10.434,10.434,0,0,0,2.874-8.529,10.308,10.308,0,0,0-2.887-6.182,1.72,1.72,0,0,1-.509-1.97,1.663,1.663,0,0,1,2.82-.477,13.708,13.708,0,0,1,3.766,7.156A18.308,18.308,0,0,1-463.011,459.708Z" transform="translate(-241.237 -16.141)" fill="#666" stroke="#666" stroke-width="0.6"/>
    <path id="Path_91600" data-name="Path 91600" d="M-707.958,459.713a14.057,14.057,0,0,1,3.834-9.6c.878-.939,1.877-1.051,2.641-.313.744.719.688,1.672-.153,2.6a10.58,10.58,0,0,0-.014,14.648c.852.936.915,1.867.173,2.591a1.743,1.743,0,0,1-2.637-.3A14.011,14.011,0,0,1-707.958,459.713Z" transform="translate(-43.241 -16.076)" fill="#666" stroke="#666" stroke-width="0.6"/>
    <path id="Path_91601" data-name="Path 91601" d="M-651.758,468.833a1.563,1.563,0,0,1,1.482.917,1.6,1.6,0,0,1-.309,1.931,6.188,6.188,0,0,0-1.672,3.305,5.892,5.892,0,0,0,1.492,5.033,1.914,1.914,0,0,1,.654,1.645,1.651,1.651,0,0,1-1.2,1.369,1.611,1.611,0,0,1-1.743-.514,9.235,9.235,0,0,1-2.648-7,9.123,9.123,0,0,1,2.625-6.084A1.568,1.568,0,0,1-651.758,468.833Z" transform="translate(-86.709 -32.31)" fill="#666" stroke="#666" stroke-width="0.6"/>
    <path id="Path_91602" data-name="Path 91602" d="M-508.428,476a9.218,9.218,0,0,1-2.5,6.3,1.675,1.675,0,0,1-2.563.3,1.7,1.7,0,0,1,.04-2.524,6,6,0,0,0,.049-8.275c-.8-.941-.838-1.9-.088-2.592a1.765,1.765,0,0,1,2.631.377A9.261,9.261,0,0,1-508.428,476Z" transform="translate(-204.589 -32.254)" fill="#666" stroke="#666" stroke-width="0.6"/>
    <path id="Path_91603" data-name="Path 91603" d="M-678.816,546.433q-12.459-31.066-24.927-62.129c-.205-.511-.145-.724.38-.979a6.615,6.615,0,0,0,3.918-5.819,6.9,6.9,0,0,0-5.4-7.128,6.95,6.95,0,0,0-7.99,4.438,6.827,6.827,0,0,0,3.348,8.411c.76.377.738.676.472,1.337q-12.477,31.061-24.922,62.135c-.555,1.384-.343,2.016.925,2.774H-732a3.361,3.361,0,0,0,1.3-1.745c1.242-3.168,2.535-6.316,3.761-9.49a.97.97,0,0,1,1.1-.709c5.57.019,11.14.013,16.709.01,1.074,0,1.754-.431,1.967-1.22a1.678,1.678,0,0,0-1.778-2.141c-3.443-.011-6.885,0-10.328,0h-.864c.139-.312.406-.355.609-.46q12.863-6.648,25.725-13.3c.633-.329.835-.252,1.091.4,1.642,4.179,3.33,8.34,4.992,12.511.1.248.3.485.186.848-2.5,0-5.008.008-7.52,0a1.689,1.689,0,0,0-1.707.968,1.678,1.678,0,0,0,1.657,2.4c2.743.021,5.486.039,8.228-.016a1.06,1.06,0,0,1,1.188.825c1.237,3.17,2.521,6.322,3.763,9.49a2.928,2.928,0,0,0,1.312,1.639h1.008C-678.291,548.6-678.158,548.074-678.816,546.433Zm-31.027-69.264a3.54,3.54,0,0,1,3.533-3.584,3.581,3.581,0,0,1,3.519,3.533,3.531,3.531,0,0,1-3.51,3.517A3.486,3.486,0,0,1-709.844,477.168Zm3.514,9.71,4.391,10.948h-8.773Zm-5.884,14.69c.08-.2.154-.341.4-.34,2.111,0,4.221,0,6.563,0l-10.669,9.942-.115-.083Q-714.121,506.33-712.213,501.568Zm-12.427,30.987c1.748-4.352,3.4-8.448,5.033-12.549.156-.391.289-.629.8-.628,6.4.023,12.809.016,19.213.018a3.285,3.285,0,0,1,.347.064Zm8.5-16.562,15.643-14.576,5.84,14.576Z" transform="translate(-21.388 -33.473)" fill="#666" stroke="#666" stroke-width="0.6"/>
    <path id="Path_91604" data-name="Path 91604" d="M-548.982,852.587a1.7,1.7,0,0,1-1.709,1.7,1.667,1.667,0,0,1-1.639-1.668,1.647,1.647,0,0,1,1.691-1.689A1.688,1.688,0,0,1-548.982,852.587Z" transform="translate(-172.728 -350.227)" fill="#666" stroke="#666" stroke-width="0.6"/>
  </g>
</svg>
