<svg width="49" height="49" viewBox="0 0 49 49" fill="none" xmlns="http://www.w3.org/2000/svg">
<path d="M31.0445 22.1621H34.4666V25.4325H33.9233V23.6324C33.9233 23.394 33.73 23.2007 33.4916 23.2007H32.0198C31.781 23.2007 31.5878 23.394 31.5878 23.6324V25.4325H31.0445V22.1621ZM33.976 19.2622H36.0441V25.4325H35.33V21.7304C35.33 21.4919 35.1368 21.2986 34.8983 21.2986H33.976V19.2622ZM33.0598 25.4325H32.4515V24.0642H33.0598V25.4325ZM29.833 26.2959H37.2556C37.4941 26.2959 37.6873 26.1027 37.6873 25.8642C37.6873 25.6257 37.4941 25.4325 37.2556 25.4325H36.9076V18.8304C36.9076 18.592 36.7143 18.3987 36.4758 18.3987H33.5443C33.3058 18.3987 33.1126 18.592 33.1126 18.8304V21.2986H30.6127C30.3742 21.2986 30.181 21.4919 30.181 21.7304V25.4325H29.833C29.5945 25.4325 29.4013 25.6257 29.4013 25.8642C29.4013 26.1027 29.5945 26.2959 29.833 26.2959ZM14.8336 20.7591C15.5865 20.7591 16.1989 21.3714 16.1989 22.1243C16.1989 22.8769 15.5865 23.4896 14.8336 23.4896C14.0808 23.4896 13.4684 22.8769 13.4684 22.1243C13.4684 21.3714 14.0808 20.7591 14.8336 20.7591ZM14.8336 24.353C16.0625 24.353 17.0623 23.3531 17.0623 22.1243C17.0623 20.8952 16.0625 19.8956 14.8336 19.8956C13.6048 19.8956 12.6049 20.8952 12.6049 22.1243C12.6049 23.3531 13.6048 24.353 14.8336 24.353ZM11.5255 21.9233C11.963 21.861 12.328 21.58 12.5022 21.1585C12.6767 20.7373 12.6175 20.2807 12.3522 19.9273L12.6366 19.6429C12.9897 19.9082 13.4466 19.9674 13.8681 19.7929C14.2893 19.6184 14.5703 19.2537 14.6326 18.8162H15.0347C15.0969 19.2537 15.378 19.6184 15.7991 19.7929C16.2207 19.9674 16.6772 19.9082 17.0307 19.6429L17.3151 19.9273C17.0497 20.2804 16.9905 20.7373 17.1651 21.1585C17.3392 21.58 17.7043 21.861 18.1418 21.9233V22.325C17.7043 22.3873 17.3392 22.6686 17.1651 23.0898C16.9905 23.511 17.0497 23.9679 17.3151 24.3214L17.0307 24.6054C16.6772 24.3404 16.2207 24.2812 15.7991 24.4554C15.378 24.6299 15.0969 24.995 15.0347 25.4325H14.6326C14.5703 24.9946 14.2893 24.6293 13.8681 24.4547C13.4473 24.2805 12.9901 24.3401 12.6366 24.6054L12.3522 24.3214C12.6175 23.9679 12.6767 23.511 12.5022 23.0898C12.328 22.6686 11.963 22.3873 11.5255 22.325V21.9233ZM11.3394 23.1756C11.5843 23.1756 11.6806 23.363 11.7044 23.4202C11.7282 23.4777 11.7925 23.6784 11.6194 23.8515C11.4914 23.9795 11.421 24.1496 11.421 24.3306C11.421 24.5115 11.4914 24.6816 11.6194 24.8096L12.148 25.3386C12.4124 25.6026 12.8421 25.6026 13.1064 25.3386C13.2799 25.1651 13.4803 25.229 13.5378 25.2529C13.5953 25.2763 13.7821 25.3729 13.7821 25.6186C13.7821 25.9921 14.0862 26.2959 14.4597 26.2959H15.2075C15.5811 26.2959 15.8852 25.9921 15.8852 25.6186C15.8852 25.3736 16.0723 25.277 16.1298 25.2532C16.187 25.2294 16.3877 25.1654 16.5609 25.3386C16.6888 25.4665 16.8589 25.5369 17.0399 25.5369C17.2209 25.5369 17.391 25.4665 17.5189 25.3386L18.0479 24.8096C18.3119 24.5456 18.3119 24.1155 18.0479 23.8515C17.8747 23.6784 17.9387 23.4777 17.9625 23.4202C17.9863 23.363 18.0829 23.1756 18.3279 23.1756C18.7014 23.1756 19.0052 22.8717 19.0052 22.4982V21.7501C19.0052 21.3765 18.7014 21.0727 18.3279 21.0727C18.0829 21.0727 17.9863 20.8856 17.9625 20.8281C17.9387 20.7706 17.8747 20.5699 18.0479 20.3967C18.3119 20.1327 18.3119 19.7031 18.0479 19.4387L17.5189 18.9097C17.391 18.7818 17.2209 18.7114 17.0399 18.7114C16.8589 18.7114 16.6888 18.7818 16.5612 18.9097C16.388 19.0829 16.1873 19.0189 16.1298 18.9951C16.0723 18.9713 15.8852 18.8747 15.8852 18.6301C15.8852 18.2565 15.5811 17.9527 15.2075 17.9527H14.4597C14.0862 17.9527 13.7821 18.2565 13.7821 18.6301C13.7821 18.8747 13.5949 18.9713 13.5374 18.9951C13.48 19.0189 13.2792 19.0829 13.1064 18.9097C12.8421 18.6457 12.4124 18.6457 12.148 18.9097L11.6194 19.4387C11.4914 19.5666 11.421 19.7367 11.421 19.9177C11.421 20.0987 11.4914 20.2688 11.6194 20.3967C11.7925 20.5699 11.7282 20.7706 11.7044 20.8281C11.6806 20.8856 11.584 21.0727 11.3394 21.0727C10.9658 21.0727 10.662 21.3765 10.662 21.7501V22.4982C10.662 22.8717 10.9658 23.1756 11.3394 23.1756ZM25.2201 19.0611C25.2201 19.4346 24.9153 19.7395 24.5418 19.7395C24.1679 19.7395 23.863 19.4346 23.863 19.0611C23.863 18.6872 24.1679 18.3824 24.5418 18.3824C24.9153 18.3824 25.2201 18.6872 25.2201 19.0611ZM20.2174 14.7367C21.3724 13.5817 22.9084 12.9456 24.5418 12.9456C26.1754 12.9456 27.7108 13.5817 28.8661 14.7367C29.0345 14.9051 29.0345 15.1787 28.8661 15.3474C28.7817 15.4314 28.6712 15.4736 28.5606 15.4736C28.45 15.4736 28.3398 15.4314 28.2554 15.3474C27.2634 14.3554 25.9444 13.809 24.5418 13.809C23.1387 13.809 21.8201 14.3554 20.8281 15.3474C20.6593 15.5158 20.3861 15.5158 20.2174 15.3474C20.0487 15.1787 20.0487 14.9051 20.2174 14.7367ZM26.9259 16.6769C27.0943 16.8457 27.0943 17.1189 26.9259 17.2876C26.8415 17.372 26.731 17.4142 26.6204 17.4142C26.5098 17.4142 26.3996 17.372 26.3152 17.2876C25.8417 16.8137 25.2116 16.5528 24.5418 16.5528C23.8719 16.5528 23.2418 16.8137 22.7683 17.2876C22.5995 17.456 22.3263 17.4563 22.1576 17.2876C21.9892 17.1189 21.9892 16.8457 22.1576 16.6769C22.7945 16.0401 23.6412 15.6893 24.5418 15.6893C25.4423 15.6893 26.2891 16.0401 26.9259 16.6769ZM26.1421 29.2632C26.1421 29.5017 25.9488 29.6949 25.7104 29.6949H23.3731C23.1347 29.6949 22.9414 29.5017 22.9414 29.2632C22.9414 29.0247 23.1347 28.8315 23.3731 28.8315H25.7104C25.9488 28.8315 26.1421 29.0247 26.1421 29.2632ZM37.2195 30.9455H11.864C10.9301 30.9455 10.1704 30.1855 10.1704 29.2516V27.5812H38.9131V29.2516C38.9131 30.1855 38.1534 30.9455 37.2195 30.9455ZM28.7283 36.1201H20.3463C20.8196 34.9167 21.122 33.2848 21.1373 31.809H27.8805C27.9081 33.2667 28.2323 34.8994 28.7283 36.1201ZM32.324 37.8456C32.324 38.3209 31.9375 38.7077 31.4622 38.7077H17.6216C17.1464 38.7077 16.7599 38.3209 16.7599 37.8456C16.7599 37.3703 17.1464 36.9835 17.6216 36.9835H31.4622C31.9375 36.9835 32.324 37.3703 32.324 37.8456ZM35.23 13.2381C35.23 12.7275 35.6454 12.3121 36.1561 12.3121C36.6667 12.3121 37.0824 12.7275 37.0824 13.2381C37.0824 13.7488 36.6667 14.1645 36.1561 14.1645C35.6454 14.1645 35.23 13.7488 35.23 13.2381ZM12.9275 14.1645C12.4168 14.1645 12.0014 13.7488 12.0014 13.2381C12.0014 12.7275 12.4168 12.3121 12.9275 12.3121C13.4381 12.3121 13.8535 12.7275 13.8535 13.2381C13.8535 13.7488 13.4381 14.1645 12.9275 14.1645ZM11.864 10.5631H20.3201C18.8328 11.7331 17.8411 13.5059 17.7155 15.5097H15.1891L14.3192 14.3612C14.5676 14.0539 14.7169 13.6634 14.7169 13.2381C14.7169 12.2515 13.9141 11.4486 12.9275 11.4486C11.9405 11.4486 11.1376 12.2515 11.1376 13.2381C11.1376 14.2251 11.9405 15.028 12.9275 15.028C13.1772 15.028 13.4153 14.9762 13.6313 14.8834L14.6302 16.2023C14.7118 16.3099 14.8394 16.3731 14.9745 16.3731H17.7155C17.939 19.9446 20.9152 22.7816 24.5418 22.7816C28.1684 22.7816 31.1445 19.9446 31.368 16.3731H34.106C34.241 16.3731 34.3686 16.3102 34.4499 16.2023L35.4508 14.8827C35.6675 14.9759 35.9057 15.028 36.1561 15.028C37.143 15.028 37.9459 14.2251 37.9459 13.2381C37.9459 12.2515 37.143 11.4486 36.1561 11.4486C35.1695 11.4486 34.3666 12.2515 34.3666 13.2381C34.3666 13.6627 34.5156 14.0533 34.7632 14.3605L33.8916 15.5097H31.368C31.2425 13.5059 30.2508 11.7331 28.7634 10.5631H37.7836C38.4065 10.5631 38.9131 11.07 38.9131 11.6929V26.7174H10.1704V12.257C10.1704 11.3231 10.9301 10.5631 11.864 10.5631ZM30.5185 15.9414C30.5185 19.237 27.8373 21.9181 24.5418 21.9181C21.2462 21.9181 18.565 19.237 18.565 15.9414C18.565 12.6458 21.2462 9.96501 24.5418 9.96501C27.8373 9.96501 30.5185 12.6458 30.5185 15.9414ZM37.7836 9.69965H27.3382C26.484 9.31555 25.5375 9.10156 24.5418 9.10156C23.546 9.10156 22.5995 9.31555 21.7453 9.69965H11.864C10.4538 9.69965 9.30664 10.8468 9.30664 12.257V29.2516C9.30664 30.6618 10.4538 31.809 11.864 31.809H20.2742C20.2572 33.462 19.8558 35.1341 19.4084 36.1201H17.6216C16.6704 36.1201 15.8961 36.8944 15.8961 37.8456C15.8961 38.7971 16.6704 39.5711 17.6216 39.5711H31.4622C32.4134 39.5711 33.1878 38.7971 33.1878 37.8456C33.1878 36.8944 32.4134 36.1201 31.4622 36.1201H29.671C29.2026 35.1165 28.7756 33.4382 28.744 31.809H37.2195C38.6294 31.809 39.7765 30.6618 39.7765 29.2516V11.6929C39.7765 10.5937 38.8825 9.69965 37.7836 9.69965Z" fill="black"/>
</svg>
