<svg width="48" height="48" viewBox="0 0 48 48" fill="none" xmlns="http://www.w3.org/2000/svg">
<path d="M40.0008 47.1998C41.7681 47.1998 43.2008 45.7671 43.2008 43.9998C43.2008 42.2325 41.7681 40.7998 40.0008 40.7998C38.2335 40.7998 36.8008 42.2325 36.8008 43.9998C36.8008 45.7671 38.2335 47.1998 40.0008 47.1998Z" fill="white"/>
<path d="M39.9988 40.7998C39.5871 40.8015 39.1796 40.883 38.7988 41.0398C40.0076 41.5266 40.7994 42.6991 40.7994 44.0022C40.7994 45.3054 40.0076 46.4778 38.7988 46.9646C39.996 47.4508 41.368 47.1694 42.2771 46.2511C43.1861 45.3329 43.4537 43.958 42.9555 42.7659C42.4573 41.5737 41.2909 40.7981 39.9988 40.7998Z" fill="#005eb8"/>
<path d="M22.3992 47.1998C24.1665 47.1998 25.5992 45.7671 25.5992 43.9998C25.5992 42.2325 24.1665 40.7998 22.3992 40.7998C20.6319 40.7998 19.1992 42.2325 19.1992 43.9998C19.1992 45.7671 20.6319 47.1998 22.3992 47.1998Z" fill="white"/>
<path d="M22.4012 40.7998C21.9894 40.8015 21.5819 40.883 21.2012 41.0398C22.41 41.5266 23.2018 42.6991 23.2018 44.0022C23.2018 45.3054 22.41 46.4778 21.2012 46.9646C22.3983 47.4508 23.7704 47.1694 24.6794 46.2511C25.5885 45.3329 25.8561 43.958 25.3578 42.7659C24.8596 41.5737 23.6933 40.7981 22.4012 40.7998Z" fill="#005eb8"/>
<path d="M47.2 15.9992V31.9992C47.2 34.2083 45.4092 35.9992 43.2 35.9992H13.656L10.416 15.1992H46.4C46.8418 15.1992 47.2 15.5574 47.2 15.9992Z" fill="#005eb8"/>
<path d="M46.4008 15.1992H44.0008C44.4426 15.1992 44.8008 15.5574 44.8008 15.9992V31.9992C44.8008 34.2083 43.0099 35.9992 40.8008 35.9992H43.2008C45.4099 35.9992 47.2008 34.2083 47.2008 31.9992V15.9992C47.2008 15.787 47.1165 15.5836 46.9665 15.4335C46.8164 15.2835 46.613 15.1992 46.4008 15.1992Z" fill="#005eb8"/>
<path d="M31.3672 0.815805C30.7436 0.891178 30.223 1.3271 30.0392 1.9278L25.9352 15.1998H19.1992V0.799805C28.2792 0.799805 31.1672 0.815805 31.3672 0.815805Z" fill="white"/>
<path d="M19.1992 0.799805C26.3848 0.799805 28.7864 0.815005 28.9672 0.815005C28.3436 0.890378 27.823 1.3263 27.6392 1.927L23.5352 15.1998H25.9352L30.0392 1.9278C30.223 1.3271 30.7436 0.891178 31.3672 0.815805C31.1672 0.815805 28.2792 0.799805 19.1992 0.799805Z" fill="white"/>
<path d="M19.2 0.799805V15.1998H16V2.3998C16.0026 1.51724 16.7174 0.802441 17.6 0.799805H19.2Z" fill="white"/>
<path d="M28.1604 7.99981H22.4004V4.7998H28.8004V5.93581L28.1604 7.99981Z" fill="white"/>
<path d="M45.5593 5.89575L42.6793 15.1997H29.2793L33.5753 1.34375L45.0393 4.89575C45.2414 4.95862 45.41 5.09962 45.5076 5.2874C45.6053 5.47518 45.6239 5.69419 45.5593 5.89575Z" fill="white"/>
<path d="M45.0396 4.89575L33.5756 1.34375L33.3652 2.02215L42.6396 4.89575C42.8417 4.95862 43.0104 5.09962 43.108 5.2874C43.2056 5.47518 43.2242 5.69419 43.1596 5.89575L40.2796 15.1997H42.6796L45.5596 5.89575C45.6242 5.69419 45.6056 5.47518 45.508 5.2874C45.4104 5.09962 45.2417 4.95862 45.0396 4.89575Z" fill="white"/>
<path d="M33.5756 1.34358L29.2796 15.1996H25.9355L30.0396 1.92758C30.2233 1.32688 30.7439 0.890955 31.3676 0.815581C31.5955 0.782476 31.8281 0.801625 32.0476 0.871581L33.5756 1.34358Z" fill="white"/>
<path d="M35.4414 6.11523L41.5534 8.00964L40.6062 11.0656L34.4942 9.17124L35.4414 6.11523Z" fill="white"/>
<path d="M46.4 14.4H43.7672L46.32 6.14C46.4499 5.73583 46.4131 5.29654 46.2179 4.91957C46.0226 4.54261 45.685 4.25912 45.28 4.132L32.2872 0.108C31.9472 0.00314029 31.588 -0.024196 31.236 0.028C31.076 0.0176 30.916 0.0112 30.7352 0.0104L28.508 0.008C26.4 0.004 22.96 0 17.6 0C16.2745 0 15.2 1.07452 15.2 2.4V14.4H11.1024L9.9024 6.7088C9.66714 5.14782 8.3234 3.99507 6.7448 4H0.8C0.358172 4 0 4.35817 0 4.8C0 5.24183 0.358172 5.6 0.8 5.6H6.7448C7.53474 5.59642 8.20759 6.17319 8.3248 6.9544L12.9776 36.8608C13.3908 39.5947 15.7463 41.612 18.5112 41.6H19.2208C18.6914 42.2883 18.4029 43.1316 18.4 44C18.4 46.2091 20.1909 48 22.4 48C24.6091 48 26.4 46.2091 26.4 44C26.3971 43.1316 26.1086 42.2883 25.5792 41.6H36.8208C36.2914 42.2883 36.0029 43.1316 36 44C36 46.2091 37.7909 48 40 48C42.2091 48 44 46.2091 44 44C43.9971 43.1316 43.7086 42.2883 43.1792 41.6H47.2C47.6418 41.6 48 41.2418 48 40.8C48 40.3582 47.6418 40 47.2 40H18.5112C16.611 40.0058 14.9732 38.6642 14.6048 36.8H43.2C45.8499 36.7974 47.9974 34.6499 48 32V16C48 15.1163 47.2837 14.4 46.4 14.4ZM24.8 44C24.8 45.3255 23.7255 46.4 22.4 46.4C21.0745 46.4 20 45.3255 20 44C20 42.6745 21.0745 41.6 22.4 41.6C23.7255 41.6 24.8 42.6745 24.8 44ZM42.4 44C42.4 45.3255 41.3255 46.4 40 46.4C38.6745 46.4 37.6 45.3255 37.6 44C37.6 42.6745 38.6745 41.6 40 41.6C41.3255 41.6 42.4 42.6745 42.4 44ZM42.092 14.4H30.368L34.1048 2.3464L44.8 5.6592L42.092 14.4ZM32.5768 1.8728L28.6928 14.4H27.0224L30.8064 2.1656C30.869 1.96124 31.0107 1.79041 31.2 1.6912C31.3889 1.59034 31.6106 1.57042 31.8144 1.636L32.5768 1.8728ZM27.572 7.2H23.2V5.6H28V5.8152L27.572 7.2ZM29.3128 1.6096C29.3032 1.6376 29.2872 1.6632 29.2784 1.6896L28.564 4H22.4C21.9582 4 21.6 4.35817 21.6 4.8V8C21.6 8.44183 21.9582 8.8 22.4 8.8H27.08L25.348 14.4H20V1.6C24.6336 1.6 27.5848 1.6056 29.3128 1.6096ZM16.8 2.4C16.8 1.95817 17.1582 1.6 17.6 1.6H18.4V14.4H16.8V2.4ZM46.4 32C46.4 33.7673 44.9673 35.2 43.2 35.2H14.3384L11.352 16H46.4V32Z" fill="#00112C"/>
<path d="M33.737 8.93351C33.6068 9.3552 33.8427 9.80265 34.2642 9.93351L40.3786 11.8279C40.4563 11.8519 40.5372 11.864 40.6186 11.8639C40.9683 11.8643 41.2777 11.6375 41.3826 11.3039L42.329 8.24791C42.4597 7.82597 42.2237 7.37796 41.8018 7.24711L35.6842 5.34951C35.2622 5.21881 34.8142 5.45482 34.6834 5.87671L33.737 8.93351ZM35.977 7.11431L40.5594 8.53431L40.0858 10.0631L35.5018 8.63991L35.977 7.11431Z" fill="#00112C"/>
<path d="M38.4004 20.7996V18.3996C38.4004 17.9578 38.0422 17.5996 37.6004 17.5996C37.1586 17.5996 36.8004 17.9578 36.8004 18.3996V20.7996H30.4004V18.3996C30.4004 17.9578 30.0422 17.5996 29.6004 17.5996C29.1586 17.5996 28.8004 17.9578 28.8004 18.3996V20.7996H22.4004V18.3996C22.4004 17.9578 22.0422 17.5996 21.6004 17.5996C21.1586 17.5996 20.8004 17.9578 20.8004 18.3996V20.7996H15.2004C14.7586 20.7996 14.4004 21.1578 14.4004 21.5996C14.4004 22.0414 14.7586 22.3996 15.2004 22.3996H20.8004V28.7996H16.8004C16.3586 28.7996 16.0004 29.1578 16.0004 29.5996C16.0004 30.0414 16.3586 30.3996 16.8004 30.3996H20.8004V32.7996C20.8004 33.2414 21.1586 33.5996 21.6004 33.5996C22.0422 33.5996 22.4004 33.2414 22.4004 32.7996V30.3996H28.8004V32.7996C28.8004 33.2414 29.1586 33.5996 29.6004 33.5996C30.0422 33.5996 30.4004 33.2414 30.4004 32.7996V30.3996H36.8004V32.7996C36.8004 33.2414 37.1586 33.5996 37.6004 33.5996C38.0422 33.5996 38.4004 33.2414 38.4004 32.7996V30.3996H43.2004C43.6422 30.3996 44.0004 30.0414 44.0004 29.5996C44.0004 29.1578 43.6422 28.7996 43.2004 28.7996H38.4004V22.3996H43.2004C43.6422 22.3996 44.0004 22.0414 44.0004 21.5996C44.0004 21.1578 43.6422 20.7996 43.2004 20.7996H38.4004ZM22.4004 28.7996V22.3996H28.8004V28.7996H22.4004ZM36.8004 28.7996H30.4004V22.3996H36.8004V28.7996Z" fill="#00112C"/>
</svg>
