<svg width="49" height="49" viewBox="0 0 49 49" fill="none" xmlns="http://www.w3.org/2000/svg">
<g clip-path="url(#clip0_164_83)">
<path d="M42.2861 38.4735H41.6374C42.0446 38.1881 42.3119 37.7162 42.3119 37.1822V12.8192C42.3119 11.9495 41.6044 11.2422 40.7347 11.2422H13.4461C12.5781 11.2422 11.8719 11.9495 11.8719 12.8192V27.0622H7.97747C7.94601 27.0622 7.89342 27.0856 7.87591 27.103L6.81158 28.1671C6.78269 28.1943 6.76611 28.249 6.76611 28.2706V31.5618L5.8335 32.3563C5.81248 32.3742 5.78314 32.4252 5.78327 32.4657C5.78496 32.967 5.78447 38.4443 5.78439 38.4735H5.71463C5.63567 38.4735 5.57178 38.5374 5.57178 38.6163C5.57178 38.6953 5.63567 38.7592 5.71463 38.7592C18.9491 38.7592 30.1136 38.7592 40.7347 38.7592H42.2861C42.365 38.7592 42.4289 38.6953 42.4289 38.6163C42.4289 38.5374 42.365 38.4735 42.2861 38.4735ZM13.4461 11.5279H40.7347C41.4468 11.5279 42.0262 12.1071 42.0262 12.8192V14.1833H12.1576V12.8192C12.1576 12.1071 12.7356 11.5279 13.4461 11.5279ZM8.12033 27.3479H14.2517V33.2212L11.7185 35.3461C11.6894 35.3215 11.3312 35.0192 11.3603 35.0438C10.9689 34.7184 10.3664 34.689 9.94189 35.0472C9.91275 35.0717 9.55752 35.3708 9.58667 35.3463L7.05183 33.2209V28.4138H7.97691C7.99681 28.4138 8.01569 28.4096 8.03289 28.4023C8.08428 28.3807 8.12033 28.3299 8.12033 28.2706V27.3479ZM11.9405 35.5329C12.2774 35.2505 10.7201 36.5561 15.2351 32.7707V38.309C15.199 38.2786 11.9867 35.5719 11.9405 35.5329ZM14.5375 32.9822V31.9372L15.156 32.4641C15.1273 32.4881 14.4976 33.0156 14.5375 32.9822ZM6.0701 38.309V32.7723L9.36398 35.5336C9.32015 35.5705 6.34072 38.081 6.0701 38.309ZM7.83405 28.1278H7.25495L7.83405 27.5488V28.1278ZM6.76611 32.9813L6.14851 32.4635L6.76611 31.9373V32.9813ZM6.31866 38.4735C6.28578 38.4989 10.0937 35.2937 10.1266 35.2659C10.4429 35.0002 10.8929 35.0246 11.1777 35.2639C11.2805 35.351 13.663 37.3582 14.9866 38.4735C11.8371 38.4735 9.56822 38.4735 6.31866 38.4735ZM15.5209 38.4735V32.4643C15.5209 32.4293 15.4946 32.3771 15.4702 32.3563L14.5375 31.5617V27.2051C14.5375 27.1261 14.4736 27.0622 14.3946 27.0622H12.1576V14.469H42.0262V37.1822C42.0262 37.8943 41.4468 38.4735 40.7347 38.4735H15.5209Z" fill="black"/>
<path d="M14.8627 13.5167C15.2259 13.5167 15.5212 13.2213 15.5212 12.858C15.5212 12.4969 15.2259 12.2031 14.8627 12.2031C14.4996 12.2031 14.2041 12.4969 14.2041 12.858C14.2041 13.2213 14.4996 13.5167 14.8627 13.5167ZM14.8627 12.4888C15.0682 12.4888 15.2355 12.6543 15.2355 12.858C15.2355 13.0636 15.0682 13.231 14.8627 13.231C14.6571 13.231 14.4898 13.0636 14.4898 12.858C14.4898 12.6543 14.6571 12.4888 14.8627 12.4888Z" fill="black"/>
<path d="M16.9838 13.5167C17.347 13.5167 17.6424 13.2213 17.6424 12.858C17.6424 12.4969 17.347 12.2031 16.9838 12.2031C16.6207 12.2031 16.3252 12.4969 16.3252 12.858C16.3252 13.2213 16.6207 13.5167 16.9838 13.5167ZM16.9838 12.4888C17.1895 12.4888 17.3567 12.6543 17.3567 12.858C17.3567 13.0636 17.1895 13.231 16.9838 13.231C16.7782 13.231 16.6109 13.0636 16.6109 12.858C16.6109 12.6543 16.7782 12.4888 16.9838 12.4888Z" fill="black"/>
<path d="M19.1047 13.5167C19.4678 13.5167 19.7633 13.2213 19.7633 12.858C19.7633 12.4969 19.4678 12.2031 19.1047 12.2031C18.7415 12.2031 18.446 12.4969 18.446 12.858C18.446 13.2213 18.7415 13.5167 19.1047 13.5167ZM19.1047 12.4888C19.3103 12.4888 19.4776 12.6543 19.4776 12.858C19.4776 13.0636 19.3103 13.231 19.1047 13.231C18.899 13.231 18.7318 13.0636 18.7318 12.858C18.7318 12.6543 18.899 12.4888 19.1047 12.4888Z" fill="black"/>
<path d="M30.8077 13.0045H39.6422C39.7212 13.0045 39.7851 12.9406 39.7851 12.8616C39.7851 12.7826 39.7212 12.7188 39.6422 12.7188H30.8077C30.7287 12.7188 30.6648 12.7826 30.6648 12.8616C30.6648 12.9406 30.7287 13.0045 30.8077 13.0045Z" fill="black"/>
<path d="M27.3753 13.0045H29.0169C29.0958 13.0045 29.1597 12.9406 29.1597 12.8616C29.1597 12.7826 29.0958 12.7188 29.0169 12.7188H27.3753C27.2963 12.7188 27.2324 12.7826 27.2324 12.8616C27.2324 12.9406 27.2963 13.0045 27.3753 13.0045Z" fill="black"/>
<path d="M13.9835 15.4403C13.9277 15.3845 13.8373 15.3845 13.7815 15.4403L12.8917 16.3298C12.8359 16.3856 12.8359 16.476 12.8917 16.5318C12.9475 16.5876 13.0379 16.5876 13.0937 16.5318L13.9835 15.6423C14.0393 15.5865 14.0393 15.4961 13.9835 15.4403Z" fill="black"/>
<path d="M14.0709 16.034L13.4925 16.6124C13.4367 16.6682 13.4367 16.7586 13.4925 16.8145C13.5483 16.8703 13.6387 16.8703 13.6945 16.8145L14.2729 16.236C14.3288 16.1802 14.3288 16.0898 14.2729 16.034C14.2171 15.9782 14.1267 15.9782 14.0709 16.034Z" fill="black"/>
<path d="M34.5892 27.964C34.5218 27.5386 34.3484 27.1485 34.0747 26.8108V25.4646C34.0747 22.3169 32.3627 19.4306 29.6037 17.9094C29.5357 17.4401 29.2257 17.0326 28.7889 16.8616C27.7255 16.4453 26.6005 16.2344 25.4454 16.2344C24.2933 16.2344 23.17 16.4448 22.1065 16.8594C21.669 17.03 21.3585 17.437 21.2901 17.9084C18.5284 19.4302 16.8147 22.3174 16.8147 25.4646V26.8101C16.551 27.1385 16.3716 27.5277 16.3021 27.9639C15.5129 28.0212 14.8862 28.6745 14.8862 29.4782V30.0834C14.8862 30.8971 15.5285 31.558 16.3319 31.6005C16.5503 32.5588 17.3401 33.3262 18.3406 33.4763C18.6083 33.5172 18.8487 33.3066 18.8487 33.0371V26.3797C18.8487 26.2458 18.7894 26.12 18.6862 26.0346C18.5864 25.9523 18.4565 25.9177 18.3348 25.9422C18.3241 25.9438 18.3139 25.9478 18.3032 25.9494V25.4646C18.3032 22.8948 19.6899 20.5248 21.9256 19.2556C22.2808 19.4722 22.7007 19.5126 23.0902 19.3613C24.5941 18.7785 26.2996 18.7787 27.8029 19.3627C28.1834 19.511 28.5983 19.482 28.9688 19.2554C31.2031 20.5279 32.5889 22.8982 32.5889 25.4646V25.9502C32.578 25.9485 32.5674 25.9444 32.5564 25.9428C32.2915 25.8918 32.0423 26.1015 32.0423 26.3772V33.0402C32.0423 33.3103 32.2842 33.5176 32.5472 33.4768C32.6907 33.4554 32.8297 33.4207 32.9636 33.3752C32.8534 34.6933 31.7486 35.7333 30.406 35.7333H26.2317C26.164 35.349 25.8296 35.0555 25.4261 35.0555C24.974 35.0555 24.6062 35.4233 24.6062 35.8753C24.6062 36.3276 24.974 36.6953 25.4261 36.6953C25.8291 36.6953 26.1632 36.4027 26.2315 36.019H30.406C31.9466 36.019 33.2047 34.7867 33.2557 33.252C33.9104 32.9277 34.3954 32.3185 34.5592 31.6004C35.3621 31.5576 36.004 30.8969 36.004 30.0834V29.4782C36.004 28.6749 35.3779 28.0218 34.5892 27.964ZM25.4261 36.4096C25.1316 36.4096 24.8919 36.1699 24.8919 35.8753C24.8919 35.5809 25.1316 35.3412 25.4261 35.3412C25.7206 35.3412 25.9603 35.5809 25.9603 35.8753C25.9603 36.1699 25.7206 36.4096 25.4261 36.4096ZM16.2688 31.3147C15.6523 31.2436 15.1719 30.7185 15.1719 30.0834V29.4782C15.1719 28.8429 15.6523 28.3178 16.2688 28.2467V31.3147ZM18.3857 26.2232C18.395 26.2215 18.4038 26.2207 18.4123 26.2207C18.4912 26.2207 18.563 26.2908 18.563 26.3797V33.0371C18.563 33.1306 18.4804 33.2082 18.3832 33.1939C17.341 33.0374 16.5552 32.1233 16.5552 31.0672V28.3457C16.5552 27.9395 16.67 27.5438 16.8887 27.1989C17.195 26.6955 17.7424 26.3146 18.3857 26.2232ZM18.0175 25.4646V26.0143C17.6802 26.1116 17.3674 26.2867 17.1004 26.5212V25.4646C17.1004 22.4772 18.699 19.7347 21.2838 18.243C21.3162 18.5573 21.4586 18.848 21.6835 19.0677C19.4184 20.4012 18.0175 22.8315 18.0175 25.4646ZM27.9065 19.0965C26.338 18.4869 24.5748 18.4797 22.987 19.0951C22.2905 19.3648 21.561 18.834 21.561 18.1018C21.561 17.6694 21.8219 17.2771 22.2103 17.1256C23.2406 16.7238 24.329 16.5201 25.4454 16.5201C26.5648 16.5201 27.6546 16.7246 28.6848 17.1278C29.0723 17.2793 29.3327 17.6716 29.3327 18.1035V18.106C29.3327 18.8332 28.6031 19.3675 27.9065 19.0965ZM29.2114 19.0679C29.4357 18.8483 29.5776 18.5579 29.6099 18.2439C32.1921 19.7348 33.789 22.477 33.789 25.4646V26.5225C33.5223 26.2879 33.2102 26.1126 32.8747 26.0152V25.4646C32.8747 22.835 31.4747 20.4048 29.2114 19.0679ZM32.505 33.1945C32.4075 33.2068 32.3281 33.1317 32.3281 33.0402V26.3772C32.3281 26.3295 32.3491 26.2849 32.3861 26.2545C32.402 26.2411 32.4323 26.2218 32.4789 26.2218C32.4895 26.2218 32.5009 26.2229 32.5133 26.2252C33.5424 26.3705 34.3359 27.2764 34.3359 28.3457V31.0672C34.3359 32.1236 33.5488 33.0382 32.505 33.1945ZM35.7183 30.0834C35.7183 30.7185 35.2381 31.2436 34.6216 31.3147V31.0672C34.6216 30.9478 34.6216 28.204 34.6216 28.2467C35.2381 28.3178 35.7183 28.8429 35.7183 29.4782V30.0834Z" fill="black"/>
<path d="M25.478 30.3764C26.6363 30.3563 27.5651 29.3982 27.5485 28.24C27.5302 27.0935 26.5891 26.1719 25.4436 26.1719C25.4335 26.1719 25.4234 26.1722 25.4133 26.1722C24.2541 26.1906 23.326 27.1468 23.3443 28.3039C23.3608 29.4556 24.3002 30.3767 25.4439 30.3767C25.4553 30.3767 25.4666 30.3797 25.478 30.3764ZM23.63 28.2997C23.6141 27.2996 24.4166 26.4735 25.4175 26.4579C25.4263 26.4579 25.4351 26.4576 25.4437 26.4576C26.4335 26.4576 27.247 27.2539 27.2628 28.2441C27.2772 29.245 26.4743 30.0734 25.473 30.0907C25.4634 30.091 25.4538 30.091 25.444 30.091C24.4568 30.091 23.6443 29.2956 23.63 28.2997Z" fill="black"/>
<path d="M25.1489 33.1807C25.1521 33.1807 25.1553 33.1807 25.1585 33.1807L25.8823 33.1704C26.1703 33.1662 26.4251 32.9692 26.5023 32.6919L26.6887 32.022C26.92 31.9475 27.1465 31.8498 27.3639 31.7309L27.9795 32.0552C28.235 32.1894 28.5536 32.1389 28.7544 31.9313L29.259 31.4087C29.459 31.2016 29.4994 30.8825 29.3573 30.6322L29.015 30.0289C29.1026 29.8529 29.1783 29.671 29.2408 29.4879C29.2563 29.4422 29.2714 29.3953 29.2851 29.3481L29.9495 29.1405C30.2235 29.0552 30.4122 28.7948 30.4081 28.5072L30.3975 27.7837C30.3935 27.496 30.1968 27.241 29.9193 27.1637L29.2487 26.9773C29.2307 26.9224 29.212 26.8688 29.1927 26.8138C29.127 26.6378 29.0478 26.4648 28.9567 26.2987L29.2799 25.6863C29.4141 25.4321 29.3639 25.1143 29.158 24.9134L28.6394 24.4081C28.4325 24.2067 28.1129 24.1657 27.8611 24.308L27.2491 24.6551L26.5743 24.3883L26.3671 23.7184C26.2819 23.4427 26.0101 23.2508 25.7335 23.258L25.0101 23.2683C24.7228 23.2725 24.4681 23.4687 24.3904 23.7455L24.2002 24.4157C23.9634 24.4949 23.7417 24.5914 23.5263 24.7092L22.9151 24.3855C22.6592 24.2494 22.3398 24.3001 22.1383 24.5086L21.6352 25.0292C21.4346 25.2368 21.3944 25.5568 21.5377 25.8074L21.8806 26.4076C21.7621 26.6391 21.6714 26.864 21.6051 27.0914L20.9409 27.2993C20.6663 27.3852 20.478 27.6461 20.4828 27.9335L20.4948 28.657C20.4995 28.9433 20.6956 29.1977 20.9719 29.2753L21.6417 29.4628C21.7199 29.6975 21.8188 29.9246 21.9366 30.1397L21.6135 30.7522C21.4791 31.0066 21.5295 31.3247 21.7358 31.5253L22.2533 32.0287C22.4597 32.2293 22.7789 32.2711 23.0295 32.1297L23.6357 31.7881C23.8518 31.8984 24.0808 31.9896 24.3184 32.0602L24.5254 32.7226C24.6101 32.9935 24.8656 33.1807 25.1489 33.1807ZM24.4699 31.8066C24.1998 31.7318 23.9409 31.6285 23.7004 31.4999C23.6576 31.4767 23.6053 31.4773 23.5628 31.5013L22.8893 31.8808C22.7481 31.9603 22.5686 31.9366 22.4525 31.8239L21.935 31.3205C21.819 31.2075 21.7906 31.0287 21.8663 30.8855L22.2255 30.2044C22.2482 30.1612 22.2474 30.1093 22.2231 30.0666C22.0857 29.8269 21.9738 29.5702 21.8903 29.3032C21.8759 29.2572 21.8391 29.2215 21.7925 29.2083L21.049 29.0002C20.8936 28.9564 20.7831 28.8133 20.7805 28.6523L20.7685 27.9288C20.7658 27.7672 20.8717 27.6205 21.0263 27.5722L21.7644 27.3412C21.8112 27.3264 21.8472 27.289 21.8597 27.2415C21.9279 26.9865 22.0292 26.7346 22.1694 26.4717C22.1926 26.4285 22.1919 26.3763 22.1675 26.3336L21.7858 25.6657C21.7051 25.5248 21.7277 25.3445 21.8406 25.2279L22.3437 24.7072C22.4569 24.5898 22.6366 24.5619 22.7813 24.6378L23.4613 24.998C23.5041 25.0208 23.5563 25.0197 23.599 24.996C23.8402 24.8582 24.0889 24.7496 24.3597 24.6643C24.4055 24.65 24.4409 24.6135 24.4542 24.5672L24.6655 23.8225C24.7092 23.6668 24.8526 23.5566 25.0143 23.554L25.7376 23.5437C25.8919 23.551 26.0462 23.6478 26.0942 23.8027L26.3216 24.5381C26.3343 24.5797 26.3653 24.6129 26.4056 24.6288L27.2076 24.9458C27.248 24.9617 27.293 24.9589 27.3305 24.9371L28.0019 24.5566C28.1437 24.4762 28.3239 24.4996 28.4401 24.6129L28.9585 25.1182C29.0744 25.2312 29.1027 25.4098 29.0271 25.5529L28.6676 26.2343C28.6447 26.2778 28.6457 26.3297 28.6703 26.3721C28.77 26.5454 28.8557 26.7276 28.9239 26.9109C28.9497 26.9846 28.9754 27.058 28.9994 27.1361C29.0136 27.1827 29.0507 27.2189 29.0977 27.2318L29.8427 27.4388C29.9988 27.4823 30.1096 27.6258 30.1118 27.7879L30.1224 28.5114C30.1248 28.6732 30.0186 28.8197 29.8644 28.8677L29.1112 29.1043C29.0711 29.1219 29.0412 29.1567 29.03 29.1991C29.0127 29.2647 28.9922 29.3317 28.9705 29.3956C28.9043 29.5895 28.822 29.782 28.7261 29.967C28.7037 30.01 28.7047 30.0613 28.7286 30.1034L29.1089 30.7734C29.1888 30.914 29.1661 31.0937 29.0535 31.21L28.5489 31.7326C28.4357 31.8498 28.2565 31.8785 28.1128 31.8024L27.4283 31.4419C27.3854 31.4193 27.3332 31.4201 27.2908 31.4444C27.048 31.5833 26.7923 31.6936 26.5309 31.7717C26.4839 31.7859 26.4475 31.823 26.4342 31.8705L26.2269 32.6154C26.1835 32.7717 26.0401 32.8822 25.8781 32.8847L25.1543 32.895C24.9975 32.8964 24.8463 32.7915 24.798 32.6372L24.5681 31.9014C24.5538 31.8551 24.5167 31.8194 24.4699 31.8066Z" fill="black"/>
<path d="M41.2842 20.0631V16.2115C41.2842 15.8234 40.9698 15.5078 40.5834 15.5078H34.5121C34.124 15.5078 33.8081 15.8234 33.8081 16.2115V20.0631C33.8081 20.4495 34.124 20.764 34.5121 20.764H34.9487V21.9261C34.9487 21.9802 34.9791 22.0296 35.0274 22.0539C35.0478 22.0639 35.0697 22.0689 35.0916 22.0689C35.1217 22.0689 35.1517 22.0594 35.1768 22.0407L36.8922 20.764H40.5834C40.9698 20.764 41.2842 20.4495 41.2842 20.0631ZM40.9985 20.0631C40.9985 20.2919 40.8123 20.4782 40.5834 20.4782H36.8449C36.8142 20.4782 36.7842 20.4883 36.7597 20.5064L35.2344 21.6417V20.6211C35.2344 20.5421 35.1705 20.4782 35.0916 20.4782H34.5121C34.2776 20.4782 34.0938 20.2958 34.0938 20.0631V16.2115C34.0938 15.981 34.2815 15.7935 34.5121 15.7935H40.5834C40.8123 15.7935 40.9985 15.981 40.9985 16.2115V20.0631Z" fill="black"/>
<path d="M35.7646 17.3828C35.4127 17.3828 35.1265 17.6688 35.1265 18.0206C35.1265 18.3714 35.4127 18.6568 35.7646 18.6568C36.1164 18.6568 36.4026 18.3714 36.4026 18.0206C36.4026 17.6688 36.1164 17.3828 35.7646 17.3828ZM35.7646 18.3711C35.5702 18.3711 35.4122 18.214 35.4122 18.0206C35.4122 17.8265 35.5702 17.6685 35.7646 17.6685C35.9588 17.6685 36.1168 17.8265 36.1168 18.0206C36.1168 18.214 35.9588 18.3711 35.7646 18.3711Z" fill="black"/>
<path d="M37.5469 17.3828C37.1951 17.3828 36.9089 17.6688 36.9089 18.0206C36.9089 18.3714 37.1951 18.6568 37.5469 18.6568C37.8988 18.6568 38.1849 18.3714 38.1849 18.0206C38.1849 17.6688 37.8988 17.3828 37.5469 17.3828ZM37.5469 18.3711C37.3527 18.3711 37.1946 18.214 37.1946 18.0206C37.1946 17.8265 37.3527 17.6685 37.5469 17.6685C37.7411 17.6685 37.8992 17.8265 37.8992 18.0206C37.8992 18.214 37.7411 18.3711 37.5469 18.3711Z" fill="black"/>
<path d="M39.3296 17.3828C38.9778 17.3828 38.6917 17.6688 38.6917 18.0206C38.6917 18.3714 38.9778 18.6568 39.3296 18.6568C39.6815 18.6568 39.9676 18.3714 39.9676 18.0206C39.9676 17.6688 39.6815 17.3828 39.3296 17.3828ZM39.3296 18.3711C39.1354 18.3711 38.9774 18.214 38.9774 18.0206C38.9774 17.8265 39.1354 17.6685 39.3296 17.6685C39.5238 17.6685 39.6819 17.8265 39.6819 18.0206C39.6819 18.214 39.5238 18.3711 39.3296 18.3711Z" fill="black"/>
<path d="M8.02979 32.0413C8.02979 32.1203 8.09368 32.1842 8.17264 32.1842H13.1332C13.2121 32.1842 13.276 32.1203 13.276 32.0413C13.276 31.9623 13.2121 31.8984 13.1332 31.8984H8.17264C8.09368 31.8984 8.02979 31.9623 8.02979 32.0413Z" fill="black"/>
<path d="M13.1332 32.875H8.17264C8.09368 32.875 8.02979 32.9389 8.02979 33.0179C8.02979 33.0968 8.09368 33.1607 8.17264 33.1607H13.1332C13.2121 33.1607 13.276 33.0968 13.276 33.0179C13.276 32.9389 13.2121 32.875 13.1332 32.875Z" fill="black"/>
<path d="M9.6212 31.0571C9.84084 31.1874 10.0933 31.2528 10.3788 31.2528C10.722 31.2528 11.0391 31.1801 11.33 31.0346C11.3466 31.0262 11.3603 31.0132 11.3712 30.9954C11.3821 30.9776 11.3878 30.9589 11.3878 30.9398C11.3878 30.9123 11.3781 30.8892 11.3588 30.8698C11.3397 30.8507 11.3149 30.8409 11.2847 30.8409C11.271 30.8409 11.2559 30.8436 11.2395 30.8493C11.0802 30.9123 10.9389 30.9596 10.8153 30.9914C10.6918 31.0229 10.5464 31.0386 10.3788 31.0386C10.1237 31.0386 9.90334 30.981 9.71804 30.8657C9.53273 30.7505 9.39132 30.6 9.29398 30.4147C9.19646 30.2294 9.14771 30.0354 9.14771 29.8323C9.14771 29.5606 9.21774 29.3066 9.35781 29.0703C9.49772 28.8344 9.68502 28.6464 9.91975 28.5064C10.1545 28.3663 10.4076 28.2963 10.6794 28.2963C10.9046 28.2963 11.1207 28.3432 11.328 28.4363C11.5352 28.5298 11.7033 28.6676 11.8324 28.8502C11.9615 29.0328 12.026 29.2503 12.026 29.5029C12.026 29.7552 11.9799 29.9556 11.8881 30.1041C11.7959 30.2522 11.6649 30.3262 11.4947 30.3262C11.4261 30.3262 11.3747 30.3008 11.3404 30.2502C11.306 30.1992 11.2889 30.1356 11.2889 30.0585C11.2889 29.9818 11.2985 29.8926 11.3177 29.7911L11.4536 29.0087L11.4577 28.9634C11.4577 28.9195 11.4432 28.883 11.4144 28.8542C11.3856 28.8254 11.3506 28.811 11.3095 28.811C11.271 28.811 11.2373 28.8234 11.2085 28.8482C11.1797 28.8726 11.1626 28.9031 11.1571 28.9386L11.1448 29.0087C10.9993 28.8686 10.8237 28.7986 10.6177 28.7986C10.4502 28.7986 10.2917 28.8384 10.1421 28.9182C9.99247 28.9976 9.87167 29.1129 9.77985 29.264C9.68771 29.4148 9.64179 29.5934 9.64179 29.7991C9.64179 30.0133 9.70363 30.1878 9.8271 30.3222C9.95058 30.4566 10.1222 30.5239 10.3418 30.5239C10.4737 30.5239 10.5985 30.4985 10.7166 30.4479C10.8346 30.3969 10.9361 30.3195 11.0212 30.215C11.0378 30.2974 11.0844 30.3688 11.1613 30.4291C11.238 30.4898 11.3451 30.5199 11.4824 30.5199C11.658 30.5199 11.8028 30.4703 11.9169 30.3715C12.0307 30.2726 12.1144 30.1466 12.168 29.9928C12.2215 29.839 12.2483 29.6758 12.2483 29.5029C12.2483 29.2281 12.1776 28.9832 12.0362 28.7677C11.8948 28.5523 11.7041 28.3834 11.4638 28.2614C11.2236 28.1391 10.9622 28.0781 10.6794 28.0781C10.3693 28.0781 10.0804 28.1582 9.81269 28.3191C9.54513 28.4796 9.33167 28.6944 9.1725 28.9634C9.01317 29.2325 8.93359 29.522 8.93359 29.8323C8.93359 30.082 8.99341 30.3158 9.11269 30.5343C9.23216 30.7525 9.40154 30.9267 9.6212 31.0571ZM11.0336 29.6634C10.9678 30.0478 10.7674 30.2398 10.4324 30.2398C10.2924 30.2398 10.1784 30.1992 10.0906 30.1185C10.0029 30.0374 9.95897 29.9174 9.95897 29.7579C9.95897 29.6182 9.99046 29.4979 10.0536 29.3977C10.1168 29.2975 10.1997 29.2215 10.3028 29.1692C10.4056 29.1172 10.516 29.0911 10.6342 29.0911C10.8237 29.0911 10.9786 29.1541 11.0994 29.2804L11.0336 29.6634Z" fill="black"/>
</g>
<defs>
<clipPath id="clip0_164_83">
<rect width="49" height="49" fill="white"/>
</clipPath>
</defs>
</svg>
