<svg xmlns:xlink="http://www.w3.org/1999/xlink" class="mx-auto" xmlns="http://www.w3.org/2000/svg" width="60" height="60" viewBox="0 0 60 52.868"><path d="M50.026,52.868a2.387,2.387,0,0,1-2.383-2.383v-23.8A2.387,2.387,0,0,1,50.026,24.3h7.591A2.381,2.381,0,0,1,60,26.688v23.8a2.387,2.387,0,0,1-2.384,2.383Zm.108-2.491h7.375V26.795H50.134ZM34.145,52.868a2.387,2.387,0,0,1-2.383-2.383V43.538a2.387,2.387,0,0,1,2.383-2.383h7.591a2.38,2.38,0,0,1,2.383,2.383v6.946a2.387,2.387,0,0,1-2.383,2.383Zm.108-2.491h7.375v-6.73H34.253ZM18.265,52.868a2.387,2.387,0,0,1-2.384-2.383v-23.8A2.387,2.387,0,0,1,18.265,24.3h7.591a2.374,2.374,0,0,1,2.383,2.384v23.8a2.387,2.387,0,0,1-2.383,2.383Zm.107-2.491h7.375V26.795H18.372ZM2.383,52.868A2.387,2.387,0,0,1,0,50.485V35.557a2.387,2.387,0,0,1,2.383-2.383H9.974a2.375,2.375,0,0,1,2.384,2.383V50.485a2.387,2.387,0,0,1-2.384,2.383Zm.108-2.491H9.867V35.665H2.491ZM33.614,20.056A4.252,4.252,0,0,1,34,18.3l-9.713-9.74a4.179,4.179,0,0,1-2.24.655,4.254,4.254,0,0,1-2.641-.948l-9.274,7.473a4.343,4.343,0,0,1,.311,1.592,4.271,4.271,0,1,1-4.267-4.269,4.23,4.23,0,0,1,2.407.742l9.42-7.591a4.35,4.35,0,0,1-.214-1.289,4.276,4.276,0,1,1,8.163,1.758l9.713,9.74a4.181,4.181,0,0,1,4.491.02L50.078,6.321a4.262,4.262,0,1,1,3.74,2.246,4.163,4.163,0,0,1-1.958-.5L41.8,18.326a4.277,4.277,0,1,1-8.183,1.73Zm2.484-.01a1.792,1.792,0,1,0,1.793-1.778A1.8,1.8,0,0,0,36.1,20.046ZM4.379,17.33a1.792,1.792,0,1,0,1.792-1.778A1.8,1.8,0,0,0,4.379,17.33ZM20.268,4.914a1.792,1.792,0,1,0,1.793-1.778A1.8,1.8,0,0,0,20.268,4.914Zm31.767-.645a1.793,1.793,0,1,0,1.793-1.778A1.8,1.8,0,0,0,52.035,4.269Z" fill="#F6921E"></path></svg>