<svg xmlns:xlink="http://www.w3.org/1999/xlink" class="mx-auto" xmlns="http://www.w3.org/2000/svg" width="60" height="60" viewBox="0 0 52.673 52.673"><path d="M1.1,52.673a1.036,1.036,0,0,1-1.1-1.1V1.1A1.037,1.037,0,0,1,1.1,0H34.018a1.037,1.037,0,0,1,1.1,1.1V5.486a17.558,17.558,0,0,1,0,35.115V51.575a1.036,1.036,0,0,1-1.1,1.1Zm1.1-2.194H32.92V40.492c-1.1-.22-2.194-.438-3.292-.768v4.17a1.036,1.036,0,0,1-1.1,1.1H6.584a1.037,1.037,0,0,1-1.1-1.1V6.584a1.037,1.037,0,0,1,1.1-1.1H28.531a1.18,1.18,0,0,1,1.1.878A16.009,16.009,0,0,1,32.92,5.6V2.2H2.2ZM7.681,42.8H27.434V38.846a17.6,17.6,0,0,1-.878-31.164H7.681ZM19.752,23.045A15.363,15.363,0,1,0,35.115,7.681,15.408,15.408,0,0,0,19.752,23.045Zm-3.84,26.007a1.1,1.1,0,1,1,0-2.2H19.2a1.1,1.1,0,0,1,1.1,1.1,1.037,1.037,0,0,1-1.1,1.1Zm6.364-26.007A12.839,12.839,0,1,1,35.115,35.883,12.855,12.855,0,0,1,22.276,23.045Zm2.2,0A10.644,10.644,0,1,0,35.115,12.4,10.654,10.654,0,0,0,24.471,23.045Zm9.546,7.572v-.988a3.884,3.884,0,0,1-2.853-3.73,1.1,1.1,0,0,1,2.2,0,1.756,1.756,0,1,0,1.756-1.756,3.934,3.934,0,0,1-3.951-3.95,3.886,3.886,0,0,1,2.853-3.731v-.877a1.1,1.1,0,1,1,2.2,0v.987A3.885,3.885,0,0,1,39.065,20.3a1.1,1.1,0,1,1-2.194,0,1.733,1.733,0,0,0-1.756-1.756,1.712,1.712,0,0,0-1.756,1.646,1.733,1.733,0,0,0,1.756,1.755,3.934,3.934,0,0,1,3.95,3.951,3.883,3.883,0,0,1-2.853,3.73v.988a1.1,1.1,0,0,1-2.2,0Z" fill="#F6921E"></path></svg>