<svg xmlns:xlink="http://www.w3.org/1999/xlink" class="mx-auto" xmlns="http://www.w3.org/2000/svg" width="60" height="60" viewBox="0 0 52.689 52.673"><path d="M28.979,52.673a3.491,3.491,0,0,1-2.634-1.213,3.491,3.491,0,0,1-2.634,1.213H.878A.878.878,0,0,1,0,51.794V48.282A.878.878,0,0,1,.817,47.4l24.649-1.7v-.374a2.634,2.634,0,0,0-3.022-2.605L4.52,45.4a.878.878,0,1,1-.258-1.738l17.924-2.67A4.395,4.395,0,0,1,26.345,42.7a4.319,4.319,0,0,1,.647-.691A4.39,4.39,0,0,1,30.5,40.988l17.923,2.67a.878.878,0,0,1,.749.869v2.692l2.7.184a.877.877,0,0,1,.817.878v3.512a.878.878,0,0,1-.877.878ZM27.222,49.16a1.757,1.757,0,0,0,1.757,1.757H50.933V49.1l-2.679-.185h-.016l-21.015-1.45ZM1.756,49.1v1.814H23.711a1.757,1.757,0,0,0,1.756-1.757V47.466Zm26.382-5.767a2.637,2.637,0,0,0-.915,2v.374L47.42,47.1V45.284L30.245,42.726a2.625,2.625,0,0,0-2.108.609Zm-17.4-4.252L8.034,34.692a.877.877,0,1,1,1.492-.922l2.708,4.39a.878.878,0,0,1-.714,1.372h-.015A.877.877,0,0,1,10.741,39.083Zm30,.287a.878.878,0,0,1-.285-1.21l2.708-4.39a.878.878,0,1,1,1.492.922l-2.707,4.391a.877.877,0,0,1-1.208.287ZM35.9,39.4a.879.879,0,0,1-.382-1.182l6.732-13.172a.879.879,0,1,1,1.565.8L37.079,39.022A.878.878,0,0,1,35.9,39.4Zm-6.918-.782V35.987a.878.878,0,0,1,1.756,0v2.635a.878.878,0,0,1-1.756,0Zm-7.025,0V35.987a.878.878,0,0,1,1.757,0v2.635a.878.878,0,0,1-1.757,0Zm-6.344.4L8.877,25.85a.879.879,0,1,1,1.565-.8l6.732,13.172a.878.878,0,0,1-1.564.8ZM24.523,34.3,24.18,29.84H21.954v.878a4.4,4.4,0,0,1-4.391,4.391.878.878,0,0,1-.878-.878V27.206a4.389,4.389,0,0,1,2.973-4.135l-.176-1.932a.878.878,0,0,1,1.75-.16l.645,7.106h2.172l-.264-3.378a1.756,1.756,0,0,1,1.751-1.891h1.616a1.756,1.756,0,0,1,1.755,1.891l-.264,3.378h2.168L32.463,9.915,26.345,2.267l-5.2,6.5h7.833a.878.878,0,0,1,0,1.757H20.285l.631,6.945a.878.878,0,0,1-1.75.159l-.718-7.9a.877.877,0,0,1,.189-.629L25.662.313a.908.908,0,0,1,1.372,0l7.024,8.781a.877.877,0,0,1,.189.629L33.031,23.071A4.391,4.391,0,0,1,36,27.206v7.025a.878.878,0,0,1-.878.878,4.4,4.4,0,0,1-4.391-4.391V29.84H28.508L28.166,34.3a1.826,1.826,0,0,1-3.642,0Zm1.751-.135c.005.074.134.074.14,0l.737-9.595H25.537Zm6.217-5.162v1.714A2.639,2.639,0,0,0,34.248,33.2v-6a2.625,2.625,0,0,0-1.384-2.3Zm-14.051-1.8v6A2.64,2.64,0,0,0,20.2,30.719V29.005l-.373-4.1A2.625,2.625,0,0,0,18.441,27.206Zm4.391-11.416A3.512,3.512,0,1,1,26.345,19.3,3.512,3.512,0,0,1,22.832,15.791Zm1.756,0a1.756,1.756,0,1,0,1.757-1.757A1.756,1.756,0,0,0,24.588,15.791ZM9.767,18.882A4.335,4.335,0,0,1,7.9,19.3a.878.878,0,0,1,0-1.757,2.622,2.622,0,0,0,1.424-.424.877.877,0,0,1,1.017.045,1.732,1.732,0,0,0,1.072.379,1.756,1.756,0,1,0,0-3.513,2.008,2.008,0,0,0-.311.032.878.878,0,0,1-.918-.434,2.624,2.624,0,0,0-4.918,1.28.878.878,0,0,1-.878.878.878.878,0,1,0,0,1.756.878.878,0,0,1,0,1.757,2.635,2.635,0,0,1-.814-5.141A4.378,4.378,0,0,1,11.4,12.278h.018a3.513,3.513,0,1,1,0,7.025A3.429,3.429,0,0,1,9.767,18.882Zm27.991-5.52a2.634,2.634,0,0,1,2.226-2.81,3.486,3.486,0,0,1,5.357-.909A3.074,3.074,0,0,1,48.3,12.717a.878.878,0,1,1-1.757,0A1.317,1.317,0,0,0,45.225,11.4c-.007,0-.12.018-.128.018a.873.873,0,0,1-.758-.293,1.73,1.73,0,0,0-1.31-.6,1.757,1.757,0,0,0-1.65,1.183.891.891,0,0,1-.9.587l-.1-.013a.878.878,0,1,0,.02,1.756.863.863,0,0,0,.58-.227.876.876,0,0,1,1.075-.072,1.726,1.726,0,0,0,1.746.113.877.877,0,0,1,.806.018,1.284,1.284,0,0,0,.624.167.878.878,0,0,1,0,1.757,2.945,2.945,0,0,1-1.06-.2,3.474,3.474,0,0,1-2.559-.1,2.607,2.607,0,0,1-1.211.3h-.011A2.635,2.635,0,0,1,37.758,13.362Z" fill="#F6921E"></path></svg>