<?xml version="1.0" encoding="UTF-8"?>
<svg xmlns="http://www.w3.org/2000/svg" xmlns:xlink="http://www.w3.org/1999/xlink" width="130px" height="100px" viewBox="0 0 130 100" version="1.1">
  <g id="surface1">
    <path style=" stroke:none;fill-rule:nonzero;fill:rgb(98.823529%,77.647059%,20.784314%);fill-opacity:1;" d="M 65 100 C 29.25 100 0 77.5 0 50 C 0 22.5 29.25 0 65 0 C 100.75 0 130 22.5 130 50 C 130 77.5 100.75 100 65 100 Z M 65 100 "></path>
    <path style=" stroke:none;fill-rule:nonzero;fill:rgb(0%,0%,0%);fill-opacity:1;" d="M 97.09375 81.5625 L 94.65625 81.5625 C 79.761719 81.5625 65 81.5625 50.375 81.5625 L 48.34375 81.5625 L 47.125 80.625 C 39.40625 71.5625 32.09375 62.5 28.03125 51.875 C 26.40625 48.4375 25.59375 44.6875 26.40625 40.9375 C 27.21875 35 32.09375 31.25 40.625 30 C 43.605469 29.792969 46.582031 29.6875 49.5625 29.6875 C 56.605469 29.6875 63.644531 29.6875 70.6875 29.6875 C 70.6875 29.6875 70.957031 29.582031 71.5 29.375 L 71.5 18.4375 C 82.46875 25 93.03125 31.25 104 37.8125 C 93.03125 44.375 82.46875 50.9375 71.5 57.5 L 71.5 46.25 C 67.4375 45.9375 63.375 45.9375 59.3125 46.875 C 56.0625 47.8125 54.4375 50 56.0625 52.5 C 57.6875 54.375 59.71875 56.25 62.15625 57.8125 C 72.71875 65.3125 84.09375 72.5 95.0625 80 C 95.46875 80.625 96.28125 80.9375 97.09375 81.5625 Z M 97.09375 81.5625 "></path>
  </g>
</svg>
