<?xml version="1.0" encoding="UTF-8"?>
<svg xmlns="http://www.w3.org/2000/svg" xmlns:xlink="http://www.w3.org/1999/xlink" id="svg" version="1.1" width="400" height="275" viewBox="0, 0, 400,275">
  <g id="svgg">
    <path id="path0" d="M215.208 65.643 C 197.758 67.551,181.211 77.370,173.010 90.684 C 172.431 91.623,172.354 91.674,171.667 91.572 C 167.727 90.986,156.944 91.519,156.434 92.325 C 156.334 92.482,156.255 92.504,156.253 92.375 C 156.249 92.094,154.659 92.316,153.246 92.796 C 152.713 92.977,152.140 93.125,151.972 93.125 C 151.804 93.125,151.667 93.219,151.667 93.333 C 151.667 93.448,151.844 93.542,152.061 93.542 C 152.278 93.542,152.509 93.682,152.575 93.854 C 152.753 94.316,153.333 94.237,153.333 93.750 C 153.333 93.498,153.477 93.328,153.698 93.319 C 154.012 93.306,154.005 93.277,153.646 93.108 C 153.350 92.969,153.471 92.952,154.063 93.051 C 154.521 93.127,155.271 93.245,155.729 93.313 C 156.513 93.430,156.566 93.483,156.626 94.207 C 156.687 94.930,156.737 94.980,157.460 95.040 C 158.183 95.100,158.233 95.151,158.293 95.874 C 158.353 96.596,158.404 96.647,159.126 96.707 C 159.849 96.767,159.900 96.817,159.960 97.540 C 160.020 98.263,160.070 98.313,160.793 98.374 C 161.522 98.434,161.566 98.479,161.628 99.239 C 161.682 99.893,161.764 100.023,162.068 99.944 C 162.433 99.848,168.437 100.112,170.521 100.314 C 171.604 100.420,174.376 100.900,175.994 101.263 C 176.509 101.378,176.952 101.446,176.979 101.413 C 177.006 101.381,177.432 100.604,177.926 99.688 C 195.112 67.766,243.037 65.573,263.062 95.793 C 267.529 102.534,269.684 109.459,269.972 117.995 L 270.104 121.927 273.594 123.120 C 290.231 128.806,300.135 140.063,302.186 155.616 C 304.867 175.942,290.905 193.964,268.542 199.046 C 267.682 199.241,266.745 199.458,266.458 199.527 C 266.172 199.597,265.797 199.668,265.625 199.687 C 265.212 199.730,263.736 200.012,263.304 200.129 C 262.647 200.308,263.324 201.221,264.167 201.292 C 264.877 201.353,264.897 201.379,264.959 202.332 C 265.021 203.295,265.033 203.310,265.792 203.373 C 266.516 203.434,266.566 203.484,266.626 204.207 C 266.687 204.930,266.737 204.980,267.460 205.040 C 268.522 205.128,268.757 206.481,267.772 206.833 C 267.226 207.028,267.250 207.042,268.125 207.041 C 269.719 207.039,270.000 207.076,270.000 207.292 C 270.000 207.406,269.648 207.515,269.219 207.533 C 268.473 207.565,268.467 207.570,269.098 207.650 C 271.627 207.966,281.935 204.208,287.708 200.865 C 318.860 182.823,319.699 139.693,289.271 120.514 C 287.424 119.350,280.907 116.064,279.688 115.683 C 279.104 115.500,279.052 115.398,278.902 114.150 C 275.847 88.694,257.164 70.110,230.417 65.922 C 227.837 65.518,218.000 65.337,215.208 65.643 M154.206 95.362 C 154.310 95.905,155.000 95.966,155.000 95.432 C 155.000 95.134,154.866 95.000,154.568 95.000 C 154.270 95.000,154.158 95.112,154.206 95.362 M155.873 97.029 C 155.977 97.572,156.667 97.632,156.667 97.099 C 156.667 96.800,156.533 96.667,156.235 96.667 C 155.937 96.667,155.824 96.779,155.873 97.029 M157.539 98.696 C 157.644 99.239,158.333 99.299,158.333 98.765 C 158.333 98.467,158.200 98.333,157.901 98.333 C 157.603 98.333,157.491 98.446,157.539 98.696 M156.343 100.191 C 156.408 100.295,156.343 100.429,156.199 100.487 C 156.055 100.545,156.202 100.600,156.525 100.609 C 157.048 100.623,157.078 100.590,156.801 100.313 C 156.457 99.969,156.157 99.889,156.343 100.191 M202.500 104.926 C 197.533 105.385,194.008 106.008,190.231 107.095 C 185.723 108.391,177.909 111.889,178.081 112.533 C 178.117 112.665,177.998 112.704,177.798 112.627 C 177.545 112.530,177.487 112.582,177.579 112.821 C 177.651 113.010,177.616 113.093,177.496 113.018 C 177.151 112.805,176.459 113.129,176.455 113.504 C 176.452 113.806,176.424 113.811,176.250 113.542 C 176.139 113.370,176.035 113.299,176.019 113.385 C 176.003 113.471,175.976 113.612,175.960 113.698 C 175.899 114.025,175.591 114.375,175.365 114.375 C 175.235 114.375,175.311 114.237,175.533 114.069 C 175.756 113.901,175.832 113.760,175.703 113.757 C 175.337 113.746,174.979 114.287,175.116 114.643 C 175.209 114.885,175.572 114.967,176.585 114.974 C 178.223 114.987,178.333 115.047,178.333 115.937 C 178.333 116.601,178.379 116.645,179.115 116.706 C 179.851 116.767,179.900 116.815,179.960 117.540 C 180.020 118.263,180.070 118.313,180.793 118.374 C 181.516 118.434,181.566 118.484,181.626 119.207 C 181.687 119.930,181.737 119.980,182.460 120.040 C 183.183 120.100,183.233 120.151,183.293 120.874 C 183.353 121.596,183.404 121.647,184.126 121.707 C 184.849 121.767,184.900 121.817,184.960 122.540 C 185.020 123.263,185.070 123.313,185.793 123.374 C 186.516 123.434,186.566 123.484,186.626 124.207 C 186.687 124.930,186.737 124.980,187.460 125.040 C 188.185 125.100,188.233 125.149,188.294 125.885 C 188.355 126.621,188.399 126.667,189.063 126.667 C 189.943 126.667,189.971 126.717,190.038 128.380 C 190.075 129.325,190.167 129.714,190.338 129.649 C 190.606 129.546,190.606 129.218,190.338 128.788 C 190.244 128.637,190.223 128.458,190.292 128.389 C 190.360 128.320,190.417 128.383,190.417 128.529 C 190.417 128.683,190.552 128.743,190.740 128.671 C 190.925 128.599,191.009 128.634,190.936 128.752 C 190.866 128.866,190.902 128.958,191.017 128.958 C 191.132 128.958,191.284 128.863,191.356 128.747 C 191.428 128.630,191.562 128.581,191.653 128.637 C 191.898 128.789,194.172 127.577,194.000 127.387 C 193.920 127.298,193.963 127.287,194.096 127.363 C 194.434 127.556,195.027 127.295,194.860 127.026 C 194.774 126.886,194.853 126.854,195.074 126.939 C 195.268 127.013,195.885 126.892,196.448 126.671 C 207.932 122.144,223.238 126.444,232.976 136.931 L 234.181 138.229 234.812 137.500 C 235.158 137.099,238.221 133.404,241.616 129.288 L 247.791 121.805 246.135 120.241 C 234.853 109.581,217.611 103.529,202.500 104.926 M176.525 114.456 C 176.602 114.658,176.516 114.713,176.237 114.640 C 176.017 114.583,175.889 114.453,175.952 114.351 C 176.122 114.077,176.399 114.128,176.525 114.456 M174.029 114.960 C 173.818 115.180,173.505 115.416,173.333 115.484 C 173.161 115.552,173.302 115.589,173.646 115.565 C 174.164 115.528,174.260 115.592,174.210 115.938 C 174.164 116.253,174.196 116.284,174.343 116.067 C 174.450 115.909,174.647 115.848,174.782 115.932 C 174.957 116.040,175.005 115.886,174.950 115.399 C 174.855 114.572,174.544 114.424,174.029 114.960 M175.873 117.029 C 175.977 117.572,176.667 117.632,176.667 117.099 C 176.667 116.800,176.533 116.667,176.235 116.667 C 175.937 116.667,175.824 116.779,175.873 117.029 M177.539 118.696 C 177.644 119.239,178.333 119.299,178.333 118.765 C 178.333 118.467,178.200 118.333,177.901 118.333 C 177.603 118.333,177.491 118.446,177.539 118.696 M179.206 120.362 C 179.310 120.905,180.000 120.966,180.000 120.432 C 180.000 120.134,179.866 120.000,179.568 120.000 C 179.270 120.000,179.158 120.112,179.206 120.362 M180.873 122.029 C 180.977 122.572,181.667 122.632,181.667 122.099 C 181.667 121.800,181.533 121.667,181.235 121.667 C 180.937 121.667,180.824 121.779,180.873 122.029 M182.539 123.696 C 182.644 124.239,183.333 124.299,183.333 123.765 C 183.333 123.467,183.200 123.333,182.901 123.333 C 182.603 123.333,182.491 123.446,182.539 123.696 M184.206 125.362 C 184.310 125.905,185.000 125.966,185.000 125.432 C 185.000 125.134,184.866 125.000,184.568 125.000 C 184.270 125.000,184.158 125.112,184.206 125.362 M185.873 127.029 C 185.977 127.572,186.667 127.632,186.667 127.099 C 186.667 126.800,186.533 126.667,186.235 126.667 C 185.937 126.667,185.824 126.779,185.873 127.029 M187.539 128.696 C 187.644 129.239,188.333 129.299,188.333 128.765 C 188.333 128.467,188.200 128.333,187.901 128.333 C 187.603 128.333,187.491 128.446,187.539 128.696 M187.564 130.231 C 187.866 130.408,187.890 130.510,187.687 130.755 C 187.489 130.994,187.489 131.114,187.688 131.311 C 187.887 131.508,187.908 131.476,187.789 131.162 C 187.668 130.844,187.708 130.789,187.982 130.894 C 188.196 130.976,188.309 130.930,188.279 130.775 C 188.219 130.472,187.687 130.013,187.396 130.013 C 187.281 130.013,187.357 130.111,187.564 130.231 M252.784 133.228 C 243.203 135.311,239.892 147.291,246.968 154.271 C 254.676 161.874,267.917 156.226,267.917 145.336 C 267.917 137.398,260.584 131.531,252.784 133.228 M261.880 200.671 C 262.469 201.148,262.619 201.138,262.619 200.625 C 262.619 200.295,262.495 200.218,262.020 200.254 L 261.422 200.300 261.880 200.671 M260.208 200.846 C 260.208 200.967,260.130 201.018,260.035 200.959 C 259.939 200.900,259.861 200.984,259.861 201.146 C 259.861 201.451,260.393 201.760,260.585 201.567 C 260.645 201.507,260.585 201.458,260.451 201.458 C 260.318 201.458,260.208 201.357,260.208 201.233 C 260.208 201.091,260.456 201.058,260.885 201.143 L 261.563 201.278 260.966 200.952 C 260.259 200.565,260.208 200.558,260.208 200.846 M262.396 201.458 C 262.323 201.577,262.502 201.667,262.813 201.667 C 263.123 201.667,263.302 201.577,263.229 201.458 C 263.158 201.344,262.971 201.250,262.813 201.250 C 262.654 201.250,262.467 201.344,262.396 201.458 M261.063 201.649 C 260.704 201.876,260.912 202.500,261.348 202.500 C 261.549 202.500,261.667 202.308,261.667 201.979 C 261.667 201.426,261.532 201.352,261.063 201.649 M262.539 203.696 C 262.644 204.239,263.333 204.299,263.333 203.765 C 263.333 203.467,263.200 203.333,262.901 203.333 C 262.603 203.333,262.491 203.446,262.539 203.696 M264.206 205.362 C 264.310 205.905,265.000 205.966,265.000 205.432 C 265.000 205.134,264.866 205.000,264.568 205.000 C 264.270 205.000,264.158 205.112,264.206 205.362 M265.833 206.986 C 265.833 207.414,266.345 207.586,266.810 207.315 C 267.035 207.185,267.077 207.093,266.915 207.090 C 266.765 207.086,266.700 206.990,266.771 206.875 C 266.844 206.757,266.669 206.667,266.366 206.667 C 266.027 206.667,265.833 206.782,265.833 206.986 M267.671 207.439 C 266.772 207.577,266.431 208.151,267.317 208.036 C 267.704 207.986,268.076 207.938,268.142 207.931 C 268.209 207.923,268.264 207.776,268.264 207.604 C 268.264 207.432,268.256 207.306,268.247 207.323 C 268.237 207.340,267.978 207.392,267.671 207.439 " stroke="none" fill="#6c87c0" fill-rule="evenodd"></path>
    <path id="path1" d="M157.969 91.810 C 158.169 91.863,158.497 91.863,158.698 91.810 C 158.898 91.758,158.734 91.715,158.333 91.715 C 157.932 91.715,157.768 91.758,157.969 91.810 M131.297 92.609 C 123.618 94.276,119.440 102.879,122.834 110.036 L 123.394 111.217 122.773 112.015 C 119.447 116.287,116.395 123.170,115.377 128.696 C 115.151 129.923,115.068 130.071,114.498 130.269 C 114.153 130.390,112.784 131.023,111.457 131.676 C 92.279 141.114,83.597 163.328,91.305 183.238 C 96.809 197.457,110.688 207.807,126.354 209.378 C 130.572 209.800,210.611 209.551,213.333 209.106 C 225.537 207.113,237.254 201.320,246.133 192.891 L 247.813 191.296 246.735 190.075 C 246.142 189.404,245.556 188.878,245.433 188.906 C 245.309 188.935,245.232 188.877,245.260 188.778 C 245.361 188.428,243.924 186.844,243.614 186.963 C 243.433 187.032,243.367 186.989,243.449 186.856 C 243.525 186.733,243.325 186.359,243.004 186.024 C 242.639 185.643,242.369 185.500,242.281 185.642 C 242.192 185.787,242.094 185.746,242.011 185.527 C 241.934 185.328,241.965 185.240,242.086 185.314 C 242.199 185.384,242.292 185.361,242.292 185.263 C 242.292 184.939,240.707 183.530,240.526 183.694 C 240.429 183.782,240.414 183.742,240.493 183.604 C 240.575 183.462,240.462 183.261,240.231 183.137 C 239.934 182.978,239.796 182.989,239.714 183.179 C 239.653 183.321,239.638 183.187,239.680 182.882 C 239.762 182.296,239.171 181.537,238.856 181.822 C 238.761 181.909,238.742 181.876,238.814 181.749 C 238.950 181.512,238.182 180.660,237.813 180.638 C 237.698 180.631,237.604 180.531,237.604 180.417 C 237.604 179.826,236.422 178.729,236.076 179.000 C 235.778 179.232,235.763 179.226,235.968 178.958 C 236.162 178.706,236.015 178.428,235.203 177.511 L 234.199 176.377 232.773 177.720 C 213.749 195.630,185.328 190.103,177.593 166.990 C 173.936 156.059,176.949 141.644,184.341 134.708 C 184.695 134.375,184.935 134.021,184.873 133.921 C 184.811 133.821,184.845 133.765,184.949 133.797 C 185.250 133.889,187.746 131.480,187.598 131.241 C 187.525 131.121,187.571 130.894,187.702 130.737 C 187.886 130.515,187.855 130.401,187.564 130.231 C 187.357 130.111,187.281 130.013,187.396 130.013 C 187.687 130.013,188.219 130.472,188.279 130.775 C 188.307 130.920,188.197 130.976,188.018 130.908 C 187.848 130.842,187.708 130.893,187.708 131.019 C 187.708 131.433,188.276 131.263,188.929 130.652 C 189.281 130.324,189.617 130.103,189.675 130.161 C 189.734 130.220,189.841 130.114,189.913 129.927 C 189.985 129.739,190.151 129.650,190.282 129.729 C 190.458 129.834,190.461 129.793,190.292 129.571 C 190.166 129.406,190.043 128.761,190.019 128.138 C 189.965 126.726,189.926 126.667,189.063 126.667 C 188.399 126.667,188.355 126.621,188.294 125.885 C 188.233 125.149,188.185 125.100,187.460 125.040 C 186.737 124.980,186.687 124.930,186.626 124.207 C 186.566 123.484,186.516 123.434,185.793 123.374 C 185.070 123.313,185.020 123.263,184.960 122.540 C 184.900 121.817,184.849 121.767,184.126 121.707 C 183.404 121.647,183.353 121.596,183.293 120.874 C 183.233 120.151,183.183 120.100,182.460 120.040 C 181.737 119.980,181.687 119.930,181.626 119.207 C 181.566 118.484,181.516 118.434,180.793 118.374 C 180.070 118.313,180.020 118.263,179.960 117.540 C 179.900 116.815,179.851 116.767,179.115 116.706 C 178.379 116.645,178.333 116.601,178.333 115.937 C 178.333 115.052,178.232 114.995,176.627 114.973 C 175.442 114.957,175.013 114.787,175.003 114.329 C 175.001 114.247,175.131 114.230,175.291 114.292 C 175.452 114.353,175.660 114.280,175.754 114.129 C 175.969 113.784,176.059 113.247,175.870 113.436 C 175.792 113.513,175.729 113.686,175.729 113.819 C 175.729 113.953,175.525 114.073,175.276 114.085 C 173.881 114.156,166.847 120.318,163.531 124.375 C 145.207 146.792,149.451 181.278,172.685 198.760 C 173.958 199.718,175.000 200.578,175.000 200.670 C 175.000 200.913,131.866 200.863,128.750 200.616 C 120.293 199.945,112.780 196.634,107.182 191.111 C 89.625 173.789,96.644 145.415,120.417 137.612 C 121.849 137.142,123.124 136.693,123.251 136.614 C 123.378 136.535,123.545 135.512,123.624 134.329 C 123.999 128.697,125.548 124.102,128.823 118.904 C 130.193 116.730,130.440 116.539,131.503 116.831 C 138.172 118.660,146.250 112.468,146.250 105.526 L 146.250 104.198 148.385 103.374 C 153.469 101.410,158.846 100.225,162.771 100.202 C 163.639 100.197,163.778 100.152,163.472 99.974 C 163.262 99.852,162.776 99.811,162.392 99.883 C 161.706 100.011,161.691 99.999,161.628 99.226 C 161.566 98.481,161.520 98.434,160.793 98.374 C 160.070 98.313,160.020 98.263,159.960 97.540 C 159.900 96.817,159.849 96.767,159.126 96.707 C 158.404 96.647,158.353 96.596,158.293 95.874 C 158.233 95.151,158.183 95.100,157.460 95.040 C 156.737 94.980,156.687 94.929,156.626 94.209 C 156.578 93.626,156.462 93.427,156.146 93.383 C 154.429 93.145,153.332 92.836,153.580 92.660 C 153.762 92.532,153.652 92.511,153.257 92.597 C 152.928 92.669,152.389 92.783,152.059 92.849 C 151.729 92.915,151.458 93.056,151.458 93.163 C 151.458 93.270,151.363 93.299,151.245 93.226 C 150.997 93.073,146.363 94.557,144.327 95.443 L 142.925 96.053 141.787 95.126 C 138.874 92.753,134.958 91.814,131.297 92.609 M153.646 93.125 C 154.002 93.278,154.010 93.306,153.698 93.319 C 153.477 93.328,153.333 93.498,153.333 93.750 C 153.333 94.237,152.753 94.316,152.575 93.854 C 152.509 93.682,152.278 93.542,152.061 93.542 C 151.510 93.542,151.567 93.173,152.135 93.064 C 152.879 92.920,153.200 92.933,153.646 93.125 M155.000 95.432 C 155.000 95.966,154.310 95.905,154.206 95.362 C 154.158 95.112,154.270 95.000,154.568 95.000 C 154.866 95.000,155.000 95.134,155.000 95.432 M156.667 97.099 C 156.667 97.632,155.977 97.572,155.873 97.029 C 155.824 96.779,155.937 96.667,156.235 96.667 C 156.533 96.667,156.667 96.800,156.667 97.099 M158.333 98.765 C 158.333 99.299,157.644 99.239,157.539 98.696 C 157.491 98.446,157.603 98.333,157.901 98.333 C 158.200 98.333,158.333 98.467,158.333 98.765 M156.801 100.313 C 157.078 100.590,157.048 100.623,156.525 100.609 C 156.202 100.600,156.055 100.545,156.199 100.487 C 156.343 100.429,156.408 100.295,156.343 100.191 C 156.157 99.889,156.457 99.969,156.801 100.313 M167.135 100.144 C 167.336 100.196,167.664 100.196,167.865 100.144 C 168.065 100.091,167.901 100.048,167.500 100.048 C 167.099 100.048,166.935 100.091,167.135 100.144 M175.952 114.351 C 175.889 114.453,176.017 114.583,176.237 114.640 C 176.516 114.713,176.602 114.658,176.525 114.456 C 176.399 114.128,176.122 114.077,175.952 114.351 M174.950 115.399 C 175.005 115.886,174.957 116.040,174.782 115.932 C 174.647 115.848,174.450 115.909,174.343 116.067 C 174.196 116.284,174.164 116.253,174.210 115.938 C 174.260 115.592,174.164 115.528,173.646 115.565 C 173.302 115.589,173.161 115.552,173.333 115.484 C 173.505 115.416,173.818 115.180,174.029 114.960 C 174.544 114.424,174.855 114.572,174.950 115.399 M176.667 117.099 C 176.667 117.397,176.554 117.509,176.304 117.461 C 175.761 117.356,175.701 116.667,176.235 116.667 C 176.533 116.667,176.667 116.800,176.667 117.099 M178.333 118.765 C 178.333 119.299,177.644 119.239,177.539 118.696 C 177.491 118.446,177.603 118.333,177.901 118.333 C 178.200 118.333,178.333 118.467,178.333 118.765 M180.000 120.432 C 180.000 120.730,179.888 120.842,179.638 120.794 C 179.095 120.690,179.034 120.000,179.568 120.000 C 179.866 120.000,180.000 120.134,180.000 120.432 M181.667 122.099 C 181.667 122.397,181.554 122.509,181.304 122.461 C 180.761 122.356,180.701 121.667,181.235 121.667 C 181.533 121.667,181.667 121.800,181.667 122.099 M183.333 123.765 C 183.333 124.299,182.644 124.239,182.539 123.696 C 182.491 123.446,182.603 123.333,182.901 123.333 C 183.200 123.333,183.333 123.467,183.333 123.765 M185.000 125.432 C 185.000 125.966,184.310 125.905,184.206 125.362 C 184.158 125.112,184.270 125.000,184.568 125.000 C 184.866 125.000,185.000 125.134,185.000 125.432 M186.667 127.099 C 186.667 127.397,186.554 127.509,186.304 127.461 C 185.761 127.356,185.701 126.667,186.235 126.667 C 186.533 126.667,186.667 126.800,186.667 127.099 M188.333 128.765 C 188.333 129.299,187.644 129.239,187.539 128.696 C 187.491 128.446,187.603 128.333,187.901 128.333 C 188.200 128.333,188.333 128.467,188.333 128.765 M190.212 128.455 C 190.210 128.579,190.279 128.751,190.365 128.837 C 190.451 128.923,190.533 129.079,190.547 129.184 C 190.561 129.289,190.585 129.424,190.599 129.484 C 190.646 129.681,191.667 128.916,191.667 128.684 C 191.667 128.535,191.582 128.543,191.417 128.708 C 191.097 129.028,190.762 129.034,190.957 128.718 C 191.054 128.561,191.014 128.534,190.842 128.640 C 190.689 128.735,190.502 128.684,190.397 128.516 C 190.297 128.358,190.213 128.331,190.212 128.455 M260.417 200.235 C 259.786 200.312,257.250 200.385,254.779 200.396 L 250.288 200.417 249.154 201.385 C 246.445 203.700,240.172 208.096,238.041 209.174 C 237.244 209.576,252.589 209.744,257.292 209.383 C 263.129 208.936,265.199 208.695,265.066 208.479 C 264.991 208.359,265.040 208.333,265.180 208.420 C 265.503 208.620,267.708 208.338,267.708 208.097 C 267.708 207.993,267.451 207.973,267.135 208.051 C 266.634 208.176,266.596 208.154,266.830 207.870 C 267.144 207.488,268.327 207.258,268.269 207.590 C 268.247 207.712,268.135 207.891,268.021 207.986 C 267.906 208.082,268.129 208.105,268.516 208.038 C 268.902 207.971,269.371 207.904,269.557 207.889 C 269.743 207.874,269.568 207.793,269.167 207.708 L 268.438 207.555 269.219 207.527 C 269.648 207.512,270.000 207.406,270.000 207.292 C 270.000 207.076,269.719 207.039,268.125 207.041 C 267.250 207.042,267.226 207.028,267.772 206.833 C 268.757 206.481,268.522 205.128,267.460 205.040 C 266.737 204.980,266.687 204.930,266.626 204.207 C 266.566 203.484,266.516 203.434,265.792 203.373 C 265.033 203.310,265.021 203.295,264.959 202.332 C 264.897 201.379,264.877 201.353,264.167 201.292 C 263.398 201.227,262.676 200.354,263.201 200.124 C 263.506 199.990,261.892 200.055,260.417 200.235 M262.619 200.625 C 262.619 201.138,262.469 201.148,261.880 200.671 L 261.422 200.300 262.020 200.254 C 262.495 200.218,262.619 200.295,262.619 200.625 M260.966 200.952 L 261.563 201.278 260.885 201.143 C 260.456 201.058,260.208 201.091,260.208 201.233 C 260.208 201.357,260.318 201.458,260.451 201.458 C 260.585 201.458,260.645 201.507,260.585 201.567 C 260.393 201.760,259.861 201.451,259.861 201.146 C 259.861 200.984,259.939 200.900,260.035 200.959 C 260.130 201.018,260.208 200.967,260.208 200.846 C 260.208 200.558,260.259 200.565,260.966 200.952 M263.229 201.458 C 263.302 201.577,263.123 201.667,262.813 201.667 C 262.502 201.667,262.323 201.577,262.396 201.458 C 262.467 201.344,262.654 201.250,262.813 201.250 C 262.971 201.250,263.158 201.344,263.229 201.458 M261.667 201.979 C 261.667 202.308,261.549 202.500,261.348 202.500 C 260.912 202.500,260.704 201.876,261.063 201.649 C 261.532 201.352,261.667 201.426,261.667 201.979 M263.333 203.765 C 263.333 204.299,262.644 204.239,262.539 203.696 C 262.491 203.446,262.603 203.333,262.901 203.333 C 263.200 203.333,263.333 203.467,263.333 203.765 M265.000 205.432 C 265.000 205.966,264.310 205.905,264.206 205.362 C 264.158 205.112,264.270 205.000,264.568 205.000 C 264.866 205.000,265.000 205.134,265.000 205.432 M266.771 206.875 C 266.700 206.990,266.765 207.086,266.915 207.090 C 267.077 207.093,267.035 207.185,266.810 207.315 C 266.345 207.586,265.833 207.414,265.833 206.986 C 265.833 206.782,266.027 206.667,266.366 206.667 C 266.669 206.667,266.844 206.757,266.771 206.875 " stroke="none" fill="#a34f9f" fill-rule="evenodd"></path>
    <path id="path2" d="M0.000 137.500 L 0.000 275.000 200.000 275.000 L 400.000 275.000 400.000 137.500 L 400.000 0.000 200.000 0.000 L 0.000 0.000 0.000 137.500 M230.417 65.839 C 256.229 69.565,276.781 89.630,278.851 113.125 C 279.044 115.315,279.047 115.321,280.372 115.845 C 294.853 121.574,305.893 133.338,309.781 147.182 C 318.023 176.537,298.518 203.757,265.655 208.760 C 260.606 209.529,237.083 210.261,237.083 209.649 C 237.083 209.555,237.522 209.246,238.059 208.961 C 240.654 207.584,245.910 203.895,248.807 201.416 L 250.219 200.208 254.432 200.208 C 286.415 200.207,307.440 178.459,301.361 151.667 C 298.251 137.964,288.380 128.078,272.652 122.916 L 270.060 122.065 269.937 118.481 C 268.581 78.751,218.746 59.906,187.639 87.359 C 184.352 90.260,180.976 94.616,178.315 99.391 C 177.618 100.643,176.968 101.667,176.870 101.667 C 176.773 101.667,176.008 101.522,175.170 101.346 C 165.799 99.374,155.799 100.290,147.552 103.876 C 146.469 104.347,146.458 104.361,146.458 105.273 C 146.458 112.455,139.205 118.326,131.902 117.055 L 130.540 116.817 129.951 117.523 C 126.774 121.326,124.269 128.145,123.770 134.344 C 123.666 135.638,123.549 136.722,123.509 136.753 C 123.470 136.784,122.250 137.197,120.798 137.670 C 88.489 148.195,90.516 192.431,123.646 199.789 C 127.033 200.541,130.825 200.642,153.297 200.580 L 174.823 200.521 173.531 199.609 C 146.136 180.291,144.654 138.081,170.632 117.049 C 192.659 99.216,227.847 101.028,247.145 120.990 L 247.935 121.807 244.356 126.164 C 242.388 128.560,239.377 132.230,237.667 134.319 C 233.890 138.931,234.337 138.665,232.933 137.133 C 219.434 122.395,198.185 121.073,185.179 134.162 C 173.002 146.416,173.095 167.157,185.382 179.334 C 198.081 191.919,218.095 191.084,232.929 177.351 L 234.224 176.152 235.081 177.109 C 236.342 178.517,245.062 188.001,246.597 189.633 C 247.323 190.405,247.917 191.121,247.917 191.225 C 247.917 191.475,244.765 194.448,242.867 195.989 C 234.202 203.023,224.709 207.276,213.125 209.313 C 210.671 209.745,131.753 209.997,127.188 209.588 C 99.925 207.143,82.280 181.391,90.336 155.804 C 93.790 144.834,102.792 134.964,113.300 130.626 L 114.957 129.942 115.203 128.669 C 116.202 123.500,118.518 118.025,121.764 113.165 L 123.135 111.113 122.619 109.984 C 117.169 98.051,132.218 86.326,141.875 94.981 C 142.971 95.963,142.912 95.951,143.936 95.428 C 150.157 92.254,164.237 90.183,171.469 91.377 C 172.163 91.492,172.246 91.443,172.802 90.593 C 173.653 89.293,176.300 85.822,177.080 84.984 C 177.445 84.592,178.061 83.890,178.449 83.424 C 179.328 82.368,183.399 78.706,185.208 77.344 C 197.988 67.722,214.446 63.534,230.417 65.839 M259.152 133.363 C 271.227 137.118,270.851 154.378,258.626 157.505 C 248.194 160.173,239.481 149.279,244.343 139.647 C 247.068 134.249,253.383 131.569,259.152 133.363 " stroke="none" fill="#040404" fill-rule="evenodd"></path>
    <path id="path3" d="M181.030 80.990 L 180.313 81.771 181.094 81.053 C 181.821 80.385,181.971 80.208,181.812 80.208 C 181.777 80.208,181.425 80.560,181.030 80.990 M164.537 100.153 C 165.027 100.197,165.777 100.196,166.203 100.151 C 166.630 100.107,166.229 100.071,165.313 100.071 C 164.396 100.072,164.047 100.109,164.537 100.153 M168.700 100.356 C 168.959 100.406,169.334 100.404,169.534 100.351 C 169.733 100.299,169.521 100.259,169.063 100.261 C 168.604 100.263,168.441 100.306,168.700 100.356 M121.527 104.688 C 121.528 105.490,121.565 105.792,121.610 105.360 C 121.655 104.928,121.655 104.271,121.609 103.902 C 121.563 103.532,121.526 103.885,121.527 104.688 M146.312 105.208 C 146.312 105.839,146.351 106.096,146.399 105.781 C 146.447 105.466,146.447 104.951,146.399 104.635 C 146.351 104.320,146.312 104.578,146.312 105.208 M205.885 104.736 C 206.430 104.779,207.320 104.779,207.865 104.736 C 208.409 104.694,207.964 104.658,206.875 104.658 C 205.786 104.658,205.341 104.694,205.885 104.736 M123.037 110.791 C 123.104 111.055,123.040 111.430,122.893 111.625 C 122.644 111.956,122.652 111.956,123.016 111.623 C 123.341 111.326,123.365 111.190,123.160 110.790 L 122.914 110.313 123.037 110.791 M142.708 113.438 C 142.202 113.953,141.835 114.375,141.892 114.375 C 141.950 114.375,142.411 113.953,142.917 113.438 C 143.423 112.922,143.790 112.500,143.733 112.500 C 143.675 112.500,143.214 112.922,142.708 113.438 M166.766 120.677 L 164.896 122.604 166.823 120.734 C 168.613 118.996,168.845 118.750,168.694 118.750 C 168.663 118.750,167.795 119.617,166.766 120.677 M206.618 124.943 C 206.993 124.989,207.555 124.988,207.868 124.941 C 208.181 124.893,207.875 124.855,207.188 124.856 C 206.500 124.857,206.244 124.896,206.618 124.943 M186.344 132.760 L 185.521 133.646 186.406 132.822 C 186.893 132.369,187.292 131.971,187.292 131.937 C 187.292 131.779,187.110 131.937,186.344 132.760 M123.590 134.583 C 123.590 134.984,123.633 135.148,123.685 134.948 C 123.738 134.747,123.738 134.419,123.685 134.219 C 123.633 134.018,123.590 134.182,123.590 134.583 M183.739 135.365 L 183.021 136.146 183.802 135.428 C 184.529 134.760,184.679 134.583,184.520 134.583 C 184.485 134.583,184.134 134.935,183.739 135.365 M232.188 136.250 C 232.635 136.708,233.048 137.083,233.105 137.083 C 233.163 137.083,232.843 136.708,232.396 136.250 C 231.948 135.792,231.535 135.417,231.478 135.417 C 231.421 135.417,231.740 135.792,232.188 136.250 M98.424 141.510 L 97.813 142.188 98.490 141.576 C 99.121 141.005,99.262 140.833,99.101 140.833 C 99.066 140.833,98.761 141.138,98.424 141.510 M106.766 145.885 L 105.104 147.604 106.823 145.942 C 108.419 144.399,108.637 144.167,108.485 144.167 C 108.453 144.167,107.680 144.940,106.766 145.885 M152.132 153.333 C 152.132 153.734,152.175 153.898,152.227 153.698 C 152.279 153.497,152.279 153.169,152.227 152.969 C 152.175 152.768,152.132 152.932,152.132 153.333 M176.090 153.333 C 176.090 153.734,176.133 153.898,176.185 153.698 C 176.238 153.497,176.238 153.169,176.185 152.969 C 176.133 152.768,176.090 152.932,176.090 153.333 M175.900 156.667 C 175.900 157.411,175.938 157.716,175.984 157.344 C 176.030 156.971,176.030 156.362,175.984 155.990 C 175.938 155.617,175.900 155.922,175.900 156.667 M254.952 157.859 C 255.326 157.906,255.889 157.905,256.202 157.857 C 256.515 157.810,256.208 157.772,255.521 157.773 C 254.833 157.774,254.577 157.813,254.952 157.859 M176.090 159.792 C 176.090 160.193,176.133 160.357,176.185 160.156 C 176.238 159.956,176.238 159.628,176.185 159.427 C 176.133 159.227,176.090 159.391,176.090 159.792 M152.140 160.417 C 152.140 160.932,152.181 161.143,152.230 160.885 C 152.280 160.628,152.280 160.206,152.230 159.948 C 152.181 159.690,152.140 159.901,152.140 160.417 M88.590 164.167 C 88.590 164.568,88.633 164.732,88.685 164.531 C 88.738 164.331,88.738 164.003,88.685 163.802 C 88.633 163.602,88.590 163.766,88.590 164.167 M88.416 168.646 C 88.416 170.250,88.449 170.879,88.488 170.043 C 88.528 169.207,88.528 167.895,88.488 167.126 C 88.448 166.358,88.415 167.042,88.416 168.646 M97.354 168.333 C 97.354 168.964,97.393 169.221,97.441 168.906 C 97.489 168.591,97.489 168.076,97.441 167.760 C 97.393 167.445,97.354 167.703,97.354 168.333 M97.553 171.563 C 97.555 172.021,97.598 172.184,97.647 171.925 C 97.697 171.666,97.695 171.291,97.643 171.091 C 97.591 170.892,97.550 171.104,97.553 171.563 M235.625 178.021 C 236.014 178.422,236.379 178.750,236.436 178.750 C 236.493 178.750,236.222 178.422,235.833 178.021 C 235.445 177.620,235.080 177.292,235.022 177.292 C 234.965 177.292,235.236 177.620,235.625 178.021 M156.265 178.021 C 156.265 178.135,156.399 178.464,156.563 178.750 C 156.726 179.036,156.860 179.177,156.860 179.063 C 156.860 178.948,156.726 178.620,156.563 178.333 C 156.399 178.047,156.265 177.906,156.265 178.021 M185.417 179.688 C 186.039 180.318,186.595 180.833,186.652 180.833 C 186.710 180.833,186.247 180.318,185.625 179.688 C 185.003 179.057,184.447 178.542,184.389 178.542 C 184.332 178.542,184.794 179.057,185.417 179.688 M238.116 180.677 C 238.980 181.597,239.167 181.762,239.167 181.606 C 239.167 181.572,238.721 181.127,238.177 180.616 L 237.188 179.688 238.116 180.677 M100.223 181.354 C 100.223 181.469,100.357 181.797,100.521 182.083 C 100.685 182.370,100.819 182.510,100.819 182.396 C 100.819 182.281,100.685 181.953,100.521 181.667 C 100.357 181.380,100.223 181.240,100.223 181.354 M240.417 183.229 C 240.805 183.630,241.170 183.958,241.228 183.958 C 241.285 183.958,241.014 183.630,240.625 183.229 C 240.236 182.828,239.871 182.500,239.814 182.500 C 239.757 182.500,240.028 182.828,240.417 183.229 M244.792 187.982 C 244.792 188.018,245.096 188.322,245.469 188.659 L 246.146 189.271 245.534 188.594 C 244.964 187.963,244.792 187.821,244.792 187.982 M206.615 188.484 C 206.987 188.530,207.596 188.530,207.969 188.484 C 208.341 188.438,208.036 188.400,207.292 188.400 C 206.547 188.400,206.242 188.438,206.615 188.484 M247.286 190.681 L 247.789 191.258 246.762 192.348 L 245.735 193.438 246.874 192.345 L 248.014 191.252 247.398 190.678 L 246.783 190.104 247.286 190.681 M166.875 193.854 C 167.959 194.943,168.893 195.833,168.950 195.833 C 169.007 195.833,168.167 194.943,167.083 193.854 C 165.999 192.766,165.066 191.875,165.008 191.875 C 164.951 191.875,165.791 192.766,166.875 193.854 M98.854 195.625 C 99.302 196.083,99.715 196.458,99.772 196.458 C 99.829 196.458,99.510 196.083,99.063 195.625 C 98.615 195.167,98.202 194.792,98.145 194.792 C 98.087 194.792,98.407 195.167,98.854 195.625 M101.875 198.646 C 102.264 199.047,102.629 199.375,102.686 199.375 C 102.743 199.375,102.472 199.047,102.083 198.646 C 101.695 198.245,101.330 197.917,101.272 197.917 C 101.215 197.917,101.486 198.245,101.875 198.646 M172.917 199.034 C 172.917 199.091,173.198 199.339,173.542 199.583 C 173.885 199.828,174.167 199.981,174.167 199.924 C 174.167 199.867,173.885 199.620,173.542 199.375 C 173.198 199.130,172.917 198.977,172.917 199.034 M174.667 200.384 C 174.778 200.563,169.420 200.637,153.189 200.677 L 131.563 200.731 153.281 200.782 C 173.734 200.830,175.562 200.789,174.759 200.293 C 174.611 200.201,174.575 200.235,174.667 200.384 M249.973 200.573 C 249.721 200.895,249.726 200.907,250.016 200.681 C 250.249 200.500,251.718 200.407,255.016 200.364 L 259.688 200.304 254.973 200.256 C 250.697 200.213,250.233 200.242,249.973 200.573 M127.865 200.564 C 128.122 200.613,128.544 200.613,128.802 200.564 C 129.060 200.514,128.849 200.473,128.333 200.473 C 127.818 200.473,127.607 200.514,127.865 200.564 M109.375 204.052 C 109.375 204.109,109.656 204.301,110.000 204.479 C 110.344 204.657,110.625 204.755,110.625 204.698 C 110.625 204.641,110.344 204.449,110.000 204.271 C 109.656 204.093,109.375 203.995,109.375 204.052 M258.700 209.314 C 258.959 209.364,259.334 209.362,259.534 209.310 C 259.733 209.258,259.521 209.217,259.063 209.219 C 258.604 209.222,258.441 209.264,258.700 209.314 M126.200 209.522 C 126.459 209.572,126.834 209.570,127.034 209.518 C 127.233 209.466,127.021 209.425,126.563 209.428 C 126.104 209.430,125.941 209.473,126.200 209.522 M209.844 209.519 C 210.044 209.571,210.372 209.571,210.573 209.519 C 210.773 209.466,210.609 209.423,210.208 209.423 C 209.807 209.423,209.643 209.466,209.844 209.519 M138.073 209.740 C 143.487 209.770,152.346 209.770,157.760 209.740 C 163.174 209.709,158.745 209.683,147.917 209.683 C 137.089 209.683,132.659 209.709,138.073 209.740 M168.698 209.730 C 168.956 209.780,169.378 209.780,169.635 209.730 C 169.893 209.681,169.682 209.640,169.167 209.640 C 168.651 209.640,168.440 209.681,168.698 209.730 M172.031 209.730 C 172.289 209.780,172.711 209.780,172.969 209.730 C 173.227 209.681,173.016 209.640,172.500 209.640 C 171.984 209.640,171.773 209.681,172.031 209.730 " stroke="none" fill="#57365d" fill-rule="evenodd"></path>
    <path id="path4" d="M220.270 65.363 C 221.163 65.403,222.569 65.402,223.395 65.363 C 224.220 65.323,223.490 65.291,221.771 65.292 C 220.052 65.292,219.377 65.324,220.270 65.363 M215.885 65.560 C 216.086 65.613,216.414 65.613,216.615 65.560 C 216.815 65.508,216.651 65.465,216.250 65.465 C 215.849 65.465,215.685 65.508,215.885 65.560 M227.135 65.560 C 227.336 65.613,227.664 65.613,227.865 65.560 C 228.065 65.508,227.901 65.465,227.500 65.465 C 227.099 65.465,226.935 65.508,227.135 65.560 M218.594 74.524 C 218.909 74.572,219.424 74.572,219.740 74.524 C 220.055 74.476,219.797 74.437,219.167 74.437 C 218.536 74.437,218.279 74.476,218.594 74.524 M223.698 74.522 C 223.956 74.572,224.378 74.572,224.635 74.522 C 224.893 74.472,224.682 74.432,224.167 74.432 C 223.651 74.432,223.440 74.472,223.698 74.522 M263.646 82.292 C 264.672 83.323,265.559 84.167,265.616 84.167 C 265.674 84.167,264.881 83.323,263.854 82.292 C 262.828 81.260,261.941 80.417,261.884 80.417 C 261.826 80.417,262.619 81.260,263.646 82.292 M179.375 82.396 C 178.869 82.911,178.502 83.333,178.559 83.333 C 178.616 83.333,179.077 82.911,179.583 82.396 C 180.089 81.880,180.457 81.458,180.399 81.458 C 180.342 81.458,179.881 81.880,179.375 82.396 M257.188 88.750 C 258.099 89.667,258.891 90.417,258.949 90.417 C 259.006 90.417,258.307 89.667,257.396 88.750 C 256.485 87.833,255.692 87.083,255.635 87.083 C 255.577 87.083,256.276 87.833,257.188 88.750 M163.812 91.197 C 164.705 91.236,166.111 91.236,166.937 91.196 C 167.762 91.157,167.031 91.125,165.313 91.125 C 163.594 91.125,162.918 91.158,163.812 91.197 M162.448 100.355 C 162.706 100.405,163.128 100.405,163.385 100.355 C 163.643 100.306,163.432 100.265,162.917 100.265 C 162.401 100.265,162.190 100.306,162.448 100.355 M167.344 100.352 C 167.544 100.404,167.872 100.404,168.073 100.352 C 168.273 100.300,168.109 100.257,167.708 100.257 C 167.307 100.257,167.143 100.300,167.344 100.352 M203.698 104.730 C 203.956 104.780,204.378 104.780,204.635 104.730 C 204.893 104.681,204.682 104.640,204.167 104.640 C 203.651 104.640,203.440 104.681,203.698 104.730 M209.115 104.730 C 209.372 104.780,209.794 104.780,210.052 104.730 C 210.310 104.681,210.099 104.640,209.583 104.640 C 209.068 104.640,208.857 104.681,209.115 104.730 M211.719 104.935 C 211.919 104.988,212.247 104.988,212.448 104.935 C 212.648 104.883,212.484 104.840,212.083 104.840 C 211.682 104.840,211.518 104.883,211.719 104.935 M133.277 117.234 C 133.646 117.280,134.303 117.280,134.735 117.235 C 135.167 117.190,134.865 117.153,134.063 117.152 C 133.260 117.151,132.907 117.188,133.277 117.234 M246.563 120.625 C 247.243 121.313,247.846 121.875,247.904 121.875 C 247.961 121.875,247.451 121.313,246.771 120.625 C 246.091 119.938,245.487 119.375,245.430 119.375 C 245.372 119.375,245.882 119.938,246.563 120.625 M166.667 120.521 C 166.161 121.036,165.793 121.458,165.851 121.458 C 165.908 121.458,166.369 121.036,166.875 120.521 C 167.381 120.005,167.748 119.583,167.691 119.583 C 167.634 119.583,167.173 120.005,166.667 120.521 M298.021 127.500 C 298.932 128.417,299.725 129.167,299.782 129.167 C 299.839 129.167,299.140 128.417,298.229 127.500 C 297.318 126.583,296.525 125.833,296.468 125.833 C 296.411 125.833,297.110 126.583,298.021 127.500 M291.458 133.854 C 292.427 134.828,293.267 135.625,293.324 135.625 C 293.381 135.625,292.636 134.828,291.667 133.854 C 290.698 132.880,289.858 132.083,289.801 132.083 C 289.744 132.083,290.489 132.880,291.458 133.854 M255.260 132.852 C 255.461 132.904,255.789 132.904,255.990 132.852 C 256.190 132.800,256.026 132.757,255.625 132.757 C 255.224 132.757,255.060 132.800,255.260 132.852 M246.447 136.615 L 245.729 137.396 246.510 136.678 C 247.238 136.010,247.387 135.833,247.228 135.833 C 247.194 135.833,246.842 136.185,246.447 136.615 M232.917 137.149 C 232.917 137.184,233.221 137.489,233.594 137.826 L 234.271 138.438 233.659 137.760 C 233.089 137.129,232.917 136.988,232.917 137.149 M267.981 145.313 C 267.982 146.000,268.021 146.256,268.068 145.882 C 268.114 145.507,268.113 144.945,268.066 144.632 C 268.018 144.319,267.980 144.625,267.981 145.313 M264.160 154.323 L 263.021 155.521 264.219 154.382 C 265.332 153.324,265.512 153.125,265.357 153.125 C 265.325 153.125,264.786 153.664,264.160 154.323 M151.937 157.083 C 151.937 157.714,151.976 157.971,152.024 157.656 C 152.072 157.341,152.072 156.826,152.024 156.510 C 151.976 156.195,151.937 156.453,151.937 157.083 M311.507 157.708 C 311.507 158.109,311.550 158.273,311.602 158.073 C 311.654 157.872,311.654 157.544,311.602 157.344 C 311.550 157.143,311.507 157.307,311.507 157.708 M311.515 163.542 C 311.515 164.057,311.556 164.268,311.605 164.010 C 311.655 163.753,311.655 163.331,311.605 163.073 C 311.556 162.815,311.515 163.026,311.515 163.542 M302.132 165.208 C 302.132 165.609,302.175 165.773,302.227 165.573 C 302.279 165.372,302.279 165.044,302.227 164.844 C 302.175 164.643,302.132 164.807,302.132 165.208 M233.322 177.031 L 232.604 177.813 233.384 177.095 L 234.165 176.378 234.843 176.991 L 235.521 177.604 234.909 176.927 C 234.151 176.088,234.191 176.086,233.322 177.031 M237.283 179.635 C 238.146 180.555,238.333 180.721,238.333 180.564 C 238.333 180.531,237.888 180.085,237.344 179.575 L 236.354 178.646 237.283 179.635 M239.167 181.732 C 239.167 181.768,239.471 182.072,239.844 182.409 L 240.521 183.021 239.909 182.344 C 239.339 181.713,239.167 181.571,239.167 181.732 M241.979 184.792 C 242.427 185.250,242.840 185.625,242.897 185.625 C 242.954 185.625,242.635 185.250,242.188 184.792 C 241.740 184.333,241.327 183.958,241.270 183.958 C 241.212 183.958,241.532 184.333,241.979 184.792 M291.454 186.615 L 289.479 188.646 291.510 186.671 C 293.397 184.836,293.636 184.583,293.485 184.583 C 293.455 184.583,292.540 185.497,291.454 186.615 M299.572 191.406 L 298.854 192.188 299.635 191.470 C 300.363 190.801,300.512 190.625,300.353 190.625 C 300.319 190.625,299.967 190.977,299.572 191.406 M296.458 194.479 C 295.952 194.995,295.585 195.417,295.642 195.417 C 295.700 195.417,296.161 194.995,296.667 194.479 C 297.173 193.964,297.540 193.542,297.483 193.542 C 297.425 193.542,296.964 193.964,296.458 194.479 M260.052 209.310 C 260.253 209.363,260.581 209.363,260.781 209.310 C 260.982 209.258,260.818 209.215,260.417 209.215 C 260.016 209.215,259.852 209.258,260.052 209.310 M237.083 209.635 C 237.083 209.721,241.372 209.771,246.615 209.745 C 251.857 209.720,254.646 209.673,252.813 209.642 C 244.304 209.496,237.083 209.493,237.083 209.635 M170.365 209.730 C 170.622 209.780,171.044 209.780,171.302 209.730 C 171.560 209.681,171.349 209.640,170.833 209.640 C 170.318 209.640,170.107 209.681,170.365 209.730 M173.902 209.734 C 174.271 209.780,174.928 209.780,175.360 209.735 C 175.792 209.690,175.490 209.653,174.688 209.652 C 173.885 209.651,173.532 209.688,173.902 209.734 M184.323 209.740 C 188.820 209.771,196.180 209.771,200.677 209.740 C 205.174 209.708,201.495 209.683,192.500 209.683 C 183.505 209.683,179.826 209.708,184.323 209.740 " stroke="none" fill="#2b3a54" fill-rule="evenodd"></path>
  </g>
</svg>
