<?xml version="1.0" encoding="UTF-8"?>
<!-- Creator: CorelDRAW X8 -->
<svg xmlns="http://www.w3.org/2000/svg" xmlns:xlink="http://www.w3.org/1999/xlink" xml:space="preserve" width="49.2679mm" height="47.9625mm" version="1.1" style="shape-rendering:geometricPrecision; text-rendering:geometricPrecision; image-rendering:optimizeQuality; fill-rule:evenodd; clip-rule:evenodd" viewBox="0 0 241 234">
 <defs>
  <style type="text/css">
   <![CDATA[
    .fil0 {fill:#1B92F3}
    .fil1 {fill:white}
   ]]>
  </style>
 </defs>
 <g id="Layer_x0020_1">
  <metadata id="CorelCorpID_0Corel-Layer"></metadata>
  <g id="_2169301694784">
   <path class="fil0" d="M4 70l0 139c0,5 3,9 8,9l139 0c5,0 8,-4 8,-9l0 -139c0,-5 -3,-9 -8,-9l-139 0c-5,0 -8,4 -8,9l0 0zm0 0z"></path>
   <path class="fil0" d="M151 61l-11 0c5,0 9,4 9,9l0 139c0,5 -4,9 -9,9l11 0c5,0 8,-4 8,-9l0 -139c0,-5 -3,-9 -8,-9l0 0zm0 0z"></path>
   <path class="fil0" d="M125 78l-10 0c-1,0 -2,0 -2,-1l0 -50c0,-5 -4,-9 -9,-9l-44 0c-6,0 -10,4 -10,9l0 50c0,1 -1,1 -2,1l-10 0c-1,0 -2,0 -2,-1l0 -53c0,-11 9,-20 20,-20l51 0c11,0 20,9 20,20l0 53c0,1 -1,1 -2,1l0 0 0 0zm0 0z"></path>
   <path class="fil0" d="M231 132l-110 0c-4,0 -7,3 -7,7l7 85c0,4 3,7 7,7l96 0c4,0 7,-3 7,-7l6 -85c1,-4 -3,-7 -6,-7l0 0 0 0zm-87 30c-5,0 -8,-5 -8,-9 0,-5 3,-8 8,-8 5,0 9,3 9,8 0,4 -4,9 -9,9zm64 0c-5,0 -9,-5 -9,-9 0,-5 4,-8 9,-8 4,0 8,3 8,8 0,4 -4,9 -8,9zm0 0z"></path>
   <path class="fil0" d="M231 132l-12 0c4,0 7,3 7,7l-6 85c0,4 -4,7 -8,7l12 0c4,0 7,-3 7,-7l6 -85c1,-4 -3,-7 -6,-7zm0 0z"></path>
   <path class="fil1" d="M238 132c-2,-2 -5,-3 -7,-3l-20 0 0 -2c0,-20 -16,-36 -35,-36 -20,0 -36,16 -36,36l0 2 -19 0c-3,0 -6,1 -7,3 -2,1 -3,5 -3,7l4 54 -108 0 0 -123c0,-4 3,-6 5,-6l20 0 0 13c0,2 3,5 6,5l10 0c3,0 5,-3 5,-5l0 -13 57 0 0 13c0,2 2,5 5,5l10 0c3,0 5,-3 5,-5l0 -13 21 0c3,0 5,2 5,6l0 15c0,2 1,3 3,3 3,0 4,-1 4,-3l0 -15c0,-7 -6,-13 -12,-13l-21 0 0 -33c0,-13 -10,-24 -23,-24l-51 0c-13,0 -24,11 -24,24l0 17c0,2 2,4 4,4 2,0 4,-2 4,-4l0 -17c0,-9 7,-17 16,-17l51 0c9,0 16,8 16,17l0 51 -6 0 0 -14c0,0 0,0 0,0 0,0 0,0 0,0l0 -34c0,-7 -6,-13 -13,-13l-44 0c-8,0 -14,6 -14,13l0 48 -6 0 0 -14c0,0 0,0 0,0 0,0 0,0 0,0l0 -6c0,-2 -2,-3 -4,-3 -2,0 -4,1 -4,3l0 2 -20 0c-7,0 -12,6 -12,13l0 139c0,7 5,13 12,13l105 0 0 2c0,6 5,10 11,10l96 0c6,0 10,-4 10,-10l3 -27c0,-2 -2,-4 -4,-4 -2,-1 -3,1 -3,3l-2 27c0,2 -2,4 -4,4l-96 0c-2,0 -4,-2 -4,-4l-1 -5c0,0 0,-1 0,-1l-1 -20c0,0 0,0 0,0l-4 -58c0,-1 0,-2 1,-2 0,-1 1,-1 2,-1l19 0 0 5c-4,2 -8,6 -8,12 0,6 5,12 12,12 6,0 12,-6 12,-12 0,-6 -3,-10 -9,-12l0 -5 57 0 0 5c-5,2 -8,6 -8,12 0,6 5,12 12,12 6,0 12,-6 12,-12 0,-6 -4,-10 -9,-12l0 -5 20 0c1,0 1,0 2,1 0,0 1,1 1,2l-3 43c0,2 1,4 3,4 2,0 4,-2 4,-4l3 -43c0,-2 -1,-6 -3,-7l0 0 0 0zm-178 -111l44 0c3,0 6,2 6,6l0 30 -57 0 0 -30c0,-4 3,-6 7,-6zm-48 193c-2,0 -5,-2 -5,-5l0 -9 108 0 1 14 -104 0zm137 -61c0,3 -2,5 -5,5 -3,0 -5,-2 -5,-5 0,-2 1,-3 2,-4 0,1 1,2 3,2 1,0 3,-1 3,-2 1,1 2,2 2,4l0 0zm64 0c0,3 -2,5 -5,5 -3,0 -5,-2 -5,-5 0,-2 1,-3 2,-4 0,1 1,2 3,2 1,0 2,-1 3,-2 1,1 2,2 2,4zm-50 -24l0 -13c0,-2 -1,-4 -4,-4 -2,0 -3,2 -3,4l0 13 -9 0 0 -2c0,-16 13,-29 29,-29 15,0 28,13 28,29l0 2 -41 0 0 0zm0 0z"></path>
  </g>
 </g>
</svg>
