<?xml version="1.0" encoding="UTF-8"?>
<svg xmlns="http://www.w3.org/2000/svg" xmlns:xlink="http://www.w3.org/1999/xlink" xml:space="preserve" version="1.1" style="shape-rendering:geometricPrecision; text-rendering:geometricPrecision; image-rendering:optimizeQuality; fill-rule:evenodd; clip-rule:evenodd" viewBox="3198 9794 19004 5812">
 <defs>
  <style type="text/css">
   <![CDATA[
    .fil2 {fill:#FEFEFE}
    .fil1 {fill:#D42E12}
    .fil0 {fill:#1C1B17;fill-rule:nonzero}
   ]]>
  </style>
 </defs>
 <g id="Layer_x0020_1">
  <metadata id="CorelCorpID_0Corel-Layer"></metadata>
  <g id="_2080026983712">
   <path class="fil0" d="M11443 11919l0 2314 -564 0 0 -952 -876 0 0 952 -564 0 0 -2314 564 0 0 907 876 0 0 -907 564 0zm1846 1906l-864 0 -138 408 -590 0 837 -2314 653 0 837 2314 -597 0 -138 -408zm-145 -436l-287 -847 -283 847 570 0zm3754 -1470l0 2314 -564 0 0 -1387 -517 1387 -455 0 -521 -1391 0 1391 -563 0 0 -2314 665 0 650 1602 643 -1602 662 0zm969 1879l738 0 0 435 -1301 0 0 -2314 563 0 0 1879zm2449 27l-863 0 -139 408 -590 0 837 -2314 653 0 837 2314 -596 0 -139 -408zm-145 -436l-287 -847 -283 847 570 0zm1698 -1470l0 2314 -564 0 0 -2314 564 0z"></path>
   <path class="fil0" d="M9613 14733l0 863 -211 0 0 -863 211 0zm924 863l-210 0 -352 -532 0 532 -210 0 0 -863 210 0 352 535 0 -535 210 0 0 863zm475 -863c91,0 171,18 239,54 68,36 120,87 158,152 37,65 56,140 56,225 0,85 -19,160 -56,225 -38,66 -90,117 -159,153 -68,36 -148,54 -238,54l-323 0 0 -863 323 0zm-13 681c79,0 141,-22 185,-65 45,-44 67,-105 67,-185 0,-79 -22,-141 -67,-185 -44,-45 -106,-67 -185,-67l-100 0 0 502 100 0zm790 -681l0 516c0,52 13,91 38,119 26,28 63,42 112,42 49,0 87,-14 113,-42 26,-28 39,-67 39,-119l0 -516 211 0 0 515c0,77 -17,142 -50,195 -32,54 -77,94 -132,121 -55,27 -117,40 -185,40 -68,0 -129,-13 -182,-40 -54,-26 -96,-66 -127,-120 -32,-54 -47,-119 -47,-196l0 -515 210 0zm972 871c-63,0 -119,-10 -169,-30 -50,-21 -90,-51 -120,-91 -30,-41 -46,-89 -48,-145l224 0c3,32 14,56 33,73 19,17 44,25 74,25 31,0 56,-7 74,-22 18,-14 27,-34 27,-59 0,-22 -7,-39 -22,-53 -14,-14 -32,-25 -53,-34 -20,-9 -50,-20 -89,-31 -55,-17 -101,-35 -136,-52 -35,-17 -66,-42 -91,-76 -25,-34 -38,-77 -38,-132 0,-80 29,-143 87,-188 58,-46 134,-68 227,-68 96,0 172,22 230,68 58,45 90,109 94,190l-228 0c-1,-28 -12,-50 -30,-66 -19,-16 -43,-24 -73,-24 -25,0 -46,7 -61,20 -16,14 -24,33 -24,59 0,28 13,49 40,65 26,15 67,32 123,50 55,19 101,37 135,54 35,17 65,42 91,75 25,33 38,75 38,127 0,49 -13,94 -38,134 -25,40 -61,72 -109,96 -47,23 -103,35 -168,35zm1064 -871l0 168 -228 0 0 695 -210 0 0 -695 -229 0 0 -168 667 0zm546 863l-179 -326 -51 0 0 326 -210 0 0 -863 353 0c68,0 126,12 174,36 48,23 83,56 107,97 24,42 36,88 36,139 0,57 -16,108 -49,153 -32,45 -80,77 -143,96l199 342 -237 0zm-230 -475l131 0c38,0 67,-9 86,-28 19,-19 29,-45 29,-80 0,-33 -10,-58 -29,-77 -19,-19 -48,-29 -86,-29l-131 0 0 214zm801 -388l0 863 -210 0 0 -863 210 0zm363 168l0 175 281 0 0 162 -281 0 0 189 318 0 0 169 -528 0 0 -863 528 0 0 168 -318 0zm767 703c-63,0 -120,-10 -170,-30 -50,-21 -90,-51 -120,-91 -29,-41 -45,-89 -47,-145l224 0c3,32 14,56 33,73 19,17 43,25 74,25 31,0 55,-7 73,-22 19,-14 27,-34 27,-59 0,-22 -7,-39 -21,-53 -14,-14 -32,-25 -53,-34 -21,-9 -50,-20 -89,-31 -56,-17 -101,-35 -136,-52 -36,-17 -66,-42 -91,-76 -26,-34 -38,-77 -38,-132 0,-80 29,-143 87,-188 58,-46 134,-68 227,-68 95,0 172,22 230,68 58,45 89,109 93,190l-227 0c-2,-28 -12,-50 -31,-66 -19,-16 -43,-24 -72,-24 -26,0 -46,7 -62,20 -15,14 -23,33 -23,59 0,28 13,49 39,65 27,15 68,32 123,50 56,19 101,37 136,54 35,17 65,42 90,75 26,33 38,75 38,127 0,49 -12,94 -37,134 -25,40 -61,72 -109,96 -47,23 -103,35 -168,35zm1362 -593c0,50 -12,95 -35,137 -23,41 -58,75 -105,100 -48,25 -107,38 -177,38l-131 0 0 310 -210 0 0 -863 341 0c68,0 126,12 174,36 48,23 83,56 107,98 24,42 36,90 36,144zm-333 108c40,0 70,-10 89,-28 20,-19 30,-46 30,-80 0,-35 -10,-61 -30,-80 -19,-19 -49,-28 -89,-28l-115 0 0 216 115 0zm1252 -386l-306 863 -263 0 -306 -863 223 0 214 651 215 -651 223 0zm708 0l0 168 -229 0 0 695 -210 0 0 -695 -229 0 0 -168 668 0zm204 873c-37,0 -67,-11 -91,-33 -23,-22 -35,-49 -35,-81 0,-32 12,-60 35,-82 24,-22 54,-33 91,-33 36,0 65,11 89,33 23,22 35,50 35,82 0,32 -12,59 -35,81 -24,22 -53,33 -89,33zm719 -173l275 0 0 163 -485 0 0 -863 210 0 0 700zm996 -700l0 168 -228 0 0 695 -210 0 0 -695 -229 0 0 -168 667 0zm429 0c91,0 171,18 239,54 68,36 120,87 158,152 37,65 56,140 56,225 0,85 -19,160 -56,225 -38,66 -90,117 -159,153 -68,36 -148,54 -238,54l-323 0 0 -863 323 0zm-13 681c79,0 141,-22 185,-65 45,-44 67,-105 67,-185 0,-79 -22,-141 -67,-185 -44,-45 -106,-67 -185,-67l-100 0 0 502 100 0zm682 192c-37,0 -67,-11 -90,-33 -24,-22 -35,-49 -35,-81 0,-32 11,-60 35,-82 23,-22 53,-33 90,-33 36,0 66,11 89,33 23,22 35,50 35,82 0,32 -12,59 -35,81 -23,22 -53,33 -89,33z"></path>
   <g>
    <path class="fil1" d="M8464 9795l0 5750 -1557 0 0 -2144 3 -3c156,-146 283,-323 371,-519l20 -43 0 2303 768 0 0 -4939 -771 0 0 1890c0,817 -650,1486 -1445,1486 -165,0 -326,-20 -479,-66l0 -466c125,58 270,84 479,84 578,0 1051,-445 1051,-1038l0 -1895 4 -401 1556 1zm-5266 5750l0 0 0 -5750 1557 0 0 2144 -4 2c-155,146 -282,323 -371,520l-20 43 0 -2304 -768 0 0 4939 771 0 0 -1890c0,-817 651,-1486 1445,-1486 275,0 541,81 770,231l0 503c-196,-213 -474,-328 -770,-328 -577,0 -1050,487 -1050,1080l0 1895 -5 401 -1555 0z"></path>
    <path class="fil2" d="M5374 13131c155,59 311,86 465,82 249,-5 498,-89 747,-241l0 60c-248,146 -497,227 -746,232 -155,4 -310,-22 -466,-79l0 -54z"></path>
    <path class="fil2" d="M5374 13257c155,61 311,88 465,87 249,-4 498,-85 747,-235l0 60c-248,145 -497,222 -746,226 -155,2 -310,-25 -466,-83l0 -55z"></path>
    <path class="fil2" d="M5374 13377c155,61 311,90 465,89 249,-2 498,-81 747,-230l0 60c-248,143 -497,220 -746,221 -155,2 -310,-26 -466,-85l0 -55z"></path>
   </g>
  </g>
 </g>
</svg>
