<?xml version="1.0" encoding="UTF-8"?>
<svg xmlns="http://www.w3.org/2000/svg" xmlns:xlink="http://www.w3.org/1999/xlink" width="480" height="80" viewBox="0 0 480 80">
  <defs>
    <clipPath id="clip-custom_1">
      <rect width="480" height="80"></rect>
    </clipPath>
  </defs>
  <g id="custom_1" data-name="custom – 1" clip-path="url(#clip-custom_1)">
    <rect width="480" height="80" fill="#fff"></rect>
    <g id="_001-browser" data-name="001-browser" transform="translate(1 1)">
      <g id="Group_2" data-name="Group 2">
        <g id="Group_1" data-name="Group 1">
          <path id="Path_1" data-name="Path 1" d="M70.3,0H7.272A7.272,7.272,0,0,0,0,7.272V70.3a7.272,7.272,0,0,0,7.272,7.272H70.3A7.272,7.272,0,0,0,77.573,70.3V7.272A7.272,7.272,0,0,0,70.3,0Zm2.424,70.3A2.424,2.424,0,0,1,70.3,72.724H7.272A2.424,2.424,0,0,1,4.848,70.3V24.241H72.724Zm0-50.907H4.848V7.272A2.424,2.424,0,0,1,7.272,4.848H70.3a2.424,2.424,0,0,1,2.424,2.424Z"></path>
          <rect id="Rectangle_8" data-name="Rectangle 8" width="4" height="4" transform="translate(9.79 9.79)"></rect>
          <rect id="Rectangle_9" data-name="Rectangle 9" width="5" height="4" transform="translate(19.79 9.79)"></rect>
          <rect id="Rectangle_10" data-name="Rectangle 10" width="5" height="4" transform="translate(62.79 9.79)"></rect>
          <path id="Path_2" data-name="Path 2" d="M106.389,267.611l3.418-3.418-7.975-8,7.975-7.975-3.418-3.418-9.7,9.7a2.424,2.424,0,0,0,0,3.418Z" transform="translate(-81.444 -207.711)" fill="#f35341"></path>
          <path id="Path_3" data-name="Path 3" d="M328.218,267.611l9.7-9.7a2.424,2.424,0,0,0,0-3.418l-9.7-9.7-3.418,3.418,7.975,7.975-7.975,7.975Z" transform="translate(-275.59 -207.711)" fill="#f35341"></path>
          <rect id="Rectangle_11" data-name="Rectangle 11" width="4.848" height="26.108" transform="translate(41.389 35.486) rotate(21.809)" fill="#f35341"></rect>
        </g>
      </g>
    </g>
    <g id="Group_33" data-name="Group 33" transform="translate(-1067.008 1105)">
      <g id="_002-synchronize" data-name="002-synchronize" transform="translate(1148.008 -1101)">
        <g id="Group_3" data-name="Group 3" transform="translate(42.245 26.997)">
          <path id="Path_4" data-name="Path 4" d="M23.561,22H15.437a2.437,2.437,0,0,1,0-4.874h5.687V11.437a2.437,2.437,0,1,1,4.874,0v8.124A2.438,2.438,0,0,1,23.561,22Z" transform="translate(-13 -9)" fill="#f35341"></path>
        </g>
        <g id="Group_4" data-name="Group 4" transform="translate(23.101 26.997)">
          <path id="Path_5" data-name="Path 5" d="M9.553,24.176a2.533,2.533,0,0,1-.6-.071,2.441,2.441,0,0,1-1.768-2.96A16.111,16.111,0,0,1,22.841,9,15.928,15.928,0,0,1,32.9,12.539a15.025,15.025,0,0,1,4.644,6.09,2.437,2.437,0,0,1-4.5,1.862,10.186,10.186,0,0,0-3.172-4.14,11.084,11.084,0,0,0-7.022-2.479,11.229,11.229,0,0,0-10.925,8.462,2.449,2.449,0,0,1-2.366,1.843Z" transform="translate(-7.109 -9)" fill="#f35341"></path>
        </g>
        <g id="Group_5" data-name="Group 5" transform="translate(24.271 44.315)">
          <path id="Path_6" data-name="Path 6" d="M22.356,29.508A15.928,15.928,0,0,1,12.3,25.969a15.025,15.025,0,0,1-4.644-6.09,2.437,2.437,0,1,1,4.5-1.865,10.165,10.165,0,0,0,3.172,4.14,11.084,11.084,0,0,0,7.022,2.479,11.225,11.225,0,0,0,10.925-8.462,2.438,2.438,0,0,1,4.728,1.193,16.1,16.1,0,0,1-15.65,12.144Z" transform="translate(-7.469 -14.329)" fill="#f35341"></path>
        </g>
        <g id="Group_6" data-name="Group 6" transform="translate(22.748 46.495)">
          <path id="Path_7" data-name="Path 7" d="M9.437,28A2.438,2.438,0,0,1,7,25.561V17.437A2.438,2.438,0,0,1,9.437,15h8.124a2.437,2.437,0,0,1,0,4.874H11.874v5.687A2.438,2.438,0,0,1,9.437,28Z" transform="translate(-7 -15)" fill="#f35341"></path>
        </g>
        <g id="Group_7" data-name="Group 7" transform="translate(0 1)">
          <path id="Path_8" data-name="Path 8" d="M69.055,72.492H8.937A8.944,8.944,0,0,1,0,63.556V9.937A8.944,8.944,0,0,1,8.937,1H69.055a8.944,8.944,0,0,1,8.937,8.937V63.556A8.944,8.944,0,0,1,69.055,72.492ZM8.937,5.874A4.068,4.068,0,0,0,4.874,9.937V63.556a4.068,4.068,0,0,0,4.062,4.062H69.055a4.068,4.068,0,0,0,4.062-4.062V9.937a4.068,4.068,0,0,0-4.062-4.062Z" transform="translate(0 -1)"></path>
        </g>
        <g id="Group_8" data-name="Group 8" transform="translate(0 12.374)">
          <path id="Path_9" data-name="Path 9" d="M75.554,9.374H2.437a2.437,2.437,0,0,1,0-4.874H75.554a2.437,2.437,0,1,1,0,4.874Z" transform="translate(0 -4.5)"></path>
        </g>
      </g>
    </g>
    <g id="Group_34" data-name="Group 34" transform="translate(-1171 1164)">
      <g id="_003-apps" data-name="003-apps" transform="translate(1349 -1163)">
        <path id="Path_10" data-name="Path 10" d="M80.059,55.02a1.509,1.509,0,0,1-.3-.028,1.615,1.615,0,0,1-.286-.087,1.562,1.562,0,0,1-.262-.14,1.537,1.537,0,0,1-.231-.188,1.617,1.617,0,0,1-.188-.231,1.646,1.646,0,0,1-.14-.263,1.443,1.443,0,0,1-.087-.284,1.473,1.473,0,0,1,0-.594,1.443,1.443,0,0,1,.087-.284,1.615,1.615,0,0,1,.14-.262,1.46,1.46,0,0,1,.419-.42,1.5,1.5,0,0,1,.547-.226,1.533,1.533,0,0,1,1.371.414,1.5,1.5,0,0,1,.188.232,1.57,1.57,0,0,1,.14.262,1.514,1.514,0,0,1,0,1.163,1.536,1.536,0,0,1-.328.494A1.53,1.53,0,0,1,80.059,55.02Zm0,0" transform="translate(-66.602 -44.081)"></path>
        <path id="Path_11" data-name="Path 11" d="M36.787,0H6.892A6.9,6.9,0,0,0,0,6.892V70.927a6.9,6.9,0,0,0,6.892,6.892H36.787a6.9,6.9,0,0,0,6.892-6.892V6.892A6.9,6.9,0,0,0,36.787,0ZM6.892,3.04H36.787a3.857,3.857,0,0,1,3.852,3.852V7.9H20.725a1.52,1.52,0,1,0,0,3.04H40.639V65.357H3.04V10.94H7.046a1.52,1.52,0,0,0,0-3.04H3.04V6.892A3.857,3.857,0,0,1,6.892,3.04ZM40.639,70.927a3.857,3.857,0,0,1-3.852,3.852H6.892A3.857,3.857,0,0,1,3.04,70.927V68.4h37.6Zm0,0"></path>
        <path id="Path_12" data-name="Path 12" d="M54.5,148.816H43.77a1.52,1.52,0,0,1-1.52-1.52V136.571a1.52,1.52,0,0,1,1.52-1.52H54.5a1.52,1.52,0,0,1,1.52,1.52V147.3A1.52,1.52,0,0,1,54.5,148.816Zm-9.206-3.04h7.686v-7.686H45.29Zm0,0" transform="translate(-35.828 -114.525)" fill="#f35341"></path>
        <path id="Path_13" data-name="Path 13" d="M166.8,148.816H156.078a1.52,1.52,0,0,1-1.52-1.52V136.571a1.52,1.52,0,0,1,1.52-1.52H166.8a1.52,1.52,0,0,1,1.52,1.52V147.3A1.52,1.52,0,0,1,166.8,148.816Zm-9.206-3.04h7.686v-7.686H157.6Zm0,0" transform="translate(-131.067 -114.525)" fill="#f35341"></path>
        <path id="Path_14" data-name="Path 14" d="M54.5,260.121H43.77a1.52,1.52,0,0,1-1.52-1.52V247.875a1.52,1.52,0,0,1,1.52-1.52H54.5a1.52,1.52,0,0,1,1.52,1.52V258.6A1.52,1.52,0,0,1,54.5,260.121Zm-9.206-3.04h7.686V249.4H45.29Zm0,0" transform="translate(-35.828 -208.912)" fill="#f35341"></path>
        <path id="Path_15" data-name="Path 15" d="M166.8,260.121H156.078a1.52,1.52,0,0,1-1.52-1.52V247.875a1.52,1.52,0,0,1,1.52-1.52H166.8a1.52,1.52,0,0,1,1.52,1.52V258.6A1.52,1.52,0,0,1,166.8,260.121Zm-9.206-3.04h7.686V249.4H157.6Zm0,0" transform="translate(-131.067 -208.912)"></path>
        <path id="Path_16" data-name="Path 16" d="M126.625,464.044h-3.749a1.52,1.52,0,0,1,0-3.04h3.749a1.52,1.52,0,0,1,0,3.04Zm0,0" transform="translate(-102.911 -390.936)"></path>
        <path id="Path_17" data-name="Path 17" d="M112.243,364.04H102.211a1.52,1.52,0,0,1,0-3.04h10.031a1.52,1.52,0,0,1,0,3.04Zm0,0" transform="translate(-85.387 -306.132)"></path>
      </g>
    </g>
    <g id="_004-speedometer" data-name="004-speedometer" transform="translate(241 2)">
      <path id="Path_18" data-name="Path 18" d="M38.717,77.434A38.717,38.717,0,1,0,0,38.717,38.8,38.8,0,0,0,38.717,77.434ZM16.506,64.675a29.812,29.812,0,0,1,44.422,0,34.11,34.11,0,0,1-44.422,0ZM13.715,36.449a24.994,24.994,0,0,1,5.727-13.8l3.083,3.083,3.209-3.209L22.65,19.442a24.994,24.994,0,0,1,13.8-5.727v4.434h4.537V13.715a24.994,24.994,0,0,1,13.8,5.727L51.7,22.525l3.209,3.209,3.083-3.083a25,25,0,0,1,5.727,13.8H59.286v4.535h4.433A25.275,25.275,0,0,1,57.3,55.668a34.372,34.372,0,0,0-37.166,0,25.272,25.272,0,0,1-6.418-14.682h4.433V36.449Zm25-31.911A34.161,34.161,0,0,1,64.174,61.5a33.961,33.961,0,0,0-3.216-3.117A29.661,29.661,0,1,0,9.074,38.717a29.864,29.864,0,0,0,7.4,19.665A33.961,33.961,0,0,0,13.26,61.5,34.161,34.161,0,0,1,38.717,4.537Zm0,0"></path>
      <path id="Path_19" data-name="Path 19" d="M211,392h13.611v4.537H211Zm0,0" transform="translate(-179.089 -332.714)" fill="#f35341"></path>
      <path id="Path_20" data-name="Path 20" d="M173.615,182.971a6.806,6.806,0,1,0,9.353-9.353l-.117-.071-17.066-7.758,7.759,17.065Zm7.088-5.417a2.269,2.269,0,1,1-3.152,3.152l-2.627-5.779Zm0,0" transform="translate(-140.712 -140.715)" fill="#f35341"></path>
    </g>
    <g id="_005-responsive" data-name="005-responsive" transform="translate(321 -38.545)">
      <g id="Group_10" data-name="Group 10" transform="translate(40.745 90.833)">
        <g id="Group_9" data-name="Group 9">
          <circle id="Ellipse_1" data-name="Ellipse 1" cx="1.771" cy="1.771" r="1.771" fill="#f35341"></circle>
        </g>
      </g>
      <g id="Group_12" data-name="Group 12" transform="translate(10.629 101.462)">
        <g id="Group_11" data-name="Group 11" transform="translate(0 0)">
          <circle id="Ellipse_2" data-name="Ellipse 2" cx="1.771" cy="1.771" r="1.771" fill="#f35341"></circle>
        </g>
      </g>
      <g id="Group_14" data-name="Group 14" transform="translate(7.086 46.545)">
        <g id="Group_13" data-name="Group 13" transform="translate(0 0)">
          <path id="Path_21" data-name="Path 21" d="M112.092,46.545H51.861a5.22,5.22,0,0,0-5.315,5.315V69.575a1.771,1.771,0,1,0,3.543,0V51.86a1.674,1.674,0,0,1,1.771-1.771h60.231a1.674,1.674,0,0,1,1.771,1.771V94.376a1.674,1.674,0,0,1-1.771,1.771H69.575a1.771,1.771,0,0,0,0,3.543h3.543V105a1.674,1.674,0,0,1-1.771,1.771H69.576a1.771,1.771,0,1,0,0,3.543h24.8a1.771,1.771,0,0,0,0-3.543H92.605A1.674,1.674,0,0,1,90.834,105V99.69h21.258a5.22,5.22,0,0,0,5.315-5.315V51.86A5.22,5.22,0,0,0,112.092,46.545ZM76.307,106.776A5.24,5.24,0,0,0,76.661,105V99.69H87.29V105a5.243,5.243,0,0,0,.354,1.771Z" transform="translate(-46.546 -46.545)"></path>
        </g>
      </g>
      <g id="Group_16" data-name="Group 16" transform="translate(28.344 85.518)">
        <g id="Group_15" data-name="Group 15">
          <path id="Path_22" data-name="Path 22" d="M226.927,302.545H187.953a1.771,1.771,0,1,0,0,3.543h38.973a1.771,1.771,0,0,0,0-3.543Z" transform="translate(-186.182 -302.545)" fill="#f35341"></path>
        </g>
      </g>
      <g id="Group_18" data-name="Group 18" transform="translate(0 74.889)">
        <g id="Group_17" data-name="Group 17" transform="translate(0 0)">
          <path id="Path_23" data-name="Path 23" d="M19.487,232.727H5.315A5.22,5.22,0,0,0,0,238.042v24.8a5.22,5.22,0,0,0,5.315,5.315H19.487a5.22,5.22,0,0,0,5.315-5.315v-24.8A5.22,5.22,0,0,0,19.487,232.727Zm1.771,30.116a1.674,1.674,0,0,1-1.771,1.771H5.315a1.674,1.674,0,0,1-1.771-1.771v-24.8a1.674,1.674,0,0,1,1.771-1.771H19.487a1.674,1.674,0,0,1,1.771,1.771Z" transform="translate(0 -232.727)"></path>
        </g>
      </g>
    </g>
    <g id="_006-gear" data-name="006-gear" transform="translate(401 2)">
      <g id="Group_20" data-name="Group 20" transform="translate(52.161 52.161)">
        <g id="Group_19" data-name="Group 19">
          <path id="Path_24" data-name="Path 24" d="M348.571,346.44a1.507,1.507,0,1,0,0,2.132A1.506,1.506,0,0,0,348.571,346.44Z" transform="translate(-345.998 -345.998)"></path>
        </g>
      </g>
      <g id="Group_22" data-name="Group 22" transform="translate(22.01 22.01)">
        <g id="Group_21" data-name="Group 21">
          <path id="Path_25" data-name="Path 25" d="M148.571,146.44a1.507,1.507,0,1,0,0,2.132A1.506,1.506,0,0,0,148.571,146.44Z" transform="translate(-145.997 -145.997)"></path>
        </g>
      </g>
      <g id="Group_24" data-name="Group 24">
        <g id="Group_23" data-name="Group 23">
          <path id="Path_26" data-name="Path 26" d="M72.664,31.056H66.206a28.377,28.377,0,0,0-2.767-6.648l3.936-3.936a4.522,4.522,0,0,0,0-6.4L63.11,9.811a4.522,4.522,0,0,0-6.4,0l-3.937,3.937a28.351,28.351,0,0,0-6.648-2.767V4.523A4.528,4.528,0,0,0,41.608,0h-6.03a4.528,4.528,0,0,0-4.523,4.523v6.458a28.369,28.369,0,0,0-6.648,2.766L20.471,9.811a4.528,4.528,0,0,0-6.4,0L9.811,14.076a4.527,4.527,0,0,0,0,6.4l3.937,3.936a28.373,28.373,0,0,0-2.766,6.648H4.523A4.528,4.528,0,0,0,0,35.578v6.03a4.528,4.528,0,0,0,4.523,4.523h6.458a28.369,28.369,0,0,0,2.766,6.648L9.811,56.715a4.527,4.527,0,0,0,0,6.4l4.265,4.265a4.527,4.527,0,0,0,6.4,0l3.936-3.937a28.369,28.369,0,0,0,6.648,2.767v6.458a4.528,4.528,0,0,0,4.523,4.523h6.03a4.528,4.528,0,0,0,4.523-4.523V66.205a28.366,28.366,0,0,0,6.648-2.766l3.937,3.937a4.522,4.522,0,0,0,6.4,0l4.265-4.265a4.522,4.522,0,0,0,0-6.4l-3.936-3.936a28.383,28.383,0,0,0,2.767-6.648h6.458a4.528,4.528,0,0,0,4.523-4.523v-6.03A4.528,4.528,0,0,0,72.664,31.056Zm1.508,10.553a1.509,1.509,0,0,1-1.508,1.508H65.03a1.507,1.507,0,0,0-1.47,1.172,25.4,25.4,0,0,1-3.3,7.919,1.508,1.508,0,0,0,.209,1.87l4.77,4.77a1.506,1.506,0,0,1,0,2.131l-4.265,4.265a1.507,1.507,0,0,1-2.131,0l-4.77-4.77a1.508,1.508,0,0,0-1.87-.209,25.394,25.394,0,0,1-7.919,3.3,1.507,1.507,0,0,0-1.172,1.47v7.634a1.509,1.509,0,0,1-1.508,1.508h-6.03a1.509,1.509,0,0,1-1.508-1.508V65.03A1.508,1.508,0,0,0,32.9,63.56a25.394,25.394,0,0,1-7.919-3.3,1.508,1.508,0,0,0-1.871.209l-4.77,4.77a1.509,1.509,0,0,1-2.131,0l-4.265-4.265a1.509,1.509,0,0,1,0-2.131l4.77-4.77a1.508,1.508,0,0,0,.209-1.87,25.4,25.4,0,0,1-3.3-7.919,1.508,1.508,0,0,0-1.47-1.172H4.523a1.509,1.509,0,0,1-1.508-1.508v-6.03a1.509,1.509,0,0,1,1.508-1.508h7.634a1.508,1.508,0,0,0,1.47-1.172,25.394,25.394,0,0,1,3.3-7.919,1.508,1.508,0,0,0-.209-1.87l-4.77-4.77a1.509,1.509,0,0,1,0-2.131l4.265-4.265a1.509,1.509,0,0,1,2.131,0l4.77,4.77a1.507,1.507,0,0,0,1.87.209,25.4,25.4,0,0,1,7.919-3.3,1.508,1.508,0,0,0,1.172-1.47V4.523a1.509,1.509,0,0,1,1.508-1.508h6.03a1.509,1.509,0,0,1,1.508,1.508v7.634a1.508,1.508,0,0,0,1.172,1.47,25.392,25.392,0,0,1,7.919,3.3,1.508,1.508,0,0,0,1.87-.209l4.77-4.77a1.507,1.507,0,0,1,2.131,0l4.265,4.265a1.506,1.506,0,0,1,0,2.131l-4.77,4.77a1.508,1.508,0,0,0-.209,1.87,25.4,25.4,0,0,1,3.3,7.919,1.507,1.507,0,0,0,1.47,1.172h7.634a1.509,1.509,0,0,1,1.508,1.508Z"></path>
        </g>
      </g>
      <g id="Group_26" data-name="Group 26" transform="translate(31.055 34.07)">
        <g id="Group_25" data-name="Group 25">
          <path id="Path_27" data-name="Path 27" d="M220.633,226.441a1.508,1.508,0,0,0-2.132,0l-6.472,6.472-3.457-3.457a1.508,1.508,0,0,0-2.132,2.132l4.523,4.522a1.507,1.507,0,0,0,2.132,0l7.538-7.538A1.508,1.508,0,0,0,220.633,226.441Z" transform="translate(-205.999 -225.999)" fill="#f35341"></path>
        </g>
      </g>
      <g id="Group_28" data-name="Group 28" transform="translate(22.01 22.01)">
        <g id="Group_27" data-name="Group 27">
          <path id="Path_28" data-name="Path 28" d="M162.583,146a16.583,16.583,0,1,0,16.583,16.583A16.6,16.6,0,0,0,162.583,146Zm0,30.151a13.568,13.568,0,1,1,13.568-13.568A13.583,13.583,0,0,1,162.583,176.151Z" transform="translate(-146 -146)" fill="#f35341"></path>
        </g>
      </g>
      <g id="Group_30" data-name="Group 30" transform="translate(37.086 15.98)">
        <g id="Group_29" data-name="Group 29">
          <path id="Path_29" data-name="Path 29" d="M247.508,106a1.508,1.508,0,1,0,0,3.015,19.606,19.606,0,0,1,17.2,29,1.507,1.507,0,1,0,2.644,1.448A22.621,22.621,0,0,0,247.508,106Z" transform="translate(-246 -106)"></path>
        </g>
      </g>
      <g id="Group_32" data-name="Group 32" transform="translate(15.98 26.959)">
        <g id="Group_31" data-name="Group 31">
          <path id="Path_30" data-name="Path 30" d="M128.613,210.061a19.606,19.606,0,0,1-17.2-29,1.508,1.508,0,1,0-2.645-1.448,22.621,22.621,0,0,0,19.845,33.463,1.508,1.508,0,1,0,0-3.015Z" transform="translate(-106 -178.828)"></path>
        </g>
      </g>
    </g>
  </g>
</svg>
