<?xml version="1.0" encoding="UTF-8"?>
<svg xmlns="http://www.w3.org/2000/svg" xmlns:xlink="http://www.w3.org/1999/xlink" width="68px" height="68px" viewBox="0 0 68 68" version="1.1">
  <!-- Generator: Sketch 57.1 (83088) - https://sketch.com -->
  <title>Image / Tools we use / img-pho-code-sniffer</title>
  <desc>Created with Sketch.</desc>
  <g id="Image-/-Tools-we-use-/-img-pho-code-sniffer" stroke="none" stroke-width="1" fill="none" fill-rule="evenodd">
    <g id="php-1" transform="translate(5.000000, 16.000000)" fill-rule="nonzero">
      <ellipse id="Oval" fill="#8993BE" cx="29" cy="15.0958594" rx="29" ry="15.0958594"></ellipse>
      <path d="M8.14378906,24.0342031 L11.3220078,7.94509375 L18.6710156,7.94509375 C21.8490078,8.14378906 23.4381172,9.73267188 23.4381172,12.5137266 C23.4381172,17.2808281 19.6642656,20.0616563 16.2873516,19.8629609 L12.7124219,19.8629609 L11.9178672,24.0342031 L8.14378906,24.0342031 Z M13.50675,16.8836641 L14.5,10.9246172 L17.0821328,10.9246172 C18.4725469,10.9246172 19.4655703,11.5204766 19.4655703,12.7121953 C19.2671016,16.0891094 17.6779922,16.6849688 15.8904141,16.8836641 L13.5069766,16.8836641 L13.50675,16.8836641 Z M22.69975,19.8629609 L25.8777422,3.77407813 L29.6518203,3.77407813 L28.8572656,7.94509375 L32.4324219,7.94509375 C35.6106406,8.14378906 36.8023594,9.73267187 36.4051953,11.7191719 L35.0147813,19.8629609 L31.0422344,19.8629609 L32.4326484,12.5137266 C32.6311172,11.5204766 32.6311172,10.9246172 31.2409297,10.9246172 L28.2614063,10.9246172 L26.4738281,19.8629609 L22.69975,19.8629609 L22.69975,19.8629609 Z M34.7603516,24.0342031 L37.9383437,7.94509375 L45.2875781,7.94509375 C48.4657969,8.14378906 50.0549062,9.73267188 50.0549062,12.5137266 C50.0549062,17.2808281 46.2808281,20.0616563 42.9041406,19.8629609 L39.3287578,19.8629609 L38.5342031,24.0342031 L34.7603516,24.0342031 L34.7603516,24.0342031 Z M40.1230859,16.8836641 L41.1163359,10.9246172 L43.6986953,10.9246172 C45.0891094,10.9246172 46.0821328,11.5204766 46.0821328,12.7121953 C45.8836641,16.0891094 44.2945547,16.6849687 42.5069766,16.8836641 L40.1233125,16.8836641 L40.1230859,16.8836641 Z" id="Shape" fill="#232531"></path>
    </g>
    <path d="M37.911,49.682 C37.911,48.5059941 38.1869972,47.4380048 38.739,46.478 C39.2910028,45.5179952 40.0469952,44.7650027 41.007,44.219 C41.9670048,43.6729973 43.0409941,43.4 44.229,43.4 C45.1050044,43.4 45.9299961,43.5469985 46.704,43.841 C47.4780039,44.1350015 48.164997,44.5579972 48.765,45.11 L47.559,47.414 C47.0789976,46.9219975 46.5660027,46.5500013 46.02,46.298 C45.4739973,46.0459987 44.8710033,45.92 44.211,45.92 C43.4909964,45.92 42.8430029,46.0789984 42.267,46.397 C41.6909971,46.7150016 41.2410016,47.1619971 40.917,47.738 C40.5929984,48.3140029 40.431,48.9679963 40.431,49.7 C40.431,50.4320037 40.5929984,51.0859971 40.917,51.662 C41.2410016,52.2380029 41.6879972,52.6849984 42.258,53.003 C42.8280028,53.3210016 43.4669965,53.48 44.175,53.48 C45.5550069,53.48 46.7369951,52.9460053 47.721,51.878 L48.963,54.218 C47.6669935,55.4060059 46.0830094,56 44.211,56 C43.0349941,56 41.9670048,55.7240028 41.007,55.172 C40.0469952,54.6199972 39.2910028,53.8640048 38.739,52.904 C38.1869972,51.9439952 37.911,50.8700059 37.911,49.682 Z M54.039,56 C52.9229944,56 51.9960037,55.7210028 51.258,55.163 C50.5199963,54.6049972 50.0370011,53.822005 49.809,52.814 L52.077,51.878 C52.3170012,52.9460053 52.9709947,53.48 54.039,53.48 C54.5190024,53.48 54.8939987,53.3870009 55.164,53.201 C55.4340014,53.0149991 55.569,52.7420018 55.569,52.382 C55.569,52.1179987 55.4970007,51.9050008 55.353,51.743 C55.2089993,51.5809992 54.9870015,51.4340007 54.687,51.302 C54.3869985,51.1699993 53.9190032,50.9960011 53.283,50.78 C52.2149947,50.4079981 51.3900029,49.9370028 50.808,49.367 C50.2259971,48.7969971 49.935,48.0260049 49.935,47.054 C49.935,45.9379944 50.3039963,45.0500033 51.042,44.39 C51.7800037,43.7299967 52.7609939,43.4 53.985,43.4 C55.1010056,43.4 56.0279963,43.6789972 56.766,44.237 C57.5040037,44.7950028 57.9869989,45.577995 58.215,46.586 L55.947,47.522 C55.8269994,46.9819973 55.6080016,46.5800013 55.29,46.316 C54.9719984,46.0519987 54.5370028,45.92 53.985,45.92 C53.5049976,45.92 53.1300014,46.0129991 52.86,46.199 C52.5899986,46.3850009 52.455,46.6579982 52.455,47.018 C52.455,47.2820013 52.5269993,47.4949992 52.671,47.657 C52.8150007,47.8190008 53.0369985,47.9659993 53.337,48.098 C53.6370015,48.2300007 54.1049968,48.4039989 54.741,48.62 C55.809,48.9920019 56.6339971,49.4629971 57.216,50.033 C57.7980029,50.6030028 58.089,51.3739951 58.089,52.346 C58.089,53.4620056 57.7200037,54.3499967 56.982,55.01 C56.2439963,55.6700033 55.2630061,56 54.039,56 Z" id="CS" fill="#353535" fill-rule="nonzero"></path>
  </g>
</svg>
