<?xml version="1.0" encoding="UTF-8"?>
<svg xmlns="http://www.w3.org/2000/svg" xmlns:xlink="http://www.w3.org/1999/xlink" width="68px" height="68px" viewBox="0 0 68 68" version="1.1">
  <!-- Generator: Sketch 57.1 (83088) - https://sketch.com -->
  <title>Image / Tools we use / img-travis_ci</title>
  <desc>Created with Sketch.</desc>
  <g id="Image-/-Tools-we-use-/-img-travis_ci" stroke="none" stroke-width="1" fill="none" fill-rule="evenodd">
    <g id="travis-ci-icon" transform="translate(6.000000, 6.000000)" fill="#403E42" fill-rule="nonzero">
      <path d="M36.9131378,33.4863187 C36.981167,35.3717605 37.9897154,35.3576703 39.1891418,35.3136385 C40.8046686,35.2841372 41.6914692,34.7889996 42.5020947,35.1793415 C42.4893254,35.1342089 42.2361426,34.3773022 41.1172944,34.5089573 C41.2471883,34.2289151 41.3024482,33.8498012 41.2630397,33.3291252 C41.1157533,31.4450043 40.0195816,29.9483633 38.817073,29.990854 C37.6176467,30.0318035 36.8466498,31.5964737 36.9131378,33.4863187 L36.9131378,33.4863187 Z M38.7041314,31.1876384 C38.8668894,31.1843392 39.0242425,31.2460865 39.14132,31.3591967 C39.2583975,31.4723068 39.3255305,31.6274386 39.3278419,31.7902136 C39.3339848,32.1286297 39.0652026,32.408242 38.7268078,32.4154652 C38.3870417,32.4207366 38.1072253,32.1497877 38.1015562,31.8100279 C38.0987898,31.6475474 38.1607534,31.4906367 38.2737876,31.3738856 C38.3868219,31.2571344 38.5416464,31.1901284 38.7041314,31.1876384 Z M20.4450231,35.6533439 C20.5696332,35.656206 20.6997471,35.6533439 20.832503,35.6504818 C20.948747,35.6504818 21.0647708,35.6476198 21.1862986,35.6434367 C22.3901281,35.6319885 23.3874484,35.7451502 23.3718171,33.8581673 C23.3520028,31.9714045 22.5145179,30.4435009 21.3109086,30.4562701 C20.1099411,30.4674982 18.9470612,32.014996 19.0164113,33.900658 C19.0375465,34.3929335 19.1097587,34.7465089 19.2255623,35.0025538 C18.1789264,35.267185 17.8891971,35.9135719 17.8720247,35.9545214 C18.5311808,35.5996251 19.2766392,35.6504818 20.4450231,35.6533439 L20.4450231,35.6533439 Z M21.4791101,31.6431474 C21.8185953,31.6316991 22.0999585,31.9005133 22.1114068,32.2399985 C22.1194158,32.578874 21.8518586,32.8604096 21.5130145,32.8696533 C21.3500877,32.8745072 21.1919422,32.8142405 21.073567,32.7021869 C20.9551918,32.5901333 20.8863451,32.4355299 20.882259,32.272582 C20.8773466,32.1097818 20.9375974,31.951751 21.0496466,31.8335435 C21.1616957,31.7153359 21.31628,31.6467241 21.4791101,31.6429272 L21.4791101,31.6431474 Z M24.3039704,11.5353638 L27.6790082,11.5353638 L27.6790082,10.1435185 L28.4385568,10.1435185 L28.4385568,16.5739231 L27.2915283,16.5739231 L27.2915283,20.1713215 L33.1999358,20.1713215 L33.1999358,16.5739231 L32.0513662,16.5739231 L32.0513662,10.1435185 L32.812456,10.1435185 L32.812456,11.5353638 L36.1903558,11.5353638 L36.1903558,6.76980173 L24.3039704,6.76980173 L24.3039704,11.5353638 L24.3039704,11.5353638 Z" id="Shape"></path>
      <path d="M55.9615162,20.7241408 C55.9400147,20.3167144 55.9013055,19.9103787 55.8454924,19.5062211 C55.8170919,19.302574 55.7873704,19.0989269 55.7450999,18.8994628 C55.7054713,18.6929537 55.6658426,18.5018556 55.5993546,18.2770733 L55.5568639,18.1185588 L55.4452433,18.0293944 C54.8014983,17.5258907 54.1097587,17.1439148 53.406791,16.8075118 C52.8255712,16.5329735 52.235545,16.2938808 51.6400148,16.0746025 C49.9751724,11.4574275 47.1177285,7.36379076 43.3565318,4.51361212 C39.4707251,1.56568287 34.9002239,0.00541591184 30.1417069,0.00541591184 C25.380548,0.00541591184 20.8113678,1.56568287 16.9242401,4.51361212 C13.9637618,6.75703251 11.56601,9.77277073 9.86704282,13.2059305 L9.85889694,13.2059305 C9.39590611,14.1380524 8.98647878,15.095833 8.63261121,16.0746025 C8.03553996,16.2938808 7.44573395,16.5329735 6.86429398,16.8072917 C6.15978512,17.144135 5.4695866,17.5258907 4.82584164,18.0293944 L4.7126799,18.1185588 L4.67040937,18.2770733 C4.61133537,18.4820476 4.56218279,18.6897522 4.52312299,18.8994628 C4.48349436,19.0989269 4.45113099,19.302574 4.42405143,19.5062211 C4.38310185,19.7961705 4.35624245,20.0905231 4.33224512,20.3846555 L4.34215227,20.3846555 C4.33191795,20.4981671 4.32384399,20.6118631 4.31793478,20.7256819 C4.27645784,21.5410051 4.3001636,22.3583386 4.38882599,23.1698873 C4.47533288,23.9836509 4.62669644,24.7892055 4.84147293,25.5788673 C4.95411536,25.9763512 5.0858499,26.3681751 5.23621805,26.7529753 C5.31107211,26.9467152 5.39319143,27.1391342 5.48499774,27.3328741 C5.53035049,27.4290836 5.57988627,27.5239722 5.62942205,27.6215026 L5.71000025,27.7643858 C5.74104267,27.8181046 5.7623981,27.8564123 5.80907181,27.9255422 L5.88965001,28.0530143 L6.01976399,28.1195023 C6.15692306,28.1901734 6.27162591,28.2425712 6.39623591,28.3020141 L6.75817733,28.4660326 C6.82466536,28.492892 6.88983243,28.5210724 6.95896236,28.5494729 C5.30821004,30.0742942 3.51457453,32.0561657 1.96289377,34.5060953 L0.00347851248,37.5940456 L2.75480576,35.1793415 C2.80302058,35.138392 5.10852582,33.1424303 8.95624497,30.8778746 L9.00996377,31.3203943 L9.1499849,32.4366005 L9.85449376,38.1611753 C9.86990489,38.270154 9.92648576,38.3679046 10.0171913,38.4299894 L11.4614344,39.444262 C11.4867527,39.5248402 11.5107501,39.6056386 11.5349675,39.6890789 C11.568872,39.8035615 11.5999145,39.9167233 11.6353601,40.031206 L11.9649381,41.0256643 C12.6877202,43.2734878 13.7118999,45.3004919 14.9579999,47.0813582 C14.898557,47.0998515 14.8377931,47.1165836 14.7783502,47.133756 C14.0273878,46.7859048 11.4033124,45.5693061 10.5220159,45.1716989 L8.67884461,44.3443413 L9.76951238,46.0459503 C9.84876963,46.1690192 11.7300284,49.1028583 13.2649771,51.0803266 C14.7034961,52.92636 16.6710573,54.8104808 20.3827181,54.8104808 C20.8491994,54.8084735 21.3152548,54.7820181 21.7789666,54.7312236 C22.8865867,54.6024306 23.7183474,54.5035792 24.3506441,54.4214598 C28.2463579,55.8557958 32.5436418,55.9405571 36.6218675,54.3972424 C37.6902997,53.9917505 38.7172919,53.4845211 39.6886826,52.8825483 C39.7084969,52.8796862 39.7267701,52.8737419 39.7437223,52.8697791 C41.2601776,52.5047554 42.981601,52.0930581 43.8318551,51.8555065 C43.9674731,51.8187399 44.1387568,51.7775702 44.3155445,51.7352997 C45.4995597,51.4651646 47.4783489,51.0039314 48.5322502,48.8934871 C49.5945174,46.7632284 51.3289302,43.5011322 51.3458824,43.4687689 L52.1578289,41.9507724 L50.5806097,42.6370081 C50.4943073,42.6737747 48.4941626,43.5462648 47.4543516,44.0911584 C47.4191262,44.1122937 47.3737734,44.130787 47.3328238,44.1506013 C48.1786748,42.4260958 48.6002793,41.0525237 48.7515285,40.5250226 L49.3217404,38.1726235 L50.9639065,34.4990502 C50.9639065,34.4990502 51.4249195,30.4833497 51.4350468,30.4859916 L51.5962032,28.949722 C51.7404074,28.8889581 52.6175209,28.8281942 52.7885844,28.7603852 C53.0334013,28.6639556 53.2779979,28.5692872 53.5228148,28.4631705 L53.8834352,28.2991521 C54.0109073,28.2397091 54.124069,28.1873113 54.2612281,28.1164201 L54.3911219,28.0501522 L54.4734614,27.9229003 C54.518594,27.8535502 54.5439123,27.8139216 54.5709918,27.7615238 L54.6502491,27.6186405 C54.7052888,27.5211101 54.7519626,27.4262216 54.7957742,27.3302322 C54.8855846,27.1394549 54.9695773,26.9459926 55.0476361,26.7501132 C55.1958072,26.3648195 55.3265672,25.973054 55.4395192,25.5760052 C55.6543944,24.77969 55.8100468,23.9776507 55.8921661,23.1670252 C55.9826515,22.3579408 56.0024658,21.5404904 55.9615162,20.7241408 L55.9615162,20.7241408 Z M18.4845071,30.6359199 C18.5197325,30.6117024 19.9952383,29.6443237 22.4042182,28.4660326 C25.0296772,28.2670232 27.6617269,28.167497 30.2947174,28.167497 C30.984916,28.167497 31.6623453,28.1774041 32.3314085,28.1888524 C31.8646714,28.5651042 31.3723958,28.9200005 30.860306,29.2271223 L29.1586969,30.2568061 C28.0849814,30.38692 27.1543692,30.6541931 27.1032923,30.6685034 C27.0720671,30.6771437 27.0421494,30.6899549 27.0143481,30.7065909 C26.9306877,30.7548058 26.8670617,30.8338428 26.8388813,30.9274104 L25.0989646,36.6577093 L15.8126573,38.72148 L12.8858633,36.6717995 L12.0342882,29.7786207 C13.6949477,29.471719 15.9185537,29.1194646 18.5862206,28.8209289 C18.2939693,29.1668959 18.0183841,29.526604 17.7604041,29.8988275 L16.1717366,32.1792346 L18.4845071,30.6359199 L18.4845071,30.6359199 Z M31.0174995,54.6180618 C29.4854129,54.7199955 27.9295491,54.5403457 26.4060487,54.1229242 C26.5333006,54.0976059 26.6253271,54.0832956 26.7384888,54.0707465 C26.8628787,54.0535741 29.5972537,53.6942746 30.8264015,51.8669548 L30.9424253,51.8695967 L31.248006,51.8667346 C31.4503321,51.8667346 31.6341649,51.8497824 31.8307669,51.8414163 C32.297504,51.8031086 32.74883,51.7352997 33.1972939,51.6448143 C33.2452886,51.691488 33.2906414,51.7381617 33.3401771,51.7890185 C34.2637442,52.7042195 35.4109929,53.2288584 36.6711831,53.3208849 C34.5510517,54.1823671 32.5550901,54.5163484 31.0174995,54.6180618 L31.0174995,54.6180618 Z M31.1561997,51.2657005 C31.386486,50.7520695 31.5606318,50.3518204 31.6920667,50.0504227 C32.0194984,50.4156868 32.35346,50.7750442 32.6937903,51.1283213 C32.3921724,51.173674 32.0951779,51.2119817 31.8023664,51.235979 C31.6101676,51.2443451 31.4091624,51.2657005 31.2253296,51.2657005 L31.1559795,51.2657005 L31.1561997,51.2657005 Z M26.5997886,39.4372169 L27.4300083,39.2505221 C27.5663366,39.220048 27.6755996,39.118361 27.7157747,38.98457 L29.4501874,33.2795894 C29.750044,33.2399607 30.0131341,33.2188255 30.2407785,33.2188255 C30.4613778,33.2188255 30.728871,33.2401809 31.0274067,33.2795894 L32.812456,39.1543126 C32.8578087,39.3042409 32.9863816,39.4132196 33.139172,39.4301718 L33.8011901,39.5050259 L33.9709327,39.5235193 L45.3751698,40.8206962 C45.4698382,40.8319243 45.5631856,40.8050649 45.6409018,40.7513461 L46.7868295,39.9506278 L47.8462347,39.2093524 L48.2381177,38.9337133 C48.1742716,39.2067104 48.1038207,39.4781665 48.0300674,39.7456597 C47.9217712,40.0896719 47.8081555,40.4319868 47.6892613,40.7724814 C47.220983,42.1051039 46.6963441,43.3144374 46.1248113,44.4064261 C45.9580794,44.4173875 45.791041,44.4230412 45.6239495,44.4233784 C45.069369,44.4233784 44.5064224,44.3782458 43.8824917,44.3201238 C42.7993093,44.2197313 41.0833899,44.0231293 40.5428996,43.9623654 C40.0717593,43.5874346 38.4720838,42.3186582 37.1436443,41.2704811 C37.0930077,41.2308525 37.047655,41.1883618 37.0009813,41.1515952 C36.7676127,40.9534521 36.5016606,40.7299907 35.9627114,40.7299907 C35.4704358,40.7299907 34.7546988,40.9083195 33.0246893,41.4300964 C33.9258001,40.7570702 33.9328452,39.8898639 33.9328452,39.8898639 C33.9328452,39.8898639 32.6512996,41.0837862 30.5831258,41.3468763 C28.5206761,41.6128284 26.8983243,40.3438318 26.8983243,40.3438318 C26.9661333,40.5646513 27.0623427,41.0637518 27.530621,41.4868974 C26.9802234,41.4230513 26.3862344,41.3779187 25.7623037,41.3779187 C25.5388423,41.3779187 25.3096568,41.3836428 25.0903784,41.3948709 C23.8200609,41.4629001 22.0323697,43.3809254 20.7774633,45.3174441 C20.1607979,45.5127252 18.2328653,46.1252076 16.0035351,46.7801807 C14.6865439,44.9581446 13.7940192,43.1092492 13.2889744,41.91973 C12.9946218,41.2266694 12.8306034,40.7555291 12.7938368,40.6439085 L12.7938368,40.6410464 C12.7528872,40.5278847 12.7088554,40.4076779 12.6707679,40.2872509 L13.2055342,40.6608608 L13.2055342,40.6635027 L14.5280294,41.5914729 L14.9694482,41.8985948 C15.0359362,41.9452685 15.1165144,41.9690456 15.1929096,41.9690456 C15.22109,41.9690456 15.2494905,41.9664037 15.279212,41.9606796 L26.5997886,39.4372169 L26.5997886,39.4372169 Z M33.6356305,30.9274104 C33.5963958,30.8014086 33.4964731,30.7035538 33.3696784,30.6669623 C33.3117766,30.6486891 32.164528,30.3219731 30.9466083,30.2187185 L31.1700697,30.2015461 C31.3624887,30.187456 34.5607387,29.797114 38.3815985,28.4788018 C42.6123943,28.8026557 46.0666893,29.3220109 48.4289956,29.7517613 L47.5930518,35.6165773 L44.6422605,37.680348 L35.3669611,36.6264468 L33.6356305,30.9274104 Z M53.9981381,23.0270041 C53.8946633,23.7823697 53.5525362,25.2534722 53.5525362,25.2534722 L53.285043,25.297504 C53.1450219,25.2591964 51.8407999,24.9210321 49.5945174,24.5053719 C49.6667296,24.4897406 49.7360797,24.4741093 49.8038886,24.4586982 C50.2699673,24.3444377 50.7275344,24.1978985 51.1732777,24.0201414 C51.3938771,23.925473 51.6144764,23.8248604 51.8225267,23.7059745 C52.0290358,23.5857677 52.231362,23.4527916 52.3896563,23.2731419 C50.1405118,24.0086931 45.4925146,23.6749321 41.3605701,23.2478236 C37.5850632,22.8572615 33.795466,22.6056197 29.9875956,22.5970335 C26.1810462,22.6056197 22.3958522,22.8588026 18.6161622,23.2478236 C14.4842177,23.6749321 9.83754152,24.0086931 7.58839699,23.2731419 C7.74691148,23.4514707 7.95033842,23.5857677 8.15838869,23.7059745 C8.36489785,23.8248604 8.58417623,23.9239319 8.80477556,24.0201414 C9.25112466,24.1974661 9.70910084,24.343995 10.1754856,24.4586982 C10.3395041,24.4967857 10.5066048,24.5335522 10.6734853,24.5632737 C8.62380485,24.9522947 7.43714775,25.2607375 7.30395154,25.297504 C7.30395154,25.297504 6.83149029,25.3738992 6.72823571,25.0117376 C6.52326766,24.2874145 6.38588844,23.7810487 6.28263386,23.0270041 C6.18393295,22.2748567 6.13670907,21.5168473 6.14129177,20.7582654 C6.14261272,20.6336554 6.13975065,20.3846555 6.13975065,20.3846555 C6.14679574,20.1301517 6.15824401,19.8754277 6.18224134,19.6207038 C6.19633152,19.432688 6.88807116,18.8303329 7.48228034,18.4877654 C8.1244842,18.1143758 8.79927159,17.7777526 9.48660804,17.4651268 C10.1668994,17.1425939 12.3722323,16.6743156 13.7019928,16.433902 C15.0317532,16.1906263 19.787188,15.5598707 20.1438456,15.4266745 C20.4989621,15.2910565 22.5541465,13.7065721 22.9134461,13.5751371 C22.1583006,13.699527 11.7216624,15.2936984 11.2520632,15.4423058 C14.6398702,6.58310688 21.2895531,2.26865061 30.140386,2.26865061 C38.9883567,2.26865061 45.6395808,6.34247308 49.0300297,15.2032131 C44.5546372,14.0136939 38.35606,13.4591133 37.6006944,13.3331824 C37.959994,13.4648375 39.9927222,14.8947703 40.3702949,14.9429851 C43.4652904,15.3447753 48.3455553,16.4268569 48.6991307,16.566878 C49.4007775,16.8511033 50.1037452,17.1439148 50.7855777,17.4651268 C51.4746754,17.7777526 52.1479217,18.1143758 52.7901256,18.4877654 C53.3841146,18.8316538 54.0745333,19.432688 54.0912653,19.6209239 C54.124069,20.0000377 54.1381592,20.3776105 54.1427666,20.7569444 C54.1480664,21.5149519 54.0956685,22.2760417 53.9981381,23.0270041 L53.9981381,23.0270041 Z" id="Shape"></path>
    </g>
  </g>
</svg>
