<?xml version="1.0" encoding="UTF-8"?>
<svg xmlns="http://www.w3.org/2000/svg" xmlns:xlink="http://www.w3.org/1999/xlink" width="68px" height="68px" viewBox="0 0 68 68" version="1.1">
  <!-- Generator: Sketch 57.1 (83088) - https://sketch.com -->
  <title>Image / Tools we use / img-semaphore</title>
  <desc>Created with Sketch.</desc>
  <g id="Image-/-Tools-we-use-/-img-semaphore" stroke="none" stroke-width="1" fill="none" fill-rule="evenodd">
    <g id="semaphore" transform="translate(7.000000, 7.000000)" fill="#04D477" fill-rule="nonzero">
      <path d="M34.4990607,23.8596831 C36.1633609,28.067 34.1014956,32.8265379 29.8939665,34.4904137 C27.5535511,35.4153785 25.0446901,35.1847738 22.9906743,34.0782104 L13.4792359,43.5894366 C13.4272597,44.0113988 13.2636937,45.1423592 13.2636937,45.1423592 L12.247081,50.5372799 C13.4261989,51.5761681 14.3320704,52.2599208 15.8523222,52.9184278 C17.4805572,53.6233952 18.7103785,53.8366039 20.3859225,53.9598618 L23.5250748,49.4347474 L23.3553565,49.36389 C25.6571985,49.726656 28.0012488,49.7318797 30.3046849,49.3793768 L30.1604243,49.4387782 L33.255662,53.9728028 C34.8225863,53.8737298 35.948243,53.7161039 37.4886488,53.1070273 C39.1378864,52.4548847 40.1587421,51.7346426 41.4307808,50.6376259 L40.4500211,45.2187324 L40.2756356,45.2900141 C42.1902702,43.9004454 43.8420537,42.2348724 45.2072254,40.378154 L45.1442174,40.5300519 L50.5395625,41.5468768 C51.5784507,40.3673345 52.2622033,39.461463 52.9209225,37.9424842 C53.6256778,36.3138248 53.8386743,35.0831549 53.9621444,33.4078231 L49.4370299,30.2680343 L49.3678697,30.4330854 C49.7306351,28.1511627 49.7425825,25.8272054 49.4032984,23.5416734 L49.4410607,23.6350185 L53.9744489,20.5380836 C53.8751637,18.9709472 53.71775,17.8465634 53.1097342,16.3061576 C52.4563187,14.6552227 51.7371373,13.63564 50.6394842,12.3631769 L45.2212271,13.3435123 C45.2212271,13.3435123 43.8921206,13.5569331 43.4603996,13.6086972 L34.0855845,22.9826637 C34.2407235,23.2665549 34.3788629,23.5594104 34.4992729,23.8596831" id="Path"></path>
      <path d="M30.1254199,19.4860423 C25.9178908,17.8217421 21.158353,19.8833952 19.4946893,24.0913486 C18.5697245,26.4309155 18.7992685,28.9397764 19.9068926,30.9937923 L10.3950299,40.5054428 C9.97327993,40.5578433 8.84210739,40.7216215 8.84210739,40.7216215 L3.44718662,41.7378099 C2.40872271,40.558904 1.72412148,39.6526083 1.06688732,38.1332051 C0.361495599,36.5047579 0.149135563,35.2747245 0.0246047535,33.5983319 L4.55014349,30.4606646 L4.62142518,30.6301708 C4.2585153,28.3282085 4.2531484,25.984018 4.60551408,23.6804181 L4.54611268,23.8253151 L0.0116637324,20.7292289 C0.111373239,19.1620924 0.268574824,18.0370722 0.878287852,16.4968785 C1.52958187,14.8467923 2.24982394,13.8263609 3.34747711,12.55411 L8.76573415,13.5350819 L8.69424032,13.7094674 C10.0850819,11.795257 11.7500185,10.1432614 13.6069489,8.77745335 L13.4546268,8.84046127 L12.4375898,3.44532835 C13.6175563,2.40665229 14.5238521,1.7231118 16.0430431,1.06502905 C17.6708539,0.359425176 18.9013116,0.146428697 20.5770678,0.0227464789 L23.7170687,4.54870951 L23.5518055,4.61786972 C25.8338219,4.25450873 28.1580101,4.24256083 30.4436417,4.58244102 L30.3496602,4.5442544 L33.4465951,0.0104419014 C35.0139437,0.110151408 36.1391761,0.267352993 37.6787333,0.87621743 C39.3292438,1.52836004 40.3496752,2.24860211 41.6212896,3.34498239 L40.6413785,8.76451232 C40.6413785,8.76451232 40.428382,10.0931945 40.3753451,10.5249155 L31.0018028,19.8993063 C30.7180747,19.7444011 30.4254365,19.6064056 30.1254199,19.4860423" id="Path"></path>
    </g>
  </g>
</svg>
