<?xml version="1.0" encoding="UTF-8"?>
<svg xmlns="http://www.w3.org/2000/svg" xmlns:xlink="http://www.w3.org/1999/xlink" id="svg" version="1.1" width="400" height="393.84615384615387" viewBox="0, 0, 400,393.84615384615387">
  <g id="svgg">
    <path id="path0" d="M0.000 197.044 L 0.000 394.089 87.488 394.089 C 164.992 394.089,174.975 394.021,174.975 393.498 C 174.975 393.077,174.548 392.906,173.498 392.906 C 172.685 392.906,170.246 392.472,168.079 391.943 C 165.911 391.414,162.659 390.782,160.852 390.541 C 159.045 390.299,156.411 389.744,154.999 389.308 C 153.587 388.872,151.075 388.281,149.418 387.994 C 147.760 387.708,144.985 386.903,143.251 386.204 C 141.517 385.506,138.793 384.592,137.198 384.172 C 135.603 383.753,133.918 383.174,133.454 382.887 C 132.990 382.600,131.724 382.153,130.640 381.894 C 129.557 381.635,127.695 380.887,126.502 380.231 C 125.310 379.576,123.372 378.700,122.195 378.285 C 121.018 377.870,119.739 377.244,119.352 376.894 C 118.965 376.544,117.875 376.114,116.928 375.937 C 115.439 375.659,112.249 373.984,107.230 370.844 C 106.493 370.383,105.340 369.898,104.669 369.767 C 103.997 369.636,102.559 368.773,101.471 367.849 C 100.384 366.925,99.022 366.051,98.446 365.906 C 97.870 365.762,97.091 365.304,96.715 364.889 C 96.340 364.474,95.330 363.946,94.472 363.714 C 93.563 363.470,92.113 362.547,90.997 361.503 C 89.944 360.518,88.562 359.422,87.925 359.068 C 87.288 358.714,86.043 358.021,85.157 357.529 C 84.271 357.037,83.547 356.493,83.547 356.320 C 83.547 356.147,81.552 354.516,79.113 352.696 C 76.675 350.876,73.793 348.476,72.709 347.362 C 71.626 346.248,70.341 345.211,69.855 345.057 C 69.369 344.903,67.970 343.596,66.745 342.152 C 65.521 340.709,63.879 339.234,63.097 338.875 C 62.137 338.435,61.116 337.385,59.954 335.643 C 58.983 334.186,57.771 332.871,57.171 332.623 C 56.587 332.381,55.411 331.194,54.557 329.985 C 53.703 328.776,52.473 327.204,51.823 326.490 C 51.172 325.777,50.459 324.956,50.238 324.666 C 50.017 324.375,48.731 322.848,47.381 321.271 C 46.031 319.694,44.926 318.152,44.926 317.844 C 44.926 317.537,44.059 316.538,42.998 315.624 C 41.808 314.599,40.884 313.399,40.583 312.487 C 40.315 311.675,39.140 309.915,37.972 308.576 C 35.800 306.086,34.680 304.304,34.680 303.339 C 34.680 303.041,34.251 302.395,33.728 301.903 C 33.204 301.411,32.663 300.559,32.525 300.009 C 32.387 299.459,31.580 298.186,30.733 297.181 C 29.885 296.175,28.936 294.647,28.625 293.785 C 28.314 292.922,27.311 290.887,26.397 289.261 C 22.911 283.059,22.544 282.328,22.274 281.060 C 22.121 280.343,21.214 278.590,20.259 277.166 C 19.304 275.741,18.522 274.193,18.522 273.726 C 18.522 273.258,18.159 272.173,17.715 271.315 C 17.272 270.456,16.670 268.746,16.377 267.515 C 16.085 266.283,15.561 264.869,15.214 264.373 C 14.866 263.876,14.581 263.196,14.581 262.862 C 14.581 262.528,14.070 261.193,13.446 259.896 C 12.821 258.598,12.184 256.653,12.028 255.572 C 11.873 254.491,11.514 253.157,11.230 252.608 C 10.946 252.058,10.437 250.009,10.100 248.054 C 9.763 246.099,9.228 243.881,8.913 243.126 C 8.597 242.371,8.153 240.081,7.924 238.038 C 7.696 235.994,7.076 232.540,6.545 230.363 C 4.215 220.798,4.178 220.351,4.029 199.606 C 3.948 188.254,4.054 178.834,4.287 176.749 C 4.858 171.637,5.799 166.048,6.509 163.547 C 6.848 162.355,7.384 159.517,7.700 157.241 C 8.412 152.124,8.668 150.855,9.099 150.318 C 9.284 150.086,9.637 148.579,9.883 146.968 C 10.128 145.357,10.594 143.330,10.917 142.463 C 11.241 141.596,11.736 139.823,12.018 138.522 C 12.549 136.079,14.051 132.106,15.391 129.602 C 15.813 128.813,16.159 127.749,16.161 127.237 C 16.164 126.725,16.599 125.374,17.129 124.235 C 17.659 123.097,18.216 121.510,18.366 120.709 C 18.516 119.908,19.411 118.102,20.354 116.696 C 21.297 115.290,22.069 113.861,22.069 113.521 C 22.069 112.811,24.666 107.289,25.415 106.404 C 25.924 105.804,27.805 102.221,28.934 99.704 C 29.274 98.946,30.262 97.350,31.130 96.158 C 31.998 94.966,32.708 93.799,32.709 93.566 C 32.709 93.333,33.153 92.726,33.695 92.217 C 34.236 91.708,34.680 90.923,34.681 90.473 C 34.683 89.327,35.987 87.316,37.411 86.263 C 38.072 85.775,38.725 85.022,38.862 84.591 C 39.218 83.468,41.402 80.272,44.154 76.847 C 45.460 75.222,46.948 73.271,47.461 72.512 C 47.974 71.754,49.473 70.069,50.792 68.768 C 52.111 67.468,53.192 66.178,53.196 65.903 C 53.205 65.188,56.303 61.919,57.614 61.241 C 58.220 60.927,58.962 60.084,59.262 59.366 C 59.955 57.706,61.489 56.172,63.460 55.166 C 64.312 54.732,65.263 53.891,65.574 53.297 C 66.306 51.899,68.420 49.919,70.066 49.089 C 70.780 48.729,71.545 48.045,71.766 47.567 C 71.986 47.090,73.154 45.990,74.361 45.123 C 75.567 44.256,77.655 42.527,79.000 41.281 C 80.346 40.034,81.647 39.015,81.892 39.015 C 82.137 39.015,82.920 38.509,83.632 37.890 C 84.344 37.272,85.299 36.570,85.756 36.331 C 86.212 36.091,88.027 34.750,89.790 33.350 C 91.553 31.949,93.569 30.678,94.270 30.524 C 94.972 30.370,96.348 29.566,97.330 28.739 C 98.312 27.911,99.749 26.968,100.525 26.644 C 101.300 26.320,102.154 25.791,102.423 25.467 C 102.692 25.143,103.476 24.760,104.165 24.616 C 105.525 24.332,109.163 22.186,109.163 21.668 C 109.163 21.493,110.403 20.876,111.919 20.297 C 113.434 19.717,114.765 19.097,114.876 18.917 C 114.987 18.738,115.785 18.471,116.649 18.325 C 117.514 18.179,119.242 17.366,120.490 16.518 C 121.738 15.670,123.645 14.694,124.729 14.350 C 125.813 14.006,127.285 13.461,128.000 13.139 C 128.716 12.818,129.957 12.456,130.759 12.335 C 131.561 12.213,132.837 11.797,133.596 11.409 C 136.941 9.698,140.664 8.275,142.749 7.912 C 143.990 7.695,145.533 7.245,146.178 6.912 C 146.822 6.578,147.758 6.302,148.256 6.297 C 149.597 6.285,153.270 5.414,158.818 3.792 C 162.835 2.617,171.525 1.182,174.619 1.182 C 174.815 1.182,174.975 0.916,174.975 0.591 C 174.975 0.067,164.992 0.000,87.488 0.000 L 0.000 0.000 0.000 197.044 M226.995 0.539 C 226.995 0.934,228.175 1.204,231.429 1.552 C 238.084 2.266,240.238 2.739,248.276 5.251 C 249.251 5.555,251.107 5.935,252.399 6.094 C 253.692 6.253,255.564 6.704,256.560 7.097 C 257.556 7.490,259.248 7.939,260.319 8.095 C 261.390 8.251,262.991 8.799,263.877 9.313 C 264.763 9.826,265.741 10.246,266.050 10.246 C 266.360 10.246,267.319 10.626,268.183 11.091 C 269.047 11.555,270.640 12.167,271.724 12.450 C 275.913 13.544,279.593 15.034,281.511 16.411 C 282.610 17.201,284.316 18.075,285.302 18.353 C 288.704 19.312,292.125 20.963,294.186 22.642 C 295.425 23.651,296.867 24.440,297.782 24.609 C 298.623 24.764,299.665 25.202,300.099 25.582 C 300.532 25.962,301.747 26.764,302.799 27.364 C 303.850 27.964,305.030 28.774,305.420 29.164 C 305.811 29.554,307.289 30.427,308.706 31.103 C 310.123 31.780,312.136 33.137,313.178 34.120 C 314.221 35.103,315.678 36.165,316.417 36.482 C 317.156 36.798,318.131 37.414,318.585 37.852 C 319.471 38.708,323.519 41.944,327.678 45.122 C 329.095 46.205,330.349 47.389,330.465 47.753 C 330.581 48.118,331.244 48.779,331.939 49.223 C 335.350 51.404,336.232 52.147,336.801 53.314 C 337.163 54.059,338.401 55.227,339.802 56.146 C 341.405 57.199,342.393 58.176,342.820 59.129 C 343.462 60.563,345.442 62.536,347.127 63.422 C 347.633 63.688,348.353 64.557,348.727 65.352 C 349.100 66.147,350.593 68.008,352.043 69.487 C 353.493 70.966,354.680 72.330,354.680 72.517 C 354.680 72.705,355.389 73.678,356.256 74.680 C 357.123 75.682,357.834 76.623,357.835 76.773 C 357.836 76.922,358.590 77.862,359.510 78.862 C 360.430 79.862,361.714 81.616,362.365 82.759 C 363.015 83.902,364.300 85.655,365.220 86.655 C 366.140 87.655,367.174 89.315,367.518 90.345 C 367.861 91.374,368.289 92.217,368.468 92.217 C 368.648 92.217,369.448 93.414,370.248 94.877 C 371.047 96.340,372.011 97.892,372.391 98.325 C 372.770 98.759,373.766 100.621,374.604 102.463 C 375.442 104.305,376.521 106.300,377.002 106.894 C 377.483 107.489,377.998 108.376,378.147 108.865 C 378.296 109.354,378.641 110.020,378.913 110.345 C 379.185 110.670,379.621 111.645,379.881 112.512 C 380.142 113.379,380.598 114.621,380.895 115.271 C 381.192 115.921,382.011 117.783,382.715 119.409 C 383.420 121.034,384.314 122.832,384.702 123.403 C 385.090 123.974,385.605 125.392,385.846 126.555 C 386.088 127.718,386.525 129.049,386.818 129.513 C 387.111 129.977,387.691 131.662,388.107 133.257 C 388.788 135.866,389.387 137.526,391.208 141.843 C 391.522 142.586,391.919 144.448,392.092 145.981 C 392.265 147.514,392.693 149.655,393.044 150.739 C 393.394 151.823,394.135 154.108,394.690 155.817 C 395.318 157.751,395.990 161.399,396.467 165.472 C 396.889 169.073,397.442 173.261,397.695 174.778 C 398.318 178.505,398.340 214.096,397.722 218.719 C 397.476 220.562,396.927 224.923,396.502 228.411 C 395.804 234.135,394.713 238.838,393.048 243.303 C 392.734 244.144,392.297 246.268,392.077 248.022 C 391.857 249.776,391.441 251.747,391.151 252.403 C 389.741 255.597,387.841 260.853,387.601 262.225 C 387.453 263.070,387.096 264.134,386.809 264.590 C 386.521 265.046,386.089 266.366,385.848 267.523 C 385.608 268.681,384.704 270.840,383.839 272.321 C 382.974 273.802,382.264 275.249,382.261 275.537 C 382.258 275.824,381.726 277.104,381.079 278.381 C 380.431 279.658,379.901 280.932,379.901 281.212 C 379.901 281.921,379.304 283.210,377.906 285.517 C 377.250 286.601,376.438 288.098,376.103 288.843 C 375.768 289.588,375.067 290.827,374.545 291.595 C 374.023 292.363,373.596 293.354,373.596 293.797 C 373.596 294.240,373.108 295.152,372.512 295.823 C 370.496 298.094,370.145 298.615,369.682 300.016 C 369.428 300.785,368.981 301.614,368.688 301.857 C 368.395 302.100,367.682 303.266,367.104 304.448 C 366.526 305.629,365.578 307.085,364.997 307.682 C 363.448 309.275,361.993 311.351,361.408 312.804 C 361.125 313.506,360.213 314.694,359.383 315.445 C 358.552 316.195,357.578 317.394,357.218 318.109 C 356.857 318.824,356.231 319.764,355.826 320.197 C 355.421 320.631,354.023 322.219,352.718 323.728 C 351.414 325.236,350.080 326.619,349.754 326.802 C 349.429 326.984,349.163 327.375,349.163 327.671 C 349.163 327.966,347.788 329.634,346.108 331.376 C 344.429 333.119,342.237 335.395,341.239 336.435 C 338.848 338.925,334.540 342.966,331.662 345.419 C 330.390 346.502,328.000 348.596,326.350 350.071 C 324.700 351.547,322.786 352.995,322.097 353.291 C 321.407 353.587,320.216 354.522,319.450 355.370 C 318.684 356.219,316.887 357.506,315.458 358.232 C 314.029 358.957,312.509 360.043,312.080 360.644 C 311.652 361.246,310.158 362.301,308.760 362.989 C 307.362 363.677,306.024 364.474,305.787 364.760 C 305.550 365.046,304.717 365.491,303.936 365.748 C 303.156 366.006,301.800 366.906,300.924 367.748 C 300.048 368.589,298.663 369.458,297.847 369.678 C 296.410 370.065,292.678 372.007,288.713 374.430 C 287.653 375.078,286.235 375.713,285.561 375.841 C 284.887 375.969,283.626 376.472,282.759 376.959 C 281.892 377.445,280.473 378.064,279.606 378.333 C 278.739 378.602,277.834 378.977,277.594 379.165 C 276.365 380.135,273.168 381.555,271.381 381.926 C 270.269 382.156,268.951 382.603,268.451 382.920 C 267.952 383.236,266.355 383.818,264.904 384.212 C 262.253 384.933,258.555 386.221,256.355 387.191 C 255.704 387.477,253.804 387.916,252.133 388.166 C 250.461 388.416,248.155 388.946,247.009 389.343 C 245.864 389.741,243.339 390.273,241.399 390.526 C 239.459 390.779,236.090 391.418,233.911 391.946 C 231.733 392.474,229.286 392.906,228.473 392.906 C 227.422 392.906,226.995 393.077,226.995 393.498 C 226.995 394.021,236.869 394.089,313.498 394.089 L 400.000 394.089 400.000 197.044 L 400.000 0.000 313.498 0.000 C 240.625 0.000,226.995 0.085,226.995 0.539 M208.966 130.327 C 208.478 130.421,208.079 130.625,208.079 130.780 C 208.079 130.935,207.558 131.369,206.922 131.745 C 204.224 133.339,204.408 129.675,204.306 183.820 L 204.214 232.665 205.182 233.933 C 207.025 236.350,207.756 236.453,223.075 236.453 C 239.421 236.453,241.133 236.042,241.744 231.972 C 242.205 228.900,242.366 136.870,241.913 135.541 C 241.299 133.742,240.128 132.286,238.308 131.058 L 236.812 130.049 223.332 130.103 C 215.918 130.132,209.453 130.233,208.966 130.327 M162.144 167.697 C 162.565 168.015,163.107 168.276,163.350 168.276 C 163.592 168.276,164.134 168.015,164.555 167.697 C 165.261 167.164,165.167 167.119,163.350 167.119 C 161.533 167.119,161.439 167.164,162.144 167.697 M158.967 207.291 C 158.977 220.404,159.037 229.182,159.100 226.798 C 159.164 224.414,159.402 222.102,159.629 221.661 C 160.122 220.706,159.847 191.510,159.300 186.601 C 159.064 184.490,158.954 191.323,158.967 207.291 M189.239 197.519 C 188.651 198.107,188.561 230.339,189.143 231.869 C 189.349 232.411,189.376 232.910,189.204 232.979 C 187.753 233.556,188.454 235.271,190.140 235.271 C 191.461 235.271,191.921 235.118,191.921 234.680 C 191.921 234.351,191.571 234.089,191.133 234.089 C 190.700 234.089,190.336 233.867,190.326 233.596 C 190.316 233.325,190.317 225.212,190.330 215.567 C 190.353 198.451,190.236 196.522,189.239 197.519 M291.429 209.888 C 290.995 209.994,290.246 210.164,289.765 210.266 C 288.440 210.548,287.376 211.923,287.075 213.740 C 286.926 214.636,286.623 215.715,286.401 216.137 C 286.173 216.570,286.019 219.310,286.047 222.422 C 286.117 230.101,284.687 231.766,280.933 228.374 C 280.094 227.616,279.263 226.995,279.088 226.995 C 278.913 226.995,277.816 225.842,276.650 224.433 C 275.485 223.025,274.236 221.872,273.876 221.872 C 273.516 221.872,272.387 221.429,271.368 220.887 C 267.260 218.702,260.914 220.989,259.105 225.305 C 256.748 230.931,259.404 236.533,266.726 241.378 C 268.153 242.323,269.557 244.349,269.557 245.464 C 269.557 246.388,267.788 246.700,262.543 246.700 L 257.054 246.700 254.157 248.177 C 251.314 249.628,251.248 249.697,250.514 251.951 C 247.943 259.848,252.675 264.433,263.393 264.433 C 268.218 264.433,269.204 264.538,269.926 265.123 L 270.776 265.813 269.531 268.302 C 268.695 269.975,267.955 270.918,267.276 271.176 C 266.041 271.646,263.280 274.078,262.429 275.447 C 262.085 276.001,261.316 276.713,260.720 277.030 C 257.559 278.715,257.356 288.867,260.484 288.867 C 260.691 288.867,261.514 289.443,262.315 290.148 C 265.196 292.683,271.939 292.562,274.551 289.928 C 276.091 288.376,277.218 287.458,278.652 286.589 C 279.427 286.118,280.256 285.308,280.493 284.787 C 280.730 284.267,281.746 283.286,282.751 282.608 C 285.243 280.926,286.107 281.348,286.112 284.250 C 286.129 294.117,287.857 298.330,292.563 299.974 C 295.944 301.155,301.443 298.768,301.473 296.107 C 301.476 295.863,301.719 295.463,302.014 295.218 C 302.527 294.792,302.956 291.203,303.233 285.036 C 303.300 283.545,303.608 282.179,304.021 281.549 L 304.699 280.514 305.280 281.343 C 305.599 281.799,306.338 282.424,306.920 282.732 C 307.503 283.041,308.956 284.285,310.148 285.498 C 316.114 291.567,321.208 293.411,325.532 291.067 C 326.499 290.542,327.867 289.800,328.572 289.417 C 329.623 288.846,330.008 288.241,330.710 286.061 L 331.567 283.403 330.740 280.654 C 329.959 278.057,324.156 271.133,322.761 271.133 C 321.965 271.133,320.034 269.032,319.420 267.499 C 318.651 265.578,319.431 264.438,321.521 264.429 C 333.993 264.372,338.128 263.682,338.128 261.660 C 338.128 261.513,338.747 260.613,339.504 259.661 C 341.287 257.418,341.437 254.508,339.899 252.020 C 339.363 251.153,338.813 250.133,338.677 249.754 C 338.541 249.374,338.298 249.064,338.137 249.064 C 337.976 249.064,337.154 248.589,336.311 248.008 C 334.851 247.001,334.480 246.940,328.473 246.716 C 322.791 246.505,320.394 246.077,320.394 245.274 C 320.394 244.987,323.045 242.175,326.802 238.478 C 330.493 234.845,331.976 230.902,330.881 227.631 C 330.582 226.740,330.212 225.421,330.057 224.700 C 329.783 223.420,327.991 221.877,326.774 221.873 C 326.489 221.873,325.288 221.414,324.104 220.854 C 321.943 219.831,318.818 219.768,318.818 220.746 C 318.818 220.956,317.887 221.543,316.749 222.050 C 314.505 223.052,312.787 224.628,312.176 226.245 C 311.952 226.839,311.156 227.569,310.279 227.985 C 309.448 228.379,308.298 229.204,307.724 229.818 C 304.532 233.233,302.660 230.695,302.660 222.952 C 302.660 212.689,301.229 210.066,295.502 209.831 C 293.695 209.757,291.862 209.783,291.429 209.888 M187.752 223.251 C 187.751 227.586,187.809 229.413,187.880 227.312 C 187.950 225.210,187.951 221.663,187.880 219.430 C 187.810 217.197,187.752 218.916,187.752 223.251 M301.084 241.853 C 307.513 244.830,311.557 253.706,309.037 259.310 C 308.598 260.286,308.124 261.710,307.984 262.476 C 307.588 264.630,304.146 267.749,299.533 270.134 C 296.351 271.780,289.259 270.767,287.077 268.356 C 286.661 267.897,285.774 267.293,285.106 267.013 C 281.170 265.369,279.234 258.200,280.758 250.914 C 282.481 242.680,292.869 238.049,301.084 241.853 " stroke="none" fill="#f3f7f9" fill-rule="evenodd"></path>
    <path id="path1" d="M76.661 103.513 C 75.799 103.823,74.824 104.307,74.493 104.589 C 74.162 104.871,73.577 105.213,73.193 105.350 C 72.809 105.486,72.384 105.886,72.249 106.237 C 72.114 106.589,71.630 107.285,71.174 107.785 C 70.718 108.285,70.133 108.958,69.874 109.282 C 69.615 109.606,69.172 109.948,68.889 110.042 C 68.468 110.182,68.374 123.233,68.374 181.708 L 68.374 253.202 69.360 254.226 C 69.901 254.788,70.946 255.985,71.681 256.886 C 72.456 257.835,73.356 258.522,73.823 258.522 C 74.266 258.522,75.357 258.875,76.249 259.307 C 78.535 260.414,251.209 260.767,250.618 259.663 C 248.688 256.056,250.243 250.223,253.624 248.385 L 255.961 247.116 254.581 247.107 C 253.823 247.102,252.219 247.259,251.019 247.456 C 249.772 247.660,213.687 247.846,166.881 247.888 L 84.926 247.963 82.787 247.143 C 81.611 246.691,80.505 246.097,80.329 245.821 C 80.154 245.546,80.053 216.503,80.104 181.283 L 80.197 117.245 81.773 116.652 C 83.164 116.129,97.188 116.059,200.599 116.059 L 317.849 116.059 319.010 116.905 L 320.172 117.751 320.192 166.363 C 320.203 193.100,320.364 215.811,320.550 216.833 C 320.871 218.600,320.837 218.714,319.853 219.162 C 318.295 219.872,318.596 220.402,320.385 220.100 C 321.624 219.891,322.402 220.049,324.104 220.854 C 325.288 221.414,326.489 221.873,326.774 221.873 C 327.991 221.877,329.783 223.420,330.057 224.700 C 330.212 225.421,330.582 226.740,330.881 227.631 C 331.976 230.902,330.493 234.845,326.802 238.478 C 318.500 246.649,318.478 246.572,329.122 246.793 C 333.933 246.893,334.071 246.873,333.085 246.227 C 331.830 245.405,331.461 239.884,332.195 232.906 C 332.539 229.641,332.519 228.145,332.103 225.812 C 331.776 223.978,331.700 222.377,331.902 221.598 C 332.081 220.906,332.181 195.990,332.124 166.229 L 332.020 112.118 331.181 110.739 C 330.719 109.980,330.133 108.705,329.877 107.906 C 329.508 106.751,329.033 106.269,327.564 105.559 C 326.546 105.068,325.113 104.259,324.379 103.761 L 323.043 102.857 200.635 102.903 C 95.528 102.943,78.005 103.029,76.661 103.513 M204.559 134.136 C 204.285 134.649,204.146 135.402,204.250 135.810 C 204.393 136.367,204.452 136.301,204.486 135.547 C 204.511 134.994,204.742 134.332,204.998 134.076 C 205.255 133.819,205.373 133.518,205.262 133.406 C 205.150 133.295,204.834 133.623,204.559 134.136 M251.891 149.484 L 251.034 150.396 251.045 191.750 L 251.056 233.103 252.129 234.370 C 253.102 235.519,253.504 235.674,256.448 236.033 C 258.233 236.251,260.450 236.793,261.374 237.237 L 263.054 238.045 260.818 235.907 C 257.314 232.557,257.183 226.214,260.557 223.223 C 264.412 219.803,267.909 219.048,271.368 220.887 C 272.387 221.429,273.516 221.872,273.876 221.872 C 274.236 221.872,275.485 223.025,276.650 224.433 C 277.816 225.842,278.913 226.995,279.088 226.995 C 279.263 226.995,280.094 227.616,280.933 228.374 C 284.687 231.766,286.117 230.101,286.047 222.422 C 286.019 219.371,286.175 216.562,286.395 216.137 C 286.614 215.715,286.917 214.683,287.069 213.843 C 287.220 213.004,287.543 211.998,287.787 211.609 C 288.121 211.073,288.103 210.750,287.711 210.278 C 287.296 209.777,287.184 203.909,287.144 180.394 C 287.091 149.423,287.084 149.318,285.252 148.828 C 284.748 148.693,277.228 148.580,268.542 148.577 L 252.748 148.571 251.891 149.484 M163.941 165.080 C 160.826 165.968,158.836 167.288,158.531 168.670 C 158.205 170.146,158.170 177.599,158.325 211.906 L 158.424 233.664 159.310 234.511 C 161.835 236.921,162.580 237.032,177.065 237.162 L 190.386 237.281 192.533 236.298 C 193.714 235.757,194.680 235.066,194.680 234.763 C 194.680 234.459,195.034 233.890,195.468 233.498 C 196.728 232.357,196.702 170.731,195.440 168.310 C 193.698 164.968,193.531 164.935,178.325 164.863 C 170.956 164.828,164.483 164.925,163.941 165.080 M204.311 175.764 C 204.311 181.724,204.366 184.163,204.433 181.182 C 204.499 178.202,204.499 173.325,204.433 170.345 C 204.366 167.365,204.311 169.803,204.311 175.764 M164.555 167.697 C 164.134 168.015,163.592 168.276,163.350 168.276 C 163.107 168.276,162.565 168.015,162.144 167.697 C 161.439 167.164,161.533 167.119,163.350 167.119 C 165.167 167.119,165.261 167.164,164.555 167.697 M241.945 200.985 C 241.851 218.433,241.629 233.064,241.453 233.498 C 241.276 233.931,241.421 233.787,241.773 233.178 C 242.671 231.628,242.756 226.574,242.409 195.468 L 242.116 169.261 241.945 200.985 M159.847 205.306 C 159.979 215.764,159.907 221.121,159.629 221.661 C 159.402 222.102,159.164 224.414,159.100 226.798 C 159.037 229.182,158.977 220.404,158.967 207.291 C 158.954 191.323,159.064 184.490,159.300 186.601 C 159.493 188.335,159.739 196.752,159.847 205.306 M127.439 187.479 L 115.567 187.598 114.513 189.119 L 113.459 190.640 113.577 211.900 C 113.686 231.530,113.747 233.213,114.384 233.850 C 114.764 234.229,115.074 234.697,115.074 234.890 C 115.074 235.932,118.704 236.155,131.823 235.915 C 146.497 235.648,146.913 235.606,148.374 234.252 L 149.379 233.320 149.271 211.373 C 149.184 193.736,149.061 189.391,148.648 189.254 C 148.365 189.159,147.833 188.769,147.466 188.386 C 146.600 187.483,143.072 187.324,127.439 187.479 M204.264 189.951 C 204.264 191.360,204.336 191.936,204.423 191.232 C 204.510 190.527,204.510 189.374,204.423 188.670 C 204.336 187.966,204.264 188.542,204.264 189.951 M190.330 215.567 C 190.317 225.212,190.316 233.325,190.326 233.596 C 190.336 233.867,190.700 234.089,191.133 234.089 C 191.571 234.089,191.921 234.351,191.921 234.680 C 191.921 235.118,191.461 235.271,190.140 235.271 C 188.454 235.271,187.753 233.556,189.204 232.979 C 189.376 232.910,189.349 232.411,189.143 231.869 C 188.561 230.339,188.651 198.107,189.239 197.519 C 190.236 196.522,190.353 198.451,190.330 215.567 M204.229 213.596 C 204.229 214.355,204.310 214.665,204.410 214.286 C 204.509 213.906,204.509 213.286,204.410 212.906 C 204.310 212.527,204.229 212.837,204.229 213.596 M187.880 227.312 C 187.809 229.413,187.751 227.586,187.752 223.251 C 187.752 218.916,187.810 217.197,187.880 219.430 C 187.951 221.663,187.950 225.210,187.880 227.312 M205.320 234.833 C 205.320 234.966,206.151 235.516,207.166 236.054 L 209.012 237.034 222.982 236.930 C 230.666 236.874,237.183 236.699,237.464 236.542 C 237.745 236.385,231.468 236.307,223.515 236.368 L 209.054 236.480 207.187 235.535 C 206.160 235.015,205.320 234.699,205.320 234.833 M326.305 274.266 C 326.305 274.472,327.096 275.301,328.061 276.108 C 331.095 278.644,331.970 282.734,330.412 287.094 C 330.181 287.741,330.225 287.794,330.661 287.389 C 331.061 287.018,334.048 286.897,342.742 286.897 L 354.291 286.897 355.123 285.940 C 355.580 285.414,356.441 284.782,357.036 284.536 C 358.334 283.998,359.106 281.852,358.762 279.734 C 358.199 276.262,355.597 275.706,337.750 275.240 C 331.258 275.071,328.612 274.860,327.819 274.450 C 326.547 273.792,326.305 273.763,326.305 274.266 M261.734 274.778 C 261.343 275.169,239.163 275.274,153.774 275.290 C 60.617 275.307,46.172 275.386,45.300 275.881 C 41.719 277.918,41.778 277.843,41.781 280.394 C 41.786 283.868,41.973 284.227,44.453 285.526 L 46.694 286.700 152.116 286.897 C 236.985 287.055,257.710 287.192,258.424 287.600 C 259.479 288.203,259.532 287.995,258.663 286.669 C 257.521 284.925,258.660 277.438,260.067 277.438 C 260.579 277.438,262.857 275.218,262.857 274.719 C 262.857 274.143,262.342 274.170,261.734 274.778 M303.999 281.582 C 302.973 283.148,302.929 288.708,303.950 287.786 C 304.561 287.235,305.422 287.095,308.174 287.102 C 312.129 287.112,312.152 287.047,309.106 284.532 C 307.924 283.557,306.431 282.282,305.787 281.699 L 304.618 280.639 303.999 281.582 M282.622 282.686 C 281.680 283.376,280.693 284.351,280.428 284.851 C 280.164 285.352,279.427 286.118,278.791 286.553 L 277.635 287.345 279.212 287.151 C 280.079 287.044,281.598 286.835,282.589 286.687 C 284.256 286.436,284.462 286.503,285.378 287.591 L 286.366 288.766 286.197 285.565 C 285.962 281.104,285.400 280.651,282.622 282.686 " stroke="none" fill="#19bee8" fill-rule="evenodd"></path>
    <path id="path2" d="M185.616 0.525 C 185.616 1.386,182.980 1.986,177.340 2.408 C 171.409 2.853,165.505 3.961,158.030 6.035 C 156.837 6.366,154.550 6.752,152.947 6.894 C 151.344 7.036,149.812 7.374,149.542 7.644 C 149.272 7.914,147.751 8.367,146.162 8.651 C 144.573 8.935,143.002 9.310,142.671 9.486 C 139.683 11.067,135.806 12.588,134.187 12.815 C 133.103 12.966,131.802 13.351,131.296 13.670 C 130.790 13.989,129.548 14.500,128.537 14.805 C 127.527 15.110,125.547 15.983,124.138 16.744 C 120.185 18.880,119.135 19.310,117.868 19.310 C 117.224 19.310,116.575 19.507,116.426 19.748 C 116.277 19.989,115.247 20.610,114.137 21.127 C 111.342 22.430,109.578 23.476,109.033 24.153 C 108.779 24.469,107.687 24.940,106.606 25.201 C 105.525 25.461,104.550 25.812,104.439 25.980 C 104.327 26.148,103.527 26.755,102.660 27.327 C 101.793 27.900,100.020 29.075,98.719 29.940 C 97.419 30.804,96.089 31.518,95.764 31.526 C 95.007 31.546,92.080 33.499,90.049 35.340 C 89.182 36.126,87.764 37.088,86.897 37.478 C 86.030 37.867,85.097 38.550,84.824 38.994 C 84.551 39.439,84.123 39.803,83.872 39.803 C 83.416 39.803,82.881 40.231,80.795 42.266 C 80.184 42.862,79.555 43.350,79.397 43.350 C 79.239 43.350,78.423 43.970,77.584 44.729 C 76.744 45.488,75.803 46.108,75.493 46.108 C 75.184 46.108,74.820 46.454,74.686 46.876 C 74.552 47.299,74.124 47.746,73.734 47.869 C 73.345 47.993,72.826 48.534,72.581 49.072 C 72.336 49.609,71.935 50.049,71.691 50.049 C 70.772 50.049,67.232 53.243,66.390 54.831 C 66.088 55.401,65.424 55.973,64.915 56.100 C 63.704 56.404,60.697 59.368,60.224 60.724 C 60.017 61.320,59.073 62.281,58.081 62.908 C 57.106 63.525,56.097 64.397,55.839 64.848 C 54.477 67.222,53.469 68.571,53.056 68.571 C 52.801 68.571,52.271 69.170,51.876 69.902 C 51.482 70.634,50.291 72.186,49.230 73.351 C 46.193 76.682,46.068 76.846,45.657 78.026 C 45.443 78.639,44.578 79.619,43.734 80.204 C 42.727 80.902,41.977 81.852,41.549 82.973 C 41.191 83.911,40.651 84.773,40.350 84.888 C 40.049 85.004,39.803 85.294,39.803 85.534 C 39.803 85.774,38.828 87.119,37.635 88.524 C 36.443 89.930,35.468 91.400,35.468 91.792 C 35.468 92.184,35.107 92.964,34.665 93.525 C 34.224 94.086,33.648 95.159,33.385 95.910 C 33.122 96.660,32.148 98.081,31.222 99.067 C 29.999 100.370,29.446 101.354,29.201 102.661 C 29.016 103.652,28.615 104.766,28.309 105.137 C 28.002 105.509,27.437 106.433,27.051 107.192 C 25.742 109.767,24.902 111.186,24.276 111.877 C 23.933 112.257,23.485 113.441,23.282 114.510 C 22.829 116.889,22.480 117.833,22.054 117.833 C 21.662 117.833,18.916 123.448,18.916 124.251 C 18.916 124.564,18.562 125.271,18.128 125.822 C 17.695 126.373,17.340 127.158,17.340 127.566 C 17.340 128.994,16.147 132.867,14.840 135.682 C 14.115 137.244,13.304 139.649,13.038 141.027 C 12.772 142.404,12.231 144.178,11.835 144.968 C 11.433 145.769,11.000 147.790,10.854 149.542 C 10.710 151.268,10.267 153.662,9.869 154.862 C 9.471 156.062,8.952 159.068,8.715 161.540 C 8.452 164.287,8.046 166.401,7.671 166.973 C 7.279 167.570,6.921 169.577,6.678 172.526 C 6.469 175.065,5.989 178.384,5.612 179.901 C 4.567 184.106,4.590 210.636,5.642 214.345 C 6.036 215.732,6.529 218.984,6.739 221.571 C 6.972 224.448,7.344 226.617,7.698 227.156 C 8.025 227.655,8.459 229.910,8.697 232.344 C 8.929 234.713,9.466 237.794,9.891 239.193 C 10.316 240.591,10.770 243.074,10.900 244.710 C 11.038 246.457,11.423 248.173,11.831 248.867 C 12.214 249.517,12.655 250.847,12.811 251.823 C 13.183 254.146,14.025 256.636,15.343 259.310 C 15.931 260.502,16.637 262.631,16.911 264.039 C 17.186 265.448,17.635 266.867,17.911 267.192 C 18.186 267.517,18.627 268.670,18.890 269.754 C 19.154 270.837,19.593 271.990,19.866 272.315 C 20.139 272.640,20.598 273.527,20.886 274.286 C 21.173 275.044,21.732 276.029,22.128 276.474 C 22.524 276.918,23.025 278.218,23.242 279.362 C 23.459 280.505,23.993 281.894,24.429 282.449 C 24.865 283.003,25.222 283.628,25.222 283.839 C 25.222 284.049,25.665 284.748,26.207 285.392 C 26.749 286.036,27.307 287.019,27.446 287.575 C 27.586 288.132,28.011 288.897,28.390 289.276 C 28.769 289.656,29.197 290.665,29.342 291.519 C 29.512 292.527,30.189 293.752,31.271 295.009 C 32.806 296.793,35.468 301.600,35.468 302.588 C 35.468 302.820,35.796 303.241,36.197 303.524 C 36.599 303.808,37.201 304.572,37.536 305.223 C 37.872 305.873,38.519 306.743,38.974 307.156 C 39.430 307.568,39.803 308.138,39.803 308.422 C 39.803 308.706,40.150 309.124,40.574 309.351 C 40.998 309.578,41.458 310.366,41.596 311.102 C 41.767 312.009,42.344 312.839,43.389 313.679 C 44.780 314.797,48.079 319.298,48.079 320.078 C 48.079 320.252,48.263 320.394,48.488 320.394 C 49.125 320.394,52.020 323.414,52.020 324.078 C 52.020 324.404,52.887 325.547,53.947 326.618 C 55.007 327.690,55.989 328.900,56.129 329.308 C 56.269 329.716,57.264 330.727,58.340 331.556 C 59.415 332.385,60.296 333.316,60.296 333.625 C 60.296 333.934,60.471 334.187,60.685 334.187 C 60.899 334.187,61.526 334.903,62.078 335.779 C 62.631 336.654,63.564 337.578,64.152 337.833 C 64.740 338.088,66.499 339.588,68.060 341.168 C 69.621 342.747,71.074 344.039,71.289 344.039 C 71.504 344.039,71.925 344.390,72.226 344.819 C 72.526 345.248,73.467 346.068,74.317 346.640 C 75.167 347.213,76.681 348.414,77.683 349.309 C 80.749 352.050,81.622 352.709,82.181 352.709 C 82.477 352.709,83.381 353.501,84.190 354.469 C 84.999 355.436,86.303 356.485,87.089 356.799 C 87.875 357.114,88.751 357.652,89.036 357.996 C 89.321 358.340,89.755 358.627,89.999 358.635 C 90.243 358.643,91.385 359.513,92.535 360.568 C 93.686 361.624,95.094 362.605,95.664 362.748 C 96.234 362.891,97.155 363.325,97.710 363.713 C 98.265 364.100,99.209 364.536,99.809 364.681 C 100.408 364.825,101.852 365.808,103.018 366.864 C 104.548 368.250,105.594 368.861,106.776 369.060 C 107.677 369.213,108.716 369.654,109.084 370.041 C 109.452 370.429,110.316 370.866,111.003 371.013 C 111.691 371.160,112.706 371.668,113.259 372.143 C 115.455 374.025,116.610 374.778,117.304 374.781 C 118.538 374.784,120.930 375.567,121.525 376.162 C 121.836 376.474,122.933 376.917,123.962 377.148 C 124.991 377.378,126.352 378.004,126.986 378.537 C 127.620 379.071,128.415 379.507,128.752 379.507 C 129.089 379.507,129.918 379.838,130.594 380.243 C 131.270 380.647,132.975 381.193,134.384 381.456 C 135.793 381.719,137.317 382.172,137.771 382.462 C 138.224 382.753,139.629 383.182,140.891 383.416 C 142.154 383.649,143.467 384.082,143.810 384.377 C 144.564 385.025,146.812 385.813,147.910 385.813 C 148.348 385.813,149.010 386.088,149.381 386.423 C 149.791 386.794,151.351 387.169,153.353 387.377 C 155.167 387.566,157.946 388.080,159.531 388.521 C 161.115 388.962,163.952 389.437,165.836 389.578 C 167.905 389.732,169.831 390.119,170.700 390.555 C 171.647 391.030,173.466 391.361,176.020 391.523 C 181.141 391.848,185.616 392.781,185.616 393.524 C 185.616 394.004,187.912 394.089,200.985 394.089 C 213.288 394.089,216.355 393.987,216.355 393.579 C 216.355 392.808,219.550 392.106,225.025 391.674 C 228.436 391.405,230.443 391.050,231.553 390.519 C 232.434 390.098,233.942 389.748,234.903 389.740 C 236.846 389.725,241.420 388.909,244.716 387.990 C 245.902 387.660,247.744 387.389,248.811 387.389 C 249.910 387.389,251.453 387.058,252.371 386.626 C 253.261 386.206,254.637 385.758,255.428 385.630 C 256.219 385.502,257.316 385.044,257.866 384.611 C 258.416 384.179,259.880 383.637,261.120 383.408 C 262.360 383.179,263.746 382.753,264.200 382.462 C 264.653 382.172,266.177 381.716,267.586 381.451 C 268.995 381.185,270.806 380.639,271.610 380.238 C 272.414 379.836,273.314 379.507,273.610 379.507 C 273.906 379.507,274.555 379.074,275.053 378.545 C 275.590 377.973,276.756 377.411,277.923 377.160 C 279.004 376.928,280.325 376.395,280.859 375.976 C 281.392 375.556,282.659 375.090,283.673 374.940 C 284.704 374.788,286.008 374.258,286.631 373.738 C 287.244 373.226,287.955 372.808,288.211 372.808 C 288.468 372.808,288.889 372.469,289.147 372.055 C 289.406 371.641,290.202 371.175,290.917 371.019 C 291.632 370.862,292.642 370.401,293.163 369.993 C 293.683 369.585,294.771 369.146,295.579 369.016 C 296.591 368.854,297.810 368.119,299.486 366.657 C 300.826 365.488,302.130 364.532,302.383 364.532 C 303.065 364.532,306.964 362.487,308.016 361.576 C 310.113 359.764,311.659 358.621,312.013 358.621 C 312.220 358.621,312.713 358.264,313.107 357.829 C 313.501 357.394,314.514 356.831,315.358 356.577 C 316.203 356.324,317.089 355.750,317.329 355.300 C 317.791 354.431,320.008 352.332,320.475 352.322 C 321.122 352.307,323.740 350.236,325.179 348.601 C 326.033 347.631,327.345 346.616,328.095 346.344 C 328.845 346.073,329.458 345.627,329.458 345.353 C 329.458 345.079,329.837 344.653,330.299 344.405 C 330.762 344.157,331.981 343.087,333.009 342.027 C 334.036 340.966,335.077 340.099,335.320 340.099 C 335.564 340.099,335.764 339.839,335.764 339.521 C 335.764 339.204,336.162 338.731,336.649 338.470 C 337.796 337.856,341.797 333.855,342.411 332.708 C 342.672 332.221,343.145 331.823,343.462 331.823 C 343.780 331.823,344.039 331.573,344.039 331.268 C 344.039 330.963,344.896 329.943,345.944 329.001 C 346.991 328.060,348.061 326.891,348.322 326.403 C 348.583 325.916,349.056 325.517,349.373 325.517 C 349.691 325.517,349.951 325.260,349.951 324.945 C 349.951 323.738,350.891 322.411,352.750 320.993 C 353.811 320.183,354.683 319.319,354.687 319.071 C 354.700 318.250,356.975 315.240,358.496 314.031 C 359.523 313.215,360.153 312.294,360.502 311.100 C 360.781 310.143,361.164 309.360,361.352 309.360 C 361.541 309.360,362.065 308.783,362.516 308.079 C 362.967 307.374,363.959 306.000,364.721 305.025 C 365.482 304.049,366.288 302.829,366.511 302.313 C 366.734 301.797,367.241 300.910,367.637 300.343 C 368.034 299.775,368.469 298.850,368.604 298.288 C 368.740 297.726,369.254 296.837,369.746 296.313 C 372.045 293.864,372.507 293.161,372.865 291.565 C 373.077 290.623,373.572 289.498,373.966 289.064 C 374.359 288.631,374.889 287.625,375.144 286.830 C 375.399 286.034,375.864 285.170,376.178 284.909 C 376.492 284.649,376.749 284.217,376.749 283.950 C 376.749 283.683,377.192 282.986,377.734 282.402 C 378.276 281.817,378.720 281.037,378.721 280.669 C 378.725 279.478,379.522 277.086,380.111 276.497 C 380.427 276.181,380.887 274.978,381.134 273.824 C 381.405 272.553,381.950 271.382,382.515 270.856 C 383.028 270.379,383.448 269.665,383.448 269.269 C 383.448 268.873,383.736 268.139,384.088 267.636 C 384.440 267.134,385.044 265.365,385.430 263.706 C 385.816 262.047,386.407 259.980,386.743 259.113 C 387.079 258.246,387.362 257.073,387.372 256.506 C 387.381 255.940,387.734 255.037,388.156 254.501 C 388.577 253.966,389.134 252.656,389.393 251.591 C 389.653 250.526,390.133 249.345,390.461 248.966 C 390.830 248.540,391.169 246.966,391.352 244.829 C 391.514 242.931,392.183 239.251,392.839 236.650 C 394.867 228.608,395.233 226.580,395.648 221.084 C 395.870 218.158,396.318 214.893,396.646 213.829 C 397.509 211.026,397.515 183.195,396.653 180.355 C 396.334 179.303,395.882 176.023,395.649 173.064 C 395.416 170.105,394.954 166.443,394.622 164.926 C 393.181 158.332,392.853 156.935,392.306 155.074 C 391.987 153.990,391.560 151.475,391.358 149.485 C 391.155 147.495,390.727 145.455,390.406 144.953 C 390.084 144.451,389.599 143.241,389.326 142.266 C 389.053 141.291,388.606 140.226,388.333 139.900 C 388.060 139.574,387.538 137.995,387.174 136.391 C 386.809 134.788,386.281 132.926,386.002 132.255 C 385.722 131.584,385.298 129.977,385.060 128.684 C 384.821 127.392,384.361 126.186,384.037 126.005 C 383.713 125.823,383.448 125.432,383.448 125.134 C 383.448 124.836,383.038 124.091,382.537 123.479 C 382.036 122.866,381.412 121.406,381.151 120.235 C 380.890 119.064,380.414 117.912,380.093 117.674 C 379.773 117.436,379.316 116.177,379.079 114.877 C 378.841 113.576,378.394 112.369,378.084 112.193 C 377.775 112.017,376.796 110.383,375.910 108.560 C 375.024 106.738,374.050 105.041,373.747 104.789 C 373.443 104.537,373.082 103.626,372.944 102.764 C 372.769 101.668,372.118 100.538,370.780 99.010 C 369.728 97.807,368.866 96.540,368.865 96.195 C 368.864 95.849,368.333 94.768,367.685 93.793 C 367.036 92.818,366.505 91.745,366.504 91.409 C 366.503 91.073,365.657 89.831,364.624 88.650 C 362.215 85.895,360.710 83.634,360.376 82.266 C 360.231 81.670,359.967 81.182,359.790 81.182 C 359.089 81.182,356.906 78.977,356.394 77.752 C 356.096 77.038,355.688 76.453,355.489 76.453 C 355.290 76.453,355.027 76.138,354.905 75.753 C 354.783 75.369,353.621 73.906,352.324 72.502 C 351.026 71.099,349.961 69.749,349.958 69.503 C 349.954 69.257,349.507 68.766,348.966 68.411 C 348.424 68.056,347.980 67.569,347.980 67.330 C 347.980 67.091,346.687 65.632,345.107 64.088 C 343.526 62.544,342.026 60.800,341.772 60.211 C 341.518 59.623,340.595 58.690,339.719 58.138 C 338.844 57.585,338.128 56.986,338.128 56.807 C 338.128 56.628,337.680 56.277,337.132 56.027 C 336.584 55.778,336.030 55.297,335.900 54.960 C 335.602 54.183,333.456 52.020,332.984 52.020 C 332.789 52.020,332.339 51.576,331.983 51.034 C 331.628 50.493,331.160 50.049,330.943 50.049 C 330.725 50.049,329.815 49.315,328.919 48.418 C 328.023 47.520,326.626 46.365,325.813 45.851 C 325.000 45.337,324.335 44.761,324.335 44.572 C 324.335 44.383,323.753 43.952,323.042 43.614 C 322.331 43.277,320.894 42.193,319.848 41.205 C 318.802 40.217,317.809 39.409,317.640 39.409 C 317.471 39.409,317.247 39.078,317.141 38.674 C 317.020 38.211,316.447 37.845,315.591 37.685 C 314.251 37.433,311.330 35.155,311.330 34.362 C 311.330 34.137,310.665 33.740,309.852 33.480 C 309.039 33.219,308.020 32.713,307.586 32.354 C 307.153 31.995,305.589 31.086,304.112 30.334 C 302.634 29.581,301.254 28.655,301.044 28.276 C 300.834 27.897,300.463 27.586,300.220 27.586 C 299.978 27.586,299.218 27.158,298.532 26.635 C 297.847 26.112,296.500 25.476,295.539 25.221 C 294.579 24.966,293.438 24.454,293.005 24.083 C 291.513 22.807,289.062 21.330,288.009 21.073 C 287.429 20.932,286.648 20.477,286.273 20.063 C 285.899 19.649,285.132 19.309,284.569 19.308 C 283.057 19.305,280.657 18.564,280.306 17.991 C 280.138 17.716,279.379 17.250,278.621 16.956 C 277.862 16.662,276.975 16.202,276.650 15.934 C 276.325 15.666,275.172 15.181,274.089 14.857 C 273.005 14.532,271.607 13.997,270.983 13.666 C 270.359 13.335,268.940 12.943,267.830 12.794 C 266.721 12.645,264.483 11.902,262.857 11.144 C 258.548 9.134,258.554 9.137,255.764 8.630 C 254.355 8.375,252.936 7.939,252.611 7.661 C 252.286 7.384,250.690 7.040,249.064 6.897 C 247.438 6.754,244.512 6.201,242.562 5.669 C 234.699 3.523,231.010 2.752,228.571 2.748 C 222.875 2.739,216.355 1.579,216.355 0.576 C 216.355 0.081,214.204 0.000,200.985 0.000 C 188.446 0.000,185.616 0.097,185.616 0.525 M326.597 102.727 C 328.628 103.957,330.485 105.331,330.722 105.782 C 330.959 106.232,331.290 106.692,331.457 106.803 C 331.625 106.914,332.309 108.502,332.977 110.333 L 334.192 113.661 334.251 170.624 C 334.283 201.953,334.262 231.602,334.203 236.510 L 334.096 245.435 335.330 245.706 C 342.021 247.175,345.762 259.680,340.053 261.492 C 339.645 261.622,339.310 261.947,339.310 262.215 C 339.310 262.483,338.680 263.314,337.909 264.061 L 336.508 265.419 328.476 265.557 L 320.444 265.696 320.798 266.627 C 321.222 267.742,323.648 270.155,325.948 271.750 L 327.615 272.906 341.501 273.103 C 357.064 273.324,355.151 272.949,358.962 276.525 C 362.803 280.129,361.013 285.932,355.413 288.031 C 354.837 288.246,349.159 288.465,342.703 288.521 C 333.879 288.597,331.034 288.738,331.034 289.099 C 331.034 289.547,330.206 290.163,326.735 292.300 C 323.327 294.397,323.111 294.470,321.021 294.209 C 319.909 294.070,318.559 293.708,318.022 293.406 C 317.484 293.103,316.451 292.580,315.725 292.244 C 314.999 291.908,314.055 291.188,313.627 290.644 C 313.199 290.100,312.618 289.655,312.335 289.655 C 312.052 289.655,311.600 289.389,311.330 289.064 C 310.608 288.194,307.472 288.305,305.911 289.257 C 304.678 290.008,304.631 290.133,304.631 292.591 C 304.631 294.898,304.516 295.263,303.448 296.355 C 302.798 297.020,302.266 297.721,302.266 297.914 C 302.266 298.785,298.615 301.856,297.282 302.106 C 292.521 302.999,286.502 299.981,286.502 296.701 C 286.502 296.436,286.218 295.905,285.870 295.521 C 285.495 295.106,285.102 293.611,284.903 291.837 C 284.719 290.194,284.448 288.655,284.300 288.416 C 283.610 287.300,276.862 289.284,275.271 291.070 C 272.181 294.538,265.869 295.126,262.342 292.273 C 261.216 291.363,259.586 290.180,258.719 289.644 L 257.143 288.670 151.330 288.473 C 65.018 288.312,45.299 288.180,44.335 287.757 C 38.961 285.399,38.495 277.762,43.513 274.309 L 45.265 273.103 153.017 273.103 C 266.309 273.103,262.452 273.164,264.286 271.364 C 264.746 270.912,265.762 270.099,266.544 269.557 C 267.325 269.015,268.056 268.261,268.169 267.882 C 268.909 265.395,269.415 265.617,262.982 265.606 C 255.971 265.595,254.621 265.320,251.581 263.290 L 249.242 261.729 163.875 261.713 C 78.858 261.697,76.671 261.665,73.498 260.395 C 70.986 259.389,68.762 257.049,67.326 253.900 L 66.207 251.446 66.207 181.688 L 66.207 111.929 67.234 109.364 C 67.799 107.953,68.391 106.798,68.550 106.798 C 68.708 106.798,69.798 105.907,70.971 104.819 C 73.077 102.864,75.323 101.447,77.241 100.861 C 77.783 100.696,133.279 100.545,200.565 100.526 L 322.903 100.493 326.597 102.727 M83.069 117.707 C 82.166 117.945,82.171 244.693,83.074 245.596 C 84.363 246.885,267.980 246.352,267.980 245.060 C 267.980 244.878,267.831 244.729,267.649 244.729 C 267.467 244.729,265.916 243.366,264.201 241.701 L 261.084 238.673 257.516 238.403 C 254.469 238.172,253.713 237.967,252.330 236.998 C 249.030 234.682,249.278 237.938,249.128 194.877 C 248.968 149.029,248.994 148.650,252.428 147.421 C 256.324 146.025,285.763 146.479,286.942 147.953 C 287.127 148.185,287.724 148.931,288.267 149.610 L 289.256 150.847 289.357 179.758 L 289.458 208.670 290.698 208.790 C 291.380 208.857,292.521 208.760,293.233 208.575 C 294.352 208.285,296.280 208.438,299.740 209.089 C 302.688 209.645,304.631 214.654,304.631 221.702 C 304.631 227.060,304.663 227.283,305.582 228.146 L 306.534 229.040 306.975 228.214 C 307.218 227.761,307.752 227.389,308.161 227.389 C 308.903 227.389,311.330 225.270,311.330 224.622 C 311.330 223.813,314.023 221.566,315.484 221.155 C 316.748 220.800,317.173 220.440,317.545 219.413 C 318.202 217.596,318.247 118.767,317.591 117.976 C 317.160 117.457,85.035 117.190,83.069 117.707 M240.535 130.148 C 241.087 130.744,241.712 131.232,241.923 131.232 C 242.134 131.232,242.766 132.202,243.327 133.387 L 244.347 135.543 244.243 184.381 C 244.144 230.254,244.096 233.264,243.448 233.980 C 243.069 234.399,242.759 234.932,242.759 235.165 C 242.759 235.397,242.110 236.004,241.318 236.513 C 240.525 237.022,239.239 237.847,238.460 238.347 L 237.044 239.255 222.660 239.110 L 208.276 238.966 205.882 237.328 C 202.262 234.852,202.562 239.689,202.562 183.652 C 202.562 128.657,202.367 132.311,205.400 130.260 L 207.488 128.849 223.509 128.957 L 239.531 129.064 240.535 130.148 M191.593 163.526 C 194.019 164.338,196.737 166.628,197.426 168.440 C 197.693 169.143,197.833 180.439,197.833 201.369 L 197.833 233.228 196.036 235.434 C 193.157 238.967,193.976 238.818,177.522 238.818 L 163.084 238.818 160.563 237.408 C 156.962 235.394,157.186 237.964,157.321 200.084 L 157.438 167.065 159.111 165.522 C 160.156 164.556,161.338 163.878,162.263 163.712 C 163.078 163.565,164.010 163.297,164.335 163.114 C 165.671 162.365,189.186 162.720,191.593 163.526 M148.030 186.289 C 149.069 186.844,149.995 187.770,150.592 188.850 L 151.527 190.542 151.642 211.708 C 151.776 236.535,152.025 234.953,147.631 237.169 L 145.039 238.476 130.518 238.351 L 115.998 238.227 114.584 237.044 C 111.915 234.811,111.972 235.345,111.876 211.570 C 111.779 187.596,111.677 188.540,114.602 186.288 L 116.033 185.188 131.218 185.303 C 146.013 185.416,146.446 185.441,148.030 186.289 M291.052 242.803 C 289.489 243.030,288.396 243.442,287.780 244.035 C 287.271 244.525,286.444 245.325,285.943 245.813 C 285.443 246.300,284.828 246.700,284.577 246.700 C 284.326 246.700,283.905 247.187,283.642 247.783 C 283.378 248.379,282.936 249.044,282.659 249.261 C 279.336 251.861,282.818 266.010,286.780 266.010 C 286.962 266.010,287.808 266.585,288.661 267.287 C 290.895 269.129,297.673 269.458,299.901 267.832 C 300.660 267.278,302.040 266.443,302.968 265.974 C 306.067 264.411,308.125 258.534,307.371 253.399 C 307.196 252.207,307.040 250.948,307.024 250.602 C 307.008 250.256,306.640 249.564,306.207 249.064 C 305.773 248.564,305.413 247.961,305.406 247.723 C 305.306 244.251,298.089 241.777,291.052 242.803 " stroke="none" fill="#0c264d" fill-rule="evenodd"></path>
    <path id="path3" d="M78.227 100.861 C 74.278 101.380,68.498 106.005,67.041 109.811 L 66.207 111.991 66.207 181.254 C 66.207 249.800,66.215 250.541,67.006 252.839 C 68.074 255.944,69.467 257.864,71.671 259.268 C 75.735 261.858,69.614 261.696,163.721 261.713 C 249.340 261.729,252.146 261.688,250.201 260.456 C 249.892 260.261,212.304 260.108,163.729 260.105 C 78.586 260.099,77.788 260.091,76.256 259.310 C 75.406 258.877,74.329 258.522,73.864 258.522 C 73.349 258.522,72.495 257.882,71.681 256.886 C 70.946 255.985,69.901 254.788,69.360 254.226 L 68.374 253.202 68.374 181.708 C 68.374 123.233,68.468 110.182,68.889 110.042 C 69.172 109.948,69.615 109.606,69.874 109.282 C 70.133 108.958,70.718 108.285,71.174 107.785 C 71.630 107.285,72.114 106.589,72.249 106.237 C 72.384 105.886,72.809 105.486,73.193 105.350 C 73.577 105.213,74.158 104.877,74.483 104.601 C 76.632 102.781,70.229 102.869,200.832 102.863 L 323.043 102.857 324.379 103.761 C 325.113 104.259,326.546 105.068,327.564 105.559 C 329.033 106.269,329.508 106.751,329.877 107.906 C 330.133 108.705,330.719 109.980,331.181 110.739 L 332.020 112.118 332.124 166.229 C 332.181 195.990,332.081 220.906,331.902 221.598 C 331.700 222.377,331.776 223.978,332.103 225.812 C 332.519 228.145,332.539 229.641,332.195 232.906 C 331.342 241.016,332.118 247.718,333.724 246.112 C 333.870 245.966,334.042 216.109,334.106 179.763 L 334.221 113.681 333.188 110.936 C 331.723 107.043,330.068 104.648,328.337 103.911 C 327.545 103.573,326.125 102.711,325.183 101.994 L 323.469 100.690 201.833 100.646 C 134.933 100.622,79.310 100.718,78.227 100.861 M82.942 116.417 C 81.850 116.679,80.742 117.027,80.479 117.189 C 79.921 117.534,79.774 244.945,80.330 245.821 C 80.505 246.097,81.611 246.691,82.787 247.143 L 84.926 247.963 166.897 247.876 C 228.696 247.810,249.643 247.671,252.020 247.311 L 255.172 246.834 253.354 246.533 C 252.354 246.367,213.748 246.204,167.561 246.170 C 99.245 246.120,83.491 246.013,83.074 245.596 C 82.658 245.181,82.546 233.062,82.478 181.500 L 82.393 117.917 83.266 117.683 C 85.330 117.130,317.129 117.420,317.591 117.976 C 317.919 118.371,318.034 131.646,318.025 167.791 C 318.013 215.495,318.060 217.878,319.061 219.441 C 319.698 220.436,320.840 218.413,320.547 216.808 C 320.363 215.800,320.203 193.100,320.192 166.363 L 320.172 117.751 319.010 116.905 L 317.849 116.059 201.388 116.000 C 111.479 115.954,84.474 116.049,82.942 116.417 M252.317 147.423 C 249.474 148.271,249.668 145.195,249.543 191.391 C 249.417 238.125,249.201 234.769,252.469 236.842 C 254.401 238.067,256.718 238.371,259.655 237.783 C 262.240 237.266,260.963 236.584,256.363 236.023 C 253.510 235.675,253.097 235.514,252.129 234.370 L 251.056 233.103 251.045 191.694 L 251.034 150.285 251.947 149.428 C 252.859 148.571,282.310 148.040,285.252 148.828 C 287.084 149.318,287.091 149.426,287.144 180.354 C 287.195 209.991,287.249 211.233,288.416 209.586 C 289.001 208.760,289.075 205.862,289.177 179.975 L 289.290 151.280 288.192 149.551 C 287.588 148.600,286.828 147.684,286.502 147.515 C 285.619 147.057,253.831 146.972,252.317 147.423 M164.252 164.658 C 163.881 164.806,169.949 164.926,177.735 164.926 C 185.522 164.926,191.589 164.806,191.217 164.658 C 190.846 164.511,184.778 164.390,177.734 164.390 C 170.690 164.390,164.623 164.511,164.252 164.658 M195.093 167.685 C 195.096 167.901,195.359 168.423,195.678 168.844 C 196.729 170.234,196.527 232.539,195.468 233.498 C 195.034 233.890,194.680 234.374,194.680 234.574 C 194.680 234.774,195.142 234.389,195.706 233.718 L 196.732 232.499 196.788 201.267 L 196.844 170.035 195.965 168.663 C 195.482 167.908,195.090 167.468,195.093 167.685 M158.121 169.852 C 158.121 170.611,158.202 170.921,158.301 170.542 C 158.400 170.163,158.400 169.542,158.301 169.163 C 158.202 168.783,158.121 169.094,158.121 169.852 M114.565 186.305 C 111.758 188.440,111.803 188.017,111.882 211.774 C 111.960 235.145,111.883 234.394,114.457 236.847 L 115.905 238.227 130.958 238.227 L 146.010 238.227 148.214 236.950 C 151.953 234.784,151.788 235.990,151.648 211.807 L 151.527 190.936 150.469 188.932 C 148.586 185.361,147.832 185.222,130.472 185.222 L 115.989 185.222 114.565 186.305 M147.466 188.386 C 147.833 188.769,148.365 189.159,148.648 189.254 C 149.061 189.391,149.184 193.736,149.271 211.373 L 149.379 233.320 148.374 234.252 C 146.913 235.606,146.497 235.648,131.823 235.915 C 118.704 236.155,115.074 235.932,115.074 234.890 C 115.074 234.697,114.764 234.229,114.384 233.850 C 113.747 233.213,113.686 231.530,113.577 211.900 L 113.459 190.640 114.513 189.119 L 115.567 187.598 127.439 187.479 C 143.072 187.324,146.600 187.483,147.466 188.386 M158.214 211.823 C 158.213 223.744,158.264 228.678,158.325 222.787 C 158.386 216.895,158.386 207.142,158.325 201.112 C 158.264 195.082,158.214 199.901,158.214 211.823 M159.024 234.892 C 159.405 235.508,163.186 237.243,164.113 237.227 C 164.560 237.219,163.969 236.869,162.800 236.448 C 161.630 236.028,160.375 235.413,160.010 235.083 C 159.254 234.399,158.646 234.281,159.024 234.892 M171.527 237.536 C 174.724 237.602,179.956 237.602,183.153 237.536 C 186.350 237.470,183.734 237.416,177.340 237.416 C 170.946 237.416,168.330 237.470,171.527 237.536 M45.100 273.525 C 42.334 274.329,40.825 276.266,40.599 279.300 C 40.215 284.462,41.278 286.665,44.667 287.727 C 46.391 288.267,254.365 288.793,257.293 288.264 C 263.285 287.183,256.199 287.091,152.194 286.897 L 46.694 286.700 44.453 285.526 C 41.973 284.227,41.786 283.868,41.781 280.394 C 41.778 277.843,41.719 277.918,45.300 275.881 C 46.171 275.386,60.614 275.306,153.695 275.284 C 212.759 275.270,261.305 275.118,261.576 274.946 C 262.433 274.402,262.116 273.942,260.591 273.518 C 258.724 273.000,46.885 273.006,45.100 273.525 M330.180 273.461 C 323.551 274.050,327.679 275.008,337.931 275.259 C 355.520 275.691,358.199 276.267,358.762 279.734 C 359.106 281.852,358.334 283.998,357.036 284.536 C 356.441 284.782,355.580 285.414,355.123 285.940 L 354.291 286.897 342.728 286.897 C 336.369 286.897,331.045 287.018,330.897 287.166 C 329.977 288.086,333.500 288.522,341.084 288.426 C 345.419 288.371,349.764 288.364,350.739 288.409 C 357.131 288.705,361.314 285.353,360.893 280.272 C 360.690 277.823,357.063 273.836,354.588 273.341 C 353.116 273.047,333.773 273.142,330.180 273.461 M280.221 287.074 C 277.741 287.739,279.157 288.190,282.642 287.847 C 284.857 287.629,285.252 287.487,284.883 287.042 C 284.357 286.408,282.663 286.420,280.221 287.074 M304.631 287.377 L 303.645 287.807 304.828 288.093 C 307.446 288.728,312.597 288.007,310.739 287.266 C 309.590 286.808,305.775 286.877,304.631 287.377 " stroke="none" fill="#0a8bbc" fill-rule="evenodd"></path>
    <path id="path4" d="M174.975 0.591 C 174.975 0.916,174.815 1.182,174.619 1.182 C 171.525 1.182,162.835 2.617,158.818 3.792 C 153.270 5.414,149.597 6.285,148.256 6.297 C 147.758 6.302,146.822 6.578,146.178 6.912 C 145.533 7.245,143.990 7.695,142.749 7.912 C 140.664 8.275,136.941 9.698,133.596 11.409 C 132.837 11.797,131.561 12.213,130.759 12.335 C 129.957 12.456,128.716 12.818,128.000 13.139 C 127.285 13.461,125.813 14.006,124.729 14.350 C 123.645 14.694,121.738 15.670,120.490 16.518 C 119.242 17.366,117.514 18.179,116.649 18.325 C 115.785 18.471,114.987 18.738,114.876 18.917 C 114.765 19.097,113.434 19.717,111.919 20.297 C 110.403 20.876,109.163 21.493,109.163 21.668 C 109.163 22.186,105.525 24.332,104.165 24.616 C 103.476 24.760,102.692 25.143,102.423 25.467 C 102.154 25.791,101.300 26.320,100.525 26.644 C 99.749 26.968,98.312 27.911,97.330 28.739 C 96.348 29.566,94.972 30.370,94.270 30.524 C 93.569 30.678,91.553 31.949,89.790 33.350 C 88.027 34.750,86.212 36.091,85.756 36.331 C 85.299 36.570,84.344 37.272,83.632 37.890 C 82.920 38.509,82.137 39.015,81.892 39.015 C 81.647 39.015,80.346 40.034,79.000 41.281 C 77.655 42.527,75.567 44.256,74.361 45.123 C 73.154 45.990,71.986 47.090,71.766 47.567 C 71.545 48.045,70.780 48.729,70.066 49.089 C 68.420 49.919,66.306 51.899,65.574 53.297 C 65.263 53.891,64.312 54.732,63.460 55.166 C 61.489 56.172,59.955 57.706,59.262 59.366 C 58.962 60.084,58.220 60.927,57.614 61.241 C 56.303 61.919,53.205 65.188,53.196 65.903 C 53.192 66.178,52.111 67.468,50.792 68.768 C 49.473 70.069,47.974 71.754,47.461 72.512 C 46.948 73.271,45.460 75.222,44.154 76.847 C 41.402 80.272,39.218 83.468,38.862 84.591 C 38.725 85.022,38.072 85.775,37.411 86.263 C 35.987 87.316,34.683 89.327,34.681 90.473 C 34.680 90.923,34.236 91.708,33.695 92.217 C 33.153 92.726,32.709 93.333,32.709 93.566 C 32.708 93.799,31.998 94.966,31.130 96.158 C 30.262 97.350,29.274 98.946,28.934 99.704 C 27.805 102.221,25.924 105.804,25.415 106.404 C 24.666 107.289,22.069 112.811,22.069 113.521 C 22.069 113.861,21.297 115.290,20.354 116.696 C 19.411 118.102,18.516 119.908,18.366 120.709 C 18.216 121.510,17.659 123.097,17.129 124.235 C 16.599 125.374,16.164 126.725,16.161 127.237 C 16.159 127.749,15.813 128.813,15.391 129.602 C 14.051 132.106,12.549 136.079,12.018 138.522 C 11.736 139.823,11.241 141.596,10.917 142.463 C 10.594 143.330,10.128 145.357,9.883 146.968 C 9.637 148.579,9.284 150.086,9.099 150.318 C 8.668 150.855,8.412 152.124,7.700 157.241 C 7.384 159.517,6.848 162.355,6.509 163.547 C 5.799 166.048,4.858 171.637,4.287 176.749 C 4.054 178.834,3.948 188.254,4.029 199.606 C 4.178 220.351,4.215 220.798,6.545 230.363 C 7.076 232.540,7.696 235.994,7.924 238.038 C 8.153 240.081,8.597 242.371,8.913 243.126 C 9.228 243.881,9.763 246.099,10.100 248.054 C 10.437 250.009,10.946 252.058,11.230 252.608 C 11.514 253.157,11.873 254.491,12.028 255.572 C 12.184 256.653,12.821 258.598,13.446 259.896 C 14.070 261.193,14.581 262.528,14.581 262.862 C 14.581 263.196,14.866 263.876,15.214 264.373 C 15.561 264.869,16.085 266.283,16.377 267.515 C 16.670 268.746,17.272 270.456,17.715 271.315 C 18.159 272.173,18.522 273.258,18.522 273.726 C 18.522 274.193,19.304 275.741,20.259 277.166 C 21.214 278.590,22.121 280.343,22.274 281.060 C 22.544 282.328,22.911 283.059,26.397 289.261 C 27.311 290.887,28.314 292.922,28.625 293.785 C 28.936 294.647,29.885 296.175,30.733 297.181 C 31.580 298.186,32.387 299.459,32.525 300.009 C 32.663 300.559,33.204 301.411,33.728 301.903 C 34.251 302.395,34.680 303.041,34.680 303.339 C 34.680 304.304,35.800 306.086,37.972 308.576 C 39.140 309.915,40.315 311.675,40.583 312.487 C 40.884 313.399,41.808 314.599,42.998 315.624 C 44.059 316.538,44.926 317.537,44.926 317.844 C 44.926 318.152,46.031 319.694,47.381 321.271 C 48.731 322.848,50.017 324.375,50.238 324.666 C 50.459 324.956,51.172 325.777,51.823 326.490 C 52.473 327.204,53.703 328.776,54.557 329.985 C 55.411 331.194,56.587 332.381,57.171 332.623 C 57.771 332.871,58.983 334.186,59.954 335.643 C 61.116 337.385,62.137 338.435,63.097 338.875 C 63.879 339.234,65.521 340.709,66.745 342.152 C 67.970 343.596,69.369 344.903,69.855 345.057 C 70.341 345.211,71.626 346.248,72.709 347.362 C 73.793 348.476,76.675 350.876,79.113 352.696 C 81.552 354.516,83.547 356.147,83.547 356.320 C 83.547 356.493,84.271 357.037,85.157 357.529 C 86.043 358.021,87.288 358.714,87.925 359.068 C 88.562 359.422,89.944 360.518,90.997 361.503 C 92.113 362.547,93.563 363.470,94.472 363.714 C 95.330 363.946,96.340 364.474,96.715 364.889 C 97.091 365.304,97.870 365.762,98.446 365.906 C 99.022 366.051,100.384 366.925,101.471 367.849 C 102.559 368.773,103.997 369.636,104.669 369.767 C 105.340 369.898,106.493 370.383,107.230 370.844 C 112.249 373.984,115.439 375.659,116.928 375.937 C 117.875 376.114,118.965 376.544,119.352 376.894 C 119.739 377.244,121.018 377.870,122.195 378.285 C 123.372 378.700,125.310 379.576,126.502 380.231 C 127.695 380.887,129.557 381.635,130.640 381.894 C 131.724 382.153,132.990 382.600,133.454 382.887 C 133.918 383.174,135.603 383.753,137.198 384.172 C 138.793 384.592,141.517 385.506,143.251 386.204 C 144.985 386.903,147.760 387.708,149.418 387.994 C 151.075 388.281,153.587 388.872,154.999 389.308 C 156.411 389.744,159.045 390.299,160.852 390.541 C 162.659 390.782,165.911 391.414,168.079 391.943 C 170.246 392.472,172.685 392.906,173.498 392.906 C 174.548 392.906,174.975 393.077,174.975 393.498 C 174.975 393.994,175.829 394.089,180.296 394.089 C 189.235 394.089,186.017 392.158,176.020 391.523 C 173.466 391.361,171.647 391.030,170.700 390.555 C 169.831 390.119,167.905 389.732,165.836 389.578 C 163.952 389.437,161.115 388.962,159.531 388.521 C 157.946 388.080,155.167 387.566,153.353 387.377 C 151.351 387.169,149.791 386.794,149.381 386.423 C 149.010 386.088,148.348 385.813,147.910 385.813 C 146.812 385.813,144.564 385.025,143.810 384.377 C 143.467 384.082,142.154 383.649,140.891 383.416 C 139.629 383.182,138.224 382.753,137.771 382.462 C 137.317 382.172,135.793 381.719,134.384 381.456 C 132.975 381.193,131.270 380.647,130.594 380.243 C 129.918 379.838,129.089 379.507,128.752 379.507 C 128.415 379.507,127.620 379.071,126.986 378.537 C 126.352 378.004,124.991 377.378,123.962 377.148 C 122.933 376.917,121.836 376.474,121.525 376.162 C 120.930 375.567,118.538 374.784,117.304 374.781 C 116.610 374.778,115.455 374.025,113.259 372.143 C 112.706 371.668,111.691 371.160,111.003 371.013 C 110.316 370.866,109.452 370.429,109.084 370.041 C 108.716 369.654,107.677 369.213,106.776 369.060 C 105.594 368.861,104.548 368.250,103.018 366.864 C 101.852 365.808,100.408 364.825,99.809 364.681 C 99.209 364.536,98.265 364.100,97.710 363.713 C 97.155 363.325,96.234 362.891,95.664 362.748 C 95.094 362.605,93.686 361.624,92.535 360.568 C 91.385 359.513,90.243 358.643,89.999 358.635 C 89.755 358.627,89.321 358.340,89.036 357.996 C 88.751 357.652,87.875 357.114,87.089 356.799 C 86.303 356.485,84.999 355.436,84.190 354.469 C 83.381 353.501,82.477 352.709,82.181 352.709 C 81.622 352.709,80.749 352.050,77.683 349.309 C 76.681 348.414,75.167 347.213,74.317 346.640 C 73.467 346.068,72.526 345.248,72.226 344.819 C 71.925 344.390,71.504 344.039,71.289 344.039 C 71.074 344.039,69.621 342.747,68.060 341.168 C 66.499 339.588,64.740 338.088,64.152 337.833 C 63.564 337.578,62.631 336.654,62.078 335.779 C 61.526 334.903,60.899 334.187,60.685 334.187 C 60.471 334.187,60.296 333.934,60.296 333.625 C 60.296 333.316,59.415 332.385,58.340 331.556 C 57.264 330.727,56.269 329.716,56.129 329.308 C 55.989 328.900,55.007 327.690,53.947 326.618 C 52.887 325.547,52.020 324.404,52.020 324.078 C 52.020 323.414,49.125 320.394,48.488 320.394 C 48.263 320.394,48.079 320.252,48.079 320.078 C 48.079 319.298,44.780 314.797,43.389 313.679 C 42.344 312.839,41.767 312.009,41.596 311.102 C 41.458 310.366,40.998 309.578,40.574 309.351 C 40.150 309.124,39.803 308.706,39.803 308.422 C 39.803 308.138,39.430 307.568,38.974 307.156 C 38.519 306.743,37.872 305.873,37.536 305.223 C 37.201 304.572,36.599 303.808,36.197 303.524 C 35.796 303.241,35.468 302.820,35.468 302.588 C 35.468 301.600,32.806 296.793,31.271 295.009 C 30.189 293.752,29.512 292.527,29.342 291.519 C 29.197 290.665,28.769 289.656,28.390 289.276 C 28.011 288.897,27.586 288.132,27.446 287.575 C 27.307 287.019,26.749 286.036,26.207 285.392 C 25.665 284.748,25.222 284.049,25.222 283.839 C 25.222 283.628,24.865 283.003,24.429 282.449 C 23.993 281.894,23.459 280.505,23.242 279.362 C 23.025 278.218,22.524 276.918,22.128 276.474 C 21.732 276.029,21.173 275.044,20.886 274.286 C 20.598 273.527,20.139 272.640,19.866 272.315 C 19.593 271.990,19.154 270.837,18.890 269.754 C 18.627 268.670,18.186 267.517,17.911 267.192 C 17.635 266.867,17.186 265.448,16.911 264.039 C 16.637 262.631,15.931 260.502,15.343 259.310 C 14.025 256.636,13.183 254.146,12.811 251.823 C 12.655 250.847,12.214 249.517,11.831 248.867 C 11.423 248.173,11.038 246.457,10.900 244.710 C 10.770 243.074,10.316 240.591,9.891 239.193 C 9.466 237.794,8.929 234.713,8.697 232.344 C 8.459 229.910,8.025 227.655,7.698 227.156 C 7.344 226.617,6.972 224.448,6.739 221.571 C 6.529 218.984,6.036 215.732,5.642 214.345 C 4.590 210.636,4.567 184.106,5.612 179.901 C 5.989 178.384,6.469 175.065,6.678 172.526 C 6.921 169.577,7.279 167.570,7.671 166.973 C 8.046 166.401,8.452 164.287,8.715 161.540 C 8.952 159.068,9.471 156.062,9.869 154.862 C 10.267 153.662,10.710 151.268,10.854 149.542 C 11.000 147.790,11.433 145.769,11.835 144.968 C 12.231 144.178,12.772 142.404,13.038 141.027 C 13.304 139.649,14.115 137.244,14.840 135.682 C 16.147 132.867,17.340 128.994,17.340 127.566 C 17.340 127.158,17.695 126.373,18.128 125.822 C 18.562 125.271,18.916 124.564,18.916 124.251 C 18.916 123.448,21.662 117.833,22.054 117.833 C 22.480 117.833,22.829 116.889,23.282 114.510 C 23.485 113.441,23.933 112.257,24.276 111.877 C 24.902 111.186,25.742 109.767,27.051 107.192 C 27.437 106.433,28.002 105.509,28.309 105.137 C 28.615 104.766,29.016 103.652,29.201 102.661 C 29.446 101.354,29.999 100.370,31.222 99.067 C 32.148 98.081,33.122 96.660,33.385 95.910 C 33.648 95.159,34.224 94.086,34.665 93.525 C 35.107 92.964,35.468 92.184,35.468 91.792 C 35.468 91.400,36.411 89.961,37.564 88.594 C 38.717 87.227,39.775 85.798,39.916 85.419 C 40.057 85.039,40.331 84.729,40.525 84.729 C 40.719 84.729,41.176 83.950,41.539 82.998 C 41.977 81.852,42.719 80.907,43.734 80.204 C 44.578 79.619,45.443 78.639,45.657 78.026 C 46.068 76.846,46.193 76.682,49.230 73.351 C 50.291 72.186,51.482 70.634,51.876 69.902 C 52.271 69.170,52.801 68.571,53.056 68.571 C 53.469 68.571,54.477 67.222,55.839 64.848 C 56.097 64.397,57.106 63.525,58.081 62.908 C 59.073 62.281,60.017 61.320,60.224 60.724 C 60.697 59.368,63.704 56.404,64.915 56.100 C 65.424 55.973,66.088 55.401,66.390 54.831 C 67.232 53.243,70.772 50.049,71.691 50.049 C 71.935 50.049,72.336 49.609,72.581 49.072 C 72.826 48.534,73.345 47.993,73.734 47.869 C 74.124 47.746,74.552 47.299,74.686 46.876 C 74.820 46.454,75.184 46.108,75.493 46.108 C 75.803 46.108,76.744 45.488,77.584 44.729 C 78.423 43.970,79.239 43.350,79.397 43.350 C 79.555 43.350,80.184 42.862,80.795 42.266 C 82.881 40.231,83.416 39.803,83.872 39.803 C 84.123 39.803,84.551 39.439,84.824 38.994 C 85.097 38.550,86.030 37.867,86.897 37.478 C 87.764 37.088,89.182 36.126,90.049 35.340 C 92.080 33.499,95.007 31.546,95.764 31.526 C 96.089 31.518,97.419 30.804,98.719 29.940 C 100.020 29.075,101.793 27.900,102.660 27.327 C 103.527 26.755,104.327 26.148,104.439 25.980 C 104.550 25.812,105.525 25.461,106.606 25.201 C 107.687 24.940,108.779 24.469,109.033 24.153 C 109.578 23.476,111.342 22.430,114.137 21.127 C 115.247 20.610,116.277 19.989,116.426 19.748 C 116.575 19.507,117.224 19.310,117.868 19.310 C 119.135 19.310,120.185 18.880,124.138 16.744 C 125.547 15.983,127.527 15.110,128.537 14.805 C 129.548 14.500,130.790 13.989,131.296 13.670 C 131.802 13.351,133.103 12.966,134.187 12.815 C 135.806 12.588,139.683 11.067,142.671 9.486 C 143.002 9.310,144.573 8.935,146.162 8.651 C 147.751 8.367,149.272 7.914,149.542 7.644 C 149.812 7.374,151.344 7.036,152.947 6.894 C 154.550 6.752,156.837 6.366,158.030 6.035 C 165.505 3.961,171.409 2.853,177.340 2.408 C 187.055 1.680,189.118 0.000,180.296 0.000 C 175.829 0.000,174.975 0.095,174.975 0.591 M216.355 0.576 C 216.355 1.579,222.875 2.739,228.571 2.748 C 231.010 2.752,234.699 3.523,242.562 5.669 C 244.512 6.201,247.438 6.754,249.064 6.897 C 250.690 7.040,252.286 7.384,252.611 7.661 C 252.936 7.939,254.355 8.375,255.764 8.630 C 258.554 9.137,258.548 9.134,262.857 11.144 C 264.483 11.902,266.721 12.645,267.830 12.794 C 268.940 12.943,270.359 13.335,270.983 13.666 C 271.607 13.997,273.005 14.532,274.089 14.857 C 275.172 15.181,276.325 15.666,276.650 15.934 C 276.975 16.202,277.862 16.662,278.621 16.956 C 279.379 17.250,280.138 17.716,280.306 17.991 C 280.657 18.564,283.057 19.305,284.569 19.308 C 285.132 19.309,285.899 19.649,286.273 20.063 C 286.648 20.477,287.429 20.932,288.009 21.073 C 289.062 21.330,291.513 22.807,293.005 24.083 C 293.438 24.454,294.579 24.966,295.539 25.221 C 296.500 25.476,297.847 26.112,298.532 26.635 C 299.218 27.158,299.978 27.586,300.220 27.586 C 300.463 27.586,300.834 27.897,301.044 28.276 C 301.254 28.655,302.634 29.581,304.112 30.334 C 305.589 31.086,307.153 31.995,307.586 32.354 C 308.020 32.713,309.039 33.219,309.852 33.480 C 310.665 33.740,311.330 34.137,311.330 34.362 C 311.330 35.155,314.251 37.433,315.591 37.685 C 316.447 37.845,317.020 38.211,317.141 38.674 C 317.247 39.078,317.471 39.409,317.640 39.409 C 317.809 39.409,318.802 40.217,319.848 41.205 C 320.894 42.193,322.331 43.277,323.042 43.614 C 323.753 43.952,324.335 44.383,324.335 44.572 C 324.335 44.761,325.000 45.337,325.813 45.851 C 326.626 46.365,328.023 47.520,328.919 48.418 C 329.815 49.315,330.725 50.049,330.943 50.049 C 331.160 50.049,331.628 50.493,331.983 51.034 C 332.339 51.576,332.789 52.020,332.984 52.020 C 333.456 52.020,335.602 54.183,335.900 54.960 C 336.030 55.297,336.584 55.778,337.132 56.027 C 337.680 56.277,338.128 56.628,338.128 56.807 C 338.128 56.986,338.844 57.585,339.719 58.138 C 340.595 58.690,341.518 59.623,341.772 60.211 C 342.026 60.800,343.526 62.544,345.107 64.088 C 346.687 65.632,347.980 67.091,347.980 67.330 C 347.980 67.569,348.424 68.056,348.966 68.411 C 349.507 68.766,349.954 69.257,349.958 69.503 C 349.961 69.749,351.026 71.099,352.324 72.502 C 353.621 73.906,354.783 75.369,354.905 75.753 C 355.027 76.138,355.290 76.453,355.489 76.453 C 355.688 76.453,356.096 77.038,356.394 77.752 C 356.906 78.977,359.089 81.182,359.790 81.182 C 359.967 81.182,360.231 81.670,360.376 82.266 C 360.710 83.634,362.215 85.895,364.624 88.650 C 365.657 89.831,366.503 91.073,366.504 91.409 C 366.505 91.745,367.036 92.818,367.685 93.793 C 368.333 94.768,368.864 95.849,368.865 96.195 C 368.866 96.540,369.728 97.807,370.780 99.010 C 372.118 100.538,372.769 101.668,372.944 102.764 C 373.082 103.626,373.443 104.537,373.747 104.789 C 374.050 105.041,375.024 106.738,375.910 108.560 C 376.796 110.383,377.775 112.017,378.084 112.193 C 378.394 112.369,378.841 113.576,379.079 114.877 C 379.316 116.177,379.773 117.436,380.093 117.674 C 380.414 117.912,380.890 119.064,381.151 120.235 C 381.412 121.406,382.036 122.866,382.537 123.479 C 383.038 124.091,383.448 124.836,383.448 125.134 C 383.448 125.432,383.713 125.823,384.037 126.005 C 384.361 126.186,384.821 127.392,385.060 128.684 C 385.298 129.977,385.722 131.584,386.002 132.255 C 386.281 132.926,386.809 134.788,387.174 136.391 C 387.538 137.995,388.060 139.574,388.333 139.900 C 388.606 140.226,389.053 141.291,389.326 142.266 C 389.599 143.241,390.084 144.451,390.406 144.953 C 390.727 145.455,391.155 147.495,391.358 149.485 C 391.560 151.475,391.987 153.990,392.306 155.074 C 392.853 156.935,393.181 158.332,394.622 164.926 C 394.954 166.443,395.416 170.105,395.649 173.064 C 395.882 176.023,396.334 179.303,396.653 180.355 C 397.515 183.195,397.509 211.026,396.646 213.829 C 396.318 214.893,395.870 218.158,395.648 221.084 C 395.233 226.580,394.867 228.608,392.839 236.650 C 392.183 239.251,391.514 242.931,391.352 244.829 C 391.169 246.966,390.830 248.540,390.461 248.966 C 390.133 249.345,389.653 250.526,389.393 251.591 C 389.134 252.656,388.577 253.966,388.156 254.501 C 387.734 255.037,387.381 255.940,387.372 256.506 C 387.362 257.073,387.079 258.246,386.743 259.113 C 386.407 259.980,385.816 262.047,385.430 263.706 C 385.044 265.365,384.440 267.134,384.088 267.636 C 383.736 268.139,383.448 268.873,383.448 269.269 C 383.448 269.665,383.028 270.379,382.515 270.856 C 381.950 271.382,381.405 272.553,381.134 273.824 C 380.887 274.978,380.427 276.181,380.111 276.497 C 379.522 277.086,378.725 279.478,378.721 280.669 C 378.720 281.037,378.276 281.817,377.734 282.402 C 377.192 282.986,376.749 283.683,376.749 283.950 C 376.749 284.217,376.492 284.649,376.178 284.909 C 375.864 285.170,375.399 286.034,375.144 286.830 C 374.889 287.625,374.359 288.631,373.966 289.064 C 373.572 289.498,373.077 290.623,372.865 291.565 C 372.507 293.161,372.045 293.864,369.746 296.313 C 369.254 296.837,368.740 297.726,368.604 298.288 C 368.469 298.850,368.034 299.775,367.637 300.343 C 367.241 300.910,366.734 301.797,366.511 302.313 C 366.288 302.829,365.482 304.049,364.721 305.025 C 363.959 306.000,362.967 307.374,362.516 308.079 C 362.065 308.783,361.541 309.360,361.352 309.360 C 361.164 309.360,360.781 310.143,360.502 311.100 C 360.153 312.294,359.523 313.215,358.496 314.031 C 356.975 315.240,354.700 318.250,354.687 319.071 C 354.683 319.319,353.811 320.183,352.750 320.993 C 350.891 322.411,349.951 323.738,349.951 324.945 C 349.951 325.260,349.691 325.517,349.373 325.517 C 349.056 325.517,348.583 325.916,348.322 326.403 C 348.061 326.891,346.991 328.060,345.944 329.001 C 344.896 329.943,344.039 330.963,344.039 331.268 C 344.039 331.573,343.780 331.823,343.462 331.823 C 343.145 331.823,342.672 332.221,342.411 332.708 C 341.797 333.855,337.796 337.856,336.649 338.470 C 336.162 338.731,335.764 339.204,335.764 339.521 C 335.764 339.839,335.564 340.099,335.320 340.099 C 335.077 340.099,334.036 340.966,333.009 342.027 C 331.981 343.087,330.762 344.157,330.299 344.405 C 329.837 344.653,329.458 345.079,329.458 345.353 C 329.458 345.627,328.845 346.073,328.095 346.344 C 327.345 346.616,326.033 347.631,325.179 348.601 C 323.740 350.236,321.122 352.307,320.475 352.322 C 320.008 352.332,317.791 354.431,317.329 355.300 C 317.089 355.750,316.203 356.324,315.358 356.577 C 314.514 356.831,313.501 357.394,313.107 357.829 C 312.713 358.264,312.220 358.621,312.013 358.621 C 311.659 358.621,310.113 359.764,308.016 361.576 C 306.964 362.487,303.065 364.532,302.383 364.532 C 302.130 364.532,300.826 365.488,299.486 366.657 C 297.810 368.119,296.591 368.854,295.579 369.016 C 294.771 369.146,293.683 369.585,293.163 369.993 C 292.642 370.401,291.632 370.862,290.917 371.019 C 290.202 371.175,289.406 371.641,289.147 372.055 C 288.889 372.469,288.468 372.808,288.211 372.808 C 287.955 372.808,287.244 373.226,286.631 373.738 C 286.008 374.258,284.704 374.788,283.673 374.940 C 282.659 375.090,281.392 375.556,280.859 375.976 C 280.325 376.395,279.004 376.928,277.923 377.160 C 276.756 377.411,275.590 377.973,275.053 378.545 C 274.555 379.074,273.906 379.507,273.610 379.507 C 273.314 379.507,272.414 379.836,271.610 380.238 C 270.806 380.639,268.995 381.185,267.586 381.451 C 266.177 381.716,264.653 382.172,264.200 382.462 C 263.746 382.753,262.360 383.179,261.120 383.408 C 259.880 383.637,258.416 384.179,257.866 384.611 C 257.316 385.044,256.219 385.502,255.428 385.630 C 254.637 385.758,253.261 386.206,252.371 386.626 C 251.453 387.058,249.910 387.389,248.811 387.389 C 247.744 387.389,245.902 387.660,244.716 387.990 C 241.420 388.909,236.846 389.725,234.903 389.740 C 233.942 389.748,232.434 390.098,231.553 390.519 C 230.443 391.050,228.436 391.405,225.025 391.674 C 215.196 392.449,212.921 394.089,221.675 394.089 C 226.141 394.089,226.995 393.994,226.995 393.498 C 226.995 393.077,227.422 392.906,228.473 392.906 C 229.286 392.906,231.733 392.474,233.911 391.946 C 236.090 391.418,239.459 390.779,241.399 390.526 C 243.339 390.273,245.864 389.741,247.009 389.343 C 248.155 388.946,250.461 388.416,252.133 388.166 C 253.804 387.916,255.704 387.477,256.355 387.191 C 258.555 386.221,262.253 384.933,264.904 384.212 C 266.355 383.818,267.952 383.236,268.451 382.920 C 268.951 382.603,270.269 382.156,271.381 381.926 C 273.168 381.555,276.365 380.135,277.594 379.165 C 277.834 378.977,278.739 378.602,279.606 378.333 C 280.473 378.064,281.892 377.445,282.759 376.959 C 283.626 376.472,284.887 375.969,285.561 375.841 C 286.235 375.713,287.653 375.078,288.713 374.430 C 292.678 372.007,296.410 370.065,297.847 369.678 C 298.663 369.458,300.048 368.589,300.924 367.748 C 301.800 366.906,303.156 366.006,303.936 365.748 C 304.717 365.491,305.550 365.046,305.787 364.760 C 306.024 364.474,307.362 363.677,308.760 362.989 C 310.158 362.301,311.652 361.246,312.080 360.644 C 312.509 360.043,314.029 358.957,315.458 358.232 C 316.887 357.506,318.684 356.219,319.450 355.370 C 320.216 354.522,321.407 353.587,322.097 353.291 C 322.786 352.995,324.700 351.547,326.350 350.071 C 328.000 348.596,330.390 346.502,331.662 345.419 C 334.540 342.966,338.848 338.925,341.239 336.435 C 342.237 335.395,344.429 333.119,346.108 331.376 C 347.788 329.634,349.163 327.966,349.163 327.671 C 349.163 327.375,349.429 326.984,349.754 326.802 C 350.080 326.619,351.414 325.236,352.718 323.728 C 354.023 322.219,355.421 320.631,355.826 320.197 C 356.231 319.764,356.857 318.824,357.218 318.109 C 357.578 317.394,358.552 316.195,359.383 315.445 C 360.213 314.694,361.125 313.506,361.408 312.804 C 361.993 311.351,363.448 309.275,364.997 307.682 C 365.578 307.085,366.526 305.629,367.104 304.448 C 367.682 303.266,368.395 302.100,368.688 301.857 C 368.981 301.614,369.428 300.785,369.682 300.016 C 370.145 298.615,370.496 298.094,372.512 295.823 C 373.108 295.152,373.596 294.240,373.596 293.797 C 373.596 293.354,374.023 292.363,374.545 291.595 C 375.067 290.827,375.768 289.588,376.103 288.843 C 376.438 288.098,377.250 286.601,377.906 285.517 C 379.304 283.210,379.901 281.921,379.901 281.212 C 379.901 280.932,380.431 279.658,381.079 278.381 C 381.726 277.104,382.258 275.824,382.261 275.537 C 382.264 275.249,382.974 273.802,383.839 272.321 C 384.704 270.840,385.608 268.681,385.848 267.523 C 386.089 266.366,386.521 265.046,386.809 264.590 C 387.096 264.134,387.453 263.070,387.601 262.225 C 387.841 260.853,389.741 255.597,391.151 252.403 C 391.441 251.747,391.857 249.776,392.077 248.022 C 392.297 246.268,392.734 244.144,393.048 243.303 C 394.713 238.838,395.804 234.135,396.502 228.411 C 396.927 224.923,397.476 220.562,397.722 218.719 C 398.340 214.096,398.318 178.505,397.695 174.778 C 397.442 173.261,396.889 169.073,396.467 165.472 C 395.990 161.399,395.318 157.751,394.690 155.817 C 394.135 154.108,393.394 151.823,393.044 150.739 C 392.693 149.655,392.265 147.514,392.092 145.981 C 391.919 144.448,391.522 142.586,391.208 141.843 C 389.387 137.526,388.788 135.866,388.107 133.257 C 387.691 131.662,387.111 129.977,386.818 129.513 C 386.525 129.049,386.088 127.718,385.846 126.555 C 385.605 125.392,385.090 123.974,384.702 123.403 C 384.314 122.832,383.420 121.034,382.715 119.409 C 382.011 117.783,381.192 115.921,380.895 115.271 C 380.598 114.621,380.142 113.379,379.881 112.512 C 379.621 111.645,379.185 110.670,378.913 110.345 C 378.641 110.020,378.296 109.354,378.147 108.865 C 377.998 108.376,377.483 107.489,377.002 106.894 C 376.521 106.300,375.442 104.305,374.604 102.463 C 373.766 100.621,372.770 98.759,372.391 98.325 C 372.011 97.892,371.047 96.340,370.248 94.877 C 369.448 93.414,368.648 92.217,368.468 92.217 C 368.289 92.217,367.861 91.374,367.518 90.345 C 367.174 89.315,366.140 87.655,365.220 86.655 C 364.300 85.655,363.015 83.902,362.365 82.759 C 361.714 81.616,360.430 79.862,359.510 78.862 C 358.590 77.862,357.836 76.922,357.835 76.773 C 357.834 76.623,357.123 75.682,356.256 74.680 C 355.389 73.678,354.680 72.705,354.680 72.517 C 354.680 72.330,353.493 70.966,352.043 69.487 C 350.593 68.008,349.100 66.147,348.727 65.352 C 348.353 64.557,347.633 63.688,347.127 63.422 C 345.442 62.536,343.462 60.563,342.820 59.129 C 342.393 58.176,341.405 57.199,339.802 56.146 C 338.401 55.227,337.163 54.059,336.801 53.314 C 336.232 52.147,335.350 51.404,331.939 49.223 C 331.244 48.779,330.581 48.118,330.465 47.753 C 330.349 47.389,329.095 46.205,327.678 45.122 C 323.519 41.944,319.471 38.708,318.585 37.852 C 318.131 37.414,317.156 36.798,316.417 36.482 C 315.678 36.165,314.221 35.103,313.178 34.120 C 312.136 33.137,310.123 31.780,308.706 31.103 C 307.289 30.427,305.811 29.554,305.420 29.164 C 305.030 28.774,303.850 27.964,302.799 27.364 C 301.747 26.764,300.532 25.962,300.099 25.582 C 299.665 25.202,298.623 24.764,297.782 24.609 C 296.867 24.440,295.425 23.651,294.186 22.642 C 292.125 20.963,288.704 19.312,285.302 18.353 C 284.316 18.075,282.610 17.201,281.511 16.411 C 279.593 15.034,275.913 13.544,271.724 12.450 C 270.640 12.167,269.047 11.555,268.183 11.091 C 267.319 10.626,266.360 10.246,266.050 10.246 C 265.741 10.246,264.763 9.826,263.877 9.313 C 262.991 8.799,261.390 8.251,260.319 8.095 C 259.248 7.939,257.556 7.490,256.560 7.097 C 255.564 6.704,253.692 6.253,252.399 6.094 C 251.107 5.935,249.251 5.555,248.276 5.251 C 240.238 2.739,238.084 2.266,231.429 1.552 C 228.175 1.204,226.995 0.934,226.995 0.539 C 226.995 0.110,225.910 0.000,221.675 0.000 C 217.271 0.000,216.355 0.099,216.355 0.576 M205.400 130.260 C 202.367 132.311,202.562 128.657,202.562 183.652 C 202.562 239.689,202.262 234.852,205.882 237.328 L 208.276 238.966 222.660 239.110 L 237.044 239.255 238.460 238.347 C 239.239 237.847,240.525 237.022,241.318 236.513 C 242.110 236.004,242.759 235.397,242.759 235.165 C 242.759 234.932,243.069 234.399,243.448 233.980 C 244.096 233.264,244.144 230.254,244.243 184.381 L 244.347 135.543 243.327 133.387 C 242.766 132.202,242.134 131.232,241.923 131.232 C 241.712 131.232,241.087 130.744,240.535 130.148 L 239.531 129.064 223.509 128.957 L 207.488 128.849 205.400 130.260 M238.040 130.700 C 240.054 132.045,241.603 133.811,241.951 135.159 C 242.594 137.654,242.645 231.745,242.003 232.890 C 239.930 236.592,238.889 236.813,222.964 236.931 L 209.012 237.034 207.166 236.054 C 206.151 235.516,205.320 234.875,205.320 234.630 C 205.320 234.385,205.054 233.964,204.729 233.695 C 204.209 233.263,204.138 227.256,204.138 184.001 C 204.138 128.479,203.846 133.544,207.187 131.168 L 208.670 130.114 222.868 130.082 C 235.445 130.053,237.177 130.124,238.040 130.700 M263.153 146.896 C 266.675 146.961,272.438 146.961,275.961 146.896 C 279.483 146.831,276.601 146.777,269.557 146.777 C 262.512 146.777,259.631 146.831,263.153 146.896 M249.253 191.724 C 249.253 212.315,249.301 220.797,249.359 210.572 C 249.418 200.347,249.418 183.500,249.360 173.133 C 249.301 162.767,249.253 171.133,249.253 191.724 M164.335 163.114 C 164.010 163.297,163.078 163.565,162.263 163.712 C 161.338 163.878,160.156 164.556,159.111 165.522 L 157.438 167.065 157.321 200.084 C 157.186 237.964,156.962 235.394,160.563 237.408 L 163.084 238.818 177.522 238.818 C 193.976 238.818,193.157 238.967,196.036 235.434 L 197.833 233.228 197.833 201.369 C 197.833 180.439,197.693 169.143,197.426 168.440 C 196.737 166.628,194.019 164.338,191.593 163.526 C 189.186 162.720,165.671 162.365,164.335 163.114 M192.533 165.311 C 193.911 166.001,194.829 166.837,195.663 168.165 L 196.844 170.044 196.788 201.250 L 196.732 232.457 195.443 234.061 C 192.652 237.533,193.156 237.438,177.537 237.438 L 163.744 237.438 161.495 236.368 C 157.752 234.586,158.029 237.408,158.035 201.103 C 158.038 183.590,158.152 168.843,158.289 168.333 C 158.470 167.655,159.393 166.991,161.711 165.870 L 164.884 164.335 177.734 164.335 L 190.584 164.335 192.533 165.311 M288.906 207.957 C 288.885 208.649,288.690 209.324,288.473 209.458 C 287.492 210.065,288.066 210.823,289.163 210.368 C 289.759 210.121,292.141 209.904,294.457 209.885 C 301.241 209.832,302.660 212.093,302.660 222.952 C 302.660 230.695,304.532 233.233,307.724 229.818 C 308.298 229.204,309.441 228.382,310.263 227.992 C 311.194 227.551,311.956 226.820,312.284 226.055 C 312.990 224.407,314.713 222.864,316.752 222.055 C 318.586 221.328,319.113 220.302,318.617 218.424 C 318.333 217.349,318.325 217.355,317.701 219.024 C 317.162 220.467,316.843 220.773,315.482 221.156 C 314.022 221.566,311.330 223.814,311.330 224.622 C 311.330 225.270,308.903 227.389,308.161 227.389 C 307.752 227.389,307.218 227.761,306.975 228.214 L 306.534 229.040 305.582 228.146 C 304.663 227.283,304.631 227.060,304.631 221.702 C 304.631 214.654,302.688 209.645,299.740 209.089 C 296.280 208.438,294.352 208.285,293.233 208.575 C 291.040 209.143,289.527 208.808,289.217 207.685 C 288.964 206.768,288.943 206.787,288.906 207.957 M333.838 228.374 C 333.893 230.976,334.496 232.337,334.536 229.951 C 334.554 228.867,334.397 227.714,334.187 227.389 C 333.908 226.957,333.814 227.221,333.838 228.374 M260.099 237.635 C 259.557 237.809,258.138 237.996,256.946 238.051 C 254.943 238.144,255.018 238.171,257.931 238.401 L 261.084 238.650 264.201 241.690 C 265.916 243.361,267.467 244.729,267.649 244.729 C 267.831 244.729,267.980 244.906,267.980 245.123 C 267.980 245.359,266.436 245.518,264.138 245.519 C 257.339 245.522,251.016 246.006,252.611 246.401 C 254.465 246.860,267.942 246.748,268.842 246.266 C 270.294 245.489,269.059 242.970,266.285 241.049 C 265.158 240.269,263.734 239.093,263.119 238.436 C 261.950 237.186,261.705 237.121,260.099 237.635 M333.885 240.394 C 333.885 241.153,333.966 241.463,334.065 241.084 C 334.164 240.704,334.164 240.084,334.065 239.704 C 333.966 239.325,333.885 239.635,333.885 240.394 M290.049 241.240 C 285.345 242.779,281.657 246.620,280.758 250.914 C 279.234 258.200,281.170 265.369,285.106 267.013 C 285.774 267.293,286.661 267.897,287.077 268.356 C 289.259 270.767,296.351 271.780,299.533 270.134 C 304.146 267.749,307.588 264.630,307.984 262.476 C 308.124 261.710,308.598 260.286,309.037 259.310 C 310.893 255.182,308.965 248.503,304.631 244.051 C 301.579 240.917,294.945 239.638,290.049 241.240 M298.423 242.740 C 301.200 243.195,305.361 246.164,305.406 247.723 C 305.413 247.961,305.773 248.564,306.207 249.064 C 306.640 249.564,307.008 250.256,307.024 250.602 C 307.040 250.948,307.196 252.207,307.371 253.399 C 308.125 258.534,306.067 264.411,302.968 265.974 C 302.040 266.443,300.660 267.278,299.901 267.832 C 297.673 269.458,290.895 269.129,288.661 267.287 C 287.808 266.585,286.962 266.010,286.780 266.010 C 282.818 266.010,279.336 251.861,282.659 249.261 C 282.936 249.044,283.378 248.379,283.642 247.783 C 283.905 247.187,284.326 246.700,284.577 246.700 C 284.828 246.700,285.443 246.300,285.943 245.813 C 286.444 245.325,287.271 244.525,287.780 244.035 C 289.200 242.668,294.239 242.055,298.423 242.740 M333.702 245.839 C 333.564 246.492,333.966 246.804,337.046 248.433 C 337.824 248.844,338.565 249.465,338.692 249.812 C 338.820 250.159,339.363 251.153,339.899 252.020 C 341.437 254.508,341.287 257.418,339.504 259.661 C 338.747 260.613,338.128 261.513,338.128 261.660 C 338.128 263.682,333.993 264.372,321.521 264.429 C 319.431 264.438,318.651 265.578,319.420 267.499 C 320.052 269.079,321.971 271.133,322.815 271.133 C 323.030 271.133,323.813 271.777,324.556 272.564 C 325.774 273.856,326.050 273.972,327.386 273.751 C 328.201 273.616,329.754 273.481,330.837 273.450 C 332.727 273.396,332.698 273.381,330.113 273.081 C 326.616 272.675,321.839 269.365,320.798 266.627 L 320.444 265.696 328.476 265.557 L 336.508 265.419 337.909 264.061 C 338.680 263.314,339.310 262.483,339.310 262.215 C 339.310 261.947,339.645 261.622,340.053 261.492 C 342.765 260.631,343.845 254.621,341.885 251.302 C 339.947 248.021,334.067 244.096,333.702 245.839 M250.078 261.092 C 249.191 261.763,249.078 261.608,251.779 263.422 C 254.589 265.309,256.055 265.595,262.982 265.606 L 268.822 265.616 268.567 266.502 C 268.427 266.990,268.234 267.655,268.138 267.980 C 268.042 268.305,267.325 269.015,266.544 269.557 C 265.762 270.099,264.733 270.933,264.256 271.412 C 263.779 271.890,262.568 272.501,261.565 272.769 L 259.741 273.257 261.201 273.765 C 263.154 274.446,263.043 274.472,264.757 272.923 C 265.587 272.173,266.721 271.387,267.276 271.176 C 267.955 270.918,268.695 269.975,269.531 268.302 L 270.776 265.813 269.926 265.123 C 269.204 264.538,268.218 264.433,263.393 264.433 C 257.299 264.433,254.555 263.654,252.451 261.324 C 251.574 260.352,251.115 260.307,250.078 261.092 M40.078 280.673 C 39.956 281.586,39.997 282.585,40.170 282.894 C 40.360 283.233,40.505 282.573,40.536 281.236 C 40.597 278.608,40.390 278.353,40.078 280.673 M276.639 288.058 C 276.103 288.505,275.219 289.302,274.674 289.828 C 272.044 292.364,265.110 292.745,262.704 290.485 C 260.653 288.558,258.872 287.741,257.649 288.168 L 256.524 288.560 258.361 289.538 C 259.372 290.076,261.141 291.284,262.293 292.222 C 265.861 295.128,272.153 294.570,275.271 291.070 C 276.082 290.160,279.591 288.504,280.861 288.433 C 281.255 288.410,281.046 288.247,280.394 288.068 C 279.744 287.890,278.852 287.632,278.412 287.494 C 277.895 287.333,277.269 287.532,276.639 288.058 M310.148 287.907 C 308.872 288.389,308.846 288.430,309.804 288.451 C 310.373 288.463,311.060 288.739,311.330 289.064 C 311.600 289.389,312.052 289.655,312.335 289.655 C 312.618 289.655,313.199 290.100,313.627 290.644 C 314.055 291.188,314.999 291.908,315.725 292.244 C 316.451 292.580,317.484 293.103,318.022 293.406 C 318.559 293.708,319.909 294.070,321.021 294.209 C 323.111 294.470,323.327 294.397,326.735 292.300 C 330.245 290.139,331.034 289.543,331.034 289.053 C 331.034 288.764,331.433 288.459,331.921 288.374 C 332.748 288.231,332.733 288.200,331.704 287.905 C 330.891 287.672,330.424 287.760,329.931 288.238 C 325.155 292.863,319.870 293.197,314.390 289.218 C 312.931 288.158,311.689 287.312,311.632 287.338 C 311.574 287.364,310.906 287.620,310.148 287.907 M283.135 288.028 C 284.442 288.308,284.820 289.167,284.893 292.020 C 284.917 292.995,285.194 294.236,285.508 294.778 C 285.821 295.320,286.186 296.030,286.319 296.355 C 287.351 298.884,287.846 299.561,289.463 300.652 C 291.455 301.996,294.675 302.595,297.282 302.106 C 298.615 301.856,302.266 298.785,302.266 297.914 C 302.266 297.721,302.798 297.020,303.448 296.355 C 304.516 295.263,304.631 294.898,304.631 292.591 C 304.631 290.167,304.691 290.001,305.833 289.306 C 307.016 288.587,307.021 288.571,306.128 288.332 C 303.346 287.587,302.660 288.341,302.660 292.143 C 302.660 293.919,302.482 294.829,302.069 295.172 C 301.744 295.442,301.476 295.863,301.473 296.107 C 301.460 297.268,298.422 299.799,296.520 300.235 C 291.350 301.420,287.401 297.968,286.763 291.706 C 286.398 288.117,286.072 287.675,283.828 287.731 C 282.283 287.770,282.166 287.820,283.135 288.028 M51.532 288.358 C 52.022 288.452,52.731 288.448,53.108 288.350 C 53.485 288.251,53.084 288.174,52.217 288.178 C 51.350 288.183,51.041 288.263,51.532 288.358 " stroke="none" fill="#636e84" fill-rule="evenodd"></path>
  </g>
</svg>
