<?xml version="1.0" encoding="UTF-8"?>
<svg xmlns="http://www.w3.org/2000/svg" width="25.3334" height="38.4829" viewBox="0 0 25.3334 38.4829">
  <path d="M25.3322,7.5275l-.0012-.0247a.743.743,0,0,0-.012-.0963h0a.802.802,0,0,0-.0258-.0937L25.285,7.29a.8152.8152,0,0,0-.0373-.0851L25.2454,7.2a.7468.7468,0,0,0-.052-.0828l-.0147-.02a.7564.7564,0,0,0-.0652-.0757L18.312.22A.7536.7536,0,0,0,18.2367.155l-.02-.015a.7086.7086,0,0,0-.0822-.0517L18.1279.0854a.8.8,0,0,0-.0837-.037L18.02.04a.7646.7646,0,0,0-.0937-.0258h0a.81.81,0,0,0-.0957-.012L17.8061.0012,17.7806,0H.7516A.7516.7516,0,0,0,0,.7516H0V32.9222a.7516.7516,0,0,0,.7516.7516H12.0675v4.0574a.7518.7518,0,0,0,1.1512.6368l2.8625-1.7968,2.8626,1.7959A.7516.7516,0,0,0,20.095,37.73V33.6738h4.4868a.7516.7516,0,0,0,.7516-.7516V7.5531Zm-6.8-4.9612,4.2351,4.2349H18.5322ZM11.6967,23.215a2.3094,2.3094,0,0,1-.141-.4738,2.231,2.231,0,0,1,.3873-.28,2.7286,2.7286,0,0,0,.7915-.6612,2.71,2.71,0,0,0,.3925-.9624,2.4277,2.4277,0,0,1,.14-.4364.9358.9358,0,0,1,.1861-.0135c.0837,0,.1773.0047.2766.01.1139.0056.2314.0115.3541.0115a2.1317,2.1317,0,0,0,.6873-.0966,2.8355,2.8355,0,0,0,.8673-.5346,1.927,1.927,0,0,1,.44-.3018,1.7951,1.7951,0,0,1,.4469.3018,2.8369,2.8369,0,0,0,.8676.5346,2.129,2.129,0,0,0,.6873.0966c.1224,0,.24-.0059.3538-.0115.0992-.005.1929-.01.2769-.01a.9211.9211,0,0,1,.1861.0135,2.4127,2.4127,0,0,1,.1392.4357,2.7107,2.7107,0,0,0,.3928.9624,2.7241,2.7241,0,0,0,.7915.6612,2.2523,2.2523,0,0,1,.387.28,2.3263,2.3263,0,0,1-.1406.4742,2.9758,2.9758,0,0,0-.2384,1.0323,2.9867,2.9867,0,0,0,.2382,1.0326,2.3065,2.3065,0,0,1,.1409.4742,2.2523,2.2523,0,0,1-.387.28,2.1457,2.1457,0,0,0-1.1844,1.6236,2.4473,2.4473,0,0,1-.1392.4357.9433.9433,0,0,1-.1861.0135c-.084,0-.1776-.0047-.2769-.01-.1136-.0056-.2314-.0115-.3538-.0115a2.129,2.129,0,0,0-.6873.0966,2.8432,2.8432,0,0,0-.8676.5346,1.8717,1.8717,0,0,1-.4433.3015,1.87,1.87,0,0,1-.443-.3015,2.8444,2.8444,0,0,0-.8676-.5346,2.1317,2.1317,0,0,0-.6873-.0966c-.1224,0-.24.0059-.3541.0115-.0989.005-.1926.01-.2766.01a.9433.9433,0,0,1-.1861-.0135,2.43,2.43,0,0,1-.1395-.4357,2.1444,2.1444,0,0,0-1.1841-1.6236,2.2378,2.2378,0,0,1-.387-.28,2.3263,2.3263,0,0,1,.1406-.4742,2.9758,2.9758,0,0,0,.2384-1.0323A2.9833,2.9833,0,0,0,11.6967,23.215Zm6.8951,13.157-2.111-1.3244a.7531.7531,0,0,0-.7992,0l-2.111,1.3244V29.6081q.12-.0035.2343-.0091c.1-.0053.1935-.01.2783-.01a.7362.7362,0,0,1,.2123.02,2.0232,2.0232,0,0,1,.4.28,2.2131,2.2131,0,0,0,1.3858.6339,2.2132,2.2132,0,0,0,1.3854-.6344,2.0161,2.0161,0,0,1,.4-.28.7418.7418,0,0,1,.2126-.02c.0848,0,.1788.0047.2783.01.076.0038.1544.007.234.0091v6.7636Zm1.5032-4.2014V29.0024a2.7352,2.7352,0,0,0,.3958-.9683,1.9308,1.9308,0,0,1,.15-.45,1.9494,1.9494,0,0,1,.382-.2792A2.1194,2.1194,0,0,0,22.036,26.23a2.1712,2.1712,0,0,0-.1585-1.468,2.0324,2.0324,0,0,1-.1465-.515,2.03,2.03,0,0,1,.1465-.5147,2.172,2.172,0,0,0,.1585-1.4683,2.1208,2.1208,0,0,0-1.0132-1.0746,1.9765,1.9765,0,0,1-.382-.2789,1.94,1.94,0,0,1-.15-.45,2.0973,2.0973,0,0,0-.7029-1.2769,1.7863,1.7863,0,0,0-1.0781-.2995c-.1215,0-.239.0059-.3523.0117-.1.005-.1935.01-.278.01a.7383.7383,0,0,1-.2126-.02,2.005,2.005,0,0,1-.4-.28,2.2163,2.2163,0,0,0-1.3861-.6336,2.2156,2.2156,0,0,0-1.3858.6336,2.0161,2.0161,0,0,1-.4.28.7418.7418,0,0,1-.2126.02c-.0846,0-.1788-.0047-.2783-.01-.1133-.0056-.23-.0115-.3523-.0115a1.7845,1.7845,0,0,0-1.0775.3,2.0974,2.0974,0,0,0-.7026,1.2774,1.9513,1.9513,0,0,1-.1494.45,1.9728,1.9728,0,0,1-.3823.2792,2.122,2.122,0,0,0-1.0133,1.0739,2.172,2.172,0,0,0,.1585,1.4683,2.03,2.03,0,0,1,.1465.5147,2.0283,2.0283,0,0,1-.1465.515,2.172,2.172,0,0,0-.1585,1.4683A2.1236,2.1236,0,0,0,11.14,27.3052a1.9656,1.9656,0,0,1,.3823.2792,1.9513,1.9513,0,0,1,.1494.45,2.7351,2.7351,0,0,0,.3961.9683v3.1685H1.5033V1.5032H17.029v6.05a.7516.7516,0,0,0,.7516.7516h6.05V32.1706Z"></path>
</svg>
