<?xml version="1.0" encoding="UTF-8"?>
<!-- Generator: Adobe Illustrator 19.1.0, SVG Export Plug-In . SVG Version: 6.00 Build 0)  -->
<svg xmlns="http://www.w3.org/2000/svg" xmlns:xlink="http://www.w3.org/1999/xlink" version="1.1" id="Layer_1" x="0px" y="0px" viewBox="0 0 59.5 63.2" style="enable-background:new 0 0 59.5 63.2;" xml:space="preserve">
<style type="text/css">
	.st0{clip-path:url(#SVGID_2_);fill:#505358;}
	.st1{clip-path:url(#SVGID_2_);fill:#4995EC;}
	.st2{clip-path:url(#SVGID_2_);fill:#61B63D;}
</style>
<g>
	<defs>
		<rect id="SVGID_1_" y="0" width="59.5" height="63.2"></rect>
	</defs>
	<clipPath id="SVGID_2_">
		<use xlink:href="#SVGID_1_" style="overflow:visible;"></use>
	</clipPath>
	<path class="st0" d="M59.5,13.6c-1.2,0-2.1,0-2.9,0c-1.2,0-2.3,0-3.9,0c-0.2,0-0.3,0-0.5,0l-0.5,0V0H8v13.6H6.7c-5.6,0-0.6,0-6.2,0   c-0.2,0-0.3,0-0.5,0l0,0v44.3h7.9v5.3h43.6v-5.3h8V13.6z M7.9,55.8H2V24.1h5.9V55.8z M7.9,22.1H6.8c-0.8,0-1.4,0-1.7,0v0   c0,0-0.3,0-0.3,0v0c-0.3,0-0.9,0-1.7,0h0c-0.3,0-0.7,0-0.9-0.3c-0.2-0.2-0.3-0.6-0.2-0.9c0-1.2,0-2.4,0-3.6c0-0.5,0-1,0-1.5v-0.2   h5.9V22.1z M49.6,38.3H9.9V24.1h39.7V38.3z M9.9,10.1h39.7v12H9.9V10.1z M49.6,61.3H9.9V40.3h39.7V61.3z M49.6,8H9.9V2h39.7V8z    M51.6,15.6h5.9V22h-5.9V15.6z M57.5,55.8h-5.9V24.1h5.9V55.8z"></path>
	<path class="st0" d="M32.9,53.8h10.5V43.3H32.9V53.8z M41.5,51.8h-6.7v-6.6h6.7V51.8z"></path>
	<path class="st0" d="M16.1,53.8h10.5V43.3H16.1V53.8z M24.6,51.8H18v-6.6h6.7V51.8z"></path>
	<rect x="16.1" y="56.4" class="st0" width="10.5" height="1.8"></rect>
	<rect x="32.9" y="56.5" class="st0" width="10.5" height="1.8"></rect>
	<polygon class="st1" points="21.4,33.5 19,31.2 21.4,29 20.1,27.6 16.5,31.1 20.1,34.7  "></polygon>
	<polygon class="st1" points="43,31.2 39.4,27.6 38,28.9 40.5,31.2 38.1,33.4 39.4,34.8  "></polygon>
	<rect x="19.6" y="17.3" class="st0" width="20.3" height="1.8"></rect>
	<rect x="26.6" y="13" class="st0" width="6.4" height="1.8"></rect>
	<rect x="23.7" y="4.1" class="st2" width="1.9" height="1.8"></rect>
	<rect x="18.8" y="4.1" class="st2" width="1.9" height="1.8"></rect>
	<rect x="14" y="4.1" class="st2" width="1.8" height="1.9"></rect>
</g>
</svg>
